<?xml version="1.0" encoding="utf-8" standalone="no"?>
<!DOCTYPE svg PUBLIC "-//W3C//DTD SVG 1.1//EN"
  "http://www.w3.org/Graphics/SVG/1.1/DTD/svg11.dtd">
<svg xmlns:xlink="http://www.w3.org/1999/xlink" width="1199.52px" height="599.76px" viewBox="0 0 1199.52 599.76" xmlns="http://www.w3.org/2000/svg" version="1.1">
  <defs>
  <style type="text/css">*{stroke-linejoin: round; stroke-linecap: butt}</style>
 </defs>
 <g id="figure_1">
  <g id="patch_1">
   <path d="M 0 599.76 
L 1199.52 599.76 
L 1199.52 0 
L 0 0 
z
" style="fill: #ffffff"/>
  </g>
  <g id="axes_1">
   <g id="line2d_1">
    <path d="M -1 148.519893 
L 6.776949 135.732238 
L 22.589831 112.817461 
L 38.402712 260.824326 
L 54.215593 233.639379 
L 70.028475 136.377741 
L 85.841356 189.539394 
L 101.654237 196.7887 
L 117.467119 223.369526 
L 133.28 314.590071 
L 149.092881 346.003764 
L 164.905763 398.164574 
L 180.718644 10.471502 
L 196.531525 116.097256 
L 212.344407 317.029004 
L 228.157288 498.535321 
L 243.970169 508.509248 
L 259.783051 381.042123 
L 275.595932 386.47911 
L 291.408814 395.540749 
L 307.221695 216.120192 
L 323.034576 500.655821 
L 338.847458 534.485959 
L 354.660339 561.67089 
L 370.47322 532.069521 
L 386.286102 551.401028 
L 402.098983 559.254452 
L 417.911864 519.383221 
L 433.724746 465.013355 
L 449.537627 529.65308 
L 465.350508 521.799657 
L 481.16339 526.028424 
L 496.976271 547.77637 
L 512.789153 504.884588 
L 528.602034 470.450342 
L 544.414915 495.218834 
L 560.227797 524.216097 
L 576.040678 538.714725 
L 591.853559 556.838014 
L 607.666441 522.403767 
L 623.479322 556.838014 
L 639.292203 537.506507 
L 655.105085 545.359932 
L 670.917966 548.984589 
L 686.730847 527.840754 
L 702.543729 541.131164 
L 718.35661 544.755822 
L 734.169492 526.632534 
L 749.982373 536.298287 
L 765.795254 547.17226 
L 781.608136 536.273844 
L 797.421017 526.987717 
L 813.233898 482.887467 
L 829.04678 442.174415 
L 844.859661 504.081938 
L 860.672542 539.318835 
L 876.485424 502.468151 
L 892.298305 538.714725 
L 908.111186 496.427054 
L 923.924068 359.898283 
L 939.736949 336.338018 
L 955.549831 397.957189 
L 971.362712 453.535275 
L 987.175593 477.563138 
L 1002.988475 483.359211 
L 1018.801356 279.392259 
L 1034.614237 179.229904 
L 1050.427119 422.047719 
L 1066.24 370.772256 
L 1082.052881 516.966781 
L 1097.865763 398.561296 
L 1113.678644 528.444864 
L 1129.491525 369.564044 
L 1145.304407 362.91883 
L 1161.117288 175.040754 
L 1176.930169 203.433914 
L 1192.743051 447.494175 
L 1200.52 347.665972 
L 1200.52 347.665972 
" clip-path="url(#p9769d0cf33)" style="fill: none; stroke: #af3331; stroke-width: 3; stroke-linecap: round"/>
   </g>
   <g id="line2d_2">
    <path d="M 307.221695 403.586632 
L 323.034576 427.344515 
L 338.847458 452.058956 
L 354.660339 441.610375 
L 370.47322 426.526818 
L 386.286102 430.882099 
L 402.098983 461.642266 
L 417.911864 455.896177 
L 433.724746 453.763565 
L 449.537627 451.266827 
L 465.350508 453.598507 
L 481.16339 448.523588 
L 496.976271 440.031351 
" clip-path="url(#p9769d0cf33)" style="fill: none; stroke: #00264c; stroke-opacity: 0.1; stroke-width: 4; stroke-linecap: round"/>
   </g>
   <g id="line2d_3">
    <path d="M 338.847458 486.904624 
L 354.660339 480.501435 
L 370.47322 481.863202 
L 386.286102 467.967602 
L 402.098983 441.981388 
L 417.911864 451.918121 
L 433.724746 478.58917 
L 449.537627 460.175949 
L 465.350508 463.885212 
L 481.16339 461.066558 
L 496.976271 457.53044 
L 512.789153 456.8913 
L 528.602034 443.769076 
" clip-path="url(#p9769d0cf33)" style="fill: none; stroke: #00264c; stroke-opacity: 0.181818; stroke-width: 4.181818; stroke-linecap: round"/>
   </g>
   <g id="line2d_4">
    <path d="M 370.47322 532.180051 
L 386.286102 522.829299 
L 402.098983 516.286737 
L 417.911864 503.3857 
L 433.724746 488.099939 
L 449.537627 483.179132 
L 465.350508 498.647672 
L 481.16339 484.009398 
L 496.976271 486.283501 
L 512.789153 478.60743 
L 528.602034 477.074807 
L 544.414915 469.854829 
L 560.227797 456.139066 
" clip-path="url(#p9769d0cf33)" style="fill: none; stroke: #00264c; stroke-opacity: 0.263636; stroke-width: 4.363636; stroke-linecap: round"/>
   </g>
   <g id="line2d_5">
    <path d="M 402.098983 528.279098 
L 417.911864 521.985953 
L 433.724746 511.066533 
L 449.537627 506.638955 
L 465.350508 494.192138 
L 481.16339 491.086153 
L 496.976271 498.084383 
L 512.789153 491.690173 
L 528.602034 485.285718 
L 544.414915 476.314673 
L 560.227797 485.204977 
L 576.040678 464.827992 
L 591.853559 456.888354 
" clip-path="url(#p9769d0cf33)" style="fill: none; stroke: #00264c; stroke-opacity: 0.345455; stroke-width: 4.545455; stroke-linecap: round"/>
   </g>
   <g id="line2d_6">
    <path d="M 433.724746 482.99078 
L 449.537627 500.01508 
L 465.350508 498.709173 
L 481.16339 484.339656 
L 496.976271 488.075845 
L 512.789153 486.030009 
L 528.602034 481.893366 
L 544.414915 485.206214 
L 560.227797 483.533971 
L 576.040678 476.607017 
L 591.853559 478.084773 
L 607.666441 460.85394 
L 623.479322 458.576676 
" clip-path="url(#p9769d0cf33)" style="fill: none; stroke: #00264c; stroke-opacity: 0.427273; stroke-width: 4.727273; stroke-linecap: round"/>
   </g>
   <g id="line2d_7">
    <path d="M 465.350508 520.374991 
L 481.16339 521.793198 
L 496.976271 511.679577 
L 512.789153 496.627468 
L 528.602034 493.210671 
L 544.414915 474.774242 
L 560.227797 491.426035 
L 576.040678 472.048377 
L 591.853559 478.338037 
L 607.666441 467.642713 
L 623.479322 473.219097 
L 639.292203 458.058066 
L 655.105085 449.750698 
" clip-path="url(#p9769d0cf33)" style="fill: none; stroke: #00264c; stroke-opacity: 0.509091; stroke-width: 4.909091; stroke-linecap: round"/>
   </g>
   <g id="line2d_8">
    <path d="M 496.976271 512.979978 
L 512.789153 507.513806 
L 528.602034 507.907361 
L 544.414915 496.786684 
L 560.227797 488.224236 
L 576.040678 475.245557 
L 591.853559 481.998803 
L 607.666441 464.978879 
L 623.479322 484.257735 
L 639.292203 468.836491 
L 655.105085 465.207283 
L 670.917966 449.911488 
L 686.730847 458.562956 
" clip-path="url(#p9769d0cf33)" style="fill: none; stroke: #00264c; stroke-opacity: 0.590909; stroke-width: 5.090909; stroke-linecap: round"/>
   </g>
   <g id="line2d_9">
    <path d="M 528.602034 506.659289 
L 544.414915 506.241629 
L 560.227797 501.488117 
L 576.040678 484.063792 
L 591.853559 489.077953 
L 607.666441 476.835821 
L 623.479322 478.545743 
L 639.292203 469.06127 
L 655.105085 482.879645 
L 670.917966 458.777461 
L 686.730847 463.588099 
L 702.543729 455.830979 
L 718.35661 460.621568 
" clip-path="url(#p9769d0cf33)" style="fill: none; stroke: #00264c; stroke-opacity: 0.672727; stroke-width: 5.272727; stroke-linecap: round"/>
   </g>
   <g id="line2d_10">
    <path d="M 560.227797 489.495774 
L 576.040678 486.844853 
L 591.853559 484.96296 
L 607.666441 465.500957 
L 623.479322 472.407607 
L 639.292203 455.642999 
L 655.105085 468.268512 
L 670.917966 454.386068 
L 686.730847 476.030215 
L 702.543729 454.386911 
L 718.35661 458.453323 
L 734.169492 445.112375 
L 749.982373 452.937496 
" clip-path="url(#p9769d0cf33)" style="fill: none; stroke: #00264c; stroke-opacity: 0.754545; stroke-width: 5.454545; stroke-linecap: round"/>
   </g>
   <g id="line2d_11">
    <path d="M 591.853559 519.289628 
L 607.666441 503.399428 
L 623.479322 505.117725 
L 639.292203 481.705622 
L 655.105085 488.536721 
L 670.917966 471.40459 
L 686.730847 486.608555 
L 702.543729 475.642551 
L 718.35661 489.949422 
L 734.169492 462.704017 
L 749.982373 467.693926 
L 765.795254 455.089376 
L 781.608136 458.30596 
" clip-path="url(#p9769d0cf33)" style="fill: none; stroke: #00264c; stroke-opacity: 0.836364; stroke-width: 5.636364; stroke-linecap: round"/>
   </g>
   <g id="line2d_12">
    <path d="M 623.479322 526.887685 
L 639.292203 507.967247 
L 655.105085 502.253893 
L 670.917966 483.311087 
L 686.730847 492.851491 
L 702.543729 477.80241 
L 718.35661 491.180679 
L 734.169492 477.695915 
L 749.982373 479.76957 
L 765.795254 466.87001 
L 781.608136 473.597759 
L 797.421017 464.174102 
L 813.233898 475.595713 
" clip-path="url(#p9769d0cf33)" style="fill: none; stroke: #00264c; stroke-opacity: 0.918182; stroke-width: 5.818182; stroke-linecap: round"/>
   </g>
  </g>
 </g>
 <defs>
  <clipPath id="p9769d0cf33">
   <rect x="0" y="0" width="1199.52" height="599.76"/>
  </clipPath>
 </defs>
</svg>
