<?xml version="1.0" encoding="utf-8" standalone="no"?>
<!DOCTYPE svg PUBLIC "-//W3C//DTD SVG 1.1//EN"
  "http://www.w3.org/Graphics/SVG/1.1/DTD/svg11.dtd">
<svg xmlns:xlink="http://www.w3.org/1999/xlink" width="1199.52px" height="599.76px" viewBox="0 0 1199.52 599.76" xmlns="http://www.w3.org/2000/svg" version="1.1">
  <defs>
  <style type="text/css">*{stroke-linejoin: round; stroke-linecap: butt}</style>
 </defs>
 <g id="figure_1">
  <g id="patch_1">
   <path d="M 0 599.76 
L 1199.52 599.76 
L 1199.52 0 
L 0 0 
z
" style="fill: #ffffff"/>
  </g>
  <g id="axes_1">
   <g id="line2d_1">
    <path d="M -1 148.519893 
L 6.776949 135.732238 
L 22.589831 112.817461 
L 38.402712 260.824326 
L 54.215593 233.639379 
L 70.028475 136.377741 
L 85.841356 189.539394 
L 101.654237 196.7887 
L 117.467119 223.369526 
L 133.28 314.590071 
L 149.092881 346.003764 
L 164.905763 398.164574 
L 180.718644 10.471502 
L 196.531525 116.097256 
L 212.344407 317.029004 
L 228.157288 498.535321 
L 243.970169 508.509248 
L 259.783051 381.042123 
L 275.595932 386.47911 
L 291.408814 395.540749 
L 307.221695 216.120192 
L 323.034576 500.655821 
L 338.847458 534.485959 
L 354.660339 561.67089 
L 370.47322 532.069521 
L 386.286102 551.401028 
L 402.098983 559.254452 
L 417.911864 519.383221 
L 433.724746 465.013355 
L 449.537627 529.65308 
L 465.350508 521.799657 
L 481.16339 526.028424 
L 496.976271 547.77637 
L 512.789153 504.884588 
L 528.602034 470.450342 
L 544.414915 495.218834 
L 560.227797 524.216097 
L 576.040678 538.714725 
L 591.853559 556.838014 
L 607.666441 522.403767 
L 623.479322 556.838014 
L 639.292203 537.506507 
L 655.105085 545.359932 
L 670.917966 548.984589 
L 686.730847 527.840754 
L 702.543729 541.131164 
L 718.35661 544.755822 
L 734.169492 526.632534 
L 749.982373 536.298287 
L 765.795254 547.17226 
L 781.608136 536.273844 
L 797.421017 526.987717 
L 813.233898 482.887467 
L 829.04678 442.174415 
L 844.859661 504.081938 
L 860.672542 539.318835 
L 876.485424 502.468151 
L 892.298305 538.714725 
L 908.111186 496.427054 
L 923.924068 359.898283 
L 939.736949 336.338018 
L 955.549831 397.957189 
L 971.362712 453.535275 
L 987.175593 477.563138 
L 1002.988475 483.359211 
L 1018.801356 279.392259 
L 1034.614237 179.229904 
L 1050.427119 422.047719 
L 1066.24 370.772256 
L 1082.052881 516.966781 
L 1097.865763 398.561296 
L 1113.678644 528.444864 
L 1129.491525 369.564044 
L 1145.304407 362.91883 
L 1161.117288 175.040754 
L 1176.930169 203.433914 
L 1192.743051 447.494175 
L 1200.52 347.665972 
L 1200.52 347.665972 
" clip-path="url(#p6f2b6c7354)" style="fill: none; stroke: #af3331; stroke-width: 3; stroke-linecap: round"/>
   </g>
   <g id="line2d_2">
    <path d="M 307.221695 388.669162 
L 323.034576 427.167646 
L 354.660339 446.624643 
L 417.911864 456.670231 
L 496.976271 437.309061 
" clip-path="url(#p6f2b6c7354)" style="fill: none; stroke: #00264c; stroke-opacity: 0.1; stroke-width: 4; stroke-linecap: round"/>
   </g>
   <g id="line2d_3">
    <path d="M 338.847458 490.600388 
L 354.660339 462.280734 
L 386.286102 466.904857 
L 449.537627 440.135708 
L 528.602034 426.150887 
" clip-path="url(#p6f2b6c7354)" style="fill: none; stroke: #00264c; stroke-opacity: 0.181818; stroke-width: 4.181818; stroke-linecap: round"/>
   </g>
   <g id="line2d_4">
    <path d="M 370.47322 541.586342 
L 386.286102 513.106817 
L 417.911864 490.097343 
L 481.16339 462.989412 
L 560.227797 432.51376 
" clip-path="url(#p6f2b6c7354)" style="fill: none; stroke: #00264c; stroke-opacity: 0.263636; stroke-width: 4.363636; stroke-linecap: round"/>
   </g>
   <g id="line2d_5">
    <path d="M 402.098983 521.355404 
L 417.911864 517.089066 
L 449.537627 480.971134 
L 512.789153 486.355127 
L 591.853559 423.208987 
" clip-path="url(#p6f2b6c7354)" style="fill: none; stroke: #00264c; stroke-opacity: 0.345455; stroke-width: 4.545455; stroke-linecap: round"/>
   </g>
   <g id="line2d_6">
    <path d="M 433.724746 469.881104 
L 449.537627 481.091842 
L 481.16339 443.524385 
L 544.414915 473.936012 
L 623.479322 422.468608 
" clip-path="url(#p6f2b6c7354)" style="fill: none; stroke: #00264c; stroke-opacity: 0.427273; stroke-width: 4.727273; stroke-linecap: round"/>
   </g>
   <g id="line2d_7">
    <path d="M 465.350508 509.679085 
L 481.16339 505.70799 
L 512.789153 454.683753 
L 576.040678 461.210431 
L 655.105085 424.842579 
" clip-path="url(#p6f2b6c7354)" style="fill: none; stroke: #00264c; stroke-opacity: 0.509091; stroke-width: 4.909091; stroke-linecap: round"/>
   </g>
   <g id="line2d_8">
    <path d="M 496.976271 514.676533 
L 512.789153 506.17785 
L 544.414915 452.573277 
L 607.666441 459.446265 
L 686.730847 435.86957 
" clip-path="url(#p6f2b6c7354)" style="fill: none; stroke: #00264c; stroke-opacity: 0.590909; stroke-width: 5.090909; stroke-linecap: round"/>
   </g>
   <g id="line2d_9">
    <path d="M 528.602034 505.79222 
L 544.414915 495.483194 
L 576.040678 459.068139 
L 639.292203 467.79157 
L 718.35661 444.81592 
" clip-path="url(#p6f2b6c7354)" style="fill: none; stroke: #00264c; stroke-opacity: 0.672727; stroke-width: 5.272727; stroke-linecap: round"/>
   </g>
   <g id="line2d_10">
    <path d="M 560.227797 489.686571 
L 576.040678 475.730507 
L 607.666441 457.408595 
L 670.917966 459.155487 
L 749.982373 451.48219 
" clip-path="url(#p6f2b6c7354)" style="fill: none; stroke: #00264c; stroke-opacity: 0.754545; stroke-width: 5.454545; stroke-linecap: round"/>
   </g>
   <g id="line2d_11">
    <path d="M 591.853559 530.498847 
L 607.666441 505.032483 
L 639.292203 498.291309 
L 702.543729 481.46279 
L 781.608136 477.933686 
" clip-path="url(#p6f2b6c7354)" style="fill: none; stroke: #00264c; stroke-opacity: 0.836364; stroke-width: 5.636364; stroke-linecap: round"/>
   </g>
   <g id="line2d_12">
    <path d="M 623.479322 523.385181 
L 639.292203 517.774825 
L 670.917966 509.831284 
L 734.169492 503.721561 
L 813.233898 497.064764 
" clip-path="url(#p6f2b6c7354)" style="fill: none; stroke: #00264c; stroke-opacity: 0.918182; stroke-width: 5.818182; stroke-linecap: round"/>
   </g>
  </g>
 </g>
 <defs>
  <clipPath id="p6f2b6c7354">
   <rect x="0" y="0" width="1199.52" height="599.76"/>
  </clipPath>
 </defs>
</svg>
