<?xml version="1.0" encoding="utf-8" standalone="no"?>
<!DOCTYPE svg PUBLIC "-//W3C//DTD SVG 1.1//EN"
  "http://www.w3.org/Graphics/SVG/1.1/DTD/svg11.dtd">
<svg xmlns:xlink="http://www.w3.org/1999/xlink" width="1199.52px" height="599.76px" viewBox="0 0 1199.52 599.76" xmlns="http://www.w3.org/2000/svg" version="1.1">
  <defs>
  <style type="text/css">*{stroke-linejoin: round; stroke-linecap: butt}</style>
 </defs>
 <g id="figure_1">
  <g id="patch_1">
   <path d="M 0 599.76 
L 1199.52 599.76 
L 1199.52 0 
L 0 0 
z
" style="fill: #ffffff"/>
  </g>
  <g id="axes_1">
   <g id="line2d_1">
    <path d="M -1 148.519893 
L 6.776949 135.732238 
L 22.589831 112.817461 
L 38.402712 260.824326 
L 54.215593 233.639379 
L 70.028475 136.377741 
L 85.841356 189.539394 
L 101.654237 196.7887 
L 117.467119 223.369526 
L 133.28 314.590071 
L 149.092881 346.003764 
L 164.905763 398.164574 
L 180.718644 10.471502 
L 196.531525 116.097256 
L 212.344407 317.029004 
L 228.157288 498.535321 
L 243.970169 508.509248 
L 259.783051 381.042123 
L 275.595932 386.47911 
L 291.408814 395.540749 
L 307.221695 216.120192 
L 323.034576 500.655821 
L 338.847458 534.485959 
L 354.660339 561.67089 
L 370.47322 532.069521 
L 386.286102 551.401028 
L 402.098983 559.254452 
L 417.911864 519.383221 
L 433.724746 465.013355 
L 449.537627 529.65308 
L 465.350508 521.799657 
L 481.16339 526.028424 
L 496.976271 547.77637 
L 512.789153 504.884588 
L 528.602034 470.450342 
L 544.414915 495.218834 
L 560.227797 524.216097 
L 576.040678 538.714725 
L 591.853559 556.838014 
L 607.666441 522.403767 
L 623.479322 556.838014 
L 639.292203 537.506507 
L 655.105085 545.359932 
L 670.917966 548.984589 
L 686.730847 527.840754 
L 702.543729 541.131164 
L 718.35661 544.755822 
L 734.169492 526.632534 
L 749.982373 536.298287 
L 765.795254 547.17226 
L 781.608136 536.273844 
L 797.421017 526.987717 
L 813.233898 482.887467 
L 829.04678 442.174415 
L 844.859661 504.081938 
L 860.672542 539.318835 
L 876.485424 502.468151 
L 892.298305 538.714725 
L 908.111186 496.427054 
L 923.924068 359.898283 
L 939.736949 336.338018 
L 955.549831 397.957189 
L 971.362712 453.535275 
L 987.175593 477.563138 
L 1002.988475 483.359211 
L 1018.801356 279.392259 
L 1034.614237 179.229904 
L 1050.427119 422.047719 
L 1066.24 370.772256 
L 1082.052881 516.966781 
L 1097.865763 398.561296 
L 1113.678644 528.444864 
L 1129.491525 369.564044 
L 1145.304407 362.91883 
L 1161.117288 175.040754 
L 1176.930169 203.433914 
L 1192.743051 447.494175 
L 1200.52 347.665972 
L 1200.52 347.665972 
" clip-path="url(#p56345c3c80)" style="fill: none; stroke: #af3331; stroke-width: 3; stroke-linecap: round"/>
   </g>
   <g id="line2d_2">
    <path d="M 307.221695 344.406979 
L 323.034576 404.681007 
L 338.847458 395.30358 
L 354.660339 423.24046 
L 370.47322 387.40042 
L 386.286102 399.858608 
L 402.098983 370.839864 
L 417.911864 456.554864 
L 433.724746 378.986228 
L 449.537627 378.486793 
L 465.350508 428.644415 
L 481.16339 389.158144 
L 496.976271 405.328884 
" clip-path="url(#p56345c3c80)" style="fill: none; stroke: #00264c; stroke-opacity: 0.1; stroke-width: 4; stroke-linecap: round"/>
   </g>
   <g id="line2d_3">
    <path d="M 338.847458 452.703673 
L 354.660339 459.514416 
L 370.47322 455.144393 
L 386.286102 485.801083 
L 402.098983 438.536607 
L 417.911864 425.555232 
L 433.724746 398.94931 
L 449.537627 483.626367 
L 465.350508 407.826902 
L 481.16339 403.116653 
L 496.976271 440.226337 
L 512.789153 409.070792 
L 528.602034 434.556557 
" clip-path="url(#p56345c3c80)" style="fill: none; stroke: #00264c; stroke-opacity: 0.181818; stroke-width: 4.181818; stroke-linecap: round"/>
   </g>
   <g id="line2d_4">
    <path d="M 370.47322 530.465543 
L 386.286102 519.83851 
L 402.098983 503.78219 
L 417.911864 525.523051 
L 433.724746 476.273755 
L 449.537627 484.429521 
L 465.350508 462.050757 
L 481.16339 502.815623 
L 496.976271 444.063622 
L 512.789153 447.86912 
L 528.602034 461.995518 
L 544.414915 442.878346 
L 560.227797 468.716969 
" clip-path="url(#p56345c3c80)" style="fill: none; stroke: #00264c; stroke-opacity: 0.263636; stroke-width: 4.363636; stroke-linecap: round"/>
   </g>
   <g id="line2d_5">
    <path d="M 402.098983 528.834866 
L 417.911864 521.339081 
L 433.724746 514.327796 
L 449.537627 511.923117 
L 465.350508 480.270929 
L 481.16339 491.581598 
L 496.976271 476.358193 
L 512.789153 502.779399 
L 528.602034 454.542346 
L 544.414915 452.357098 
L 560.227797 472.533663 
L 576.040678 424.250798 
L 591.853559 452.495302 
" clip-path="url(#p56345c3c80)" style="fill: none; stroke: #00264c; stroke-opacity: 0.345455; stroke-width: 4.545455; stroke-linecap: round"/>
   </g>
   <g id="line2d_6">
    <path d="M 433.724746 462.586126 
L 449.537627 486.511033 
L 465.350508 507.171911 
L 481.16339 480.408003 
L 496.976271 475.041662 
L 512.789153 472.503784 
L 528.602034 458.5786 
L 544.414915 486.747324 
L 560.227797 446.201582 
L 576.040678 441.050497 
L 591.853559 466.869974 
L 607.666441 418.293671 
L 623.479322 435.229386 
" clip-path="url(#p56345c3c80)" style="fill: none; stroke: #00264c; stroke-opacity: 0.427273; stroke-width: 4.727273; stroke-linecap: round"/>
   </g>
   <g id="line2d_7">
    <path d="M 465.350508 537.143177 
L 481.16339 499.241289 
L 496.976271 507.158012 
L 512.789153 485.097874 
L 528.602034 484.250557 
L 544.414915 479.221332 
L 560.227797 459.120168 
L 576.040678 476.753292 
L 591.853559 438.395043 
L 607.666441 434.213929 
L 623.479322 465.557504 
L 639.292203 407.024277 
L 655.105085 431.933562 
" clip-path="url(#p56345c3c80)" style="fill: none; stroke: #00264c; stroke-opacity: 0.509091; stroke-width: 4.909091; stroke-linecap: round"/>
   </g>
   <g id="line2d_8">
    <path d="M 496.976271 518.648411 
L 512.789153 503.236987 
L 528.602034 496.882748 
L 544.414915 476.751812 
L 560.227797 485.968858 
L 576.040678 473.431822 
L 591.853559 443.482952 
L 607.666441 463.238286 
L 623.479322 432.21659 
L 639.292203 425.229592 
L 655.105085 460.834372 
L 670.917966 403.065991 
L 686.730847 416.24178 
" clip-path="url(#p56345c3c80)" style="fill: none; stroke: #00264c; stroke-opacity: 0.590909; stroke-width: 5.090909; stroke-linecap: round"/>
   </g>
   <g id="line2d_9">
    <path d="M 528.602034 518.802809 
L 544.414915 501.939549 
L 560.227797 494.623007 
L 576.040678 474.602192 
L 591.853559 475.735147 
L 607.666441 472.953465 
L 623.479322 442.356804 
L 639.292203 446.923522 
L 655.105085 429.44664 
L 670.917966 419.554949 
L 686.730847 452.09587 
L 702.543729 418.712543 
L 718.35661 442.245812 
" clip-path="url(#p56345c3c80)" style="fill: none; stroke: #00264c; stroke-opacity: 0.672727; stroke-width: 5.272727; stroke-linecap: round"/>
   </g>
   <g id="line2d_10">
    <path d="M 560.227797 494.325601 
L 576.040678 476.065377 
L 591.853559 468.478448 
L 607.666441 453.185734 
L 623.479322 459.532855 
L 639.292203 455.709548 
L 655.105085 422.868548 
L 670.917966 430.143621 
L 686.730847 415.331867 
L 702.543729 408.114806 
L 718.35661 432.060054 
L 734.169492 417.692239 
L 749.982373 438.867795 
" clip-path="url(#p56345c3c80)" style="fill: none; stroke: #00264c; stroke-opacity: 0.754545; stroke-width: 5.454545; stroke-linecap: round"/>
   </g>
   <g id="line2d_11">
    <path d="M 591.853559 522.13022 
L 607.666441 499.129575 
L 623.479322 490.80532 
L 639.292203 473.211933 
L 655.105085 465.945711 
L 670.917966 456.884858 
L 686.730847 439.898037 
L 702.543729 437.086906 
L 718.35661 429.413494 
L 734.169492 427.508872 
L 749.982373 461.137762 
L 765.795254 450.746236 
L 781.608136 475.824811 
" clip-path="url(#p56345c3c80)" style="fill: none; stroke: #00264c; stroke-opacity: 0.836364; stroke-width: 5.636364; stroke-linecap: round"/>
   </g>
   <g id="line2d_12">
    <path d="M 623.479322 526.502931 
L 639.292203 511.277449 
L 655.105085 473.807996 
L 670.917966 482.203341 
L 686.730847 461.614604 
L 702.543729 470.595538 
L 718.35661 439.782656 
L 734.169492 440.205274 
L 749.982373 426.518882 
L 765.795254 430.515577 
L 781.608136 475.922419 
L 797.421017 459.444528 
L 813.233898 490.161633 
" clip-path="url(#p56345c3c80)" style="fill: none; stroke: #00264c; stroke-opacity: 0.918182; stroke-width: 5.818182; stroke-linecap: round"/>
   </g>
  </g>
 </g>
 <defs>
  <clipPath id="p56345c3c80">
   <rect x="0" y="0" width="1199.52" height="599.76"/>
  </clipPath>
 </defs>
</svg>
