<?xml version="1.0" encoding="utf-8" standalone="no"?>
<!DOCTYPE svg PUBLIC "-//W3C//DTD SVG 1.1//EN"
  "http://www.w3.org/Graphics/SVG/1.1/DTD/svg11.dtd">
<svg xmlns:xlink="http://www.w3.org/1999/xlink" width="399.6px" height="299.52px" viewBox="0 0 399.6 299.52" xmlns="http://www.w3.org/2000/svg" version="1.1">
  <defs>
  <style type="text/css">*{stroke-linejoin: round; stroke-linecap: butt}</style>
 </defs>
 <g id="figure-forecast-diagram">
  <g id="patch_1">
   <path d="M 0 299.52 
L 399.6 299.52 
L 399.6 0 
L 0 0 
z
" style="fill: #ffffff"/>
  </g>
  <g id="axis-forecast-diagramforecast">
   <g id="patch_2">
    <path d="M 19.98 254.592 
L 379.62 254.592 
L 379.62 29.952 
L 19.98 29.952 
z
" style="fill: #ffffff"/>
   </g>
   <g id="matplotlib.axis_1">
    <g id="xtick_1">
     <g id="line2d_1">
      <defs>
       <path id="ma34c7087fb" d="M 0 0 
L 0 3.5 
" style="stroke: #949494; stroke-width: 0.8"/>
      </defs>
      <g>
       <use xlink:href="#ma34c7087fb" x="67.932" y="254.592" style="fill: #949494; stroke: #949494; stroke-width: 0.8"/>
      </g>
     </g>
     <g id="text_1">
      <text style="font-size: 16px; font-family: 'Source Sans 3', sans-serif; text-anchor: middle; fill: #595959" x="67.932" y="273.1445" transform="rotate(-0 67.932 273.1445)">1</text>
     </g>
    </g>
    <g id="xtick_2">
     <g id="line2d_2">
      <g>
       <use xlink:href="#ma34c7087fb" x="355.644" y="254.592" style="fill: #949494; stroke: #949494; stroke-width: 0.8"/>
      </g>
     </g>
     <g id="text_2">
      <text style="font-size: 16px; font-family: 'Source Sans 3', sans-serif; text-anchor: middle; fill: #595959" x="355.644" y="273.1445" transform="rotate(-0 355.644 273.1445)">13</text>
     </g>
    </g>
    <g id="text_3">
     <text style="font-weight: 600; font-size: 16px; font-family: 'Source Sans 3', sans-serif; text-anchor: middle; fill: #595959" x="199.8" y="292.2495" transform="rotate(-0 199.8 292.2495)">Forecast horizon in weeks</text>
    </g>
   </g>
   <g id="line2d_3">
    <path d="M 43.956 155.223214 
L 67.932 169.618242 
L 91.908 158.94488 
L 115.884 90.359395 
L 139.86 71.352787 
L 163.836 137.595771 
L 187.812 155.00772 
L 211.788 103.720049 
L 235.764 108.504025 
L 259.74 144.96568 
L 283.716 174.660811 
L 307.692 162.377629 
L 331.668 125.614282 
L 355.644 153.45616 
" clip-path="url(#p53937f48aa)" style="fill: none; stroke: #00264c; stroke-width: 2; stroke-linecap: square"/>
   </g>
   <g id="PathCollection_1">
    <defs>
     <path id="md1601caa11" d="M 0 5 
C 1.326016 5 2.597899 4.473168 3.535534 3.535534 
C 4.473168 2.597899 5 1.326016 5 0 
C 5 -1.326016 4.473168 -2.597899 3.535534 -3.535534 
C 2.597899 -4.473168 1.326016 -5 0 -5 
C -1.326016 -5 -2.597899 -4.473168 -3.535534 -3.535534 
C -4.473168 -2.597899 -5 -1.326016 -5 0 
C -5 1.326016 -4.473168 2.597899 -3.535534 3.535534 
C -2.597899 4.473168 -1.326016 5 0 5 
z
" style="stroke: #00264c"/>
    </defs>
    <g clip-path="url(#p53937f48aa)">
     <use xlink:href="#md1601caa11" x="43.956" y="155.223214" style="fill: #ffffff; stroke: #00264c"/>
    </g>
   </g>
   <g id="PathCollection_2">
    <defs>
     <path id="mf9a27f01da" d="M 0 5 
C 1.326016 5 2.597899 4.473168 3.535534 3.535534 
C 4.473168 2.597899 5 1.326016 5 0 
C 5 -1.326016 4.473168 -2.597899 3.535534 -3.535534 
C 2.597899 -4.473168 1.326016 -5 0 -5 
C -1.326016 -5 -2.597899 -4.473168 -3.535534 -3.535534 
C -4.473168 -2.597899 -5 -1.326016 -5 0 
C -5 1.326016 -4.473168 2.597899 -3.535534 3.535534 
C -2.597899 4.473168 -1.326016 5 0 5 
z
" style="stroke: #00264c"/>
    </defs>
    <g clip-path="url(#p53937f48aa)">
     <use xlink:href="#mf9a27f01da" x="67.932" y="169.618242" style="fill: #00264c; stroke: #00264c"/>
     <use xlink:href="#mf9a27f01da" x="91.908" y="158.94488" style="fill: #00264c; stroke: #00264c"/>
     <use xlink:href="#mf9a27f01da" x="115.884" y="90.359395" style="fill: #00264c; stroke: #00264c"/>
     <use xlink:href="#mf9a27f01da" x="139.86" y="71.352787" style="fill: #00264c; stroke: #00264c"/>
     <use xlink:href="#mf9a27f01da" x="163.836" y="137.595771" style="fill: #00264c; stroke: #00264c"/>
     <use xlink:href="#mf9a27f01da" x="187.812" y="155.00772" style="fill: #00264c; stroke: #00264c"/>
     <use xlink:href="#mf9a27f01da" x="211.788" y="103.720049" style="fill: #00264c; stroke: #00264c"/>
     <use xlink:href="#mf9a27f01da" x="235.764" y="108.504025" style="fill: #00264c; stroke: #00264c"/>
     <use xlink:href="#mf9a27f01da" x="259.74" y="144.96568" style="fill: #00264c; stroke: #00264c"/>
     <use xlink:href="#mf9a27f01da" x="283.716" y="174.660811" style="fill: #00264c; stroke: #00264c"/>
     <use xlink:href="#mf9a27f01da" x="307.692" y="162.377629" style="fill: #00264c; stroke: #00264c"/>
     <use xlink:href="#mf9a27f01da" x="331.668" y="125.614282" style="fill: #00264c; stroke: #00264c"/>
     <use xlink:href="#mf9a27f01da" x="355.644" y="153.45616" style="fill: #00264c; stroke: #00264c"/>
    </g>
   </g>
   <g id="patch_3">
    <path d="M 19.98 254.592 
L 379.62 254.592 
" style="fill: none; stroke: #949494; stroke-width: 0.8; stroke-linejoin: miter; stroke-linecap: square"/>
   </g>
   <g id="text_4">
    <text style="font-weight: 600; font-size: 16px; font-family: 'Source Sans 3', sans-serif; fill: #00264c" transform="translate(27.6835 126.767214)">Issue</text>
    <text style="font-weight: 600; font-size: 16px; font-family: 'Source Sans 3', sans-serif; fill: #00264c" transform="translate(29.5085 144.182714)">date</text>
   </g>
   <g id="text_5">
    <text style="font-weight: 800; font-size: 20px; font-family: 'Source Sans 3', sans-serif; text-anchor: start" x="19.98" y="23.952" transform="rotate(-0 19.98 23.952)">Streamflow percentile</text>
   </g>
  </g>
 </g>
 <defs>
  <clipPath id="p53937f48aa">
   <rect x="19.98" y="29.952" width="359.64" height="224.64"/>
  </clipPath>
 </defs>
</svg>
