<?xml version="1.0" encoding="utf-8" standalone="no"?>
<!DOCTYPE svg PUBLIC "-//W3C//DTD SVG 1.1//EN"
  "http://www.w3.org/Graphics/SVG/1.1/DTD/svg11.dtd">
<svg xmlns:xlink="http://www.w3.org/1999/xlink" width="399.6px" height="299.52px" viewBox="0 0 399.6 299.52" xmlns="http://www.w3.org/2000/svg" version="1.1">
  <defs>
  <style type="text/css">*{stroke-linejoin: round; stroke-linecap: butt}</style>
 </defs>
 <g id="figure-forecast_summary_1">
  <g id="patch_1">
   <path d="M 0 299.52 
L 399.6 299.52 
L 399.6 0 
L 0 0 
z
" style="fill: #ffffff"/>
  </g>
  <g id="axis-forecast_summary_1">
   <g id="patch_2">
    <path d="M 39.96 254.592 
L 379.62 254.592 
L 379.62 29.952 
L 39.96 29.952 
z
" style="fill: #ffffff"/>
   </g>
   <g id="line2d_1">
    <path d="M -1 142.272 
L 96.57 142.272 
" clip-path="url(#p54a6f5e3c4)" style="fill: none; stroke: #883e3a; stroke-width: 2; stroke-linecap: round"/>
   </g>
   <g id="matplotlib.axis_1">
    <g id="xtick_1">
     <g id="line2d_2">
      <defs>
       <path id="m06beec3b3f" d="M 0 0 
L 0 3.5 
" style="stroke: #949494; stroke-width: 0.8"/>
      </defs>
      <g>
       <use xlink:href="#m06beec3b3f" x="96.57" y="254.592" style="fill: #949494; stroke: #949494; stroke-width: 0.8"/>
      </g>
     </g>
     <g id="text_1">
      <text style="font-weight: 300; font-size: 16px; font-family: 'Source Sans 3', sans-serif; text-anchor: middle; fill: #595959" x="96.57" y="273.1445" transform="rotate(-0 96.57 273.1445)">0</text>
     </g>
    </g>
    <g id="xtick_2">
     <g id="line2d_3">
      <g>
       <use xlink:href="#m06beec3b3f" x="116.3835" y="254.592" style="fill: #949494; stroke: #949494; stroke-width: 0.8"/>
      </g>
     </g>
     <g id="text_2">
      <text style="font-weight: 300; font-size: 16px; font-family: 'Source Sans 3', sans-serif; text-anchor: middle; fill: #595959" x="116.3835" y="273.1445" transform="rotate(-0 116.3835 273.1445)">1</text>
     </g>
    </g>
    <g id="xtick_3">
     <g id="line2d_4">
      <g>
       <use xlink:href="#m06beec3b3f" x="136.197" y="254.592" style="fill: #949494; stroke: #949494; stroke-width: 0.8"/>
      </g>
     </g>
     <g id="text_3">
      <text style="font-weight: 300; font-size: 16px; font-family: 'Source Sans 3', sans-serif; text-anchor: middle; fill: #595959" x="136.197" y="273.1445" transform="rotate(-0 136.197 273.1445)">2</text>
     </g>
    </g>
    <g id="xtick_4">
     <g id="line2d_5">
      <g>
       <use xlink:href="#m06beec3b3f" x="156.0105" y="254.592" style="fill: #949494; stroke: #949494; stroke-width: 0.8"/>
      </g>
     </g>
     <g id="text_4">
      <text style="font-weight: 300; font-size: 16px; font-family: 'Source Sans 3', sans-serif; text-anchor: middle; fill: #595959" x="156.0105" y="273.1445" transform="rotate(-0 156.0105 273.1445)">3</text>
     </g>
    </g>
    <g id="xtick_5">
     <g id="line2d_6">
      <g>
       <use xlink:href="#m06beec3b3f" x="175.824" y="254.592" style="fill: #949494; stroke: #949494; stroke-width: 0.8"/>
      </g>
     </g>
     <g id="text_5">
      <text style="font-weight: 300; font-size: 16px; font-family: 'Source Sans 3', sans-serif; text-anchor: middle; fill: #595959" x="175.824" y="273.1445" transform="rotate(-0 175.824 273.1445)">4</text>
     </g>
    </g>
    <g id="xtick_6">
     <g id="line2d_7">
      <g>
       <use xlink:href="#m06beec3b3f" x="195.6375" y="254.592" style="fill: #949494; stroke: #949494; stroke-width: 0.8"/>
      </g>
     </g>
     <g id="text_6">
      <text style="font-weight: 300; font-size: 16px; font-family: 'Source Sans 3', sans-serif; text-anchor: middle; fill: #595959" x="195.6375" y="273.1445" transform="rotate(-0 195.6375 273.1445)">5</text>
     </g>
    </g>
    <g id="xtick_7">
     <g id="line2d_8">
      <g>
       <use xlink:href="#m06beec3b3f" x="215.451" y="254.592" style="fill: #949494; stroke: #949494; stroke-width: 0.8"/>
      </g>
     </g>
     <g id="text_7">
      <text style="font-weight: 300; font-size: 16px; font-family: 'Source Sans 3', sans-serif; text-anchor: middle; fill: #595959" x="215.451" y="273.1445" transform="rotate(-0 215.451 273.1445)">6</text>
     </g>
    </g>
    <g id="xtick_8">
     <g id="line2d_9">
      <g>
       <use xlink:href="#m06beec3b3f" x="235.2645" y="254.592" style="fill: #949494; stroke: #949494; stroke-width: 0.8"/>
      </g>
     </g>
     <g id="text_8">
      <text style="font-weight: 300; font-size: 16px; font-family: 'Source Sans 3', sans-serif; text-anchor: middle; fill: #595959" x="235.2645" y="273.1445" transform="rotate(-0 235.2645 273.1445)">7</text>
     </g>
    </g>
    <g id="xtick_9">
     <g id="line2d_10">
      <g>
       <use xlink:href="#m06beec3b3f" x="255.078" y="254.592" style="fill: #949494; stroke: #949494; stroke-width: 0.8"/>
      </g>
     </g>
     <g id="text_9">
      <text style="font-weight: 300; font-size: 16px; font-family: 'Source Sans 3', sans-serif; text-anchor: middle; fill: #595959" x="255.078" y="273.1445" transform="rotate(-0 255.078 273.1445)">8</text>
     </g>
    </g>
    <g id="xtick_10">
     <g id="line2d_11">
      <g>
       <use xlink:href="#m06beec3b3f" x="274.8915" y="254.592" style="fill: #949494; stroke: #949494; stroke-width: 0.8"/>
      </g>
     </g>
     <g id="text_10">
      <text style="font-weight: 300; font-size: 16px; font-family: 'Source Sans 3', sans-serif; text-anchor: middle; fill: #595959" x="274.8915" y="273.1445" transform="rotate(-0 274.8915 273.1445)">9</text>
     </g>
    </g>
    <g id="xtick_11">
     <g id="line2d_12">
      <g>
       <use xlink:href="#m06beec3b3f" x="294.705" y="254.592" style="fill: #949494; stroke: #949494; stroke-width: 0.8"/>
      </g>
     </g>
     <g id="text_11">
      <text style="font-weight: 300; font-size: 16px; font-family: 'Source Sans 3', sans-serif; text-anchor: middle; fill: #595959" x="294.705" y="273.1445" transform="rotate(-0 294.705 273.1445)">10</text>
     </g>
    </g>
    <g id="xtick_12">
     <g id="line2d_13">
      <g>
       <use xlink:href="#m06beec3b3f" x="314.5185" y="254.592" style="fill: #949494; stroke: #949494; stroke-width: 0.8"/>
      </g>
     </g>
     <g id="text_12">
      <text style="font-weight: 300; font-size: 16px; font-family: 'Source Sans 3', sans-serif; text-anchor: middle; fill: #595959" x="314.5185" y="273.1445" transform="rotate(-0 314.5185 273.1445)">11</text>
     </g>
    </g>
    <g id="xtick_13">
     <g id="line2d_14">
      <g>
       <use xlink:href="#m06beec3b3f" x="334.332" y="254.592" style="fill: #949494; stroke: #949494; stroke-width: 0.8"/>
      </g>
     </g>
     <g id="text_13">
      <text style="font-weight: 300; font-size: 16px; font-family: 'Source Sans 3', sans-serif; text-anchor: middle; fill: #595959" x="334.332" y="273.1445" transform="rotate(-0 334.332 273.1445)">12</text>
     </g>
    </g>
    <g id="xtick_14">
     <g id="line2d_15">
      <g>
       <use xlink:href="#m06beec3b3f" x="354.1455" y="254.592" style="fill: #949494; stroke: #949494; stroke-width: 0.8"/>
      </g>
     </g>
     <g id="text_14">
      <text style="font-weight: 300; font-size: 16px; font-family: 'Source Sans 3', sans-serif; text-anchor: middle; fill: #595959" x="354.1455" y="273.1445" transform="rotate(-0 354.1455 273.1445)">13</text>
     </g>
    </g>
    <g id="text_15">
     <text style="font-weight: 600; font-size: 16px; font-family: 'Source Sans 3', sans-serif; text-anchor: middle; fill: #595959" x="209.79" y="292.2495" transform="rotate(-0 209.79 292.2495)">Prediction Horizon in Weeks</text>
    </g>
   </g>
   <g id="matplotlib.axis_2">
    <g id="ytick_1">
     <g id="line2d_16">
      <path d="M 39.96 254.592 
L 379.62 254.592 
" clip-path="url(#p54a6f5e3c4)" style="fill: none; stroke: #d1d1d1; stroke-width: 0.8; stroke-linecap: square"/>
     </g>
     <g id="line2d_17">
      <defs>
       <path id="m2a98b535f6" d="M 0 0 
L -3.5 0 
" style="stroke: #949494; stroke-width: 0.8"/>
      </defs>
      <g>
       <use xlink:href="#m2a98b535f6" x="39.96" y="254.592" style="fill: #949494; stroke: #949494; stroke-width: 0.8"/>
      </g>
     </g>
     <g id="text_16">
      <text style="font-weight: 300; font-size: 16px; font-family: 'Source Sans 3', sans-serif; text-anchor: end; fill: #595959" x="32.96" y="260.36825" transform="rotate(-0 32.96 260.36825)">0ᵗʰ</text>
     </g>
    </g>
    <g id="ytick_2">
     <g id="line2d_18">
      <path d="M 39.96 209.664 
L 379.62 209.664 
" clip-path="url(#p54a6f5e3c4)" style="fill: none; stroke: #d1d1d1; stroke-width: 0.8; stroke-linecap: square"/>
     </g>
     <g id="line2d_19">
      <g>
       <use xlink:href="#m2a98b535f6" x="39.96" y="209.664" style="fill: #949494; stroke: #949494; stroke-width: 0.8"/>
      </g>
     </g>
     <g id="text_17">
      <text style="font-weight: 300; font-size: 16px; font-family: 'Source Sans 3', sans-serif; text-anchor: end; fill: #595959" x="32.96" y="215.44025" transform="rotate(-0 32.96 215.44025)">20ᵗʰ</text>
     </g>
    </g>
    <g id="ytick_3">
     <g id="line2d_20">
      <path d="M 39.96 164.736 
L 379.62 164.736 
" clip-path="url(#p54a6f5e3c4)" style="fill: none; stroke: #d1d1d1; stroke-width: 0.8; stroke-linecap: square"/>
     </g>
     <g id="line2d_21">
      <g>
       <use xlink:href="#m2a98b535f6" x="39.96" y="164.736" style="fill: #949494; stroke: #949494; stroke-width: 0.8"/>
      </g>
     </g>
     <g id="text_18">
      <text style="font-weight: 300; font-size: 16px; font-family: 'Source Sans 3', sans-serif; text-anchor: end; fill: #595959" x="32.96" y="170.51225" transform="rotate(-0 32.96 170.51225)">40ᵗʰ</text>
     </g>
    </g>
    <g id="ytick_4">
     <g id="line2d_22">
      <path d="M 39.96 119.808 
L 379.62 119.808 
" clip-path="url(#p54a6f5e3c4)" style="fill: none; stroke: #d1d1d1; stroke-width: 0.8; stroke-linecap: square"/>
     </g>
     <g id="line2d_23">
      <g>
       <use xlink:href="#m2a98b535f6" x="39.96" y="119.808" style="fill: #949494; stroke: #949494; stroke-width: 0.8"/>
      </g>
     </g>
     <g id="text_19">
      <text style="font-weight: 300; font-size: 16px; font-family: 'Source Sans 3', sans-serif; text-anchor: end; fill: #595959" x="32.96" y="125.58425" transform="rotate(-0 32.96 125.58425)">60ᵗʰ</text>
     </g>
    </g>
    <g id="ytick_5">
     <g id="line2d_24">
      <path d="M 39.96 74.88 
L 379.62 74.88 
" clip-path="url(#p54a6f5e3c4)" style="fill: none; stroke: #d1d1d1; stroke-width: 0.8; stroke-linecap: square"/>
     </g>
     <g id="line2d_25">
      <g>
       <use xlink:href="#m2a98b535f6" x="39.96" y="74.88" style="fill: #949494; stroke: #949494; stroke-width: 0.8"/>
      </g>
     </g>
     <g id="text_20">
      <text style="font-weight: 300; font-size: 16px; font-family: 'Source Sans 3', sans-serif; text-anchor: end; fill: #595959" x="32.96" y="80.65625" transform="rotate(-0 32.96 80.65625)">80ᵗʰ</text>
     </g>
    </g>
    <g id="ytick_6">
     <g id="line2d_26">
      <path d="M 39.96 29.952 
L 379.62 29.952 
" clip-path="url(#p54a6f5e3c4)" style="fill: none; stroke: #d1d1d1; stroke-width: 0.8; stroke-linecap: square"/>
     </g>
     <g id="line2d_27">
      <g>
       <use xlink:href="#m2a98b535f6" x="39.96" y="29.952" style="fill: #949494; stroke: #949494; stroke-width: 0.8"/>
      </g>
     </g>
     <g id="text_21">
      <text style="font-weight: 300; font-size: 16px; font-family: 'Source Sans 3', sans-serif; text-anchor: end; fill: #595959" x="32.96" y="35.72825" transform="rotate(-0 32.96 35.72825)">100ᵗʰ</text>
     </g>
    </g>
   </g>
   <g id="FillBetweenPolyCollection_1">
    <defs>
     <path id="md9ed26a9e9" d="M 96.57 -157.248 
L 96.57 -157.248 
L 116.3835 -203.631148 
L 116.3835 -110.864852 
L 116.3835 -110.864852 
L 96.57 -157.248 
z
"/>
    </defs>
    <g clip-path="url(#p54a6f5e3c4)">
     <use xlink:href="#md9ed26a9e9" x="0" y="299.52" style="fill: #00264c; fill-opacity: 0.464286"/>
    </g>
   </g>
   <g id="FillBetweenPolyCollection_2">
    <defs>
     <path id="mdf41d06eff" d="M 116.3835 -110.864852 
L 116.3835 -203.631148 
L 136.197 -218.433968 
L 136.197 -96.062032 
L 136.197 -96.062032 
L 116.3835 -110.864852 
z
"/>
    </defs>
    <g clip-path="url(#p54a6f5e3c4)">
     <use xlink:href="#mdf41d06eff" x="0" y="299.52" style="fill: #00264c; fill-opacity: 0.428571"/>
    </g>
   </g>
   <g id="FillBetweenPolyCollection_3">
    <defs>
     <path id="m19e9c2d14d" d="M 136.197 -96.062032 
L 136.197 -218.433968 
L 156.0105 -222.548182 
L 156.0105 -91.947818 
L 156.0105 -91.947818 
L 136.197 -96.062032 
z
"/>
    </defs>
    <g clip-path="url(#p54a6f5e3c4)">
     <use xlink:href="#m19e9c2d14d" x="0" y="299.52" style="fill: #00264c; fill-opacity: 0.392857"/>
    </g>
   </g>
   <g id="FillBetweenPolyCollection_4">
    <defs>
     <path id="md1d48f2865" d="M 156.0105 -91.947818 
L 156.0105 -222.548182 
L 175.824 -226.662396 
L 175.824 -87.833604 
L 175.824 -87.833604 
L 156.0105 -91.947818 
z
"/>
    </defs>
    <g clip-path="url(#p54a6f5e3c4)">
     <use xlink:href="#md1d48f2865" x="0" y="299.52" style="fill: #00264c; fill-opacity: 0.357143"/>
    </g>
   </g>
   <g id="FillBetweenPolyCollection_5">
    <defs>
     <path id="m5fe297d3d9" d="M 175.824 -87.833604 
L 175.824 -226.662396 
L 195.6375 -227.034429 
L 195.6375 -87.461571 
L 195.6375 -87.461571 
L 175.824 -87.833604 
z
"/>
    </defs>
    <g clip-path="url(#p54a6f5e3c4)">
     <use xlink:href="#m5fe297d3d9" x="0" y="299.52" style="fill: #00264c; fill-opacity: 0.321429"/>
    </g>
   </g>
   <g id="FillBetweenPolyCollection_6">
    <defs>
     <path id="mbd79460567" d="M 195.6375 -87.461571 
L 195.6375 -227.034429 
L 215.451 -227.406463 
L 215.451 -87.089537 
L 215.451 -87.089537 
L 195.6375 -87.461571 
z
"/>
    </defs>
    <g clip-path="url(#p54a6f5e3c4)">
     <use xlink:href="#mbd79460567" x="0" y="299.52" style="fill: #00264c; fill-opacity: 0.285714"/>
    </g>
   </g>
   <g id="FillBetweenPolyCollection_7">
    <defs>
     <path id="m2ceb445b54" d="M 215.451 -87.089537 
L 215.451 -227.406463 
L 235.2645 -227.778496 
L 235.2645 -86.717504 
L 235.2645 -86.717504 
L 215.451 -87.089537 
z
"/>
    </defs>
    <g clip-path="url(#p54a6f5e3c4)">
     <use xlink:href="#m2ceb445b54" x="0" y="299.52" style="fill: #00264c; fill-opacity: 0.25"/>
    </g>
   </g>
   <g id="FillBetweenPolyCollection_8">
    <defs>
     <path id="mfe4bebe726" d="M 235.2645 -86.717504 
L 235.2645 -227.778496 
L 255.078 -228.150529 
L 255.078 -86.345471 
L 255.078 -86.345471 
L 235.2645 -86.717504 
z
"/>
    </defs>
    <g clip-path="url(#p54a6f5e3c4)">
     <use xlink:href="#mfe4bebe726" x="0" y="299.52" style="fill: #00264c; fill-opacity: 0.214286"/>
    </g>
   </g>
   <g id="FillBetweenPolyCollection_9">
    <defs>
     <path id="m5e19b016ca" d="M 255.078 -86.345471 
L 255.078 -228.150529 
L 274.8915 -228.660787 
L 274.8915 -85.835213 
L 274.8915 -85.835213 
L 255.078 -86.345471 
z
"/>
    </defs>
    <g clip-path="url(#p54a6f5e3c4)">
     <use xlink:href="#m5e19b016ca" x="0" y="299.52" style="fill: #00264c; fill-opacity: 0.178571"/>
    </g>
   </g>
   <g id="FillBetweenPolyCollection_10">
    <defs>
     <path id="mdabb85564a" d="M 274.8915 -85.835213 
L 274.8915 -228.660787 
L 294.705 -229.171045 
L 294.705 -85.324955 
L 294.705 -85.324955 
L 274.8915 -85.835213 
z
"/>
    </defs>
    <g clip-path="url(#p54a6f5e3c4)">
     <use xlink:href="#mdabb85564a" x="0" y="299.52" style="fill: #00264c; fill-opacity: 0.142857"/>
    </g>
   </g>
   <g id="FillBetweenPolyCollection_11">
    <defs>
     <path id="m1a3df7bbd1" d="M 294.705 -85.324955 
L 294.705 -229.171045 
L 314.5185 -229.681302 
L 314.5185 -84.814698 
L 314.5185 -84.814698 
L 294.705 -85.324955 
z
"/>
    </defs>
    <g clip-path="url(#p54a6f5e3c4)">
     <use xlink:href="#m1a3df7bbd1" x="0" y="299.52" style="fill: #00264c; fill-opacity: 0.107143"/>
    </g>
   </g>
   <g id="FillBetweenPolyCollection_12">
    <defs>
     <path id="m939b1d5581" d="M 314.5185 -84.814698 
L 314.5185 -229.681302 
L 334.332 -230.19156 
L 334.332 -84.30444 
L 334.332 -84.30444 
L 314.5185 -84.814698 
z
"/>
    </defs>
    <g clip-path="url(#p54a6f5e3c4)">
     <use xlink:href="#m939b1d5581" x="0" y="299.52" style="fill: #00264c; fill-opacity: 0.071429"/>
    </g>
   </g>
   <g id="FillBetweenPolyCollection_13">
    <defs>
     <path id="m588c6b9ece" d="M 334.332 -84.30444 
L 334.332 -230.19156 
L 354.1455 -230.701818 
L 354.1455 -83.794182 
L 354.1455 -83.794182 
L 334.332 -84.30444 
z
"/>
    </defs>
    <g clip-path="url(#p54a6f5e3c4)">
     <use xlink:href="#m588c6b9ece" x="0" y="299.52" style="fill: #00264c; fill-opacity: 0.035714"/>
    </g>
   </g>
   <g id="line2d_28">
    <path d="M 116.3835 188.655148 
L 116.3835 95.888852 
" clip-path="url(#p54a6f5e3c4)" style="fill: none; stroke-dasharray: 1,1.65; stroke-dashoffset: 0; stroke: #949494"/>
   </g>
   <g id="prediction-width-line-1">
    <path d="M 116.3835 188.655148 
L 116.3835 95.888852 
" clip-path="url(#p54a6f5e3c4)" style="fill: none; stroke: #6e6e6e; stroke-opacity: 0; stroke-width: 2; stroke-linecap: round"/>
   </g>
   <g id="line2d_29">
    <path d="M 136.197 203.457968 
L 136.197 81.086032 
" clip-path="url(#p54a6f5e3c4)" style="fill: none; stroke-dasharray: 1,1.65; stroke-dashoffset: 0; stroke: #949494"/>
   </g>
   <g id="prediction-width-line-2">
    <path d="M 136.197 203.457968 
L 136.197 81.086032 
" clip-path="url(#p54a6f5e3c4)" style="fill: none; stroke: #6e6e6e; stroke-opacity: 0; stroke-width: 2; stroke-linecap: round"/>
   </g>
   <g id="line2d_30">
    <path d="M 156.0105 207.572182 
L 156.0105 76.971818 
" clip-path="url(#p54a6f5e3c4)" style="fill: none; stroke-dasharray: 1,1.65; stroke-dashoffset: 0; stroke: #949494"/>
   </g>
   <g id="prediction-width-line-3">
    <path d="M 156.0105 207.572182 
L 156.0105 76.971818 
" clip-path="url(#p54a6f5e3c4)" style="fill: none; stroke: #6e6e6e; stroke-opacity: 0; stroke-width: 2; stroke-linecap: round"/>
   </g>
   <g id="line2d_31">
    <path d="M 175.824 211.686396 
L 175.824 72.857604 
" clip-path="url(#p54a6f5e3c4)" style="fill: none; stroke-dasharray: 1,1.65; stroke-dashoffset: 0; stroke: #949494"/>
   </g>
   <g id="prediction-width-line-4">
    <path d="M 175.824 211.686396 
L 175.824 72.857604 
" clip-path="url(#p54a6f5e3c4)" style="fill: none; stroke: #6e6e6e; stroke-opacity: 0; stroke-width: 2; stroke-linecap: round"/>
   </g>
   <g id="line2d_32">
    <path d="M 195.6375 212.058429 
L 195.6375 72.485571 
" clip-path="url(#p54a6f5e3c4)" style="fill: none; stroke-dasharray: 1,1.65; stroke-dashoffset: 0; stroke: #949494"/>
   </g>
   <g id="prediction-width-line-5">
    <path d="M 195.6375 212.058429 
L 195.6375 72.485571 
" clip-path="url(#p54a6f5e3c4)" style="fill: none; stroke: #6e6e6e; stroke-opacity: 0; stroke-width: 2; stroke-linecap: round"/>
   </g>
   <g id="line2d_33">
    <path d="M 215.451 212.430463 
L 215.451 72.113537 
" clip-path="url(#p54a6f5e3c4)" style="fill: none; stroke-dasharray: 1,1.65; stroke-dashoffset: 0; stroke: #949494"/>
   </g>
   <g id="prediction-width-line-6">
    <path d="M 215.451 212.430463 
L 215.451 72.113537 
" clip-path="url(#p54a6f5e3c4)" style="fill: none; stroke: #6e6e6e; stroke-opacity: 0; stroke-width: 2; stroke-linecap: round"/>
   </g>
   <g id="line2d_34">
    <path d="M 235.2645 212.802496 
L 235.2645 71.741504 
" clip-path="url(#p54a6f5e3c4)" style="fill: none; stroke-dasharray: 1,1.65; stroke-dashoffset: 0; stroke: #949494"/>
   </g>
   <g id="prediction-width-line-7">
    <path d="M 235.2645 212.802496 
L 235.2645 71.741504 
" clip-path="url(#p54a6f5e3c4)" style="fill: none; stroke: #6e6e6e; stroke-opacity: 0; stroke-width: 2; stroke-linecap: round"/>
   </g>
   <g id="line2d_35">
    <path d="M 255.078 213.174529 
L 255.078 71.369471 
" clip-path="url(#p54a6f5e3c4)" style="fill: none; stroke-dasharray: 1,1.65; stroke-dashoffset: 0; stroke: #949494"/>
   </g>
   <g id="prediction-width-line-8">
    <path d="M 255.078 213.174529 
L 255.078 71.369471 
" clip-path="url(#p54a6f5e3c4)" style="fill: none; stroke: #6e6e6e; stroke-opacity: 0; stroke-width: 2; stroke-linecap: round"/>
   </g>
   <g id="line2d_36">
    <path d="M 274.8915 213.684787 
L 274.8915 70.859213 
" clip-path="url(#p54a6f5e3c4)" style="fill: none; stroke-dasharray: 1,1.65; stroke-dashoffset: 0; stroke: #949494"/>
   </g>
   <g id="prediction-width-line-9">
    <path d="M 274.8915 213.684787 
L 274.8915 70.859213 
" clip-path="url(#p54a6f5e3c4)" style="fill: none; stroke: #6e6e6e; stroke-opacity: 0; stroke-width: 2; stroke-linecap: round"/>
   </g>
   <g id="line2d_37">
    <path d="M 294.705 214.195045 
L 294.705 70.348955 
" clip-path="url(#p54a6f5e3c4)" style="fill: none; stroke-dasharray: 1,1.65; stroke-dashoffset: 0; stroke: #949494"/>
   </g>
   <g id="prediction-width-line-10">
    <path d="M 294.705 214.195045 
L 294.705 70.348955 
" clip-path="url(#p54a6f5e3c4)" style="fill: none; stroke: #6e6e6e; stroke-opacity: 0; stroke-width: 2; stroke-linecap: round"/>
   </g>
   <g id="line2d_38">
    <path d="M 314.5185 214.705302 
L 314.5185 69.838698 
" clip-path="url(#p54a6f5e3c4)" style="fill: none; stroke-dasharray: 1,1.65; stroke-dashoffset: 0; stroke: #949494"/>
   </g>
   <g id="prediction-width-line-11">
    <path d="M 314.5185 214.705302 
L 314.5185 69.838698 
" clip-path="url(#p54a6f5e3c4)" style="fill: none; stroke: #6e6e6e; stroke-opacity: 0; stroke-width: 2; stroke-linecap: round"/>
   </g>
   <g id="line2d_39">
    <path d="M 334.332 215.21556 
L 334.332 69.32844 
" clip-path="url(#p54a6f5e3c4)" style="fill: none; stroke-dasharray: 1,1.65; stroke-dashoffset: 0; stroke: #949494"/>
   </g>
   <g id="prediction-width-line-12">
    <path d="M 334.332 215.21556 
L 334.332 69.32844 
" clip-path="url(#p54a6f5e3c4)" style="fill: none; stroke: #6e6e6e; stroke-opacity: 0; stroke-width: 2; stroke-linecap: round"/>
   </g>
   <g id="line2d_40">
    <path d="M 354.1455 215.725818 
L 354.1455 68.818182 
" clip-path="url(#p54a6f5e3c4)" style="fill: none; stroke-dasharray: 1,1.65; stroke-dashoffset: 0; stroke: #949494"/>
   </g>
   <g id="prediction-width-line-13">
    <path d="M 354.1455 215.725818 
L 354.1455 68.818182 
" clip-path="url(#p54a6f5e3c4)" style="fill: none; stroke: #6e6e6e; stroke-opacity: 0; stroke-width: 2; stroke-linecap: round"/>
   </g>
   <g id="patch_3">
    <path d="M 39.96 254.592 
L 39.96 29.952 
" style="fill: none; stroke: #949494; stroke-width: 0.8; stroke-linejoin: miter; stroke-linecap: square"/>
   </g>
   <g id="patch_4">
    <path d="M 39.96 254.592 
L 379.62 254.592 
" style="fill: none; stroke: #949494; stroke-width: 0.8; stroke-linejoin: miter; stroke-linecap: square"/>
   </g>
   <g id="prediction-width-label-week-13">
    <text style="font-weight: 300; font-size: 16px; font-family: 'Source Sans 3', sans-serif; text-anchor: end; fill: #595959" x="96.57" y="134.2267" transform="rotate(-0 96.57 134.2267)">Today</text>
   </g>
   <g id="text_22">
    <path d="M 233.241625 134.2267 
L 233.241625 123.6667 
L 234.074125 123.6667 
L 236.346625 130.0667 
Q 236.569125 130.6592 236.784125 131.2592 
Q 237.001625 131.8592 237.209125 132.4667 
L 237.274125 132.4667 
Q 237.496625 131.8592 237.696625 131.2592 
Q 237.896625 130.6592 238.106625 130.0667 
L 240.376625 123.6667 
L 241.209125 123.6667 
L 241.209125 134.2267 
L 240.696625 134.2267 
L 240.696625 126.8667 
Q 240.696625 126.4517 240.704125 125.9792 
Q 240.714125 125.5067 240.729125 125.0267 
Q 240.746625 124.5467 240.761625 124.1142 
L 240.696625 124.1142 
L 239.881625 126.4517 
L 237.496625 133.0417 
L 236.954125 133.0417 
L 234.554125 126.4517 
L 233.721625 124.1142 
L 233.656625 124.1142 
Q 233.674125 124.5467 233.689125 125.0267 
Q 233.706625 125.5067 233.714125 125.9792 
Q 233.721625 126.4517 233.721625 126.8667 
L 233.721625 134.2267 
L 233.241625 134.2267 
z
M 247.162123 134.4192 
Q 246.202123 134.4192 245.409623 133.9392 
Q 244.617123 133.4592 244.144623 132.5642 
Q 243.674623 131.6667 243.674623 130.4192 
Q 243.674623 129.1717 244.144623 128.2667 
Q 244.617123 127.3617 245.369623 126.8742 
Q 246.122123 126.3867 246.969623 126.3867 
Q 247.849623 126.3867 248.497123 126.7942 
Q 249.144623 127.2017 249.497123 127.9867 
Q 249.849623 128.7717 249.849623 129.9067 
Q 249.849623 130.0192 249.849623 130.1467 
Q 249.849623 130.2742 249.817123 130.4192 
L 243.929623 130.4192 
L 243.929623 129.9717 
L 249.369623 129.9717 
Q 249.369623 128.3867 248.712123 127.6117 
Q 248.057123 126.8342 246.969623 126.8342 
Q 246.297123 126.8342 245.657123 127.2267 
Q 245.017123 127.6192 244.599623 128.4117 
Q 244.184623 129.2017 244.184623 130.3867 
Q 244.184623 131.4742 244.577123 132.2842 
Q 244.969623 133.0917 245.657123 133.5317 
Q 246.344623 133.9717 247.194623 133.9717 
Q 247.849623 133.9717 248.377123 133.7967 
Q 248.904623 133.6192 249.304623 133.3317 
L 249.529623 133.6817 
Q 249.097123 133.9717 248.559623 134.1967 
Q 248.024623 134.4192 247.162123 134.4192 
z
M 254.490121 134.4192 
Q 253.050121 134.4192 252.185121 133.3867 
Q 251.322621 132.3542 251.322621 130.4192 
Q 251.322621 129.1867 251.792621 128.2842 
Q 252.265121 127.3792 253.040121 126.8842 
Q 253.817621 126.3867 254.745121 126.3867 
Q 255.450121 126.3867 255.985121 126.6342 
Q 256.522621 126.8817 257.112621 127.3467 
L 257.082621 125.9067 
L 257.082621 122.6742 
L 257.562621 122.6742 
L 257.562621 134.2267 
L 257.145121 134.2267 
L 257.082621 133.2017 
L 257.050121 133.2017 
Q 256.570121 133.6817 255.930121 134.0517 
Q 255.290121 134.4192 254.490121 134.4192 
z
M 254.522621 133.9717 
Q 255.192621 133.9717 255.817621 133.6192 
Q 256.442621 133.2667 257.082621 132.6267 
L 257.082621 127.8917 
Q 256.442621 127.3142 255.882621 127.0742 
Q 255.322621 126.8342 254.712621 126.8342 
Q 253.897621 126.8342 253.250121 127.3142 
Q 252.602621 127.7942 252.217621 128.6117 
Q 251.832621 129.4267 251.832621 130.4192 
Q 251.832621 132.0017 252.527621 132.9867 
Q 253.225121 133.9717 254.522621 133.9717 
z
M 260.632619 134.2267 
L 260.632619 126.5792 
L 261.112619 126.5792 
L 261.112619 134.2267 
L 260.632619 134.2267 
z
M 260.857619 124.6267 
Q 260.650119 124.6267 260.497619 124.4667 
Q 260.345119 124.3067 260.345119 124.0517 
Q 260.345119 123.8117 260.497619 123.6592 
Q 260.650119 123.5067 260.857619 123.5067 
Q 261.082619 123.5067 261.225119 123.6592 
Q 261.370119 123.8117 261.370119 124.0517 
Q 261.370119 124.3067 261.225119 124.4667 
Q 261.082619 124.6267 260.857619 124.6267 
z
M 265.817118 134.4192 
Q 265.224618 134.4192 264.719618 134.2042 
Q 264.217118 133.9867 263.912118 133.5317 
Q 263.609618 133.0742 263.609618 132.3542 
Q 263.609618 131.0742 264.824618 130.4117 
Q 266.042118 129.7467 268.634618 129.4592 
Q 268.649618 128.8342 268.512118 128.2267 
Q 268.377118 127.6192 267.959618 127.2267 
Q 267.544618 126.8342 266.744618 126.8342 
Q 265.929618 126.8342 265.272118 127.1467 
Q 264.617118 127.4592 264.249618 127.7317 
L 263.994618 127.3792 
Q 264.234618 127.1867 264.649618 126.9542 
Q 265.064618 126.7217 265.609618 126.5542 
Q 266.154618 126.3867 266.777118 126.3867 
Q 267.674618 126.3867 268.184618 126.7867 
Q 268.697118 127.1867 268.904618 127.8442 
Q 269.114618 128.4992 269.114618 129.2667 
L 269.114618 134.2267 
L 268.697118 134.2267 
L 268.634618 133.2017 
L 268.602118 133.2017 
Q 268.009618 133.6817 267.297118 134.0517 
Q 266.584618 134.4192 265.817118 134.4192 
z
M 265.849618 133.9717 
Q 266.554618 133.9717 267.209618 133.6367 
Q 267.864618 133.2992 268.634618 132.6592 
L 268.634618 129.8742 
Q 266.954618 130.0667 265.969618 130.3942 
Q 264.984618 130.7217 264.552118 131.2017 
Q 264.122118 131.6817 264.122118 132.3392 
Q 264.122118 133.2192 264.642118 133.5967 
Q 265.162118 133.9717 265.849618 133.9717 
z
M 271.960617 134.2267 
L 271.960617 126.5792 
L 272.378117 126.5792 
L 272.440617 127.7942 
L 272.473117 127.7942 
Q 273.080617 127.1867 273.713117 126.7867 
Q 274.345617 126.3867 275.130617 126.3867 
Q 276.313117 126.3867 276.873117 127.0992 
Q 277.433117 127.8117 277.433117 129.2992 
L 277.433117 134.2267 
L 276.953117 134.2267 
L 276.953117 129.3617 
Q 276.953117 128.0817 276.520617 127.4592 
Q 276.090617 126.8342 275.098117 126.8342 
Q 274.378117 126.8342 273.785617 127.2192 
Q 273.193117 127.6017 272.440617 128.3717 
L 272.440617 134.2267 
L 271.960617 134.2267 
z
M 283.576613 137.7792 
L 283.576613 126.5792 
L 283.994113 126.5792 
L 284.056613 127.5717 
L 284.089113 127.5717 
Q 284.666613 127.1067 285.346613 126.7467 
Q 286.026613 126.3867 286.746613 126.3867 
Q 287.786613 126.3867 288.466613 126.8667 
Q 289.146613 127.3467 289.481613 128.2267 
Q 289.816613 129.1067 289.816613 130.2917 
Q 289.816613 131.5867 289.344113 132.5067 
Q 288.874113 133.4267 288.104113 133.9242 
Q 287.336613 134.4192 286.426613 134.4192 
Q 285.881613 134.4192 285.281613 134.1642 
Q 284.681613 133.9067 284.056613 133.4592 
L 284.056613 134.8992 
L 284.056613 137.7792 
L 283.576613 137.7792 
z
M 286.456613 133.9717 
Q 287.289113 133.9717 287.929113 133.4992 
Q 288.569113 133.0267 288.936613 132.1942 
Q 289.306613 131.3617 289.306613 130.2917 
Q 289.306613 129.3142 289.049113 128.5317 
Q 288.794113 127.7467 288.224113 127.2917 
Q 287.656613 126.8342 286.714113 126.8342 
Q 286.121613 126.8342 285.464113 127.1792 
Q 284.809113 127.5217 284.056613 128.1792 
L 284.056613 132.9142 
Q 284.761613 133.4917 285.384113 133.7317 
Q 286.009113 133.9717 286.456613 133.9717 
z
M 292.21661 134.2267 
L 292.21661 126.5792 
L 292.63411 126.5792 
L 292.69661 128.0192 
L 292.72911 128.0192 
Q 293.09661 127.3142 293.64161 126.8517 
Q 294.18661 126.3867 294.90661 126.3867 
Q 295.09661 126.3867 295.27161 126.4192 
Q 295.44911 126.4517 295.64161 126.5467 
L 295.48161 126.9617 
Q 295.33661 126.9142 295.20161 126.8917 
Q 295.06661 126.8667 294.84161 126.8667 
Q 294.31411 126.8667 293.73661 127.3242 
Q 293.16161 127.7792 292.69661 128.9142 
L 292.69661 134.2267 
L 292.21661 134.2267 
z
M 299.930109 134.4192 
Q 298.970109 134.4192 298.177609 133.9392 
Q 297.385109 133.4592 296.912609 132.5642 
Q 296.442609 131.6667 296.442609 130.4192 
Q 296.442609 129.1717 296.912609 128.2667 
Q 297.385109 127.3617 298.137609 126.8742 
Q 298.890109 126.3867 299.737609 126.3867 
Q 300.617609 126.3867 301.265109 126.7942 
Q 301.912609 127.2017 302.265109 127.9867 
Q 302.617609 128.7717 302.617609 129.9067 
Q 302.617609 130.0192 302.617609 130.1467 
Q 302.617609 130.2742 302.585109 130.4192 
L 296.697609 130.4192 
L 296.697609 129.9717 
L 302.137609 129.9717 
Q 302.137609 128.3867 301.480109 127.6117 
Q 300.825109 126.8342 299.737609 126.8342 
Q 299.065109 126.8342 298.425109 127.2267 
Q 297.785109 127.6192 297.367609 128.4117 
Q 296.952609 129.2017 296.952609 130.3867 
Q 296.952609 131.4742 297.345109 132.2842 
Q 297.737609 133.0917 298.425109 133.5317 
Q 299.112609 133.9717 299.962609 133.9717 
Q 300.617609 133.9717 301.145109 133.7967 
Q 301.672609 133.6192 302.072609 133.3317 
L 302.297609 133.6817 
Q 301.865109 133.9717 301.327609 134.1967 
Q 300.792609 134.4192 299.930109 134.4192 
z
M 307.258107 134.4192 
Q 305.818107 134.4192 304.953107 133.3867 
Q 304.090607 132.3542 304.090607 130.4192 
Q 304.090607 129.1867 304.560607 128.2842 
Q 305.033107 127.3792 305.808107 126.8842 
Q 306.585607 126.3867 307.513107 126.3867 
Q 308.218107 126.3867 308.753107 126.6342 
Q 309.290607 126.8817 309.880607 127.3467 
L 309.850607 125.9067 
L 309.850607 122.6742 
L 310.330607 122.6742 
L 310.330607 134.2267 
L 309.913107 134.2267 
L 309.850607 133.2017 
L 309.818107 133.2017 
Q 309.338107 133.6817 308.698107 134.0517 
Q 308.058107 134.4192 307.258107 134.4192 
z
M 307.290607 133.9717 
Q 307.960607 133.9717 308.585607 133.6192 
Q 309.210607 133.2667 309.850607 132.6267 
L 309.850607 127.8917 
Q 309.210607 127.3142 308.650607 127.0742 
Q 308.090607 126.8342 307.480607 126.8342 
Q 306.665607 126.8342 306.018107 127.3142 
Q 305.370607 127.7942 304.985607 128.6117 
Q 304.600607 129.4267 304.600607 130.4192 
Q 304.600607 132.0017 305.295607 132.9867 
Q 305.993107 133.9717 307.290607 133.9717 
z
M 313.400604 134.2267 
L 313.400604 126.5792 
L 313.880604 126.5792 
L 313.880604 134.2267 
L 313.400604 134.2267 
z
M 313.625604 124.6267 
Q 313.418104 124.6267 313.265604 124.4667 
Q 313.113104 124.3067 313.113104 124.0517 
Q 313.113104 123.8117 313.265604 123.6592 
Q 313.418104 123.5067 313.625604 123.5067 
Q 313.850604 123.5067 313.993104 123.6592 
Q 314.138104 123.8117 314.138104 124.0517 
Q 314.138104 124.3067 313.993104 124.4667 
Q 313.850604 124.6267 313.625604 124.6267 
z
M 319.705104 134.4192 
Q 318.730104 134.4192 317.952604 133.9467 
Q 317.177604 133.4742 316.730104 132.5792 
Q 316.282604 131.6817 316.282604 130.4192 
Q 316.282604 129.1392 316.762604 128.2367 
Q 317.242604 127.3317 318.017604 126.8592 
Q 318.792604 126.3867 319.705104 126.3867 
Q 320.505104 126.3867 321.032604 126.6592 
Q 321.562604 126.9317 321.945104 127.3467 
L 321.657604 127.6342 
Q 321.305104 127.2667 320.817604 127.0517 
Q 320.330104 126.8342 319.705104 126.8342 
Q 318.890104 126.8342 318.232604 127.2917 
Q 317.577604 127.7467 317.185104 128.5542 
Q 316.792604 129.3617 316.792604 130.4192 
Q 316.792604 131.4742 317.152604 132.2742 
Q 317.512604 133.0742 318.167604 133.5242 
Q 318.825104 133.9717 319.705104 133.9717 
Q 320.362604 133.9717 320.912604 133.7242 
Q 321.465104 133.4742 321.850104 133.0742 
L 322.137604 133.3617 
Q 321.657604 133.8417 321.057604 134.1317 
Q 320.457604 134.4192 319.705104 134.4192 
z
M 326.041103 134.3542 
Q 324.986103 134.3542 324.616103 133.7392 
Q 324.248603 133.1217 324.248603 132.1467 
L 324.248603 127.0267 
L 323.033603 127.0267 
L 323.033603 126.6417 
L 324.248603 126.5792 
L 324.313603 124.0192 
L 324.728603 124.0192 
L 324.728603 126.5792 
L 327.001103 126.5792 
L 327.001103 127.0267 
L 324.728603 127.0267 
L 324.728603 132.2117 
Q 324.728603 132.9467 324.983603 133.4267 
Q 325.241103 133.9067 326.073603 133.9067 
Q 326.298603 133.9067 326.538603 133.8517 
Q 326.778603 133.7942 327.066103 133.6517 
L 327.258603 134.0017 
Q 326.953603 134.1617 326.633603 134.2567 
Q 326.313603 134.3542 326.041103 134.3542 
z
M 328.920602 134.2267 
L 328.920602 126.5792 
L 329.400602 126.5792 
L 329.400602 134.2267 
L 328.920602 134.2267 
z
M 329.145602 124.6267 
Q 328.938102 124.6267 328.785602 124.4667 
Q 328.633102 124.3067 328.633102 124.0517 
Q 328.633102 123.8117 328.785602 123.6592 
Q 328.938102 123.5067 329.145602 123.5067 
Q 329.370602 123.5067 329.513102 123.6592 
Q 329.658102 123.8117 329.658102 124.0517 
Q 329.658102 124.3067 329.513102 124.4667 
Q 329.370602 124.6267 329.145602 124.6267 
z
M 335.192602 134.4192 
Q 334.282602 134.4192 333.505102 133.9467 
Q 332.730102 133.4742 332.265102 132.5792 
Q 331.802602 131.6817 331.802602 130.4192 
Q 331.802602 129.1392 332.265102 128.2367 
Q 332.730102 127.3317 333.505102 126.8592 
Q 334.282602 126.3867 335.192602 126.3867 
Q 336.105102 126.3867 336.872602 126.8592 
Q 337.642602 127.3317 338.112602 128.2367 
Q 338.585102 129.1392 338.585102 130.4192 
Q 338.585102 131.6817 338.112602 132.5792 
Q 337.642602 133.4742 336.872602 133.9467 
Q 336.105102 134.4192 335.192602 134.4192 
z
M 335.192602 133.9717 
Q 336.010102 133.9717 336.665102 133.5242 
Q 337.322602 133.0742 337.697602 132.2742 
Q 338.072602 131.4742 338.072602 130.4192 
Q 338.072602 129.3617 337.697602 128.5542 
Q 337.322602 127.7467 336.665102 127.2917 
Q 336.010102 126.8342 335.192602 126.8342 
Q 334.377602 126.8342 333.730102 127.2917 
Q 333.082602 127.7467 332.697602 128.5542 
Q 332.312602 129.3617 332.312602 130.4192 
Q 332.312602 131.4742 332.697602 132.2742 
Q 333.082602 133.0742 333.730102 133.5242 
Q 334.377602 133.9717 335.192602 133.9717 
z
M 340.984601 134.2267 
L 340.984601 126.5792 
L 341.402101 126.5792 
L 341.464601 127.7942 
L 341.497101 127.7942 
Q 342.104601 127.1867 342.737101 126.7867 
Q 343.369601 126.3867 344.154601 126.3867 
Q 345.337101 126.3867 345.897101 127.0992 
Q 346.457101 127.8117 346.457101 129.2992 
L 346.457101 134.2267 
L 345.977101 134.2267 
L 345.977101 129.3617 
Q 345.977101 128.0817 345.544601 127.4592 
Q 345.114601 126.8342 344.122101 126.8342 
Q 343.402101 126.8342 342.809601 127.2192 
Q 342.217101 127.6017 341.464601 128.3717 
L 341.464601 134.2267 
L 340.984601 134.2267 
z
" style="fill: #595959; stroke: #ffffff; stroke-width: 2"/>
    <path d="M 233.241625 134.2267 
L 233.241625 123.6667 
L 234.074125 123.6667 
L 236.346625 130.0667 
Q 236.569125 130.6592 236.784125 131.2592 
Q 237.001625 131.8592 237.209125 132.4667 
L 237.274125 132.4667 
Q 237.496625 131.8592 237.696625 131.2592 
Q 237.896625 130.6592 238.106625 130.0667 
L 240.376625 123.6667 
L 241.209125 123.6667 
L 241.209125 134.2267 
L 240.696625 134.2267 
L 240.696625 126.8667 
Q 240.696625 126.4517 240.704125 125.9792 
Q 240.714125 125.5067 240.729125 125.0267 
Q 240.746625 124.5467 240.761625 124.1142 
L 240.696625 124.1142 
L 239.881625 126.4517 
L 237.496625 133.0417 
L 236.954125 133.0417 
L 234.554125 126.4517 
L 233.721625 124.1142 
L 233.656625 124.1142 
Q 233.674125 124.5467 233.689125 125.0267 
Q 233.706625 125.5067 233.714125 125.9792 
Q 233.721625 126.4517 233.721625 126.8667 
L 233.721625 134.2267 
L 233.241625 134.2267 
z
M 247.162123 134.4192 
Q 246.202123 134.4192 245.409623 133.9392 
Q 244.617123 133.4592 244.144623 132.5642 
Q 243.674623 131.6667 243.674623 130.4192 
Q 243.674623 129.1717 244.144623 128.2667 
Q 244.617123 127.3617 245.369623 126.8742 
Q 246.122123 126.3867 246.969623 126.3867 
Q 247.849623 126.3867 248.497123 126.7942 
Q 249.144623 127.2017 249.497123 127.9867 
Q 249.849623 128.7717 249.849623 129.9067 
Q 249.849623 130.0192 249.849623 130.1467 
Q 249.849623 130.2742 249.817123 130.4192 
L 243.929623 130.4192 
L 243.929623 129.9717 
L 249.369623 129.9717 
Q 249.369623 128.3867 248.712123 127.6117 
Q 248.057123 126.8342 246.969623 126.8342 
Q 246.297123 126.8342 245.657123 127.2267 
Q 245.017123 127.6192 244.599623 128.4117 
Q 244.184623 129.2017 244.184623 130.3867 
Q 244.184623 131.4742 244.577123 132.2842 
Q 244.969623 133.0917 245.657123 133.5317 
Q 246.344623 133.9717 247.194623 133.9717 
Q 247.849623 133.9717 248.377123 133.7967 
Q 248.904623 133.6192 249.304623 133.3317 
L 249.529623 133.6817 
Q 249.097123 133.9717 248.559623 134.1967 
Q 248.024623 134.4192 247.162123 134.4192 
z
M 254.490121 134.4192 
Q 253.050121 134.4192 252.185121 133.3867 
Q 251.322621 132.3542 251.322621 130.4192 
Q 251.322621 129.1867 251.792621 128.2842 
Q 252.265121 127.3792 253.040121 126.8842 
Q 253.817621 126.3867 254.745121 126.3867 
Q 255.450121 126.3867 255.985121 126.6342 
Q 256.522621 126.8817 257.112621 127.3467 
L 257.082621 125.9067 
L 257.082621 122.6742 
L 257.562621 122.6742 
L 257.562621 134.2267 
L 257.145121 134.2267 
L 257.082621 133.2017 
L 257.050121 133.2017 
Q 256.570121 133.6817 255.930121 134.0517 
Q 255.290121 134.4192 254.490121 134.4192 
z
M 254.522621 133.9717 
Q 255.192621 133.9717 255.817621 133.6192 
Q 256.442621 133.2667 257.082621 132.6267 
L 257.082621 127.8917 
Q 256.442621 127.3142 255.882621 127.0742 
Q 255.322621 126.8342 254.712621 126.8342 
Q 253.897621 126.8342 253.250121 127.3142 
Q 252.602621 127.7942 252.217621 128.6117 
Q 251.832621 129.4267 251.832621 130.4192 
Q 251.832621 132.0017 252.527621 132.9867 
Q 253.225121 133.9717 254.522621 133.9717 
z
M 260.632619 134.2267 
L 260.632619 126.5792 
L 261.112619 126.5792 
L 261.112619 134.2267 
L 260.632619 134.2267 
z
M 260.857619 124.6267 
Q 260.650119 124.6267 260.497619 124.4667 
Q 260.345119 124.3067 260.345119 124.0517 
Q 260.345119 123.8117 260.497619 123.6592 
Q 260.650119 123.5067 260.857619 123.5067 
Q 261.082619 123.5067 261.225119 123.6592 
Q 261.370119 123.8117 261.370119 124.0517 
Q 261.370119 124.3067 261.225119 124.4667 
Q 261.082619 124.6267 260.857619 124.6267 
z
M 265.817118 134.4192 
Q 265.224618 134.4192 264.719618 134.2042 
Q 264.217118 133.9867 263.912118 133.5317 
Q 263.609618 133.0742 263.609618 132.3542 
Q 263.609618 131.0742 264.824618 130.4117 
Q 266.042118 129.7467 268.634618 129.4592 
Q 268.649618 128.8342 268.512118 128.2267 
Q 268.377118 127.6192 267.959618 127.2267 
Q 267.544618 126.8342 266.744618 126.8342 
Q 265.929618 126.8342 265.272118 127.1467 
Q 264.617118 127.4592 264.249618 127.7317 
L 263.994618 127.3792 
Q 264.234618 127.1867 264.649618 126.9542 
Q 265.064618 126.7217 265.609618 126.5542 
Q 266.154618 126.3867 266.777118 126.3867 
Q 267.674618 126.3867 268.184618 126.7867 
Q 268.697118 127.1867 268.904618 127.8442 
Q 269.114618 128.4992 269.114618 129.2667 
L 269.114618 134.2267 
L 268.697118 134.2267 
L 268.634618 133.2017 
L 268.602118 133.2017 
Q 268.009618 133.6817 267.297118 134.0517 
Q 266.584618 134.4192 265.817118 134.4192 
z
M 265.849618 133.9717 
Q 266.554618 133.9717 267.209618 133.6367 
Q 267.864618 133.2992 268.634618 132.6592 
L 268.634618 129.8742 
Q 266.954618 130.0667 265.969618 130.3942 
Q 264.984618 130.7217 264.552118 131.2017 
Q 264.122118 131.6817 264.122118 132.3392 
Q 264.122118 133.2192 264.642118 133.5967 
Q 265.162118 133.9717 265.849618 133.9717 
z
M 271.960617 134.2267 
L 271.960617 126.5792 
L 272.378117 126.5792 
L 272.440617 127.7942 
L 272.473117 127.7942 
Q 273.080617 127.1867 273.713117 126.7867 
Q 274.345617 126.3867 275.130617 126.3867 
Q 276.313117 126.3867 276.873117 127.0992 
Q 277.433117 127.8117 277.433117 129.2992 
L 277.433117 134.2267 
L 276.953117 134.2267 
L 276.953117 129.3617 
Q 276.953117 128.0817 276.520617 127.4592 
Q 276.090617 126.8342 275.098117 126.8342 
Q 274.378117 126.8342 273.785617 127.2192 
Q 273.193117 127.6017 272.440617 128.3717 
L 272.440617 134.2267 
L 271.960617 134.2267 
z
M 283.576613 137.7792 
L 283.576613 126.5792 
L 283.994113 126.5792 
L 284.056613 127.5717 
L 284.089113 127.5717 
Q 284.666613 127.1067 285.346613 126.7467 
Q 286.026613 126.3867 286.746613 126.3867 
Q 287.786613 126.3867 288.466613 126.8667 
Q 289.146613 127.3467 289.481613 128.2267 
Q 289.816613 129.1067 289.816613 130.2917 
Q 289.816613 131.5867 289.344113 132.5067 
Q 288.874113 133.4267 288.104113 133.9242 
Q 287.336613 134.4192 286.426613 134.4192 
Q 285.881613 134.4192 285.281613 134.1642 
Q 284.681613 133.9067 284.056613 133.4592 
L 284.056613 134.8992 
L 284.056613 137.7792 
L 283.576613 137.7792 
z
M 286.456613 133.9717 
Q 287.289113 133.9717 287.929113 133.4992 
Q 288.569113 133.0267 288.936613 132.1942 
Q 289.306613 131.3617 289.306613 130.2917 
Q 289.306613 129.3142 289.049113 128.5317 
Q 288.794113 127.7467 288.224113 127.2917 
Q 287.656613 126.8342 286.714113 126.8342 
Q 286.121613 126.8342 285.464113 127.1792 
Q 284.809113 127.5217 284.056613 128.1792 
L 284.056613 132.9142 
Q 284.761613 133.4917 285.384113 133.7317 
Q 286.009113 133.9717 286.456613 133.9717 
z
M 292.21661 134.2267 
L 292.21661 126.5792 
L 292.63411 126.5792 
L 292.69661 128.0192 
L 292.72911 128.0192 
Q 293.09661 127.3142 293.64161 126.8517 
Q 294.18661 126.3867 294.90661 126.3867 
Q 295.09661 126.3867 295.27161 126.4192 
Q 295.44911 126.4517 295.64161 126.5467 
L 295.48161 126.9617 
Q 295.33661 126.9142 295.20161 126.8917 
Q 295.06661 126.8667 294.84161 126.8667 
Q 294.31411 126.8667 293.73661 127.3242 
Q 293.16161 127.7792 292.69661 128.9142 
L 292.69661 134.2267 
L 292.21661 134.2267 
z
M 299.930109 134.4192 
Q 298.970109 134.4192 298.177609 133.9392 
Q 297.385109 133.4592 296.912609 132.5642 
Q 296.442609 131.6667 296.442609 130.4192 
Q 296.442609 129.1717 296.912609 128.2667 
Q 297.385109 127.3617 298.137609 126.8742 
Q 298.890109 126.3867 299.737609 126.3867 
Q 300.617609 126.3867 301.265109 126.7942 
Q 301.912609 127.2017 302.265109 127.9867 
Q 302.617609 128.7717 302.617609 129.9067 
Q 302.617609 130.0192 302.617609 130.1467 
Q 302.617609 130.2742 302.585109 130.4192 
L 296.697609 130.4192 
L 296.697609 129.9717 
L 302.137609 129.9717 
Q 302.137609 128.3867 301.480109 127.6117 
Q 300.825109 126.8342 299.737609 126.8342 
Q 299.065109 126.8342 298.425109 127.2267 
Q 297.785109 127.6192 297.367609 128.4117 
Q 296.952609 129.2017 296.952609 130.3867 
Q 296.952609 131.4742 297.345109 132.2842 
Q 297.737609 133.0917 298.425109 133.5317 
Q 299.112609 133.9717 299.962609 133.9717 
Q 300.617609 133.9717 301.145109 133.7967 
Q 301.672609 133.6192 302.072609 133.3317 
L 302.297609 133.6817 
Q 301.865109 133.9717 301.327609 134.1967 
Q 300.792609 134.4192 299.930109 134.4192 
z
M 307.258107 134.4192 
Q 305.818107 134.4192 304.953107 133.3867 
Q 304.090607 132.3542 304.090607 130.4192 
Q 304.090607 129.1867 304.560607 128.2842 
Q 305.033107 127.3792 305.808107 126.8842 
Q 306.585607 126.3867 307.513107 126.3867 
Q 308.218107 126.3867 308.753107 126.6342 
Q 309.290607 126.8817 309.880607 127.3467 
L 309.850607 125.9067 
L 309.850607 122.6742 
L 310.330607 122.6742 
L 310.330607 134.2267 
L 309.913107 134.2267 
L 309.850607 133.2017 
L 309.818107 133.2017 
Q 309.338107 133.6817 308.698107 134.0517 
Q 308.058107 134.4192 307.258107 134.4192 
z
M 307.290607 133.9717 
Q 307.960607 133.9717 308.585607 133.6192 
Q 309.210607 133.2667 309.850607 132.6267 
L 309.850607 127.8917 
Q 309.210607 127.3142 308.650607 127.0742 
Q 308.090607 126.8342 307.480607 126.8342 
Q 306.665607 126.8342 306.018107 127.3142 
Q 305.370607 127.7942 304.985607 128.6117 
Q 304.600607 129.4267 304.600607 130.4192 
Q 304.600607 132.0017 305.295607 132.9867 
Q 305.993107 133.9717 307.290607 133.9717 
z
M 313.400604 134.2267 
L 313.400604 126.5792 
L 313.880604 126.5792 
L 313.880604 134.2267 
L 313.400604 134.2267 
z
M 313.625604 124.6267 
Q 313.418104 124.6267 313.265604 124.4667 
Q 313.113104 124.3067 313.113104 124.0517 
Q 313.113104 123.8117 313.265604 123.6592 
Q 313.418104 123.5067 313.625604 123.5067 
Q 313.850604 123.5067 313.993104 123.6592 
Q 314.138104 123.8117 314.138104 124.0517 
Q 314.138104 124.3067 313.993104 124.4667 
Q 313.850604 124.6267 313.625604 124.6267 
z
M 319.705104 134.4192 
Q 318.730104 134.4192 317.952604 133.9467 
Q 317.177604 133.4742 316.730104 132.5792 
Q 316.282604 131.6817 316.282604 130.4192 
Q 316.282604 129.1392 316.762604 128.2367 
Q 317.242604 127.3317 318.017604 126.8592 
Q 318.792604 126.3867 319.705104 126.3867 
Q 320.505104 126.3867 321.032604 126.6592 
Q 321.562604 126.9317 321.945104 127.3467 
L 321.657604 127.6342 
Q 321.305104 127.2667 320.817604 127.0517 
Q 320.330104 126.8342 319.705104 126.8342 
Q 318.890104 126.8342 318.232604 127.2917 
Q 317.577604 127.7467 317.185104 128.5542 
Q 316.792604 129.3617 316.792604 130.4192 
Q 316.792604 131.4742 317.152604 132.2742 
Q 317.512604 133.0742 318.167604 133.5242 
Q 318.825104 133.9717 319.705104 133.9717 
Q 320.362604 133.9717 320.912604 133.7242 
Q 321.465104 133.4742 321.850104 133.0742 
L 322.137604 133.3617 
Q 321.657604 133.8417 321.057604 134.1317 
Q 320.457604 134.4192 319.705104 134.4192 
z
M 326.041103 134.3542 
Q 324.986103 134.3542 324.616103 133.7392 
Q 324.248603 133.1217 324.248603 132.1467 
L 324.248603 127.0267 
L 323.033603 127.0267 
L 323.033603 126.6417 
L 324.248603 126.5792 
L 324.313603 124.0192 
L 324.728603 124.0192 
L 324.728603 126.5792 
L 327.001103 126.5792 
L 327.001103 127.0267 
L 324.728603 127.0267 
L 324.728603 132.2117 
Q 324.728603 132.9467 324.983603 133.4267 
Q 325.241103 133.9067 326.073603 133.9067 
Q 326.298603 133.9067 326.538603 133.8517 
Q 326.778603 133.7942 327.066103 133.6517 
L 327.258603 134.0017 
Q 326.953603 134.1617 326.633603 134.2567 
Q 326.313603 134.3542 326.041103 134.3542 
z
M 328.920602 134.2267 
L 328.920602 126.5792 
L 329.400602 126.5792 
L 329.400602 134.2267 
L 328.920602 134.2267 
z
M 329.145602 124.6267 
Q 328.938102 124.6267 328.785602 124.4667 
Q 328.633102 124.3067 328.633102 124.0517 
Q 328.633102 123.8117 328.785602 123.6592 
Q 328.938102 123.5067 329.145602 123.5067 
Q 329.370602 123.5067 329.513102 123.6592 
Q 329.658102 123.8117 329.658102 124.0517 
Q 329.658102 124.3067 329.513102 124.4667 
Q 329.370602 124.6267 329.145602 124.6267 
z
M 335.192602 134.4192 
Q 334.282602 134.4192 333.505102 133.9467 
Q 332.730102 133.4742 332.265102 132.5792 
Q 331.802602 131.6817 331.802602 130.4192 
Q 331.802602 129.1392 332.265102 128.2367 
Q 332.730102 127.3317 333.505102 126.8592 
Q 334.282602 126.3867 335.192602 126.3867 
Q 336.105102 126.3867 336.872602 126.8592 
Q 337.642602 127.3317 338.112602 128.2367 
Q 338.585102 129.1392 338.585102 130.4192 
Q 338.585102 131.6817 338.112602 132.5792 
Q 337.642602 133.4742 336.872602 133.9467 
Q 336.105102 134.4192 335.192602 134.4192 
z
M 335.192602 133.9717 
Q 336.010102 133.9717 336.665102 133.5242 
Q 337.322602 133.0742 337.697602 132.2742 
Q 338.072602 131.4742 338.072602 130.4192 
Q 338.072602 129.3617 337.697602 128.5542 
Q 337.322602 127.7467 336.665102 127.2917 
Q 336.010102 126.8342 335.192602 126.8342 
Q 334.377602 126.8342 333.730102 127.2917 
Q 333.082602 127.7467 332.697602 128.5542 
Q 332.312602 129.3617 332.312602 130.4192 
Q 332.312602 131.4742 332.697602 132.2742 
Q 333.082602 133.0742 333.730102 133.5242 
Q 334.377602 133.9717 335.192602 133.9717 
z
M 340.984601 134.2267 
L 340.984601 126.5792 
L 341.402101 126.5792 
L 341.464601 127.7942 
L 341.497101 127.7942 
Q 342.104601 127.1867 342.737101 126.7867 
Q 343.369601 126.3867 344.154601 126.3867 
Q 345.337101 126.3867 345.897101 127.0992 
Q 346.457101 127.8117 346.457101 129.2992 
L 346.457101 134.2267 
L 345.977101 134.2267 
L 345.977101 129.3617 
Q 345.977101 128.0817 345.544601 127.4592 
Q 345.114601 126.8342 344.122101 126.8342 
Q 343.402101 126.8342 342.809601 127.2192 
Q 342.217101 127.6017 341.464601 128.3717 
L 341.464601 134.2267 
L 340.984601 134.2267 
z
" style="fill: #595959"/>
   </g>
   <g id="text_23">
    <text style="font-weight: 300; font-size: 16px; font-family: 'Source Sans 3', sans-serif; text-anchor: middle; fill: #595959" x="289.751625" y="60.772882" transform="rotate(-0 289.751625 60.772882)">Upper prediction</text>
   </g>
   <g id="text_24">
    <text style="font-weight: 300; font-size: 16px; font-family: 'Source Sans 3', sans-serif; text-anchor: middle; fill: #595959" x="289.751625" y="231.771118" transform="rotate(-0 289.751625 231.771118)">Lower prediction</text>
   </g>
   <g id="text_25">
    <text style="font-weight: 800; font-size: 20px; font-family: 'Source Sans 3', sans-serif; text-anchor: start" x="39.96" y="23.952" transform="rotate(-0 39.96 23.952)">Streamflow Prediction Interval</text>
   </g>
   <g id="line2d_41">
    <path d="M 96.57 142.272 
L 116.3835 95.888852 
L 136.197 81.086032 
L 156.0105 76.971818 
L 175.824 72.857604 
L 195.6375 72.485571 
L 215.451 72.113537 
L 235.2645 71.741504 
L 255.078 71.369471 
L 274.8915 70.859213 
L 294.705 70.348955 
L 314.5185 69.838698 
L 334.332 69.32844 
L 354.1455 68.818182 
" clip-path="url(#p54a6f5e3c4)" style="fill: none; stroke: #ffffff; stroke-width: 5; stroke-linecap: round"/>
   </g>
   <g id="line2d_42">
    <path d="M 96.57 142.272 
L 116.3835 188.655148 
L 136.197 203.457968 
L 156.0105 207.572182 
L 175.824 211.686396 
L 195.6375 212.058429 
L 215.451 212.430463 
L 235.2645 212.802496 
L 255.078 213.174529 
L 274.8915 213.684787 
L 294.705 214.195045 
L 314.5185 214.705302 
L 334.332 215.21556 
L 354.1455 215.725818 
" clip-path="url(#p54a6f5e3c4)" style="fill: none; stroke: #ffffff; stroke-width: 5; stroke-linecap: round"/>
   </g>
   <g id="line2d_43">
    <path d="M 96.57 142.272 
L 354.1455 142.272 
" clip-path="url(#p54a6f5e3c4)" style="fill: none; stroke: #ffffff; stroke-width: 5; stroke-linecap: round"/>
   </g>
   <g id="line2d_44">
    <path d="M 96.57 142.272 
L 116.3835 95.888852 
L 136.197 81.086032 
L 156.0105 76.971818 
L 175.824 72.857604 
L 195.6375 72.485571 
L 215.451 72.113537 
L 235.2645 71.741504 
L 255.078 71.369471 
L 274.8915 70.859213 
L 294.705 70.348955 
L 314.5185 69.838698 
L 334.332 69.32844 
L 354.1455 68.818182 
" clip-path="url(#p54a6f5e3c4)" style="fill: none; stroke: #406992; stroke-width: 2; stroke-linecap: round"/>
   </g>
   <g id="line2d_45">
    <path d="M 96.57 142.272 
L 116.3835 188.655148 
L 136.197 203.457968 
L 156.0105 207.572182 
L 175.824 211.686396 
L 195.6375 212.058429 
L 215.451 212.430463 
L 235.2645 212.802496 
L 255.078 213.174529 
L 274.8915 213.684787 
L 294.705 214.195045 
L 314.5185 214.705302 
L 334.332 215.21556 
L 354.1455 215.725818 
" clip-path="url(#p54a6f5e3c4)" style="fill: none; stroke: #b78935; stroke-width: 2; stroke-linecap: round"/>
   </g>
   <g id="line2d_46">
    <path d="M 96.57 142.272 
L 354.1455 142.272 
" clip-path="url(#p54a6f5e3c4)" style="fill: none; stroke: #00264c; stroke-width: 2; stroke-linecap: round"/>
   </g>
   <g id="PathCollection_1">
    <defs>
     <path id="m2a22853d5f" d="M -5 5 
L 5 5 
L 5 -5 
L -5 -5 
z
" style="stroke: #595959"/>
    </defs>
    <g clip-path="url(#p54a6f5e3c4)">
     <use xlink:href="#m2a22853d5f" x="96.57" y="142.272" style="fill: #595959; stroke: #595959"/>
    </g>
   </g>
   <g id="prediction-width-label-percent-1">
    <text style="font-weight: 300; font-size: 16px; font-family: 'Source Sans 3', sans-serif; fill: #595959; opacity: 0" transform="translate(78.35225 36.47625)">1 week later</text>
    <text style="font-weight: 300; font-size: 16px; font-family: 'Source Sans 3', sans-serif; fill: #595959; opacity: 0" transform="translate(82.4785 53.89175)">+/-35.3 pct</text>
   </g>
   <g id="prediction-width-label-percent-2">
    <text style="font-weight: 300; font-size: 16px; font-family: 'Source Sans 3', sans-serif; fill: #595959; opacity: 0" transform="translate(94.96575 36.47625)">2 weeks later</text>
    <text style="font-weight: 300; font-size: 16px; font-family: 'Source Sans 3', sans-serif; fill: #595959; opacity: 0" transform="translate(102.292 53.89175)">+/-38.6 pct</text>
   </g>
   <g id="prediction-width-label-percent-3">
    <text style="font-weight: 300; font-size: 16px; font-family: 'Source Sans 3', sans-serif; fill: #595959; opacity: 0" transform="translate(114.77925 36.47625)">3 weeks later</text>
    <text style="font-weight: 300; font-size: 16px; font-family: 'Source Sans 3', sans-serif; fill: #595959; opacity: 0" transform="translate(122.1055 53.89175)">+/-39.5 pct</text>
   </g>
   <g id="prediction-width-label-percent-4">
    <text style="font-weight: 300; font-size: 16px; font-family: 'Source Sans 3', sans-serif; fill: #595959; opacity: 0" transform="translate(134.59275 36.47625)">4 weeks later</text>
    <text style="font-weight: 300; font-size: 16px; font-family: 'Source Sans 3', sans-serif; fill: #595959; opacity: 0" transform="translate(141.919 53.89175)">+/-40.5 pct</text>
   </g>
   <g id="prediction-width-label-percent-5">
    <text style="font-weight: 300; font-size: 16px; font-family: 'Source Sans 3', sans-serif; fill: #595959; opacity: 0" transform="translate(154.40625 36.47625)">5 weeks later</text>
    <text style="font-weight: 300; font-size: 16px; font-family: 'Source Sans 3', sans-serif; fill: #595959; opacity: 0" transform="translate(161.7325 53.89175)">+/-40.5 pct</text>
   </g>
   <g id="prediction-width-label-percent-6">
    <text style="font-weight: 300; font-size: 16px; font-family: 'Source Sans 3', sans-serif; fill: #595959; opacity: 0" transform="translate(174.21975 36.47625)">6 weeks later</text>
    <text style="font-weight: 300; font-size: 16px; font-family: 'Source Sans 3', sans-serif; fill: #595959; opacity: 0" transform="translate(181.546 53.89175)">+/-40.6 pct</text>
   </g>
   <g id="prediction-width-label-percent-7">
    <text style="font-weight: 300; font-size: 16px; font-family: 'Source Sans 3', sans-serif; fill: #595959; opacity: 0" transform="translate(194.03325 36.47625)">7 weeks later</text>
    <text style="font-weight: 300; font-size: 16px; font-family: 'Source Sans 3', sans-serif; fill: #595959; opacity: 0" transform="translate(201.3595 53.89175)">+/-40.7 pct</text>
   </g>
   <g id="prediction-width-label-percent-8">
    <text style="font-weight: 300; font-size: 16px; font-family: 'Source Sans 3', sans-serif; fill: #595959; opacity: 0" transform="translate(213.84675 36.47625)">8 weeks later</text>
    <text style="font-weight: 300; font-size: 16px; font-family: 'Source Sans 3', sans-serif; fill: #595959; opacity: 0" transform="translate(221.173 53.89175)">+/-40.8 pct</text>
   </g>
   <g id="prediction-width-label-percent-9">
    <text style="font-weight: 300; font-size: 16px; font-family: 'Source Sans 3', sans-serif; fill: #595959; opacity: 0" transform="translate(233.66025 36.47625)">9 weeks later</text>
    <text style="font-weight: 300; font-size: 16px; font-family: 'Source Sans 3', sans-serif; fill: #595959; opacity: 0" transform="translate(240.9865 53.89175)">+/-40.9 pct</text>
   </g>
   <g id="prediction-width-label-percent-10">
    <text style="font-weight: 300; font-size: 16px; font-family: 'Source Sans 3', sans-serif; fill: #595959; opacity: 0" transform="translate(249.6975 36.47625)">10 weeks later</text>
    <text style="font-weight: 300; font-size: 16px; font-family: 'Source Sans 3', sans-serif; fill: #595959; opacity: 0" transform="translate(260.8 53.89175)">+/-41.0 pct</text>
   </g>
   <g id="prediction-width-label-percent-11">
    <text style="font-weight: 300; font-size: 16px; font-family: 'Source Sans 3', sans-serif; fill: #595959; opacity: 0" transform="translate(269.511 36.47625)">11 weeks later</text>
    <text style="font-weight: 300; font-size: 16px; font-family: 'Source Sans 3', sans-serif; fill: #595959; opacity: 0" transform="translate(280.6135 53.89175)">+/-41.1 pct</text>
   </g>
   <g id="prediction-width-label-percent-12">
    <text style="font-weight: 300; font-size: 16px; font-family: 'Source Sans 3', sans-serif; fill: #595959; opacity: 0" transform="translate(289.3245 36.47625)">12 weeks later</text>
    <text style="font-weight: 300; font-size: 16px; font-family: 'Source Sans 3', sans-serif; fill: #595959; opacity: 0" transform="translate(300.427 53.89175)">+/-41.2 pct</text>
   </g>
   <g id="prediction-width-label-percent-13">
    <text style="font-weight: 300; font-size: 16px; font-family: 'Source Sans 3', sans-serif; fill: #595959; opacity: 0" transform="translate(309.138 36.47625)">13 weeks later</text>
    <text style="font-weight: 300; font-size: 16px; font-family: 'Source Sans 3', sans-serif; fill: #595959; opacity: 0" transform="translate(320.2405 53.89175)">+/-41.3 pct</text>
   </g>
   <g id="prediction-width-hover-1">
    <path d="M 106.47675 254.592 
L 106.47675 29.952 
" clip-path="url(#p54a6f5e3c4)" style="fill: none; stroke: #000000; stroke-opacity: 0; stroke-width: 35; stroke-linecap: square"/>
   </g>
   <g id="prediction-width-hover-2">
    <path d="M 126.29025 254.592 
L 126.29025 29.952 
" clip-path="url(#p54a6f5e3c4)" style="fill: none; stroke: #000000; stroke-opacity: 0; stroke-width: 35; stroke-linecap: square"/>
   </g>
   <g id="prediction-width-hover-3">
    <path d="M 146.10375 254.592 
L 146.10375 29.952 
" clip-path="url(#p54a6f5e3c4)" style="fill: none; stroke: #000000; stroke-opacity: 0; stroke-width: 35; stroke-linecap: square"/>
   </g>
   <g id="prediction-width-hover-4">
    <path d="M 165.91725 254.592 
L 165.91725 29.952 
" clip-path="url(#p54a6f5e3c4)" style="fill: none; stroke: #000000; stroke-opacity: 0; stroke-width: 35; stroke-linecap: square"/>
   </g>
   <g id="prediction-width-hover-5">
    <path d="M 185.73075 254.592 
L 185.73075 29.952 
" clip-path="url(#p54a6f5e3c4)" style="fill: none; stroke: #000000; stroke-opacity: 0; stroke-width: 35; stroke-linecap: square"/>
   </g>
   <g id="prediction-width-hover-6">
    <path d="M 205.54425 254.592 
L 205.54425 29.952 
" clip-path="url(#p54a6f5e3c4)" style="fill: none; stroke: #000000; stroke-opacity: 0; stroke-width: 35; stroke-linecap: square"/>
   </g>
   <g id="prediction-width-hover-7">
    <path d="M 225.35775 254.592 
L 225.35775 29.952 
" clip-path="url(#p54a6f5e3c4)" style="fill: none; stroke: #000000; stroke-opacity: 0; stroke-width: 35; stroke-linecap: square"/>
   </g>
   <g id="prediction-width-hover-8">
    <path d="M 245.17125 254.592 
L 245.17125 29.952 
" clip-path="url(#p54a6f5e3c4)" style="fill: none; stroke: #000000; stroke-opacity: 0; stroke-width: 35; stroke-linecap: square"/>
   </g>
   <g id="prediction-width-hover-9">
    <path d="M 264.98475 254.592 
L 264.98475 29.952 
" clip-path="url(#p54a6f5e3c4)" style="fill: none; stroke: #000000; stroke-opacity: 0; stroke-width: 35; stroke-linecap: square"/>
   </g>
   <g id="prediction-width-hover-10">
    <path d="M 284.79825 254.592 
L 284.79825 29.952 
" clip-path="url(#p54a6f5e3c4)" style="fill: none; stroke: #000000; stroke-opacity: 0; stroke-width: 35; stroke-linecap: square"/>
   </g>
   <g id="prediction-width-hover-11">
    <path d="M 304.61175 254.592 
L 304.61175 29.952 
" clip-path="url(#p54a6f5e3c4)" style="fill: none; stroke: #000000; stroke-opacity: 0; stroke-width: 35; stroke-linecap: square"/>
   </g>
   <g id="prediction-width-hover-12">
    <path d="M 324.42525 254.592 
L 324.42525 29.952 
" clip-path="url(#p54a6f5e3c4)" style="fill: none; stroke: #000000; stroke-opacity: 0; stroke-width: 35; stroke-linecap: square"/>
   </g>
   <g id="prediction-width-hover-13">
    <path d="M 344.23875 254.592 
L 344.23875 29.952 
" clip-path="url(#p54a6f5e3c4)" style="fill: none; stroke: #000000; stroke-opacity: 0; stroke-width: 35; stroke-linecap: square"/>
   </g>
  </g>
 </g>
 <defs>
  <clipPath id="p54a6f5e3c4">
   <rect x="39.96" y="29.952" width="339.66" height="224.64"/>
  </clipPath>
 </defs>
</svg>
