<?xml version="1.0" encoding="utf-8" standalone="no"?>
<!DOCTYPE svg PUBLIC "-//W3C//DTD SVG 1.1//EN"
  "http://www.w3.org/Graphics/SVG/1.1/DTD/svg11.dtd">
<svg xmlns:xlink="http://www.w3.org/1999/xlink" width="699.84px" height="524.88px" viewBox="0 0 699.84 524.88" xmlns="http://www.w3.org/2000/svg" version="1.1">
  <defs>
  <style type="text/css">*{stroke-linejoin: round; stroke-linecap: butt}</style>
 </defs>
 <g id="figure-forecast_summary_1">
  <g id="patch_1">
   <path d="M 0 524.88 
L 699.84 524.88 
L 699.84 0 
L 0 0 
z
" style="fill: #ffffff"/>
  </g>
  <g id="axis-forecast_summary_1">
   <g id="patch_2">
    <path d="M 69.984 446.148 
L 664.848 446.148 
L 664.848 52.488 
L 69.984 52.488 
z
" style="fill: #ffffff"/>
   </g>
   <g id="line2d_1">
    <path d="M -1 249.318 
L 169.128 249.318 
" clip-path="url(#pead213f6b5)" style="fill: none; stroke: #883e3a; stroke-width: 2; stroke-linecap: round"/>
   </g>
   <g id="matplotlib.axis_1">
    <g id="xtick_1">
     <g id="line2d_2">
      <defs>
       <path id="ma5db5a7655" d="M 0 0 
L 0 3.5 
" style="stroke: #949494; stroke-width: 0.8"/>
      </defs>
      <g>
       <use xlink:href="#ma5db5a7655" x="169.128" y="446.148" style="fill: #949494; stroke: #949494; stroke-width: 0.8"/>
      </g>
     </g>
     <g id="text_1">
      <text style="font-weight: 300; font-size: 16px; font-family: 'Source Sans 3', sans-serif; text-anchor: middle; fill: #595959" x="169.128" y="464.7005" transform="rotate(-0 169.128 464.7005)">0</text>
     </g>
    </g>
    <g id="xtick_2">
     <g id="line2d_3">
      <g>
       <use xlink:href="#ma5db5a7655" x="203.8284" y="446.148" style="fill: #949494; stroke: #949494; stroke-width: 0.8"/>
      </g>
     </g>
     <g id="text_2">
      <text style="font-weight: 300; font-size: 16px; font-family: 'Source Sans 3', sans-serif; text-anchor: middle; fill: #595959" x="203.8284" y="464.7005" transform="rotate(-0 203.8284 464.7005)">1</text>
     </g>
    </g>
    <g id="xtick_3">
     <g id="line2d_4">
      <g>
       <use xlink:href="#ma5db5a7655" x="238.5288" y="446.148" style="fill: #949494; stroke: #949494; stroke-width: 0.8"/>
      </g>
     </g>
     <g id="text_3">
      <text style="font-weight: 300; font-size: 16px; font-family: 'Source Sans 3', sans-serif; text-anchor: middle; fill: #595959" x="238.5288" y="464.7005" transform="rotate(-0 238.5288 464.7005)">2</text>
     </g>
    </g>
    <g id="xtick_4">
     <g id="line2d_5">
      <g>
       <use xlink:href="#ma5db5a7655" x="273.2292" y="446.148" style="fill: #949494; stroke: #949494; stroke-width: 0.8"/>
      </g>
     </g>
     <g id="text_4">
      <text style="font-weight: 300; font-size: 16px; font-family: 'Source Sans 3', sans-serif; text-anchor: middle; fill: #595959" x="273.2292" y="464.7005" transform="rotate(-0 273.2292 464.7005)">3</text>
     </g>
    </g>
    <g id="xtick_5">
     <g id="line2d_6">
      <g>
       <use xlink:href="#ma5db5a7655" x="307.9296" y="446.148" style="fill: #949494; stroke: #949494; stroke-width: 0.8"/>
      </g>
     </g>
     <g id="text_5">
      <text style="font-weight: 300; font-size: 16px; font-family: 'Source Sans 3', sans-serif; text-anchor: middle; fill: #595959" x="307.9296" y="464.7005" transform="rotate(-0 307.9296 464.7005)">4</text>
     </g>
    </g>
    <g id="xtick_6">
     <g id="line2d_7">
      <g>
       <use xlink:href="#ma5db5a7655" x="342.63" y="446.148" style="fill: #949494; stroke: #949494; stroke-width: 0.8"/>
      </g>
     </g>
     <g id="text_6">
      <text style="font-weight: 300; font-size: 16px; font-family: 'Source Sans 3', sans-serif; text-anchor: middle; fill: #595959" x="342.63" y="464.7005" transform="rotate(-0 342.63 464.7005)">5</text>
     </g>
    </g>
    <g id="xtick_7">
     <g id="line2d_8">
      <g>
       <use xlink:href="#ma5db5a7655" x="377.3304" y="446.148" style="fill: #949494; stroke: #949494; stroke-width: 0.8"/>
      </g>
     </g>
     <g id="text_7">
      <text style="font-weight: 300; font-size: 16px; font-family: 'Source Sans 3', sans-serif; text-anchor: middle; fill: #595959" x="377.3304" y="464.7005" transform="rotate(-0 377.3304 464.7005)">6</text>
     </g>
    </g>
    <g id="xtick_8">
     <g id="line2d_9">
      <g>
       <use xlink:href="#ma5db5a7655" x="412.0308" y="446.148" style="fill: #949494; stroke: #949494; stroke-width: 0.8"/>
      </g>
     </g>
     <g id="text_8">
      <text style="font-weight: 300; font-size: 16px; font-family: 'Source Sans 3', sans-serif; text-anchor: middle; fill: #595959" x="412.0308" y="464.7005" transform="rotate(-0 412.0308 464.7005)">7</text>
     </g>
    </g>
    <g id="xtick_9">
     <g id="line2d_10">
      <g>
       <use xlink:href="#ma5db5a7655" x="446.7312" y="446.148" style="fill: #949494; stroke: #949494; stroke-width: 0.8"/>
      </g>
     </g>
     <g id="text_9">
      <text style="font-weight: 300; font-size: 16px; font-family: 'Source Sans 3', sans-serif; text-anchor: middle; fill: #595959" x="446.7312" y="464.7005" transform="rotate(-0 446.7312 464.7005)">8</text>
     </g>
    </g>
    <g id="xtick_10">
     <g id="line2d_11">
      <g>
       <use xlink:href="#ma5db5a7655" x="481.4316" y="446.148" style="fill: #949494; stroke: #949494; stroke-width: 0.8"/>
      </g>
     </g>
     <g id="text_10">
      <text style="font-weight: 300; font-size: 16px; font-family: 'Source Sans 3', sans-serif; text-anchor: middle; fill: #595959" x="481.4316" y="464.7005" transform="rotate(-0 481.4316 464.7005)">9</text>
     </g>
    </g>
    <g id="xtick_11">
     <g id="line2d_12">
      <g>
       <use xlink:href="#ma5db5a7655" x="516.132" y="446.148" style="fill: #949494; stroke: #949494; stroke-width: 0.8"/>
      </g>
     </g>
     <g id="text_11">
      <text style="font-weight: 300; font-size: 16px; font-family: 'Source Sans 3', sans-serif; text-anchor: middle; fill: #595959" x="516.132" y="464.7005" transform="rotate(-0 516.132 464.7005)">10</text>
     </g>
    </g>
    <g id="xtick_12">
     <g id="line2d_13">
      <g>
       <use xlink:href="#ma5db5a7655" x="550.8324" y="446.148" style="fill: #949494; stroke: #949494; stroke-width: 0.8"/>
      </g>
     </g>
     <g id="text_12">
      <text style="font-weight: 300; font-size: 16px; font-family: 'Source Sans 3', sans-serif; text-anchor: middle; fill: #595959" x="550.8324" y="464.7005" transform="rotate(-0 550.8324 464.7005)">11</text>
     </g>
    </g>
    <g id="xtick_13">
     <g id="line2d_14">
      <g>
       <use xlink:href="#ma5db5a7655" x="585.5328" y="446.148" style="fill: #949494; stroke: #949494; stroke-width: 0.8"/>
      </g>
     </g>
     <g id="text_13">
      <text style="font-weight: 300; font-size: 16px; font-family: 'Source Sans 3', sans-serif; text-anchor: middle; fill: #595959" x="585.5328" y="464.7005" transform="rotate(-0 585.5328 464.7005)">12</text>
     </g>
    </g>
    <g id="xtick_14">
     <g id="line2d_15">
      <g>
       <use xlink:href="#ma5db5a7655" x="620.2332" y="446.148" style="fill: #949494; stroke: #949494; stroke-width: 0.8"/>
      </g>
     </g>
     <g id="text_14">
      <text style="font-weight: 300; font-size: 16px; font-family: 'Source Sans 3', sans-serif; text-anchor: middle; fill: #595959" x="620.2332" y="464.7005" transform="rotate(-0 620.2332 464.7005)">13</text>
     </g>
    </g>
    <g id="text_15">
     <text style="font-weight: 600; font-size: 16px; font-family: 'Source Sans 3', sans-serif; text-anchor: middle; fill: #595959" x="367.416" y="483.8055" transform="rotate(-0 367.416 483.8055)">Prediction Horizon in Weeks</text>
    </g>
   </g>
   <g id="matplotlib.axis_2">
    <g id="ytick_1">
     <g id="line2d_16">
      <path d="M 69.984 446.148 
L 664.848 446.148 
" clip-path="url(#pead213f6b5)" style="fill: none; stroke: #d1d1d1; stroke-width: 0.8; stroke-linecap: square"/>
     </g>
     <g id="line2d_17">
      <defs>
       <path id="me760c77110" d="M 0 0 
L -3.5 0 
" style="stroke: #949494; stroke-width: 0.8"/>
      </defs>
      <g>
       <use xlink:href="#me760c77110" x="69.984" y="446.148" style="fill: #949494; stroke: #949494; stroke-width: 0.8"/>
      </g>
     </g>
     <g id="text_16">
      <text style="font-weight: 300; font-size: 16px; font-family: 'Source Sans 3', sans-serif; text-anchor: end; fill: #595959" x="62.984" y="451.92425" transform="rotate(-0 62.984 451.92425)">0ᵗʰ</text>
     </g>
    </g>
    <g id="ytick_2">
     <g id="line2d_18">
      <path d="M 69.984 367.416 
L 664.848 367.416 
" clip-path="url(#pead213f6b5)" style="fill: none; stroke: #d1d1d1; stroke-width: 0.8; stroke-linecap: square"/>
     </g>
     <g id="line2d_19">
      <g>
       <use xlink:href="#me760c77110" x="69.984" y="367.416" style="fill: #949494; stroke: #949494; stroke-width: 0.8"/>
      </g>
     </g>
     <g id="text_17">
      <text style="font-weight: 300; font-size: 16px; font-family: 'Source Sans 3', sans-serif; text-anchor: end; fill: #595959" x="62.984" y="373.19225" transform="rotate(-0 62.984 373.19225)">20ᵗʰ</text>
     </g>
    </g>
    <g id="ytick_3">
     <g id="line2d_20">
      <path d="M 69.984 288.684 
L 664.848 288.684 
" clip-path="url(#pead213f6b5)" style="fill: none; stroke: #d1d1d1; stroke-width: 0.8; stroke-linecap: square"/>
     </g>
     <g id="line2d_21">
      <g>
       <use xlink:href="#me760c77110" x="69.984" y="288.684" style="fill: #949494; stroke: #949494; stroke-width: 0.8"/>
      </g>
     </g>
     <g id="text_18">
      <text style="font-weight: 300; font-size: 16px; font-family: 'Source Sans 3', sans-serif; text-anchor: end; fill: #595959" x="62.984" y="294.46025" transform="rotate(-0 62.984 294.46025)">40ᵗʰ</text>
     </g>
    </g>
    <g id="ytick_4">
     <g id="line2d_22">
      <path d="M 69.984 209.952 
L 664.848 209.952 
" clip-path="url(#pead213f6b5)" style="fill: none; stroke: #d1d1d1; stroke-width: 0.8; stroke-linecap: square"/>
     </g>
     <g id="line2d_23">
      <g>
       <use xlink:href="#me760c77110" x="69.984" y="209.952" style="fill: #949494; stroke: #949494; stroke-width: 0.8"/>
      </g>
     </g>
     <g id="text_19">
      <text style="font-weight: 300; font-size: 16px; font-family: 'Source Sans 3', sans-serif; text-anchor: end; fill: #595959" x="62.984" y="215.72825" transform="rotate(-0 62.984 215.72825)">60ᵗʰ</text>
     </g>
    </g>
    <g id="ytick_5">
     <g id="line2d_24">
      <path d="M 69.984 131.22 
L 664.848 131.22 
" clip-path="url(#pead213f6b5)" style="fill: none; stroke: #d1d1d1; stroke-width: 0.8; stroke-linecap: square"/>
     </g>
     <g id="line2d_25">
      <g>
       <use xlink:href="#me760c77110" x="69.984" y="131.22" style="fill: #949494; stroke: #949494; stroke-width: 0.8"/>
      </g>
     </g>
     <g id="text_20">
      <text style="font-weight: 300; font-size: 16px; font-family: 'Source Sans 3', sans-serif; text-anchor: end; fill: #595959" x="62.984" y="136.99625" transform="rotate(-0 62.984 136.99625)">80ᵗʰ</text>
     </g>
    </g>
    <g id="ytick_6">
     <g id="line2d_26">
      <path d="M 69.984 52.488 
L 664.848 52.488 
" clip-path="url(#pead213f6b5)" style="fill: none; stroke: #d1d1d1; stroke-width: 0.8; stroke-linecap: square"/>
     </g>
     <g id="line2d_27">
      <g>
       <use xlink:href="#me760c77110" x="69.984" y="52.488" style="fill: #949494; stroke: #949494; stroke-width: 0.8"/>
      </g>
     </g>
     <g id="text_21">
      <text style="font-weight: 300; font-size: 16px; font-family: 'Source Sans 3', sans-serif; text-anchor: end; fill: #595959" x="62.984" y="58.26425" transform="rotate(-0 62.984 58.26425)">100ᵗʰ</text>
     </g>
    </g>
   </g>
   <g id="FillBetweenPolyCollection_1">
    <defs>
     <path id="m9405e8a433" d="M 169.128 -275.562 
L 169.128 -275.562 
L 203.8284 -356.844007 
L 203.8284 -194.279993 
L 203.8284 -194.279993 
L 169.128 -275.562 
z
"/>
    </defs>
    <g clip-path="url(#pead213f6b5)">
     <use xlink:href="#m9405e8a433" x="0" y="524.88" style="fill: #00264c; fill-opacity: 0.464286"/>
    </g>
   </g>
   <g id="FillBetweenPolyCollection_2">
    <defs>
     <path id="m2bc25ccf13" d="M 203.8284 -194.279993 
L 203.8284 -356.844007 
L 238.5288 -382.784525 
L 238.5288 -168.339475 
L 238.5288 -168.339475 
L 203.8284 -194.279993 
z
"/>
    </defs>
    <g clip-path="url(#pead213f6b5)">
     <use xlink:href="#m2bc25ccf13" x="0" y="524.88" style="fill: #00264c; fill-opacity: 0.428571"/>
    </g>
   </g>
   <g id="FillBetweenPolyCollection_3">
    <defs>
     <path id="m54cad3d6ff" d="M 238.5288 -168.339475 
L 238.5288 -382.784525 
L 273.2292 -389.99429 
L 273.2292 -161.12971 
L 273.2292 -161.12971 
L 238.5288 -168.339475 
z
"/>
    </defs>
    <g clip-path="url(#pead213f6b5)">
     <use xlink:href="#m54cad3d6ff" x="0" y="524.88" style="fill: #00264c; fill-opacity: 0.392857"/>
    </g>
   </g>
   <g id="FillBetweenPolyCollection_4">
    <defs>
     <path id="mdd6821492b" d="M 273.2292 -161.12971 
L 273.2292 -389.99429 
L 307.9296 -397.204054 
L 307.9296 -153.919946 
L 307.9296 -153.919946 
L 273.2292 -161.12971 
z
"/>
    </defs>
    <g clip-path="url(#pead213f6b5)">
     <use xlink:href="#mdd6821492b" x="0" y="524.88" style="fill: #00264c; fill-opacity: 0.357143"/>
    </g>
   </g>
   <g id="FillBetweenPolyCollection_5">
    <defs>
     <path id="me758f581fc" d="M 307.9296 -153.919946 
L 307.9296 -397.204054 
L 342.63 -397.856007 
L 342.63 -153.267993 
L 342.63 -153.267993 
L 307.9296 -153.919946 
z
"/>
    </defs>
    <g clip-path="url(#pead213f6b5)">
     <use xlink:href="#me758f581fc" x="0" y="524.88" style="fill: #00264c; fill-opacity: 0.321429"/>
    </g>
   </g>
   <g id="FillBetweenPolyCollection_6">
    <defs>
     <path id="mf880482744" d="M 342.63 -153.267993 
L 342.63 -397.856007 
L 377.3304 -398.50796 
L 377.3304 -152.61604 
L 377.3304 -152.61604 
L 342.63 -153.267993 
z
"/>
    </defs>
    <g clip-path="url(#pead213f6b5)">
     <use xlink:href="#mf880482744" x="0" y="524.88" style="fill: #00264c; fill-opacity: 0.285714"/>
    </g>
   </g>
   <g id="FillBetweenPolyCollection_7">
    <defs>
     <path id="m78571cad29" d="M 377.3304 -152.61604 
L 377.3304 -398.50796 
L 412.0308 -399.159913 
L 412.0308 -151.964087 
L 412.0308 -151.964087 
L 377.3304 -152.61604 
z
"/>
    </defs>
    <g clip-path="url(#pead213f6b5)">
     <use xlink:href="#m78571cad29" x="0" y="524.88" style="fill: #00264c; fill-opacity: 0.25"/>
    </g>
   </g>
   <g id="FillBetweenPolyCollection_8">
    <defs>
     <path id="m5e814ce6ca" d="M 412.0308 -151.964087 
L 412.0308 -399.159913 
L 446.7312 -399.811865 
L 446.7312 -151.312135 
L 446.7312 -151.312135 
L 412.0308 -151.964087 
z
"/>
    </defs>
    <g clip-path="url(#pead213f6b5)">
     <use xlink:href="#m5e814ce6ca" x="0" y="524.88" style="fill: #00264c; fill-opacity: 0.214286"/>
    </g>
   </g>
   <g id="FillBetweenPolyCollection_9">
    <defs>
     <path id="m5bf113a328" d="M 446.7312 -151.312135 
L 446.7312 -399.811865 
L 481.4316 -400.706043 
L 481.4316 -150.417957 
L 481.4316 -150.417957 
L 446.7312 -151.312135 
z
"/>
    </defs>
    <g clip-path="url(#pead213f6b5)">
     <use xlink:href="#m5bf113a328" x="0" y="524.88" style="fill: #00264c; fill-opacity: 0.178571"/>
    </g>
   </g>
   <g id="FillBetweenPolyCollection_10">
    <defs>
     <path id="m9a87194dd9" d="M 481.4316 -150.417957 
L 481.4316 -400.706043 
L 516.132 -401.60022 
L 516.132 -149.52378 
L 516.132 -149.52378 
L 481.4316 -150.417957 
z
"/>
    </defs>
    <g clip-path="url(#pead213f6b5)">
     <use xlink:href="#m9a87194dd9" x="0" y="524.88" style="fill: #00264c; fill-opacity: 0.142857"/>
    </g>
   </g>
   <g id="FillBetweenPolyCollection_11">
    <defs>
     <path id="mc7d4a064a3" d="M 516.132 -149.52378 
L 516.132 -401.60022 
L 550.8324 -402.494398 
L 550.8324 -148.629602 
L 550.8324 -148.629602 
L 516.132 -149.52378 
z
"/>
    </defs>
    <g clip-path="url(#pead213f6b5)">
     <use xlink:href="#mc7d4a064a3" x="0" y="524.88" style="fill: #00264c; fill-opacity: 0.107143"/>
    </g>
   </g>
   <g id="FillBetweenPolyCollection_12">
    <defs>
     <path id="mca27a9c0d8" d="M 550.8324 -148.629602 
L 550.8324 -402.494398 
L 585.5328 -403.388575 
L 585.5328 -147.735425 
L 585.5328 -147.735425 
L 550.8324 -148.629602 
z
"/>
    </defs>
    <g clip-path="url(#pead213f6b5)">
     <use xlink:href="#mca27a9c0d8" x="0" y="524.88" style="fill: #00264c; fill-opacity: 0.071429"/>
    </g>
   </g>
   <g id="FillBetweenPolyCollection_13">
    <defs>
     <path id="m188a1edc75" d="M 585.5328 -147.735425 
L 585.5328 -403.388575 
L 620.2332 -404.282753 
L 620.2332 -146.841247 
L 620.2332 -146.841247 
L 585.5328 -147.735425 
z
"/>
    </defs>
    <g clip-path="url(#pead213f6b5)">
     <use xlink:href="#m188a1edc75" x="0" y="524.88" style="fill: #00264c; fill-opacity: 0.035714"/>
    </g>
   </g>
   <g id="line2d_28">
    <path d="M 203.8284 330.600007 
L 203.8284 168.035993 
" clip-path="url(#pead213f6b5)" style="fill: none; stroke-dasharray: 1,1.65; stroke-dashoffset: 0; stroke: #949494"/>
   </g>
   <g id="prediction-width-line-1">
    <path d="M 203.8284 330.600007 
L 203.8284 168.035993 
" clip-path="url(#pead213f6b5)" style="fill: none; stroke: #6e6e6e; stroke-opacity: 0; stroke-width: 2; stroke-linecap: round"/>
   </g>
   <g id="line2d_29">
    <path d="M 238.5288 356.540525 
L 238.5288 142.095475 
" clip-path="url(#pead213f6b5)" style="fill: none; stroke-dasharray: 1,1.65; stroke-dashoffset: 0; stroke: #949494"/>
   </g>
   <g id="prediction-width-line-2">
    <path d="M 238.5288 356.540525 
L 238.5288 142.095475 
" clip-path="url(#pead213f6b5)" style="fill: none; stroke: #6e6e6e; stroke-opacity: 0; stroke-width: 2; stroke-linecap: round"/>
   </g>
   <g id="line2d_30">
    <path d="M 273.2292 363.75029 
L 273.2292 134.88571 
" clip-path="url(#pead213f6b5)" style="fill: none; stroke-dasharray: 1,1.65; stroke-dashoffset: 0; stroke: #949494"/>
   </g>
   <g id="prediction-width-line-3">
    <path d="M 273.2292 363.75029 
L 273.2292 134.88571 
" clip-path="url(#pead213f6b5)" style="fill: none; stroke: #6e6e6e; stroke-opacity: 0; stroke-width: 2; stroke-linecap: round"/>
   </g>
   <g id="line2d_31">
    <path d="M 307.9296 370.960054 
L 307.9296 127.675946 
" clip-path="url(#pead213f6b5)" style="fill: none; stroke-dasharray: 1,1.65; stroke-dashoffset: 0; stroke: #949494"/>
   </g>
   <g id="prediction-width-line-4">
    <path d="M 307.9296 370.960054 
L 307.9296 127.675946 
" clip-path="url(#pead213f6b5)" style="fill: none; stroke: #6e6e6e; stroke-opacity: 0; stroke-width: 2; stroke-linecap: round"/>
   </g>
   <g id="line2d_32">
    <path d="M 342.63 371.612007 
L 342.63 127.023993 
" clip-path="url(#pead213f6b5)" style="fill: none; stroke-dasharray: 1,1.65; stroke-dashoffset: 0; stroke: #949494"/>
   </g>
   <g id="prediction-width-line-5">
    <path d="M 342.63 371.612007 
L 342.63 127.023993 
" clip-path="url(#pead213f6b5)" style="fill: none; stroke: #6e6e6e; stroke-opacity: 0; stroke-width: 2; stroke-linecap: round"/>
   </g>
   <g id="line2d_33">
    <path d="M 377.3304 372.26396 
L 377.3304 126.37204 
" clip-path="url(#pead213f6b5)" style="fill: none; stroke-dasharray: 1,1.65; stroke-dashoffset: 0; stroke: #949494"/>
   </g>
   <g id="prediction-width-line-6">
    <path d="M 377.3304 372.26396 
L 377.3304 126.37204 
" clip-path="url(#pead213f6b5)" style="fill: none; stroke: #6e6e6e; stroke-opacity: 0; stroke-width: 2; stroke-linecap: round"/>
   </g>
   <g id="line2d_34">
    <path d="M 412.0308 372.915913 
L 412.0308 125.720087 
" clip-path="url(#pead213f6b5)" style="fill: none; stroke-dasharray: 1,1.65; stroke-dashoffset: 0; stroke: #949494"/>
   </g>
   <g id="prediction-width-line-7">
    <path d="M 412.0308 372.915913 
L 412.0308 125.720087 
" clip-path="url(#pead213f6b5)" style="fill: none; stroke: #6e6e6e; stroke-opacity: 0; stroke-width: 2; stroke-linecap: round"/>
   </g>
   <g id="line2d_35">
    <path d="M 446.7312 373.567865 
L 446.7312 125.068135 
" clip-path="url(#pead213f6b5)" style="fill: none; stroke-dasharray: 1,1.65; stroke-dashoffset: 0; stroke: #949494"/>
   </g>
   <g id="prediction-width-line-8">
    <path d="M 446.7312 373.567865 
L 446.7312 125.068135 
" clip-path="url(#pead213f6b5)" style="fill: none; stroke: #6e6e6e; stroke-opacity: 0; stroke-width: 2; stroke-linecap: round"/>
   </g>
   <g id="line2d_36">
    <path d="M 481.4316 374.462043 
L 481.4316 124.173957 
" clip-path="url(#pead213f6b5)" style="fill: none; stroke-dasharray: 1,1.65; stroke-dashoffset: 0; stroke: #949494"/>
   </g>
   <g id="prediction-width-line-9">
    <path d="M 481.4316 374.462043 
L 481.4316 124.173957 
" clip-path="url(#pead213f6b5)" style="fill: none; stroke: #6e6e6e; stroke-opacity: 0; stroke-width: 2; stroke-linecap: round"/>
   </g>
   <g id="line2d_37">
    <path d="M 516.132 375.35622 
L 516.132 123.27978 
" clip-path="url(#pead213f6b5)" style="fill: none; stroke-dasharray: 1,1.65; stroke-dashoffset: 0; stroke: #949494"/>
   </g>
   <g id="prediction-width-line-10">
    <path d="M 516.132 375.35622 
L 516.132 123.27978 
" clip-path="url(#pead213f6b5)" style="fill: none; stroke: #6e6e6e; stroke-opacity: 0; stroke-width: 2; stroke-linecap: round"/>
   </g>
   <g id="line2d_38">
    <path d="M 550.8324 376.250398 
L 550.8324 122.385602 
" clip-path="url(#pead213f6b5)" style="fill: none; stroke-dasharray: 1,1.65; stroke-dashoffset: 0; stroke: #949494"/>
   </g>
   <g id="prediction-width-line-11">
    <path d="M 550.8324 376.250398 
L 550.8324 122.385602 
" clip-path="url(#pead213f6b5)" style="fill: none; stroke: #6e6e6e; stroke-opacity: 0; stroke-width: 2; stroke-linecap: round"/>
   </g>
   <g id="line2d_39">
    <path d="M 585.5328 377.144575 
L 585.5328 121.491425 
" clip-path="url(#pead213f6b5)" style="fill: none; stroke-dasharray: 1,1.65; stroke-dashoffset: 0; stroke: #949494"/>
   </g>
   <g id="prediction-width-line-12">
    <path d="M 585.5328 377.144575 
L 585.5328 121.491425 
" clip-path="url(#pead213f6b5)" style="fill: none; stroke: #6e6e6e; stroke-opacity: 0; stroke-width: 2; stroke-linecap: round"/>
   </g>
   <g id="line2d_40">
    <path d="M 620.2332 378.038753 
L 620.2332 120.597247 
" clip-path="url(#pead213f6b5)" style="fill: none; stroke-dasharray: 1,1.65; stroke-dashoffset: 0; stroke: #949494"/>
   </g>
   <g id="prediction-width-line-13">
    <path d="M 620.2332 378.038753 
L 620.2332 120.597247 
" clip-path="url(#pead213f6b5)" style="fill: none; stroke: #6e6e6e; stroke-opacity: 0; stroke-width: 2; stroke-linecap: round"/>
   </g>
   <g id="patch_3">
    <path d="M 69.984 446.148 
L 69.984 52.488 
" style="fill: none; stroke: #949494; stroke-width: 0.8; stroke-linejoin: miter; stroke-linecap: square"/>
   </g>
   <g id="patch_4">
    <path d="M 69.984 446.148 
L 664.848 446.148 
" style="fill: none; stroke: #949494; stroke-width: 0.8; stroke-linejoin: miter; stroke-linecap: square"/>
   </g>
   <g id="prediction-width-label-week-13">
    <text style="font-weight: 300; font-size: 16px; font-family: 'Source Sans 3', sans-serif; text-anchor: end; fill: #595959" x="169.128" y="237.8923" transform="rotate(-0 169.128 237.8923)">Today</text>
   </g>
   <g id="text_22">
    <path d="M 450.9469 237.8923 
L 450.9469 227.3323 
L 451.7794 227.3323 
L 454.0519 233.7323 
Q 454.2744 234.3248 454.4894 234.9248 
Q 454.7069 235.5248 454.9144 236.1323 
L 454.9794 236.1323 
Q 455.2019 235.5248 455.4019 234.9248 
Q 455.6019 234.3248 455.8119 233.7323 
L 458.0819 227.3323 
L 458.9144 227.3323 
L 458.9144 237.8923 
L 458.4019 237.8923 
L 458.4019 230.5323 
Q 458.4019 230.1173 458.4094 229.6448 
Q 458.4194 229.1723 458.4344 228.6923 
Q 458.4519 228.2123 458.4669 227.7798 
L 458.4019 227.7798 
L 457.5869 230.1173 
L 455.2019 236.7073 
L 454.6594 236.7073 
L 452.2594 230.1173 
L 451.4269 227.7798 
L 451.3619 227.7798 
Q 451.3794 228.2123 451.3944 228.6923 
Q 451.4119 229.1723 451.4194 229.6448 
Q 451.4269 230.1173 451.4269 230.5323 
L 451.4269 237.8923 
L 450.9469 237.8923 
z
M 464.867398 238.0848 
Q 463.907398 238.0848 463.114898 237.6048 
Q 462.322398 237.1248 461.849898 236.2298 
Q 461.379898 235.3323 461.379898 234.0848 
Q 461.379898 232.8373 461.849898 231.9323 
Q 462.322398 231.0273 463.074898 230.5398 
Q 463.827398 230.0523 464.674898 230.0523 
Q 465.554898 230.0523 466.202398 230.4598 
Q 466.849898 230.8673 467.202398 231.6523 
Q 467.554898 232.4373 467.554898 233.5723 
Q 467.554898 233.6848 467.554898 233.8123 
Q 467.554898 233.9398 467.522398 234.0848 
L 461.634898 234.0848 
L 461.634898 233.6373 
L 467.074898 233.6373 
Q 467.074898 232.0523 466.417398 231.2773 
Q 465.762398 230.4998 464.674898 230.4998 
Q 464.002398 230.4998 463.362398 230.8923 
Q 462.722398 231.2848 462.304898 232.0773 
Q 461.889898 232.8673 461.889898 234.0523 
Q 461.889898 235.1398 462.282398 235.9498 
Q 462.674898 236.7573 463.362398 237.1973 
Q 464.049898 237.6373 464.899898 237.6373 
Q 465.554898 237.6373 466.082398 237.4623 
Q 466.609898 237.2848 467.009898 236.9973 
L 467.234898 237.3473 
Q 466.802398 237.6373 466.264898 237.8623 
Q 465.729898 238.0848 464.867398 238.0848 
z
M 472.195396 238.0848 
Q 470.755396 238.0848 469.890396 237.0523 
Q 469.027896 236.0198 469.027896 234.0848 
Q 469.027896 232.8523 469.497896 231.9498 
Q 469.970396 231.0448 470.745396 230.5498 
Q 471.522896 230.0523 472.450396 230.0523 
Q 473.155396 230.0523 473.690396 230.2998 
Q 474.227896 230.5473 474.817896 231.0123 
L 474.787896 229.5723 
L 474.787896 226.3398 
L 475.267896 226.3398 
L 475.267896 237.8923 
L 474.850396 237.8923 
L 474.787896 236.8673 
L 474.755396 236.8673 
Q 474.275396 237.3473 473.635396 237.7173 
Q 472.995396 238.0848 472.195396 238.0848 
z
M 472.227896 237.6373 
Q 472.897896 237.6373 473.522896 237.2848 
Q 474.147896 236.9323 474.787896 236.2923 
L 474.787896 231.5573 
Q 474.147896 230.9798 473.587896 230.7398 
Q 473.027896 230.4998 472.417896 230.4998 
Q 471.602896 230.4998 470.955396 230.9798 
Q 470.307896 231.4598 469.922896 232.2773 
Q 469.537896 233.0923 469.537896 234.0848 
Q 469.537896 235.6673 470.232896 236.6523 
Q 470.930396 237.6373 472.227896 237.6373 
z
M 478.337894 237.8923 
L 478.337894 230.2448 
L 478.817894 230.2448 
L 478.817894 237.8923 
L 478.337894 237.8923 
z
M 478.562894 228.2923 
Q 478.355394 228.2923 478.202894 228.1323 
Q 478.050394 227.9723 478.050394 227.7173 
Q 478.050394 227.4773 478.202894 227.3248 
Q 478.355394 227.1723 478.562894 227.1723 
Q 478.787894 227.1723 478.930394 227.3248 
Q 479.075394 227.4773 479.075394 227.7173 
Q 479.075394 227.9723 478.930394 228.1323 
Q 478.787894 228.2923 478.562894 228.2923 
z
M 483.522393 238.0848 
Q 482.929893 238.0848 482.424893 237.8698 
Q 481.922393 237.6523 481.617393 237.1973 
Q 481.314893 236.7398 481.314893 236.0198 
Q 481.314893 234.7398 482.529893 234.0773 
Q 483.747393 233.4123 486.339893 233.1248 
Q 486.354893 232.4998 486.217393 231.8923 
Q 486.082393 231.2848 485.664893 230.8923 
Q 485.249893 230.4998 484.449893 230.4998 
Q 483.634893 230.4998 482.977393 230.8123 
Q 482.322393 231.1248 481.954893 231.3973 
L 481.699893 231.0448 
Q 481.939893 230.8523 482.354893 230.6198 
Q 482.769893 230.3873 483.314893 230.2198 
Q 483.859893 230.0523 484.482393 230.0523 
Q 485.379893 230.0523 485.889893 230.4523 
Q 486.402393 230.8523 486.609893 231.5098 
Q 486.819893 232.1648 486.819893 232.9323 
L 486.819893 237.8923 
L 486.402393 237.8923 
L 486.339893 236.8673 
L 486.307393 236.8673 
Q 485.714893 237.3473 485.002393 237.7173 
Q 484.289893 238.0848 483.522393 238.0848 
z
M 483.554893 237.6373 
Q 484.259893 237.6373 484.914893 237.3023 
Q 485.569893 236.9648 486.339893 236.3248 
L 486.339893 233.5398 
Q 484.659893 233.7323 483.674893 234.0598 
Q 482.689893 234.3873 482.257393 234.8673 
Q 481.827393 235.3473 481.827393 236.0048 
Q 481.827393 236.8848 482.347393 237.2623 
Q 482.867393 237.6373 483.554893 237.6373 
z
M 489.665892 237.8923 
L 489.665892 230.2448 
L 490.083392 230.2448 
L 490.145892 231.4598 
L 490.178392 231.4598 
Q 490.785892 230.8523 491.418392 230.4523 
Q 492.050892 230.0523 492.835892 230.0523 
Q 494.018392 230.0523 494.578392 230.7648 
Q 495.138392 231.4773 495.138392 232.9648 
L 495.138392 237.8923 
L 494.658392 237.8923 
L 494.658392 233.0273 
Q 494.658392 231.7473 494.225892 231.1248 
Q 493.795892 230.4998 492.803392 230.4998 
Q 492.083392 230.4998 491.490892 230.8848 
Q 490.898392 231.2673 490.145892 232.0373 
L 490.145892 237.8923 
L 489.665892 237.8923 
z
M 501.281888 241.4448 
L 501.281888 230.2448 
L 501.699388 230.2448 
L 501.761888 231.2373 
L 501.794388 231.2373 
Q 502.371888 230.7723 503.051888 230.4123 
Q 503.731888 230.0523 504.451888 230.0523 
Q 505.491888 230.0523 506.171888 230.5323 
Q 506.851888 231.0123 507.186888 231.8923 
Q 507.521888 232.7723 507.521888 233.9573 
Q 507.521888 235.2523 507.049388 236.1723 
Q 506.579388 237.0923 505.809388 237.5898 
Q 505.041888 238.0848 504.131888 238.0848 
Q 503.586888 238.0848 502.986888 237.8298 
Q 502.386888 237.5723 501.761888 237.1248 
L 501.761888 238.5648 
L 501.761888 241.4448 
L 501.281888 241.4448 
z
M 504.161888 237.6373 
Q 504.994388 237.6373 505.634388 237.1648 
Q 506.274388 236.6923 506.641888 235.8598 
Q 507.011888 235.0273 507.011888 233.9573 
Q 507.011888 232.9798 506.754388 232.1973 
Q 506.499388 231.4123 505.929388 230.9573 
Q 505.361888 230.4998 504.419388 230.4998 
Q 503.826888 230.4998 503.169388 230.8448 
Q 502.514388 231.1873 501.761888 231.8448 
L 501.761888 236.5798 
Q 502.466888 237.1573 503.089388 237.3973 
Q 503.714388 237.6373 504.161888 237.6373 
z
M 509.921885 237.8923 
L 509.921885 230.2448 
L 510.339385 230.2448 
L 510.401885 231.6848 
L 510.434385 231.6848 
Q 510.801885 230.9798 511.346885 230.5173 
Q 511.891885 230.0523 512.611885 230.0523 
Q 512.801885 230.0523 512.976885 230.0848 
Q 513.154385 230.1173 513.346885 230.2123 
L 513.186885 230.6273 
Q 513.041885 230.5798 512.906885 230.5573 
Q 512.771885 230.5323 512.546885 230.5323 
Q 512.019385 230.5323 511.441885 230.9898 
Q 510.866885 231.4448 510.401885 232.5798 
L 510.401885 237.8923 
L 509.921885 237.8923 
z
M 517.635384 238.0848 
Q 516.675384 238.0848 515.882884 237.6048 
Q 515.090384 237.1248 514.617884 236.2298 
Q 514.147884 235.3323 514.147884 234.0848 
Q 514.147884 232.8373 514.617884 231.9323 
Q 515.090384 231.0273 515.842884 230.5398 
Q 516.595384 230.0523 517.442884 230.0523 
Q 518.322884 230.0523 518.970384 230.4598 
Q 519.617884 230.8673 519.970384 231.6523 
Q 520.322884 232.4373 520.322884 233.5723 
Q 520.322884 233.6848 520.322884 233.8123 
Q 520.322884 233.9398 520.290384 234.0848 
L 514.402884 234.0848 
L 514.402884 233.6373 
L 519.842884 233.6373 
Q 519.842884 232.0523 519.185384 231.2773 
Q 518.530384 230.4998 517.442884 230.4998 
Q 516.770384 230.4998 516.130384 230.8923 
Q 515.490384 231.2848 515.072884 232.0773 
Q 514.657884 232.8673 514.657884 234.0523 
Q 514.657884 235.1398 515.050384 235.9498 
Q 515.442884 236.7573 516.130384 237.1973 
Q 516.817884 237.6373 517.667884 237.6373 
Q 518.322884 237.6373 518.850384 237.4623 
Q 519.377884 237.2848 519.777884 236.9973 
L 520.002884 237.3473 
Q 519.570384 237.6373 519.032884 237.8623 
Q 518.497884 238.0848 517.635384 238.0848 
z
M 524.963382 238.0848 
Q 523.523382 238.0848 522.658382 237.0523 
Q 521.795882 236.0198 521.795882 234.0848 
Q 521.795882 232.8523 522.265882 231.9498 
Q 522.738382 231.0448 523.513382 230.5498 
Q 524.290882 230.0523 525.218382 230.0523 
Q 525.923382 230.0523 526.458382 230.2998 
Q 526.995882 230.5473 527.585882 231.0123 
L 527.555882 229.5723 
L 527.555882 226.3398 
L 528.035882 226.3398 
L 528.035882 237.8923 
L 527.618382 237.8923 
L 527.555882 236.8673 
L 527.523382 236.8673 
Q 527.043382 237.3473 526.403382 237.7173 
Q 525.763382 238.0848 524.963382 238.0848 
z
M 524.995882 237.6373 
Q 525.665882 237.6373 526.290882 237.2848 
Q 526.915882 236.9323 527.555882 236.2923 
L 527.555882 231.5573 
Q 526.915882 230.9798 526.355882 230.7398 
Q 525.795882 230.4998 525.185882 230.4998 
Q 524.370882 230.4998 523.723382 230.9798 
Q 523.075882 231.4598 522.690882 232.2773 
Q 522.305882 233.0923 522.305882 234.0848 
Q 522.305882 235.6673 523.000882 236.6523 
Q 523.698382 237.6373 524.995882 237.6373 
z
M 531.105879 237.8923 
L 531.105879 230.2448 
L 531.585879 230.2448 
L 531.585879 237.8923 
L 531.105879 237.8923 
z
M 531.330879 228.2923 
Q 531.123379 228.2923 530.970879 228.1323 
Q 530.818379 227.9723 530.818379 227.7173 
Q 530.818379 227.4773 530.970879 227.3248 
Q 531.123379 227.1723 531.330879 227.1723 
Q 531.555879 227.1723 531.698379 227.3248 
Q 531.843379 227.4773 531.843379 227.7173 
Q 531.843379 227.9723 531.698379 228.1323 
Q 531.555879 228.2923 531.330879 228.2923 
z
M 537.410379 238.0848 
Q 536.435379 238.0848 535.657879 237.6123 
Q 534.882879 237.1398 534.435379 236.2448 
Q 533.987879 235.3473 533.987879 234.0848 
Q 533.987879 232.8048 534.467879 231.9023 
Q 534.947879 230.9973 535.722879 230.5248 
Q 536.497879 230.0523 537.410379 230.0523 
Q 538.210379 230.0523 538.737879 230.3248 
Q 539.267879 230.5973 539.650379 231.0123 
L 539.362879 231.2998 
Q 539.010379 230.9323 538.522879 230.7173 
Q 538.035379 230.4998 537.410379 230.4998 
Q 536.595379 230.4998 535.937879 230.9573 
Q 535.282879 231.4123 534.890379 232.2198 
Q 534.497879 233.0273 534.497879 234.0848 
Q 534.497879 235.1398 534.857879 235.9398 
Q 535.217879 236.7398 535.872879 237.1898 
Q 536.530379 237.6373 537.410379 237.6373 
Q 538.067879 237.6373 538.617879 237.3898 
Q 539.170379 237.1398 539.555379 236.7398 
L 539.842879 237.0273 
Q 539.362879 237.5073 538.762879 237.7973 
Q 538.162879 238.0848 537.410379 238.0848 
z
M 543.746378 238.0198 
Q 542.691378 238.0198 542.321378 237.4048 
Q 541.953878 236.7873 541.953878 235.8123 
L 541.953878 230.6923 
L 540.738878 230.6923 
L 540.738878 230.3073 
L 541.953878 230.2448 
L 542.018878 227.6848 
L 542.433878 227.6848 
L 542.433878 230.2448 
L 544.706378 230.2448 
L 544.706378 230.6923 
L 542.433878 230.6923 
L 542.433878 235.8773 
Q 542.433878 236.6123 542.688878 237.0923 
Q 542.946378 237.5723 543.778878 237.5723 
Q 544.003878 237.5723 544.243878 237.5173 
Q 544.483878 237.4598 544.771378 237.3173 
L 544.963878 237.6673 
Q 544.658878 237.8273 544.338878 237.9223 
Q 544.018878 238.0198 543.746378 238.0198 
z
M 546.625877 237.8923 
L 546.625877 230.2448 
L 547.105877 230.2448 
L 547.105877 237.8923 
L 546.625877 237.8923 
z
M 546.850877 228.2923 
Q 546.643377 228.2923 546.490877 228.1323 
Q 546.338377 227.9723 546.338377 227.7173 
Q 546.338377 227.4773 546.490877 227.3248 
Q 546.643377 227.1723 546.850877 227.1723 
Q 547.075877 227.1723 547.218377 227.3248 
Q 547.363377 227.4773 547.363377 227.7173 
Q 547.363377 227.9723 547.218377 228.1323 
Q 547.075877 228.2923 546.850877 228.2923 
z
M 552.897877 238.0848 
Q 551.987877 238.0848 551.210377 237.6123 
Q 550.435377 237.1398 549.970377 236.2448 
Q 549.507877 235.3473 549.507877 234.0848 
Q 549.507877 232.8048 549.970377 231.9023 
Q 550.435377 230.9973 551.210377 230.5248 
Q 551.987877 230.0523 552.897877 230.0523 
Q 553.810377 230.0523 554.577877 230.5248 
Q 555.347877 230.9973 555.817877 231.9023 
Q 556.290377 232.8048 556.290377 234.0848 
Q 556.290377 235.3473 555.817877 236.2448 
Q 555.347877 237.1398 554.577877 237.6123 
Q 553.810377 238.0848 552.897877 238.0848 
z
M 552.897877 237.6373 
Q 553.715377 237.6373 554.370377 237.1898 
Q 555.027877 236.7398 555.402877 235.9398 
Q 555.777877 235.1398 555.777877 234.0848 
Q 555.777877 233.0273 555.402877 232.2198 
Q 555.027877 231.4123 554.370377 230.9573 
Q 553.715377 230.4998 552.897877 230.4998 
Q 552.082877 230.4998 551.435377 230.9573 
Q 550.787877 231.4123 550.402877 232.2198 
Q 550.017877 233.0273 550.017877 234.0848 
Q 550.017877 235.1398 550.402877 235.9398 
Q 550.787877 236.7398 551.435377 237.1898 
Q 552.082877 237.6373 552.897877 237.6373 
z
M 558.689876 237.8923 
L 558.689876 230.2448 
L 559.107376 230.2448 
L 559.169876 231.4598 
L 559.202376 231.4598 
Q 559.809876 230.8523 560.442376 230.4523 
Q 561.074876 230.0523 561.859876 230.0523 
Q 563.042376 230.0523 563.602376 230.7648 
Q 564.162376 231.4773 564.162376 232.9648 
L 564.162376 237.8923 
L 563.682376 237.8923 
L 563.682376 233.0273 
Q 563.682376 231.7473 563.249876 231.1248 
Q 562.819876 230.4998 561.827376 230.4998 
Q 561.107376 230.4998 560.514876 230.8848 
Q 559.922376 231.2673 559.169876 232.0373 
L 559.169876 237.8923 
L 558.689876 237.8923 
z
" style="fill: #595959; stroke: #ffffff; stroke-width: 2"/>
    <path d="M 450.9469 237.8923 
L 450.9469 227.3323 
L 451.7794 227.3323 
L 454.0519 233.7323 
Q 454.2744 234.3248 454.4894 234.9248 
Q 454.7069 235.5248 454.9144 236.1323 
L 454.9794 236.1323 
Q 455.2019 235.5248 455.4019 234.9248 
Q 455.6019 234.3248 455.8119 233.7323 
L 458.0819 227.3323 
L 458.9144 227.3323 
L 458.9144 237.8923 
L 458.4019 237.8923 
L 458.4019 230.5323 
Q 458.4019 230.1173 458.4094 229.6448 
Q 458.4194 229.1723 458.4344 228.6923 
Q 458.4519 228.2123 458.4669 227.7798 
L 458.4019 227.7798 
L 457.5869 230.1173 
L 455.2019 236.7073 
L 454.6594 236.7073 
L 452.2594 230.1173 
L 451.4269 227.7798 
L 451.3619 227.7798 
Q 451.3794 228.2123 451.3944 228.6923 
Q 451.4119 229.1723 451.4194 229.6448 
Q 451.4269 230.1173 451.4269 230.5323 
L 451.4269 237.8923 
L 450.9469 237.8923 
z
M 464.867398 238.0848 
Q 463.907398 238.0848 463.114898 237.6048 
Q 462.322398 237.1248 461.849898 236.2298 
Q 461.379898 235.3323 461.379898 234.0848 
Q 461.379898 232.8373 461.849898 231.9323 
Q 462.322398 231.0273 463.074898 230.5398 
Q 463.827398 230.0523 464.674898 230.0523 
Q 465.554898 230.0523 466.202398 230.4598 
Q 466.849898 230.8673 467.202398 231.6523 
Q 467.554898 232.4373 467.554898 233.5723 
Q 467.554898 233.6848 467.554898 233.8123 
Q 467.554898 233.9398 467.522398 234.0848 
L 461.634898 234.0848 
L 461.634898 233.6373 
L 467.074898 233.6373 
Q 467.074898 232.0523 466.417398 231.2773 
Q 465.762398 230.4998 464.674898 230.4998 
Q 464.002398 230.4998 463.362398 230.8923 
Q 462.722398 231.2848 462.304898 232.0773 
Q 461.889898 232.8673 461.889898 234.0523 
Q 461.889898 235.1398 462.282398 235.9498 
Q 462.674898 236.7573 463.362398 237.1973 
Q 464.049898 237.6373 464.899898 237.6373 
Q 465.554898 237.6373 466.082398 237.4623 
Q 466.609898 237.2848 467.009898 236.9973 
L 467.234898 237.3473 
Q 466.802398 237.6373 466.264898 237.8623 
Q 465.729898 238.0848 464.867398 238.0848 
z
M 472.195396 238.0848 
Q 470.755396 238.0848 469.890396 237.0523 
Q 469.027896 236.0198 469.027896 234.0848 
Q 469.027896 232.8523 469.497896 231.9498 
Q 469.970396 231.0448 470.745396 230.5498 
Q 471.522896 230.0523 472.450396 230.0523 
Q 473.155396 230.0523 473.690396 230.2998 
Q 474.227896 230.5473 474.817896 231.0123 
L 474.787896 229.5723 
L 474.787896 226.3398 
L 475.267896 226.3398 
L 475.267896 237.8923 
L 474.850396 237.8923 
L 474.787896 236.8673 
L 474.755396 236.8673 
Q 474.275396 237.3473 473.635396 237.7173 
Q 472.995396 238.0848 472.195396 238.0848 
z
M 472.227896 237.6373 
Q 472.897896 237.6373 473.522896 237.2848 
Q 474.147896 236.9323 474.787896 236.2923 
L 474.787896 231.5573 
Q 474.147896 230.9798 473.587896 230.7398 
Q 473.027896 230.4998 472.417896 230.4998 
Q 471.602896 230.4998 470.955396 230.9798 
Q 470.307896 231.4598 469.922896 232.2773 
Q 469.537896 233.0923 469.537896 234.0848 
Q 469.537896 235.6673 470.232896 236.6523 
Q 470.930396 237.6373 472.227896 237.6373 
z
M 478.337894 237.8923 
L 478.337894 230.2448 
L 478.817894 230.2448 
L 478.817894 237.8923 
L 478.337894 237.8923 
z
M 478.562894 228.2923 
Q 478.355394 228.2923 478.202894 228.1323 
Q 478.050394 227.9723 478.050394 227.7173 
Q 478.050394 227.4773 478.202894 227.3248 
Q 478.355394 227.1723 478.562894 227.1723 
Q 478.787894 227.1723 478.930394 227.3248 
Q 479.075394 227.4773 479.075394 227.7173 
Q 479.075394 227.9723 478.930394 228.1323 
Q 478.787894 228.2923 478.562894 228.2923 
z
M 483.522393 238.0848 
Q 482.929893 238.0848 482.424893 237.8698 
Q 481.922393 237.6523 481.617393 237.1973 
Q 481.314893 236.7398 481.314893 236.0198 
Q 481.314893 234.7398 482.529893 234.0773 
Q 483.747393 233.4123 486.339893 233.1248 
Q 486.354893 232.4998 486.217393 231.8923 
Q 486.082393 231.2848 485.664893 230.8923 
Q 485.249893 230.4998 484.449893 230.4998 
Q 483.634893 230.4998 482.977393 230.8123 
Q 482.322393 231.1248 481.954893 231.3973 
L 481.699893 231.0448 
Q 481.939893 230.8523 482.354893 230.6198 
Q 482.769893 230.3873 483.314893 230.2198 
Q 483.859893 230.0523 484.482393 230.0523 
Q 485.379893 230.0523 485.889893 230.4523 
Q 486.402393 230.8523 486.609893 231.5098 
Q 486.819893 232.1648 486.819893 232.9323 
L 486.819893 237.8923 
L 486.402393 237.8923 
L 486.339893 236.8673 
L 486.307393 236.8673 
Q 485.714893 237.3473 485.002393 237.7173 
Q 484.289893 238.0848 483.522393 238.0848 
z
M 483.554893 237.6373 
Q 484.259893 237.6373 484.914893 237.3023 
Q 485.569893 236.9648 486.339893 236.3248 
L 486.339893 233.5398 
Q 484.659893 233.7323 483.674893 234.0598 
Q 482.689893 234.3873 482.257393 234.8673 
Q 481.827393 235.3473 481.827393 236.0048 
Q 481.827393 236.8848 482.347393 237.2623 
Q 482.867393 237.6373 483.554893 237.6373 
z
M 489.665892 237.8923 
L 489.665892 230.2448 
L 490.083392 230.2448 
L 490.145892 231.4598 
L 490.178392 231.4598 
Q 490.785892 230.8523 491.418392 230.4523 
Q 492.050892 230.0523 492.835892 230.0523 
Q 494.018392 230.0523 494.578392 230.7648 
Q 495.138392 231.4773 495.138392 232.9648 
L 495.138392 237.8923 
L 494.658392 237.8923 
L 494.658392 233.0273 
Q 494.658392 231.7473 494.225892 231.1248 
Q 493.795892 230.4998 492.803392 230.4998 
Q 492.083392 230.4998 491.490892 230.8848 
Q 490.898392 231.2673 490.145892 232.0373 
L 490.145892 237.8923 
L 489.665892 237.8923 
z
M 501.281888 241.4448 
L 501.281888 230.2448 
L 501.699388 230.2448 
L 501.761888 231.2373 
L 501.794388 231.2373 
Q 502.371888 230.7723 503.051888 230.4123 
Q 503.731888 230.0523 504.451888 230.0523 
Q 505.491888 230.0523 506.171888 230.5323 
Q 506.851888 231.0123 507.186888 231.8923 
Q 507.521888 232.7723 507.521888 233.9573 
Q 507.521888 235.2523 507.049388 236.1723 
Q 506.579388 237.0923 505.809388 237.5898 
Q 505.041888 238.0848 504.131888 238.0848 
Q 503.586888 238.0848 502.986888 237.8298 
Q 502.386888 237.5723 501.761888 237.1248 
L 501.761888 238.5648 
L 501.761888 241.4448 
L 501.281888 241.4448 
z
M 504.161888 237.6373 
Q 504.994388 237.6373 505.634388 237.1648 
Q 506.274388 236.6923 506.641888 235.8598 
Q 507.011888 235.0273 507.011888 233.9573 
Q 507.011888 232.9798 506.754388 232.1973 
Q 506.499388 231.4123 505.929388 230.9573 
Q 505.361888 230.4998 504.419388 230.4998 
Q 503.826888 230.4998 503.169388 230.8448 
Q 502.514388 231.1873 501.761888 231.8448 
L 501.761888 236.5798 
Q 502.466888 237.1573 503.089388 237.3973 
Q 503.714388 237.6373 504.161888 237.6373 
z
M 509.921885 237.8923 
L 509.921885 230.2448 
L 510.339385 230.2448 
L 510.401885 231.6848 
L 510.434385 231.6848 
Q 510.801885 230.9798 511.346885 230.5173 
Q 511.891885 230.0523 512.611885 230.0523 
Q 512.801885 230.0523 512.976885 230.0848 
Q 513.154385 230.1173 513.346885 230.2123 
L 513.186885 230.6273 
Q 513.041885 230.5798 512.906885 230.5573 
Q 512.771885 230.5323 512.546885 230.5323 
Q 512.019385 230.5323 511.441885 230.9898 
Q 510.866885 231.4448 510.401885 232.5798 
L 510.401885 237.8923 
L 509.921885 237.8923 
z
M 517.635384 238.0848 
Q 516.675384 238.0848 515.882884 237.6048 
Q 515.090384 237.1248 514.617884 236.2298 
Q 514.147884 235.3323 514.147884 234.0848 
Q 514.147884 232.8373 514.617884 231.9323 
Q 515.090384 231.0273 515.842884 230.5398 
Q 516.595384 230.0523 517.442884 230.0523 
Q 518.322884 230.0523 518.970384 230.4598 
Q 519.617884 230.8673 519.970384 231.6523 
Q 520.322884 232.4373 520.322884 233.5723 
Q 520.322884 233.6848 520.322884 233.8123 
Q 520.322884 233.9398 520.290384 234.0848 
L 514.402884 234.0848 
L 514.402884 233.6373 
L 519.842884 233.6373 
Q 519.842884 232.0523 519.185384 231.2773 
Q 518.530384 230.4998 517.442884 230.4998 
Q 516.770384 230.4998 516.130384 230.8923 
Q 515.490384 231.2848 515.072884 232.0773 
Q 514.657884 232.8673 514.657884 234.0523 
Q 514.657884 235.1398 515.050384 235.9498 
Q 515.442884 236.7573 516.130384 237.1973 
Q 516.817884 237.6373 517.667884 237.6373 
Q 518.322884 237.6373 518.850384 237.4623 
Q 519.377884 237.2848 519.777884 236.9973 
L 520.002884 237.3473 
Q 519.570384 237.6373 519.032884 237.8623 
Q 518.497884 238.0848 517.635384 238.0848 
z
M 524.963382 238.0848 
Q 523.523382 238.0848 522.658382 237.0523 
Q 521.795882 236.0198 521.795882 234.0848 
Q 521.795882 232.8523 522.265882 231.9498 
Q 522.738382 231.0448 523.513382 230.5498 
Q 524.290882 230.0523 525.218382 230.0523 
Q 525.923382 230.0523 526.458382 230.2998 
Q 526.995882 230.5473 527.585882 231.0123 
L 527.555882 229.5723 
L 527.555882 226.3398 
L 528.035882 226.3398 
L 528.035882 237.8923 
L 527.618382 237.8923 
L 527.555882 236.8673 
L 527.523382 236.8673 
Q 527.043382 237.3473 526.403382 237.7173 
Q 525.763382 238.0848 524.963382 238.0848 
z
M 524.995882 237.6373 
Q 525.665882 237.6373 526.290882 237.2848 
Q 526.915882 236.9323 527.555882 236.2923 
L 527.555882 231.5573 
Q 526.915882 230.9798 526.355882 230.7398 
Q 525.795882 230.4998 525.185882 230.4998 
Q 524.370882 230.4998 523.723382 230.9798 
Q 523.075882 231.4598 522.690882 232.2773 
Q 522.305882 233.0923 522.305882 234.0848 
Q 522.305882 235.6673 523.000882 236.6523 
Q 523.698382 237.6373 524.995882 237.6373 
z
M 531.105879 237.8923 
L 531.105879 230.2448 
L 531.585879 230.2448 
L 531.585879 237.8923 
L 531.105879 237.8923 
z
M 531.330879 228.2923 
Q 531.123379 228.2923 530.970879 228.1323 
Q 530.818379 227.9723 530.818379 227.7173 
Q 530.818379 227.4773 530.970879 227.3248 
Q 531.123379 227.1723 531.330879 227.1723 
Q 531.555879 227.1723 531.698379 227.3248 
Q 531.843379 227.4773 531.843379 227.7173 
Q 531.843379 227.9723 531.698379 228.1323 
Q 531.555879 228.2923 531.330879 228.2923 
z
M 537.410379 238.0848 
Q 536.435379 238.0848 535.657879 237.6123 
Q 534.882879 237.1398 534.435379 236.2448 
Q 533.987879 235.3473 533.987879 234.0848 
Q 533.987879 232.8048 534.467879 231.9023 
Q 534.947879 230.9973 535.722879 230.5248 
Q 536.497879 230.0523 537.410379 230.0523 
Q 538.210379 230.0523 538.737879 230.3248 
Q 539.267879 230.5973 539.650379 231.0123 
L 539.362879 231.2998 
Q 539.010379 230.9323 538.522879 230.7173 
Q 538.035379 230.4998 537.410379 230.4998 
Q 536.595379 230.4998 535.937879 230.9573 
Q 535.282879 231.4123 534.890379 232.2198 
Q 534.497879 233.0273 534.497879 234.0848 
Q 534.497879 235.1398 534.857879 235.9398 
Q 535.217879 236.7398 535.872879 237.1898 
Q 536.530379 237.6373 537.410379 237.6373 
Q 538.067879 237.6373 538.617879 237.3898 
Q 539.170379 237.1398 539.555379 236.7398 
L 539.842879 237.0273 
Q 539.362879 237.5073 538.762879 237.7973 
Q 538.162879 238.0848 537.410379 238.0848 
z
M 543.746378 238.0198 
Q 542.691378 238.0198 542.321378 237.4048 
Q 541.953878 236.7873 541.953878 235.8123 
L 541.953878 230.6923 
L 540.738878 230.6923 
L 540.738878 230.3073 
L 541.953878 230.2448 
L 542.018878 227.6848 
L 542.433878 227.6848 
L 542.433878 230.2448 
L 544.706378 230.2448 
L 544.706378 230.6923 
L 542.433878 230.6923 
L 542.433878 235.8773 
Q 542.433878 236.6123 542.688878 237.0923 
Q 542.946378 237.5723 543.778878 237.5723 
Q 544.003878 237.5723 544.243878 237.5173 
Q 544.483878 237.4598 544.771378 237.3173 
L 544.963878 237.6673 
Q 544.658878 237.8273 544.338878 237.9223 
Q 544.018878 238.0198 543.746378 238.0198 
z
M 546.625877 237.8923 
L 546.625877 230.2448 
L 547.105877 230.2448 
L 547.105877 237.8923 
L 546.625877 237.8923 
z
M 546.850877 228.2923 
Q 546.643377 228.2923 546.490877 228.1323 
Q 546.338377 227.9723 546.338377 227.7173 
Q 546.338377 227.4773 546.490877 227.3248 
Q 546.643377 227.1723 546.850877 227.1723 
Q 547.075877 227.1723 547.218377 227.3248 
Q 547.363377 227.4773 547.363377 227.7173 
Q 547.363377 227.9723 547.218377 228.1323 
Q 547.075877 228.2923 546.850877 228.2923 
z
M 552.897877 238.0848 
Q 551.987877 238.0848 551.210377 237.6123 
Q 550.435377 237.1398 549.970377 236.2448 
Q 549.507877 235.3473 549.507877 234.0848 
Q 549.507877 232.8048 549.970377 231.9023 
Q 550.435377 230.9973 551.210377 230.5248 
Q 551.987877 230.0523 552.897877 230.0523 
Q 553.810377 230.0523 554.577877 230.5248 
Q 555.347877 230.9973 555.817877 231.9023 
Q 556.290377 232.8048 556.290377 234.0848 
Q 556.290377 235.3473 555.817877 236.2448 
Q 555.347877 237.1398 554.577877 237.6123 
Q 553.810377 238.0848 552.897877 238.0848 
z
M 552.897877 237.6373 
Q 553.715377 237.6373 554.370377 237.1898 
Q 555.027877 236.7398 555.402877 235.9398 
Q 555.777877 235.1398 555.777877 234.0848 
Q 555.777877 233.0273 555.402877 232.2198 
Q 555.027877 231.4123 554.370377 230.9573 
Q 553.715377 230.4998 552.897877 230.4998 
Q 552.082877 230.4998 551.435377 230.9573 
Q 550.787877 231.4123 550.402877 232.2198 
Q 550.017877 233.0273 550.017877 234.0848 
Q 550.017877 235.1398 550.402877 235.9398 
Q 550.787877 236.7398 551.435377 237.1898 
Q 552.082877 237.6373 552.897877 237.6373 
z
M 558.689876 237.8923 
L 558.689876 230.2448 
L 559.107376 230.2448 
L 559.169876 231.4598 
L 559.202376 231.4598 
Q 559.809876 230.8523 560.442376 230.4523 
Q 561.074876 230.0523 561.859876 230.0523 
Q 563.042376 230.0523 563.602376 230.7648 
Q 564.162376 231.4773 564.162376 232.9648 
L 564.162376 237.8923 
L 563.682376 237.8923 
L 563.682376 233.0273 
Q 563.682376 231.7473 563.249876 231.1248 
Q 562.819876 230.4998 561.827376 230.4998 
Q 561.107376 230.4998 560.514876 230.8848 
Q 559.922376 231.2673 559.169876 232.0373 
L 559.169876 237.8923 
L 558.689876 237.8923 
z
" style="fill: #595959"/>
   </g>
   <g id="text_23">
    <text style="font-weight: 300; font-size: 16px; font-family: 'Source Sans 3', sans-serif; text-anchor: middle; fill: #595959" x="507.4569" y="109.171547" transform="rotate(-0 507.4569 109.171547)">Upper prediction</text>
   </g>
   <g id="text_24">
    <text style="font-weight: 300; font-size: 16px; font-family: 'Source Sans 3', sans-serif; text-anchor: middle; fill: #595959" x="507.4569" y="397.464453" transform="rotate(-0 507.4569 397.464453)">Lower prediction</text>
   </g>
   <g id="text_25">
    <text style="font-weight: 800; font-size: 20px; font-family: 'Source Sans 3', sans-serif; text-anchor: start" x="69.984" y="46.488" transform="rotate(-0 69.984 46.488)">Streamflow Prediction Interval</text>
   </g>
   <g id="line2d_41">
    <path d="M 169.128 249.318 
L 203.8284 168.035993 
L 238.5288 142.095475 
L 273.2292 134.88571 
L 307.9296 127.675946 
L 342.63 127.023993 
L 377.3304 126.37204 
L 412.0308 125.720087 
L 446.7312 125.068135 
L 481.4316 124.173957 
L 516.132 123.27978 
L 550.8324 122.385602 
L 585.5328 121.491425 
L 620.2332 120.597247 
" clip-path="url(#pead213f6b5)" style="fill: none; stroke: #ffffff; stroke-width: 5; stroke-linecap: round"/>
   </g>
   <g id="line2d_42">
    <path d="M 169.128 249.318 
L 203.8284 330.600007 
L 238.5288 356.540525 
L 273.2292 363.75029 
L 307.9296 370.960054 
L 342.63 371.612007 
L 377.3304 372.26396 
L 412.0308 372.915913 
L 446.7312 373.567865 
L 481.4316 374.462043 
L 516.132 375.35622 
L 550.8324 376.250398 
L 585.5328 377.144575 
L 620.2332 378.038753 
" clip-path="url(#pead213f6b5)" style="fill: none; stroke: #ffffff; stroke-width: 5; stroke-linecap: round"/>
   </g>
   <g id="line2d_43">
    <path d="M 169.128 249.318 
L 620.2332 249.318 
" clip-path="url(#pead213f6b5)" style="fill: none; stroke: #ffffff; stroke-width: 5; stroke-linecap: round"/>
   </g>
   <g id="line2d_44">
    <path d="M 169.128 249.318 
L 203.8284 168.035993 
L 238.5288 142.095475 
L 273.2292 134.88571 
L 307.9296 127.675946 
L 342.63 127.023993 
L 377.3304 126.37204 
L 412.0308 125.720087 
L 446.7312 125.068135 
L 481.4316 124.173957 
L 516.132 123.27978 
L 550.8324 122.385602 
L 585.5328 121.491425 
L 620.2332 120.597247 
" clip-path="url(#pead213f6b5)" style="fill: none; stroke: #406992; stroke-width: 2; stroke-linecap: round"/>
   </g>
   <g id="line2d_45">
    <path d="M 169.128 249.318 
L 203.8284 330.600007 
L 238.5288 356.540525 
L 273.2292 363.75029 
L 307.9296 370.960054 
L 342.63 371.612007 
L 377.3304 372.26396 
L 412.0308 372.915913 
L 446.7312 373.567865 
L 481.4316 374.462043 
L 516.132 375.35622 
L 550.8324 376.250398 
L 585.5328 377.144575 
L 620.2332 378.038753 
" clip-path="url(#pead213f6b5)" style="fill: none; stroke: #b78935; stroke-width: 2; stroke-linecap: round"/>
   </g>
   <g id="line2d_46">
    <path d="M 169.128 249.318 
L 620.2332 249.318 
" clip-path="url(#pead213f6b5)" style="fill: none; stroke: #00264c; stroke-width: 2; stroke-linecap: round"/>
   </g>
   <g id="PathCollection_1">
    <defs>
     <path id="mddcf7e16d2" d="M -5 5 
L 5 5 
L 5 -5 
L -5 -5 
z
" style="stroke: #595959"/>
    </defs>
    <g clip-path="url(#pead213f6b5)">
     <use xlink:href="#mddcf7e16d2" x="169.128" y="249.318" style="fill: #595959; stroke: #595959"/>
    </g>
   </g>
   <g id="prediction-width-label-percent-1">
    <text style="font-weight: 300; font-size: 16px; font-family: 'Source Sans 3', sans-serif; fill: #595959; opacity: 0" transform="translate(165.79715 67.46325)">1 week later</text>
    <text style="font-weight: 300; font-size: 16px; font-family: 'Source Sans 3', sans-serif; fill: #595959; opacity: 0" transform="translate(169.9234 84.87875)">+/-35.3 pct</text>
   </g>
   <g id="prediction-width-label-percent-2">
    <text style="font-weight: 300; font-size: 16px; font-family: 'Source Sans 3', sans-serif; fill: #595959; opacity: 0" transform="translate(197.29755 67.46325)">2 weeks later</text>
    <text style="font-weight: 300; font-size: 16px; font-family: 'Source Sans 3', sans-serif; fill: #595959; opacity: 0" transform="translate(204.6238 84.87875)">+/-38.6 pct</text>
   </g>
   <g id="prediction-width-label-percent-3">
    <text style="font-weight: 300; font-size: 16px; font-family: 'Source Sans 3', sans-serif; fill: #595959; opacity: 0" transform="translate(231.99795 67.46325)">3 weeks later</text>
    <text style="font-weight: 300; font-size: 16px; font-family: 'Source Sans 3', sans-serif; fill: #595959; opacity: 0" transform="translate(239.3242 84.87875)">+/-39.5 pct</text>
   </g>
   <g id="prediction-width-label-percent-4">
    <text style="font-weight: 300; font-size: 16px; font-family: 'Source Sans 3', sans-serif; fill: #595959; opacity: 0" transform="translate(266.69835 67.46325)">4 weeks later</text>
    <text style="font-weight: 300; font-size: 16px; font-family: 'Source Sans 3', sans-serif; fill: #595959; opacity: 0" transform="translate(274.0246 84.87875)">+/-40.5 pct</text>
   </g>
   <g id="prediction-width-label-percent-5">
    <text style="font-weight: 300; font-size: 16px; font-family: 'Source Sans 3', sans-serif; fill: #595959; opacity: 0" transform="translate(301.39875 67.46325)">5 weeks later</text>
    <text style="font-weight: 300; font-size: 16px; font-family: 'Source Sans 3', sans-serif; fill: #595959; opacity: 0" transform="translate(308.725 84.87875)">+/-40.5 pct</text>
   </g>
   <g id="prediction-width-label-percent-6">
    <text style="font-weight: 300; font-size: 16px; font-family: 'Source Sans 3', sans-serif; fill: #595959; opacity: 0" transform="translate(336.09915 67.46325)">6 weeks later</text>
    <text style="font-weight: 300; font-size: 16px; font-family: 'Source Sans 3', sans-serif; fill: #595959; opacity: 0" transform="translate(343.4254 84.87875)">+/-40.6 pct</text>
   </g>
   <g id="prediction-width-label-percent-7">
    <text style="font-weight: 300; font-size: 16px; font-family: 'Source Sans 3', sans-serif; fill: #595959; opacity: 0" transform="translate(370.79955 67.46325)">7 weeks later</text>
    <text style="font-weight: 300; font-size: 16px; font-family: 'Source Sans 3', sans-serif; fill: #595959; opacity: 0" transform="translate(378.1258 84.87875)">+/-40.7 pct</text>
   </g>
   <g id="prediction-width-label-percent-8">
    <text style="font-weight: 300; font-size: 16px; font-family: 'Source Sans 3', sans-serif; fill: #595959; opacity: 0" transform="translate(405.49995 67.46325)">8 weeks later</text>
    <text style="font-weight: 300; font-size: 16px; font-family: 'Source Sans 3', sans-serif; fill: #595959; opacity: 0" transform="translate(412.8262 84.87875)">+/-40.8 pct</text>
   </g>
   <g id="prediction-width-label-percent-9">
    <text style="font-weight: 300; font-size: 16px; font-family: 'Source Sans 3', sans-serif; fill: #595959; opacity: 0" transform="translate(440.20035 67.46325)">9 weeks later</text>
    <text style="font-weight: 300; font-size: 16px; font-family: 'Source Sans 3', sans-serif; fill: #595959; opacity: 0" transform="translate(447.5266 84.87875)">+/-40.9 pct</text>
   </g>
   <g id="prediction-width-label-percent-10">
    <text style="font-weight: 300; font-size: 16px; font-family: 'Source Sans 3', sans-serif; fill: #595959; opacity: 0" transform="translate(471.1245 67.46325)">10 weeks later</text>
    <text style="font-weight: 300; font-size: 16px; font-family: 'Source Sans 3', sans-serif; fill: #595959; opacity: 0" transform="translate(482.227 84.87875)">+/-41.0 pct</text>
   </g>
   <g id="prediction-width-label-percent-11">
    <text style="font-weight: 300; font-size: 16px; font-family: 'Source Sans 3', sans-serif; fill: #595959; opacity: 0" transform="translate(505.8249 67.46325)">11 weeks later</text>
    <text style="font-weight: 300; font-size: 16px; font-family: 'Source Sans 3', sans-serif; fill: #595959; opacity: 0" transform="translate(516.9274 84.87875)">+/-41.1 pct</text>
   </g>
   <g id="prediction-width-label-percent-12">
    <text style="font-weight: 300; font-size: 16px; font-family: 'Source Sans 3', sans-serif; fill: #595959; opacity: 0" transform="translate(540.5253 67.46325)">12 weeks later</text>
    <text style="font-weight: 300; font-size: 16px; font-family: 'Source Sans 3', sans-serif; fill: #595959; opacity: 0" transform="translate(551.6278 84.87875)">+/-41.2 pct</text>
   </g>
   <g id="prediction-width-label-percent-13">
    <text style="font-weight: 300; font-size: 16px; font-family: 'Source Sans 3', sans-serif; fill: #595959; opacity: 0" transform="translate(575.2257 67.46325)">13 weeks later</text>
    <text style="font-weight: 300; font-size: 16px; font-family: 'Source Sans 3', sans-serif; fill: #595959; opacity: 0" transform="translate(586.3282 84.87875)">+/-41.3 pct</text>
   </g>
   <g id="prediction-width-hover-1">
    <path d="M 186.4782 446.148 
L 186.4782 52.488 
" clip-path="url(#pead213f6b5)" style="fill: none; stroke: #000000; stroke-opacity: 0; stroke-width: 35; stroke-linecap: square"/>
   </g>
   <g id="prediction-width-hover-2">
    <path d="M 221.1786 446.148 
L 221.1786 52.488 
" clip-path="url(#pead213f6b5)" style="fill: none; stroke: #000000; stroke-opacity: 0; stroke-width: 35; stroke-linecap: square"/>
   </g>
   <g id="prediction-width-hover-3">
    <path d="M 255.879 446.148 
L 255.879 52.488 
" clip-path="url(#pead213f6b5)" style="fill: none; stroke: #000000; stroke-opacity: 0; stroke-width: 35; stroke-linecap: square"/>
   </g>
   <g id="prediction-width-hover-4">
    <path d="M 290.5794 446.148 
L 290.5794 52.488 
" clip-path="url(#pead213f6b5)" style="fill: none; stroke: #000000; stroke-opacity: 0; stroke-width: 35; stroke-linecap: square"/>
   </g>
   <g id="prediction-width-hover-5">
    <path d="M 325.2798 446.148 
L 325.2798 52.488 
" clip-path="url(#pead213f6b5)" style="fill: none; stroke: #000000; stroke-opacity: 0; stroke-width: 35; stroke-linecap: square"/>
   </g>
   <g id="prediction-width-hover-6">
    <path d="M 359.9802 446.148 
L 359.9802 52.488 
" clip-path="url(#pead213f6b5)" style="fill: none; stroke: #000000; stroke-opacity: 0; stroke-width: 35; stroke-linecap: square"/>
   </g>
   <g id="prediction-width-hover-7">
    <path d="M 394.6806 446.148 
L 394.6806 52.488 
" clip-path="url(#pead213f6b5)" style="fill: none; stroke: #000000; stroke-opacity: 0; stroke-width: 35; stroke-linecap: square"/>
   </g>
   <g id="prediction-width-hover-8">
    <path d="M 429.381 446.148 
L 429.381 52.488 
" clip-path="url(#pead213f6b5)" style="fill: none; stroke: #000000; stroke-opacity: 0; stroke-width: 35; stroke-linecap: square"/>
   </g>
   <g id="prediction-width-hover-9">
    <path d="M 464.0814 446.148 
L 464.0814 52.488 
" clip-path="url(#pead213f6b5)" style="fill: none; stroke: #000000; stroke-opacity: 0; stroke-width: 35; stroke-linecap: square"/>
   </g>
   <g id="prediction-width-hover-10">
    <path d="M 498.7818 446.148 
L 498.7818 52.488 
" clip-path="url(#pead213f6b5)" style="fill: none; stroke: #000000; stroke-opacity: 0; stroke-width: 35; stroke-linecap: square"/>
   </g>
   <g id="prediction-width-hover-11">
    <path d="M 533.4822 446.148 
L 533.4822 52.488 
" clip-path="url(#pead213f6b5)" style="fill: none; stroke: #000000; stroke-opacity: 0; stroke-width: 35; stroke-linecap: square"/>
   </g>
   <g id="prediction-width-hover-12">
    <path d="M 568.1826 446.148 
L 568.1826 52.488 
" clip-path="url(#pead213f6b5)" style="fill: none; stroke: #000000; stroke-opacity: 0; stroke-width: 35; stroke-linecap: square"/>
   </g>
   <g id="prediction-width-hover-13">
    <path d="M 602.883 446.148 
L 602.883 52.488 
" clip-path="url(#pead213f6b5)" style="fill: none; stroke: #000000; stroke-opacity: 0; stroke-width: 35; stroke-linecap: square"/>
   </g>
  </g>
 </g>
 <defs>
  <clipPath id="pead213f6b5">
   <rect x="69.984" y="52.488" width="594.864" height="393.66"/>
  </clipPath>
 </defs>
</svg>
