<?xml version="1.0" encoding="utf-8" standalone="no"?>
<!DOCTYPE svg PUBLIC "-//W3C//DTD SVG 1.1//EN"
  "http://www.w3.org/Graphics/SVG/1.1/DTD/svg11.dtd">
<svg xmlns:xlink="http://www.w3.org/1999/xlink" width="699.84px" height="524.88px" viewBox="0 0 699.84 524.88" xmlns="http://www.w3.org/2000/svg" version="1.1">
  <defs>
  <style type="text/css">*{stroke-linejoin: round; stroke-linecap: butt}</style>
 </defs>
 <g id="figure-forecast_truefalse">
  <g id="patch_1">
   <path d="M 0 524.88 
L 699.84 524.88 
L 699.84 0 
L 0 0 
z
" style="fill: #ffffff"/>
  </g>
  <g id="axis-forecast_truefalse">
   <g id="FillBetweenPolyCollection_1">
    <defs>
     <path id="m859b538f65" d="M 118.616949 -63.621818 
L 118.616949 -461.258182 
L 144.976271 -461.258182 
L 144.976271 -63.621818 
L 144.976271 -63.621818 
L 118.616949 -63.621818 
z
"/>
    </defs>
    <g clip-path="url(#p26e598f7b5)">
     <use xlink:href="#m859b538f65" x="0" y="524.88" style="fill: #00264c"/>
    </g>
   </g>
   <g id="FillBetweenPolyCollection_2">
    <defs>
     <path id="m3caae641ea" d="M 144.976271 -461.259408 
L 144.976271 -106.535656 
L 147.372573 -106.535901 
L 149.768875 -106.536194 
L 152.165177 -106.536546 
L 154.561479 -106.536968 
L 156.957781 -106.537474 
L 159.354083 -106.538081 
L 161.750385 -106.538808 
L 164.146687 -106.539681 
L 166.542989 -106.540727 
L 168.939291 -106.541982 
L 171.335593 -106.543486 
L 173.731895 -106.54529 
L 176.128197 -106.547453 
L 178.524499 -106.550046 
L 180.920801 -106.553154 
L 183.317103 -106.556879 
L 185.713405 -106.561343 
L 188.109707 -106.566692 
L 190.506009 -106.5731 
L 192.902311 -106.580774 
L 195.298613 -106.589964 
L 197.694915 -106.600963 
L 200.091217 -106.614123 
L 202.487519 -106.629861 
L 204.883821 -106.648671 
L 207.280123 -106.671137 
L 209.676425 -106.697947 
L 212.072727 -106.729911 
L 214.469029 -106.767973 
L 216.865331 -106.813235 
L 219.261633 -106.866968 
L 221.657935 -106.930632 
L 224.054237 -107.005886 
L 226.450539 -107.094595 
L 228.846841 -107.198825 
L 231.243143 -107.320823 
L 233.639445 -107.46298 
L 236.035747 -107.627766 
L 238.432049 -107.817632 
L 240.828351 -108.034878 
L 243.224653 -108.281482 
L 245.620955 -108.558895 
L 248.017257 -108.867814 
L 250.413559 -109.207952 
L 252.809861 -109.577836 
L 255.206163 -109.97467 
L 257.602465 -110.394292 
L 259.998767 -110.831265 
L 262.395069 -111.27911 
L 264.791371 -111.730659 
L 267.187673 -112.178503 
L 269.583975 -112.615477 
L 271.980277 -113.035098 
L 274.376579 -113.431932 
L 276.772881 -113.801817 
L 279.169183 -114.141955 
L 281.565485 -114.450873 
L 283.961787 -114.728286 
L 286.358089 -114.97489 
L 288.754391 -115.192136 
L 291.150693 -115.382002 
L 293.546995 -115.546788 
L 295.943297 -115.688945 
L 298.339599 -115.810943 
L 300.735901 -115.915173 
L 303.132203 -116.003883 
L 305.528505 -116.079137 
L 307.924807 -116.142801 
L 310.321109 -116.196534 
L 312.717411 -116.241795 
L 315.113713 -116.279858 
L 317.510015 -116.311821 
L 319.906317 -116.338632 
L 322.302619 -116.361098 
L 324.698921 -116.379908 
L 327.095223 -116.395646 
L 329.491525 -116.408806 
L 331.887827 -116.419805 
L 334.284129 -116.428994 
L 336.680431 -116.436669 
L 339.076733 -116.443077 
L 341.473035 -116.448426 
L 343.869337 -116.45289 
L 346.265639 -116.456615 
L 348.661941 -116.459723 
L 351.058243 -116.462316 
L 353.454545 -116.464478 
L 355.850847 -116.466282 
L 358.247149 -116.467787 
L 360.643451 -116.469041 
L 363.039753 -116.470088 
L 365.436055 -116.47096 
L 367.832357 -116.471688 
L 370.228659 -116.472295 
L 372.624961 -116.472801 
L 375.021263 -116.473223 
L 377.417565 -116.473574 
L 379.813867 -116.473868 
L 382.210169 -116.474112 
L 382.210169 -471.197864 
L 382.210169 -471.197864 
L 379.813867 -471.19762 
L 377.417565 -471.197326 
L 375.021263 -471.196975 
L 372.624961 -471.196553 
L 370.228659 -471.196047 
L 367.832357 -471.19544 
L 365.436055 -471.194712 
L 363.039753 -471.19384 
L 360.643451 -471.192793 
L 358.247149 -471.191539 
L 355.850847 -471.190034 
L 353.454545 -471.18823 
L 351.058243 -471.186068 
L 348.661941 -471.183475 
L 346.265639 -471.180367 
L 343.869337 -471.176642 
L 341.473035 -471.172178 
L 339.076733 -471.166829 
L 336.680431 -471.160421 
L 334.284129 -471.152746 
L 331.887827 -471.143557 
L 329.491525 -471.132558 
L 327.095223 -471.119398 
L 324.698921 -471.10366 
L 322.302619 -471.08485 
L 319.906317 -471.062384 
L 317.510015 -471.035574 
L 315.113713 -471.00361 
L 312.717411 -470.965548 
L 310.321109 -470.920286 
L 307.924807 -470.866553 
L 305.528505 -470.802889 
L 303.132203 -470.727635 
L 300.735901 -470.638925 
L 298.339599 -470.534696 
L 295.943297 -470.412698 
L 293.546995 -470.27054 
L 291.150693 -470.105754 
L 288.754391 -469.915888 
L 286.358089 -469.698642 
L 283.961787 -469.452038 
L 281.565485 -469.174625 
L 279.169183 -468.865707 
L 276.772881 -468.525569 
L 274.376579 -468.155684 
L 271.980277 -467.75885 
L 269.583975 -467.339229 
L 267.187673 -466.902255 
L 264.791371 -466.454411 
L 262.395069 -466.002862 
L 259.998767 -465.555017 
L 257.602465 -465.118044 
L 255.206163 -464.698422 
L 252.809861 -464.301589 
L 250.413559 -463.931704 
L 248.017257 -463.591566 
L 245.620955 -463.282647 
L 243.224653 -463.005234 
L 240.828351 -462.75863 
L 238.432049 -462.541384 
L 236.035747 -462.351518 
L 233.639445 -462.186732 
L 231.243143 -462.044575 
L 228.846841 -461.922577 
L 226.450539 -461.818347 
L 224.054237 -461.729638 
L 221.657935 -461.654384 
L 219.261633 -461.59072 
L 216.865331 -461.536987 
L 214.469029 -461.491725 
L 212.072727 -461.453663 
L 209.676425 -461.421699 
L 207.280123 -461.394889 
L 204.883821 -461.372423 
L 202.487519 -461.353613 
L 200.091217 -461.337875 
L 197.694915 -461.324715 
L 195.298613 -461.313716 
L 192.902311 -461.304526 
L 190.506009 -461.296852 
L 188.109707 -461.290444 
L 185.713405 -461.285095 
L 183.317103 -461.280631 
L 180.920801 -461.276906 
L 178.524499 -461.273798 
L 176.128197 -461.271205 
L 173.731895 -461.269042 
L 171.335593 -461.267238 
L 168.939291 -461.265734 
L 166.542989 -461.264479 
L 164.146687 -461.263433 
L 161.750385 -461.26256 
L 159.354083 -461.261833 
L 156.957781 -461.261226 
L 154.561479 -461.26072 
L 152.165177 -461.260298 
L 149.768875 -461.259946 
L 147.372573 -461.259653 
L 144.976271 -461.259408 
z
"/>
    </defs>
    <g clip-path="url(#p26e598f7b5)">
     <use xlink:href="#m3caae641ea" x="0" y="524.88" style="fill: #406992; fill-opacity: 0.2"/>
    </g>
   </g>
   <g id="FillBetweenPolyCollection_3">
    <defs>
     <path id="m1f2ac85fa2" d="M 144.976271 -63.620592 
L 144.976271 -106.533203 
L 147.372573 -106.532958 
L 149.768875 -106.532665 
L 152.165177 -106.532313 
L 154.561479 -106.531892 
L 156.957781 -106.531386 
L 159.354083 -106.530779 
L 161.750385 -106.530051 
L 164.146687 -106.529179 
L 166.542989 -106.528132 
L 168.939291 -106.526878 
L 171.335593 -106.525373 
L 173.731895 -106.523569 
L 176.128197 -106.521406 
L 178.524499 -106.518814 
L 180.920801 -106.515706 
L 183.317103 -106.511981 
L 185.713405 -106.507517 
L 188.109707 -106.502168 
L 190.506009 -106.49576 
L 192.902311 -106.488085 
L 195.298613 -106.478896 
L 197.694915 -106.467897 
L 200.091217 -106.454737 
L 202.487519 -106.438999 
L 204.883821 -106.420189 
L 207.280123 -106.397723 
L 209.676425 -106.370912 
L 212.072727 -106.338949 
L 214.469029 -106.300886 
L 216.865331 -106.255625 
L 219.261633 -106.201892 
L 221.657935 -106.138228 
L 224.054237 -106.062973 
L 226.450539 -105.974264 
L 228.846841 -105.870034 
L 231.243143 -105.748036 
L 233.639445 -105.605879 
L 236.035747 -105.441093 
L 238.432049 -105.251227 
L 240.828351 -105.033981 
L 243.224653 -104.787377 
L 245.620955 -104.509964 
L 248.017257 -104.201045 
L 250.413559 -103.860907 
L 252.809861 -103.491023 
L 255.206163 -103.094189 
L 257.602465 -102.674568 
L 259.998767 -102.237594 
L 262.395069 -101.789749 
L 264.791371 -101.338201 
L 267.187673 -100.890356 
L 269.583975 -100.453383 
L 271.980277 -100.033761 
L 274.376579 -99.636927 
L 276.772881 -99.267043 
L 279.169183 -98.926905 
L 281.565485 -98.617986 
L 283.961787 -98.340573 
L 286.358089 -98.093969 
L 288.754391 -97.876723 
L 291.150693 -97.686857 
L 293.546995 -97.522071 
L 295.943297 -97.379914 
L 298.339599 -97.257916 
L 300.735901 -97.153686 
L 303.132203 -97.064977 
L 305.528505 -96.989722 
L 307.924807 -96.926058 
L 310.321109 -96.872325 
L 312.717411 -96.827064 
L 315.113713 -96.789002 
L 317.510015 -96.757038 
L 319.906317 -96.730227 
L 322.302619 -96.707762 
L 324.698921 -96.688952 
L 327.095223 -96.673214 
L 329.491525 -96.660054 
L 331.887827 -96.649055 
L 334.284129 -96.639865 
L 336.680431 -96.632191 
L 339.076733 -96.625783 
L 341.473035 -96.620434 
L 343.869337 -96.61597 
L 346.265639 -96.612245 
L 348.661941 -96.609137 
L 351.058243 -96.606544 
L 353.454545 -96.604381 
L 355.850847 -96.602577 
L 358.247149 -96.601073 
L 360.643451 -96.599818 
L 363.039753 -96.598772 
L 365.436055 -96.597899 
L 367.832357 -96.597171 
L 370.228659 -96.596565 
L 372.624961 -96.596059 
L 375.021263 -96.595637 
L 377.417565 -96.595285 
L 379.813867 -96.594992 
L 382.210169 -96.594747 
L 382.210169 -53.682136 
L 382.210169 -53.682136 
L 379.813867 -53.68238 
L 377.417565 -53.682674 
L 375.021263 -53.683025 
L 372.624961 -53.683447 
L 370.228659 -53.683953 
L 367.832357 -53.68456 
L 365.436055 -53.685288 
L 363.039753 -53.68616 
L 360.643451 -53.687207 
L 358.247149 -53.688461 
L 355.850847 -53.689966 
L 353.454545 -53.69177 
L 351.058243 -53.693932 
L 348.661941 -53.696525 
L 346.265639 -53.699633 
L 343.869337 -53.703358 
L 341.473035 -53.707822 
L 339.076733 -53.713171 
L 336.680431 -53.719579 
L 334.284129 -53.727254 
L 331.887827 -53.736443 
L 329.491525 -53.747442 
L 327.095223 -53.760602 
L 324.698921 -53.77634 
L 322.302619 -53.79515 
L 319.906317 -53.817616 
L 317.510015 -53.844426 
L 315.113713 -53.87639 
L 312.717411 -53.914452 
L 310.321109 -53.959714 
L 307.924807 -54.013447 
L 305.528505 -54.077111 
L 303.132203 -54.152365 
L 300.735901 -54.241075 
L 298.339599 -54.345304 
L 295.943297 -54.467302 
L 293.546995 -54.60946 
L 291.150693 -54.774246 
L 288.754391 -54.964112 
L 286.358089 -55.181358 
L 283.961787 -55.427962 
L 281.565485 -55.705375 
L 279.169183 -56.014293 
L 276.772881 -56.354431 
L 274.376579 -56.724316 
L 271.980277 -57.12115 
L 269.583975 -57.540771 
L 267.187673 -57.977745 
L 264.791371 -58.425589 
L 262.395069 -58.877138 
L 259.998767 -59.324983 
L 257.602465 -59.761956 
L 255.206163 -60.181578 
L 252.809861 -60.578411 
L 250.413559 -60.948296 
L 248.017257 -61.288434 
L 245.620955 -61.597353 
L 243.224653 -61.874766 
L 240.828351 -62.12137 
L 238.432049 -62.338616 
L 236.035747 -62.528482 
L 233.639445 -62.693268 
L 231.243143 -62.835425 
L 228.846841 -62.957423 
L 226.450539 -63.061653 
L 224.054237 -63.150362 
L 221.657935 -63.225616 
L 219.261633 -63.28928 
L 216.865331 -63.343013 
L 214.469029 -63.388275 
L 212.072727 -63.426337 
L 209.676425 -63.458301 
L 207.280123 -63.485111 
L 204.883821 -63.507577 
L 202.487519 -63.526387 
L 200.091217 -63.542125 
L 197.694915 -63.555285 
L 195.298613 -63.566284 
L 192.902311 -63.575474 
L 190.506009 -63.583148 
L 188.109707 -63.589556 
L 185.713405 -63.594905 
L 183.317103 -63.599369 
L 180.920801 -63.603094 
L 178.524499 -63.606202 
L 176.128197 -63.608795 
L 173.731895 -63.610958 
L 171.335593 -63.612762 
L 168.939291 -63.614266 
L 166.542989 -63.615521 
L 164.146687 -63.616567 
L 161.750385 -63.61744 
L 159.354083 -63.618167 
L 156.957781 -63.618774 
L 154.561479 -63.61928 
L 152.165177 -63.619702 
L 149.768875 -63.620054 
L 147.372573 -63.620347 
L 144.976271 -63.620592 
z
"/>
    </defs>
    <g clip-path="url(#p26e598f7b5)">
     <use xlink:href="#m1f2ac85fa2" x="0" y="524.88" style="fill: #b78935; fill-opacity: 0.2"/>
    </g>
   </g>
   <g id="FillBetweenPolyCollection_4">
    <defs>
     <path id="mda3d3f2fe1" d="M 382.210169 -116.475339 
L 382.210169 -471.199091 
L 408.569492 -471.199091 
L 408.569492 -116.475339 
L 408.569492 -116.475339 
L 382.210169 -116.475339 
z
"/>
    </defs>
    <g clip-path="url(#p26e598f7b5)">
     <use xlink:href="#mda3d3f2fe1" x="0" y="524.88" style="fill: #406992"/>
    </g>
   </g>
   <g id="FillBetweenPolyCollection_5">
    <defs>
     <path id="m8cdb1c61bf" d="M 382.210169 -53.680909 
L 382.210169 -96.593521 
L 408.569492 -96.593521 
L 408.569492 -53.680909 
L 408.569492 -53.680909 
L 382.210169 -53.680909 
z
"/>
    </defs>
    <g clip-path="url(#p26e598f7b5)">
     <use xlink:href="#m8cdb1c61bf" x="0" y="524.88" style="fill: #b78935"/>
    </g>
   </g>
   <g id="FillBetweenPolyCollection_6">
    <defs>
     <path id="m4e527c28a6" d="M 645.80339 -23.858182 
L 645.80339 -44.771373 
L 672.162712 -44.771373 
L 672.162712 -23.858182 
L 672.162712 -23.858182 
L 645.80339 -23.858182 
z
"/>
    </defs>
    <g clip-path="url(#p26e598f7b5)">
     <use xlink:href="#m4e527c28a6" x="0" y="524.88" style="fill: #b78935"/>
    </g>
   </g>
   <g id="FillBetweenPolyCollection_7">
    <defs>
     <path id="ma4cf374599" d="M 645.80339 -64.653191 
L 645.80339 -86.652612 
L 672.162712 -86.652612 
L 672.162712 -64.653191 
L 672.162712 -64.653191 
L 645.80339 -64.653191 
z
"/>
    </defs>
    <g clip-path="url(#p26e598f7b5)">
     <use xlink:href="#ma4cf374599" x="0" y="524.88" style="fill: #949494"/>
    </g>
   </g>
   <g id="FillBetweenPolyCollection_8">
    <defs>
     <path id="ma5dafdc909" d="M 645.80339 -126.416248 
L 645.80339 -194.256156 
L 672.162712 -194.256156 
L 672.162712 -126.416248 
L 672.162712 -126.416248 
L 645.80339 -126.416248 
z
"/>
    </defs>
    <g clip-path="url(#p26e598f7b5)">
     <use xlink:href="#ma5dafdc909" x="0" y="524.88" style="fill: #949494"/>
    </g>
   </g>
   <g id="FillBetweenPolyCollection_9">
    <defs>
     <path id="m65016e3eb6" d="M 645.80339 -214.137974 
L 645.80339 -501.021818 
L 672.162712 -501.021818 
L 672.162712 -214.137974 
L 672.162712 -214.137974 
L 645.80339 -214.137974 
z
"/>
    </defs>
    <g clip-path="url(#p26e598f7b5)">
     <use xlink:href="#m65016e3eb6" x="0" y="524.88" style="fill: #406992"/>
    </g>
   </g>
   <g id="FillBetweenPolyCollection_10">
    <defs>
     <path id="maaf4e624a1" d="M 408.569492 -74.592873 
L 408.569492 -96.592294 
L 410.965794 -96.592049 
L 413.362096 -96.591756 
L 415.758398 -96.591404 
L 418.1547 -96.590982 
L 420.551002 -96.590477 
L 422.947304 -96.58987 
L 425.343606 -96.589142 
L 427.739908 -96.58827 
L 430.13621 -96.587223 
L 432.532512 -96.585968 
L 434.928814 -96.584464 
L 437.325116 -96.58266 
L 439.721418 -96.580497 
L 442.11772 -96.577905 
L 444.514022 -96.574797 
L 446.910324 -96.571072 
L 449.306626 -96.566608 
L 451.702928 -96.561259 
L 454.09923 -96.554851 
L 456.495532 -96.547176 
L 458.891834 -96.537987 
L 461.288136 -96.526988 
L 463.684438 -96.513828 
L 466.08074 -96.49809 
L 468.477042 -96.47928 
L 470.873344 -96.456814 
L 473.269646 -96.430003 
L 475.665948 -96.39804 
L 478.06225 -96.359977 
L 480.458552 -96.314716 
L 482.854854 -96.260983 
L 485.251156 -96.197319 
L 487.647458 -96.122064 
L 490.04376 -96.033355 
L 492.440062 -95.929125 
L 494.836364 -95.807127 
L 497.232666 -95.66497 
L 499.628968 -95.500184 
L 502.02527 -95.310318 
L 504.421572 -95.093072 
L 506.817874 -94.846468 
L 509.214176 -94.569055 
L 511.610478 -94.260136 
L 514.00678 -93.919998 
L 516.403082 -93.550114 
L 518.799384 -93.15328 
L 521.195686 -92.733659 
L 523.591988 -92.296685 
L 525.98829 -91.84884 
L 528.384592 -91.397292 
L 530.780894 -90.949447 
L 533.177196 -90.512474 
L 535.573498 -90.092852 
L 537.9698 -89.696018 
L 540.366102 -89.326134 
L 542.762404 -88.985996 
L 545.158706 -88.677077 
L 547.555008 -88.399664 
L 549.95131 -88.15306 
L 552.347612 -87.935814 
L 554.743914 -87.745948 
L 557.140216 -87.581162 
L 559.536518 -87.439005 
L 561.93282 -87.317007 
L 564.329122 -87.212777 
L 566.725424 -87.124068 
L 569.121726 -87.048813 
L 571.518028 -86.985149 
L 573.91433 -86.931416 
L 576.310632 -86.886155 
L 578.706934 -86.848092 
L 581.103236 -86.816129 
L 583.499538 -86.789318 
L 585.89584 -86.766852 
L 588.292142 -86.748043 
L 590.688444 -86.732305 
L 593.084746 -86.719145 
L 595.481048 -86.708145 
L 597.87735 -86.698956 
L 600.273652 -86.691281 
L 602.669954 -86.684874 
L 605.066256 -86.679525 
L 607.462558 -86.67506 
L 609.85886 -86.671335 
L 612.255162 -86.668228 
L 614.651464 -86.665635 
L 617.047766 -86.663472 
L 619.444068 -86.661668 
L 621.84037 -86.660164 
L 624.236672 -86.658909 
L 626.632974 -86.657863 
L 629.029276 -86.65699 
L 631.425578 -86.656262 
L 633.82188 -86.655656 
L 636.218182 -86.65515 
L 638.614484 -86.654728 
L 641.010786 -86.654376 
L 643.407088 -86.654083 
L 645.80339 -86.653838 
L 645.80339 -64.654418 
L 645.80339 -64.654418 
L 643.407088 -64.654662 
L 641.010786 -64.654955 
L 638.614484 -64.655307 
L 636.218182 -64.655729 
L 633.82188 -64.656235 
L 631.425578 -64.656842 
L 629.029276 -64.657569 
L 626.632974 -64.658442 
L 624.236672 -64.659488 
L 621.84037 -64.660743 
L 619.444068 -64.662248 
L 617.047766 -64.664052 
L 614.651464 -64.666214 
L 612.255162 -64.668807 
L 609.85886 -64.671915 
L 607.462558 -64.67564 
L 605.066256 -64.680104 
L 602.669954 -64.685453 
L 600.273652 -64.691861 
L 597.87735 -64.699536 
L 595.481048 -64.708725 
L 593.084746 -64.719724 
L 590.688444 -64.732884 
L 588.292142 -64.748622 
L 585.89584 -64.767432 
L 583.499538 -64.789898 
L 581.103236 -64.816708 
L 578.706934 -64.848672 
L 576.310632 -64.886734 
L 573.91433 -64.931996 
L 571.518028 -64.985729 
L 569.121726 -65.049393 
L 566.725424 -65.124647 
L 564.329122 -65.213357 
L 561.93282 -65.317586 
L 559.536518 -65.439584 
L 557.140216 -65.581742 
L 554.743914 -65.746527 
L 552.347612 -65.936394 
L 549.95131 -66.15364 
L 547.555008 -66.400244 
L 545.158706 -66.677656 
L 542.762404 -66.986575 
L 540.366102 -67.326713 
L 537.9698 -67.696598 
L 535.573498 -68.093432 
L 533.177196 -68.513053 
L 530.780894 -68.950026 
L 528.384592 -69.397871 
L 525.98829 -69.84942 
L 523.591988 -70.297265 
L 521.195686 -70.734238 
L 518.799384 -71.15386 
L 516.403082 -71.550693 
L 514.00678 -71.920578 
L 511.610478 -72.260716 
L 509.214176 -72.569635 
L 506.817874 -72.847047 
L 504.421572 -73.093651 
L 502.02527 -73.310898 
L 499.628968 -73.500764 
L 497.232666 -73.66555 
L 494.836364 -73.807707 
L 492.440062 -73.929705 
L 490.04376 -74.033934 
L 487.647458 -74.122644 
L 485.251156 -74.197898 
L 482.854854 -74.261562 
L 480.458552 -74.315295 
L 478.06225 -74.360557 
L 475.665948 -74.398619 
L 473.269646 -74.430583 
L 470.873344 -74.457393 
L 468.477042 -74.479859 
L 466.08074 -74.498669 
L 463.684438 -74.514407 
L 461.288136 -74.527567 
L 458.891834 -74.538566 
L 456.495532 -74.547755 
L 454.09923 -74.55543 
L 451.702928 -74.561838 
L 449.306626 -74.567187 
L 446.910324 -74.571651 
L 444.514022 -74.575376 
L 442.11772 -74.578484 
L 439.721418 -74.581077 
L 437.325116 -74.583239 
L 434.928814 -74.585043 
L 432.532512 -74.586548 
L 430.13621 -74.587803 
L 427.739908 -74.588849 
L 425.343606 -74.589722 
L 422.947304 -74.590449 
L 420.551002 -74.591056 
L 418.1547 -74.591562 
L 415.758398 -74.591984 
L 413.362096 -74.592336 
L 410.965794 -74.592629 
L 408.569492 -74.592873 
z
"/>
    </defs>
    <g clip-path="url(#p26e598f7b5)">
     <use xlink:href="#maaf4e624a1" x="0" y="524.88" style="fill: #949494; fill-opacity: 0.2"/>
    </g>
   </g>
   <g id="FillBetweenPolyCollection_11">
    <defs>
     <path id="mb87ebab160" d="M 408.569492 -53.677229 
L 408.569492 -74.59042 
L 410.965794 -74.589686 
L 413.362096 -74.588807 
L 415.758398 -74.587751 
L 418.1547 -74.586486 
L 420.551002 -74.584968 
L 422.947304 -74.583148 
L 425.343606 -74.580965 
L 427.739908 -74.578347 
L 430.13621 -74.575208 
L 432.532512 -74.571444 
L 434.928814 -74.56693 
L 437.325116 -74.561518 
L 439.721418 -74.55503 
L 442.11772 -74.547252 
L 444.514022 -74.537928 
L 446.910324 -74.526753 
L 449.306626 -74.513361 
L 451.702928 -74.497314 
L 454.09923 -74.47809 
L 456.495532 -74.455066 
L 458.891834 -74.427498 
L 461.288136 -74.394501 
L 463.684438 -74.355021 
L 466.08074 -74.307807 
L 468.477042 -74.251377 
L 470.873344 -74.183979 
L 473.269646 -74.103548 
L 475.665948 -74.007657 
L 478.06225 -73.89347 
L 480.458552 -73.757685 
L 482.854854 -73.596487 
L 485.251156 -73.405494 
L 487.647458 -73.179731 
L 490.04376 -72.913603 
L 492.440062 -72.600914 
L 494.836364 -72.23492 
L 497.232666 -71.808448 
L 499.628968 -71.314091 
L 502.02527 -70.744492 
L 504.421572 -70.092754 
L 506.817874 -69.352942 
L 509.214176 -68.520704 
L 511.610478 -67.593947 
L 514.00678 -66.573533 
L 516.403082 -65.46388 
L 518.799384 -64.273378 
L 521.195686 -63.014514 
L 523.591988 -61.703594 
L 525.98829 -60.360059 
L 528.384592 -59.005414 
L 530.780894 -57.661879 
L 533.177196 -56.350959 
L 535.573498 -55.092094 
L 537.9698 -53.901593 
L 540.366102 -52.791939 
L 542.762404 -51.771526 
L 545.158706 -50.844769 
L 547.555008 -50.012531 
L 549.95131 -49.272719 
L 552.347612 -48.62098 
L 554.743914 -48.051382 
L 557.140216 -47.557024 
L 559.536518 -47.130553 
L 561.93282 -46.764559 
L 564.329122 -46.45187 
L 566.725424 -46.185742 
L 569.121726 -45.959978 
L 571.518028 -45.768986 
L 573.91433 -45.607787 
L 576.310632 -45.472003 
L 578.706934 -45.357815 
L 581.103236 -45.261925 
L 583.499538 -45.181493 
L 585.89584 -45.114096 
L 588.292142 -45.057666 
L 590.688444 -45.010452 
L 593.084746 -44.970972 
L 595.481048 -44.937974 
L 597.87735 -44.910407 
L 600.273652 -44.887383 
L 602.669954 -44.868159 
L 605.066256 -44.852112 
L 607.462558 -44.83872 
L 609.85886 -44.827545 
L 612.255162 -44.818221 
L 614.651464 -44.810443 
L 617.047766 -44.803955 
L 619.444068 -44.798543 
L 621.84037 -44.794029 
L 624.236672 -44.790265 
L 626.632974 -44.787126 
L 629.029276 -44.784508 
L 631.425578 -44.782325 
L 633.82188 -44.780505 
L 636.218182 -44.778987 
L 638.614484 -44.777722 
L 641.010786 -44.776666 
L 643.407088 -44.775786 
L 645.80339 -44.775053 
L 645.80339 -23.861862 
L 645.80339 -23.861862 
L 643.407088 -23.862595 
L 641.010786 -23.863475 
L 638.614484 -23.864531 
L 636.218182 -23.865796 
L 633.82188 -23.867314 
L 631.425578 -23.869134 
L 629.029276 -23.871317 
L 626.632974 -23.873935 
L 624.236672 -23.877074 
L 621.84037 -23.880838 
L 619.444068 -23.885352 
L 617.047766 -23.890764 
L 614.651464 -23.897252 
L 612.255162 -23.90503 
L 609.85886 -23.914354 
L 607.462558 -23.925529 
L 605.066256 -23.938921 
L 602.669954 -23.954968 
L 600.273652 -23.974192 
L 597.87735 -23.997216 
L 595.481048 -24.024783 
L 593.084746 -24.057781 
L 590.688444 -24.097261 
L 588.292142 -24.144475 
L 585.89584 -24.200905 
L 583.499538 -24.268302 
L 581.103236 -24.348734 
L 578.706934 -24.444624 
L 576.310632 -24.558812 
L 573.91433 -24.694596 
L 571.518028 -24.855795 
L 569.121726 -25.046787 
L 566.725424 -25.272551 
L 564.329122 -25.538679 
L 561.93282 -25.851368 
L 559.536518 -26.217362 
L 557.140216 -26.643833 
L 554.743914 -27.138191 
L 552.347612 -27.707789 
L 549.95131 -28.359528 
L 547.555008 -29.09934 
L 545.158706 -29.931578 
L 542.762404 -30.858335 
L 540.366102 -31.878748 
L 537.9698 -32.988402 
L 535.573498 -34.178903 
L 533.177196 -35.437768 
L 530.780894 -36.748688 
L 528.384592 -38.092223 
L 525.98829 -39.446868 
L 523.591988 -40.790403 
L 521.195686 -42.101323 
L 518.799384 -43.360187 
L 516.403082 -44.550689 
L 514.00678 -45.660342 
L 511.610478 -46.680756 
L 509.214176 -47.607513 
L 506.817874 -48.439751 
L 504.421572 -49.179563 
L 502.02527 -49.831301 
L 499.628968 -50.4009 
L 497.232666 -50.895257 
L 494.836364 -51.321729 
L 492.440062 -51.687723 
L 490.04376 -52.000412 
L 487.647458 -52.26654 
L 485.251156 -52.492303 
L 482.854854 -52.683296 
L 480.458552 -52.844494 
L 478.06225 -52.980279 
L 475.665948 -53.094466 
L 473.269646 -53.190357 
L 470.873344 -53.270788 
L 468.477042 -53.338186 
L 466.08074 -53.394616 
L 463.684438 -53.44183 
L 461.288136 -53.48131 
L 458.891834 -53.514307 
L 456.495532 -53.541875 
L 454.09923 -53.564899 
L 451.702928 -53.584123 
L 449.306626 -53.60017 
L 446.910324 -53.613562 
L 444.514022 -53.624737 
L 442.11772 -53.634061 
L 439.721418 -53.641839 
L 437.325116 -53.648327 
L 434.928814 -53.653739 
L 432.532512 -53.658253 
L 430.13621 -53.662017 
L 427.739908 -53.665156 
L 425.343606 -53.667774 
L 422.947304 -53.669957 
L 420.551002 -53.671777 
L 418.1547 -53.673295 
L 415.758398 -53.67456 
L 413.362096 -53.675616 
L 410.965794 -53.676495 
L 408.569492 -53.677229 
z
"/>
    </defs>
    <g clip-path="url(#p26e598f7b5)">
     <use xlink:href="#mb87ebab160" x="0" y="524.88" style="fill: #b78935; fill-opacity: 0.2"/>
    </g>
   </g>
   <g id="FillBetweenPolyCollection_12">
    <defs>
     <path id="m8170d2cb6e" d="M 408.569492 -184.316473 
L 408.569492 -116.476565 
L 410.965794 -116.47681 
L 413.362096 -116.477103 
L 415.758398 -116.477455 
L 418.1547 -116.477877 
L 420.551002 -116.478383 
L 422.947304 -116.47899 
L 425.343606 -116.479717 
L 427.739908 -116.48059 
L 430.13621 -116.481636 
L 432.532512 -116.482891 
L 434.928814 -116.484395 
L 437.325116 -116.486199 
L 439.721418 -116.488362 
L 442.11772 -116.490955 
L 444.514022 -116.494063 
L 446.910324 -116.497788 
L 449.306626 -116.502252 
L 451.702928 -116.507601 
L 454.09923 -116.514009 
L 456.495532 -116.521683 
L 458.891834 -116.530873 
L 461.288136 -116.541872 
L 463.684438 -116.555032 
L 466.08074 -116.57077 
L 468.477042 -116.58958 
L 470.873344 -116.612046 
L 473.269646 -116.638856 
L 475.665948 -116.67082 
L 478.06225 -116.708882 
L 480.458552 -116.754144 
L 482.854854 -116.807877 
L 485.251156 -116.871541 
L 487.647458 -116.946795 
L 490.04376 -117.035504 
L 492.440062 -117.139734 
L 494.836364 -117.261732 
L 497.232666 -117.403889 
L 499.628968 -117.568675 
L 502.02527 -117.758541 
L 504.421572 -117.975787 
L 506.817874 -118.222391 
L 509.214176 -118.499804 
L 511.610478 -118.808723 
L 514.00678 -119.148861 
L 516.403082 -119.518746 
L 518.799384 -119.915579 
L 521.195686 -120.335201 
L 523.591988 -120.772174 
L 525.98829 -121.220019 
L 528.384592 -121.671568 
L 530.780894 -122.119412 
L 533.177196 -122.556386 
L 535.573498 -122.976007 
L 537.9698 -123.372841 
L 540.366102 -123.742726 
L 542.762404 -124.082864 
L 545.158706 -124.391782 
L 547.555008 -124.669195 
L 549.95131 -124.915799 
L 552.347612 -125.133045 
L 554.743914 -125.322911 
L 557.140216 -125.487697 
L 559.536518 -125.629855 
L 561.93282 -125.751852 
L 564.329122 -125.856082 
L 566.725424 -125.944792 
L 569.121726 -126.020046 
L 571.518028 -126.08371 
L 573.91433 -126.137443 
L 576.310632 -126.182705 
L 578.706934 -126.220767 
L 581.103236 -126.252731 
L 583.499538 -126.279541 
L 585.89584 -126.302007 
L 588.292142 -126.320817 
L 590.688444 -126.336555 
L 593.084746 -126.349715 
L 595.481048 -126.360714 
L 597.87735 -126.369903 
L 600.273652 -126.377578 
L 602.669954 -126.383986 
L 605.066256 -126.389335 
L 607.462558 -126.393799 
L 609.85886 -126.397524 
L 612.255162 -126.400632 
L 614.651464 -126.403225 
L 617.047766 -126.405387 
L 619.444068 -126.407191 
L 621.84037 -126.408696 
L 624.236672 -126.40995 
L 626.632974 -126.410997 
L 629.029276 -126.411869 
L 631.425578 -126.412597 
L 633.82188 -126.413204 
L 636.218182 -126.41371 
L 638.614484 -126.414132 
L 641.010786 -126.414483 
L 643.407088 -126.414777 
L 645.80339 -126.415021 
L 645.80339 -194.254929 
L 645.80339 -194.254929 
L 643.407088 -194.254685 
L 641.010786 -194.254391 
L 638.614484 -194.25404 
L 636.218182 -194.253618 
L 633.82188 -194.253112 
L 631.425578 -194.252505 
L 629.029276 -194.251777 
L 626.632974 -194.250905 
L 624.236672 -194.249858 
L 621.84037 -194.248604 
L 619.444068 -194.247099 
L 617.047766 -194.245295 
L 614.651464 -194.243132 
L 612.255162 -194.24054 
L 609.85886 -194.237432 
L 607.462558 -194.233707 
L 605.066256 -194.229243 
L 602.669954 -194.223894 
L 600.273652 -194.217486 
L 597.87735 -194.209811 
L 595.481048 -194.200622 
L 593.084746 -194.189623 
L 590.688444 -194.176463 
L 588.292142 -194.160725 
L 585.89584 -194.141915 
L 583.499538 -194.119449 
L 581.103236 -194.092638 
L 578.706934 -194.060675 
L 576.310632 -194.022612 
L 573.91433 -193.977351 
L 571.518028 -193.923618 
L 569.121726 -193.859954 
L 566.725424 -193.784699 
L 564.329122 -193.69599 
L 561.93282 -193.59176 
L 559.536518 -193.469762 
L 557.140216 -193.327605 
L 554.743914 -193.162819 
L 552.347612 -192.972953 
L 549.95131 -192.755707 
L 547.555008 -192.509103 
L 545.158706 -192.23169 
L 542.762404 -191.922772 
L 540.366102 -191.582634 
L 537.9698 -191.212749 
L 535.573498 -190.815915 
L 533.177196 -190.396294 
L 530.780894 -189.95932 
L 528.384592 -189.511476 
L 525.98829 -189.059927 
L 523.591988 -188.612082 
L 521.195686 -188.175109 
L 518.799384 -187.755487 
L 516.403082 -187.358653 
L 514.00678 -186.988769 
L 511.610478 -186.648631 
L 509.214176 -186.339712 
L 506.817874 -186.062299 
L 504.421572 -185.815695 
L 502.02527 -185.598449 
L 499.628968 -185.408583 
L 497.232666 -185.243797 
L 494.836364 -185.10164 
L 492.440062 -184.979642 
L 490.04376 -184.875412 
L 487.647458 -184.786703 
L 485.251156 -184.711449 
L 482.854854 -184.647785 
L 480.458552 -184.594052 
L 478.06225 -184.54879 
L 475.665948 -184.510728 
L 473.269646 -184.478764 
L 470.873344 -184.451954 
L 468.477042 -184.429488 
L 466.08074 -184.410678 
L 463.684438 -184.39494 
L 461.288136 -184.38178 
L 458.891834 -184.370781 
L 456.495532 -184.361591 
L 454.09923 -184.353917 
L 451.702928 -184.347509 
L 449.306626 -184.34216 
L 446.910324 -184.337696 
L 444.514022 -184.333971 
L 442.11772 -184.330863 
L 439.721418 -184.32827 
L 437.325116 -184.326107 
L 434.928814 -184.324303 
L 432.532512 -184.322799 
L 430.13621 -184.321544 
L 427.739908 -184.320498 
L 425.343606 -184.319625 
L 422.947304 -184.318898 
L 420.551002 -184.318291 
L 418.1547 -184.317785 
L 415.758398 -184.317363 
L 413.362096 -184.317011 
L 410.965794 -184.316718 
L 408.569492 -184.316473 
z
"/>
    </defs>
    <g clip-path="url(#p26e598f7b5)">
     <use xlink:href="#m8170d2cb6e" x="0" y="524.88" style="fill: #949494; fill-opacity: 0.2"/>
    </g>
   </g>
   <g id="FillBetweenPolyCollection_13">
    <defs>
     <path id="me741636fd7" d="M 408.569492 -471.202771 
L 408.569492 -184.318927 
L 410.965794 -184.31966 
L 413.362096 -184.32054 
L 415.758398 -184.321595 
L 418.1547 -184.322861 
L 420.551002 -184.324379 
L 422.947304 -184.326199 
L 425.343606 -184.328382 
L 427.739908 -184.331 
L 430.13621 -184.334139 
L 432.532512 -184.337903 
L 434.928814 -184.342417 
L 437.325116 -184.347828 
L 439.721418 -184.354317 
L 442.11772 -184.362095 
L 444.514022 -184.371418 
L 446.910324 -184.382594 
L 449.306626 -184.395986 
L 451.702928 -184.412033 
L 454.09923 -184.431256 
L 456.495532 -184.45428 
L 458.891834 -184.481848 
L 461.288136 -184.514846 
L 463.684438 -184.554326 
L 466.08074 -184.60154 
L 468.477042 -184.65797 
L 470.873344 -184.725367 
L 473.269646 -184.805799 
L 475.665948 -184.901689 
L 478.06225 -185.015877 
L 480.458552 -185.151661 
L 482.854854 -185.31286 
L 485.251156 -185.503852 
L 487.647458 -185.729616 
L 490.04376 -185.995744 
L 492.440062 -186.308433 
L 494.836364 -186.674427 
L 497.232666 -187.100898 
L 499.628968 -187.595256 
L 502.02527 -188.164854 
L 504.421572 -188.816593 
L 506.817874 -189.556404 
L 509.214176 -190.388643 
L 511.610478 -191.315399 
L 514.00678 -192.335813 
L 516.403082 -193.445467 
L 518.799384 -194.635968 
L 521.195686 -195.894833 
L 523.591988 -197.205753 
L 525.98829 -198.549287 
L 528.384592 -199.903933 
L 530.780894 -201.247468 
L 533.177196 -202.558388 
L 535.573498 -203.817252 
L 537.9698 -205.007754 
L 540.366102 -206.117407 
L 542.762404 -207.137821 
L 545.158706 -208.064578 
L 547.555008 -208.896816 
L 549.95131 -209.636628 
L 552.347612 -210.288366 
L 554.743914 -210.857964 
L 557.140216 -211.352322 
L 559.536518 -211.778794 
L 561.93282 -212.144788 
L 564.329122 -212.457477 
L 566.725424 -212.723605 
L 569.121726 -212.949368 
L 571.518028 -213.14036 
L 573.91433 -213.301559 
L 576.310632 -213.437344 
L 578.706934 -213.551531 
L 581.103236 -213.647422 
L 583.499538 -213.727853 
L 585.89584 -213.795251 
L 588.292142 -213.851681 
L 590.688444 -213.898895 
L 593.084746 -213.938375 
L 595.481048 -213.971372 
L 597.87735 -213.99894 
L 600.273652 -214.021964 
L 602.669954 -214.041188 
L 605.066256 -214.057235 
L 607.462558 -214.070627 
L 609.85886 -214.081802 
L 612.255162 -214.091126 
L 614.651464 -214.098904 
L 617.047766 -214.105392 
L 619.444068 -214.110804 
L 621.84037 -214.115317 
L 624.236672 -214.119082 
L 626.632974 -214.122221 
L 629.029276 -214.124839 
L 631.425578 -214.127021 
L 633.82188 -214.128842 
L 636.218182 -214.13036 
L 638.614484 -214.131625 
L 641.010786 -214.13268 
L 643.407088 -214.13356 
L 645.80339 -214.134294 
L 645.80339 -501.018138 
L 645.80339 -501.018138 
L 643.407088 -501.017405 
L 641.010786 -501.016525 
L 638.614484 -501.015469 
L 636.218182 -501.014204 
L 633.82188 -501.012686 
L 631.425578 -501.010866 
L 629.029276 -501.008683 
L 626.632974 -501.006065 
L 624.236672 -501.002926 
L 621.84037 -500.999162 
L 619.444068 -500.994648 
L 617.047766 -500.989236 
L 614.651464 -500.982748 
L 612.255162 -500.97497 
L 609.85886 -500.965646 
L 607.462558 -500.954471 
L 605.066256 -500.941079 
L 602.669954 -500.925032 
L 600.273652 -500.905808 
L 597.87735 -500.882784 
L 595.481048 -500.855217 
L 593.084746 -500.822219 
L 590.688444 -500.782739 
L 588.292142 -500.735525 
L 585.89584 -500.679095 
L 583.499538 -500.611698 
L 581.103236 -500.531266 
L 578.706934 -500.435376 
L 576.310632 -500.321188 
L 573.91433 -500.185404 
L 571.518028 -500.024205 
L 569.121726 -499.833213 
L 566.725424 -499.607449 
L 564.329122 -499.341321 
L 561.93282 -499.028632 
L 559.536518 -498.662638 
L 557.140216 -498.236167 
L 554.743914 -497.741809 
L 552.347612 -497.172211 
L 549.95131 -496.520472 
L 547.555008 -495.78066 
L 545.158706 -494.948422 
L 542.762404 -494.021665 
L 540.366102 -493.001252 
L 537.9698 -491.891598 
L 535.573498 -490.701097 
L 533.177196 -489.442232 
L 530.780894 -488.131312 
L 528.384592 -486.787777 
L 525.98829 -485.433132 
L 523.591988 -484.089597 
L 521.195686 -482.778677 
L 518.799384 -481.519813 
L 516.403082 -480.329311 
L 514.00678 -479.219658 
L 511.610478 -478.199244 
L 509.214176 -477.272487 
L 506.817874 -476.440249 
L 504.421572 -475.700437 
L 502.02527 -475.048699 
L 499.628968 -474.4791 
L 497.232666 -473.984743 
L 494.836364 -473.558271 
L 492.440062 -473.192277 
L 490.04376 -472.879588 
L 487.647458 -472.61346 
L 485.251156 -472.387697 
L 482.854854 -472.196704 
L 480.458552 -472.035506 
L 478.06225 -471.899721 
L 475.665948 -471.785534 
L 473.269646 -471.689643 
L 470.873344 -471.609212 
L 468.477042 -471.541814 
L 466.08074 -471.485384 
L 463.684438 -471.43817 
L 461.288136 -471.39869 
L 458.891834 -471.365693 
L 456.495532 -471.338125 
L 454.09923 -471.315101 
L 451.702928 -471.295877 
L 449.306626 -471.27983 
L 446.910324 -471.266438 
L 444.514022 -471.255263 
L 442.11772 -471.245939 
L 439.721418 -471.238161 
L 437.325116 -471.231673 
L 434.928814 -471.226261 
L 432.532512 -471.221747 
L 430.13621 -471.217983 
L 427.739908 -471.214844 
L 425.343606 -471.212226 
L 422.947304 -471.210043 
L 420.551002 -471.208223 
L 418.1547 -471.206705 
L 415.758398 -471.20544 
L 413.362096 -471.204384 
L 410.965794 -471.203505 
L 408.569492 -471.202771 
z
"/>
    </defs>
    <g clip-path="url(#p26e598f7b5)">
     <use xlink:href="#me741636fd7" x="0" y="524.88" style="fill: #406992; fill-opacity: 0.2"/>
    </g>
   </g>
   <g id="text_1">
    <text style="font-weight: 300; font-size: 16px; font-family: 'Source Sans 3', sans-serif; fill: #595959" transform="translate(14.302288 257.73225)">All Predictions</text>
    <text style="font-weight: 300; font-size: 16px; font-family: 'Source Sans 3', sans-serif; fill: #595959" transform="translate(70.012288 275.14775)">100%</text>
   </g>
   <g id="text_2">
    <text style="font-weight: 300; font-size: 16px; font-family: 'Source Sans 3', sans-serif; fill: #595959" transform="translate(251.910508 444.938785)">Drought Predicted</text>
    <text style="font-weight: 300; font-size: 16px; font-family: 'Source Sans 3', sans-serif; fill: #595959" transform="translate(330.278008 462.546785)">10.8%</text>
   </g>
   <g id="text_3">
    <text style="font-weight: 300; font-size: 16px; font-family: 'Source Sans 3', sans-serif; fill: #595959" transform="translate(230.085508 226.238785)">No Drought Predicted</text>
    <text style="font-weight: 300; font-size: 16px; font-family: 'Source Sans 3', sans-serif; fill: #595959" transform="translate(330.278008 243.846785)">89.2%</text>
   </g>
   <g id="text_4">
    <text style="font-weight: 300; font-size: 16px; font-family: 'Source Sans 3', sans-serif; fill: #595959" transform="translate(548.463729 485.761223)">Drought Obs.</text>
    <text style="font-weight: 300; font-size: 16px; font-family: 'Source Sans 3', sans-serif; fill: #595959" transform="translate(601.423729 503.369223)">5.3%</text>
   </g>
   <g id="text_5">
    <text style="font-weight: 300; font-size: 16px; font-family: 'Source Sans 3', sans-serif; fill: #595959" transform="translate(526.638729 444.423099)">No Drought Obs.</text>
    <text style="font-weight: 300; font-size: 16px; font-family: 'Source Sans 3', sans-serif; fill: #595959" transform="translate(601.423729 462.031099)">5.5%</text>
   </g>
   <g id="text_6">
    <text style="font-weight: 300; font-size: 16px; font-family: 'Source Sans 3', sans-serif; fill: #595959" transform="translate(548.463729 359.739798)">Drought Obs.</text>
    <text style="font-weight: 300; font-size: 16px; font-family: 'Source Sans 3', sans-serif; fill: #595959" transform="translate(593.871229 377.347798)">17.1%</text>
   </g>
   <g id="text_7">
    <text style="font-weight: 300; font-size: 16px; font-family: 'Source Sans 3', sans-serif; fill: #595959" transform="translate(526.638729 162.496104)">No Drought Obs.</text>
    <text style="font-weight: 300; font-size: 16px; font-family: 'Source Sans 3', sans-serif; fill: #595959" transform="translate(593.871229 180.104104)">72.1%</text>
   </g>
  </g>
 </g>
 <defs>
  <clipPath id="p26e598f7b5">
   <rect x="0" y="0" width="699.84" height="524.88"/>
  </clipPath>
 </defs>
</svg>
