<?xml version="1.0" encoding="utf-8" standalone="no"?>
<!DOCTYPE svg PUBLIC "-//W3C//DTD SVG 1.1//EN"
  "http://www.w3.org/Graphics/SVG/1.1/DTD/svg11.dtd">
<svg xmlns:xlink="http://www.w3.org/1999/xlink" width="399.6px" height="299.52px" viewBox="0 0 399.6 299.52" xmlns="http://www.w3.org/2000/svg" version="1.1">
  <defs>
  <style type="text/css">*{stroke-linejoin: round; stroke-linecap: butt}</style>
 </defs>
 <g id="figure-forecast_truefalse_key">
  <g id="patch_1">
   <path d="M 0 299.52 
L 399.6 299.52 
L 399.6 0 
L 0 0 
z
" style="fill: #ffffff"/>
  </g>
  <g id="axis-forecast_truefalse_key">
   <g id="FillBetweenPolyCollection_1">
    <defs>
     <path id="m346072dab5" d="M 77.684949 -45.291055 
L 77.684949 -272.200145 
L 92.284271 -272.200145 
L 92.284271 -45.291055 
L 92.284271 -45.291055 
L 77.684949 -45.291055 
z
"/>
    </defs>
    <g clip-path="url(#pdc197475b4)">
     <use xlink:href="#m346072dab5" x="0" y="299.52" style="fill: #00264c"/>
    </g>
   </g>
   <g id="tf-swoop-ND">
    <defs>
     <path id="m253ecd5186" d="M 92.284271 -272.200845 
L 92.284271 -70.390071 
L 93.611482 -70.39021 
L 94.938693 -70.390378 
L 96.265904 -70.390578 
L 97.593116 -70.390819 
L 98.920327 -70.391108 
L 100.247538 -70.391454 
L 101.574749 -70.391869 
L 102.90196 -70.392367 
L 104.229171 -70.392964 
L 105.556382 -70.39368 
L 106.883593 -70.394539 
L 108.210804 -70.395568 
L 109.538015 -70.396802 
L 110.865227 -70.398282 
L 112.192438 -70.400055 
L 113.519649 -70.402181 
L 114.84686 -70.404728 
L 116.174071 -70.407781 
L 117.501282 -70.411437 
L 118.828493 -70.415817 
L 120.155704 -70.421061 
L 121.482915 -70.427337 
L 122.810126 -70.434847 
L 124.137337 -70.443828 
L 125.464549 -70.454562 
L 126.79176 -70.467382 
L 128.118971 -70.482681 
L 129.446182 -70.500921 
L 130.773393 -70.522641 
L 132.100604 -70.548469 
L 133.427815 -70.579132 
L 134.755026 -70.615461 
L 136.082237 -70.658405 
L 137.409448 -70.709026 
L 138.736659 -70.768504 
L 140.063871 -70.838122 
L 141.391082 -70.919243 
L 142.718293 -71.013277 
L 144.045504 -71.121623 
L 145.372715 -71.245594 
L 146.699926 -71.386317 
L 148.027137 -71.544621 
L 149.354348 -71.720904 
L 150.681559 -71.915002 
L 152.00877 -72.126075 
L 153.335982 -72.352526 
L 154.663193 -72.591981 
L 155.990404 -72.841337 
L 157.317615 -73.096897 
L 158.644826 -73.354571 
L 159.972037 -73.610131 
L 161.299248 -73.859488 
L 162.626459 -74.098943 
L 163.95367 -74.325394 
L 165.280881 -74.536467 
L 166.608092 -74.730565 
L 167.935304 -74.906847 
L 169.262515 -75.065152 
L 170.589726 -75.205875 
L 171.916937 -75.329845 
L 173.244148 -75.438191 
L 174.571359 -75.532225 
L 175.89857 -75.613347 
L 177.225781 -75.682964 
L 178.552992 -75.742442 
L 179.880203 -75.793064 
L 181.207414 -75.836007 
L 182.534626 -75.872337 
L 183.861837 -75.902999 
L 185.189048 -75.928828 
L 186.516259 -75.950548 
L 187.84347 -75.968788 
L 189.170681 -75.984087 
L 190.497892 -75.996907 
L 191.825103 -76.007641 
L 193.152314 -76.016621 
L 194.479525 -76.024131 
L 195.806737 -76.030408 
L 197.133948 -76.035652 
L 198.461159 -76.040031 
L 199.78837 -76.043688 
L 201.115581 -76.04674 
L 202.442792 -76.049288 
L 203.770003 -76.051413 
L 205.097214 -76.053187 
L 206.424425 -76.054666 
L 207.751636 -76.0559 
L 209.078847 -76.05693 
L 210.406059 -76.057788 
L 211.73327 -76.058504 
L 213.060481 -76.059101 
L 214.387692 -76.059599 
L 215.714903 -76.060015 
L 217.042114 -76.060361 
L 218.369325 -76.06065 
L 219.696536 -76.06089 
L 221.023747 -76.061091 
L 222.350958 -76.061258 
L 223.678169 -76.061398 
L 223.678169 -277.872173 
L 223.678169 -277.872173 
L 222.350958 -277.872033 
L 221.023747 -277.871866 
L 219.696536 -277.871665 
L 218.369325 -277.871424 
L 217.042114 -277.871136 
L 215.714903 -277.870789 
L 214.387692 -277.870374 
L 213.060481 -277.869876 
L 211.73327 -277.869279 
L 210.406059 -277.868563 
L 209.078847 -277.867705 
L 207.751636 -277.866675 
L 206.424425 -277.865441 
L 205.097214 -277.863962 
L 203.770003 -277.862188 
L 202.442792 -277.860062 
L 201.115581 -277.857515 
L 199.78837 -277.854463 
L 198.461159 -277.850806 
L 197.133948 -277.846426 
L 195.806737 -277.841183 
L 194.479525 -277.834906 
L 193.152314 -277.827396 
L 191.825103 -277.818416 
L 190.497892 -277.807682 
L 189.170681 -277.794862 
L 187.84347 -277.779562 
L 186.516259 -277.761323 
L 185.189048 -277.739602 
L 183.861837 -277.713774 
L 182.534626 -277.683112 
L 181.207414 -277.646782 
L 179.880203 -277.603839 
L 178.552992 -277.553217 
L 177.225781 -277.493739 
L 175.89857 -277.424122 
L 174.571359 -277.343 
L 173.244148 -277.248966 
L 171.916937 -277.14062 
L 170.589726 -277.01665 
L 169.262515 -276.875926 
L 167.935304 -276.717622 
L 166.608092 -276.541339 
L 165.280881 -276.347241 
L 163.95367 -276.136169 
L 162.626459 -275.909718 
L 161.299248 -275.670263 
L 159.972037 -275.420906 
L 158.644826 -275.165346 
L 157.317615 -274.907672 
L 155.990404 -274.652112 
L 154.663193 -274.402755 
L 153.335982 -274.163301 
L 152.00877 -273.936849 
L 150.681559 -273.725777 
L 149.354348 -273.531679 
L 148.027137 -273.355396 
L 146.699926 -273.197092 
L 145.372715 -273.056369 
L 144.045504 -272.932398 
L 142.718293 -272.824052 
L 141.391082 -272.730018 
L 140.063871 -272.648897 
L 138.736659 -272.579279 
L 137.409448 -272.519801 
L 136.082237 -272.469179 
L 134.755026 -272.426236 
L 133.427815 -272.389906 
L 132.100604 -272.359244 
L 130.773393 -272.333416 
L 129.446182 -272.311696 
L 128.118971 -272.293456 
L 126.79176 -272.278157 
L 125.464549 -272.265336 
L 124.137337 -272.254603 
L 122.810126 -272.245622 
L 121.482915 -272.238112 
L 120.155704 -272.231836 
L 118.828493 -272.226592 
L 117.501282 -272.222212 
L 116.174071 -272.218556 
L 114.84686 -272.215503 
L 113.519649 -272.212956 
L 112.192438 -272.21083 
L 110.865227 -272.209057 
L 109.538015 -272.207577 
L 108.210804 -272.206343 
L 106.883593 -272.205314 
L 105.556382 -272.204455 
L 104.229171 -272.203739 
L 102.90196 -272.203142 
L 101.574749 -272.202644 
L 100.247538 -272.202229 
L 98.920327 -272.201883 
L 97.593116 -272.201594 
L 96.265904 -272.201353 
L 94.938693 -272.201152 
L 93.611482 -272.200985 
L 92.284271 -272.200845 
z
"/>
    </defs>
    <g clip-path="url(#pdc197475b4)">
     <use xlink:href="#m253ecd5186" x="0" y="299.52" style="fill: #406992; fill-opacity: 0.05"/>
    </g>
   </g>
   <g id="tf-swoop-YD">
    <defs>
     <path id="m19e8014757" d="M 92.284271 -45.290355 
L 92.284271 -70.388671 
L 93.611482 -70.388531 
L 94.938693 -70.388364 
L 96.265904 -70.388163 
L 97.593116 -70.387922 
L 98.920327 -70.387634 
L 100.247538 -70.387287 
L 101.574749 -70.386872 
L 102.90196 -70.386374 
L 104.229171 -70.385777 
L 105.556382 -70.385061 
L 106.883593 -70.384203 
L 108.210804 -70.383173 
L 109.538015 -70.381939 
L 110.865227 -70.380459 
L 112.192438 -70.378686 
L 113.519649 -70.37656 
L 114.84686 -70.374013 
L 116.174071 -70.370961 
L 117.501282 -70.367304 
L 118.828493 -70.362924 
L 120.155704 -70.357681 
L 121.482915 -70.351404 
L 122.810126 -70.343894 
L 124.137337 -70.334913 
L 125.464549 -70.32418 
L 126.79176 -70.31136 
L 128.118971 -70.29606 
L 129.446182 -70.277821 
L 130.773393 -70.2561 
L 132.100604 -70.230272 
L 133.427815 -70.19961 
L 134.755026 -70.16328 
L 136.082237 -70.120337 
L 137.409448 -70.069715 
L 138.736659 -70.010237 
L 140.063871 -69.940619 
L 141.391082 -69.859498 
L 142.718293 -69.765464 
L 144.045504 -69.657118 
L 145.372715 -69.533148 
L 146.699926 -69.392424 
L 148.027137 -69.23412 
L 149.354348 -69.057837 
L 150.681559 -68.863739 
L 152.00877 -68.652667 
L 153.335982 -68.426216 
L 154.663193 -68.186761 
L 155.990404 -67.937404 
L 157.317615 -67.681844 
L 158.644826 -67.42417 
L 159.972037 -67.16861 
L 161.299248 -66.919253 
L 162.626459 -66.679798 
L 163.95367 -66.453347 
L 165.280881 -66.242275 
L 166.608092 -66.048177 
L 167.935304 -65.871894 
L 169.262515 -65.71359 
L 170.589726 -65.572866 
L 171.916937 -65.448896 
L 173.244148 -65.34055 
L 174.571359 -65.246516 
L 175.89857 -65.165395 
L 177.225781 -65.095777 
L 178.552992 -65.036299 
L 179.880203 -64.985677 
L 181.207414 -64.942734 
L 182.534626 -64.906404 
L 183.861837 -64.875742 
L 185.189048 -64.849914 
L 186.516259 -64.828194 
L 187.84347 -64.809954 
L 189.170681 -64.794654 
L 190.497892 -64.781834 
L 191.825103 -64.771101 
L 193.152314 -64.76212 
L 194.479525 -64.75461 
L 195.806737 -64.748334 
L 197.133948 -64.74309 
L 198.461159 -64.73871 
L 199.78837 -64.735054 
L 201.115581 -64.732001 
L 202.442792 -64.729454 
L 203.770003 -64.727328 
L 205.097214 -64.725555 
L 206.424425 -64.724075 
L 207.751636 -64.722841 
L 209.078847 -64.721812 
L 210.406059 -64.720953 
L 211.73327 -64.720237 
L 213.060481 -64.71964 
L 214.387692 -64.719142 
L 215.714903 -64.718727 
L 217.042114 -64.71838 
L 218.369325 -64.718092 
L 219.696536 -64.717851 
L 221.023747 -64.71765 
L 222.350958 -64.717483 
L 223.678169 -64.717343 
L 223.678169 -39.619027 
L 223.678169 -39.619027 
L 222.350958 -39.619167 
L 221.023747 -39.619334 
L 219.696536 -39.619535 
L 218.369325 -39.619776 
L 217.042114 -39.620064 
L 215.714903 -39.620411 
L 214.387692 -39.620826 
L 213.060481 -39.621324 
L 211.73327 -39.621921 
L 210.406059 -39.622637 
L 209.078847 -39.623495 
L 207.751636 -39.624525 
L 206.424425 -39.625759 
L 205.097214 -39.627238 
L 203.770003 -39.629012 
L 202.442792 -39.631138 
L 201.115581 -39.633685 
L 199.78837 -39.636737 
L 198.461159 -39.640394 
L 197.133948 -39.644774 
L 195.806737 -39.650017 
L 194.479525 -39.656294 
L 193.152314 -39.663804 
L 191.825103 -39.672784 
L 190.497892 -39.683518 
L 189.170681 -39.696338 
L 187.84347 -39.711638 
L 186.516259 -39.729877 
L 185.189048 -39.751598 
L 183.861837 -39.777426 
L 182.534626 -39.808088 
L 181.207414 -39.844418 
L 179.880203 -39.887361 
L 178.552992 -39.937983 
L 177.225781 -39.997461 
L 175.89857 -40.067078 
L 174.571359 -40.1482 
L 173.244148 -40.242234 
L 171.916937 -40.35058 
L 170.589726 -40.47455 
L 169.262515 -40.615274 
L 167.935304 -40.773578 
L 166.608092 -40.949861 
L 165.280881 -41.143959 
L 163.95367 -41.355031 
L 162.626459 -41.581482 
L 161.299248 -41.820937 
L 159.972037 -42.070294 
L 158.644826 -42.325854 
L 157.317615 -42.583528 
L 155.990404 -42.839088 
L 154.663193 -43.088445 
L 153.335982 -43.327899 
L 152.00877 -43.554351 
L 150.681559 -43.765423 
L 149.354348 -43.959521 
L 148.027137 -44.135804 
L 146.699926 -44.294108 
L 145.372715 -44.434831 
L 144.045504 -44.558802 
L 142.718293 -44.667148 
L 141.391082 -44.761182 
L 140.063871 -44.842303 
L 138.736659 -44.911921 
L 137.409448 -44.971399 
L 136.082237 -45.022021 
L 134.755026 -45.064964 
L 133.427815 -45.101294 
L 132.100604 -45.131956 
L 130.773393 -45.157784 
L 129.446182 -45.179504 
L 128.118971 -45.197744 
L 126.79176 -45.213043 
L 125.464549 -45.225864 
L 124.137337 -45.236597 
L 122.810126 -45.245578 
L 121.482915 -45.253088 
L 120.155704 -45.259364 
L 118.828493 -45.264608 
L 117.501282 -45.268988 
L 116.174071 -45.272644 
L 114.84686 -45.275697 
L 113.519649 -45.278244 
L 112.192438 -45.28037 
L 110.865227 -45.282143 
L 109.538015 -45.283623 
L 108.210804 -45.284857 
L 106.883593 -45.285886 
L 105.556382 -45.286745 
L 104.229171 -45.287461 
L 102.90196 -45.288058 
L 101.574749 -45.288556 
L 100.247538 -45.288971 
L 98.920327 -45.289317 
L 97.593116 -45.289606 
L 96.265904 -45.289847 
L 94.938693 -45.290048 
L 93.611482 -45.290215 
L 92.284271 -45.290355 
z
"/>
    </defs>
    <g clip-path="url(#pdc197475b4)">
     <use xlink:href="#m19e8014757" x="0" y="299.52" style="fill: #b78935; fill-opacity: 0.05"/>
    </g>
   </g>
   <g id="tf-bar-ND">
    <defs>
     <path id="ma17c036557" d="M 223.678169 -76.062098 
L 223.678169 -277.872873 
L 238.277492 -277.872873 
L 238.277492 -76.062098 
L 238.277492 -76.062098 
L 223.678169 -76.062098 
z
"/>
    </defs>
    <g clip-path="url(#pdc197475b4)">
     <use xlink:href="#ma17c036557" x="0" y="299.52" style="fill: #406992; fill-opacity: 0.25"/>
    </g>
   </g>
   <g id="tf-bar-YD">
    <defs>
     <path id="m5d43ea1a64" d="M 223.678169 -39.618327 
L 223.678169 -64.716643 
L 238.277492 -64.716643 
L 238.277492 -39.618327 
L 238.277492 -39.618327 
L 223.678169 -39.618327 
z
"/>
    </defs>
    <g clip-path="url(#pdc197475b4)">
     <use xlink:href="#m5d43ea1a64" x="0" y="299.52" style="fill: #b78935; fill-opacity: 0.25"/>
    </g>
   </g>
   <g id="tf-swoop-YD-ND">
    <defs>
     <path id="mfff3d8b7dc" d="M 238.277492 -58.118801 
L 238.277492 -64.715943 
L 239.604703 -64.715804 
L 240.931914 -64.715636 
L 242.259125 -64.715436 
L 243.586336 -64.715195 
L 244.913547 -64.714906 
L 246.240758 -64.71456 
L 247.567969 -64.714145 
L 248.89518 -64.713647 
L 250.222391 -64.71305 
L 251.549602 -64.712334 
L 252.876814 -64.711475 
L 254.204025 -64.710446 
L 255.531236 -64.709212 
L 256.858447 -64.707732 
L 258.185658 -64.705959 
L 259.512869 -64.703833 
L 260.84008 -64.701286 
L 262.167291 -64.698233 
L 263.494502 -64.694577 
L 264.821713 -64.690197 
L 266.148924 -64.684953 
L 267.476136 -64.678677 
L 268.803347 -64.671167 
L 270.130558 -64.662186 
L 271.457769 -64.651452 
L 272.78498 -64.638632 
L 274.112191 -64.623333 
L 275.439402 -64.605093 
L 276.766613 -64.583373 
L 278.093824 -64.557545 
L 279.421035 -64.526882 
L 280.748247 -64.490553 
L 282.075458 -64.447609 
L 283.402669 -64.396988 
L 284.72988 -64.33751 
L 286.057091 -64.267892 
L 287.384302 -64.186771 
L 288.711513 -64.092737 
L 290.038724 -63.984391 
L 291.365935 -63.86042 
L 292.693146 -63.719697 
L 294.020357 -63.561393 
L 295.347569 -63.38511 
L 296.67478 -63.191012 
L 298.001991 -62.979939 
L 299.329202 -62.753488 
L 300.656413 -62.514033 
L 301.983624 -62.264677 
L 303.310835 -62.009117 
L 304.638046 -61.751443 
L 305.965257 -61.495883 
L 307.292468 -61.246526 
L 308.61968 -61.007071 
L 309.946891 -60.78062 
L 311.274102 -60.569547 
L 312.601313 -60.37545 
L 313.928524 -60.199167 
L 315.255735 -60.040862 
L 316.582946 -59.900139 
L 317.910157 -59.776169 
L 319.237368 -59.667823 
L 320.564579 -59.573789 
L 321.89179 -59.492667 
L 323.219002 -59.42305 
L 324.546213 -59.363572 
L 325.873424 -59.31295 
L 327.200635 -59.270007 
L 328.527846 -59.233677 
L 329.855057 -59.203015 
L 331.182268 -59.177186 
L 332.509479 -59.155466 
L 333.83669 -59.137226 
L 335.163901 -59.121927 
L 336.491112 -59.109107 
L 337.818324 -59.098373 
L 339.145535 -59.089393 
L 340.472746 -59.081883 
L 341.799957 -59.075606 
L 343.127168 -59.070362 
L 344.454379 -59.065983 
L 345.78159 -59.062326 
L 347.108801 -59.059274 
L 348.436012 -59.056726 
L 349.763223 -59.054601 
L 351.090435 -59.052827 
L 352.417646 -59.051348 
L 353.744857 -59.050114 
L 355.072068 -59.049084 
L 356.399279 -59.048226 
L 357.72649 -59.04751 
L 359.053701 -59.046913 
L 360.380912 -59.046415 
L 361.708123 -59.045999 
L 363.035334 -59.045653 
L 364.362545 -59.045364 
L 365.689757 -59.045124 
L 367.016968 -59.044923 
L 368.344179 -59.044756 
L 369.67139 -59.044616 
L 369.67139 -52.447474 
L 369.67139 -52.447474 
L 368.344179 -52.447613 
L 367.016968 -52.447781 
L 365.689757 -52.447981 
L 364.362545 -52.448222 
L 363.035334 -52.448511 
L 361.708123 -52.448857 
L 360.380912 -52.449272 
L 359.053701 -52.44977 
L 357.72649 -52.450367 
L 356.399279 -52.451083 
L 355.072068 -52.451942 
L 353.744857 -52.452971 
L 352.417646 -52.454205 
L 351.090435 -52.455685 
L 349.763223 -52.457458 
L 348.436012 -52.459584 
L 347.108801 -52.462132 
L 345.78159 -52.465184 
L 344.454379 -52.46884 
L 343.127168 -52.47322 
L 341.799957 -52.478464 
L 340.472746 -52.48474 
L 339.145535 -52.49225 
L 337.818324 -52.501231 
L 336.491112 -52.511965 
L 335.163901 -52.524785 
L 333.83669 -52.540084 
L 332.509479 -52.558324 
L 331.182268 -52.580044 
L 329.855057 -52.605872 
L 328.527846 -52.636535 
L 327.200635 -52.672864 
L 325.873424 -52.715808 
L 324.546213 -52.766429 
L 323.219002 -52.825907 
L 321.89179 -52.895525 
L 320.564579 -52.976646 
L 319.237368 -53.07068 
L 317.910157 -53.179026 
L 316.582946 -53.302997 
L 315.255735 -53.44372 
L 313.928524 -53.602024 
L 312.601313 -53.778307 
L 311.274102 -53.972405 
L 309.946891 -54.183478 
L 308.61968 -54.409929 
L 307.292468 -54.649384 
L 305.965257 -54.89874 
L 304.638046 -55.1543 
L 303.310835 -55.411974 
L 301.983624 -55.667535 
L 300.656413 -55.916891 
L 299.329202 -56.156346 
L 298.001991 -56.382797 
L 296.67478 -56.59387 
L 295.347569 -56.787968 
L 294.020357 -56.96425 
L 292.693146 -57.122555 
L 291.365935 -57.263278 
L 290.038724 -57.387248 
L 288.711513 -57.495594 
L 287.384302 -57.589629 
L 286.057091 -57.67075 
L 284.72988 -57.740367 
L 283.402669 -57.799845 
L 282.075458 -57.850467 
L 280.748247 -57.89341 
L 279.421035 -57.92974 
L 278.093824 -57.960402 
L 276.766613 -57.986231 
L 275.439402 -58.007951 
L 274.112191 -58.026191 
L 272.78498 -58.04149 
L 271.457769 -58.05431 
L 270.130558 -58.065044 
L 268.803347 -58.074025 
L 267.476136 -58.081534 
L 266.148924 -58.087811 
L 264.821713 -58.093055 
L 263.494502 -58.097434 
L 262.167291 -58.101091 
L 260.84008 -58.104143 
L 259.512869 -58.106691 
L 258.185658 -58.108816 
L 256.858447 -58.11059 
L 255.531236 -58.112069 
L 254.204025 -58.113303 
L 252.876814 -58.114333 
L 251.549602 -58.115191 
L 250.222391 -58.115907 
L 248.89518 -58.116504 
L 247.567969 -58.117002 
L 246.240758 -58.117418 
L 244.913547 -58.117764 
L 243.586336 -58.118053 
L 242.259125 -58.118293 
L 240.931914 -58.118494 
L 239.604703 -58.118661 
L 238.277492 -58.118801 
z
"/>
    </defs>
    <g clip-path="url(#pdc197475b4)">
     <use xlink:href="#mfff3d8b7dc" x="0" y="299.52" style="fill: #dbc49a; fill-opacity: 0.05"/>
    </g>
   </g>
   <g id="tf-swoop-YD-YD">
    <defs>
     <path id="m42758c544c" d="M 238.277492 -39.616227 
L 238.277492 -58.117401 
L 239.604703 -58.116982 
L 240.931914 -58.11648 
L 242.259125 -58.115878 
L 243.586336 -58.115156 
L 244.913547 -58.11429 
L 246.240758 -58.113251 
L 247.567969 -58.112005 
L 248.89518 -58.110512 
L 250.222391 -58.10872 
L 251.549602 -58.106572 
L 252.876814 -58.103997 
L 254.204025 -58.100908 
L 255.531236 -58.097206 
L 256.858447 -58.092767 
L 258.185658 -58.087447 
L 259.512869 -58.08107 
L 260.84008 -58.073428 
L 262.167291 -58.064271 
L 263.494502 -58.053301 
L 264.821713 -58.040162 
L 266.148924 -58.024431 
L 267.476136 -58.005601 
L 268.803347 -57.983072 
L 270.130558 -57.956129 
L 271.457769 -57.923928 
L 272.78498 -57.885468 
L 274.112191 -57.83957 
L 275.439402 -57.784851 
L 276.766613 -57.71969 
L 278.093824 -57.642205 
L 279.421035 -57.550218 
L 280.748247 -57.441229 
L 282.075458 -57.312399 
L 283.402669 -57.160534 
L 284.72988 -56.9821 
L 286.057091 -56.773247 
L 287.384302 -56.529884 
L 288.711513 -56.247781 
L 290.038724 -55.922743 
L 291.365935 -55.550832 
L 292.693146 -55.128662 
L 294.020357 -54.653749 
L 295.347569 -54.124901 
L 296.67478 -53.542607 
L 298.001991 -52.909389 
L 299.329202 -52.230036 
L 300.656413 -51.511671 
L 301.983624 -50.763602 
L 303.310835 -49.996921 
L 304.638046 -49.223899 
L 305.965257 -48.457219 
L 307.292468 -47.709149 
L 308.61968 -46.990784 
L 309.946891 -46.311431 
L 311.274102 -45.678213 
L 312.601313 -45.095919 
L 313.928524 -44.567071 
L 315.255735 -44.092158 
L 316.582946 -43.669988 
L 317.910157 -43.298077 
L 319.237368 -42.973039 
L 320.564579 -42.690937 
L 321.89179 -42.447573 
L 323.219002 -42.23872 
L 324.546213 -42.060286 
L 325.873424 -41.908421 
L 327.200635 -41.779591 
L 328.527846 -41.670602 
L 329.855057 -41.578615 
L 331.182268 -41.50113 
L 332.509479 -41.43597 
L 333.83669 -41.38125 
L 335.163901 -41.335352 
L 336.491112 -41.296892 
L 337.818324 -41.264691 
L 339.145535 -41.237749 
L 340.472746 -41.215219 
L 341.799957 -41.19639 
L 343.127168 -41.180658 
L 344.454379 -41.16752 
L 345.78159 -41.15655 
L 347.108801 -41.147393 
L 348.436012 -41.13975 
L 349.763223 -41.133373 
L 351.090435 -41.128053 
L 352.417646 -41.123614 
L 353.744857 -41.119912 
L 355.072068 -41.116824 
L 356.399279 -41.114248 
L 357.72649 -41.1121 
L 359.053701 -41.110309 
L 360.380912 -41.108815 
L 361.708123 -41.107569 
L 363.035334 -41.10653 
L 364.362545 -41.105664 
L 365.689757 -41.104942 
L 367.016968 -41.10434 
L 368.344179 -41.103838 
L 369.67139 -41.103419 
L 369.67139 -22.602245 
L 369.67139 -22.602245 
L 368.344179 -22.602664 
L 367.016968 -22.603166 
L 365.689757 -22.603768 
L 364.362545 -22.604491 
L 363.035334 -22.605357 
L 361.708123 -22.606395 
L 360.380912 -22.607641 
L 359.053701 -22.609135 
L 357.72649 -22.610926 
L 356.399279 -22.613074 
L 355.072068 -22.61565 
L 353.744857 -22.618738 
L 352.417646 -22.62244 
L 351.090435 -22.626879 
L 349.763223 -22.6322 
L 348.436012 -22.638577 
L 347.108801 -22.646219 
L 345.78159 -22.655376 
L 344.454379 -22.666346 
L 343.127168 -22.679484 
L 341.799957 -22.695216 
L 340.472746 -22.714046 
L 339.145535 -22.736575 
L 337.818324 -22.763517 
L 336.491112 -22.795718 
L 335.163901 -22.834179 
L 333.83669 -22.880076 
L 332.509479 -22.934796 
L 331.182268 -22.999956 
L 329.855057 -23.077441 
L 328.527846 -23.169428 
L 327.200635 -23.278417 
L 325.873424 -23.407248 
L 324.546213 -23.559112 
L 323.219002 -23.737547 
L 321.89179 -23.946399 
L 320.564579 -24.189763 
L 319.237368 -24.471866 
L 317.910157 -24.796904 
L 316.582946 -25.168815 
L 315.255735 -25.590984 
L 313.928524 -26.065897 
L 312.601313 -26.594746 
L 311.274102 -27.177039 
L 309.946891 -27.810257 
L 308.61968 -28.489611 
L 307.292468 -29.207975 
L 305.965257 -29.956045 
L 304.638046 -30.722726 
L 303.310835 -31.495747 
L 301.983624 -32.262428 
L 300.656413 -33.010498 
L 299.329202 -33.728862 
L 298.001991 -34.408215 
L 296.67478 -35.041433 
L 295.347569 -35.623727 
L 294.020357 -36.152576 
L 292.693146 -36.627488 
L 291.365935 -37.049658 
L 290.038724 -37.421569 
L 288.711513 -37.746607 
L 287.384302 -38.02871 
L 286.057091 -38.272074 
L 284.72988 -38.480926 
L 283.402669 -38.659361 
L 282.075458 -38.811225 
L 280.748247 -38.940056 
L 279.421035 -39.049044 
L 278.093824 -39.141032 
L 276.766613 -39.218517 
L 275.439402 -39.283677 
L 274.112191 -39.338396 
L 272.78498 -39.384294 
L 271.457769 -39.422754 
L 270.130558 -39.454956 
L 268.803347 -39.481898 
L 267.476136 -39.504427 
L 266.148924 -39.523257 
L 264.821713 -39.538988 
L 263.494502 -39.552127 
L 262.167291 -39.563097 
L 260.84008 -39.572254 
L 259.512869 -39.579896 
L 258.185658 -39.586273 
L 256.858447 -39.591594 
L 255.531236 -39.596032 
L 254.204025 -39.599735 
L 252.876814 -39.602823 
L 251.549602 -39.605398 
L 250.222391 -39.607546 
L 248.89518 -39.609338 
L 247.567969 -39.610832 
L 246.240758 -39.612077 
L 244.913547 -39.613116 
L 243.586336 -39.613982 
L 242.259125 -39.614704 
L 240.931914 -39.615307 
L 239.604703 -39.615809 
L 238.277492 -39.616227 
z
"/>
    </defs>
    <g clip-path="url(#pdc197475b4)">
     <use xlink:href="#m42758c544c" x="0" y="299.52" style="fill: #b78935; fill-opacity: 0.05"/>
    </g>
   </g>
   <g id="tf-swoop-ND-YD">
    <defs>
     <path id="m930bb2aab2" d="M 238.277492 -83.515299 
L 238.277492 -76.062798 
L 239.604703 -76.062937 
L 240.931914 -76.063105 
L 242.259125 -76.063306 
L 243.586336 -76.063546 
L 244.913547 -76.063835 
L 246.240758 -76.064181 
L 247.567969 -76.064596 
L 248.89518 -76.065094 
L 250.222391 -76.065692 
L 251.549602 -76.066408 
L 252.876814 -76.067266 
L 254.204025 -76.068295 
L 255.531236 -76.06953 
L 256.858447 -76.071009 
L 258.185658 -76.072783 
L 259.512869 -76.074908 
L 260.84008 -76.077456 
L 262.167291 -76.080508 
L 263.494502 -76.084165 
L 264.821713 -76.088544 
L 266.148924 -76.093788 
L 267.476136 -76.100065 
L 268.803347 -76.107574 
L 270.130558 -76.116555 
L 271.457769 -76.127289 
L 272.78498 -76.140109 
L 274.112191 -76.155408 
L 275.439402 -76.173648 
L 276.766613 -76.195368 
L 278.093824 -76.221196 
L 279.421035 -76.251859 
L 280.748247 -76.288188 
L 282.075458 -76.331132 
L 283.402669 -76.381753 
L 284.72988 -76.441232 
L 286.057091 -76.510849 
L 287.384302 -76.59197 
L 288.711513 -76.686005 
L 290.038724 -76.794351 
L 291.365935 -76.918321 
L 292.693146 -77.059044 
L 294.020357 -77.217348 
L 295.347569 -77.393631 
L 296.67478 -77.587729 
L 298.001991 -77.798802 
L 299.329202 -78.025253 
L 300.656413 -78.264708 
L 301.983624 -78.514064 
L 303.310835 -78.769625 
L 304.638046 -79.027298 
L 305.965257 -79.282859 
L 307.292468 -79.532215 
L 308.61968 -79.77167 
L 309.946891 -79.998121 
L 311.274102 -80.209194 
L 312.601313 -80.403292 
L 313.928524 -80.579575 
L 315.255735 -80.737879 
L 316.582946 -80.878602 
L 317.910157 -81.002572 
L 319.237368 -81.110918 
L 320.564579 -81.204953 
L 321.89179 -81.286074 
L 323.219002 -81.355691 
L 324.546213 -81.41517 
L 325.873424 -81.465791 
L 327.200635 -81.508735 
L 328.527846 -81.545064 
L 329.855057 -81.575727 
L 331.182268 -81.601555 
L 332.509479 -81.623275 
L 333.83669 -81.641515 
L 335.163901 -81.656814 
L 336.491112 -81.669634 
L 337.818324 -81.680368 
L 339.145535 -81.689349 
L 340.472746 -81.696858 
L 341.799957 -81.703135 
L 343.127168 -81.708379 
L 344.454379 -81.712758 
L 345.78159 -81.716415 
L 347.108801 -81.719467 
L 348.436012 -81.722015 
L 349.763223 -81.72414 
L 351.090435 -81.725914 
L 352.417646 -81.727394 
L 353.744857 -81.728628 
L 355.072068 -81.729657 
L 356.399279 -81.730516 
L 357.72649 -81.731232 
L 359.053701 -81.731829 
L 360.380912 -81.732327 
L 361.708123 -81.732742 
L 363.035334 -81.733088 
L 364.362545 -81.733377 
L 365.689757 -81.733618 
L 367.016968 -81.733818 
L 368.344179 -81.733986 
L 369.67139 -81.734125 
L 369.67139 -89.186626 
L 369.67139 -89.186626 
L 368.344179 -89.186487 
L 367.016968 -89.186319 
L 365.689757 -89.186118 
L 364.362545 -89.185878 
L 363.035334 -89.185589 
L 361.708123 -89.185243 
L 360.380912 -89.184828 
L 359.053701 -89.18433 
L 357.72649 -89.183732 
L 356.399279 -89.183016 
L 355.072068 -89.182158 
L 353.744857 -89.181129 
L 352.417646 -89.179894 
L 351.090435 -89.178415 
L 349.763223 -89.176641 
L 348.436012 -89.174516 
L 347.108801 -89.171968 
L 345.78159 -89.168916 
L 344.454379 -89.165259 
L 343.127168 -89.16088 
L 341.799957 -89.155636 
L 340.472746 -89.149359 
L 339.145535 -89.14185 
L 337.818324 -89.132869 
L 336.491112 -89.122135 
L 335.163901 -89.109315 
L 333.83669 -89.094016 
L 332.509479 -89.075776 
L 331.182268 -89.054056 
L 329.855057 -89.028228 
L 328.527846 -88.997565 
L 327.200635 -88.961236 
L 325.873424 -88.918292 
L 324.546213 -88.867671 
L 323.219002 -88.808192 
L 321.89179 -88.738575 
L 320.564579 -88.657454 
L 319.237368 -88.563419 
L 317.910157 -88.455073 
L 316.582946 -88.331103 
L 315.255735 -88.19038 
L 313.928524 -88.032076 
L 312.601313 -87.855793 
L 311.274102 -87.661695 
L 309.946891 -87.450622 
L 308.61968 -87.224171 
L 307.292468 -86.984716 
L 305.965257 -86.73536 
L 304.638046 -86.479799 
L 303.310835 -86.222126 
L 301.983624 -85.966565 
L 300.656413 -85.717209 
L 299.329202 -85.477754 
L 298.001991 -85.251303 
L 296.67478 -85.04023 
L 295.347569 -84.846132 
L 294.020357 -84.669849 
L 292.693146 -84.511545 
L 291.365935 -84.370822 
L 290.038724 -84.246852 
L 288.711513 -84.138506 
L 287.384302 -84.044471 
L 286.057091 -83.96335 
L 284.72988 -83.893733 
L 283.402669 -83.834254 
L 282.075458 -83.783633 
L 280.748247 -83.740689 
L 279.421035 -83.70436 
L 278.093824 -83.673697 
L 276.766613 -83.647869 
L 275.439402 -83.626149 
L 274.112191 -83.607909 
L 272.78498 -83.59261 
L 271.457769 -83.57979 
L 270.130558 -83.569056 
L 268.803347 -83.560075 
L 267.476136 -83.552566 
L 266.148924 -83.546289 
L 264.821713 -83.541045 
L 263.494502 -83.536666 
L 262.167291 -83.533009 
L 260.84008 -83.529957 
L 259.512869 -83.527409 
L 258.185658 -83.525283 
L 256.858447 -83.52351 
L 255.531236 -83.52203 
L 254.204025 -83.520796 
L 252.876814 -83.519767 
L 251.549602 -83.518908 
L 250.222391 -83.518192 
L 248.89518 -83.517595 
L 247.567969 -83.517097 
L 246.240758 -83.516682 
L 244.913547 -83.516336 
L 243.586336 -83.516047 
L 242.259125 -83.515806 
L 240.931914 -83.515606 
L 239.604703 -83.515438 
L 238.277492 -83.515299 
z
"/>
    </defs>
    <g clip-path="url(#pdc197475b4)">
     <use xlink:href="#m930bb2aab2" x="0" y="299.52" style="fill: #9fb4c8; fill-opacity: 0.05"/>
    </g>
   </g>
   <g id="tf-swoop-ND-ND">
    <defs>
     <path id="mba15b5bd78" d="M 238.277492 -277.874973 
L 238.277492 -83.516699 
L 239.604703 -83.517117 
L 240.931914 -83.51762 
L 242.259125 -83.518222 
L 243.586336 -83.518944 
L 244.913547 -83.51981 
L 246.240758 -83.520849 
L 247.567969 -83.522094 
L 248.89518 -83.523588 
L 250.222391 -83.52538 
L 251.549602 -83.527528 
L 252.876814 -83.530103 
L 254.204025 -83.533191 
L 255.531236 -83.536894 
L 256.858447 -83.541332 
L 258.185658 -83.546653 
L 259.512869 -83.55303 
L 260.84008 -83.560672 
L 262.167291 -83.569829 
L 263.494502 -83.580799 
L 264.821713 -83.593938 
L 266.148924 -83.609669 
L 267.476136 -83.628499 
L 268.803347 -83.651028 
L 270.130558 -83.67797 
L 271.457769 -83.710172 
L 272.78498 -83.748632 
L 274.112191 -83.79453 
L 275.439402 -83.849249 
L 276.766613 -83.91441 
L 278.093824 -83.991894 
L 279.421035 -84.083882 
L 280.748247 -84.19287 
L 282.075458 -84.321701 
L 283.402669 -84.473565 
L 284.72988 -84.652 
L 286.057091 -84.860852 
L 287.384302 -85.104216 
L 288.711513 -85.386319 
L 290.038724 -85.711357 
L 291.365935 -86.083268 
L 292.693146 -86.505438 
L 294.020357 -86.98035 
L 295.347569 -87.509199 
L 296.67478 -88.091493 
L 298.001991 -88.724711 
L 299.329202 -89.404064 
L 300.656413 -90.122428 
L 301.983624 -90.870498 
L 303.310835 -91.637179 
L 304.638046 -92.4102 
L 305.965257 -93.176881 
L 307.292468 -93.924951 
L 308.61968 -94.643315 
L 309.946891 -95.322669 
L 311.274102 -95.955887 
L 312.601313 -96.53818 
L 313.928524 -97.067029 
L 315.255735 -97.541942 
L 316.582946 -97.964111 
L 317.910157 -98.336022 
L 319.237368 -98.66106 
L 320.564579 -98.943163 
L 321.89179 -99.186527 
L 323.219002 -99.395379 
L 324.546213 -99.573814 
L 325.873424 -99.725678 
L 327.200635 -99.854509 
L 328.527846 -99.963498 
L 329.855057 -100.055485 
L 331.182268 -100.13297 
L 332.509479 -100.19813 
L 333.83669 -100.25285 
L 335.163901 -100.298747 
L 336.491112 -100.337208 
L 337.818324 -100.369409 
L 339.145535 -100.396351 
L 340.472746 -100.41888 
L 341.799957 -100.43771 
L 343.127168 -100.453442 
L 344.454379 -100.46658 
L 345.78159 -100.47755 
L 347.108801 -100.486707 
L 348.436012 -100.494349 
L 349.763223 -100.500727 
L 351.090435 -100.506047 
L 352.417646 -100.510486 
L 353.744857 -100.514188 
L 355.072068 -100.517276 
L 356.399279 -100.519852 
L 357.72649 -100.522 
L 359.053701 -100.523791 
L 360.380912 -100.525285 
L 361.708123 -100.526531 
L 363.035334 -100.527569 
L 364.362545 -100.528435 
L 365.689757 -100.529158 
L 367.016968 -100.52976 
L 368.344179 -100.530262 
L 369.67139 -100.530681 
L 369.67139 -294.888955 
L 369.67139 -294.888955 
L 368.344179 -294.888536 
L 367.016968 -294.888034 
L 365.689757 -294.887432 
L 364.362545 -294.886709 
L 363.035334 -294.885843 
L 361.708123 -294.884805 
L 360.380912 -294.883559 
L 359.053701 -294.882065 
L 357.72649 -294.880274 
L 356.399279 -294.878126 
L 355.072068 -294.87555 
L 353.744857 -294.872462 
L 352.417646 -294.86876 
L 351.090435 -294.864321 
L 349.763223 -294.859 
L 348.436012 -294.852623 
L 347.108801 -294.844981 
L 345.78159 -294.835824 
L 344.454379 -294.824854 
L 343.127168 -294.811716 
L 341.799957 -294.795984 
L 340.472746 -294.777154 
L 339.145535 -294.754625 
L 337.818324 -294.727683 
L 336.491112 -294.695482 
L 335.163901 -294.657021 
L 333.83669 -294.611124 
L 332.509479 -294.556404 
L 331.182268 -294.491244 
L 329.855057 -294.413759 
L 328.527846 -294.321772 
L 327.200635 -294.212783 
L 325.873424 -294.083952 
L 324.546213 -293.932088 
L 323.219002 -293.753653 
L 321.89179 -293.544801 
L 320.564579 -293.301437 
L 319.237368 -293.019334 
L 317.910157 -292.694296 
L 316.582946 -292.322385 
L 315.255735 -291.900216 
L 313.928524 -291.425303 
L 312.601313 -290.896454 
L 311.274102 -290.314161 
L 309.946891 -289.680943 
L 308.61968 -289.001589 
L 307.292468 -288.283225 
L 305.965257 -287.535155 
L 304.638046 -286.768474 
L 303.310835 -285.995453 
L 301.983624 -285.228772 
L 300.656413 -284.480702 
L 299.329202 -283.762338 
L 298.001991 -283.082985 
L 296.67478 -282.449767 
L 295.347569 -281.867473 
L 294.020357 -281.338624 
L 292.693146 -280.863712 
L 291.365935 -280.441542 
L 290.038724 -280.069631 
L 288.711513 -279.744593 
L 287.384302 -279.46249 
L 286.057091 -279.219126 
L 284.72988 -279.010274 
L 283.402669 -278.831839 
L 282.075458 -278.679975 
L 280.748247 -278.551144 
L 279.421035 -278.442156 
L 278.093824 -278.350168 
L 276.766613 -278.272683 
L 275.439402 -278.207523 
L 274.112191 -278.152804 
L 272.78498 -278.106906 
L 271.457769 -278.068446 
L 270.130558 -278.036244 
L 268.803347 -278.009302 
L 267.476136 -277.986773 
L 266.148924 -277.967943 
L 264.821713 -277.952212 
L 263.494502 -277.939073 
L 262.167291 -277.928103 
L 260.84008 -277.918946 
L 259.512869 -277.911304 
L 258.185658 -277.904927 
L 256.858447 -277.899606 
L 255.531236 -277.895168 
L 254.204025 -277.891465 
L 252.876814 -277.888377 
L 251.549602 -277.885802 
L 250.222391 -277.883654 
L 248.89518 -277.881862 
L 247.567969 -277.880368 
L 246.240758 -277.879123 
L 244.913547 -277.878084 
L 243.586336 -277.877218 
L 242.259125 -277.876496 
L 240.931914 -277.875893 
L 239.604703 -277.875391 
L 238.277492 -277.874973 
z
"/>
    </defs>
    <g clip-path="url(#pdc197475b4)">
     <use xlink:href="#mba15b5bd78" x="0" y="299.52" style="fill: #406992; fill-opacity: 0.05"/>
    </g>
   </g>
   <g id="tf-bar-YD-YD">
    <defs>
     <path id="mfb709222ed" d="M 369.67139 -22.600145 
L 369.67139 -41.101319 
L 384.270712 -41.101319 
L 384.270712 -22.600145 
L 384.270712 -22.600145 
L 369.67139 -22.600145 
z
"/>
    </defs>
    <g clip-path="url(#pdc197475b4)">
     <use xlink:href="#mfb709222ed" x="0" y="299.52" style="fill: #b78935; fill-opacity: 0.25"/>
    </g>
   </g>
   <g id="tf-bar-YD-ND">
    <defs>
     <path id="m61973d8bf0" d="M 369.67139 -52.446774 
L 369.67139 -59.043916 
L 384.270712 -59.043916 
L 384.270712 -52.446774 
L 384.270712 -52.446774 
L 369.67139 -52.446774 
z
"/>
    </defs>
    <g clip-path="url(#pdc197475b4)">
     <use xlink:href="#m61973d8bf0" x="0" y="299.52" style="fill: #dbc49a; fill-opacity: 0.25"/>
    </g>
   </g>
   <g id="tf-bar-ND-YD">
    <defs>
     <path id="m4d828e3f0c" d="M 369.67139 -81.734825 
L 369.67139 -89.187326 
L 384.270712 -89.187326 
L 384.270712 -81.734825 
L 384.270712 -81.734825 
L 369.67139 -81.734825 
z
"/>
    </defs>
    <g clip-path="url(#pdc197475b4)">
     <use xlink:href="#m4d828e3f0c" x="0" y="299.52" style="fill: #9fb4c8; fill-opacity: 0.25"/>
    </g>
   </g>
   <g id="tf-bar-ND-ND">
    <defs>
     <path id="m7de580b561" d="M 369.67139 -100.532781 
L 369.67139 -294.891055 
L 384.270712 -294.891055 
L 384.270712 -100.532781 
L 384.270712 -100.532781 
L 369.67139 -100.532781 
z
"/>
    </defs>
    <g clip-path="url(#pdc197475b4)">
     <use xlink:href="#m7de580b561" x="0" y="299.52" style="fill: #406992; fill-opacity: 0.25"/>
    </g>
   </g>
   <g id="text_1">
    <text style="font-weight: 300; font-size: 16px; font-family: 'Source Sans 3', sans-serif; fill: #595959" transform="translate(10.130288 136.06665)">All model</text>
    <text style="font-weight: 300; font-size: 16px; font-family: 'Source Sans 3', sans-serif; fill: #595959" transform="translate(-1.837212 153.48215)">predictions</text>
   </g>
   <g id="tf-label-YD">
    <text style="font-weight: 300; font-size: 16px; font-family: 'Source Sans 3', sans-serif; fill: #595959; opacity: 0" transform="translate(143.101008 233.840765)">Streamflow</text>
    <text style="font-weight: 300; font-size: 16px; font-family: 'Source Sans 3', sans-serif; fill: #595959; opacity: 0" transform="translate(105.146008 251.256265)">dought predicted</text>
    <text style="font-weight: 300; font-size: 16px; font-family: 'Source Sans 3', sans-serif; fill: #595959; opacity: 0" transform="translate(177.626008 268.864265)">11.1%</text>
   </g>
   <g id="tf-label-ND">
    <text style="font-weight: 300; font-size: 16px; font-family: 'Source Sans 3', sans-serif; fill: #595959; opacity: 0" transform="translate(93.498508 109.137015)">Streamflow dought</text>
    <text style="font-weight: 300; font-size: 16px; font-family: 'Source Sans 3', sans-serif; fill: #595959; opacity: 0" transform="translate(129.788508 126.745015)">not predicted</text>
    <text style="font-weight: 300; font-size: 16px; font-family: 'Source Sans 3', sans-serif; fill: #595959; opacity: 0" transform="translate(177.626008 144.160515)">88.9%</text>
   </g>
   <g id="tf-label-YD-YD">
    <text style="font-weight: 300; font-size: 16px; font-family: 'Source Sans 3', sans-serif; fill: #595959; opacity: 0" transform="translate(301.316729 254.177268)">Did occur</text>
    <text style="font-weight: 300; font-size: 16px; font-family: 'Source Sans 3', sans-serif; fill: #595959; opacity: 0" transform="translate(274.881729 271.745768)">(true positive)</text>
    <text style="font-weight: 300; font-size: 16px; font-family: 'Source Sans 3', sans-serif; fill: #595959; opacity: 0" transform="translate(331.171729 289.161268)">8.2%</text>
   </g>
   <g id="tf-label-YD-ND">
    <text style="font-weight: 300; font-size: 16px; font-family: 'Source Sans 3', sans-serif; fill: #595959; opacity: 0" transform="translate(276.356729 230.243655)">Did not occur</text>
    <text style="font-weight: 300; font-size: 16px; font-family: 'Source Sans 3', sans-serif; fill: #595959; opacity: 0" transform="translate(271.106729 247.890155)">(false positive)</text>
    <text style="font-weight: 300; font-size: 16px; font-family: 'Source Sans 3', sans-serif; fill: #595959; opacity: 0" transform="translate(331.171729 265.305655)">2.9%</text>
   </g>
   <g id="tf-label-ND-YD">
    <text style="font-weight: 300; font-size: 16px; font-family: 'Source Sans 3', sans-serif; fill: #595959; opacity: 0" transform="translate(289.094229 191.627674)">Streamflow</text>
    <text style="font-weight: 300; font-size: 16px; font-family: 'Source Sans 3', sans-serif; fill: #595959; opacity: 0" transform="translate(247.779229 209.043174)">drought did occur</text>
    <text style="font-weight: 300; font-size: 16px; font-family: 'Source Sans 3', sans-serif; fill: #595959; opacity: 0" transform="translate(266.694229 226.882174)">(false negative)</text>
    <text style="font-weight: 300; font-size: 16px; font-family: 'Source Sans 3', sans-serif; fill: #595959; opacity: 0" transform="translate(331.171729 244.490174)">3.3%</text>
   </g>
   <g id="tf-label-ND-ND">
    <text style="font-weight: 300; font-size: 16px; font-family: 'Source Sans 3', sans-serif; fill: #595959; opacity: 0" transform="translate(234.596729 79.512082)">Streamflow drought</text>
    <text style="font-weight: 300; font-size: 16px; font-family: 'Source Sans 3', sans-serif; fill: #595959; opacity: 0" transform="translate(277.316729 97.120082)">did not occur</text>
    <text style="font-weight: 300; font-size: 16px; font-family: 'Source Sans 3', sans-serif; fill: #595959; opacity: 0" transform="translate(270.469229 114.688582)">(true negative)</text>
    <text style="font-weight: 300; font-size: 16px; font-family: 'Source Sans 3', sans-serif; fill: #595959; opacity: 0" transform="translate(323.619229 132.296582)">85.7%</text>
   </g>
  </g>
 </g>
 <defs>
  <clipPath id="pdc197475b4">
   <rect x="11.988" y="-8.9856" width="387.612" height="299.52"/>
  </clipPath>
 </defs>
</svg>
