<?xml version="1.0" encoding="utf-8" standalone="no"?>
<!DOCTYPE svg PUBLIC "-//W3C//DTD SVG 1.1//EN"
  "http://www.w3.org/Graphics/SVG/1.1/DTD/svg11.dtd">
<svg xmlns:xlink="http://www.w3.org/1999/xlink" width="399.6px" height="299.52px" viewBox="0 0 399.6 299.52" xmlns="http://www.w3.org/2000/svg" version="1.1">
  <defs>
  <style type="text/css">*{stroke-linejoin: round; stroke-linecap: butt}</style>
 </defs>
 <g id="figure-forecast_truefalse">
  <g id="patch_1">
   <path d="M 0 299.52 
L 399.6 299.52 
L 399.6 0 
L 0 0 
z
" style="fill: #ffffff"/>
  </g>
  <g id="axis-forecast_truefalse">
   <g id="FillBetweenPolyCollection_1">
    <defs>
     <path id="m7bf4c4564f" d="M 67.728814 -36.305455 
L 67.728814 -263.214545 
L 82.779661 -263.214545 
L 82.779661 -36.305455 
L 82.779661 -36.305455 
L 67.728814 -36.305455 
z
"/>
    </defs>
    <g clip-path="url(#pf219c2e5fd)">
     <use xlink:href="#m7bf4c4564f" x="0" y="299.52" style="fill: #00264c"/>
    </g>
   </g>
   <g id="FillBetweenPolyCollection_2">
    <defs>
     <path id="m2b3bf4250f" d="M 82.779661 -263.215245 
L 82.779661 -67.78244 
L 84.14792 -67.782579 
L 85.516179 -67.782747 
L 86.884438 -67.782948 
L 88.252696 -67.783188 
L 89.620955 -67.783477 
L 90.989214 -67.783823 
L 92.357473 -67.784238 
L 93.725732 -67.784736 
L 95.093991 -67.785333 
L 96.46225 -67.786049 
L 97.830508 -67.786908 
L 99.198767 -67.787937 
L 100.567026 -67.789172 
L 101.935285 -67.790651 
L 103.303544 -67.792425 
L 104.671803 -67.79455 
L 106.040062 -67.797098 
L 107.40832 -67.80015 
L 108.776579 -67.803807 
L 110.144838 -67.808186 
L 111.513097 -67.81343 
L 112.881356 -67.819707 
L 114.249615 -67.827216 
L 115.617874 -67.836197 
L 116.986133 -67.846931 
L 118.354391 -67.859751 
L 119.72265 -67.87505 
L 121.090909 -67.89329 
L 122.459168 -67.91501 
L 123.827427 -67.940838 
L 125.195686 -67.971501 
L 126.563945 -68.00783 
L 127.932203 -68.050774 
L 129.300462 -68.101395 
L 130.668721 -68.160874 
L 132.03698 -68.230491 
L 133.405239 -68.311612 
L 134.773498 -68.405647 
L 136.141757 -68.513993 
L 137.510015 -68.637963 
L 138.878274 -68.778686 
L 140.246533 -68.93699 
L 141.614792 -69.113273 
L 142.983051 -69.307371 
L 144.35131 -69.518444 
L 145.719569 -69.744895 
L 147.087827 -69.98435 
L 148.456086 -70.233706 
L 149.824345 -70.489267 
L 151.192604 -70.74694 
L 152.560863 -71.002501 
L 153.929122 -71.251857 
L 155.297381 -71.491312 
L 156.665639 -71.717763 
L 158.033898 -71.928836 
L 159.402157 -72.122934 
L 160.770416 -72.299217 
L 162.138675 -72.457521 
L 163.506934 -72.598244 
L 164.875193 -72.722214 
L 166.243451 -72.83056 
L 167.61171 -72.924595 
L 168.979969 -73.005716 
L 170.348228 -73.075333 
L 171.716487 -73.134812 
L 173.084746 -73.185433 
L 174.453005 -73.228377 
L 175.821263 -73.264706 
L 177.189522 -73.295369 
L 178.557781 -73.321197 
L 179.92604 -73.342917 
L 181.294299 -73.361157 
L 182.662558 -73.376456 
L 184.030817 -73.389276 
L 185.399076 -73.40001 
L 186.767334 -73.408991 
L 188.135593 -73.4165 
L 189.503852 -73.422777 
L 190.872111 -73.428021 
L 192.24037 -73.4324 
L 193.608629 -73.436057 
L 194.976888 -73.439109 
L 196.345146 -73.441657 
L 197.713405 -73.443782 
L 199.081664 -73.445556 
L 200.449923 -73.447035 
L 201.818182 -73.44827 
L 203.186441 -73.449299 
L 204.5547 -73.450158 
L 205.922958 -73.450874 
L 207.291217 -73.451471 
L 208.659476 -73.451969 
L 210.027735 -73.452384 
L 211.395994 -73.45273 
L 212.764253 -73.453019 
L 214.132512 -73.45326 
L 215.50077 -73.45346 
L 216.869029 -73.453628 
L 218.237288 -73.453767 
L 218.237288 -268.886573 
L 218.237288 -268.886573 
L 216.869029 -268.886433 
L 215.50077 -268.886266 
L 214.132512 -268.886065 
L 212.764253 -268.885824 
L 211.395994 -268.885536 
L 210.027735 -268.885189 
L 208.659476 -268.884774 
L 207.291217 -268.884276 
L 205.922958 -268.883679 
L 204.5547 -268.882963 
L 203.186441 -268.882105 
L 201.818182 -268.881075 
L 200.449923 -268.879841 
L 199.081664 -268.878362 
L 197.713405 -268.876588 
L 196.345146 -268.874462 
L 194.976888 -268.871915 
L 193.608629 -268.868863 
L 192.24037 -268.865206 
L 190.872111 -268.860826 
L 189.503852 -268.855583 
L 188.135593 -268.849306 
L 186.767334 -268.841796 
L 185.399076 -268.832816 
L 184.030817 -268.822082 
L 182.662558 -268.809262 
L 181.294299 -268.793962 
L 179.92604 -268.775723 
L 178.557781 -268.754002 
L 177.189522 -268.728174 
L 175.821263 -268.697512 
L 174.453005 -268.661182 
L 173.084746 -268.618239 
L 171.716487 -268.567617 
L 170.348228 -268.508139 
L 168.979969 -268.438522 
L 167.61171 -268.3574 
L 166.243451 -268.263366 
L 164.875193 -268.15502 
L 163.506934 -268.03105 
L 162.138675 -267.890326 
L 160.770416 -267.732022 
L 159.402157 -267.555739 
L 158.033898 -267.361641 
L 156.665639 -267.150569 
L 155.297381 -266.924118 
L 153.929122 -266.684663 
L 152.560863 -266.435306 
L 151.192604 -266.179746 
L 149.824345 -265.922072 
L 148.456086 -265.666512 
L 147.087827 -265.417155 
L 145.719569 -265.177701 
L 144.35131 -264.951249 
L 142.983051 -264.740177 
L 141.614792 -264.546079 
L 140.246533 -264.369796 
L 138.878274 -264.211492 
L 137.510015 -264.070769 
L 136.141757 -263.946798 
L 134.773498 -263.838452 
L 133.405239 -263.744418 
L 132.03698 -263.663297 
L 130.668721 -263.593679 
L 129.300462 -263.534201 
L 127.932203 -263.483579 
L 126.563945 -263.440636 
L 125.195686 -263.404306 
L 123.827427 -263.373644 
L 122.459168 -263.347816 
L 121.090909 -263.326096 
L 119.72265 -263.307856 
L 118.354391 -263.292557 
L 116.986133 -263.279736 
L 115.617874 -263.269003 
L 114.249615 -263.260022 
L 112.881356 -263.252512 
L 111.513097 -263.246236 
L 110.144838 -263.240992 
L 108.776579 -263.236612 
L 107.40832 -263.232956 
L 106.040062 -263.229903 
L 104.671803 -263.227356 
L 103.303544 -263.22523 
L 101.935285 -263.223457 
L 100.567026 -263.221977 
L 99.198767 -263.220743 
L 97.830508 -263.219714 
L 96.46225 -263.218855 
L 95.093991 -263.218139 
L 93.725732 -263.217542 
L 92.357473 -263.217044 
L 90.989214 -263.216629 
L 89.620955 -263.216283 
L 88.252696 -263.215994 
L 86.884438 -263.215753 
L 85.516179 -263.215552 
L 84.14792 -263.215385 
L 82.779661 -263.215245 
z
"/>
    </defs>
    <g clip-path="url(#pf219c2e5fd)">
     <use xlink:href="#m2b3bf4250f" x="0" y="299.52" style="fill: #406992; fill-opacity: 0.2"/>
    </g>
   </g>
   <g id="FillBetweenPolyCollection_3">
    <defs>
     <path id="m5d6d829fb2" d="M 82.779661 -36.304755 
L 82.779661 -67.78104 
L 84.14792 -67.7809 
L 85.516179 -67.780733 
L 86.884438 -67.780532 
L 88.252696 -67.780292 
L 89.620955 -67.780003 
L 90.989214 -67.779657 
L 92.357473 -67.779241 
L 93.725732 -67.778743 
L 95.093991 -67.778146 
L 96.46225 -67.77743 
L 97.830508 -67.776572 
L 99.198767 -67.775542 
L 100.567026 -67.774308 
L 101.935285 -67.772829 
L 103.303544 -67.771055 
L 104.671803 -67.76893 
L 106.040062 -67.766382 
L 107.40832 -67.76333 
L 108.776579 -67.759673 
L 110.144838 -67.755294 
L 111.513097 -67.75005 
L 112.881356 -67.743773 
L 114.249615 -67.736263 
L 115.617874 -67.727283 
L 116.986133 -67.716549 
L 118.354391 -67.703729 
L 119.72265 -67.68843 
L 121.090909 -67.67019 
L 122.459168 -67.64847 
L 123.827427 -67.622641 
L 125.195686 -67.591979 
L 126.563945 -67.555649 
L 127.932203 -67.512706 
L 129.300462 -67.462084 
L 130.668721 -67.402606 
L 132.03698 -67.332989 
L 133.405239 -67.251867 
L 134.773498 -67.157833 
L 136.141757 -67.049487 
L 137.510015 -66.925517 
L 138.878274 -66.784794 
L 140.246533 -66.626489 
L 141.614792 -66.450206 
L 142.983051 -66.256109 
L 144.35131 -66.045036 
L 145.719569 -65.818585 
L 147.087827 -65.57913 
L 148.456086 -65.329773 
L 149.824345 -65.074213 
L 151.192604 -64.816539 
L 152.560863 -64.560979 
L 153.929122 -64.311622 
L 155.297381 -64.072168 
L 156.665639 -63.845717 
L 158.033898 -63.634644 
L 159.402157 -63.440546 
L 160.770416 -63.264263 
L 162.138675 -63.105959 
L 163.506934 -62.965236 
L 164.875193 -62.841265 
L 166.243451 -62.732919 
L 167.61171 -62.638885 
L 168.979969 -62.557764 
L 170.348228 -62.488146 
L 171.716487 -62.428668 
L 173.084746 -62.378047 
L 174.453005 -62.335103 
L 175.821263 -62.298774 
L 177.189522 -62.268111 
L 178.557781 -62.242283 
L 179.92604 -62.220563 
L 181.294299 -62.202323 
L 182.662558 -62.187024 
L 184.030817 -62.174204 
L 185.399076 -62.16347 
L 186.767334 -62.154489 
L 188.135593 -62.146979 
L 189.503852 -62.140703 
L 190.872111 -62.135459 
L 192.24037 -62.131079 
L 193.608629 -62.127423 
L 194.976888 -62.12437 
L 196.345146 -62.121823 
L 197.713405 -62.119697 
L 199.081664 -62.117924 
L 200.449923 -62.116444 
L 201.818182 -62.11521 
L 203.186441 -62.114181 
L 204.5547 -62.113322 
L 205.922958 -62.112606 
L 207.291217 -62.112009 
L 208.659476 -62.111511 
L 210.027735 -62.111096 
L 211.395994 -62.11075 
L 212.764253 -62.110461 
L 214.132512 -62.11022 
L 215.50077 -62.11002 
L 216.869029 -62.109852 
L 218.237288 -62.109713 
L 218.237288 -30.633427 
L 218.237288 -30.633427 
L 216.869029 -30.633567 
L 215.50077 -30.633734 
L 214.132512 -30.633935 
L 212.764253 -30.634176 
L 211.395994 -30.634464 
L 210.027735 -30.634811 
L 208.659476 -30.635226 
L 207.291217 -30.635724 
L 205.922958 -30.636321 
L 204.5547 -30.637037 
L 203.186441 -30.637895 
L 201.818182 -30.638925 
L 200.449923 -30.640159 
L 199.081664 -30.641638 
L 197.713405 -30.643412 
L 196.345146 -30.645538 
L 194.976888 -30.648085 
L 193.608629 -30.651137 
L 192.24037 -30.654794 
L 190.872111 -30.659174 
L 189.503852 -30.664417 
L 188.135593 -30.670694 
L 186.767334 -30.678204 
L 185.399076 -30.687184 
L 184.030817 -30.697918 
L 182.662558 -30.710738 
L 181.294299 -30.726038 
L 179.92604 -30.744277 
L 178.557781 -30.765998 
L 177.189522 -30.791826 
L 175.821263 -30.822488 
L 174.453005 -30.858818 
L 173.084746 -30.901761 
L 171.716487 -30.952383 
L 170.348228 -31.011861 
L 168.979969 -31.081478 
L 167.61171 -31.1626 
L 166.243451 -31.256634 
L 164.875193 -31.36498 
L 163.506934 -31.48895 
L 162.138675 -31.629674 
L 160.770416 -31.787978 
L 159.402157 -31.964261 
L 158.033898 -32.158359 
L 156.665639 -32.369431 
L 155.297381 -32.595882 
L 153.929122 -32.835337 
L 152.560863 -33.084694 
L 151.192604 -33.340254 
L 149.824345 -33.597928 
L 148.456086 -33.853488 
L 147.087827 -34.102845 
L 145.719569 -34.342299 
L 144.35131 -34.568751 
L 142.983051 -34.779823 
L 141.614792 -34.973921 
L 140.246533 -35.150204 
L 138.878274 -35.308508 
L 137.510015 -35.449231 
L 136.141757 -35.573202 
L 134.773498 -35.681548 
L 133.405239 -35.775582 
L 132.03698 -35.856703 
L 130.668721 -35.926321 
L 129.300462 -35.985799 
L 127.932203 -36.036421 
L 126.563945 -36.079364 
L 125.195686 -36.115694 
L 123.827427 -36.146356 
L 122.459168 -36.172184 
L 121.090909 -36.193904 
L 119.72265 -36.212144 
L 118.354391 -36.227443 
L 116.986133 -36.240264 
L 115.617874 -36.250997 
L 114.249615 -36.259978 
L 112.881356 -36.267488 
L 111.513097 -36.273764 
L 110.144838 -36.279008 
L 108.776579 -36.283388 
L 107.40832 -36.287044 
L 106.040062 -36.290097 
L 104.671803 -36.292644 
L 103.303544 -36.29477 
L 101.935285 -36.296543 
L 100.567026 -36.298023 
L 99.198767 -36.299257 
L 97.830508 -36.300286 
L 96.46225 -36.301145 
L 95.093991 -36.301861 
L 93.725732 -36.302458 
L 92.357473 -36.302956 
L 90.989214 -36.303371 
L 89.620955 -36.303717 
L 88.252696 -36.304006 
L 86.884438 -36.304247 
L 85.516179 -36.304448 
L 84.14792 -36.304615 
L 82.779661 -36.304755 
z
"/>
    </defs>
    <g clip-path="url(#pf219c2e5fd)">
     <use xlink:href="#m5d6d829fb2" x="0" y="299.52" style="fill: #b78935; fill-opacity: 0.2"/>
    </g>
   </g>
   <g id="FillBetweenPolyCollection_4">
    <defs>
     <path id="m94e82259e3" d="M 218.237288 -73.454467 
L 218.237288 -268.887273 
L 233.288136 -268.887273 
L 233.288136 -73.454467 
L 233.288136 -73.454467 
L 218.237288 -73.454467 
z
"/>
    </defs>
    <g clip-path="url(#pf219c2e5fd)">
     <use xlink:href="#m94e82259e3" x="0" y="299.52" style="fill: #406992"/>
    </g>
   </g>
   <g id="FillBetweenPolyCollection_5">
    <defs>
     <path id="m267d63b49b" d="M 218.237288 -30.632727 
L 218.237288 -62.109013 
L 233.288136 -62.109013 
L 233.288136 -30.632727 
L 233.288136 -30.632727 
L 218.237288 -30.632727 
z
"/>
    </defs>
    <g clip-path="url(#pf219c2e5fd)">
     <use xlink:href="#m267d63b49b" x="0" y="299.52" style="fill: #b78935"/>
    </g>
   </g>
   <g id="FillBetweenPolyCollection_6">
    <defs>
     <path id="mb41f704ef8" d="M 368.745763 -13.614545 
L 368.745763 -33.800835 
L 383.79661 -33.800835 
L 383.79661 -13.614545 
L 383.79661 -13.614545 
L 368.745763 -13.614545 
z
"/>
    </defs>
    <g clip-path="url(#pf219c2e5fd)">
     <use xlink:href="#mb41f704ef8" x="0" y="299.52" style="fill: #b78935"/>
    </g>
   </g>
   <g id="FillBetweenPolyCollection_7">
    <defs>
     <path id="mf4e33f3471" d="M 368.745763 -45.14629 
L 368.745763 -56.436285 
L 383.79661 -56.436285 
L 383.79661 -45.14629 
L 383.79661 -45.14629 
L 368.745763 -45.14629 
z
"/>
    </defs>
    <g clip-path="url(#pf219c2e5fd)">
     <use xlink:href="#mf4e33f3471" x="0" y="299.52" style="fill: #949494"/>
    </g>
   </g>
   <g id="FillBetweenPolyCollection_8">
    <defs>
     <path id="m0d8177230c" d="M 368.745763 -79.127194 
L 368.745763 -108.428462 
L 383.79661 -108.428462 
L 383.79661 -79.127194 
L 383.79661 -79.127194 
L 368.745763 -79.127194 
z
"/>
    </defs>
    <g clip-path="url(#pf219c2e5fd)">
     <use xlink:href="#m0d8177230c" x="0" y="299.52" style="fill: #949494"/>
    </g>
   </g>
   <g id="FillBetweenPolyCollection_9">
    <defs>
     <path id="mb988fcfe0e" d="M 368.745763 -119.773917 
L 368.745763 -285.905455 
L 383.79661 -285.905455 
L 383.79661 -119.773917 
L 383.79661 -119.773917 
L 368.745763 -119.773917 
z
"/>
    </defs>
    <g clip-path="url(#pf219c2e5fd)">
     <use xlink:href="#mb988fcfe0e" x="0" y="299.52" style="fill: #406992"/>
    </g>
   </g>
   <g id="FillBetweenPolyCollection_10">
    <defs>
     <path id="m2cefc4b774" d="M 233.288136 -50.818317 
L 233.288136 -62.108313 
L 234.656394 -62.108173 
L 236.024653 -62.108006 
L 237.392912 -62.107805 
L 238.761171 -62.107564 
L 240.12943 -62.107276 
L 241.497689 -62.106929 
L 242.865948 -62.106514 
L 244.234206 -62.106016 
L 245.602465 -62.105419 
L 246.970724 -62.104703 
L 248.338983 -62.103844 
L 249.707242 -62.102815 
L 251.075501 -62.101581 
L 252.44376 -62.100101 
L 253.812018 -62.098328 
L 255.180277 -62.096202 
L 256.548536 -62.093655 
L 257.916795 -62.090602 
L 259.285054 -62.086946 
L 260.653313 -62.082566 
L 262.021572 -62.077322 
L 263.389831 -62.071046 
L 264.758089 -62.063536 
L 266.126348 -62.054555 
L 267.494607 -62.043822 
L 268.862866 -62.031002 
L 270.231125 -62.015702 
L 271.599384 -61.997462 
L 272.967643 -61.975742 
L 274.335901 -61.949914 
L 275.70416 -61.919252 
L 277.072419 -61.882922 
L 278.440678 -61.839979 
L 279.808937 -61.789357 
L 281.177196 -61.729879 
L 282.545455 -61.660261 
L 283.913713 -61.57914 
L 285.281972 -61.485106 
L 286.650231 -61.37676 
L 288.01849 -61.25279 
L 289.386749 -61.112066 
L 290.755008 -60.953762 
L 292.123267 -60.777479 
L 293.491525 -60.583381 
L 294.859784 -60.372309 
L 296.228043 -60.145858 
L 297.596302 -59.906403 
L 298.964561 -59.657046 
L 300.33282 -59.401486 
L 301.701079 -59.143812 
L 303.069337 -58.888252 
L 304.437596 -58.638895 
L 305.805855 -58.39944 
L 307.174114 -58.172989 
L 308.542373 -57.961917 
L 309.910632 -57.767819 
L 311.278891 -57.591536 
L 312.647149 -57.433232 
L 314.015408 -57.292508 
L 315.383667 -57.168538 
L 316.751926 -57.060192 
L 318.120185 -56.966158 
L 319.488444 -56.885037 
L 320.856703 -56.815419 
L 322.224961 -56.755941 
L 323.59322 -56.705319 
L 324.961479 -56.662376 
L 326.329738 -56.626046 
L 327.697997 -56.595384 
L 329.066256 -56.569556 
L 330.434515 -56.547835 
L 331.802773 -56.529596 
L 333.171032 -56.514296 
L 334.539291 -56.501476 
L 335.90755 -56.490743 
L 337.275809 -56.481762 
L 338.644068 -56.474252 
L 340.012327 -56.467975 
L 341.380586 -56.462732 
L 342.748844 -56.458352 
L 344.117103 -56.454695 
L 345.485362 -56.451643 
L 346.853621 -56.449096 
L 348.22188 -56.44697 
L 349.590139 -56.445197 
L 350.958398 -56.443717 
L 352.326656 -56.442483 
L 353.694915 -56.441453 
L 355.063174 -56.440595 
L 356.431433 -56.439879 
L 357.799692 -56.439282 
L 359.167951 -56.438784 
L 360.53621 -56.438369 
L 361.904468 -56.438022 
L 363.272727 -56.437734 
L 364.640986 -56.437493 
L 366.009245 -56.437292 
L 367.377504 -56.437125 
L 368.745763 -56.436985 
L 368.745763 -45.14699 
L 368.745763 -45.14699 
L 367.377504 -45.147129 
L 366.009245 -45.147297 
L 364.640986 -45.147497 
L 363.272727 -45.147738 
L 361.904468 -45.148027 
L 360.53621 -45.148373 
L 359.167951 -45.148788 
L 357.799692 -45.149286 
L 356.431433 -45.149883 
L 355.063174 -45.150599 
L 353.694915 -45.151458 
L 352.326656 -45.152487 
L 350.958398 -45.153721 
L 349.590139 -45.155201 
L 348.22188 -45.156974 
L 346.853621 -45.1591 
L 345.485362 -45.161648 
L 344.117103 -45.1647 
L 342.748844 -45.168357 
L 341.380586 -45.172736 
L 340.012327 -45.17798 
L 338.644068 -45.184257 
L 337.275809 -45.191766 
L 335.90755 -45.200747 
L 334.539291 -45.211481 
L 333.171032 -45.224301 
L 331.802773 -45.2396 
L 330.434515 -45.25784 
L 329.066256 -45.27956 
L 327.697997 -45.305388 
L 326.329738 -45.336051 
L 324.961479 -45.37238 
L 323.59322 -45.415324 
L 322.224961 -45.465945 
L 320.856703 -45.525424 
L 319.488444 -45.595041 
L 318.120185 -45.676162 
L 316.751926 -45.770197 
L 315.383667 -45.878543 
L 314.015408 -46.002513 
L 312.647149 -46.143236 
L 311.278891 -46.30154 
L 309.910632 -46.477823 
L 308.542373 -46.671921 
L 307.174114 -46.882994 
L 305.805855 -47.109445 
L 304.437596 -47.3489 
L 303.069337 -47.598256 
L 301.701079 -47.853817 
L 300.33282 -48.11149 
L 298.964561 -48.367051 
L 297.596302 -48.616407 
L 296.228043 -48.855862 
L 294.859784 -49.082313 
L 293.491525 -49.293386 
L 292.123267 -49.487484 
L 290.755008 -49.663767 
L 289.386749 -49.822071 
L 288.01849 -49.962794 
L 286.650231 -50.086764 
L 285.281972 -50.19511 
L 283.913713 -50.289145 
L 282.545455 -50.370266 
L 281.177196 -50.439883 
L 279.808937 -50.499362 
L 278.440678 -50.549983 
L 277.072419 -50.592927 
L 275.70416 -50.629256 
L 274.335901 -50.659919 
L 272.967643 -50.685747 
L 271.599384 -50.707467 
L 270.231125 -50.725707 
L 268.862866 -50.741006 
L 267.494607 -50.753826 
L 266.126348 -50.76456 
L 264.758089 -50.773541 
L 263.389831 -50.78105 
L 262.021572 -50.787327 
L 260.653313 -50.792571 
L 259.285054 -50.79695 
L 257.916795 -50.800607 
L 256.548536 -50.803659 
L 255.180277 -50.806207 
L 253.812018 -50.808332 
L 252.44376 -50.810106 
L 251.075501 -50.811585 
L 249.707242 -50.81282 
L 248.338983 -50.813849 
L 246.970724 -50.814707 
L 245.602465 -50.815423 
L 244.234206 -50.816021 
L 242.865948 -50.816519 
L 241.497689 -50.816934 
L 240.12943 -50.81728 
L 238.761171 -50.817569 
L 237.392912 -50.817809 
L 236.024653 -50.81801 
L 234.656394 -50.818178 
L 233.288136 -50.818317 
z
"/>
    </defs>
    <g clip-path="url(#pf219c2e5fd)">
     <use xlink:href="#m2cefc4b774" x="0" y="299.52" style="fill: #949494; fill-opacity: 0.2"/>
    </g>
   </g>
   <g id="FillBetweenPolyCollection_11">
    <defs>
     <path id="mbc5f21fdac" d="M 233.288136 -30.630627 
L 233.288136 -50.816917 
L 234.656394 -50.816498 
L 236.024653 -50.815996 
L 237.392912 -50.815394 
L 238.761171 -50.814672 
L 240.12943 -50.813806 
L 241.497689 -50.812767 
L 242.865948 -50.811521 
L 244.234206 -50.810028 
L 245.602465 -50.808236 
L 246.970724 -50.806088 
L 248.338983 -50.803513 
L 249.707242 -50.800424 
L 251.075501 -50.796722 
L 252.44376 -50.792284 
L 253.812018 -50.786963 
L 255.180277 -50.780586 
L 256.548536 -50.772944 
L 257.916795 -50.763787 
L 259.285054 -50.752817 
L 260.653313 -50.739678 
L 262.021572 -50.723947 
L 263.389831 -50.705117 
L 264.758089 -50.682588 
L 266.126348 -50.655645 
L 267.494607 -50.623444 
L 268.862866 -50.584984 
L 270.231125 -50.539086 
L 271.599384 -50.484367 
L 272.967643 -50.419206 
L 274.335901 -50.341721 
L 275.70416 -50.249734 
L 277.072419 -50.140746 
L 278.440678 -50.011915 
L 279.808937 -49.86005 
L 281.177196 -49.681616 
L 282.545455 -49.472763 
L 283.913713 -49.2294 
L 285.281972 -48.947297 
L 286.650231 -48.622259 
L 288.01849 -48.250348 
L 289.386749 -47.828178 
L 290.755008 -47.353265 
L 292.123267 -46.824417 
L 293.491525 -46.242123 
L 294.859784 -45.608905 
L 296.228043 -44.929552 
L 297.596302 -44.211187 
L 298.964561 -43.463118 
L 300.33282 -42.696437 
L 301.701079 -41.923415 
L 303.069337 -41.156735 
L 304.437596 -40.408665 
L 305.805855 -39.690301 
L 307.174114 -39.010947 
L 308.542373 -38.377729 
L 309.910632 -37.795435 
L 311.278891 -37.266587 
L 312.647149 -36.791674 
L 314.015408 -36.369504 
L 315.383667 -35.997594 
L 316.751926 -35.672555 
L 318.120185 -35.390453 
L 319.488444 -35.147089 
L 320.856703 -34.938236 
L 322.224961 -34.759802 
L 323.59322 -34.607937 
L 324.961479 -34.479107 
L 326.329738 -34.370118 
L 327.697997 -34.278131 
L 329.066256 -34.200646 
L 330.434515 -34.135486 
L 331.802773 -34.080766 
L 333.171032 -34.034868 
L 334.539291 -33.996408 
L 335.90755 -33.964207 
L 337.275809 -33.937265 
L 338.644068 -33.914735 
L 340.012327 -33.895906 
L 341.380586 -33.880174 
L 342.748844 -33.867036 
L 344.117103 -33.856066 
L 345.485362 -33.846909 
L 346.853621 -33.839266 
L 348.22188 -33.832889 
L 349.590139 -33.827569 
L 350.958398 -33.82313 
L 352.326656 -33.819428 
L 353.694915 -33.81634 
L 355.063174 -33.813764 
L 356.431433 -33.811616 
L 357.799692 -33.809825 
L 359.167951 -33.808331 
L 360.53621 -33.807085 
L 361.904468 -33.806047 
L 363.272727 -33.80518 
L 364.640986 -33.804458 
L 366.009245 -33.803856 
L 367.377504 -33.803354 
L 368.745763 -33.802935 
L 368.745763 -13.616645 
L 368.745763 -13.616645 
L 367.377504 -13.617064 
L 366.009245 -13.617566 
L 364.640986 -13.618168 
L 363.272727 -13.618891 
L 361.904468 -13.619757 
L 360.53621 -13.620795 
L 359.167951 -13.622041 
L 357.799692 -13.623535 
L 356.431433 -13.625326 
L 355.063174 -13.627474 
L 353.694915 -13.63005 
L 352.326656 -13.633138 
L 350.958398 -13.63684 
L 349.590139 -13.641279 
L 348.22188 -13.6466 
L 346.853621 -13.652977 
L 345.485362 -13.660619 
L 344.117103 -13.669776 
L 342.748844 -13.680746 
L 341.380586 -13.693884 
L 340.012327 -13.709616 
L 338.644068 -13.728446 
L 337.275809 -13.750975 
L 335.90755 -13.777917 
L 334.539291 -13.810118 
L 333.171032 -13.848579 
L 331.802773 -13.894476 
L 330.434515 -13.949196 
L 329.066256 -14.014356 
L 327.697997 -14.091841 
L 326.329738 -14.183828 
L 324.961479 -14.292817 
L 323.59322 -14.421648 
L 322.224961 -14.573512 
L 320.856703 -14.751947 
L 319.488444 -14.960799 
L 318.120185 -15.204163 
L 316.751926 -15.486266 
L 315.383667 -15.811304 
L 314.015408 -16.183215 
L 312.647149 -16.605384 
L 311.278891 -17.080297 
L 309.910632 -17.609146 
L 308.542373 -18.191439 
L 307.174114 -18.824657 
L 305.805855 -19.504011 
L 304.437596 -20.222375 
L 303.069337 -20.970445 
L 301.701079 -21.737126 
L 300.33282 -22.510147 
L 298.964561 -23.276828 
L 297.596302 -24.024898 
L 296.228043 -24.743262 
L 294.859784 -25.422615 
L 293.491525 -26.055833 
L 292.123267 -26.638127 
L 290.755008 -27.166976 
L 289.386749 -27.641888 
L 288.01849 -28.064058 
L 286.650231 -28.435969 
L 285.281972 -28.761007 
L 283.913713 -29.04311 
L 282.545455 -29.286474 
L 281.177196 -29.495326 
L 279.808937 -29.673761 
L 278.440678 -29.825625 
L 277.072419 -29.954456 
L 275.70416 -30.063444 
L 274.335901 -30.155432 
L 272.967643 -30.232917 
L 271.599384 -30.298077 
L 270.231125 -30.352796 
L 268.862866 -30.398694 
L 267.494607 -30.437154 
L 266.126348 -30.469356 
L 264.758089 -30.496298 
L 263.389831 -30.518827 
L 262.021572 -30.537657 
L 260.653313 -30.553388 
L 259.285054 -30.566527 
L 257.916795 -30.577497 
L 256.548536 -30.586654 
L 255.180277 -30.594296 
L 253.812018 -30.600673 
L 252.44376 -30.605994 
L 251.075501 -30.610432 
L 249.707242 -30.614135 
L 248.338983 -30.617223 
L 246.970724 -30.619798 
L 245.602465 -30.621946 
L 244.234206 -30.623738 
L 242.865948 -30.625232 
L 241.497689 -30.626477 
L 240.12943 -30.627516 
L 238.761171 -30.628382 
L 237.392912 -30.629104 
L 236.024653 -30.629707 
L 234.656394 -30.630209 
L 233.288136 -30.630627 
z
"/>
    </defs>
    <g clip-path="url(#pf219c2e5fd)">
     <use xlink:href="#mbc5f21fdac" x="0" y="299.52" style="fill: #b78935; fill-opacity: 0.2"/>
    </g>
   </g>
   <g id="FillBetweenPolyCollection_12">
    <defs>
     <path id="m2e9ff9091e" d="M 233.288136 -102.756435 
L 233.288136 -73.455167 
L 234.656394 -73.455307 
L 236.024653 -73.455474 
L 237.392912 -73.455675 
L 238.761171 -73.455916 
L 240.12943 -73.456204 
L 241.497689 -73.45655 
L 242.865948 -73.456966 
L 244.234206 -73.457464 
L 245.602465 -73.458061 
L 246.970724 -73.458777 
L 248.338983 -73.459635 
L 249.707242 -73.460665 
L 251.075501 -73.461899 
L 252.44376 -73.463378 
L 253.812018 -73.465152 
L 255.180277 -73.467278 
L 256.548536 -73.469825 
L 257.916795 -73.472877 
L 259.285054 -73.476534 
L 260.653313 -73.480913 
L 262.021572 -73.486157 
L 263.389831 -73.492434 
L 264.758089 -73.499944 
L 266.126348 -73.508924 
L 267.494607 -73.519658 
L 268.862866 -73.532478 
L 270.231125 -73.547777 
L 271.599384 -73.566017 
L 272.967643 -73.587737 
L 274.335901 -73.613566 
L 275.70416 -73.644228 
L 277.072419 -73.680558 
L 278.440678 -73.723501 
L 279.808937 -73.774123 
L 281.177196 -73.833601 
L 282.545455 -73.903218 
L 283.913713 -73.98434 
L 285.281972 -74.078374 
L 286.650231 -74.18672 
L 288.01849 -74.31069 
L 289.386749 -74.451413 
L 290.755008 -74.609718 
L 292.123267 -74.786001 
L 293.491525 -74.980098 
L 294.859784 -75.191171 
L 296.228043 -75.417622 
L 297.596302 -75.657077 
L 298.964561 -75.906434 
L 300.33282 -76.161994 
L 301.701079 -76.419668 
L 303.069337 -76.675228 
L 304.437596 -76.924585 
L 305.805855 -77.164039 
L 307.174114 -77.39049 
L 308.542373 -77.601563 
L 309.910632 -77.795661 
L 311.278891 -77.971944 
L 312.647149 -78.130248 
L 314.015408 -78.270971 
L 315.383667 -78.394942 
L 316.751926 -78.503288 
L 318.120185 -78.597322 
L 319.488444 -78.678443 
L 320.856703 -78.748061 
L 322.224961 -78.807539 
L 323.59322 -78.85816 
L 324.961479 -78.901104 
L 326.329738 -78.937433 
L 327.697997 -78.968096 
L 329.066256 -78.993924 
L 330.434515 -79.015644 
L 331.802773 -79.033884 
L 333.171032 -79.049183 
L 334.539291 -79.062003 
L 335.90755 -79.072737 
L 337.275809 -79.081718 
L 338.644068 -79.089228 
L 340.012327 -79.095504 
L 341.380586 -79.100748 
L 342.748844 -79.105128 
L 344.117103 -79.108784 
L 345.485362 -79.111837 
L 346.853621 -79.114384 
L 348.22188 -79.11651 
L 349.590139 -79.118283 
L 350.958398 -79.119763 
L 352.326656 -79.120997 
L 353.694915 -79.122026 
L 355.063174 -79.122885 
L 356.431433 -79.123601 
L 357.799692 -79.124198 
L 359.167951 -79.124696 
L 360.53621 -79.125111 
L 361.904468 -79.125457 
L 363.272727 -79.125746 
L 364.640986 -79.125987 
L 366.009245 -79.126188 
L 367.377504 -79.126355 
L 368.745763 -79.126494 
L 368.745763 -108.427762 
L 368.745763 -108.427762 
L 367.377504 -108.427623 
L 366.009245 -108.427455 
L 364.640986 -108.427255 
L 363.272727 -108.427014 
L 361.904468 -108.426725 
L 360.53621 -108.426379 
L 359.167951 -108.425964 
L 357.799692 -108.425466 
L 356.431433 -108.424869 
L 355.063174 -108.424153 
L 353.694915 -108.423294 
L 352.326656 -108.422265 
L 350.958398 -108.421031 
L 349.590139 -108.419551 
L 348.22188 -108.417778 
L 346.853621 -108.415652 
L 345.485362 -108.413105 
L 344.117103 -108.410052 
L 342.748844 -108.406396 
L 341.380586 -108.402016 
L 340.012327 -108.396772 
L 338.644068 -108.390496 
L 337.275809 -108.382986 
L 335.90755 -108.374005 
L 334.539291 -108.363271 
L 333.171032 -108.350451 
L 331.802773 -108.335152 
L 330.434515 -108.316912 
L 329.066256 -108.295192 
L 327.697997 -108.269364 
L 326.329738 -108.238701 
L 324.961479 -108.202372 
L 323.59322 -108.159428 
L 322.224961 -108.108807 
L 320.856703 -108.049329 
L 319.488444 -107.979711 
L 318.120185 -107.89859 
L 316.751926 -107.804556 
L 315.383667 -107.69621 
L 314.015408 -107.572239 
L 312.647149 -107.431516 
L 311.278891 -107.273212 
L 309.910632 -107.096929 
L 308.542373 -106.902831 
L 307.174114 -106.691758 
L 305.805855 -106.465307 
L 304.437596 -106.225852 
L 303.069337 -105.976496 
L 301.701079 -105.720936 
L 300.33282 -105.463262 
L 298.964561 -105.207701 
L 297.596302 -104.958345 
L 296.228043 -104.71889 
L 294.859784 -104.492439 
L 293.491525 -104.281366 
L 292.123267 -104.087268 
L 290.755008 -103.910986 
L 289.386749 -103.752681 
L 288.01849 -103.611958 
L 286.650231 -103.487988 
L 285.281972 -103.379642 
L 283.913713 -103.285607 
L 282.545455 -103.204486 
L 281.177196 -103.134869 
L 279.808937 -103.075391 
L 278.440678 -103.024769 
L 277.072419 -102.981826 
L 275.70416 -102.945496 
L 274.335901 -102.914834 
L 272.967643 -102.889005 
L 271.599384 -102.867285 
L 270.231125 -102.849045 
L 268.862866 -102.833746 
L 267.494607 -102.820926 
L 266.126348 -102.810192 
L 264.758089 -102.801211 
L 263.389831 -102.793702 
L 262.021572 -102.787425 
L 260.653313 -102.782181 
L 259.285054 -102.777802 
L 257.916795 -102.774145 
L 256.548536 -102.771093 
L 255.180277 -102.768545 
L 253.812018 -102.76642 
L 252.44376 -102.764646 
L 251.075501 -102.763167 
L 249.707242 -102.761933 
L 248.338983 -102.760903 
L 246.970724 -102.760045 
L 245.602465 -102.759329 
L 244.234206 -102.758732 
L 242.865948 -102.758234 
L 241.497689 -102.757818 
L 240.12943 -102.757472 
L 238.761171 -102.757183 
L 237.392912 -102.756943 
L 236.024653 -102.756742 
L 234.656394 -102.756575 
L 233.288136 -102.756435 
z
"/>
    </defs>
    <g clip-path="url(#pf219c2e5fd)">
     <use xlink:href="#m2e9ff9091e" x="0" y="299.52" style="fill: #949494; fill-opacity: 0.2"/>
    </g>
   </g>
   <g id="FillBetweenPolyCollection_13">
    <defs>
     <path id="mf4d13dd1f6" d="M 233.288136 -268.889373 
L 233.288136 -102.757835 
L 234.656394 -102.758254 
L 236.024653 -102.758756 
L 237.392912 -102.759358 
L 238.761171 -102.76008 
L 240.12943 -102.760946 
L 241.497689 -102.761985 
L 242.865948 -102.763231 
L 244.234206 -102.764725 
L 245.602465 -102.766516 
L 246.970724 -102.768664 
L 248.338983 -102.771239 
L 249.707242 -102.774328 
L 251.075501 -102.77803 
L 252.44376 -102.782469 
L 253.812018 -102.787789 
L 255.180277 -102.794166 
L 256.548536 -102.801808 
L 257.916795 -102.810965 
L 259.285054 -102.821935 
L 260.653313 -102.835074 
L 262.021572 -102.850805 
L 263.389831 -102.869635 
L 264.758089 -102.892164 
L 266.126348 -102.919107 
L 267.494607 -102.951308 
L 268.862866 -102.989768 
L 270.231125 -103.035666 
L 271.599384 -103.090385 
L 272.967643 -103.155546 
L 274.335901 -103.233031 
L 275.70416 -103.325018 
L 277.072419 -103.434007 
L 278.440678 -103.562837 
L 279.808937 -103.714702 
L 281.177196 -103.893136 
L 282.545455 -104.101989 
L 283.913713 -104.345352 
L 285.281972 -104.627455 
L 286.650231 -104.952493 
L 288.01849 -105.324404 
L 289.386749 -105.746574 
L 290.755008 -106.221487 
L 292.123267 -106.750335 
L 293.491525 -107.332629 
L 294.859784 -107.965847 
L 296.228043 -108.6452 
L 297.596302 -109.363565 
L 298.964561 -110.111634 
L 300.33282 -110.878315 
L 301.701079 -111.651337 
L 303.069337 -112.418017 
L 304.437596 -113.166087 
L 305.805855 -113.884452 
L 307.174114 -114.563805 
L 308.542373 -115.197023 
L 309.910632 -115.779317 
L 311.278891 -116.308165 
L 312.647149 -116.783078 
L 314.015408 -117.205248 
L 315.383667 -117.577159 
L 316.751926 -117.902197 
L 318.120185 -118.184299 
L 319.488444 -118.427663 
L 320.856703 -118.636516 
L 322.224961 -118.81495 
L 323.59322 -118.966815 
L 324.961479 -119.095645 
L 326.329738 -119.204634 
L 327.697997 -119.296621 
L 329.066256 -119.374106 
L 330.434515 -119.439266 
L 331.802773 -119.493986 
L 333.171032 -119.539884 
L 334.539291 -119.578344 
L 335.90755 -119.610545 
L 337.275809 -119.637488 
L 338.644068 -119.660017 
L 340.012327 -119.678846 
L 341.380586 -119.694578 
L 342.748844 -119.707717 
L 344.117103 -119.718686 
L 345.485362 -119.727843 
L 346.853621 -119.735486 
L 348.22188 -119.741863 
L 349.590139 -119.747183 
L 350.958398 -119.751622 
L 352.326656 -119.755324 
L 353.694915 -119.758412 
L 355.063174 -119.760988 
L 356.431433 -119.763136 
L 357.799692 -119.764927 
L 359.167951 -119.766421 
L 360.53621 -119.767667 
L 361.904468 -119.768706 
L 363.272727 -119.769572 
L 364.640986 -119.770294 
L 366.009245 -119.770896 
L 367.377504 -119.771398 
L 368.745763 -119.771817 
L 368.745763 -285.903355 
L 368.745763 -285.903355 
L 367.377504 -285.902936 
L 366.009245 -285.902434 
L 364.640986 -285.901832 
L 363.272727 -285.901109 
L 361.904468 -285.900243 
L 360.53621 -285.899205 
L 359.167951 -285.897959 
L 357.799692 -285.896465 
L 356.431433 -285.894674 
L 355.063174 -285.892526 
L 353.694915 -285.88995 
L 352.326656 -285.886862 
L 350.958398 -285.88316 
L 349.590139 -285.878721 
L 348.22188 -285.8734 
L 346.853621 -285.867023 
L 345.485362 -285.859381 
L 344.117103 -285.850224 
L 342.748844 -285.839254 
L 341.380586 -285.826116 
L 340.012327 -285.810384 
L 338.644068 -285.791554 
L 337.275809 -285.769025 
L 335.90755 -285.742083 
L 334.539291 -285.709882 
L 333.171032 -285.671421 
L 331.802773 -285.625524 
L 330.434515 -285.570804 
L 329.066256 -285.505644 
L 327.697997 -285.428159 
L 326.329738 -285.336172 
L 324.961479 -285.227183 
L 323.59322 -285.098352 
L 322.224961 -284.946488 
L 320.856703 -284.768053 
L 319.488444 -284.559201 
L 318.120185 -284.315837 
L 316.751926 -284.033734 
L 315.383667 -283.708696 
L 314.015408 -283.336785 
L 312.647149 -282.914616 
L 311.278891 -282.439703 
L 309.910632 -281.910854 
L 308.542373 -281.328561 
L 307.174114 -280.695343 
L 305.805855 -280.015989 
L 304.437596 -279.297625 
L 303.069337 -278.549555 
L 301.701079 -277.782874 
L 300.33282 -277.009853 
L 298.964561 -276.243172 
L 297.596302 -275.495102 
L 296.228043 -274.776738 
L 294.859784 -274.097385 
L 293.491525 -273.464167 
L 292.123267 -272.881873 
L 290.755008 -272.353024 
L 289.386749 -271.878112 
L 288.01849 -271.455942 
L 286.650231 -271.084031 
L 285.281972 -270.758993 
L 283.913713 -270.47689 
L 282.545455 -270.233526 
L 281.177196 -270.024674 
L 279.808937 -269.846239 
L 278.440678 -269.694375 
L 277.072419 -269.565544 
L 275.70416 -269.456556 
L 274.335901 -269.364568 
L 272.967643 -269.287083 
L 271.599384 -269.221923 
L 270.231125 -269.167204 
L 268.862866 -269.121306 
L 267.494607 -269.082846 
L 266.126348 -269.050644 
L 264.758089 -269.023702 
L 263.389831 -269.001173 
L 262.021572 -268.982343 
L 260.653313 -268.966612 
L 259.285054 -268.953473 
L 257.916795 -268.942503 
L 256.548536 -268.933346 
L 255.180277 -268.925704 
L 253.812018 -268.919327 
L 252.44376 -268.914006 
L 251.075501 -268.909568 
L 249.707242 -268.905865 
L 248.338983 -268.902777 
L 246.970724 -268.900202 
L 245.602465 -268.898054 
L 244.234206 -268.896262 
L 242.865948 -268.894768 
L 241.497689 -268.893523 
L 240.12943 -268.892484 
L 238.761171 -268.891618 
L 237.392912 -268.890896 
L 236.024653 -268.890293 
L 234.656394 -268.889791 
L 233.288136 -268.889373 
z
"/>
    </defs>
    <g clip-path="url(#pf219c2e5fd)">
     <use xlink:href="#mf4d13dd1f6" x="0" y="299.52" style="fill: #406992; fill-opacity: 0.2"/>
    </g>
   </g>
   <g id="text_1">
    <text style="font-weight: 300; font-size: 16px; font-family: 'Source Sans 3', sans-serif; fill: #595959" transform="translate(-30.93161 145.05225)">All Predictions</text>
    <text style="font-weight: 300; font-size: 16px; font-family: 'Source Sans 3', sans-serif; fill: #595959" transform="translate(24.77839 162.46775)">100%</text>
   </g>
   <g id="text_2">
    <text style="font-weight: 300; font-size: 16px; font-family: 'Source Sans 3', sans-serif; fill: #595959" transform="translate(93.591864 248.34513)">Drought Predicted</text>
    <text style="font-weight: 300; font-size: 16px; font-family: 'Source Sans 3', sans-serif; fill: #595959" transform="translate(171.959364 265.95313)">13.9%</text>
   </g>
   <g id="text_3">
    <text style="font-weight: 300; font-size: 16px; font-family: 'Source Sans 3', sans-serif; fill: #595959" transform="translate(71.766864 123.54513)">No Drought Predicted</text>
    <text style="font-weight: 300; font-size: 16px; font-family: 'Source Sans 3', sans-serif; fill: #595959" transform="translate(171.959364 141.15313)">86.1%</text>
   </g>
   <g id="text_4">
    <text style="font-weight: 300; font-size: 16px; font-family: 'Source Sans 3', sans-serif; fill: #595959" transform="translate(277.060339 271.00831)">Drought Obs.</text>
    <text style="font-weight: 300; font-size: 16px; font-family: 'Source Sans 3', sans-serif; fill: #595959" transform="translate(330.020339 288.61631)">8.9%</text>
   </g>
   <g id="text_5">
    <text style="font-weight: 300; font-size: 16px; font-family: 'Source Sans 3', sans-serif; fill: #595959" transform="translate(255.235339 243.924712)">No Drought Obs.</text>
    <text style="font-weight: 300; font-size: 16px; font-family: 'Source Sans 3', sans-serif; fill: #595959" transform="translate(330.020339 261.532712)">5.0%</text>
   </g>
   <g id="text_6">
    <text style="font-weight: 300; font-size: 16px; font-family: 'Source Sans 3', sans-serif; fill: #595959" transform="translate(277.060339 200.938172)">Drought Obs.</text>
    <text style="font-weight: 300; font-size: 16px; font-family: 'Source Sans 3', sans-serif; fill: #595959" transform="translate(322.467839 218.546172)">12.9%</text>
   </g>
   <g id="text_7">
    <text style="font-weight: 300; font-size: 16px; font-family: 'Source Sans 3', sans-serif; fill: #595959" transform="translate(255.235339 91.876314)">No Drought Obs.</text>
    <text style="font-weight: 300; font-size: 16px; font-family: 'Source Sans 3', sans-serif; fill: #595959" transform="translate(322.467839 109.484314)">73.2%</text>
   </g>
  </g>
 </g>
 <defs>
  <clipPath id="pf219c2e5fd">
   <rect x="0" y="0" width="399.6" height="299.52"/>
  </clipPath>
 </defs>
</svg>
