<?xml version="1.0" encoding="utf-8" standalone="no"?>
<!DOCTYPE svg PUBLIC "-//W3C//DTD SVG 1.1//EN"
  "http://www.w3.org/Graphics/SVG/1.1/DTD/svg11.dtd">
<svg xmlns:xlink="http://www.w3.org/1999/xlink" width="399.6px" height="299.52px" viewBox="0 0 399.6 299.52" xmlns="http://www.w3.org/2000/svg" version="1.1">
  <defs>
  <style type="text/css">*{stroke-linejoin: round; stroke-linecap: butt}</style>
 </defs>
 <g id="figure-forecast_truefalse_key">
  <g id="patch_1">
   <path d="M 0 299.52 
L 399.6 299.52 
L 399.6 0 
L 0 0 
z
" style="fill: #ffffff"/>
  </g>
  <g id="axis-forecast_truefalse_key">
   <g id="FillBetweenPolyCollection_1">
    <defs>
     <path id="md21243235f" d="M 77.718814 -45.291055 
L 77.718814 -272.200145 
L 92.769661 -272.200145 
L 92.769661 -45.291055 
L 92.769661 -45.291055 
L 77.718814 -45.291055 
z
"/>
    </defs>
    <g clip-path="url(#p34bf710507)">
     <use xlink:href="#md21243235f" x="0" y="299.52" style="fill: #00264c"/>
    </g>
   </g>
   <g id="tf-swoop-ND">
    <defs>
     <path id="mbb295fd696" d="M 92.769661 -272.200845 
L 92.769661 -70.390071 
L 94.13792 -70.39021 
L 95.506179 -70.390378 
L 96.874438 -70.390578 
L 98.242696 -70.390819 
L 99.610955 -70.391108 
L 100.979214 -70.391454 
L 102.347473 -70.391869 
L 103.715732 -70.392367 
L 105.083991 -70.392964 
L 106.45225 -70.39368 
L 107.820508 -70.394539 
L 109.188767 -70.395568 
L 110.557026 -70.396802 
L 111.925285 -70.398282 
L 113.293544 -70.400055 
L 114.661803 -70.402181 
L 116.030062 -70.404728 
L 117.39832 -70.407781 
L 118.766579 -70.411437 
L 120.134838 -70.415817 
L 121.503097 -70.421061 
L 122.871356 -70.427337 
L 124.239615 -70.434847 
L 125.607874 -70.443828 
L 126.976133 -70.454562 
L 128.344391 -70.467382 
L 129.71265 -70.482681 
L 131.080909 -70.500921 
L 132.449168 -70.522641 
L 133.817427 -70.548469 
L 135.185686 -70.579132 
L 136.553945 -70.615461 
L 137.922203 -70.658405 
L 139.290462 -70.709026 
L 140.658721 -70.768504 
L 142.02698 -70.838122 
L 143.395239 -70.919243 
L 144.763498 -71.013277 
L 146.131757 -71.121623 
L 147.500015 -71.245594 
L 148.868274 -71.386317 
L 150.236533 -71.544621 
L 151.604792 -71.720904 
L 152.973051 -71.915002 
L 154.34131 -72.126075 
L 155.709569 -72.352526 
L 157.077827 -72.591981 
L 158.446086 -72.841337 
L 159.814345 -73.096897 
L 161.182604 -73.354571 
L 162.550863 -73.610131 
L 163.919122 -73.859488 
L 165.287381 -74.098943 
L 166.655639 -74.325394 
L 168.023898 -74.536467 
L 169.392157 -74.730565 
L 170.760416 -74.906847 
L 172.128675 -75.065152 
L 173.496934 -75.205875 
L 174.865193 -75.329845 
L 176.233451 -75.438191 
L 177.60171 -75.532225 
L 178.969969 -75.613347 
L 180.338228 -75.682964 
L 181.706487 -75.742442 
L 183.074746 -75.793064 
L 184.443005 -75.836007 
L 185.811263 -75.872337 
L 187.179522 -75.902999 
L 188.547781 -75.928828 
L 189.91604 -75.950548 
L 191.284299 -75.968788 
L 192.652558 -75.984087 
L 194.020817 -75.996907 
L 195.389076 -76.007641 
L 196.757334 -76.016621 
L 198.125593 -76.024131 
L 199.493852 -76.030408 
L 200.862111 -76.035652 
L 202.23037 -76.040031 
L 203.598629 -76.043688 
L 204.966888 -76.04674 
L 206.335146 -76.049288 
L 207.703405 -76.051413 
L 209.071664 -76.053187 
L 210.439923 -76.054666 
L 211.808182 -76.0559 
L 213.176441 -76.05693 
L 214.5447 -76.057788 
L 215.912958 -76.058504 
L 217.281217 -76.059101 
L 218.649476 -76.059599 
L 220.017735 -76.060015 
L 221.385994 -76.060361 
L 222.754253 -76.06065 
L 224.122512 -76.06089 
L 225.49077 -76.061091 
L 226.859029 -76.061258 
L 228.227288 -76.061398 
L 228.227288 -277.872173 
L 228.227288 -277.872173 
L 226.859029 -277.872033 
L 225.49077 -277.871866 
L 224.122512 -277.871665 
L 222.754253 -277.871424 
L 221.385994 -277.871136 
L 220.017735 -277.870789 
L 218.649476 -277.870374 
L 217.281217 -277.869876 
L 215.912958 -277.869279 
L 214.5447 -277.868563 
L 213.176441 -277.867705 
L 211.808182 -277.866675 
L 210.439923 -277.865441 
L 209.071664 -277.863962 
L 207.703405 -277.862188 
L 206.335146 -277.860062 
L 204.966888 -277.857515 
L 203.598629 -277.854463 
L 202.23037 -277.850806 
L 200.862111 -277.846426 
L 199.493852 -277.841183 
L 198.125593 -277.834906 
L 196.757334 -277.827396 
L 195.389076 -277.818416 
L 194.020817 -277.807682 
L 192.652558 -277.794862 
L 191.284299 -277.779562 
L 189.91604 -277.761323 
L 188.547781 -277.739602 
L 187.179522 -277.713774 
L 185.811263 -277.683112 
L 184.443005 -277.646782 
L 183.074746 -277.603839 
L 181.706487 -277.553217 
L 180.338228 -277.493739 
L 178.969969 -277.424122 
L 177.60171 -277.343 
L 176.233451 -277.248966 
L 174.865193 -277.14062 
L 173.496934 -277.01665 
L 172.128675 -276.875926 
L 170.760416 -276.717622 
L 169.392157 -276.541339 
L 168.023898 -276.347241 
L 166.655639 -276.136169 
L 165.287381 -275.909718 
L 163.919122 -275.670263 
L 162.550863 -275.420906 
L 161.182604 -275.165346 
L 159.814345 -274.907672 
L 158.446086 -274.652112 
L 157.077827 -274.402755 
L 155.709569 -274.163301 
L 154.34131 -273.936849 
L 152.973051 -273.725777 
L 151.604792 -273.531679 
L 150.236533 -273.355396 
L 148.868274 -273.197092 
L 147.500015 -273.056369 
L 146.131757 -272.932398 
L 144.763498 -272.824052 
L 143.395239 -272.730018 
L 142.02698 -272.648897 
L 140.658721 -272.579279 
L 139.290462 -272.519801 
L 137.922203 -272.469179 
L 136.553945 -272.426236 
L 135.185686 -272.389906 
L 133.817427 -272.359244 
L 132.449168 -272.333416 
L 131.080909 -272.311696 
L 129.71265 -272.293456 
L 128.344391 -272.278157 
L 126.976133 -272.265336 
L 125.607874 -272.254603 
L 124.239615 -272.245622 
L 122.871356 -272.238112 
L 121.503097 -272.231836 
L 120.134838 -272.226592 
L 118.766579 -272.222212 
L 117.39832 -272.218556 
L 116.030062 -272.215503 
L 114.661803 -272.212956 
L 113.293544 -272.21083 
L 111.925285 -272.209057 
L 110.557026 -272.207577 
L 109.188767 -272.206343 
L 107.820508 -272.205314 
L 106.45225 -272.204455 
L 105.083991 -272.203739 
L 103.715732 -272.203142 
L 102.347473 -272.202644 
L 100.979214 -272.202229 
L 99.610955 -272.201883 
L 98.242696 -272.201594 
L 96.874438 -272.201353 
L 95.506179 -272.201152 
L 94.13792 -272.200985 
L 92.769661 -272.200845 
z
"/>
    </defs>
    <g clip-path="url(#p34bf710507)">
     <use xlink:href="#mbb295fd696" x="0" y="299.52" style="fill: #406992; fill-opacity: 0.05"/>
    </g>
   </g>
   <g id="tf-swoop-YD">
    <defs>
     <path id="m7f3060702b" d="M 92.769661 -45.290355 
L 92.769661 -70.388671 
L 94.13792 -70.388531 
L 95.506179 -70.388364 
L 96.874438 -70.388163 
L 98.242696 -70.387922 
L 99.610955 -70.387634 
L 100.979214 -70.387287 
L 102.347473 -70.386872 
L 103.715732 -70.386374 
L 105.083991 -70.385777 
L 106.45225 -70.385061 
L 107.820508 -70.384203 
L 109.188767 -70.383173 
L 110.557026 -70.381939 
L 111.925285 -70.380459 
L 113.293544 -70.378686 
L 114.661803 -70.37656 
L 116.030062 -70.374013 
L 117.39832 -70.370961 
L 118.766579 -70.367304 
L 120.134838 -70.362924 
L 121.503097 -70.357681 
L 122.871356 -70.351404 
L 124.239615 -70.343894 
L 125.607874 -70.334913 
L 126.976133 -70.32418 
L 128.344391 -70.31136 
L 129.71265 -70.29606 
L 131.080909 -70.277821 
L 132.449168 -70.2561 
L 133.817427 -70.230272 
L 135.185686 -70.19961 
L 136.553945 -70.16328 
L 137.922203 -70.120337 
L 139.290462 -70.069715 
L 140.658721 -70.010237 
L 142.02698 -69.940619 
L 143.395239 -69.859498 
L 144.763498 -69.765464 
L 146.131757 -69.657118 
L 147.500015 -69.533148 
L 148.868274 -69.392424 
L 150.236533 -69.23412 
L 151.604792 -69.057837 
L 152.973051 -68.863739 
L 154.34131 -68.652667 
L 155.709569 -68.426216 
L 157.077827 -68.186761 
L 158.446086 -67.937404 
L 159.814345 -67.681844 
L 161.182604 -67.42417 
L 162.550863 -67.16861 
L 163.919122 -66.919253 
L 165.287381 -66.679798 
L 166.655639 -66.453347 
L 168.023898 -66.242275 
L 169.392157 -66.048177 
L 170.760416 -65.871894 
L 172.128675 -65.71359 
L 173.496934 -65.572866 
L 174.865193 -65.448896 
L 176.233451 -65.34055 
L 177.60171 -65.246516 
L 178.969969 -65.165395 
L 180.338228 -65.095777 
L 181.706487 -65.036299 
L 183.074746 -64.985677 
L 184.443005 -64.942734 
L 185.811263 -64.906404 
L 187.179522 -64.875742 
L 188.547781 -64.849914 
L 189.91604 -64.828194 
L 191.284299 -64.809954 
L 192.652558 -64.794654 
L 194.020817 -64.781834 
L 195.389076 -64.771101 
L 196.757334 -64.76212 
L 198.125593 -64.75461 
L 199.493852 -64.748334 
L 200.862111 -64.74309 
L 202.23037 -64.73871 
L 203.598629 -64.735054 
L 204.966888 -64.732001 
L 206.335146 -64.729454 
L 207.703405 -64.727328 
L 209.071664 -64.725555 
L 210.439923 -64.724075 
L 211.808182 -64.722841 
L 213.176441 -64.721812 
L 214.5447 -64.720953 
L 215.912958 -64.720237 
L 217.281217 -64.71964 
L 218.649476 -64.719142 
L 220.017735 -64.718727 
L 221.385994 -64.71838 
L 222.754253 -64.718092 
L 224.122512 -64.717851 
L 225.49077 -64.71765 
L 226.859029 -64.717483 
L 228.227288 -64.717343 
L 228.227288 -39.619027 
L 228.227288 -39.619027 
L 226.859029 -39.619167 
L 225.49077 -39.619334 
L 224.122512 -39.619535 
L 222.754253 -39.619776 
L 221.385994 -39.620064 
L 220.017735 -39.620411 
L 218.649476 -39.620826 
L 217.281217 -39.621324 
L 215.912958 -39.621921 
L 214.5447 -39.622637 
L 213.176441 -39.623495 
L 211.808182 -39.624525 
L 210.439923 -39.625759 
L 209.071664 -39.627238 
L 207.703405 -39.629012 
L 206.335146 -39.631138 
L 204.966888 -39.633685 
L 203.598629 -39.636737 
L 202.23037 -39.640394 
L 200.862111 -39.644774 
L 199.493852 -39.650017 
L 198.125593 -39.656294 
L 196.757334 -39.663804 
L 195.389076 -39.672784 
L 194.020817 -39.683518 
L 192.652558 -39.696338 
L 191.284299 -39.711638 
L 189.91604 -39.729877 
L 188.547781 -39.751598 
L 187.179522 -39.777426 
L 185.811263 -39.808088 
L 184.443005 -39.844418 
L 183.074746 -39.887361 
L 181.706487 -39.937983 
L 180.338228 -39.997461 
L 178.969969 -40.067078 
L 177.60171 -40.1482 
L 176.233451 -40.242234 
L 174.865193 -40.35058 
L 173.496934 -40.47455 
L 172.128675 -40.615274 
L 170.760416 -40.773578 
L 169.392157 -40.949861 
L 168.023898 -41.143959 
L 166.655639 -41.355031 
L 165.287381 -41.581482 
L 163.919122 -41.820937 
L 162.550863 -42.070294 
L 161.182604 -42.325854 
L 159.814345 -42.583528 
L 158.446086 -42.839088 
L 157.077827 -43.088445 
L 155.709569 -43.327899 
L 154.34131 -43.554351 
L 152.973051 -43.765423 
L 151.604792 -43.959521 
L 150.236533 -44.135804 
L 148.868274 -44.294108 
L 147.500015 -44.434831 
L 146.131757 -44.558802 
L 144.763498 -44.667148 
L 143.395239 -44.761182 
L 142.02698 -44.842303 
L 140.658721 -44.911921 
L 139.290462 -44.971399 
L 137.922203 -45.022021 
L 136.553945 -45.064964 
L 135.185686 -45.101294 
L 133.817427 -45.131956 
L 132.449168 -45.157784 
L 131.080909 -45.179504 
L 129.71265 -45.197744 
L 128.344391 -45.213043 
L 126.976133 -45.225864 
L 125.607874 -45.236597 
L 124.239615 -45.245578 
L 122.871356 -45.253088 
L 121.503097 -45.259364 
L 120.134838 -45.264608 
L 118.766579 -45.268988 
L 117.39832 -45.272644 
L 116.030062 -45.275697 
L 114.661803 -45.278244 
L 113.293544 -45.28037 
L 111.925285 -45.282143 
L 110.557026 -45.283623 
L 109.188767 -45.284857 
L 107.820508 -45.285886 
L 106.45225 -45.286745 
L 105.083991 -45.287461 
L 103.715732 -45.288058 
L 102.347473 -45.288556 
L 100.979214 -45.288971 
L 99.610955 -45.289317 
L 98.242696 -45.289606 
L 96.874438 -45.289847 
L 95.506179 -45.290048 
L 94.13792 -45.290215 
L 92.769661 -45.290355 
z
"/>
    </defs>
    <g clip-path="url(#p34bf710507)">
     <use xlink:href="#m7f3060702b" x="0" y="299.52" style="fill: #b78935; fill-opacity: 0.05"/>
    </g>
   </g>
   <g id="tf-bar-ND">
    <defs>
     <path id="mce65fbca8e" d="M 228.227288 -76.062098 
L 228.227288 -277.872873 
L 243.278136 -277.872873 
L 243.278136 -76.062098 
L 243.278136 -76.062098 
L 228.227288 -76.062098 
z
"/>
    </defs>
    <g clip-path="url(#p34bf710507)">
     <use xlink:href="#mce65fbca8e" x="0" y="299.52" style="fill: #406992; fill-opacity: 0.25"/>
    </g>
   </g>
   <g id="tf-bar-YD">
    <defs>
     <path id="m29a2847e8d" d="M 228.227288 -39.618327 
L 228.227288 -64.716643 
L 243.278136 -64.716643 
L 243.278136 -39.618327 
L 243.278136 -39.618327 
L 228.227288 -39.618327 
z
"/>
    </defs>
    <g clip-path="url(#p34bf710507)">
     <use xlink:href="#m29a2847e8d" x="0" y="299.52" style="fill: #b78935; fill-opacity: 0.25"/>
    </g>
   </g>
   <g id="tf-swoop-YD-ND">
    <defs>
     <path id="mca093774af" d="M 243.278136 -58.118801 
L 243.278136 -64.715943 
L 244.646394 -64.715804 
L 246.014653 -64.715636 
L 247.382912 -64.715436 
L 248.751171 -64.715195 
L 250.11943 -64.714906 
L 251.487689 -64.71456 
L 252.855948 -64.714145 
L 254.224206 -64.713647 
L 255.592465 -64.71305 
L 256.960724 -64.712334 
L 258.328983 -64.711475 
L 259.697242 -64.710446 
L 261.065501 -64.709212 
L 262.43376 -64.707732 
L 263.802018 -64.705959 
L 265.170277 -64.703833 
L 266.538536 -64.701286 
L 267.906795 -64.698233 
L 269.275054 -64.694577 
L 270.643313 -64.690197 
L 272.011572 -64.684953 
L 273.379831 -64.678677 
L 274.748089 -64.671167 
L 276.116348 -64.662186 
L 277.484607 -64.651452 
L 278.852866 -64.638632 
L 280.221125 -64.623333 
L 281.589384 -64.605093 
L 282.957643 -64.583373 
L 284.325901 -64.557545 
L 285.69416 -64.526882 
L 287.062419 -64.490553 
L 288.430678 -64.447609 
L 289.798937 -64.396988 
L 291.167196 -64.33751 
L 292.535455 -64.267892 
L 293.903713 -64.186771 
L 295.271972 -64.092737 
L 296.640231 -63.984391 
L 298.00849 -63.86042 
L 299.376749 -63.719697 
L 300.745008 -63.561393 
L 302.113267 -63.38511 
L 303.481525 -63.191012 
L 304.849784 -62.979939 
L 306.218043 -62.753488 
L 307.586302 -62.514033 
L 308.954561 -62.264677 
L 310.32282 -62.009117 
L 311.691079 -61.751443 
L 313.059337 -61.495883 
L 314.427596 -61.246526 
L 315.795855 -61.007071 
L 317.164114 -60.78062 
L 318.532373 -60.569547 
L 319.900632 -60.37545 
L 321.268891 -60.199167 
L 322.637149 -60.040862 
L 324.005408 -59.900139 
L 325.373667 -59.776169 
L 326.741926 -59.667823 
L 328.110185 -59.573789 
L 329.478444 -59.492667 
L 330.846703 -59.42305 
L 332.214961 -59.363572 
L 333.58322 -59.31295 
L 334.951479 -59.270007 
L 336.319738 -59.233677 
L 337.687997 -59.203015 
L 339.056256 -59.177186 
L 340.424515 -59.155466 
L 341.792773 -59.137226 
L 343.161032 -59.121927 
L 344.529291 -59.109107 
L 345.89755 -59.098373 
L 347.265809 -59.089393 
L 348.634068 -59.081883 
L 350.002327 -59.075606 
L 351.370586 -59.070362 
L 352.738844 -59.065983 
L 354.107103 -59.062326 
L 355.475362 -59.059274 
L 356.843621 -59.056726 
L 358.21188 -59.054601 
L 359.580139 -59.052827 
L 360.948398 -59.051348 
L 362.316656 -59.050114 
L 363.684915 -59.049084 
L 365.053174 -59.048226 
L 366.421433 -59.04751 
L 367.789692 -59.046913 
L 369.157951 -59.046415 
L 370.52621 -59.045999 
L 371.894468 -59.045653 
L 373.262727 -59.045364 
L 374.630986 -59.045124 
L 375.999245 -59.044923 
L 377.367504 -59.044756 
L 378.735763 -59.044616 
L 378.735763 -52.447474 
L 378.735763 -52.447474 
L 377.367504 -52.447613 
L 375.999245 -52.447781 
L 374.630986 -52.447981 
L 373.262727 -52.448222 
L 371.894468 -52.448511 
L 370.52621 -52.448857 
L 369.157951 -52.449272 
L 367.789692 -52.44977 
L 366.421433 -52.450367 
L 365.053174 -52.451083 
L 363.684915 -52.451942 
L 362.316656 -52.452971 
L 360.948398 -52.454205 
L 359.580139 -52.455685 
L 358.21188 -52.457458 
L 356.843621 -52.459584 
L 355.475362 -52.462132 
L 354.107103 -52.465184 
L 352.738844 -52.46884 
L 351.370586 -52.47322 
L 350.002327 -52.478464 
L 348.634068 -52.48474 
L 347.265809 -52.49225 
L 345.89755 -52.501231 
L 344.529291 -52.511965 
L 343.161032 -52.524785 
L 341.792773 -52.540084 
L 340.424515 -52.558324 
L 339.056256 -52.580044 
L 337.687997 -52.605872 
L 336.319738 -52.636535 
L 334.951479 -52.672864 
L 333.58322 -52.715808 
L 332.214961 -52.766429 
L 330.846703 -52.825907 
L 329.478444 -52.895525 
L 328.110185 -52.976646 
L 326.741926 -53.07068 
L 325.373667 -53.179026 
L 324.005408 -53.302997 
L 322.637149 -53.44372 
L 321.268891 -53.602024 
L 319.900632 -53.778307 
L 318.532373 -53.972405 
L 317.164114 -54.183478 
L 315.795855 -54.409929 
L 314.427596 -54.649384 
L 313.059337 -54.89874 
L 311.691079 -55.1543 
L 310.32282 -55.411974 
L 308.954561 -55.667535 
L 307.586302 -55.916891 
L 306.218043 -56.156346 
L 304.849784 -56.382797 
L 303.481525 -56.59387 
L 302.113267 -56.787968 
L 300.745008 -56.96425 
L 299.376749 -57.122555 
L 298.00849 -57.263278 
L 296.640231 -57.387248 
L 295.271972 -57.495594 
L 293.903713 -57.589629 
L 292.535455 -57.67075 
L 291.167196 -57.740367 
L 289.798937 -57.799845 
L 288.430678 -57.850467 
L 287.062419 -57.89341 
L 285.69416 -57.92974 
L 284.325901 -57.960402 
L 282.957643 -57.986231 
L 281.589384 -58.007951 
L 280.221125 -58.026191 
L 278.852866 -58.04149 
L 277.484607 -58.05431 
L 276.116348 -58.065044 
L 274.748089 -58.074025 
L 273.379831 -58.081534 
L 272.011572 -58.087811 
L 270.643313 -58.093055 
L 269.275054 -58.097434 
L 267.906795 -58.101091 
L 266.538536 -58.104143 
L 265.170277 -58.106691 
L 263.802018 -58.108816 
L 262.43376 -58.11059 
L 261.065501 -58.112069 
L 259.697242 -58.113303 
L 258.328983 -58.114333 
L 256.960724 -58.115191 
L 255.592465 -58.115907 
L 254.224206 -58.116504 
L 252.855948 -58.117002 
L 251.487689 -58.117418 
L 250.11943 -58.117764 
L 248.751171 -58.118053 
L 247.382912 -58.118293 
L 246.014653 -58.118494 
L 244.646394 -58.118661 
L 243.278136 -58.118801 
z
"/>
    </defs>
    <g clip-path="url(#p34bf710507)">
     <use xlink:href="#mca093774af" x="0" y="299.52" style="fill: #dbc49a; fill-opacity: 0.05"/>
    </g>
   </g>
   <g id="tf-swoop-YD-YD">
    <defs>
     <path id="m460d7edefc" d="M 243.278136 -39.616227 
L 243.278136 -58.117401 
L 244.646394 -58.116982 
L 246.014653 -58.11648 
L 247.382912 -58.115878 
L 248.751171 -58.115156 
L 250.11943 -58.11429 
L 251.487689 -58.113251 
L 252.855948 -58.112005 
L 254.224206 -58.110512 
L 255.592465 -58.10872 
L 256.960724 -58.106572 
L 258.328983 -58.103997 
L 259.697242 -58.100908 
L 261.065501 -58.097206 
L 262.43376 -58.092767 
L 263.802018 -58.087447 
L 265.170277 -58.08107 
L 266.538536 -58.073428 
L 267.906795 -58.064271 
L 269.275054 -58.053301 
L 270.643313 -58.040162 
L 272.011572 -58.024431 
L 273.379831 -58.005601 
L 274.748089 -57.983072 
L 276.116348 -57.956129 
L 277.484607 -57.923928 
L 278.852866 -57.885468 
L 280.221125 -57.83957 
L 281.589384 -57.784851 
L 282.957643 -57.71969 
L 284.325901 -57.642205 
L 285.69416 -57.550218 
L 287.062419 -57.441229 
L 288.430678 -57.312399 
L 289.798937 -57.160534 
L 291.167196 -56.9821 
L 292.535455 -56.773247 
L 293.903713 -56.529884 
L 295.271972 -56.247781 
L 296.640231 -55.922743 
L 298.00849 -55.550832 
L 299.376749 -55.128662 
L 300.745008 -54.653749 
L 302.113267 -54.124901 
L 303.481525 -53.542607 
L 304.849784 -52.909389 
L 306.218043 -52.230036 
L 307.586302 -51.511671 
L 308.954561 -50.763602 
L 310.32282 -49.996921 
L 311.691079 -49.223899 
L 313.059337 -48.457219 
L 314.427596 -47.709149 
L 315.795855 -46.990784 
L 317.164114 -46.311431 
L 318.532373 -45.678213 
L 319.900632 -45.095919 
L 321.268891 -44.567071 
L 322.637149 -44.092158 
L 324.005408 -43.669988 
L 325.373667 -43.298077 
L 326.741926 -42.973039 
L 328.110185 -42.690937 
L 329.478444 -42.447573 
L 330.846703 -42.23872 
L 332.214961 -42.060286 
L 333.58322 -41.908421 
L 334.951479 -41.779591 
L 336.319738 -41.670602 
L 337.687997 -41.578615 
L 339.056256 -41.50113 
L 340.424515 -41.43597 
L 341.792773 -41.38125 
L 343.161032 -41.335352 
L 344.529291 -41.296892 
L 345.89755 -41.264691 
L 347.265809 -41.237749 
L 348.634068 -41.215219 
L 350.002327 -41.19639 
L 351.370586 -41.180658 
L 352.738844 -41.16752 
L 354.107103 -41.15655 
L 355.475362 -41.147393 
L 356.843621 -41.13975 
L 358.21188 -41.133373 
L 359.580139 -41.128053 
L 360.948398 -41.123614 
L 362.316656 -41.119912 
L 363.684915 -41.116824 
L 365.053174 -41.114248 
L 366.421433 -41.1121 
L 367.789692 -41.110309 
L 369.157951 -41.108815 
L 370.52621 -41.107569 
L 371.894468 -41.10653 
L 373.262727 -41.105664 
L 374.630986 -41.104942 
L 375.999245 -41.10434 
L 377.367504 -41.103838 
L 378.735763 -41.103419 
L 378.735763 -22.602245 
L 378.735763 -22.602245 
L 377.367504 -22.602664 
L 375.999245 -22.603166 
L 374.630986 -22.603768 
L 373.262727 -22.604491 
L 371.894468 -22.605357 
L 370.52621 -22.606395 
L 369.157951 -22.607641 
L 367.789692 -22.609135 
L 366.421433 -22.610926 
L 365.053174 -22.613074 
L 363.684915 -22.61565 
L 362.316656 -22.618738 
L 360.948398 -22.62244 
L 359.580139 -22.626879 
L 358.21188 -22.6322 
L 356.843621 -22.638577 
L 355.475362 -22.646219 
L 354.107103 -22.655376 
L 352.738844 -22.666346 
L 351.370586 -22.679484 
L 350.002327 -22.695216 
L 348.634068 -22.714046 
L 347.265809 -22.736575 
L 345.89755 -22.763517 
L 344.529291 -22.795718 
L 343.161032 -22.834179 
L 341.792773 -22.880076 
L 340.424515 -22.934796 
L 339.056256 -22.999956 
L 337.687997 -23.077441 
L 336.319738 -23.169428 
L 334.951479 -23.278417 
L 333.58322 -23.407248 
L 332.214961 -23.559112 
L 330.846703 -23.737547 
L 329.478444 -23.946399 
L 328.110185 -24.189763 
L 326.741926 -24.471866 
L 325.373667 -24.796904 
L 324.005408 -25.168815 
L 322.637149 -25.590984 
L 321.268891 -26.065897 
L 319.900632 -26.594746 
L 318.532373 -27.177039 
L 317.164114 -27.810257 
L 315.795855 -28.489611 
L 314.427596 -29.207975 
L 313.059337 -29.956045 
L 311.691079 -30.722726 
L 310.32282 -31.495747 
L 308.954561 -32.262428 
L 307.586302 -33.010498 
L 306.218043 -33.728862 
L 304.849784 -34.408215 
L 303.481525 -35.041433 
L 302.113267 -35.623727 
L 300.745008 -36.152576 
L 299.376749 -36.627488 
L 298.00849 -37.049658 
L 296.640231 -37.421569 
L 295.271972 -37.746607 
L 293.903713 -38.02871 
L 292.535455 -38.272074 
L 291.167196 -38.480926 
L 289.798937 -38.659361 
L 288.430678 -38.811225 
L 287.062419 -38.940056 
L 285.69416 -39.049044 
L 284.325901 -39.141032 
L 282.957643 -39.218517 
L 281.589384 -39.283677 
L 280.221125 -39.338396 
L 278.852866 -39.384294 
L 277.484607 -39.422754 
L 276.116348 -39.454956 
L 274.748089 -39.481898 
L 273.379831 -39.504427 
L 272.011572 -39.523257 
L 270.643313 -39.538988 
L 269.275054 -39.552127 
L 267.906795 -39.563097 
L 266.538536 -39.572254 
L 265.170277 -39.579896 
L 263.802018 -39.586273 
L 262.43376 -39.591594 
L 261.065501 -39.596032 
L 259.697242 -39.599735 
L 258.328983 -39.602823 
L 256.960724 -39.605398 
L 255.592465 -39.607546 
L 254.224206 -39.609338 
L 252.855948 -39.610832 
L 251.487689 -39.612077 
L 250.11943 -39.613116 
L 248.751171 -39.613982 
L 247.382912 -39.614704 
L 246.014653 -39.615307 
L 244.646394 -39.615809 
L 243.278136 -39.616227 
z
"/>
    </defs>
    <g clip-path="url(#p34bf710507)">
     <use xlink:href="#m460d7edefc" x="0" y="299.52" style="fill: #b78935; fill-opacity: 0.05"/>
    </g>
   </g>
   <g id="tf-swoop-ND-YD">
    <defs>
     <path id="m5983be1567" d="M 243.278136 -83.515299 
L 243.278136 -76.062798 
L 244.646394 -76.062937 
L 246.014653 -76.063105 
L 247.382912 -76.063306 
L 248.751171 -76.063546 
L 250.11943 -76.063835 
L 251.487689 -76.064181 
L 252.855948 -76.064596 
L 254.224206 -76.065094 
L 255.592465 -76.065692 
L 256.960724 -76.066408 
L 258.328983 -76.067266 
L 259.697242 -76.068295 
L 261.065501 -76.06953 
L 262.43376 -76.071009 
L 263.802018 -76.072783 
L 265.170277 -76.074908 
L 266.538536 -76.077456 
L 267.906795 -76.080508 
L 269.275054 -76.084165 
L 270.643313 -76.088544 
L 272.011572 -76.093788 
L 273.379831 -76.100065 
L 274.748089 -76.107574 
L 276.116348 -76.116555 
L 277.484607 -76.127289 
L 278.852866 -76.140109 
L 280.221125 -76.155408 
L 281.589384 -76.173648 
L 282.957643 -76.195368 
L 284.325901 -76.221196 
L 285.69416 -76.251859 
L 287.062419 -76.288188 
L 288.430678 -76.331132 
L 289.798937 -76.381753 
L 291.167196 -76.441232 
L 292.535455 -76.510849 
L 293.903713 -76.59197 
L 295.271972 -76.686005 
L 296.640231 -76.794351 
L 298.00849 -76.918321 
L 299.376749 -77.059044 
L 300.745008 -77.217348 
L 302.113267 -77.393631 
L 303.481525 -77.587729 
L 304.849784 -77.798802 
L 306.218043 -78.025253 
L 307.586302 -78.264708 
L 308.954561 -78.514064 
L 310.32282 -78.769625 
L 311.691079 -79.027298 
L 313.059337 -79.282859 
L 314.427596 -79.532215 
L 315.795855 -79.77167 
L 317.164114 -79.998121 
L 318.532373 -80.209194 
L 319.900632 -80.403292 
L 321.268891 -80.579575 
L 322.637149 -80.737879 
L 324.005408 -80.878602 
L 325.373667 -81.002572 
L 326.741926 -81.110918 
L 328.110185 -81.204953 
L 329.478444 -81.286074 
L 330.846703 -81.355691 
L 332.214961 -81.41517 
L 333.58322 -81.465791 
L 334.951479 -81.508735 
L 336.319738 -81.545064 
L 337.687997 -81.575727 
L 339.056256 -81.601555 
L 340.424515 -81.623275 
L 341.792773 -81.641515 
L 343.161032 -81.656814 
L 344.529291 -81.669634 
L 345.89755 -81.680368 
L 347.265809 -81.689349 
L 348.634068 -81.696858 
L 350.002327 -81.703135 
L 351.370586 -81.708379 
L 352.738844 -81.712758 
L 354.107103 -81.716415 
L 355.475362 -81.719467 
L 356.843621 -81.722015 
L 358.21188 -81.72414 
L 359.580139 -81.725914 
L 360.948398 -81.727394 
L 362.316656 -81.728628 
L 363.684915 -81.729657 
L 365.053174 -81.730516 
L 366.421433 -81.731232 
L 367.789692 -81.731829 
L 369.157951 -81.732327 
L 370.52621 -81.732742 
L 371.894468 -81.733088 
L 373.262727 -81.733377 
L 374.630986 -81.733618 
L 375.999245 -81.733818 
L 377.367504 -81.733986 
L 378.735763 -81.734125 
L 378.735763 -89.186626 
L 378.735763 -89.186626 
L 377.367504 -89.186487 
L 375.999245 -89.186319 
L 374.630986 -89.186118 
L 373.262727 -89.185878 
L 371.894468 -89.185589 
L 370.52621 -89.185243 
L 369.157951 -89.184828 
L 367.789692 -89.18433 
L 366.421433 -89.183732 
L 365.053174 -89.183016 
L 363.684915 -89.182158 
L 362.316656 -89.181129 
L 360.948398 -89.179894 
L 359.580139 -89.178415 
L 358.21188 -89.176641 
L 356.843621 -89.174516 
L 355.475362 -89.171968 
L 354.107103 -89.168916 
L 352.738844 -89.165259 
L 351.370586 -89.16088 
L 350.002327 -89.155636 
L 348.634068 -89.149359 
L 347.265809 -89.14185 
L 345.89755 -89.132869 
L 344.529291 -89.122135 
L 343.161032 -89.109315 
L 341.792773 -89.094016 
L 340.424515 -89.075776 
L 339.056256 -89.054056 
L 337.687997 -89.028228 
L 336.319738 -88.997565 
L 334.951479 -88.961236 
L 333.58322 -88.918292 
L 332.214961 -88.867671 
L 330.846703 -88.808192 
L 329.478444 -88.738575 
L 328.110185 -88.657454 
L 326.741926 -88.563419 
L 325.373667 -88.455073 
L 324.005408 -88.331103 
L 322.637149 -88.19038 
L 321.268891 -88.032076 
L 319.900632 -87.855793 
L 318.532373 -87.661695 
L 317.164114 -87.450622 
L 315.795855 -87.224171 
L 314.427596 -86.984716 
L 313.059337 -86.73536 
L 311.691079 -86.479799 
L 310.32282 -86.222126 
L 308.954561 -85.966565 
L 307.586302 -85.717209 
L 306.218043 -85.477754 
L 304.849784 -85.251303 
L 303.481525 -85.04023 
L 302.113267 -84.846132 
L 300.745008 -84.669849 
L 299.376749 -84.511545 
L 298.00849 -84.370822 
L 296.640231 -84.246852 
L 295.271972 -84.138506 
L 293.903713 -84.044471 
L 292.535455 -83.96335 
L 291.167196 -83.893733 
L 289.798937 -83.834254 
L 288.430678 -83.783633 
L 287.062419 -83.740689 
L 285.69416 -83.70436 
L 284.325901 -83.673697 
L 282.957643 -83.647869 
L 281.589384 -83.626149 
L 280.221125 -83.607909 
L 278.852866 -83.59261 
L 277.484607 -83.57979 
L 276.116348 -83.569056 
L 274.748089 -83.560075 
L 273.379831 -83.552566 
L 272.011572 -83.546289 
L 270.643313 -83.541045 
L 269.275054 -83.536666 
L 267.906795 -83.533009 
L 266.538536 -83.529957 
L 265.170277 -83.527409 
L 263.802018 -83.525283 
L 262.43376 -83.52351 
L 261.065501 -83.52203 
L 259.697242 -83.520796 
L 258.328983 -83.519767 
L 256.960724 -83.518908 
L 255.592465 -83.518192 
L 254.224206 -83.517595 
L 252.855948 -83.517097 
L 251.487689 -83.516682 
L 250.11943 -83.516336 
L 248.751171 -83.516047 
L 247.382912 -83.515806 
L 246.014653 -83.515606 
L 244.646394 -83.515438 
L 243.278136 -83.515299 
z
"/>
    </defs>
    <g clip-path="url(#p34bf710507)">
     <use xlink:href="#m5983be1567" x="0" y="299.52" style="fill: #9fb4c8; fill-opacity: 0.05"/>
    </g>
   </g>
   <g id="tf-swoop-ND-ND">
    <defs>
     <path id="m7d3cd0e70f" d="M 243.278136 -277.874973 
L 243.278136 -83.516699 
L 244.646394 -83.517117 
L 246.014653 -83.51762 
L 247.382912 -83.518222 
L 248.751171 -83.518944 
L 250.11943 -83.51981 
L 251.487689 -83.520849 
L 252.855948 -83.522094 
L 254.224206 -83.523588 
L 255.592465 -83.52538 
L 256.960724 -83.527528 
L 258.328983 -83.530103 
L 259.697242 -83.533191 
L 261.065501 -83.536894 
L 262.43376 -83.541332 
L 263.802018 -83.546653 
L 265.170277 -83.55303 
L 266.538536 -83.560672 
L 267.906795 -83.569829 
L 269.275054 -83.580799 
L 270.643313 -83.593938 
L 272.011572 -83.609669 
L 273.379831 -83.628499 
L 274.748089 -83.651028 
L 276.116348 -83.67797 
L 277.484607 -83.710172 
L 278.852866 -83.748632 
L 280.221125 -83.79453 
L 281.589384 -83.849249 
L 282.957643 -83.91441 
L 284.325901 -83.991894 
L 285.69416 -84.083882 
L 287.062419 -84.19287 
L 288.430678 -84.321701 
L 289.798937 -84.473565 
L 291.167196 -84.652 
L 292.535455 -84.860852 
L 293.903713 -85.104216 
L 295.271972 -85.386319 
L 296.640231 -85.711357 
L 298.00849 -86.083268 
L 299.376749 -86.505438 
L 300.745008 -86.98035 
L 302.113267 -87.509199 
L 303.481525 -88.091493 
L 304.849784 -88.724711 
L 306.218043 -89.404064 
L 307.586302 -90.122428 
L 308.954561 -90.870498 
L 310.32282 -91.637179 
L 311.691079 -92.4102 
L 313.059337 -93.176881 
L 314.427596 -93.924951 
L 315.795855 -94.643315 
L 317.164114 -95.322669 
L 318.532373 -95.955887 
L 319.900632 -96.53818 
L 321.268891 -97.067029 
L 322.637149 -97.541942 
L 324.005408 -97.964111 
L 325.373667 -98.336022 
L 326.741926 -98.66106 
L 328.110185 -98.943163 
L 329.478444 -99.186527 
L 330.846703 -99.395379 
L 332.214961 -99.573814 
L 333.58322 -99.725678 
L 334.951479 -99.854509 
L 336.319738 -99.963498 
L 337.687997 -100.055485 
L 339.056256 -100.13297 
L 340.424515 -100.19813 
L 341.792773 -100.25285 
L 343.161032 -100.298747 
L 344.529291 -100.337208 
L 345.89755 -100.369409 
L 347.265809 -100.396351 
L 348.634068 -100.41888 
L 350.002327 -100.43771 
L 351.370586 -100.453442 
L 352.738844 -100.46658 
L 354.107103 -100.47755 
L 355.475362 -100.486707 
L 356.843621 -100.494349 
L 358.21188 -100.500727 
L 359.580139 -100.506047 
L 360.948398 -100.510486 
L 362.316656 -100.514188 
L 363.684915 -100.517276 
L 365.053174 -100.519852 
L 366.421433 -100.522 
L 367.789692 -100.523791 
L 369.157951 -100.525285 
L 370.52621 -100.526531 
L 371.894468 -100.527569 
L 373.262727 -100.528435 
L 374.630986 -100.529158 
L 375.999245 -100.52976 
L 377.367504 -100.530262 
L 378.735763 -100.530681 
L 378.735763 -294.888955 
L 378.735763 -294.888955 
L 377.367504 -294.888536 
L 375.999245 -294.888034 
L 374.630986 -294.887432 
L 373.262727 -294.886709 
L 371.894468 -294.885843 
L 370.52621 -294.884805 
L 369.157951 -294.883559 
L 367.789692 -294.882065 
L 366.421433 -294.880274 
L 365.053174 -294.878126 
L 363.684915 -294.87555 
L 362.316656 -294.872462 
L 360.948398 -294.86876 
L 359.580139 -294.864321 
L 358.21188 -294.859 
L 356.843621 -294.852623 
L 355.475362 -294.844981 
L 354.107103 -294.835824 
L 352.738844 -294.824854 
L 351.370586 -294.811716 
L 350.002327 -294.795984 
L 348.634068 -294.777154 
L 347.265809 -294.754625 
L 345.89755 -294.727683 
L 344.529291 -294.695482 
L 343.161032 -294.657021 
L 341.792773 -294.611124 
L 340.424515 -294.556404 
L 339.056256 -294.491244 
L 337.687997 -294.413759 
L 336.319738 -294.321772 
L 334.951479 -294.212783 
L 333.58322 -294.083952 
L 332.214961 -293.932088 
L 330.846703 -293.753653 
L 329.478444 -293.544801 
L 328.110185 -293.301437 
L 326.741926 -293.019334 
L 325.373667 -292.694296 
L 324.005408 -292.322385 
L 322.637149 -291.900216 
L 321.268891 -291.425303 
L 319.900632 -290.896454 
L 318.532373 -290.314161 
L 317.164114 -289.680943 
L 315.795855 -289.001589 
L 314.427596 -288.283225 
L 313.059337 -287.535155 
L 311.691079 -286.768474 
L 310.32282 -285.995453 
L 308.954561 -285.228772 
L 307.586302 -284.480702 
L 306.218043 -283.762338 
L 304.849784 -283.082985 
L 303.481525 -282.449767 
L 302.113267 -281.867473 
L 300.745008 -281.338624 
L 299.376749 -280.863712 
L 298.00849 -280.441542 
L 296.640231 -280.069631 
L 295.271972 -279.744593 
L 293.903713 -279.46249 
L 292.535455 -279.219126 
L 291.167196 -279.010274 
L 289.798937 -278.831839 
L 288.430678 -278.679975 
L 287.062419 -278.551144 
L 285.69416 -278.442156 
L 284.325901 -278.350168 
L 282.957643 -278.272683 
L 281.589384 -278.207523 
L 280.221125 -278.152804 
L 278.852866 -278.106906 
L 277.484607 -278.068446 
L 276.116348 -278.036244 
L 274.748089 -278.009302 
L 273.379831 -277.986773 
L 272.011572 -277.967943 
L 270.643313 -277.952212 
L 269.275054 -277.939073 
L 267.906795 -277.928103 
L 266.538536 -277.918946 
L 265.170277 -277.911304 
L 263.802018 -277.904927 
L 262.43376 -277.899606 
L 261.065501 -277.895168 
L 259.697242 -277.891465 
L 258.328983 -277.888377 
L 256.960724 -277.885802 
L 255.592465 -277.883654 
L 254.224206 -277.881862 
L 252.855948 -277.880368 
L 251.487689 -277.879123 
L 250.11943 -277.878084 
L 248.751171 -277.877218 
L 247.382912 -277.876496 
L 246.014653 -277.875893 
L 244.646394 -277.875391 
L 243.278136 -277.874973 
z
"/>
    </defs>
    <g clip-path="url(#p34bf710507)">
     <use xlink:href="#m7d3cd0e70f" x="0" y="299.52" style="fill: #406992; fill-opacity: 0.05"/>
    </g>
   </g>
   <g id="tf-bar-YD-YD">
    <defs>
     <path id="m2b28e40044" d="M 378.735763 -22.600145 
L 378.735763 -41.101319 
L 393.78661 -41.101319 
L 393.78661 -22.600145 
L 393.78661 -22.600145 
L 378.735763 -22.600145 
z
"/>
    </defs>
    <g clip-path="url(#p34bf710507)">
     <use xlink:href="#m2b28e40044" x="0" y="299.52" style="fill: #b78935; fill-opacity: 0.25"/>
    </g>
   </g>
   <g id="tf-bar-YD-ND">
    <defs>
     <path id="mb0fe678deb" d="M 378.735763 -52.446774 
L 378.735763 -59.043916 
L 393.78661 -59.043916 
L 393.78661 -52.446774 
L 393.78661 -52.446774 
L 378.735763 -52.446774 
z
"/>
    </defs>
    <g clip-path="url(#p34bf710507)">
     <use xlink:href="#mb0fe678deb" x="0" y="299.52" style="fill: #dbc49a; fill-opacity: 0.25"/>
    </g>
   </g>
   <g id="tf-bar-ND-YD">
    <defs>
     <path id="m07eb73e766" d="M 378.735763 -81.734825 
L 378.735763 -89.187326 
L 393.78661 -89.187326 
L 393.78661 -81.734825 
L 393.78661 -81.734825 
L 378.735763 -81.734825 
z
"/>
    </defs>
    <g clip-path="url(#p34bf710507)">
     <use xlink:href="#m07eb73e766" x="0" y="299.52" style="fill: #9fb4c8; fill-opacity: 0.25"/>
    </g>
   </g>
   <g id="tf-bar-ND-ND">
    <defs>
     <path id="mef63bdcdca" d="M 378.735763 -100.532781 
L 378.735763 -294.891055 
L 393.78661 -294.891055 
L 393.78661 -100.532781 
L 393.78661 -100.532781 
L 378.735763 -100.532781 
z
"/>
    </defs>
    <g clip-path="url(#p34bf710507)">
     <use xlink:href="#mef63bdcdca" x="0" y="299.52" style="fill: #406992; fill-opacity: 0.25"/>
    </g>
   </g>
   <g id="text_1">
    <text style="font-weight: 300; font-size: 16px; font-family: 'Source Sans 3', sans-serif; fill: #595959" transform="translate(9.93839 136.06665)">All model</text>
    <text style="font-weight: 300; font-size: 16px; font-family: 'Source Sans 3', sans-serif; fill: #595959" transform="translate(-2.02911 153.48215)">predictions</text>
   </g>
   <g id="tf-label-YD">
    <text style="font-weight: 300; font-size: 16px; font-family: 'Source Sans 3', sans-serif; fill: #595959; opacity: 0" transform="translate(106.211864 225.017515)">Severe or extreme</text>
    <text style="font-weight: 300; font-size: 16px; font-family: 'Source Sans 3', sans-serif; fill: #595959; opacity: 0" transform="translate(99.676864 242.664015)">streamflow dought</text>
    <text style="font-weight: 300; font-size: 16px; font-family: 'Source Sans 3', sans-serif; fill: #595959; opacity: 0" transform="translate(159.071864 260.272015)">predicted</text>
    <text style="font-weight: 300; font-size: 16px; font-family: 'Source Sans 3', sans-serif; fill: #595959; opacity: 0" transform="translate(181.949364 277.687515)">11.1%</text>
   </g>
   <g id="tf-label-ND">
    <text style="font-weight: 300; font-size: 16px; font-family: 'Source Sans 3', sans-serif; fill: #595959; opacity: 0" transform="translate(104.449364 100.333015)">Neither severe nor</text>
    <text style="font-weight: 300; font-size: 16px; font-family: 'Source Sans 3', sans-serif; fill: #595959; opacity: 0" transform="translate(94.241864 117.748515)">extreme streamflow</text>
    <text style="font-weight: 300; font-size: 16px; font-family: 'Source Sans 3', sans-serif; fill: #595959; opacity: 0" transform="translate(109.469364 135.164015)">dought predicted</text>
    <text style="font-weight: 300; font-size: 16px; font-family: 'Source Sans 3', sans-serif; fill: #595959; opacity: 0" transform="translate(181.949364 152.772015)">88.9%</text>
   </g>
   <g id="tf-label-YD-YD">
    <text style="font-weight: 300; font-size: 16px; font-family: 'Source Sans 3', sans-serif; fill: #595959; opacity: 0" transform="translate(310.155339 254.177268)">Did occur</text>
    <text style="font-weight: 300; font-size: 16px; font-family: 'Source Sans 3', sans-serif; fill: #595959; opacity: 0" transform="translate(283.720339 271.745768)">(true positive)</text>
    <text style="font-weight: 300; font-size: 16px; font-family: 'Source Sans 3', sans-serif; fill: #595959; opacity: 0" transform="translate(340.010339 289.161268)">8.2%</text>
   </g>
   <g id="tf-label-YD-ND">
    <text style="font-weight: 300; font-size: 16px; font-family: 'Source Sans 3', sans-serif; fill: #595959; opacity: 0" transform="translate(285.195339 230.243655)">Did not occur</text>
    <text style="font-weight: 300; font-size: 16px; font-family: 'Source Sans 3', sans-serif; fill: #595959; opacity: 0" transform="translate(279.945339 247.890155)">(false positive)</text>
    <text style="font-weight: 300; font-size: 16px; font-family: 'Source Sans 3', sans-serif; fill: #595959; opacity: 0" transform="translate(340.010339 265.305655)">2.9%</text>
   </g>
   <g id="tf-label-ND-YD">
    <text style="font-weight: 300; font-size: 16px; font-family: 'Source Sans 3', sans-serif; fill: #595959; opacity: 0" transform="translate(256.720339 182.804424)">Severe or extreme</text>
    <text style="font-weight: 300; font-size: 16px; font-family: 'Source Sans 3', sans-serif; fill: #595959; opacity: 0" transform="translate(245.290339 200.450924)">streamflow drought</text>
    <text style="font-weight: 300; font-size: 16px; font-family: 'Source Sans 3', sans-serif; fill: #595959; opacity: 0" transform="translate(313.965339 218.058924)">occurred</text>
    <text style="font-weight: 300; font-size: 16px; font-family: 'Source Sans 3', sans-serif; fill: #595959; opacity: 0" transform="translate(275.532839 235.705424)">(false negative)</text>
    <text style="font-weight: 300; font-size: 16px; font-family: 'Source Sans 3', sans-serif; fill: #595959; opacity: 0" transform="translate(340.010339 253.313424)">3.3%</text>
   </g>
   <g id="tf-label-ND-ND">
    <text style="font-weight: 300; font-size: 16px; font-family: 'Source Sans 3', sans-serif; fill: #595959; opacity: 0" transform="translate(254.957839 70.708082)">Neither severe nor</text>
    <text style="font-weight: 300; font-size: 16px; font-family: 'Source Sans 3', sans-serif; fill: #595959; opacity: 0" transform="translate(244.750339 88.123582)">extreme streamflow</text>
    <text style="font-weight: 300; font-size: 16px; font-family: 'Source Sans 3', sans-serif; fill: #595959; opacity: 0" transform="translate(264.362839 105.539082)">dought occurred</text>
    <text style="font-weight: 300; font-size: 16px; font-family: 'Source Sans 3', sans-serif; fill: #595959; opacity: 0" transform="translate(279.307839 123.300082)">(true negative)</text>
    <text style="font-weight: 300; font-size: 16px; font-family: 'Source Sans 3', sans-serif; fill: #595959; opacity: 0" transform="translate(332.457839 140.908082)">85.7%</text>
   </g>
  </g>
 </g>
 <defs>
  <clipPath id="p34bf710507">
   <rect x="9.99" y="-8.9856" width="399.6" height="299.52"/>
  </clipPath>
 </defs>
</svg>
