<?xml version="1.0" encoding="utf-8" standalone="no"?>
<!DOCTYPE svg PUBLIC "-//W3C//DTD SVG 1.1//EN"
  "http://www.w3.org/Graphics/SVG/1.1/DTD/svg11.dtd">
<svg xmlns:xlink="http://www.w3.org/1999/xlink" width="699.84px" height="524.88px" viewBox="0 0 699.84 524.88" xmlns="http://www.w3.org/2000/svg" version="1.1">
  <defs>
  <style type="text/css">*{stroke-linejoin: round; stroke-linecap: butt}</style>
 </defs>
 <g id="figure-forecast_truefalse_key">
  <g id="patch_1">
   <path d="M 0 524.88 
L 699.84 524.88 
L 699.84 0 
L 0 0 
z
" style="fill: #ffffff"/>
  </g>
  <g id="axis-forecast_truefalse_key">
   <g id="FillBetweenPolyCollection_1">
    <defs>
     <path id="m7fd770a86c" d="M 118.616949 -63.621818 
L 118.616949 -461.258182 
L 144.976271 -461.258182 
L 144.976271 -63.621818 
L 144.976271 -63.621818 
L 118.616949 -63.621818 
z
"/>
    </defs>
    <g clip-path="url(#pe7619fe313)">
     <use xlink:href="#m7fd770a86c" x="0" y="524.88" style="fill: #00264c"/>
    </g>
   </g>
   <g id="tf-swoop-ND">
    <defs>
     <path id="m36a363699a" d="M 144.976271 -461.259408 
L 144.976271 -107.605431 
L 147.372573 -107.605675 
L 149.768875 -107.605968 
L 152.165177 -107.60632 
L 154.561479 -107.606742 
L 156.957781 -107.607248 
L 159.354083 -107.607855 
L 161.750385 -107.608582 
L 164.146687 -107.609455 
L 166.542989 -107.610501 
L 168.939291 -107.611756 
L 171.335593 -107.613261 
L 173.731895 -107.615064 
L 176.128197 -107.617227 
L 178.524499 -107.61982 
L 180.920801 -107.622928 
L 183.317103 -107.626653 
L 185.713405 -107.631117 
L 188.109707 -107.636466 
L 190.506009 -107.642874 
L 192.902311 -107.650548 
L 195.298613 -107.659738 
L 197.694915 -107.670737 
L 200.091217 -107.683897 
L 202.487519 -107.699635 
L 204.883821 -107.718445 
L 207.280123 -107.740911 
L 209.676425 -107.767721 
L 212.072727 -107.799685 
L 214.469029 -107.837747 
L 216.865331 -107.883009 
L 219.261633 -107.936742 
L 221.657935 -108.000406 
L 224.054237 -108.07566 
L 226.450539 -108.164369 
L 228.846841 -108.268599 
L 231.243143 -108.390597 
L 233.639445 -108.532754 
L 236.035747 -108.69754 
L 238.432049 -108.887406 
L 240.828351 -109.104652 
L 243.224653 -109.351256 
L 245.620955 -109.628669 
L 248.017257 -109.937588 
L 250.413559 -110.277726 
L 252.809861 -110.647611 
L 255.206163 -111.044444 
L 257.602465 -111.464066 
L 259.998767 -111.901039 
L 262.395069 -112.348884 
L 264.791371 -112.800433 
L 267.187673 -113.248278 
L 269.583975 -113.685251 
L 271.980277 -114.104872 
L 274.376579 -114.501706 
L 276.772881 -114.871591 
L 279.169183 -115.211729 
L 281.565485 -115.520647 
L 283.961787 -115.79806 
L 286.358089 -116.044664 
L 288.754391 -116.26191 
L 291.150693 -116.451776 
L 293.546995 -116.616562 
L 295.943297 -116.75872 
L 298.339599 -116.880718 
L 300.735901 -116.984947 
L 303.132203 -117.073657 
L 305.528505 -117.148911 
L 307.924807 -117.212575 
L 310.321109 -117.266308 
L 312.717411 -117.31157 
L 315.113713 -117.349632 
L 317.510015 -117.381596 
L 319.906317 -117.408406 
L 322.302619 -117.430872 
L 324.698921 -117.449682 
L 327.095223 -117.46542 
L 329.491525 -117.47858 
L 331.887827 -117.489579 
L 334.284129 -117.498768 
L 336.680431 -117.506443 
L 339.076733 -117.512851 
L 341.473035 -117.5182 
L 343.869337 -117.522664 
L 346.265639 -117.526389 
L 348.661941 -117.529497 
L 351.058243 -117.53209 
L 353.454545 -117.534252 
L 355.850847 -117.536056 
L 358.247149 -117.537561 
L 360.643451 -117.538816 
L 363.039753 -117.539862 
L 365.436055 -117.540734 
L 367.832357 -117.541462 
L 370.228659 -117.542069 
L 372.624961 -117.542575 
L 375.021263 -117.542997 
L 377.417565 -117.543348 
L 379.813867 -117.543642 
L 382.210169 -117.543886 
L 382.210169 -471.197864 
L 382.210169 -471.197864 
L 379.813867 -471.19762 
L 377.417565 -471.197326 
L 375.021263 -471.196975 
L 372.624961 -471.196553 
L 370.228659 -471.196047 
L 367.832357 -471.19544 
L 365.436055 -471.194712 
L 363.039753 -471.19384 
L 360.643451 -471.192793 
L 358.247149 -471.191539 
L 355.850847 -471.190034 
L 353.454545 -471.18823 
L 351.058243 -471.186068 
L 348.661941 -471.183475 
L 346.265639 -471.180367 
L 343.869337 -471.176642 
L 341.473035 -471.172178 
L 339.076733 -471.166829 
L 336.680431 -471.160421 
L 334.284129 -471.152746 
L 331.887827 -471.143557 
L 329.491525 -471.132558 
L 327.095223 -471.119398 
L 324.698921 -471.10366 
L 322.302619 -471.08485 
L 319.906317 -471.062384 
L 317.510015 -471.035574 
L 315.113713 -471.00361 
L 312.717411 -470.965548 
L 310.321109 -470.920286 
L 307.924807 -470.866553 
L 305.528505 -470.802889 
L 303.132203 -470.727635 
L 300.735901 -470.638925 
L 298.339599 -470.534696 
L 295.943297 -470.412698 
L 293.546995 -470.27054 
L 291.150693 -470.105754 
L 288.754391 -469.915888 
L 286.358089 -469.698642 
L 283.961787 -469.452038 
L 281.565485 -469.174625 
L 279.169183 -468.865707 
L 276.772881 -468.525569 
L 274.376579 -468.155684 
L 271.980277 -467.75885 
L 269.583975 -467.339229 
L 267.187673 -466.902255 
L 264.791371 -466.454411 
L 262.395069 -466.002862 
L 259.998767 -465.555017 
L 257.602465 -465.118044 
L 255.206163 -464.698422 
L 252.809861 -464.301589 
L 250.413559 -463.931704 
L 248.017257 -463.591566 
L 245.620955 -463.282647 
L 243.224653 -463.005234 
L 240.828351 -462.75863 
L 238.432049 -462.541384 
L 236.035747 -462.351518 
L 233.639445 -462.186732 
L 231.243143 -462.044575 
L 228.846841 -461.922577 
L 226.450539 -461.818347 
L 224.054237 -461.729638 
L 221.657935 -461.654384 
L 219.261633 -461.59072 
L 216.865331 -461.536987 
L 214.469029 -461.491725 
L 212.072727 -461.453663 
L 209.676425 -461.421699 
L 207.280123 -461.394889 
L 204.883821 -461.372423 
L 202.487519 -461.353613 
L 200.091217 -461.337875 
L 197.694915 -461.324715 
L 195.298613 -461.313716 
L 192.902311 -461.304526 
L 190.506009 -461.296852 
L 188.109707 -461.290444 
L 185.713405 -461.285095 
L 183.317103 -461.280631 
L 180.920801 -461.276906 
L 178.524499 -461.273798 
L 176.128197 -461.271205 
L 173.731895 -461.269042 
L 171.335593 -461.267238 
L 168.939291 -461.265734 
L 166.542989 -461.264479 
L 164.146687 -461.263433 
L 161.750385 -461.26256 
L 159.354083 -461.261833 
L 156.957781 -461.261226 
L 154.561479 -461.26072 
L 152.165177 -461.260298 
L 149.768875 -461.259946 
L 147.372573 -461.259653 
L 144.976271 -461.259408 
z
"/>
    </defs>
    <g clip-path="url(#pe7619fe313)">
     <use xlink:href="#m36a363699a" x="0" y="524.88" style="fill: #406992; fill-opacity: 0.05"/>
    </g>
   </g>
   <g id="tf-swoop-YD">
    <defs>
     <path id="m16df7d5708" d="M 144.976271 -63.620592 
L 144.976271 -107.602977 
L 147.372573 -107.602733 
L 149.768875 -107.602439 
L 152.165177 -107.602088 
L 154.561479 -107.601666 
L 156.957781 -107.60116 
L 159.354083 -107.600553 
L 161.750385 -107.599825 
L 164.146687 -107.598953 
L 166.542989 -107.597906 
L 168.939291 -107.596652 
L 171.335593 -107.595147 
L 173.731895 -107.593343 
L 176.128197 -107.591181 
L 178.524499 -107.588588 
L 180.920801 -107.58548 
L 183.317103 -107.581755 
L 185.713405 -107.577291 
L 188.109707 -107.571942 
L 190.506009 -107.565534 
L 192.902311 -107.557859 
L 195.298613 -107.54867 
L 197.694915 -107.537671 
L 200.091217 -107.524511 
L 202.487519 -107.508773 
L 204.883821 -107.489963 
L 207.280123 -107.467497 
L 209.676425 -107.440687 
L 212.072727 -107.408723 
L 214.469029 -107.370661 
L 216.865331 -107.325399 
L 219.261633 -107.271666 
L 221.657935 -107.208002 
L 224.054237 -107.132748 
L 226.450539 -107.044038 
L 228.846841 -106.939808 
L 231.243143 -106.817811 
L 233.639445 -106.675653 
L 236.035747 -106.510867 
L 238.432049 -106.321001 
L 240.828351 -106.103755 
L 243.224653 -105.857151 
L 245.620955 -105.579738 
L 248.017257 -105.27082 
L 250.413559 -104.930682 
L 252.809861 -104.560797 
L 255.206163 -104.163963 
L 257.602465 -103.744342 
L 259.998767 -103.307368 
L 262.395069 -102.859524 
L 264.791371 -102.407975 
L 267.187673 -101.96013 
L 269.583975 -101.523157 
L 271.980277 -101.103535 
L 274.376579 -100.706702 
L 276.772881 -100.336817 
L 279.169183 -99.996679 
L 281.565485 -99.68776 
L 283.961787 -99.410347 
L 286.358089 -99.163743 
L 288.754391 -98.946497 
L 291.150693 -98.756631 
L 293.546995 -98.591845 
L 295.943297 -98.449688 
L 298.339599 -98.32769 
L 300.735901 -98.22346 
L 303.132203 -98.134751 
L 305.528505 -98.059497 
L 307.924807 -97.995833 
L 310.321109 -97.9421 
L 312.717411 -97.896838 
L 315.113713 -97.858776 
L 317.510015 -97.826812 
L 319.906317 -97.800002 
L 322.302619 -97.777536 
L 324.698921 -97.758726 
L 327.095223 -97.742988 
L 329.491525 -97.729828 
L 331.887827 -97.718829 
L 334.284129 -97.709639 
L 336.680431 -97.701965 
L 339.076733 -97.695557 
L 341.473035 -97.690208 
L 343.869337 -97.685744 
L 346.265639 -97.682019 
L 348.661941 -97.678911 
L 351.058243 -97.676318 
L 353.454545 -97.674155 
L 355.850847 -97.672351 
L 358.247149 -97.670847 
L 360.643451 -97.669592 
L 363.039753 -97.668546 
L 365.436055 -97.667673 
L 367.832357 -97.666946 
L 370.228659 -97.666339 
L 372.624961 -97.665833 
L 375.021263 -97.665411 
L 377.417565 -97.665059 
L 379.813867 -97.664766 
L 382.210169 -97.664521 
L 382.210169 -53.682136 
L 382.210169 -53.682136 
L 379.813867 -53.68238 
L 377.417565 -53.682674 
L 375.021263 -53.683025 
L 372.624961 -53.683447 
L 370.228659 -53.683953 
L 367.832357 -53.68456 
L 365.436055 -53.685288 
L 363.039753 -53.68616 
L 360.643451 -53.687207 
L 358.247149 -53.688461 
L 355.850847 -53.689966 
L 353.454545 -53.69177 
L 351.058243 -53.693932 
L 348.661941 -53.696525 
L 346.265639 -53.699633 
L 343.869337 -53.703358 
L 341.473035 -53.707822 
L 339.076733 -53.713171 
L 336.680431 -53.719579 
L 334.284129 -53.727254 
L 331.887827 -53.736443 
L 329.491525 -53.747442 
L 327.095223 -53.760602 
L 324.698921 -53.77634 
L 322.302619 -53.79515 
L 319.906317 -53.817616 
L 317.510015 -53.844426 
L 315.113713 -53.87639 
L 312.717411 -53.914452 
L 310.321109 -53.959714 
L 307.924807 -54.013447 
L 305.528505 -54.077111 
L 303.132203 -54.152365 
L 300.735901 -54.241075 
L 298.339599 -54.345304 
L 295.943297 -54.467302 
L 293.546995 -54.60946 
L 291.150693 -54.774246 
L 288.754391 -54.964112 
L 286.358089 -55.181358 
L 283.961787 -55.427962 
L 281.565485 -55.705375 
L 279.169183 -56.014293 
L 276.772881 -56.354431 
L 274.376579 -56.724316 
L 271.980277 -57.12115 
L 269.583975 -57.540771 
L 267.187673 -57.977745 
L 264.791371 -58.425589 
L 262.395069 -58.877138 
L 259.998767 -59.324983 
L 257.602465 -59.761956 
L 255.206163 -60.181578 
L 252.809861 -60.578411 
L 250.413559 -60.948296 
L 248.017257 -61.288434 
L 245.620955 -61.597353 
L 243.224653 -61.874766 
L 240.828351 -62.12137 
L 238.432049 -62.338616 
L 236.035747 -62.528482 
L 233.639445 -62.693268 
L 231.243143 -62.835425 
L 228.846841 -62.957423 
L 226.450539 -63.061653 
L 224.054237 -63.150362 
L 221.657935 -63.225616 
L 219.261633 -63.28928 
L 216.865331 -63.343013 
L 214.469029 -63.388275 
L 212.072727 -63.426337 
L 209.676425 -63.458301 
L 207.280123 -63.485111 
L 204.883821 -63.507577 
L 202.487519 -63.526387 
L 200.091217 -63.542125 
L 197.694915 -63.555285 
L 195.298613 -63.566284 
L 192.902311 -63.575474 
L 190.506009 -63.583148 
L 188.109707 -63.589556 
L 185.713405 -63.594905 
L 183.317103 -63.599369 
L 180.920801 -63.603094 
L 178.524499 -63.606202 
L 176.128197 -63.608795 
L 173.731895 -63.610958 
L 171.335593 -63.612762 
L 168.939291 -63.614266 
L 166.542989 -63.615521 
L 164.146687 -63.616567 
L 161.750385 -63.61744 
L 159.354083 -63.618167 
L 156.957781 -63.618774 
L 154.561479 -63.61928 
L 152.165177 -63.619702 
L 149.768875 -63.620054 
L 147.372573 -63.620347 
L 144.976271 -63.620592 
z
"/>
    </defs>
    <g clip-path="url(#pe7619fe313)">
     <use xlink:href="#m16df7d5708" x="0" y="524.88" style="fill: #b78935; fill-opacity: 0.05"/>
    </g>
   </g>
   <g id="tf-bar-ND">
    <defs>
     <path id="me82e598e7c" d="M 382.210169 -117.545113 
L 382.210169 -471.199091 
L 408.569492 -471.199091 
L 408.569492 -117.545113 
L 408.569492 -117.545113 
L 382.210169 -117.545113 
z
"/>
    </defs>
    <g clip-path="url(#pe7619fe313)">
     <use xlink:href="#me82e598e7c" x="0" y="524.88" style="fill: #406992; fill-opacity: 0.25"/>
    </g>
   </g>
   <g id="tf-bar-YD">
    <defs>
     <path id="m6c70f578c1" d="M 382.210169 -53.680909 
L 382.210169 -97.663295 
L 408.569492 -97.663295 
L 408.569492 -53.680909 
L 408.569492 -53.680909 
L 382.210169 -53.680909 
z
"/>
    </defs>
    <g clip-path="url(#pe7619fe313)">
     <use xlink:href="#m6c70f578c1" x="0" y="524.88" style="fill: #b78935; fill-opacity: 0.25"/>
    </g>
   </g>
   <g id="tf-swoop-YD-ND">
    <defs>
     <path id="md520940855" d="M 408.569492 -86.10121 
L 408.569492 -97.662068 
L 410.965794 -97.661824 
L 413.362096 -97.66153 
L 415.758398 -97.661178 
L 418.1547 -97.660757 
L 420.551002 -97.660251 
L 422.947304 -97.659644 
L 425.343606 -97.658916 
L 427.739908 -97.658044 
L 430.13621 -97.656997 
L 432.532512 -97.655743 
L 434.928814 -97.654238 
L 437.325116 -97.652434 
L 439.721418 -97.650271 
L 442.11772 -97.647679 
L 444.514022 -97.644571 
L 446.910324 -97.640846 
L 449.306626 -97.636382 
L 451.702928 -97.631033 
L 454.09923 -97.624625 
L 456.495532 -97.61695 
L 458.891834 -97.607761 
L 461.288136 -97.596762 
L 463.684438 -97.583602 
L 466.08074 -97.567864 
L 468.477042 -97.549054 
L 470.873344 -97.526588 
L 473.269646 -97.499777 
L 475.665948 -97.467814 
L 478.06225 -97.429751 
L 480.458552 -97.38449 
L 482.854854 -97.330757 
L 485.251156 -97.267093 
L 487.647458 -97.191838 
L 490.04376 -97.103129 
L 492.440062 -96.998899 
L 494.836364 -96.876901 
L 497.232666 -96.734744 
L 499.628968 -96.569958 
L 502.02527 -96.380092 
L 504.421572 -96.162846 
L 506.817874 -95.916242 
L 509.214176 -95.638829 
L 511.610478 -95.329911 
L 514.00678 -94.989773 
L 516.403082 -94.619888 
L 518.799384 -94.223054 
L 521.195686 -93.803433 
L 523.591988 -93.366459 
L 525.98829 -92.918615 
L 528.384592 -92.467066 
L 530.780894 -92.019221 
L 533.177196 -91.582248 
L 535.573498 -91.162626 
L 537.9698 -90.765792 
L 540.366102 -90.395908 
L 542.762404 -90.05577 
L 545.158706 -89.746851 
L 547.555008 -89.469438 
L 549.95131 -89.222834 
L 552.347612 -89.005588 
L 554.743914 -88.815722 
L 557.140216 -88.650936 
L 559.536518 -88.508779 
L 561.93282 -88.386781 
L 564.329122 -88.282551 
L 566.725424 -88.193842 
L 569.121726 -88.118588 
L 571.518028 -88.054924 
L 573.91433 -88.001191 
L 576.310632 -87.955929 
L 578.706934 -87.917867 
L 581.103236 -87.885903 
L 583.499538 -87.859093 
L 585.89584 -87.836627 
L 588.292142 -87.817817 
L 590.688444 -87.802079 
L 593.084746 -87.788919 
L 595.481048 -87.77792 
L 597.87735 -87.76873 
L 600.273652 -87.761056 
L 602.669954 -87.754648 
L 605.066256 -87.749299 
L 607.462558 -87.744835 
L 609.85886 -87.74111 
L 612.255162 -87.738002 
L 614.651464 -87.735409 
L 617.047766 -87.733246 
L 619.444068 -87.731442 
L 621.84037 -87.729938 
L 624.236672 -87.728683 
L 626.632974 -87.727637 
L 629.029276 -87.726764 
L 631.425578 -87.726037 
L 633.82188 -87.72543 
L 636.218182 -87.724924 
L 638.614484 -87.724502 
L 641.010786 -87.72415 
L 643.407088 -87.723857 
L 645.80339 -87.723612 
L 645.80339 -76.162755 
L 645.80339 -76.162755 
L 643.407088 -76.162999 
L 641.010786 -76.163292 
L 638.614484 -76.163644 
L 636.218182 -76.164066 
L 633.82188 -76.164572 
L 631.425578 -76.165179 
L 629.029276 -76.165906 
L 626.632974 -76.166779 
L 624.236672 -76.167825 
L 621.84037 -76.16908 
L 619.444068 -76.170585 
L 617.047766 -76.172389 
L 614.651464 -76.174551 
L 612.255162 -76.177144 
L 609.85886 -76.180252 
L 607.462558 -76.183977 
L 605.066256 -76.188441 
L 602.669954 -76.19379 
L 600.273652 -76.200198 
L 597.87735 -76.207873 
L 595.481048 -76.217062 
L 593.084746 -76.228061 
L 590.688444 -76.241221 
L 588.292142 -76.256959 
L 585.89584 -76.275769 
L 583.499538 -76.298235 
L 581.103236 -76.325045 
L 578.706934 -76.357009 
L 576.310632 -76.395071 
L 573.91433 -76.440333 
L 571.518028 -76.494066 
L 569.121726 -76.55773 
L 566.725424 -76.632984 
L 564.329122 -76.721694 
L 561.93282 -76.825923 
L 559.536518 -76.947921 
L 557.140216 -77.090079 
L 554.743914 -77.254864 
L 552.347612 -77.444731 
L 549.95131 -77.661977 
L 547.555008 -77.908581 
L 545.158706 -78.185993 
L 542.762404 -78.494912 
L 540.366102 -78.83505 
L 537.9698 -79.204935 
L 535.573498 -79.601769 
L 533.177196 -80.02139 
L 530.780894 -80.458363 
L 528.384592 -80.906208 
L 525.98829 -81.357757 
L 523.591988 -81.805602 
L 521.195686 -82.242575 
L 518.799384 -82.662197 
L 516.403082 -83.05903 
L 514.00678 -83.428915 
L 511.610478 -83.769053 
L 509.214176 -84.077972 
L 506.817874 -84.355384 
L 504.421572 -84.601988 
L 502.02527 -84.819235 
L 499.628968 -85.009101 
L 497.232666 -85.173887 
L 494.836364 -85.316044 
L 492.440062 -85.438042 
L 490.04376 -85.542271 
L 487.647458 -85.630981 
L 485.251156 -85.706235 
L 482.854854 -85.769899 
L 480.458552 -85.823632 
L 478.06225 -85.868894 
L 475.665948 -85.906956 
L 473.269646 -85.93892 
L 470.873344 -85.96573 
L 468.477042 -85.988196 
L 466.08074 -86.007006 
L 463.684438 -86.022744 
L 461.288136 -86.035904 
L 458.891834 -86.046903 
L 456.495532 -86.056092 
L 454.09923 -86.063767 
L 451.702928 -86.070175 
L 449.306626 -86.075524 
L 446.910324 -86.079988 
L 444.514022 -86.083713 
L 442.11772 -86.086821 
L 439.721418 -86.089414 
L 437.325116 -86.091576 
L 434.928814 -86.09338 
L 432.532512 -86.094885 
L 430.13621 -86.09614 
L 427.739908 -86.097186 
L 425.343606 -86.098059 
L 422.947304 -86.098786 
L 420.551002 -86.099393 
L 418.1547 -86.099899 
L 415.758398 -86.100321 
L 413.362096 -86.100673 
L 410.965794 -86.100966 
L 408.569492 -86.10121 
z
"/>
    </defs>
    <g clip-path="url(#pe7619fe313)">
     <use xlink:href="#md520940855" x="0" y="524.88" style="fill: #dbc49a; fill-opacity: 0.05"/>
    </g>
   </g>
   <g id="tf-swoop-YD-YD">
    <defs>
     <path id="m4758ff53a5" d="M 408.569492 -53.677229 
L 408.569492 -86.098757 
L 410.965794 -86.098023 
L 413.362096 -86.097144 
L 415.758398 -86.096088 
L 418.1547 -86.094823 
L 420.551002 -86.093305 
L 422.947304 -86.091485 
L 425.343606 -86.089302 
L 427.739908 -86.086684 
L 430.13621 -86.083545 
L 432.532512 -86.079781 
L 434.928814 -86.075267 
L 437.325116 -86.069855 
L 439.721418 -86.063367 
L 442.11772 -86.055589 
L 444.514022 -86.046265 
L 446.910324 -86.03509 
L 449.306626 -86.021698 
L 451.702928 -86.005651 
L 454.09923 -85.986427 
L 456.495532 -85.963403 
L 458.891834 -85.935835 
L 461.288136 -85.902838 
L 463.684438 -85.863358 
L 466.08074 -85.816144 
L 468.477042 -85.759714 
L 470.873344 -85.692316 
L 473.269646 -85.611885 
L 475.665948 -85.515994 
L 478.06225 -85.401807 
L 480.458552 -85.266022 
L 482.854854 -85.104824 
L 485.251156 -84.913831 
L 487.647458 -84.688068 
L 490.04376 -84.42194 
L 492.440062 -84.109251 
L 494.836364 -83.743257 
L 497.232666 -83.316785 
L 499.628968 -82.822428 
L 502.02527 -82.252829 
L 504.421572 -81.601091 
L 506.817874 -80.861279 
L 509.214176 -80.029041 
L 511.610478 -79.102284 
L 514.00678 -78.08187 
L 516.403082 -76.972217 
L 518.799384 -75.781715 
L 521.195686 -74.522851 
L 523.591988 -73.211931 
L 525.98829 -71.868396 
L 528.384592 -70.513751 
L 530.780894 -69.170216 
L 533.177196 -67.859296 
L 535.573498 -66.600431 
L 537.9698 -65.40993 
L 540.366102 -64.300276 
L 542.762404 -63.279863 
L 545.158706 -62.353106 
L 547.555008 -61.520868 
L 549.95131 -60.781056 
L 552.347612 -60.129317 
L 554.743914 -59.559719 
L 557.140216 -59.065361 
L 559.536518 -58.63889 
L 561.93282 -58.272896 
L 564.329122 -57.960207 
L 566.725424 -57.694079 
L 569.121726 -57.468315 
L 571.518028 -57.277323 
L 573.91433 -57.116124 
L 576.310632 -56.98034 
L 578.706934 -56.866152 
L 581.103236 -56.770262 
L 583.499538 -56.68983 
L 585.89584 -56.622433 
L 588.292142 -56.566003 
L 590.688444 -56.518789 
L 593.084746 -56.479309 
L 595.481048 -56.446311 
L 597.87735 -56.418744 
L 600.273652 -56.39572 
L 602.669954 -56.376496 
L 605.066256 -56.360449 
L 607.462558 -56.347057 
L 609.85886 -56.335882 
L 612.255162 -56.326558 
L 614.651464 -56.31878 
L 617.047766 -56.312292 
L 619.444068 -56.30688 
L 621.84037 -56.302366 
L 624.236672 -56.298602 
L 626.632974 -56.295463 
L 629.029276 -56.292845 
L 631.425578 -56.290662 
L 633.82188 -56.288842 
L 636.218182 -56.287324 
L 638.614484 -56.286059 
L 641.010786 -56.285003 
L 643.407088 -56.284123 
L 645.80339 -56.28339 
L 645.80339 -23.861862 
L 645.80339 -23.861862 
L 643.407088 -23.862595 
L 641.010786 -23.863475 
L 638.614484 -23.864531 
L 636.218182 -23.865796 
L 633.82188 -23.867314 
L 631.425578 -23.869134 
L 629.029276 -23.871317 
L 626.632974 -23.873935 
L 624.236672 -23.877074 
L 621.84037 -23.880838 
L 619.444068 -23.885352 
L 617.047766 -23.890764 
L 614.651464 -23.897252 
L 612.255162 -23.90503 
L 609.85886 -23.914354 
L 607.462558 -23.925529 
L 605.066256 -23.938921 
L 602.669954 -23.954968 
L 600.273652 -23.974192 
L 597.87735 -23.997216 
L 595.481048 -24.024783 
L 593.084746 -24.057781 
L 590.688444 -24.097261 
L 588.292142 -24.144475 
L 585.89584 -24.200905 
L 583.499538 -24.268302 
L 581.103236 -24.348734 
L 578.706934 -24.444624 
L 576.310632 -24.558812 
L 573.91433 -24.694596 
L 571.518028 -24.855795 
L 569.121726 -25.046787 
L 566.725424 -25.272551 
L 564.329122 -25.538679 
L 561.93282 -25.851368 
L 559.536518 -26.217362 
L 557.140216 -26.643833 
L 554.743914 -27.138191 
L 552.347612 -27.707789 
L 549.95131 -28.359528 
L 547.555008 -29.09934 
L 545.158706 -29.931578 
L 542.762404 -30.858335 
L 540.366102 -31.878748 
L 537.9698 -32.988402 
L 535.573498 -34.178903 
L 533.177196 -35.437768 
L 530.780894 -36.748688 
L 528.384592 -38.092223 
L 525.98829 -39.446868 
L 523.591988 -40.790403 
L 521.195686 -42.101323 
L 518.799384 -43.360187 
L 516.403082 -44.550689 
L 514.00678 -45.660342 
L 511.610478 -46.680756 
L 509.214176 -47.607513 
L 506.817874 -48.439751 
L 504.421572 -49.179563 
L 502.02527 -49.831301 
L 499.628968 -50.4009 
L 497.232666 -50.895257 
L 494.836364 -51.321729 
L 492.440062 -51.687723 
L 490.04376 -52.000412 
L 487.647458 -52.26654 
L 485.251156 -52.492303 
L 482.854854 -52.683296 
L 480.458552 -52.844494 
L 478.06225 -52.980279 
L 475.665948 -53.094466 
L 473.269646 -53.190357 
L 470.873344 -53.270788 
L 468.477042 -53.338186 
L 466.08074 -53.394616 
L 463.684438 -53.44183 
L 461.288136 -53.48131 
L 458.891834 -53.514307 
L 456.495532 -53.541875 
L 454.09923 -53.564899 
L 451.702928 -53.584123 
L 449.306626 -53.60017 
L 446.910324 -53.613562 
L 444.514022 -53.624737 
L 442.11772 -53.634061 
L 439.721418 -53.641839 
L 437.325116 -53.648327 
L 434.928814 -53.653739 
L 432.532512 -53.658253 
L 430.13621 -53.662017 
L 427.739908 -53.665156 
L 425.343606 -53.667774 
L 422.947304 -53.669957 
L 420.551002 -53.671777 
L 418.1547 -53.673295 
L 415.758398 -53.67456 
L 413.362096 -53.675616 
L 410.965794 -53.676495 
L 408.569492 -53.677229 
z
"/>
    </defs>
    <g clip-path="url(#pe7619fe313)">
     <use xlink:href="#m4758ff53a5" x="0" y="524.88" style="fill: #b78935; fill-opacity: 0.05"/>
    </g>
   </g>
   <g id="tf-swoop-ND-YD">
    <defs>
     <path id="mc7f9d7a7eb" d="M 408.569492 -130.606131 
L 408.569492 -117.54634 
L 410.965794 -117.546584 
L 413.362096 -117.546877 
L 415.758398 -117.547229 
L 418.1547 -117.547651 
L 420.551002 -117.548157 
L 422.947304 -117.548764 
L 425.343606 -117.549491 
L 427.739908 -117.550364 
L 430.13621 -117.55141 
L 432.532512 -117.552665 
L 434.928814 -117.55417 
L 437.325116 -117.555974 
L 439.721418 -117.558136 
L 442.11772 -117.560729 
L 444.514022 -117.563837 
L 446.910324 -117.567562 
L 449.306626 -117.572026 
L 451.702928 -117.577375 
L 454.09923 -117.583783 
L 456.495532 -117.591458 
L 458.891834 -117.600647 
L 461.288136 -117.611646 
L 463.684438 -117.624806 
L 466.08074 -117.640544 
L 468.477042 -117.659354 
L 470.873344 -117.68182 
L 473.269646 -117.70863 
L 475.665948 -117.740594 
L 478.06225 -117.778656 
L 480.458552 -117.823918 
L 482.854854 -117.877651 
L 485.251156 -117.941315 
L 487.647458 -118.016569 
L 490.04376 -118.105279 
L 492.440062 -118.209508 
L 494.836364 -118.331506 
L 497.232666 -118.473663 
L 499.628968 -118.638449 
L 502.02527 -118.828316 
L 504.421572 -119.045562 
L 506.817874 -119.292166 
L 509.214176 -119.569578 
L 511.610478 -119.878497 
L 514.00678 -120.218635 
L 516.403082 -120.58852 
L 518.799384 -120.985353 
L 521.195686 -121.404975 
L 523.591988 -121.841948 
L 525.98829 -122.289793 
L 528.384592 -122.741342 
L 530.780894 -123.189187 
L 533.177196 -123.62616 
L 535.573498 -124.045782 
L 537.9698 -124.442615 
L 540.366102 -124.8125 
L 542.762404 -125.152638 
L 545.158706 -125.461557 
L 547.555008 -125.738969 
L 549.95131 -125.985573 
L 552.347612 -126.202819 
L 554.743914 -126.392686 
L 557.140216 -126.557471 
L 559.536518 -126.699629 
L 561.93282 -126.821627 
L 564.329122 -126.925856 
L 566.725424 -127.014566 
L 569.121726 -127.08982 
L 571.518028 -127.153484 
L 573.91433 -127.207217 
L 576.310632 -127.252479 
L 578.706934 -127.290541 
L 581.103236 -127.322505 
L 583.499538 -127.349315 
L 585.89584 -127.371781 
L 588.292142 -127.390591 
L 590.688444 -127.406329 
L 593.084746 -127.419489 
L 595.481048 -127.430488 
L 597.87735 -127.439677 
L 600.273652 -127.447352 
L 602.669954 -127.45376 
L 605.066256 -127.459109 
L 607.462558 -127.463573 
L 609.85886 -127.467298 
L 612.255162 -127.470406 
L 614.651464 -127.472999 
L 617.047766 -127.475161 
L 619.444068 -127.476965 
L 621.84037 -127.47847 
L 624.236672 -127.479725 
L 626.632974 -127.480771 
L 629.029276 -127.481644 
L 631.425578 -127.482371 
L 633.82188 -127.482978 
L 636.218182 -127.483484 
L 638.614484 -127.483906 
L 641.010786 -127.484258 
L 643.407088 -127.484551 
L 645.80339 -127.484795 
L 645.80339 -140.544587 
L 645.80339 -140.544587 
L 643.407088 -140.544342 
L 641.010786 -140.544049 
L 638.614484 -140.543697 
L 636.218182 -140.543275 
L 633.82188 -140.542769 
L 631.425578 -140.542162 
L 629.029276 -140.541435 
L 626.632974 -140.540562 
L 624.236672 -140.539516 
L 621.84037 -140.538261 
L 619.444068 -140.536757 
L 617.047766 -140.534953 
L 614.651464 -140.53279 
L 612.255162 -140.530197 
L 609.85886 -140.527089 
L 607.462558 -140.523364 
L 605.066256 -140.5189 
L 602.669954 -140.513551 
L 600.273652 -140.507143 
L 597.87735 -140.499469 
L 595.481048 -140.490279 
L 593.084746 -140.47928 
L 590.688444 -140.46612 
L 588.292142 -140.450382 
L 585.89584 -140.431572 
L 583.499538 -140.409106 
L 581.103236 -140.382296 
L 578.706934 -140.350332 
L 576.310632 -140.31227 
L 573.91433 -140.267008 
L 571.518028 -140.213275 
L 569.121726 -140.149611 
L 566.725424 -140.074357 
L 564.329122 -139.985648 
L 561.93282 -139.881418 
L 559.536518 -139.75942 
L 557.140216 -139.617263 
L 554.743914 -139.452477 
L 552.347612 -139.262611 
L 549.95131 -139.045365 
L 547.555008 -138.798761 
L 545.158706 -138.521348 
L 542.762404 -138.212429 
L 540.366102 -137.872291 
L 537.9698 -137.502406 
L 535.573498 -137.105573 
L 533.177196 -136.685951 
L 530.780894 -136.248978 
L 528.384592 -135.801133 
L 525.98829 -135.349584 
L 523.591988 -134.90174 
L 521.195686 -134.464766 
L 518.799384 -134.045145 
L 516.403082 -133.648311 
L 514.00678 -133.278426 
L 511.610478 -132.938288 
L 509.214176 -132.62937 
L 506.817874 -132.351957 
L 504.421572 -132.105353 
L 502.02527 -131.888107 
L 499.628968 -131.698241 
L 497.232666 -131.533455 
L 494.836364 -131.391297 
L 492.440062 -131.2693 
L 490.04376 -131.16507 
L 487.647458 -131.07636 
L 485.251156 -131.001106 
L 482.854854 -130.937442 
L 480.458552 -130.883709 
L 478.06225 -130.838447 
L 475.665948 -130.800385 
L 473.269646 -130.768421 
L 470.873344 -130.741611 
L 468.477042 -130.719145 
L 466.08074 -130.700335 
L 463.684438 -130.684597 
L 461.288136 -130.671437 
L 458.891834 -130.660438 
L 456.495532 -130.651249 
L 454.09923 -130.643574 
L 451.702928 -130.637166 
L 449.306626 -130.631817 
L 446.910324 -130.627353 
L 444.514022 -130.623628 
L 442.11772 -130.62052 
L 439.721418 -130.617927 
L 437.325116 -130.615765 
L 434.928814 -130.613961 
L 432.532512 -130.612456 
L 430.13621 -130.611202 
L 427.739908 -130.610155 
L 425.343606 -130.609283 
L 422.947304 -130.608555 
L 420.551002 -130.607948 
L 418.1547 -130.607442 
L 415.758398 -130.60702 
L 413.362096 -130.606669 
L 410.965794 -130.606375 
L 408.569492 -130.606131 
z
"/>
    </defs>
    <g clip-path="url(#pe7619fe313)">
     <use xlink:href="#mc7f9d7a7eb" x="0" y="524.88" style="fill: #9fb4c8; fill-opacity: 0.05"/>
    </g>
   </g>
   <g id="tf-swoop-ND-ND">
    <defs>
     <path id="m78c7544261" d="M 408.569492 -471.202771 
L 408.569492 -130.608584 
L 410.965794 -130.609318 
L 413.362096 -130.610198 
L 415.758398 -130.611253 
L 418.1547 -130.612519 
L 420.551002 -130.614036 
L 422.947304 -130.615857 
L 425.343606 -130.61804 
L 427.739908 -130.620657 
L 430.13621 -130.623796 
L 432.532512 -130.627561 
L 434.928814 -130.632074 
L 437.325116 -130.637486 
L 439.721418 -130.643974 
L 442.11772 -130.651752 
L 444.514022 -130.661076 
L 446.910324 -130.672251 
L 449.306626 -130.685643 
L 451.702928 -130.70169 
L 454.09923 -130.720914 
L 456.495532 -130.743938 
L 458.891834 -130.771506 
L 461.288136 -130.804503 
L 463.684438 -130.843983 
L 466.08074 -130.891197 
L 468.477042 -130.947627 
L 470.873344 -131.015025 
L 473.269646 -131.095456 
L 475.665948 -131.191347 
L 478.06225 -131.305534 
L 480.458552 -131.441319 
L 482.854854 -131.602518 
L 485.251156 -131.79351 
L 487.647458 -132.019273 
L 490.04376 -132.285401 
L 492.440062 -132.59809 
L 494.836364 -132.964084 
L 497.232666 -133.390556 
L 499.628968 -133.884914 
L 502.02527 -134.454512 
L 504.421572 -135.10625 
L 506.817874 -135.846062 
L 509.214176 -136.678301 
L 511.610478 -137.605057 
L 514.00678 -138.625471 
L 516.403082 -139.735125 
L 518.799384 -140.925626 
L 521.195686 -142.18449 
L 523.591988 -143.49541 
L 525.98829 -144.838945 
L 528.384592 -146.193591 
L 530.780894 -147.537125 
L 533.177196 -148.848045 
L 535.573498 -150.10691 
L 537.9698 -151.297411 
L 540.366102 -152.407065 
L 542.762404 -153.427479 
L 545.158706 -154.354235 
L 547.555008 -155.186474 
L 549.95131 -155.926286 
L 552.347612 -156.578024 
L 554.743914 -157.147622 
L 557.140216 -157.64198 
L 559.536518 -158.068451 
L 561.93282 -158.434445 
L 564.329122 -158.747135 
L 566.725424 -159.013263 
L 569.121726 -159.239026 
L 571.518028 -159.430018 
L 573.91433 -159.591217 
L 576.310632 -159.727002 
L 578.706934 -159.841189 
L 581.103236 -159.937079 
L 583.499538 -160.017511 
L 585.89584 -160.084909 
L 588.292142 -160.141338 
L 590.688444 -160.188552 
L 593.084746 -160.228032 
L 595.481048 -160.26103 
L 597.87735 -160.288598 
L 600.273652 -160.311622 
L 602.669954 -160.330845 
L 605.066256 -160.346892 
L 607.462558 -160.360285 
L 609.85886 -160.37146 
L 612.255162 -160.380783 
L 614.651464 -160.388562 
L 617.047766 -160.39505 
L 619.444068 -160.400461 
L 621.84037 -160.404975 
L 624.236672 -160.408739 
L 626.632974 -160.411878 
L 629.029276 -160.414496 
L 631.425578 -160.416679 
L 633.82188 -160.418499 
L 636.218182 -160.420017 
L 638.614484 -160.421283 
L 641.010786 -160.422338 
L 643.407088 -160.423218 
L 645.80339 -160.423951 
L 645.80339 -501.018138 
L 645.80339 -501.018138 
L 643.407088 -501.017405 
L 641.010786 -501.016525 
L 638.614484 -501.015469 
L 636.218182 -501.014204 
L 633.82188 -501.012686 
L 631.425578 -501.010866 
L 629.029276 -501.008683 
L 626.632974 -501.006065 
L 624.236672 -501.002926 
L 621.84037 -500.999162 
L 619.444068 -500.994648 
L 617.047766 -500.989236 
L 614.651464 -500.982748 
L 612.255162 -500.97497 
L 609.85886 -500.965646 
L 607.462558 -500.954471 
L 605.066256 -500.941079 
L 602.669954 -500.925032 
L 600.273652 -500.905808 
L 597.87735 -500.882784 
L 595.481048 -500.855217 
L 593.084746 -500.822219 
L 590.688444 -500.782739 
L 588.292142 -500.735525 
L 585.89584 -500.679095 
L 583.499538 -500.611698 
L 581.103236 -500.531266 
L 578.706934 -500.435376 
L 576.310632 -500.321188 
L 573.91433 -500.185404 
L 571.518028 -500.024205 
L 569.121726 -499.833213 
L 566.725424 -499.607449 
L 564.329122 -499.341321 
L 561.93282 -499.028632 
L 559.536518 -498.662638 
L 557.140216 -498.236167 
L 554.743914 -497.741809 
L 552.347612 -497.172211 
L 549.95131 -496.520472 
L 547.555008 -495.78066 
L 545.158706 -494.948422 
L 542.762404 -494.021665 
L 540.366102 -493.001252 
L 537.9698 -491.891598 
L 535.573498 -490.701097 
L 533.177196 -489.442232 
L 530.780894 -488.131312 
L 528.384592 -486.787777 
L 525.98829 -485.433132 
L 523.591988 -484.089597 
L 521.195686 -482.778677 
L 518.799384 -481.519813 
L 516.403082 -480.329311 
L 514.00678 -479.219658 
L 511.610478 -478.199244 
L 509.214176 -477.272487 
L 506.817874 -476.440249 
L 504.421572 -475.700437 
L 502.02527 -475.048699 
L 499.628968 -474.4791 
L 497.232666 -473.984743 
L 494.836364 -473.558271 
L 492.440062 -473.192277 
L 490.04376 -472.879588 
L 487.647458 -472.61346 
L 485.251156 -472.387697 
L 482.854854 -472.196704 
L 480.458552 -472.035506 
L 478.06225 -471.899721 
L 475.665948 -471.785534 
L 473.269646 -471.689643 
L 470.873344 -471.609212 
L 468.477042 -471.541814 
L 466.08074 -471.485384 
L 463.684438 -471.43817 
L 461.288136 -471.39869 
L 458.891834 -471.365693 
L 456.495532 -471.338125 
L 454.09923 -471.315101 
L 451.702928 -471.295877 
L 449.306626 -471.27983 
L 446.910324 -471.266438 
L 444.514022 -471.255263 
L 442.11772 -471.245939 
L 439.721418 -471.238161 
L 437.325116 -471.231673 
L 434.928814 -471.226261 
L 432.532512 -471.221747 
L 430.13621 -471.217983 
L 427.739908 -471.214844 
L 425.343606 -471.212226 
L 422.947304 -471.210043 
L 420.551002 -471.208223 
L 418.1547 -471.206705 
L 415.758398 -471.20544 
L 413.362096 -471.204384 
L 410.965794 -471.203505 
L 408.569492 -471.202771 
z
"/>
    </defs>
    <g clip-path="url(#pe7619fe313)">
     <use xlink:href="#m78c7544261" x="0" y="524.88" style="fill: #406992; fill-opacity: 0.05"/>
    </g>
   </g>
   <g id="tf-bar-YD-YD">
    <defs>
     <path id="m66549a082f" d="M 645.80339 -23.858182 
L 645.80339 -56.27971 
L 672.162712 -56.27971 
L 672.162712 -23.858182 
L 672.162712 -23.858182 
L 645.80339 -23.858182 
z
"/>
    </defs>
    <g clip-path="url(#pe7619fe313)">
     <use xlink:href="#m66549a082f" x="0" y="524.88" style="fill: #b78935; fill-opacity: 0.25"/>
    </g>
   </g>
   <g id="tf-bar-YD-ND">
    <defs>
     <path id="m0c750f734c" d="M 645.80339 -76.161528 
L 645.80339 -87.722386 
L 672.162712 -87.722386 
L 672.162712 -76.161528 
L 672.162712 -76.161528 
L 645.80339 -76.161528 
z
"/>
    </defs>
    <g clip-path="url(#pe7619fe313)">
     <use xlink:href="#m0c750f734c" x="0" y="524.88" style="fill: #dbc49a; fill-opacity: 0.25"/>
    </g>
   </g>
   <g id="tf-bar-ND-YD">
    <defs>
     <path id="m6ef86c437f" d="M 645.80339 -127.486022 
L 645.80339 -140.545813 
L 672.162712 -140.545813 
L 672.162712 -127.486022 
L 672.162712 -127.486022 
L 645.80339 -127.486022 
z
"/>
    </defs>
    <g clip-path="url(#pe7619fe313)">
     <use xlink:href="#m6ef86c437f" x="0" y="524.88" style="fill: #9fb4c8; fill-opacity: 0.25"/>
    </g>
   </g>
   <g id="tf-bar-ND-ND">
    <defs>
     <path id="m5e9d0bc75d" d="M 645.80339 -160.427631 
L 645.80339 -501.021818 
L 672.162712 -501.021818 
L 672.162712 -160.427631 
L 672.162712 -160.427631 
L 645.80339 -160.427631 
z
"/>
    </defs>
    <g clip-path="url(#pe7619fe313)">
     <use xlink:href="#m5e9d0bc75d" x="0" y="524.88" style="fill: #406992; fill-opacity: 0.25"/>
    </g>
   </g>
   <g id="text_1">
    <text style="font-weight: 300; font-size: 16px; font-family: 'Source Sans 3', sans-serif; fill: #595959" transform="translate(45.182288 257.73225)">All model</text>
    <text style="font-weight: 300; font-size: 16px; font-family: 'Source Sans 3', sans-serif; fill: #595959" transform="translate(33.214788 275.14775)">predictions</text>
   </g>
   <g id="tf-label-YD">
    <text style="font-weight: 300; font-size: 16px; font-family: 'Source Sans 3', sans-serif; fill: #595959; opacity: 0" transform="translate(274.440508 444.403898)">Model predicts</text>
    <text style="font-weight: 300; font-size: 16px; font-family: 'Source Sans 3', sans-serif; fill: #595959; opacity: 0" transform="translate(267.875508 461.819398)">drought - 11.1%</text>
   </g>
   <g id="tf-label-ND">
    <text style="font-weight: 300; font-size: 16px; font-family: 'Source Sans 3', sans-serif; fill: #595959; opacity: 0" transform="translate(274.440508 225.703898)">Model predicts</text>
    <text style="font-weight: 300; font-size: 16px; font-family: 'Source Sans 3', sans-serif; fill: #595959; opacity: 0" transform="translate(247.748008 243.119398)">no drought - 88.9%</text>
   </g>
   <g id="tf-label-YD-YD">
    <text style="font-weight: 300; font-size: 16px; font-family: 'Source Sans 3', sans-serif; fill: #595959; opacity: 0" transform="translate(532.753729 462.515054)">Model detected</text>
    <text style="font-weight: 300; font-size: 16px; font-family: 'Source Sans 3', sans-serif; fill: #595959; opacity: 0" transform="translate(557.293729 479.930554)">the drought</text>
    <text style="font-weight: 300; font-size: 16px; font-family: 'Source Sans 3', sans-serif; fill: #595959; opacity: 0" transform="translate(545.133729 497.691554)">(true positive)</text>
    <text style="font-weight: 300; font-size: 16px; font-family: 'Source Sans 3', sans-serif; fill: #595959; opacity: 0" transform="translate(601.423729 515.107054)">8.2%</text>
   </g>
   <g id="tf-label-YD-ND">
    <text style="font-weight: 300; font-size: 16px; font-family: 'Source Sans 3', sans-serif; fill: #595959; opacity: 0" transform="translate(539.056229 420.506793)">Model wrongly</text>
    <text style="font-weight: 300; font-size: 16px; font-family: 'Source Sans 3', sans-serif; fill: #595959; opacity: 0" transform="translate(516.496229 438.114793)">predicted drought</text>
    <text style="font-weight: 300; font-size: 16px; font-family: 'Source Sans 3', sans-serif; fill: #595959; opacity: 0" transform="translate(541.358729 455.953793)">(false positive)</text>
    <text style="font-weight: 300; font-size: 16px; font-family: 'Source Sans 3', sans-serif; fill: #595959; opacity: 0" transform="translate(601.423729 473.369293)">2.9%</text>
   </g>
   <g id="tf-label-ND-YD">
    <text style="font-weight: 300; font-size: 16px; font-family: 'Source Sans 3', sans-serif; fill: #595959; opacity: 0" transform="translate(544.241229 368.432832)">Model missed</text>
    <text style="font-weight: 300; font-size: 16px; font-family: 'Source Sans 3', sans-serif; fill: #595959; opacity: 0" transform="translate(557.293729 385.848332)">the drought</text>
    <text style="font-weight: 300; font-size: 16px; font-family: 'Source Sans 3', sans-serif; fill: #595959; opacity: 0" transform="translate(536.946229 403.687332)">(false negative)</text>
    <text style="font-weight: 300; font-size: 16px; font-family: 'Source Sans 3', sans-serif; fill: #595959; opacity: 0" transform="translate(601.423729 421.295332)">3.3%</text>
   </g>
   <g id="tf-label-ND-ND">
    <text style="font-weight: 300; font-size: 16px; font-family: 'Source Sans 3', sans-serif; fill: #595959; opacity: 0" transform="translate(559.501229 171.763025)">No drought</text>
    <text style="font-weight: 300; font-size: 16px; font-family: 'Source Sans 3', sans-serif; fill: #595959; opacity: 0" transform="translate(575.378729 189.371025)">occurred</text>
    <text style="font-weight: 300; font-size: 16px; font-family: 'Source Sans 3', sans-serif; fill: #595959; opacity: 0" transform="translate(540.721229 206.939525)">(true negative)</text>
    <text style="font-weight: 300; font-size: 16px; font-family: 'Source Sans 3', sans-serif; fill: #595959; opacity: 0" transform="translate(593.871229 224.547525)">85.7%</text>
   </g>
  </g>
 </g>
 <defs>
  <clipPath id="pe7619fe313">
   <rect x="0" y="0" width="699.84" height="524.88"/>
  </clipPath>
 </defs>
</svg>
