<?xml version="1.0" encoding="utf-8" standalone="no"?>
<!DOCTYPE svg PUBLIC "-//W3C//DTD SVG 1.1//EN"
  "http://www.w3.org/Graphics/SVG/1.1/DTD/svg11.dtd">
<svg xmlns:xlink="http://www.w3.org/1999/xlink" width="699.84px" height="524.88px" viewBox="0 0 699.84 524.88" xmlns="http://www.w3.org/2000/svg" version="1.1">
  <defs>
  <style type="text/css">*{stroke-linejoin: round; stroke-linecap: butt}</style>
 </defs>
 <g id="figure-forecast_truefalse">
  <g id="patch_1">
   <path d="M 0 524.88 
L 699.84 524.88 
L 699.84 0 
L 0 0 
z
" style="fill: #ffffff"/>
  </g>
  <g id="axis-forecast_truefalse">
   <g id="FillBetweenPolyCollection_1">
    <defs>
     <path id="m157fd0fd39" d="M 118.616949 -63.621818 
L 118.616949 -461.258182 
L 144.976271 -461.258182 
L 144.976271 -63.621818 
L 144.976271 -63.621818 
L 118.616949 -63.621818 
z
"/>
    </defs>
    <g clip-path="url(#p7e2dca1f01)">
     <use xlink:href="#m157fd0fd39" x="0" y="524.88" style="fill: #00264c"/>
    </g>
   </g>
   <g id="FillBetweenPolyCollection_2">
    <defs>
     <path id="m0783c9dc63" d="M 144.976271 -461.259408 
L 144.976271 -118.782208 
L 147.372573 -118.782453 
L 149.768875 -118.782746 
L 152.165177 -118.783098 
L 154.561479 -118.78352 
L 156.957781 -118.784026 
L 159.354083 -118.784633 
L 161.750385 -118.78536 
L 164.146687 -118.786233 
L 166.542989 -118.787279 
L 168.939291 -118.788534 
L 171.335593 -118.790038 
L 173.731895 -118.791842 
L 176.128197 -118.794005 
L 178.524499 -118.796598 
L 180.920801 -118.799706 
L 183.317103 -118.803431 
L 185.713405 -118.807895 
L 188.109707 -118.813244 
L 190.506009 -118.819652 
L 192.902311 -118.827326 
L 195.298613 -118.836516 
L 197.694915 -118.847515 
L 200.091217 -118.860675 
L 202.487519 -118.876413 
L 204.883821 -118.895223 
L 207.280123 -118.917689 
L 209.676425 -118.944499 
L 212.072727 -118.976463 
L 214.469029 -119.014525 
L 216.865331 -119.059787 
L 219.261633 -119.11352 
L 221.657935 -119.177184 
L 224.054237 -119.252438 
L 226.450539 -119.341147 
L 228.846841 -119.445377 
L 231.243143 -119.567375 
L 233.639445 -119.709532 
L 236.035747 -119.874318 
L 238.432049 -120.064184 
L 240.828351 -120.28143 
L 243.224653 -120.528034 
L 245.620955 -120.805447 
L 248.017257 -121.114366 
L 250.413559 -121.454504 
L 252.809861 -121.824388 
L 255.206163 -122.221222 
L 257.602465 -122.640844 
L 259.998767 -123.077817 
L 262.395069 -123.525662 
L 264.791371 -123.97721 
L 267.187673 -124.425055 
L 269.583975 -124.862029 
L 271.980277 -125.28165 
L 274.376579 -125.678484 
L 276.772881 -126.048369 
L 279.169183 -126.388507 
L 281.565485 -126.697425 
L 283.961787 -126.974838 
L 286.358089 -127.221442 
L 288.754391 -127.438688 
L 291.150693 -127.628554 
L 293.546995 -127.79334 
L 295.943297 -127.935497 
L 298.339599 -128.057495 
L 300.735901 -128.161725 
L 303.132203 -128.250434 
L 305.528505 -128.325689 
L 307.924807 -128.389353 
L 310.321109 -128.443086 
L 312.717411 -128.488347 
L 315.113713 -128.52641 
L 317.510015 -128.558373 
L 319.906317 -128.585184 
L 322.302619 -128.60765 
L 324.698921 -128.62646 
L 327.095223 -128.642198 
L 329.491525 -128.655358 
L 331.887827 -128.666357 
L 334.284129 -128.675546 
L 336.680431 -128.683221 
L 339.076733 -128.689629 
L 341.473035 -128.694978 
L 343.869337 -128.699442 
L 346.265639 -128.703167 
L 348.661941 -128.706275 
L 351.058243 -128.708867 
L 353.454545 -128.71103 
L 355.850847 -128.712834 
L 358.247149 -128.714339 
L 360.643451 -128.715593 
L 363.039753 -128.71664 
L 365.436055 -128.717512 
L 367.832357 -128.71824 
L 370.228659 -128.718847 
L 372.624961 -128.719353 
L 375.021263 -128.719774 
L 377.417565 -128.720126 
L 379.813867 -128.72042 
L 382.210169 -128.720664 
L 382.210169 -471.197864 
L 382.210169 -471.197864 
L 379.813867 -471.19762 
L 377.417565 -471.197326 
L 375.021263 -471.196975 
L 372.624961 -471.196553 
L 370.228659 -471.196047 
L 367.832357 -471.19544 
L 365.436055 -471.194712 
L 363.039753 -471.19384 
L 360.643451 -471.192793 
L 358.247149 -471.191539 
L 355.850847 -471.190034 
L 353.454545 -471.18823 
L 351.058243 -471.186068 
L 348.661941 -471.183475 
L 346.265639 -471.180367 
L 343.869337 -471.176642 
L 341.473035 -471.172178 
L 339.076733 -471.166829 
L 336.680431 -471.160421 
L 334.284129 -471.152746 
L 331.887827 -471.143557 
L 329.491525 -471.132558 
L 327.095223 -471.119398 
L 324.698921 -471.10366 
L 322.302619 -471.08485 
L 319.906317 -471.062384 
L 317.510015 -471.035574 
L 315.113713 -471.00361 
L 312.717411 -470.965548 
L 310.321109 -470.920286 
L 307.924807 -470.866553 
L 305.528505 -470.802889 
L 303.132203 -470.727635 
L 300.735901 -470.638925 
L 298.339599 -470.534696 
L 295.943297 -470.412698 
L 293.546995 -470.27054 
L 291.150693 -470.105754 
L 288.754391 -469.915888 
L 286.358089 -469.698642 
L 283.961787 -469.452038 
L 281.565485 -469.174625 
L 279.169183 -468.865707 
L 276.772881 -468.525569 
L 274.376579 -468.155684 
L 271.980277 -467.75885 
L 269.583975 -467.339229 
L 267.187673 -466.902255 
L 264.791371 -466.454411 
L 262.395069 -466.002862 
L 259.998767 -465.555017 
L 257.602465 -465.118044 
L 255.206163 -464.698422 
L 252.809861 -464.301589 
L 250.413559 -463.931704 
L 248.017257 -463.591566 
L 245.620955 -463.282647 
L 243.224653 -463.005234 
L 240.828351 -462.75863 
L 238.432049 -462.541384 
L 236.035747 -462.351518 
L 233.639445 -462.186732 
L 231.243143 -462.044575 
L 228.846841 -461.922577 
L 226.450539 -461.818347 
L 224.054237 -461.729638 
L 221.657935 -461.654384 
L 219.261633 -461.59072 
L 216.865331 -461.536987 
L 214.469029 -461.491725 
L 212.072727 -461.453663 
L 209.676425 -461.421699 
L 207.280123 -461.394889 
L 204.883821 -461.372423 
L 202.487519 -461.353613 
L 200.091217 -461.337875 
L 197.694915 -461.324715 
L 195.298613 -461.313716 
L 192.902311 -461.304526 
L 190.506009 -461.296852 
L 188.109707 -461.290444 
L 185.713405 -461.285095 
L 183.317103 -461.280631 
L 180.920801 -461.276906 
L 178.524499 -461.273798 
L 176.128197 -461.271205 
L 173.731895 -461.269042 
L 171.335593 -461.267238 
L 168.939291 -461.265734 
L 166.542989 -461.264479 
L 164.146687 -461.263433 
L 161.750385 -461.26256 
L 159.354083 -461.261833 
L 156.957781 -461.261226 
L 154.561479 -461.26072 
L 152.165177 -461.260298 
L 149.768875 -461.259946 
L 147.372573 -461.259653 
L 144.976271 -461.259408 
z
"/>
    </defs>
    <g clip-path="url(#p7e2dca1f01)">
     <use xlink:href="#m0783c9dc63" x="0" y="524.88" style="fill: #406992; fill-opacity: 0.2"/>
    </g>
   </g>
   <g id="FillBetweenPolyCollection_3">
    <defs>
     <path id="m015edfdf14" d="M 144.976271 -63.620592 
L 144.976271 -118.779755 
L 147.372573 -118.77951 
L 149.768875 -118.779217 
L 152.165177 -118.778865 
L 154.561479 -118.778444 
L 156.957781 -118.777938 
L 159.354083 -118.777331 
L 161.750385 -118.776603 
L 164.146687 -118.775731 
L 166.542989 -118.774684 
L 168.939291 -118.773429 
L 171.335593 -118.771925 
L 173.731895 -118.770121 
L 176.128197 -118.767958 
L 178.524499 -118.765366 
L 180.920801 -118.762258 
L 183.317103 -118.758533 
L 185.713405 -118.754069 
L 188.109707 -118.74872 
L 190.506009 -118.742312 
L 192.902311 -118.734637 
L 195.298613 -118.725448 
L 197.694915 -118.714449 
L 200.091217 -118.701289 
L 202.487519 -118.685551 
L 204.883821 -118.666741 
L 207.280123 -118.644275 
L 209.676425 -118.617464 
L 212.072727 -118.585501 
L 214.469029 -118.547438 
L 216.865331 -118.502177 
L 219.261633 -118.448444 
L 221.657935 -118.38478 
L 224.054237 -118.309525 
L 226.450539 -118.220816 
L 228.846841 -118.116586 
L 231.243143 -117.994588 
L 233.639445 -117.852431 
L 236.035747 -117.687645 
L 238.432049 -117.497779 
L 240.828351 -117.280533 
L 243.224653 -117.033929 
L 245.620955 -116.756516 
L 248.017257 -116.447597 
L 250.413559 -116.107459 
L 252.809861 -115.737575 
L 255.206163 -115.340741 
L 257.602465 -114.92112 
L 259.998767 -114.484146 
L 262.395069 -114.036301 
L 264.791371 -113.584753 
L 267.187673 -113.136908 
L 269.583975 -112.699935 
L 271.980277 -112.280313 
L 274.376579 -111.883479 
L 276.772881 -111.513595 
L 279.169183 -111.173457 
L 281.565485 -110.864538 
L 283.961787 -110.587125 
L 286.358089 -110.340521 
L 288.754391 -110.123275 
L 291.150693 -109.933409 
L 293.546995 -109.768623 
L 295.943297 -109.626466 
L 298.339599 -109.504468 
L 300.735901 -109.400238 
L 303.132203 -109.311529 
L 305.528505 -109.236274 
L 307.924807 -109.17261 
L 310.321109 -109.118877 
L 312.717411 -109.073616 
L 315.113713 -109.035553 
L 317.510015 -109.00359 
L 319.906317 -108.976779 
L 322.302619 -108.954314 
L 324.698921 -108.935504 
L 327.095223 -108.919766 
L 329.491525 -108.906606 
L 331.887827 -108.895606 
L 334.284129 -108.886417 
L 336.680431 -108.878742 
L 339.076733 -108.872335 
L 341.473035 -108.866986 
L 343.869337 -108.862522 
L 346.265639 -108.858796 
L 348.661941 -108.855689 
L 351.058243 -108.853096 
L 353.454545 -108.850933 
L 355.850847 -108.849129 
L 358.247149 -108.847625 
L 360.643451 -108.84637 
L 363.039753 -108.845324 
L 365.436055 -108.844451 
L 367.832357 -108.843723 
L 370.228659 -108.843117 
L 372.624961 -108.842611 
L 375.021263 -108.842189 
L 377.417565 -108.841837 
L 379.813867 -108.841544 
L 382.210169 -108.841299 
L 382.210169 -53.682136 
L 382.210169 -53.682136 
L 379.813867 -53.68238 
L 377.417565 -53.682674 
L 375.021263 -53.683025 
L 372.624961 -53.683447 
L 370.228659 -53.683953 
L 367.832357 -53.68456 
L 365.436055 -53.685288 
L 363.039753 -53.68616 
L 360.643451 -53.687207 
L 358.247149 -53.688461 
L 355.850847 -53.689966 
L 353.454545 -53.69177 
L 351.058243 -53.693932 
L 348.661941 -53.696525 
L 346.265639 -53.699633 
L 343.869337 -53.703358 
L 341.473035 -53.707822 
L 339.076733 -53.713171 
L 336.680431 -53.719579 
L 334.284129 -53.727254 
L 331.887827 -53.736443 
L 329.491525 -53.747442 
L 327.095223 -53.760602 
L 324.698921 -53.77634 
L 322.302619 -53.79515 
L 319.906317 -53.817616 
L 317.510015 -53.844426 
L 315.113713 -53.87639 
L 312.717411 -53.914452 
L 310.321109 -53.959714 
L 307.924807 -54.013447 
L 305.528505 -54.077111 
L 303.132203 -54.152365 
L 300.735901 -54.241075 
L 298.339599 -54.345304 
L 295.943297 -54.467302 
L 293.546995 -54.60946 
L 291.150693 -54.774246 
L 288.754391 -54.964112 
L 286.358089 -55.181358 
L 283.961787 -55.427962 
L 281.565485 -55.705375 
L 279.169183 -56.014293 
L 276.772881 -56.354431 
L 274.376579 -56.724316 
L 271.980277 -57.12115 
L 269.583975 -57.540771 
L 267.187673 -57.977745 
L 264.791371 -58.425589 
L 262.395069 -58.877138 
L 259.998767 -59.324983 
L 257.602465 -59.761956 
L 255.206163 -60.181578 
L 252.809861 -60.578411 
L 250.413559 -60.948296 
L 248.017257 -61.288434 
L 245.620955 -61.597353 
L 243.224653 -61.874766 
L 240.828351 -62.12137 
L 238.432049 -62.338616 
L 236.035747 -62.528482 
L 233.639445 -62.693268 
L 231.243143 -62.835425 
L 228.846841 -62.957423 
L 226.450539 -63.061653 
L 224.054237 -63.150362 
L 221.657935 -63.225616 
L 219.261633 -63.28928 
L 216.865331 -63.343013 
L 214.469029 -63.388275 
L 212.072727 -63.426337 
L 209.676425 -63.458301 
L 207.280123 -63.485111 
L 204.883821 -63.507577 
L 202.487519 -63.526387 
L 200.091217 -63.542125 
L 197.694915 -63.555285 
L 195.298613 -63.566284 
L 192.902311 -63.575474 
L 190.506009 -63.583148 
L 188.109707 -63.589556 
L 185.713405 -63.594905 
L 183.317103 -63.599369 
L 180.920801 -63.603094 
L 178.524499 -63.606202 
L 176.128197 -63.608795 
L 173.731895 -63.610958 
L 171.335593 -63.612762 
L 168.939291 -63.614266 
L 166.542989 -63.615521 
L 164.146687 -63.616567 
L 161.750385 -63.61744 
L 159.354083 -63.618167 
L 156.957781 -63.618774 
L 154.561479 -63.61928 
L 152.165177 -63.619702 
L 149.768875 -63.620054 
L 147.372573 -63.620347 
L 144.976271 -63.620592 
z
"/>
    </defs>
    <g clip-path="url(#p7e2dca1f01)">
     <use xlink:href="#m015edfdf14" x="0" y="524.88" style="fill: #b78935; fill-opacity: 0.2"/>
    </g>
   </g>
   <g id="FillBetweenPolyCollection_4">
    <defs>
     <path id="m8604e79f78" d="M 382.210169 -128.721891 
L 382.210169 -471.199091 
L 408.569492 -471.199091 
L 408.569492 -128.721891 
L 408.569492 -128.721891 
L 382.210169 -128.721891 
z
"/>
    </defs>
    <g clip-path="url(#p7e2dca1f01)">
     <use xlink:href="#m8604e79f78" x="0" y="524.88" style="fill: #406992"/>
    </g>
   </g>
   <g id="FillBetweenPolyCollection_5">
    <defs>
     <path id="m2bd9103625" d="M 382.210169 -53.680909 
L 382.210169 -108.840073 
L 408.569492 -108.840073 
L 408.569492 -53.680909 
L 408.569492 -53.680909 
L 382.210169 -53.680909 
z
"/>
    </defs>
    <g clip-path="url(#p7e2dca1f01)">
     <use xlink:href="#m2bd9103625" x="0" y="524.88" style="fill: #b78935"/>
    </g>
   </g>
   <g id="FillBetweenPolyCollection_6">
    <defs>
     <path id="m79a45fe09c" d="M 645.80339 -23.858182 
L 645.80339 -59.232714 
L 672.162712 -59.232714 
L 672.162712 -23.858182 
L 672.162712 -23.858182 
L 645.80339 -23.858182 
z
"/>
    </defs>
    <g clip-path="url(#p7e2dca1f01)">
     <use xlink:href="#m79a45fe09c" x="0" y="524.88" style="fill: #b78935"/>
    </g>
   </g>
   <g id="FillBetweenPolyCollection_7">
    <defs>
     <path id="m4d55daefc4" d="M 645.80339 -79.114532 
L 645.80339 -98.899163 
L 672.162712 -98.899163 
L 672.162712 -79.114532 
L 672.162712 -79.114532 
L 645.80339 -79.114532 
z
"/>
    </defs>
    <g clip-path="url(#p7e2dca1f01)">
     <use xlink:href="#m4d55daefc4" x="0" y="524.88" style="fill: #949494"/>
    </g>
   </g>
   <g id="FillBetweenPolyCollection_8">
    <defs>
     <path id="me6156871a7" d="M 645.80339 -138.6628 
L 645.80339 -190.010454 
L 672.162712 -190.010454 
L 672.162712 -138.6628 
L 672.162712 -138.6628 
L 645.80339 -138.6628 
z
"/>
    </defs>
    <g clip-path="url(#p7e2dca1f01)">
     <use xlink:href="#me6156871a7" x="0" y="524.88" style="fill: #949494"/>
    </g>
   </g>
   <g id="FillBetweenPolyCollection_9">
    <defs>
     <path id="m82c953b4a4" d="M 645.80339 -209.892273 
L 645.80339 -501.021818 
L 672.162712 -501.021818 
L 672.162712 -209.892273 
L 672.162712 -209.892273 
L 645.80339 -209.892273 
z
"/>
    </defs>
    <g clip-path="url(#p7e2dca1f01)">
     <use xlink:href="#m82c953b4a4" x="0" y="524.88" style="fill: #406992"/>
    </g>
   </g>
   <g id="FillBetweenPolyCollection_10">
    <defs>
     <path id="m23454635bd" d="M 408.569492 -89.054214 
L 408.569492 -108.838846 
L 410.965794 -108.838601 
L 413.362096 -108.838308 
L 415.758398 -108.837956 
L 418.1547 -108.837534 
L 420.551002 -108.837028 
L 422.947304 -108.836422 
L 425.343606 -108.835694 
L 427.739908 -108.834822 
L 430.13621 -108.833775 
L 432.532512 -108.83252 
L 434.928814 -108.831016 
L 437.325116 -108.829212 
L 439.721418 -108.827049 
L 442.11772 -108.824457 
L 444.514022 -108.821349 
L 446.910324 -108.817624 
L 449.306626 -108.81316 
L 451.702928 -108.807811 
L 454.09923 -108.801403 
L 456.495532 -108.793728 
L 458.891834 -108.784539 
L 461.288136 -108.77354 
L 463.684438 -108.760379 
L 466.08074 -108.744642 
L 468.477042 -108.725832 
L 470.873344 -108.703366 
L 473.269646 -108.676555 
L 475.665948 -108.644592 
L 478.06225 -108.606529 
L 480.458552 -108.561268 
L 482.854854 -108.507535 
L 485.251156 -108.443871 
L 487.647458 -108.368616 
L 490.04376 -108.279907 
L 492.440062 -108.175677 
L 494.836364 -108.053679 
L 497.232666 -107.911522 
L 499.628968 -107.746736 
L 502.02527 -107.55687 
L 504.421572 -107.339624 
L 506.817874 -107.09302 
L 509.214176 -106.815607 
L 511.610478 -106.506688 
L 514.00678 -106.16655 
L 516.403082 -105.796666 
L 518.799384 -105.399832 
L 521.195686 -104.980211 
L 523.591988 -104.543237 
L 525.98829 -104.095392 
L 528.384592 -103.643844 
L 530.780894 -103.195999 
L 533.177196 -102.759026 
L 535.573498 -102.339404 
L 537.9698 -101.94257 
L 540.366102 -101.572686 
L 542.762404 -101.232548 
L 545.158706 -100.923629 
L 547.555008 -100.646216 
L 549.95131 -100.399612 
L 552.347612 -100.182366 
L 554.743914 -99.9925 
L 557.140216 -99.827714 
L 559.536518 -99.685557 
L 561.93282 -99.563559 
L 564.329122 -99.459329 
L 566.725424 -99.37062 
L 569.121726 -99.295365 
L 571.518028 -99.231701 
L 573.91433 -99.177968 
L 576.310632 -99.132707 
L 578.706934 -99.094644 
L 581.103236 -99.062681 
L 583.499538 -99.03587 
L 585.89584 -99.013404 
L 588.292142 -98.994595 
L 590.688444 -98.978857 
L 593.084746 -98.965697 
L 595.481048 -98.954697 
L 597.87735 -98.945508 
L 600.273652 -98.937833 
L 602.669954 -98.931425 
L 605.066256 -98.926077 
L 607.462558 -98.921612 
L 609.85886 -98.917887 
L 612.255162 -98.914779 
L 614.651464 -98.912187 
L 617.047766 -98.910024 
L 619.444068 -98.90822 
L 621.84037 -98.906716 
L 624.236672 -98.905461 
L 626.632974 -98.904415 
L 629.029276 -98.903542 
L 631.425578 -98.902814 
L 633.82188 -98.902208 
L 636.218182 -98.901702 
L 638.614484 -98.90128 
L 641.010786 -98.900928 
L 643.407088 -98.900635 
L 645.80339 -98.90039 
L 645.80339 -79.115759 
L 645.80339 -79.115759 
L 643.407088 -79.116003 
L 641.010786 -79.116296 
L 638.614484 -79.116648 
L 636.218182 -79.11707 
L 633.82188 -79.117576 
L 631.425578 -79.118183 
L 629.029276 -79.11891 
L 626.632974 -79.119783 
L 624.236672 -79.120829 
L 621.84037 -79.122084 
L 619.444068 -79.123589 
L 617.047766 -79.125392 
L 614.651464 -79.127555 
L 612.255162 -79.130148 
L 609.85886 -79.133256 
L 607.462558 -79.136981 
L 605.066256 -79.141445 
L 602.669954 -79.146794 
L 600.273652 -79.153202 
L 597.87735 -79.160876 
L 595.481048 -79.170066 
L 593.084746 -79.181065 
L 590.688444 -79.194225 
L 588.292142 -79.209963 
L 585.89584 -79.228773 
L 583.499538 -79.251239 
L 581.103236 -79.278049 
L 578.706934 -79.310013 
L 576.310632 -79.348075 
L 573.91433 -79.393337 
L 571.518028 -79.44707 
L 569.121726 -79.510734 
L 566.725424 -79.585988 
L 564.329122 -79.674697 
L 561.93282 -79.778927 
L 559.536518 -79.900925 
L 557.140216 -80.043082 
L 554.743914 -80.207868 
L 552.347612 -80.397734 
L 549.95131 -80.61498 
L 547.555008 -80.861584 
L 545.158706 -81.138997 
L 542.762404 -81.447916 
L 540.366102 -81.788054 
L 537.9698 -82.157939 
L 535.573498 -82.554772 
L 533.177196 -82.974394 
L 530.780894 -83.411367 
L 528.384592 -83.859212 
L 525.98829 -84.310761 
L 523.591988 -84.758606 
L 521.195686 -85.195579 
L 518.799384 -85.6152 
L 516.403082 -86.012034 
L 514.00678 -86.381919 
L 511.610478 -86.722057 
L 509.214176 -87.030975 
L 506.817874 -87.308388 
L 504.421572 -87.554992 
L 502.02527 -87.772238 
L 499.628968 -87.962104 
L 497.232666 -88.12689 
L 494.836364 -88.269048 
L 492.440062 -88.391046 
L 490.04376 -88.495275 
L 487.647458 -88.583985 
L 485.251156 -88.659239 
L 482.854854 -88.722903 
L 480.458552 -88.776636 
L 478.06225 -88.821898 
L 475.665948 -88.85996 
L 473.269646 -88.891924 
L 470.873344 -88.918734 
L 468.477042 -88.9412 
L 466.08074 -88.96001 
L 463.684438 -88.975748 
L 461.288136 -88.988908 
L 458.891834 -88.999907 
L 456.495532 -89.009096 
L 454.09923 -89.016771 
L 451.702928 -89.023179 
L 449.306626 -89.028528 
L 446.910324 -89.032992 
L 444.514022 -89.036717 
L 442.11772 -89.039825 
L 439.721418 -89.042418 
L 437.325116 -89.04458 
L 434.928814 -89.046384 
L 432.532512 -89.047889 
L 430.13621 -89.049144 
L 427.739908 -89.05019 
L 425.343606 -89.051062 
L 422.947304 -89.05179 
L 420.551002 -89.052397 
L 418.1547 -89.052903 
L 415.758398 -89.053325 
L 413.362096 -89.053676 
L 410.965794 -89.05397 
L 408.569492 -89.054214 
z
"/>
    </defs>
    <g clip-path="url(#p7e2dca1f01)">
     <use xlink:href="#m23454635bd" x="0" y="524.88" style="fill: #949494; fill-opacity: 0.2"/>
    </g>
   </g>
   <g id="FillBetweenPolyCollection_11">
    <defs>
     <path id="m5315c1d2be" d="M 408.569492 -53.677229 
L 408.569492 -89.051761 
L 410.965794 -89.051027 
L 413.362096 -89.050147 
L 415.758398 -89.049092 
L 418.1547 -89.047827 
L 420.551002 -89.046309 
L 422.947304 -89.044488 
L 425.343606 -89.042306 
L 427.739908 -89.039688 
L 430.13621 -89.036549 
L 432.532512 -89.032784 
L 434.928814 -89.028271 
L 437.325116 -89.022859 
L 439.721418 -89.016371 
L 442.11772 -89.008593 
L 444.514022 -88.999269 
L 446.910324 -88.988094 
L 449.306626 -88.974702 
L 451.702928 -88.958655 
L 454.09923 -88.939431 
L 456.495532 -88.916407 
L 458.891834 -88.888839 
L 461.288136 -88.855842 
L 463.684438 -88.816362 
L 466.08074 -88.769148 
L 468.477042 -88.712718 
L 470.873344 -88.64532 
L 473.269646 -88.564889 
L 475.665948 -88.468998 
L 478.06225 -88.354811 
L 480.458552 -88.219026 
L 482.854854 -88.057827 
L 485.251156 -87.866835 
L 487.647458 -87.641072 
L 490.04376 -87.374944 
L 492.440062 -87.062255 
L 494.836364 -86.696261 
L 497.232666 -86.269789 
L 499.628968 -85.775431 
L 502.02527 -85.205833 
L 504.421572 -84.554095 
L 506.817874 -83.814283 
L 509.214176 -82.982045 
L 511.610478 -82.055288 
L 514.00678 -81.034874 
L 516.403082 -79.925221 
L 518.799384 -78.734719 
L 521.195686 -77.475855 
L 523.591988 -76.164935 
L 525.98829 -74.8214 
L 528.384592 -73.466754 
L 530.780894 -72.12322 
L 533.177196 -70.8123 
L 535.573498 -69.553435 
L 537.9698 -68.362934 
L 540.366102 -67.25328 
L 542.762404 -66.232866 
L 545.158706 -65.30611 
L 547.555008 -64.473871 
L 549.95131 -63.73406 
L 552.347612 -63.082321 
L 554.743914 -62.512723 
L 557.140216 -62.018365 
L 559.536518 -61.591894 
L 561.93282 -61.2259 
L 564.329122 -60.913211 
L 566.725424 -60.647083 
L 569.121726 -60.421319 
L 571.518028 -60.230327 
L 573.91433 -60.069128 
L 576.310632 -59.933344 
L 578.706934 -59.819156 
L 581.103236 -59.723266 
L 583.499538 -59.642834 
L 585.89584 -59.575437 
L 588.292142 -59.519007 
L 590.688444 -59.471793 
L 593.084746 -59.432313 
L 595.481048 -59.399315 
L 597.87735 -59.371747 
L 600.273652 -59.348723 
L 602.669954 -59.3295 
L 605.066256 -59.313453 
L 607.462558 -59.300061 
L 609.85886 -59.288885 
L 612.255162 -59.279562 
L 614.651464 -59.271784 
L 617.047766 -59.265295 
L 619.444068 -59.259884 
L 621.84037 -59.25537 
L 624.236672 -59.251606 
L 626.632974 -59.248467 
L 629.029276 -59.245849 
L 631.425578 -59.243666 
L 633.82188 -59.241846 
L 636.218182 -59.240328 
L 638.614484 -59.239063 
L 641.010786 -59.238007 
L 643.407088 -59.237127 
L 645.80339 -59.236394 
L 645.80339 -23.861862 
L 645.80339 -23.861862 
L 643.407088 -23.862595 
L 641.010786 -23.863475 
L 638.614484 -23.864531 
L 636.218182 -23.865796 
L 633.82188 -23.867314 
L 631.425578 -23.869134 
L 629.029276 -23.871317 
L 626.632974 -23.873935 
L 624.236672 -23.877074 
L 621.84037 -23.880838 
L 619.444068 -23.885352 
L 617.047766 -23.890764 
L 614.651464 -23.897252 
L 612.255162 -23.90503 
L 609.85886 -23.914354 
L 607.462558 -23.925529 
L 605.066256 -23.938921 
L 602.669954 -23.954968 
L 600.273652 -23.974192 
L 597.87735 -23.997216 
L 595.481048 -24.024783 
L 593.084746 -24.057781 
L 590.688444 -24.097261 
L 588.292142 -24.144475 
L 585.89584 -24.200905 
L 583.499538 -24.268302 
L 581.103236 -24.348734 
L 578.706934 -24.444624 
L 576.310632 -24.558812 
L 573.91433 -24.694596 
L 571.518028 -24.855795 
L 569.121726 -25.046787 
L 566.725424 -25.272551 
L 564.329122 -25.538679 
L 561.93282 -25.851368 
L 559.536518 -26.217362 
L 557.140216 -26.643833 
L 554.743914 -27.138191 
L 552.347612 -27.707789 
L 549.95131 -28.359528 
L 547.555008 -29.09934 
L 545.158706 -29.931578 
L 542.762404 -30.858335 
L 540.366102 -31.878748 
L 537.9698 -32.988402 
L 535.573498 -34.178903 
L 533.177196 -35.437768 
L 530.780894 -36.748688 
L 528.384592 -38.092223 
L 525.98829 -39.446868 
L 523.591988 -40.790403 
L 521.195686 -42.101323 
L 518.799384 -43.360187 
L 516.403082 -44.550689 
L 514.00678 -45.660342 
L 511.610478 -46.680756 
L 509.214176 -47.607513 
L 506.817874 -48.439751 
L 504.421572 -49.179563 
L 502.02527 -49.831301 
L 499.628968 -50.4009 
L 497.232666 -50.895257 
L 494.836364 -51.321729 
L 492.440062 -51.687723 
L 490.04376 -52.000412 
L 487.647458 -52.26654 
L 485.251156 -52.492303 
L 482.854854 -52.683296 
L 480.458552 -52.844494 
L 478.06225 -52.980279 
L 475.665948 -53.094466 
L 473.269646 -53.190357 
L 470.873344 -53.270788 
L 468.477042 -53.338186 
L 466.08074 -53.394616 
L 463.684438 -53.44183 
L 461.288136 -53.48131 
L 458.891834 -53.514307 
L 456.495532 -53.541875 
L 454.09923 -53.564899 
L 451.702928 -53.584123 
L 449.306626 -53.60017 
L 446.910324 -53.613562 
L 444.514022 -53.624737 
L 442.11772 -53.634061 
L 439.721418 -53.641839 
L 437.325116 -53.648327 
L 434.928814 -53.653739 
L 432.532512 -53.658253 
L 430.13621 -53.662017 
L 427.739908 -53.665156 
L 425.343606 -53.667774 
L 422.947304 -53.669957 
L 420.551002 -53.671777 
L 418.1547 -53.673295 
L 415.758398 -53.67456 
L 413.362096 -53.675616 
L 410.965794 -53.676495 
L 408.569492 -53.677229 
z
"/>
    </defs>
    <g clip-path="url(#p7e2dca1f01)">
     <use xlink:href="#m5315c1d2be" x="0" y="524.88" style="fill: #b78935; fill-opacity: 0.2"/>
    </g>
   </g>
   <g id="FillBetweenPolyCollection_12">
    <defs>
     <path id="m789b4d0eb2" d="M 408.569492 -180.070772 
L 408.569492 -128.723117 
L 410.965794 -128.723362 
L 413.362096 -128.723655 
L 415.758398 -128.724007 
L 418.1547 -128.724429 
L 420.551002 -128.724935 
L 422.947304 -128.725542 
L 425.343606 -128.726269 
L 427.739908 -128.727142 
L 430.13621 -128.728188 
L 432.532512 -128.729443 
L 434.928814 -128.730947 
L 437.325116 -128.732751 
L 439.721418 -128.734914 
L 442.11772 -128.737507 
L 444.514022 -128.740615 
L 446.910324 -128.74434 
L 449.306626 -128.748804 
L 451.702928 -128.754153 
L 454.09923 -128.760561 
L 456.495532 -128.768235 
L 458.891834 -128.777425 
L 461.288136 -128.788424 
L 463.684438 -128.801584 
L 466.08074 -128.817322 
L 468.477042 -128.836132 
L 470.873344 -128.858598 
L 473.269646 -128.885408 
L 475.665948 -128.917372 
L 478.06225 -128.955434 
L 480.458552 -129.000696 
L 482.854854 -129.054429 
L 485.251156 -129.118093 
L 487.647458 -129.193347 
L 490.04376 -129.282056 
L 492.440062 -129.386286 
L 494.836364 -129.508284 
L 497.232666 -129.650441 
L 499.628968 -129.815227 
L 502.02527 -130.005093 
L 504.421572 -130.222339 
L 506.817874 -130.468943 
L 509.214176 -130.746356 
L 511.610478 -131.055275 
L 514.00678 -131.395413 
L 516.403082 -131.765298 
L 518.799384 -132.162131 
L 521.195686 -132.581753 
L 523.591988 -133.018726 
L 525.98829 -133.466571 
L 528.384592 -133.91812 
L 530.780894 -134.365964 
L 533.177196 -134.802938 
L 535.573498 -135.222559 
L 537.9698 -135.619393 
L 540.366102 -135.989278 
L 542.762404 -136.329416 
L 545.158706 -136.638334 
L 547.555008 -136.915747 
L 549.95131 -137.162351 
L 552.347612 -137.379597 
L 554.743914 -137.569463 
L 557.140216 -137.734249 
L 559.536518 -137.876407 
L 561.93282 -137.998404 
L 564.329122 -138.102634 
L 566.725424 -138.191344 
L 569.121726 -138.266598 
L 571.518028 -138.330262 
L 573.91433 -138.383995 
L 576.310632 -138.429257 
L 578.706934 -138.467319 
L 581.103236 -138.499283 
L 583.499538 -138.526093 
L 585.89584 -138.548559 
L 588.292142 -138.567369 
L 590.688444 -138.583107 
L 593.084746 -138.596267 
L 595.481048 -138.607266 
L 597.87735 -138.616455 
L 600.273652 -138.62413 
L 602.669954 -138.630538 
L 605.066256 -138.635887 
L 607.462558 -138.640351 
L 609.85886 -138.644076 
L 612.255162 -138.647184 
L 614.651464 -138.649777 
L 617.047766 -138.651939 
L 619.444068 -138.653743 
L 621.84037 -138.655248 
L 624.236672 -138.656502 
L 626.632974 -138.657549 
L 629.029276 -138.658421 
L 631.425578 -138.659149 
L 633.82188 -138.659756 
L 636.218182 -138.660262 
L 638.614484 -138.660684 
L 641.010786 -138.661035 
L 643.407088 -138.661329 
L 645.80339 -138.661573 
L 645.80339 -190.009228 
L 645.80339 -190.009228 
L 643.407088 -190.008983 
L 641.010786 -190.00869 
L 638.614484 -190.008338 
L 636.218182 -190.007916 
L 633.82188 -190.00741 
L 631.425578 -190.006804 
L 629.029276 -190.006076 
L 626.632974 -190.005203 
L 624.236672 -190.004157 
L 621.84037 -190.002902 
L 619.444068 -190.001398 
L 617.047766 -189.999594 
L 614.651464 -189.997431 
L 612.255162 -189.994838 
L 609.85886 -189.99173 
L 607.462558 -189.988005 
L 605.066256 -189.983541 
L 602.669954 -189.978192 
L 600.273652 -189.971784 
L 597.87735 -189.96411 
L 595.481048 -189.95492 
L 593.084746 -189.943921 
L 590.688444 -189.930761 
L 588.292142 -189.915023 
L 585.89584 -189.896213 
L 583.499538 -189.873747 
L 581.103236 -189.846937 
L 578.706934 -189.814973 
L 576.310632 -189.776911 
L 573.91433 -189.731649 
L 571.518028 -189.677917 
L 569.121726 -189.614252 
L 566.725424 -189.538998 
L 564.329122 -189.450289 
L 561.93282 -189.346059 
L 559.536518 -189.224061 
L 557.140216 -189.081904 
L 554.743914 -188.917118 
L 552.347612 -188.727252 
L 549.95131 -188.510006 
L 547.555008 -188.263402 
L 545.158706 -187.985989 
L 542.762404 -187.67707 
L 540.366102 -187.336932 
L 537.9698 -186.967048 
L 535.573498 -186.570214 
L 533.177196 -186.150592 
L 530.780894 -185.713619 
L 528.384592 -185.265774 
L 525.98829 -184.814226 
L 523.591988 -184.366381 
L 521.195686 -183.929407 
L 518.799384 -183.509786 
L 516.403082 -183.112952 
L 514.00678 -182.743067 
L 511.610478 -182.40293 
L 509.214176 -182.094011 
L 506.817874 -181.816598 
L 504.421572 -181.569994 
L 502.02527 -181.352748 
L 499.628968 -181.162882 
L 497.232666 -180.998096 
L 494.836364 -180.855939 
L 492.440062 -180.733941 
L 490.04376 -180.629711 
L 487.647458 -180.541002 
L 485.251156 -180.465747 
L 482.854854 -180.402083 
L 480.458552 -180.34835 
L 478.06225 -180.303089 
L 475.665948 -180.265026 
L 473.269646 -180.233063 
L 470.873344 -180.206252 
L 468.477042 -180.183786 
L 466.08074 -180.164976 
L 463.684438 -180.149238 
L 461.288136 -180.136078 
L 458.891834 -180.125079 
L 456.495532 -180.11589 
L 454.09923 -180.108215 
L 451.702928 -180.101807 
L 449.306626 -180.096458 
L 446.910324 -180.091994 
L 444.514022 -180.088269 
L 442.11772 -180.085161 
L 439.721418 -180.082569 
L 437.325116 -180.080406 
L 434.928814 -180.078602 
L 432.532512 -180.077097 
L 430.13621 -180.075843 
L 427.739908 -180.074796 
L 425.343606 -180.073924 
L 422.947304 -180.073196 
L 420.551002 -180.072589 
L 418.1547 -180.072083 
L 415.758398 -180.071662 
L 413.362096 -180.07131 
L 410.965794 -180.071016 
L 408.569492 -180.070772 
z
"/>
    </defs>
    <g clip-path="url(#p7e2dca1f01)">
     <use xlink:href="#m789b4d0eb2" x="0" y="524.88" style="fill: #949494; fill-opacity: 0.2"/>
    </g>
   </g>
   <g id="FillBetweenPolyCollection_13">
    <defs>
     <path id="m11ce56a108" d="M 408.569492 -471.202771 
L 408.569492 -180.073225 
L 410.965794 -180.073959 
L 413.362096 -180.074839 
L 415.758398 -180.075894 
L 418.1547 -180.07716 
L 420.551002 -180.078678 
L 422.947304 -180.080498 
L 425.343606 -180.082681 
L 427.739908 -180.085298 
L 430.13621 -180.088438 
L 432.532512 -180.092202 
L 434.928814 -180.096715 
L 437.325116 -180.102127 
L 439.721418 -180.108615 
L 442.11772 -180.116393 
L 444.514022 -180.125717 
L 446.910324 -180.136892 
L 449.306626 -180.150284 
L 451.702928 -180.166331 
L 454.09923 -180.185555 
L 456.495532 -180.208579 
L 458.891834 -180.236147 
L 461.288136 -180.269144 
L 463.684438 -180.308625 
L 466.08074 -180.355838 
L 468.477042 -180.412268 
L 470.873344 -180.479666 
L 473.269646 -180.560097 
L 475.665948 -180.655988 
L 478.06225 -180.770175 
L 480.458552 -180.90596 
L 482.854854 -181.067159 
L 485.251156 -181.258151 
L 487.647458 -181.483914 
L 490.04376 -181.750042 
L 492.440062 -182.062731 
L 494.836364 -182.428725 
L 497.232666 -182.855197 
L 499.628968 -183.349555 
L 502.02527 -183.919153 
L 504.421572 -184.570891 
L 506.817874 -185.310703 
L 509.214176 -186.142942 
L 511.610478 -187.069698 
L 514.00678 -188.090112 
L 516.403082 -189.199766 
L 518.799384 -190.390267 
L 521.195686 -191.649131 
L 523.591988 -192.960052 
L 525.98829 -194.303586 
L 528.384592 -195.658232 
L 530.780894 -197.001766 
L 533.177196 -198.312686 
L 535.573498 -199.571551 
L 537.9698 -200.762052 
L 540.366102 -201.871706 
L 542.762404 -202.89212 
L 545.158706 -203.818876 
L 547.555008 -204.651115 
L 549.95131 -205.390927 
L 552.347612 -206.042665 
L 554.743914 -206.612263 
L 557.140216 -207.106621 
L 559.536518 -207.533093 
L 561.93282 -207.899086 
L 564.329122 -208.211776 
L 566.725424 -208.477904 
L 569.121726 -208.703667 
L 571.518028 -208.894659 
L 573.91433 -209.055858 
L 576.310632 -209.191643 
L 578.706934 -209.30583 
L 581.103236 -209.401721 
L 583.499538 -209.482152 
L 585.89584 -209.54955 
L 588.292142 -209.605979 
L 590.688444 -209.653193 
L 593.084746 -209.692673 
L 595.481048 -209.725671 
L 597.87735 -209.753239 
L 600.273652 -209.776263 
L 602.669954 -209.795487 
L 605.066256 -209.811533 
L 607.462558 -209.824926 
L 609.85886 -209.836101 
L 612.255162 -209.845425 
L 614.651464 -209.853203 
L 617.047766 -209.859691 
L 619.444068 -209.865103 
L 621.84037 -209.869616 
L 624.236672 -209.87338 
L 626.632974 -209.876519 
L 629.029276 -209.879137 
L 631.425578 -209.88132 
L 633.82188 -209.88314 
L 636.218182 -209.884658 
L 638.614484 -209.885924 
L 641.010786 -209.886979 
L 643.407088 -209.887859 
L 645.80339 -209.888593 
L 645.80339 -501.018138 
L 645.80339 -501.018138 
L 643.407088 -501.017405 
L 641.010786 -501.016525 
L 638.614484 -501.015469 
L 636.218182 -501.014204 
L 633.82188 -501.012686 
L 631.425578 -501.010866 
L 629.029276 -501.008683 
L 626.632974 -501.006065 
L 624.236672 -501.002926 
L 621.84037 -500.999162 
L 619.444068 -500.994648 
L 617.047766 -500.989236 
L 614.651464 -500.982748 
L 612.255162 -500.97497 
L 609.85886 -500.965646 
L 607.462558 -500.954471 
L 605.066256 -500.941079 
L 602.669954 -500.925032 
L 600.273652 -500.905808 
L 597.87735 -500.882784 
L 595.481048 -500.855217 
L 593.084746 -500.822219 
L 590.688444 -500.782739 
L 588.292142 -500.735525 
L 585.89584 -500.679095 
L 583.499538 -500.611698 
L 581.103236 -500.531266 
L 578.706934 -500.435376 
L 576.310632 -500.321188 
L 573.91433 -500.185404 
L 571.518028 -500.024205 
L 569.121726 -499.833213 
L 566.725424 -499.607449 
L 564.329122 -499.341321 
L 561.93282 -499.028632 
L 559.536518 -498.662638 
L 557.140216 -498.236167 
L 554.743914 -497.741809 
L 552.347612 -497.172211 
L 549.95131 -496.520472 
L 547.555008 -495.78066 
L 545.158706 -494.948422 
L 542.762404 -494.021665 
L 540.366102 -493.001252 
L 537.9698 -491.891598 
L 535.573498 -490.701097 
L 533.177196 -489.442232 
L 530.780894 -488.131312 
L 528.384592 -486.787777 
L 525.98829 -485.433132 
L 523.591988 -484.089597 
L 521.195686 -482.778677 
L 518.799384 -481.519813 
L 516.403082 -480.329311 
L 514.00678 -479.219658 
L 511.610478 -478.199244 
L 509.214176 -477.272487 
L 506.817874 -476.440249 
L 504.421572 -475.700437 
L 502.02527 -475.048699 
L 499.628968 -474.4791 
L 497.232666 -473.984743 
L 494.836364 -473.558271 
L 492.440062 -473.192277 
L 490.04376 -472.879588 
L 487.647458 -472.61346 
L 485.251156 -472.387697 
L 482.854854 -472.196704 
L 480.458552 -472.035506 
L 478.06225 -471.899721 
L 475.665948 -471.785534 
L 473.269646 -471.689643 
L 470.873344 -471.609212 
L 468.477042 -471.541814 
L 466.08074 -471.485384 
L 463.684438 -471.43817 
L 461.288136 -471.39869 
L 458.891834 -471.365693 
L 456.495532 -471.338125 
L 454.09923 -471.315101 
L 451.702928 -471.295877 
L 449.306626 -471.27983 
L 446.910324 -471.266438 
L 444.514022 -471.255263 
L 442.11772 -471.245939 
L 439.721418 -471.238161 
L 437.325116 -471.231673 
L 434.928814 -471.226261 
L 432.532512 -471.221747 
L 430.13621 -471.217983 
L 427.739908 -471.214844 
L 425.343606 -471.212226 
L 422.947304 -471.210043 
L 420.551002 -471.208223 
L 418.1547 -471.206705 
L 415.758398 -471.20544 
L 413.362096 -471.204384 
L 410.965794 -471.203505 
L 408.569492 -471.202771 
z
"/>
    </defs>
    <g clip-path="url(#p7e2dca1f01)">
     <use xlink:href="#m11ce56a108" x="0" y="524.88" style="fill: #406992; fill-opacity: 0.2"/>
    </g>
   </g>
   <g id="text_1">
    <text style="font-weight: 300; font-size: 16px; font-family: 'Source Sans 3', sans-serif; fill: #595959" transform="translate(14.302288 257.73225)">All Predictions</text>
    <text style="font-weight: 300; font-size: 16px; font-family: 'Source Sans 3', sans-serif; fill: #595959" transform="translate(70.012288 275.14775)">100%</text>
   </g>
   <g id="text_2">
    <text style="font-weight: 300; font-size: 16px; font-family: 'Source Sans 3', sans-serif; fill: #595959" transform="translate(251.910508 438.815509)">Drought Predicted</text>
    <text style="font-weight: 300; font-size: 16px; font-family: 'Source Sans 3', sans-serif; fill: #595959" transform="translate(330.278008 456.423509)">13.9%</text>
   </g>
   <g id="text_3">
    <text style="font-weight: 300; font-size: 16px; font-family: 'Source Sans 3', sans-serif; fill: #595959" transform="translate(230.085508 220.115509)">No Drought Predicted</text>
    <text style="font-weight: 300; font-size: 16px; font-family: 'Source Sans 3', sans-serif; fill: #595959" transform="translate(330.278008 237.723509)">86.1%</text>
   </g>
   <g id="text_4">
    <text style="font-weight: 300; font-size: 16px; font-family: 'Source Sans 3', sans-serif; fill: #595959" transform="translate(548.463729 478.530552)">Drought Obs.</text>
    <text style="font-weight: 300; font-size: 16px; font-family: 'Source Sans 3', sans-serif; fill: #595959" transform="translate(601.423729 496.138552)">8.9%</text>
   </g>
   <g id="text_5">
    <text style="font-weight: 300; font-size: 16px; font-family: 'Source Sans 3', sans-serif; fill: #595959" transform="translate(526.638729 431.069152)">No Drought Obs.</text>
    <text style="font-weight: 300; font-size: 16px; font-family: 'Source Sans 3', sans-serif; fill: #595959" transform="translate(601.423729 448.677152)">5.0%</text>
   </g>
   <g id="text_6">
    <text style="font-weight: 300; font-size: 16px; font-family: 'Source Sans 3', sans-serif; fill: #595959" transform="translate(548.463729 355.739373)">Drought Obs.</text>
    <text style="font-weight: 300; font-size: 16px; font-family: 'Source Sans 3', sans-serif; fill: #595959" transform="translate(593.871229 373.347373)">12.9%</text>
   </g>
   <g id="text_7">
    <text style="font-weight: 300; font-size: 16px; font-family: 'Source Sans 3', sans-serif; fill: #595959" transform="translate(526.638729 164.618955)">No Drought Obs.</text>
    <text style="font-weight: 300; font-size: 16px; font-family: 'Source Sans 3', sans-serif; fill: #595959" transform="translate(593.871229 182.226955)">73.2%</text>
   </g>
  </g>
 </g>
 <defs>
  <clipPath id="p7e2dca1f01">
   <rect x="0" y="0" width="699.84" height="524.88"/>
  </clipPath>
 </defs>
</svg>
