<?xml version="1.0" encoding="utf-8" standalone="no"?>
<!DOCTYPE svg PUBLIC "-//W3C//DTD SVG 1.1//EN"
  "http://www.w3.org/Graphics/SVG/1.1/DTD/svg11.dtd">
<svg xmlns:xlink="http://www.w3.org/1999/xlink" width="699.84px" height="524.88px" viewBox="0 0 699.84 524.88" xmlns="http://www.w3.org/2000/svg" version="1.1">
  <defs>
  <style type="text/css">*{stroke-linejoin: round; stroke-linecap: butt}</style>
 </defs>
 <g id="figure-forecast_truefalse">
  <g id="patch_1">
   <path d="M 0 524.88 
L 699.84 524.88 
L 699.84 0 
L 0 0 
z
" style="fill: #ffffff"/>
  </g>
  <g id="axis-forecast_truefalse">
   <g id="FillBetweenPolyCollection_1">
    <defs>
     <path id="m30d09690ba" d="M 118.616949 -63.621818 
L 118.616949 -461.258182 
L 144.976271 -461.258182 
L 144.976271 -63.621818 
L 144.976271 -63.621818 
L 118.616949 -63.621818 
z
"/>
    </defs>
    <g clip-path="url(#p3c455ddf48)">
     <use xlink:href="#m30d09690ba" x="0" y="524.88" style="fill: #00264c"/>
    </g>
   </g>
   <g id="FillBetweenPolyCollection_2">
    <defs>
     <path id="m502e24fec3" d="M 144.976271 -461.259408 
L 144.976271 -126.665529 
L 147.372573 -126.665774 
L 149.768875 -126.666067 
L 152.165177 -126.666419 
L 154.561479 -126.666841 
L 156.957781 -126.667347 
L 159.354083 -126.667954 
L 161.750385 -126.668681 
L 164.146687 -126.669554 
L 166.542989 -126.6706 
L 168.939291 -126.671855 
L 171.335593 -126.673359 
L 173.731895 -126.675163 
L 176.128197 -126.677326 
L 178.524499 -126.679919 
L 180.920801 -126.683027 
L 183.317103 -126.686752 
L 185.713405 -126.691216 
L 188.109707 -126.696565 
L 190.506009 -126.702973 
L 192.902311 -126.710647 
L 195.298613 -126.719837 
L 197.694915 -126.730836 
L 200.091217 -126.743996 
L 202.487519 -126.759734 
L 204.883821 -126.778544 
L 207.280123 -126.80101 
L 209.676425 -126.82782 
L 212.072727 -126.859784 
L 214.469029 -126.897846 
L 216.865331 -126.943108 
L 219.261633 -126.996841 
L 221.657935 -127.060505 
L 224.054237 -127.135759 
L 226.450539 -127.224468 
L 228.846841 -127.328698 
L 231.243143 -127.450696 
L 233.639445 -127.592853 
L 236.035747 -127.757639 
L 238.432049 -127.947505 
L 240.828351 -128.164751 
L 243.224653 -128.411355 
L 245.620955 -128.688768 
L 248.017257 -128.997687 
L 250.413559 -129.337825 
L 252.809861 -129.707709 
L 255.206163 -130.104543 
L 257.602465 -130.524165 
L 259.998767 -130.961138 
L 262.395069 -131.408983 
L 264.791371 -131.860532 
L 267.187673 -132.308376 
L 269.583975 -132.74535 
L 271.980277 -133.164971 
L 274.376579 -133.561805 
L 276.772881 -133.93169 
L 279.169183 -134.271828 
L 281.565485 -134.580746 
L 283.961787 -134.858159 
L 286.358089 -135.104763 
L 288.754391 -135.322009 
L 291.150693 -135.511875 
L 293.546995 -135.676661 
L 295.943297 -135.818818 
L 298.339599 -135.940816 
L 300.735901 -136.045046 
L 303.132203 -136.133755 
L 305.528505 -136.20901 
L 307.924807 -136.272674 
L 310.321109 -136.326407 
L 312.717411 -136.371668 
L 315.113713 -136.409731 
L 317.510015 -136.441694 
L 319.906317 -136.468505 
L 322.302619 -136.490971 
L 324.698921 -136.509781 
L 327.095223 -136.525519 
L 329.491525 -136.538679 
L 331.887827 -136.549678 
L 334.284129 -136.558867 
L 336.680431 -136.566542 
L 339.076733 -136.57295 
L 341.473035 -136.578299 
L 343.869337 -136.582763 
L 346.265639 -136.586488 
L 348.661941 -136.589596 
L 351.058243 -136.592188 
L 353.454545 -136.594351 
L 355.850847 -136.596155 
L 358.247149 -136.59766 
L 360.643451 -136.598914 
L 363.039753 -136.599961 
L 365.436055 -136.600833 
L 367.832357 -136.601561 
L 370.228659 -136.602168 
L 372.624961 -136.602674 
L 375.021263 -136.603096 
L 377.417565 -136.603447 
L 379.813867 -136.603741 
L 382.210169 -136.603985 
L 382.210169 -471.197864 
L 382.210169 -471.197864 
L 379.813867 -471.19762 
L 377.417565 -471.197326 
L 375.021263 -471.196975 
L 372.624961 -471.196553 
L 370.228659 -471.196047 
L 367.832357 -471.19544 
L 365.436055 -471.194712 
L 363.039753 -471.19384 
L 360.643451 -471.192793 
L 358.247149 -471.191539 
L 355.850847 -471.190034 
L 353.454545 -471.18823 
L 351.058243 -471.186068 
L 348.661941 -471.183475 
L 346.265639 -471.180367 
L 343.869337 -471.176642 
L 341.473035 -471.172178 
L 339.076733 -471.166829 
L 336.680431 -471.160421 
L 334.284129 -471.152746 
L 331.887827 -471.143557 
L 329.491525 -471.132558 
L 327.095223 -471.119398 
L 324.698921 -471.10366 
L 322.302619 -471.08485 
L 319.906317 -471.062384 
L 317.510015 -471.035574 
L 315.113713 -471.00361 
L 312.717411 -470.965548 
L 310.321109 -470.920286 
L 307.924807 -470.866553 
L 305.528505 -470.802889 
L 303.132203 -470.727635 
L 300.735901 -470.638925 
L 298.339599 -470.534696 
L 295.943297 -470.412698 
L 293.546995 -470.27054 
L 291.150693 -470.105754 
L 288.754391 -469.915888 
L 286.358089 -469.698642 
L 283.961787 -469.452038 
L 281.565485 -469.174625 
L 279.169183 -468.865707 
L 276.772881 -468.525569 
L 274.376579 -468.155684 
L 271.980277 -467.75885 
L 269.583975 -467.339229 
L 267.187673 -466.902255 
L 264.791371 -466.454411 
L 262.395069 -466.002862 
L 259.998767 -465.555017 
L 257.602465 -465.118044 
L 255.206163 -464.698422 
L 252.809861 -464.301589 
L 250.413559 -463.931704 
L 248.017257 -463.591566 
L 245.620955 -463.282647 
L 243.224653 -463.005234 
L 240.828351 -462.75863 
L 238.432049 -462.541384 
L 236.035747 -462.351518 
L 233.639445 -462.186732 
L 231.243143 -462.044575 
L 228.846841 -461.922577 
L 226.450539 -461.818347 
L 224.054237 -461.729638 
L 221.657935 -461.654384 
L 219.261633 -461.59072 
L 216.865331 -461.536987 
L 214.469029 -461.491725 
L 212.072727 -461.453663 
L 209.676425 -461.421699 
L 207.280123 -461.394889 
L 204.883821 -461.372423 
L 202.487519 -461.353613 
L 200.091217 -461.337875 
L 197.694915 -461.324715 
L 195.298613 -461.313716 
L 192.902311 -461.304526 
L 190.506009 -461.296852 
L 188.109707 -461.290444 
L 185.713405 -461.285095 
L 183.317103 -461.280631 
L 180.920801 -461.276906 
L 178.524499 -461.273798 
L 176.128197 -461.271205 
L 173.731895 -461.269042 
L 171.335593 -461.267238 
L 168.939291 -461.265734 
L 166.542989 -461.264479 
L 164.146687 -461.263433 
L 161.750385 -461.26256 
L 159.354083 -461.261833 
L 156.957781 -461.261226 
L 154.561479 -461.26072 
L 152.165177 -461.260298 
L 149.768875 -461.259946 
L 147.372573 -461.259653 
L 144.976271 -461.259408 
z
"/>
    </defs>
    <g clip-path="url(#p3c455ddf48)">
     <use xlink:href="#m502e24fec3" x="0" y="524.88" style="fill: #406992; fill-opacity: 0.2"/>
    </g>
   </g>
   <g id="FillBetweenPolyCollection_3">
    <defs>
     <path id="m633cc37f4c" d="M 144.976271 -63.620592 
L 144.976271 -126.663076 
L 147.372573 -126.662831 
L 149.768875 -126.662538 
L 152.165177 -126.662186 
L 154.561479 -126.661765 
L 156.957781 -126.661259 
L 159.354083 -126.660652 
L 161.750385 -126.659924 
L 164.146687 -126.659052 
L 166.542989 -126.658005 
L 168.939291 -126.656751 
L 171.335593 -126.655246 
L 173.731895 -126.653442 
L 176.128197 -126.651279 
L 178.524499 -126.648687 
L 180.920801 -126.645579 
L 183.317103 -126.641854 
L 185.713405 -126.63739 
L 188.109707 -126.632041 
L 190.506009 -126.625633 
L 192.902311 -126.617958 
L 195.298613 -126.608769 
L 197.694915 -126.59777 
L 200.091217 -126.58461 
L 202.487519 -126.568872 
L 204.883821 -126.550062 
L 207.280123 -126.527596 
L 209.676425 -126.500785 
L 212.072727 -126.468822 
L 214.469029 -126.430759 
L 216.865331 -126.385498 
L 219.261633 -126.331765 
L 221.657935 -126.268101 
L 224.054237 -126.192846 
L 226.450539 -126.104137 
L 228.846841 -125.999907 
L 231.243143 -125.877909 
L 233.639445 -125.735752 
L 236.035747 -125.570966 
L 238.432049 -125.3811 
L 240.828351 -125.163854 
L 243.224653 -124.91725 
L 245.620955 -124.639837 
L 248.017257 -124.330918 
L 250.413559 -123.99078 
L 252.809861 -123.620896 
L 255.206163 -123.224062 
L 257.602465 -122.804441 
L 259.998767 -122.367467 
L 262.395069 -121.919622 
L 264.791371 -121.468074 
L 267.187673 -121.020229 
L 269.583975 -120.583256 
L 271.980277 -120.163634 
L 274.376579 -119.7668 
L 276.772881 -119.396916 
L 279.169183 -119.056778 
L 281.565485 -118.747859 
L 283.961787 -118.470446 
L 286.358089 -118.223842 
L 288.754391 -118.006596 
L 291.150693 -117.81673 
L 293.546995 -117.651944 
L 295.943297 -117.509787 
L 298.339599 -117.387789 
L 300.735901 -117.283559 
L 303.132203 -117.19485 
L 305.528505 -117.119595 
L 307.924807 -117.055931 
L 310.321109 -117.002198 
L 312.717411 -116.956937 
L 315.113713 -116.918874 
L 317.510015 -116.886911 
L 319.906317 -116.8601 
L 322.302619 -116.837635 
L 324.698921 -116.818825 
L 327.095223 -116.803087 
L 329.491525 -116.789927 
L 331.887827 -116.778927 
L 334.284129 -116.769738 
L 336.680431 -116.762063 
L 339.076733 -116.755656 
L 341.473035 -116.750307 
L 343.869337 -116.745843 
L 346.265639 -116.742118 
L 348.661941 -116.73901 
L 351.058243 -116.736417 
L 353.454545 -116.734254 
L 355.850847 -116.73245 
L 358.247149 -116.730946 
L 360.643451 -116.729691 
L 363.039753 -116.728645 
L 365.436055 -116.727772 
L 367.832357 -116.727044 
L 370.228659 -116.726438 
L 372.624961 -116.725932 
L 375.021263 -116.72551 
L 377.417565 -116.725158 
L 379.813867 -116.724865 
L 382.210169 -116.72462 
L 382.210169 -53.682136 
L 382.210169 -53.682136 
L 379.813867 -53.68238 
L 377.417565 -53.682674 
L 375.021263 -53.683025 
L 372.624961 -53.683447 
L 370.228659 -53.683953 
L 367.832357 -53.68456 
L 365.436055 -53.685288 
L 363.039753 -53.68616 
L 360.643451 -53.687207 
L 358.247149 -53.688461 
L 355.850847 -53.689966 
L 353.454545 -53.69177 
L 351.058243 -53.693932 
L 348.661941 -53.696525 
L 346.265639 -53.699633 
L 343.869337 -53.703358 
L 341.473035 -53.707822 
L 339.076733 -53.713171 
L 336.680431 -53.719579 
L 334.284129 -53.727254 
L 331.887827 -53.736443 
L 329.491525 -53.747442 
L 327.095223 -53.760602 
L 324.698921 -53.77634 
L 322.302619 -53.79515 
L 319.906317 -53.817616 
L 317.510015 -53.844426 
L 315.113713 -53.87639 
L 312.717411 -53.914452 
L 310.321109 -53.959714 
L 307.924807 -54.013447 
L 305.528505 -54.077111 
L 303.132203 -54.152365 
L 300.735901 -54.241075 
L 298.339599 -54.345304 
L 295.943297 -54.467302 
L 293.546995 -54.60946 
L 291.150693 -54.774246 
L 288.754391 -54.964112 
L 286.358089 -55.181358 
L 283.961787 -55.427962 
L 281.565485 -55.705375 
L 279.169183 -56.014293 
L 276.772881 -56.354431 
L 274.376579 -56.724316 
L 271.980277 -57.12115 
L 269.583975 -57.540771 
L 267.187673 -57.977745 
L 264.791371 -58.425589 
L 262.395069 -58.877138 
L 259.998767 -59.324983 
L 257.602465 -59.761956 
L 255.206163 -60.181578 
L 252.809861 -60.578411 
L 250.413559 -60.948296 
L 248.017257 -61.288434 
L 245.620955 -61.597353 
L 243.224653 -61.874766 
L 240.828351 -62.12137 
L 238.432049 -62.338616 
L 236.035747 -62.528482 
L 233.639445 -62.693268 
L 231.243143 -62.835425 
L 228.846841 -62.957423 
L 226.450539 -63.061653 
L 224.054237 -63.150362 
L 221.657935 -63.225616 
L 219.261633 -63.28928 
L 216.865331 -63.343013 
L 214.469029 -63.388275 
L 212.072727 -63.426337 
L 209.676425 -63.458301 
L 207.280123 -63.485111 
L 204.883821 -63.507577 
L 202.487519 -63.526387 
L 200.091217 -63.542125 
L 197.694915 -63.555285 
L 195.298613 -63.566284 
L 192.902311 -63.575474 
L 190.506009 -63.583148 
L 188.109707 -63.589556 
L 185.713405 -63.594905 
L 183.317103 -63.599369 
L 180.920801 -63.603094 
L 178.524499 -63.606202 
L 176.128197 -63.608795 
L 173.731895 -63.610958 
L 171.335593 -63.612762 
L 168.939291 -63.614266 
L 166.542989 -63.615521 
L 164.146687 -63.616567 
L 161.750385 -63.61744 
L 159.354083 -63.618167 
L 156.957781 -63.618774 
L 154.561479 -63.61928 
L 152.165177 -63.619702 
L 149.768875 -63.620054 
L 147.372573 -63.620347 
L 144.976271 -63.620592 
z
"/>
    </defs>
    <g clip-path="url(#p3c455ddf48)">
     <use xlink:href="#m633cc37f4c" x="0" y="524.88" style="fill: #b78935; fill-opacity: 0.2"/>
    </g>
   </g>
   <g id="FillBetweenPolyCollection_4">
    <defs>
     <path id="md1a3d61ae1" d="M 382.210169 -136.605212 
L 382.210169 -471.199091 
L 408.569492 -471.199091 
L 408.569492 -136.605212 
L 408.569492 -136.605212 
L 382.210169 -136.605212 
z
"/>
    </defs>
    <g clip-path="url(#p3c455ddf48)">
     <use xlink:href="#md1a3d61ae1" x="0" y="524.88" style="fill: #406992"/>
    </g>
   </g>
   <g id="FillBetweenPolyCollection_5">
    <defs>
     <path id="mbfe02f425c" d="M 382.210169 -53.680909 
L 382.210169 -116.723394 
L 408.569492 -116.723394 
L 408.569492 -53.680909 
L 408.569492 -53.680909 
L 382.210169 -53.680909 
z
"/>
    </defs>
    <g clip-path="url(#p3c455ddf48)">
     <use xlink:href="#mbfe02f425c" x="0" y="524.88" style="fill: #b78935"/>
    </g>
   </g>
   <g id="FillBetweenPolyCollection_6">
    <defs>
     <path id="m4b5dd7a5eb" d="M 645.80339 -23.858182 
L 645.80339 -69.834086 
L 672.162712 -69.834086 
L 672.162712 -23.858182 
L 672.162712 -23.858182 
L 645.80339 -23.858182 
z
"/>
    </defs>
    <g clip-path="url(#p3c455ddf48)">
     <use xlink:href="#m4b5dd7a5eb" x="0" y="524.88" style="fill: #b78935"/>
    </g>
   </g>
   <g id="FillBetweenPolyCollection_7">
    <defs>
     <path id="m8846846aac" d="M 645.80339 -89.715904 
L 645.80339 -106.782485 
L 672.162712 -106.782485 
L 672.162712 -89.715904 
L 672.162712 -89.715904 
L 645.80339 -89.715904 
z
"/>
    </defs>
    <g clip-path="url(#p3c455ddf48)">
     <use xlink:href="#m8846846aac" x="0" y="524.88" style="fill: #949494"/>
    </g>
   </g>
   <g id="FillBetweenPolyCollection_8">
    <defs>
     <path id="mb637b171cf" d="M 645.80339 -146.546121 
L 645.80339 -186.624212 
L 672.162712 -186.624212 
L 672.162712 -146.546121 
L 672.162712 -146.546121 
L 645.80339 -146.546121 
z
"/>
    </defs>
    <g clip-path="url(#p3c455ddf48)">
     <use xlink:href="#mb637b171cf" x="0" y="524.88" style="fill: #949494"/>
    </g>
   </g>
   <g id="FillBetweenPolyCollection_9">
    <defs>
     <path id="mbff4aac87d" d="M 645.80339 -206.50603 
L 645.80339 -501.021818 
L 672.162712 -501.021818 
L 672.162712 -206.50603 
L 672.162712 -206.50603 
L 645.80339 -206.50603 
z
"/>
    </defs>
    <g clip-path="url(#p3c455ddf48)">
     <use xlink:href="#mbff4aac87d" x="0" y="524.88" style="fill: #406992"/>
    </g>
   </g>
   <g id="FillBetweenPolyCollection_10">
    <defs>
     <path id="m3398dc9957" d="M 408.569492 -99.655587 
L 408.569492 -116.722167 
L 410.965794 -116.721922 
L 413.362096 -116.721629 
L 415.758398 -116.721277 
L 418.1547 -116.720855 
L 420.551002 -116.72035 
L 422.947304 -116.719743 
L 425.343606 -116.719015 
L 427.739908 -116.718143 
L 430.13621 -116.717096 
L 432.532512 -116.715841 
L 434.928814 -116.714337 
L 437.325116 -116.712533 
L 439.721418 -116.71037 
L 442.11772 -116.707778 
L 444.514022 -116.70467 
L 446.910324 -116.700945 
L 449.306626 -116.696481 
L 451.702928 -116.691132 
L 454.09923 -116.684724 
L 456.495532 -116.677049 
L 458.891834 -116.66786 
L 461.288136 -116.656861 
L 463.684438 -116.6437 
L 466.08074 -116.627963 
L 468.477042 -116.609153 
L 470.873344 -116.586687 
L 473.269646 -116.559876 
L 475.665948 -116.527913 
L 478.06225 -116.48985 
L 480.458552 -116.444589 
L 482.854854 -116.390856 
L 485.251156 -116.327192 
L 487.647458 -116.251937 
L 490.04376 -116.163228 
L 492.440062 -116.058998 
L 494.836364 -115.937 
L 497.232666 -115.794843 
L 499.628968 -115.630057 
L 502.02527 -115.440191 
L 504.421572 -115.222945 
L 506.817874 -114.976341 
L 509.214176 -114.698928 
L 511.610478 -114.390009 
L 514.00678 -114.049871 
L 516.403082 -113.679987 
L 518.799384 -113.283153 
L 521.195686 -112.863532 
L 523.591988 -112.426558 
L 525.98829 -111.978713 
L 528.384592 -111.527165 
L 530.780894 -111.07932 
L 533.177196 -110.642347 
L 535.573498 -110.222725 
L 537.9698 -109.825891 
L 540.366102 -109.456007 
L 542.762404 -109.115869 
L 545.158706 -108.80695 
L 547.555008 -108.529537 
L 549.95131 -108.282933 
L 552.347612 -108.065687 
L 554.743914 -107.875821 
L 557.140216 -107.711035 
L 559.536518 -107.568878 
L 561.93282 -107.44688 
L 564.329122 -107.34265 
L 566.725424 -107.253941 
L 569.121726 -107.178686 
L 571.518028 -107.115022 
L 573.91433 -107.061289 
L 576.310632 -107.016028 
L 578.706934 -106.977965 
L 581.103236 -106.946002 
L 583.499538 -106.919191 
L 585.89584 -106.896725 
L 588.292142 -106.877916 
L 590.688444 -106.862178 
L 593.084746 -106.849018 
L 595.481048 -106.838018 
L 597.87735 -106.828829 
L 600.273652 -106.821154 
L 602.669954 -106.814747 
L 605.066256 -106.809398 
L 607.462558 -106.804933 
L 609.85886 -106.801208 
L 612.255162 -106.798101 
L 614.651464 -106.795508 
L 617.047766 -106.793345 
L 619.444068 -106.791541 
L 621.84037 -106.790037 
L 624.236672 -106.788782 
L 626.632974 -106.787736 
L 629.029276 -106.786863 
L 631.425578 -106.786135 
L 633.82188 -106.785529 
L 636.218182 -106.785023 
L 638.614484 -106.784601 
L 641.010786 -106.784249 
L 643.407088 -106.783956 
L 645.80339 -106.783711 
L 645.80339 -89.717131 
L 645.80339 -89.717131 
L 643.407088 -89.717376 
L 641.010786 -89.717669 
L 638.614484 -89.718021 
L 636.218182 -89.718442 
L 633.82188 -89.718948 
L 631.425578 -89.719555 
L 629.029276 -89.720283 
L 626.632974 -89.721155 
L 624.236672 -89.722202 
L 621.84037 -89.723457 
L 619.444068 -89.724961 
L 617.047766 -89.726765 
L 614.651464 -89.728928 
L 612.255162 -89.73152 
L 609.85886 -89.734628 
L 607.462558 -89.738353 
L 605.066256 -89.742817 
L 602.669954 -89.748166 
L 600.273652 -89.754574 
L 597.87735 -89.762249 
L 595.481048 -89.771438 
L 593.084746 -89.782437 
L 590.688444 -89.795597 
L 588.292142 -89.811335 
L 585.89584 -89.830145 
L 583.499538 -89.852611 
L 581.103236 -89.879422 
L 578.706934 -89.911385 
L 576.310632 -89.949448 
L 573.91433 -89.994709 
L 571.518028 -90.048442 
L 569.121726 -90.112106 
L 566.725424 -90.187361 
L 564.329122 -90.27607 
L 561.93282 -90.3803 
L 559.536518 -90.502298 
L 557.140216 -90.644455 
L 554.743914 -90.809241 
L 552.347612 -90.999107 
L 549.95131 -91.216353 
L 547.555008 -91.462957 
L 545.158706 -91.74037 
L 542.762404 -92.049289 
L 540.366102 -92.389427 
L 537.9698 -92.759311 
L 535.573498 -93.156145 
L 533.177196 -93.575766 
L 530.780894 -94.01274 
L 528.384592 -94.460585 
L 525.98829 -94.912133 
L 523.591988 -95.359978 
L 521.195686 -95.796951 
L 518.799384 -96.216573 
L 516.403082 -96.613407 
L 514.00678 -96.983291 
L 511.610478 -97.323429 
L 509.214176 -97.632348 
L 506.817874 -97.909761 
L 504.421572 -98.156365 
L 502.02527 -98.373611 
L 499.628968 -98.563477 
L 497.232666 -98.728263 
L 494.836364 -98.87042 
L 492.440062 -98.992418 
L 490.04376 -99.096648 
L 487.647458 -99.185357 
L 485.251156 -99.260612 
L 482.854854 -99.324276 
L 480.458552 -99.378009 
L 478.06225 -99.42327 
L 475.665948 -99.461333 
L 473.269646 -99.493296 
L 470.873344 -99.520107 
L 468.477042 -99.542572 
L 466.08074 -99.561382 
L 463.684438 -99.57712 
L 461.288136 -99.59028 
L 458.891834 -99.60128 
L 456.495532 -99.610469 
L 454.09923 -99.618144 
L 451.702928 -99.624551 
L 449.306626 -99.6299 
L 446.910324 -99.634364 
L 444.514022 -99.63809 
L 442.11772 -99.641197 
L 439.721418 -99.64379 
L 437.325116 -99.645953 
L 434.928814 -99.647757 
L 432.532512 -99.649261 
L 430.13621 -99.650516 
L 427.739908 -99.651562 
L 425.343606 -99.652435 
L 422.947304 -99.653163 
L 420.551002 -99.653769 
L 418.1547 -99.654275 
L 415.758398 -99.654697 
L 413.362096 -99.655049 
L 410.965794 -99.655342 
L 408.569492 -99.655587 
z
"/>
    </defs>
    <g clip-path="url(#p3c455ddf48)">
     <use xlink:href="#m3398dc9957" x="0" y="524.88" style="fill: #949494; fill-opacity: 0.2"/>
    </g>
   </g>
   <g id="FillBetweenPolyCollection_11">
    <defs>
     <path id="m609049fe18" d="M 408.569492 -53.677229 
L 408.569492 -99.653133 
L 410.965794 -99.6524 
L 413.362096 -99.65152 
L 415.758398 -99.650465 
L 418.1547 -99.649199 
L 420.551002 -99.647681 
L 422.947304 -99.645861 
L 425.343606 -99.643678 
L 427.739908 -99.64106 
L 430.13621 -99.637921 
L 432.532512 -99.634157 
L 434.928814 -99.629643 
L 437.325116 -99.624232 
L 439.721418 -99.617744 
L 442.11772 -99.609965 
L 444.514022 -99.600642 
L 446.910324 -99.589467 
L 449.306626 -99.576074 
L 451.702928 -99.560027 
L 454.09923 -99.540804 
L 456.495532 -99.51778 
L 458.891834 -99.490212 
L 461.288136 -99.457214 
L 463.684438 -99.417734 
L 466.08074 -99.37052 
L 468.477042 -99.314091 
L 470.873344 -99.246693 
L 473.269646 -99.166261 
L 475.665948 -99.070371 
L 478.06225 -98.956184 
L 480.458552 -98.820399 
L 482.854854 -98.6592 
L 485.251156 -98.468208 
L 487.647458 -98.242445 
L 490.04376 -97.976317 
L 492.440062 -97.663627 
L 494.836364 -97.297633 
L 497.232666 -96.871162 
L 499.628968 -96.376804 
L 502.02527 -95.807206 
L 504.421572 -95.155468 
L 506.817874 -94.415656 
L 509.214176 -93.583417 
L 511.610478 -92.656661 
L 514.00678 -91.636247 
L 516.403082 -90.526593 
L 518.799384 -89.336092 
L 521.195686 -88.077227 
L 523.591988 -86.766307 
L 525.98829 -85.422773 
L 528.384592 -84.068127 
L 530.780894 -82.724592 
L 533.177196 -81.413672 
L 535.573498 -80.154808 
L 537.9698 -78.964307 
L 540.366102 -77.854653 
L 542.762404 -76.834239 
L 545.158706 -75.907483 
L 547.555008 -75.075244 
L 549.95131 -74.335432 
L 552.347612 -73.683694 
L 554.743914 -73.114096 
L 557.140216 -72.619738 
L 559.536518 -72.193266 
L 561.93282 -71.827272 
L 564.329122 -71.514583 
L 566.725424 -71.248455 
L 569.121726 -71.022692 
L 571.518028 -70.8317 
L 573.91433 -70.670501 
L 576.310632 -70.534716 
L 578.706934 -70.420529 
L 581.103236 -70.324638 
L 583.499538 -70.244207 
L 585.89584 -70.176809 
L 588.292142 -70.120379 
L 590.688444 -70.073165 
L 593.084746 -70.033685 
L 595.481048 -70.000688 
L 597.87735 -69.97312 
L 600.273652 -69.950096 
L 602.669954 -69.930872 
L 605.066256 -69.914825 
L 607.462558 -69.901433 
L 609.85886 -69.890258 
L 612.255162 -69.880934 
L 614.651464 -69.873156 
L 617.047766 -69.866668 
L 619.444068 -69.861256 
L 621.84037 -69.856743 
L 624.236672 -69.852978 
L 626.632974 -69.849839 
L 629.029276 -69.847222 
L 631.425578 -69.845039 
L 633.82188 -69.843218 
L 636.218182 -69.841701 
L 638.614484 -69.840435 
L 641.010786 -69.83938 
L 643.407088 -69.8385 
L 645.80339 -69.837766 
L 645.80339 -23.861862 
L 645.80339 -23.861862 
L 643.407088 -23.862595 
L 641.010786 -23.863475 
L 638.614484 -23.864531 
L 636.218182 -23.865796 
L 633.82188 -23.867314 
L 631.425578 -23.869134 
L 629.029276 -23.871317 
L 626.632974 -23.873935 
L 624.236672 -23.877074 
L 621.84037 -23.880838 
L 619.444068 -23.885352 
L 617.047766 -23.890764 
L 614.651464 -23.897252 
L 612.255162 -23.90503 
L 609.85886 -23.914354 
L 607.462558 -23.925529 
L 605.066256 -23.938921 
L 602.669954 -23.954968 
L 600.273652 -23.974192 
L 597.87735 -23.997216 
L 595.481048 -24.024783 
L 593.084746 -24.057781 
L 590.688444 -24.097261 
L 588.292142 -24.144475 
L 585.89584 -24.200905 
L 583.499538 -24.268302 
L 581.103236 -24.348734 
L 578.706934 -24.444624 
L 576.310632 -24.558812 
L 573.91433 -24.694596 
L 571.518028 -24.855795 
L 569.121726 -25.046787 
L 566.725424 -25.272551 
L 564.329122 -25.538679 
L 561.93282 -25.851368 
L 559.536518 -26.217362 
L 557.140216 -26.643833 
L 554.743914 -27.138191 
L 552.347612 -27.707789 
L 549.95131 -28.359528 
L 547.555008 -29.09934 
L 545.158706 -29.931578 
L 542.762404 -30.858335 
L 540.366102 -31.878748 
L 537.9698 -32.988402 
L 535.573498 -34.178903 
L 533.177196 -35.437768 
L 530.780894 -36.748688 
L 528.384592 -38.092223 
L 525.98829 -39.446868 
L 523.591988 -40.790403 
L 521.195686 -42.101323 
L 518.799384 -43.360187 
L 516.403082 -44.550689 
L 514.00678 -45.660342 
L 511.610478 -46.680756 
L 509.214176 -47.607513 
L 506.817874 -48.439751 
L 504.421572 -49.179563 
L 502.02527 -49.831301 
L 499.628968 -50.4009 
L 497.232666 -50.895257 
L 494.836364 -51.321729 
L 492.440062 -51.687723 
L 490.04376 -52.000412 
L 487.647458 -52.26654 
L 485.251156 -52.492303 
L 482.854854 -52.683296 
L 480.458552 -52.844494 
L 478.06225 -52.980279 
L 475.665948 -53.094466 
L 473.269646 -53.190357 
L 470.873344 -53.270788 
L 468.477042 -53.338186 
L 466.08074 -53.394616 
L 463.684438 -53.44183 
L 461.288136 -53.48131 
L 458.891834 -53.514307 
L 456.495532 -53.541875 
L 454.09923 -53.564899 
L 451.702928 -53.584123 
L 449.306626 -53.60017 
L 446.910324 -53.613562 
L 444.514022 -53.624737 
L 442.11772 -53.634061 
L 439.721418 -53.641839 
L 437.325116 -53.648327 
L 434.928814 -53.653739 
L 432.532512 -53.658253 
L 430.13621 -53.662017 
L 427.739908 -53.665156 
L 425.343606 -53.667774 
L 422.947304 -53.669957 
L 420.551002 -53.671777 
L 418.1547 -53.673295 
L 415.758398 -53.67456 
L 413.362096 -53.675616 
L 410.965794 -53.676495 
L 408.569492 -53.677229 
z
"/>
    </defs>
    <g clip-path="url(#p3c455ddf48)">
     <use xlink:href="#m609049fe18" x="0" y="524.88" style="fill: #b78935; fill-opacity: 0.2"/>
    </g>
   </g>
   <g id="FillBetweenPolyCollection_12">
    <defs>
     <path id="ma6bf02d252" d="M 408.569492 -176.684529 
L 408.569492 -136.606438 
L 410.965794 -136.606683 
L 413.362096 -136.606976 
L 415.758398 -136.607328 
L 418.1547 -136.60775 
L 420.551002 -136.608256 
L 422.947304 -136.608863 
L 425.343606 -136.60959 
L 427.739908 -136.610463 
L 430.13621 -136.611509 
L 432.532512 -136.612764 
L 434.928814 -136.614268 
L 437.325116 -136.616072 
L 439.721418 -136.618235 
L 442.11772 -136.620828 
L 444.514022 -136.623936 
L 446.910324 -136.627661 
L 449.306626 -136.632125 
L 451.702928 -136.637474 
L 454.09923 -136.643882 
L 456.495532 -136.651556 
L 458.891834 -136.660746 
L 461.288136 -136.671745 
L 463.684438 -136.684905 
L 466.08074 -136.700643 
L 468.477042 -136.719453 
L 470.873344 -136.741919 
L 473.269646 -136.768729 
L 475.665948 -136.800693 
L 478.06225 -136.838755 
L 480.458552 -136.884017 
L 482.854854 -136.93775 
L 485.251156 -137.001414 
L 487.647458 -137.076668 
L 490.04376 -137.165377 
L 492.440062 -137.269607 
L 494.836364 -137.391605 
L 497.232666 -137.533762 
L 499.628968 -137.698548 
L 502.02527 -137.888414 
L 504.421572 -138.10566 
L 506.817874 -138.352264 
L 509.214176 -138.629677 
L 511.610478 -138.938596 
L 514.00678 -139.278734 
L 516.403082 -139.648619 
L 518.799384 -140.045452 
L 521.195686 -140.465074 
L 523.591988 -140.902047 
L 525.98829 -141.349892 
L 528.384592 -141.801441 
L 530.780894 -142.249285 
L 533.177196 -142.686259 
L 535.573498 -143.10588 
L 537.9698 -143.502714 
L 540.366102 -143.872599 
L 542.762404 -144.212737 
L 545.158706 -144.521655 
L 547.555008 -144.799068 
L 549.95131 -145.045672 
L 552.347612 -145.262918 
L 554.743914 -145.452784 
L 557.140216 -145.61757 
L 559.536518 -145.759728 
L 561.93282 -145.881725 
L 564.329122 -145.985955 
L 566.725424 -146.074665 
L 569.121726 -146.149919 
L 571.518028 -146.213583 
L 573.91433 -146.267316 
L 576.310632 -146.312578 
L 578.706934 -146.35064 
L 581.103236 -146.382604 
L 583.499538 -146.409414 
L 585.89584 -146.43188 
L 588.292142 -146.45069 
L 590.688444 -146.466428 
L 593.084746 -146.479588 
L 595.481048 -146.490587 
L 597.87735 -146.499776 
L 600.273652 -146.507451 
L 602.669954 -146.513859 
L 605.066256 -146.519208 
L 607.462558 -146.523672 
L 609.85886 -146.527397 
L 612.255162 -146.530505 
L 614.651464 -146.533098 
L 617.047766 -146.53526 
L 619.444068 -146.537064 
L 621.84037 -146.538569 
L 624.236672 -146.539823 
L 626.632974 -146.54087 
L 629.029276 -146.541742 
L 631.425578 -146.54247 
L 633.82188 -146.543077 
L 636.218182 -146.543583 
L 638.614484 -146.544005 
L 641.010786 -146.544356 
L 643.407088 -146.54465 
L 645.80339 -146.544894 
L 645.80339 -186.622985 
L 645.80339 -186.622985 
L 643.407088 -186.62274 
L 641.010786 -186.622447 
L 638.614484 -186.622095 
L 636.218182 -186.621674 
L 633.82188 -186.621168 
L 631.425578 -186.620561 
L 629.029276 -186.619833 
L 626.632974 -186.618961 
L 624.236672 -186.617914 
L 621.84037 -186.61666 
L 619.444068 -186.615155 
L 617.047766 -186.613351 
L 614.651464 -186.611188 
L 612.255162 -186.608596 
L 609.85886 -186.605488 
L 607.462558 -186.601763 
L 605.066256 -186.597299 
L 602.669954 -186.59195 
L 600.273652 -186.585542 
L 597.87735 -186.577867 
L 595.481048 -186.568678 
L 593.084746 -186.557679 
L 590.688444 -186.544519 
L 588.292142 -186.528781 
L 585.89584 -186.509971 
L 583.499538 -186.487505 
L 581.103236 -186.460694 
L 578.706934 -186.428731 
L 576.310632 -186.390668 
L 573.91433 -186.345407 
L 571.518028 -186.291674 
L 569.121726 -186.22801 
L 566.725424 -186.152755 
L 564.329122 -186.064046 
L 561.93282 -185.959816 
L 559.536518 -185.837818 
L 557.140216 -185.695661 
L 554.743914 -185.530875 
L 552.347612 -185.341009 
L 549.95131 -185.123763 
L 547.555008 -184.877159 
L 545.158706 -184.599746 
L 542.762404 -184.290827 
L 540.366102 -183.950689 
L 537.9698 -183.580805 
L 535.573498 -183.183971 
L 533.177196 -182.76435 
L 530.780894 -182.327376 
L 528.384592 -181.879531 
L 525.98829 -181.427983 
L 523.591988 -180.980138 
L 521.195686 -180.543165 
L 518.799384 -180.123543 
L 516.403082 -179.726709 
L 514.00678 -179.356825 
L 511.610478 -179.016687 
L 509.214176 -178.707768 
L 506.817874 -178.430355 
L 504.421572 -178.183751 
L 502.02527 -177.966505 
L 499.628968 -177.776639 
L 497.232666 -177.611853 
L 494.836364 -177.469696 
L 492.440062 -177.347698 
L 490.04376 -177.243468 
L 487.647458 -177.154759 
L 485.251156 -177.079504 
L 482.854854 -177.01584 
L 480.458552 -176.962107 
L 478.06225 -176.916846 
L 475.665948 -176.878783 
L 473.269646 -176.84682 
L 470.873344 -176.820009 
L 468.477042 -176.797544 
L 466.08074 -176.778734 
L 463.684438 -176.762996 
L 461.288136 -176.749836 
L 458.891834 -176.738836 
L 456.495532 -176.729647 
L 454.09923 -176.721972 
L 451.702928 -176.715565 
L 449.306626 -176.710216 
L 446.910324 -176.705752 
L 444.514022 -176.702027 
L 442.11772 -176.698919 
L 439.721418 -176.696326 
L 437.325116 -176.694163 
L 434.928814 -176.692359 
L 432.532512 -176.690855 
L 430.13621 -176.6896 
L 427.739908 -176.688554 
L 425.343606 -176.687681 
L 422.947304 -176.686953 
L 420.551002 -176.686347 
L 418.1547 -176.685841 
L 415.758398 -176.685419 
L 413.362096 -176.685067 
L 410.965794 -176.684774 
L 408.569492 -176.684529 
z
"/>
    </defs>
    <g clip-path="url(#p3c455ddf48)">
     <use xlink:href="#ma6bf02d252" x="0" y="524.88" style="fill: #949494; fill-opacity: 0.2"/>
    </g>
   </g>
   <g id="FillBetweenPolyCollection_13">
    <defs>
     <path id="m06f617d58b" d="M 408.569492 -471.202771 
L 408.569492 -176.686983 
L 410.965794 -176.687716 
L 413.362096 -176.688596 
L 415.758398 -176.689651 
L 418.1547 -176.690917 
L 420.551002 -176.692435 
L 422.947304 -176.694255 
L 425.343606 -176.696438 
L 427.739908 -176.699056 
L 430.13621 -176.702195 
L 432.532512 -176.705959 
L 434.928814 -176.710473 
L 437.325116 -176.715884 
L 439.721418 -176.722372 
L 442.11772 -176.730151 
L 444.514022 -176.739474 
L 446.910324 -176.750649 
L 449.306626 -176.764042 
L 451.702928 -176.780089 
L 454.09923 -176.799312 
L 456.495532 -176.822336 
L 458.891834 -176.849904 
L 461.288136 -176.882902 
L 463.684438 -176.922382 
L 466.08074 -176.969596 
L 468.477042 -177.026025 
L 470.873344 -177.093423 
L 473.269646 -177.173855 
L 475.665948 -177.269745 
L 478.06225 -177.383933 
L 480.458552 -177.519717 
L 482.854854 -177.680916 
L 485.251156 -177.871908 
L 487.647458 -178.097671 
L 490.04376 -178.363799 
L 492.440062 -178.676489 
L 494.836364 -179.042483 
L 497.232666 -179.468954 
L 499.628968 -179.963312 
L 502.02527 -180.53291 
L 504.421572 -181.184648 
L 506.817874 -181.92446 
L 509.214176 -182.756699 
L 511.610478 -183.683455 
L 514.00678 -184.703869 
L 516.403082 -185.813523 
L 518.799384 -187.004024 
L 521.195686 -188.262889 
L 523.591988 -189.573809 
L 525.98829 -190.917343 
L 528.384592 -192.271989 
L 530.780894 -193.615524 
L 533.177196 -194.926444 
L 535.573498 -196.185308 
L 537.9698 -197.375809 
L 540.366102 -198.485463 
L 542.762404 -199.505877 
L 545.158706 -200.432633 
L 547.555008 -201.264872 
L 549.95131 -202.004684 
L 552.347612 -202.656422 
L 554.743914 -203.22602 
L 557.140216 -203.720378 
L 559.536518 -204.14685 
L 561.93282 -204.512844 
L 564.329122 -204.825533 
L 566.725424 -205.091661 
L 569.121726 -205.317424 
L 571.518028 -205.508416 
L 573.91433 -205.669615 
L 576.310632 -205.8054 
L 578.706934 -205.919587 
L 581.103236 -206.015478 
L 583.499538 -206.095909 
L 585.89584 -206.163307 
L 588.292142 -206.219737 
L 590.688444 -206.266951 
L 593.084746 -206.306431 
L 595.481048 -206.339428 
L 597.87735 -206.366996 
L 600.273652 -206.39002 
L 602.669954 -206.409244 
L 605.066256 -206.425291 
L 607.462558 -206.438683 
L 609.85886 -206.449858 
L 612.255162 -206.459182 
L 614.651464 -206.46696 
L 617.047766 -206.473448 
L 619.444068 -206.47886 
L 621.84037 -206.483373 
L 624.236672 -206.487138 
L 626.632974 -206.490277 
L 629.029276 -206.492894 
L 631.425578 -206.495077 
L 633.82188 -206.496898 
L 636.218182 -206.498415 
L 638.614484 -206.499681 
L 641.010786 -206.500736 
L 643.407088 -206.501616 
L 645.80339 -206.50235 
L 645.80339 -501.018138 
L 645.80339 -501.018138 
L 643.407088 -501.017405 
L 641.010786 -501.016525 
L 638.614484 -501.015469 
L 636.218182 -501.014204 
L 633.82188 -501.012686 
L 631.425578 -501.010866 
L 629.029276 -501.008683 
L 626.632974 -501.006065 
L 624.236672 -501.002926 
L 621.84037 -500.999162 
L 619.444068 -500.994648 
L 617.047766 -500.989236 
L 614.651464 -500.982748 
L 612.255162 -500.97497 
L 609.85886 -500.965646 
L 607.462558 -500.954471 
L 605.066256 -500.941079 
L 602.669954 -500.925032 
L 600.273652 -500.905808 
L 597.87735 -500.882784 
L 595.481048 -500.855217 
L 593.084746 -500.822219 
L 590.688444 -500.782739 
L 588.292142 -500.735525 
L 585.89584 -500.679095 
L 583.499538 -500.611698 
L 581.103236 -500.531266 
L 578.706934 -500.435376 
L 576.310632 -500.321188 
L 573.91433 -500.185404 
L 571.518028 -500.024205 
L 569.121726 -499.833213 
L 566.725424 -499.607449 
L 564.329122 -499.341321 
L 561.93282 -499.028632 
L 559.536518 -498.662638 
L 557.140216 -498.236167 
L 554.743914 -497.741809 
L 552.347612 -497.172211 
L 549.95131 -496.520472 
L 547.555008 -495.78066 
L 545.158706 -494.948422 
L 542.762404 -494.021665 
L 540.366102 -493.001252 
L 537.9698 -491.891598 
L 535.573498 -490.701097 
L 533.177196 -489.442232 
L 530.780894 -488.131312 
L 528.384592 -486.787777 
L 525.98829 -485.433132 
L 523.591988 -484.089597 
L 521.195686 -482.778677 
L 518.799384 -481.519813 
L 516.403082 -480.329311 
L 514.00678 -479.219658 
L 511.610478 -478.199244 
L 509.214176 -477.272487 
L 506.817874 -476.440249 
L 504.421572 -475.700437 
L 502.02527 -475.048699 
L 499.628968 -474.4791 
L 497.232666 -473.984743 
L 494.836364 -473.558271 
L 492.440062 -473.192277 
L 490.04376 -472.879588 
L 487.647458 -472.61346 
L 485.251156 -472.387697 
L 482.854854 -472.196704 
L 480.458552 -472.035506 
L 478.06225 -471.899721 
L 475.665948 -471.785534 
L 473.269646 -471.689643 
L 470.873344 -471.609212 
L 468.477042 -471.541814 
L 466.08074 -471.485384 
L 463.684438 -471.43817 
L 461.288136 -471.39869 
L 458.891834 -471.365693 
L 456.495532 -471.338125 
L 454.09923 -471.315101 
L 451.702928 -471.295877 
L 449.306626 -471.27983 
L 446.910324 -471.266438 
L 444.514022 -471.255263 
L 442.11772 -471.245939 
L 439.721418 -471.238161 
L 437.325116 -471.231673 
L 434.928814 -471.226261 
L 432.532512 -471.221747 
L 430.13621 -471.217983 
L 427.739908 -471.214844 
L 425.343606 -471.212226 
L 422.947304 -471.210043 
L 420.551002 -471.208223 
L 418.1547 -471.206705 
L 415.758398 -471.20544 
L 413.362096 -471.204384 
L 410.965794 -471.203505 
L 408.569492 -471.202771 
z
"/>
    </defs>
    <g clip-path="url(#p3c455ddf48)">
     <use xlink:href="#m06f617d58b" x="0" y="524.88" style="fill: #406992; fill-opacity: 0.2"/>
    </g>
   </g>
   <g id="text_1">
    <text style="font-weight: 300; font-size: 16px; font-family: 'Source Sans 3', sans-serif; fill: #595959" transform="translate(14.302288 257.73225)">All Predictions</text>
    <text style="font-weight: 300; font-size: 16px; font-family: 'Source Sans 3', sans-serif; fill: #595959" transform="translate(70.012288 275.14775)">100%</text>
   </g>
   <g id="text_2">
    <text style="font-weight: 300; font-size: 16px; font-family: 'Source Sans 3', sans-serif; fill: #595959" transform="translate(251.910508 434.873849)">Drought Predicted</text>
    <text style="font-weight: 300; font-size: 16px; font-family: 'Source Sans 3', sans-serif; fill: #595959" transform="translate(330.278008 452.481849)">15.9%</text>
   </g>
   <g id="text_3">
    <text style="font-weight: 300; font-size: 16px; font-family: 'Source Sans 3', sans-serif; fill: #595959" transform="translate(230.085508 216.173849)">No Drought Predicted</text>
    <text style="font-weight: 300; font-size: 16px; font-family: 'Source Sans 3', sans-serif; fill: #595959" transform="translate(330.278008 233.781849)">84.1%</text>
   </g>
   <g id="text_4">
    <text style="font-weight: 300; font-size: 16px; font-family: 'Source Sans 3', sans-serif; fill: #595959" transform="translate(548.463729 473.229866)">Drought Obs.</text>
    <text style="font-weight: 300; font-size: 16px; font-family: 'Source Sans 3', sans-serif; fill: #595959" transform="translate(593.871229 490.837866)">11.6%</text>
   </g>
   <g id="text_5">
    <text style="font-weight: 300; font-size: 16px; font-family: 'Source Sans 3', sans-serif; fill: #595959" transform="translate(526.638729 421.826806)">No Drought Obs.</text>
    <text style="font-weight: 300; font-size: 16px; font-family: 'Source Sans 3', sans-serif; fill: #595959" transform="translate(601.423729 439.434806)">4.3%</text>
   </g>
   <g id="text_6">
    <text style="font-weight: 300; font-size: 16px; font-family: 'Source Sans 3', sans-serif; fill: #595959" transform="translate(548.463729 353.490834)">Drought Obs.</text>
    <text style="font-weight: 300; font-size: 16px; font-family: 'Source Sans 3', sans-serif; fill: #595959" transform="translate(593.871229 371.098834)">10.1%</text>
   </g>
   <g id="text_7">
    <text style="font-weight: 300; font-size: 16px; font-family: 'Source Sans 3', sans-serif; fill: #595959" transform="translate(526.638729 166.312076)">No Drought Obs.</text>
    <text style="font-weight: 300; font-size: 16px; font-family: 'Source Sans 3', sans-serif; fill: #595959" transform="translate(593.871229 183.920076)">74.1%</text>
   </g>
  </g>
 </g>
 <defs>
  <clipPath id="p3c455ddf48">
   <rect x="0" y="0" width="699.84" height="524.88"/>
  </clipPath>
 </defs>
</svg>
