<?xml version="1.0" encoding="utf-8" standalone="no"?>
<!DOCTYPE svg PUBLIC "-//W3C//DTD SVG 1.1//EN"
  "http://www.w3.org/Graphics/SVG/1.1/DTD/svg11.dtd">
<svg xmlns:xlink="http://www.w3.org/1999/xlink" width="699.84px" height="524.88px" viewBox="0 0 699.84 524.88" xmlns="http://www.w3.org/2000/svg" version="1.1">
  <defs>
  <style type="text/css">*{stroke-linejoin: round; stroke-linecap: butt}</style>
 </defs>
 <g id="figure-forecast_truefalse_key">
  <g id="patch_1">
   <path d="M 0 524.88 
L 699.84 524.88 
L 699.84 0 
L 0 0 
z
" style="fill: #ffffff"/>
  </g>
  <g id="axis-forecast_truefalse_key">
   <g id="FillBetweenPolyCollection_1">
    <defs>
     <path id="md565e05d9f" d="M 136.053641 -79.368218 
L 136.053641 -477.004582 
L 161.622183 -477.004582 
L 161.622183 -79.368218 
L 161.622183 -79.368218 
L 136.053641 -79.368218 
z
"/>
    </defs>
    <g clip-path="url(#p030d018abd)">
     <use xlink:href="#md565e05d9f" x="0" y="524.88" style="fill: #00264c"/>
    </g>
   </g>
   <g id="tf-swoop-ND">
    <defs>
     <path id="m8f4d897a65" d="M 161.622183 -477.005808 
L 161.622183 -123.351831 
L 163.946596 -123.352075 
L 166.271009 -123.352368 
L 168.595422 -123.35272 
L 170.919835 -123.353142 
L 173.244248 -123.353648 
L 175.568661 -123.354255 
L 177.893074 -123.354982 
L 180.217487 -123.355855 
L 182.5419 -123.356901 
L 184.866312 -123.358156 
L 187.190725 -123.359661 
L 189.515138 -123.361464 
L 191.839551 -123.363627 
L 194.163964 -123.36622 
L 196.488377 -123.369328 
L 198.81279 -123.373053 
L 201.137203 -123.377517 
L 203.461616 -123.382866 
L 205.786029 -123.389274 
L 208.110442 -123.396948 
L 210.434855 -123.406138 
L 212.759268 -123.417137 
L 215.083681 -123.430297 
L 217.408094 -123.446035 
L 219.732507 -123.464845 
L 222.05692 -123.487311 
L 224.381333 -123.514121 
L 226.705745 -123.546085 
L 229.030158 -123.584147 
L 231.354571 -123.629409 
L 233.678984 -123.683142 
L 236.003397 -123.746806 
L 238.32781 -123.82206 
L 240.652223 -123.910769 
L 242.976636 -124.014999 
L 245.301049 -124.136997 
L 247.625462 -124.279154 
L 249.949875 -124.44394 
L 252.274288 -124.633806 
L 254.598701 -124.851052 
L 256.923114 -125.097656 
L 259.247527 -125.375069 
L 261.57194 -125.683988 
L 263.896353 -126.024126 
L 266.220765 -126.394011 
L 268.545178 -126.790844 
L 270.869591 -127.210466 
L 273.194004 -127.647439 
L 275.518417 -128.095284 
L 277.84283 -128.546833 
L 280.167243 -128.994678 
L 282.491656 -129.431651 
L 284.816069 -129.851272 
L 287.140482 -130.248106 
L 289.464895 -130.617991 
L 291.789308 -130.958129 
L 294.113721 -131.267047 
L 296.438134 -131.54446 
L 298.762547 -131.791064 
L 301.08696 -132.00831 
L 303.411373 -132.198176 
L 305.735786 -132.362962 
L 308.060198 -132.50512 
L 310.384611 -132.627118 
L 312.709024 -132.731347 
L 315.033437 -132.820057 
L 317.35785 -132.895311 
L 319.682263 -132.958975 
L 322.006676 -133.012708 
L 324.331089 -133.05797 
L 326.655502 -133.096032 
L 328.979915 -133.127996 
L 331.304328 -133.154806 
L 333.628741 -133.177272 
L 335.953154 -133.196082 
L 338.277567 -133.21182 
L 340.60198 -133.22498 
L 342.926393 -133.235979 
L 345.250806 -133.245168 
L 347.575218 -133.252843 
L 349.899631 -133.259251 
L 352.224044 -133.2646 
L 354.548457 -133.269064 
L 356.87287 -133.272789 
L 359.197283 -133.275897 
L 361.521696 -133.27849 
L 363.846109 -133.280652 
L 366.170522 -133.282456 
L 368.494935 -133.283961 
L 370.819348 -133.285216 
L 373.143761 -133.286262 
L 375.468174 -133.287134 
L 377.792587 -133.287862 
L 380.117 -133.288469 
L 382.441413 -133.288975 
L 384.765826 -133.289397 
L 387.090239 -133.289748 
L 389.414651 -133.290042 
L 391.739064 -133.290286 
L 391.739064 -486.944264 
L 391.739064 -486.944264 
L 389.414651 -486.94402 
L 387.090239 -486.943726 
L 384.765826 -486.943375 
L 382.441413 -486.942953 
L 380.117 -486.942447 
L 377.792587 -486.94184 
L 375.468174 -486.941112 
L 373.143761 -486.94024 
L 370.819348 -486.939193 
L 368.494935 -486.937939 
L 366.170522 -486.936434 
L 363.846109 -486.93463 
L 361.521696 -486.932468 
L 359.197283 -486.929875 
L 356.87287 -486.926767 
L 354.548457 -486.923042 
L 352.224044 -486.918578 
L 349.899631 -486.913229 
L 347.575218 -486.906821 
L 345.250806 -486.899146 
L 342.926393 -486.889957 
L 340.60198 -486.878958 
L 338.277567 -486.865798 
L 335.953154 -486.85006 
L 333.628741 -486.83125 
L 331.304328 -486.808784 
L 328.979915 -486.781974 
L 326.655502 -486.75001 
L 324.331089 -486.711948 
L 322.006676 -486.666686 
L 319.682263 -486.612953 
L 317.35785 -486.549289 
L 315.033437 -486.474035 
L 312.709024 -486.385325 
L 310.384611 -486.281096 
L 308.060198 -486.159098 
L 305.735786 -486.01694 
L 303.411373 -485.852154 
L 301.08696 -485.662288 
L 298.762547 -485.445042 
L 296.438134 -485.198438 
L 294.113721 -484.921025 
L 291.789308 -484.612107 
L 289.464895 -484.271969 
L 287.140482 -483.902084 
L 284.816069 -483.50525 
L 282.491656 -483.085629 
L 280.167243 -482.648655 
L 277.84283 -482.200811 
L 275.518417 -481.749262 
L 273.194004 -481.301417 
L 270.869591 -480.864444 
L 268.545178 -480.444822 
L 266.220765 -480.047989 
L 263.896353 -479.678104 
L 261.57194 -479.337966 
L 259.247527 -479.029047 
L 256.923114 -478.751634 
L 254.598701 -478.50503 
L 252.274288 -478.287784 
L 249.949875 -478.097918 
L 247.625462 -477.933132 
L 245.301049 -477.790975 
L 242.976636 -477.668977 
L 240.652223 -477.564747 
L 238.32781 -477.476038 
L 236.003397 -477.400784 
L 233.678984 -477.33712 
L 231.354571 -477.283387 
L 229.030158 -477.238125 
L 226.705745 -477.200063 
L 224.381333 -477.168099 
L 222.05692 -477.141289 
L 219.732507 -477.118823 
L 217.408094 -477.100013 
L 215.083681 -477.084275 
L 212.759268 -477.071115 
L 210.434855 -477.060116 
L 208.110442 -477.050926 
L 205.786029 -477.043252 
L 203.461616 -477.036844 
L 201.137203 -477.031495 
L 198.81279 -477.027031 
L 196.488377 -477.023306 
L 194.163964 -477.020198 
L 191.839551 -477.017605 
L 189.515138 -477.015442 
L 187.190725 -477.013638 
L 184.866312 -477.012134 
L 182.5419 -477.010879 
L 180.217487 -477.009833 
L 177.893074 -477.00896 
L 175.568661 -477.008233 
L 173.244248 -477.007626 
L 170.919835 -477.00712 
L 168.595422 -477.006698 
L 166.271009 -477.006346 
L 163.946596 -477.006053 
L 161.622183 -477.005808 
z
"/>
    </defs>
    <g clip-path="url(#p030d018abd)">
     <use xlink:href="#m8f4d897a65" x="0" y="524.88" style="fill: #406992; fill-opacity: 0.05"/>
    </g>
   </g>
   <g id="tf-swoop-YD">
    <defs>
     <path id="m7d1a1e8d23" d="M 161.622183 -79.366992 
L 161.622183 -123.349377 
L 163.946596 -123.349133 
L 166.271009 -123.348839 
L 168.595422 -123.348488 
L 170.919835 -123.348066 
L 173.244248 -123.34756 
L 175.568661 -123.346953 
L 177.893074 -123.346225 
L 180.217487 -123.345353 
L 182.5419 -123.344306 
L 184.866312 -123.343052 
L 187.190725 -123.341547 
L 189.515138 -123.339743 
L 191.839551 -123.337581 
L 194.163964 -123.334988 
L 196.488377 -123.33188 
L 198.81279 -123.328155 
L 201.137203 -123.323691 
L 203.461616 -123.318342 
L 205.786029 -123.311934 
L 208.110442 -123.304259 
L 210.434855 -123.29507 
L 212.759268 -123.284071 
L 215.083681 -123.270911 
L 217.408094 -123.255173 
L 219.732507 -123.236363 
L 222.05692 -123.213897 
L 224.381333 -123.187087 
L 226.705745 -123.155123 
L 229.030158 -123.117061 
L 231.354571 -123.071799 
L 233.678984 -123.018066 
L 236.003397 -122.954402 
L 238.32781 -122.879148 
L 240.652223 -122.790438 
L 242.976636 -122.686208 
L 245.301049 -122.564211 
L 247.625462 -122.422053 
L 249.949875 -122.257267 
L 252.274288 -122.067401 
L 254.598701 -121.850155 
L 256.923114 -121.603551 
L 259.247527 -121.326138 
L 261.57194 -121.01722 
L 263.896353 -120.677082 
L 266.220765 -120.307197 
L 268.545178 -119.910363 
L 270.869591 -119.490742 
L 273.194004 -119.053768 
L 275.518417 -118.605924 
L 277.84283 -118.154375 
L 280.167243 -117.70653 
L 282.491656 -117.269557 
L 284.816069 -116.849935 
L 287.140482 -116.453102 
L 289.464895 -116.083217 
L 291.789308 -115.743079 
L 294.113721 -115.43416 
L 296.438134 -115.156747 
L 298.762547 -114.910143 
L 301.08696 -114.692897 
L 303.411373 -114.503031 
L 305.735786 -114.338245 
L 308.060198 -114.196088 
L 310.384611 -114.07409 
L 312.709024 -113.96986 
L 315.033437 -113.881151 
L 317.35785 -113.805897 
L 319.682263 -113.742233 
L 322.006676 -113.6885 
L 324.331089 -113.643238 
L 326.655502 -113.605176 
L 328.979915 -113.573212 
L 331.304328 -113.546402 
L 333.628741 -113.523936 
L 335.953154 -113.505126 
L 338.277567 -113.489388 
L 340.60198 -113.476228 
L 342.926393 -113.465229 
L 345.250806 -113.456039 
L 347.575218 -113.448365 
L 349.899631 -113.441957 
L 352.224044 -113.436608 
L 354.548457 -113.432144 
L 356.87287 -113.428419 
L 359.197283 -113.425311 
L 361.521696 -113.422718 
L 363.846109 -113.420555 
L 366.170522 -113.418751 
L 368.494935 -113.417247 
L 370.819348 -113.415992 
L 373.143761 -113.414946 
L 375.468174 -113.414073 
L 377.792587 -113.413346 
L 380.117 -113.412739 
L 382.441413 -113.412233 
L 384.765826 -113.411811 
L 387.090239 -113.411459 
L 389.414651 -113.411166 
L 391.739064 -113.410921 
L 391.739064 -69.428536 
L 391.739064 -69.428536 
L 389.414651 -69.42878 
L 387.090239 -69.429074 
L 384.765826 -69.429425 
L 382.441413 -69.429847 
L 380.117 -69.430353 
L 377.792587 -69.43096 
L 375.468174 -69.431688 
L 373.143761 -69.43256 
L 370.819348 -69.433607 
L 368.494935 -69.434861 
L 366.170522 -69.436366 
L 363.846109 -69.43817 
L 361.521696 -69.440332 
L 359.197283 -69.442925 
L 356.87287 -69.446033 
L 354.548457 -69.449758 
L 352.224044 -69.454222 
L 349.899631 -69.459571 
L 347.575218 -69.465979 
L 345.250806 -69.473654 
L 342.926393 -69.482843 
L 340.60198 -69.493842 
L 338.277567 -69.507002 
L 335.953154 -69.52274 
L 333.628741 -69.54155 
L 331.304328 -69.564016 
L 328.979915 -69.590826 
L 326.655502 -69.62279 
L 324.331089 -69.660852 
L 322.006676 -69.706114 
L 319.682263 -69.759847 
L 317.35785 -69.823511 
L 315.033437 -69.898765 
L 312.709024 -69.987475 
L 310.384611 -70.091704 
L 308.060198 -70.213702 
L 305.735786 -70.35586 
L 303.411373 -70.520646 
L 301.08696 -70.710512 
L 298.762547 -70.927758 
L 296.438134 -71.174362 
L 294.113721 -71.451775 
L 291.789308 -71.760693 
L 289.464895 -72.100831 
L 287.140482 -72.470716 
L 284.816069 -72.86755 
L 282.491656 -73.287171 
L 280.167243 -73.724145 
L 277.84283 -74.171989 
L 275.518417 -74.623538 
L 273.194004 -75.071383 
L 270.869591 -75.508356 
L 268.545178 -75.927978 
L 266.220765 -76.324811 
L 263.896353 -76.694696 
L 261.57194 -77.034834 
L 259.247527 -77.343753 
L 256.923114 -77.621166 
L 254.598701 -77.86777 
L 252.274288 -78.085016 
L 249.949875 -78.274882 
L 247.625462 -78.439668 
L 245.301049 -78.581825 
L 242.976636 -78.703823 
L 240.652223 -78.808053 
L 238.32781 -78.896762 
L 236.003397 -78.972016 
L 233.678984 -79.03568 
L 231.354571 -79.089413 
L 229.030158 -79.134675 
L 226.705745 -79.172737 
L 224.381333 -79.204701 
L 222.05692 -79.231511 
L 219.732507 -79.253977 
L 217.408094 -79.272787 
L 215.083681 -79.288525 
L 212.759268 -79.301685 
L 210.434855 -79.312684 
L 208.110442 -79.321874 
L 205.786029 -79.329548 
L 203.461616 -79.335956 
L 201.137203 -79.341305 
L 198.81279 -79.345769 
L 196.488377 -79.349494 
L 194.163964 -79.352602 
L 191.839551 -79.355195 
L 189.515138 -79.357358 
L 187.190725 -79.359162 
L 184.866312 -79.360666 
L 182.5419 -79.361921 
L 180.217487 -79.362967 
L 177.893074 -79.36384 
L 175.568661 -79.364567 
L 173.244248 -79.365174 
L 170.919835 -79.36568 
L 168.595422 -79.366102 
L 166.271009 -79.366454 
L 163.946596 -79.366747 
L 161.622183 -79.366992 
z
"/>
    </defs>
    <g clip-path="url(#p030d018abd)">
     <use xlink:href="#m7d1a1e8d23" x="0" y="524.88" style="fill: #b78935; fill-opacity: 0.05"/>
    </g>
   </g>
   <g id="tf-bar-ND">
    <defs>
     <path id="md1a19d7ca0" d="M 391.739064 -133.291513 
L 391.739064 -486.945491 
L 417.307607 -486.945491 
L 417.307607 -133.291513 
L 417.307607 -133.291513 
L 391.739064 -133.291513 
z
"/>
    </defs>
    <g clip-path="url(#p030d018abd)">
     <use xlink:href="#md1a19d7ca0" x="0" y="524.88" style="fill: #406992; fill-opacity: 0.25"/>
    </g>
   </g>
   <g id="tf-bar-YD">
    <defs>
     <path id="m3c72eb28fa" d="M 391.739064 -69.427309 
L 391.739064 -113.409695 
L 417.307607 -113.409695 
L 417.307607 -69.427309 
L 417.307607 -69.427309 
L 391.739064 -69.427309 
z
"/>
    </defs>
    <g clip-path="url(#p030d018abd)">
     <use xlink:href="#m3c72eb28fa" x="0" y="524.88" style="fill: #b78935; fill-opacity: 0.25"/>
    </g>
   </g>
   <g id="tf-swoop-YD-ND">
    <defs>
     <path id="m01998a7bb0" d="M 417.307607 -101.84761 
L 417.307607 -113.408468 
L 419.63202 -113.408224 
L 421.956433 -113.40793 
L 424.280846 -113.407578 
L 426.605259 -113.407157 
L 428.929671 -113.406651 
L 431.254084 -113.406044 
L 433.578497 -113.405316 
L 435.90291 -113.404444 
L 438.227323 -113.403397 
L 440.551736 -113.402143 
L 442.876149 -113.400638 
L 445.200562 -113.398834 
L 447.524975 -113.396671 
L 449.849388 -113.394079 
L 452.173801 -113.390971 
L 454.498214 -113.387246 
L 456.822627 -113.382782 
L 459.14704 -113.377433 
L 461.471453 -113.371025 
L 463.795866 -113.36335 
L 466.120279 -113.354161 
L 468.444692 -113.343162 
L 470.769104 -113.330002 
L 473.093517 -113.314264 
L 475.41793 -113.295454 
L 477.742343 -113.272988 
L 480.066756 -113.246177 
L 482.391169 -113.214214 
L 484.715582 -113.176151 
L 487.039995 -113.13089 
L 489.364408 -113.077157 
L 491.688821 -113.013493 
L 494.013234 -112.938238 
L 496.337647 -112.849529 
L 498.66206 -112.745299 
L 500.986473 -112.623301 
L 503.310886 -112.481144 
L 505.635299 -112.316358 
L 507.959712 -112.126492 
L 510.284124 -111.909246 
L 512.608537 -111.662642 
L 514.93295 -111.385229 
L 517.257363 -111.076311 
L 519.581776 -110.736173 
L 521.906189 -110.366288 
L 524.230602 -109.969454 
L 526.555015 -109.549833 
L 528.879428 -109.112859 
L 531.203841 -108.665015 
L 533.528254 -108.213466 
L 535.852667 -107.765621 
L 538.17708 -107.328648 
L 540.501493 -106.909026 
L 542.825906 -106.512192 
L 545.150319 -106.142308 
L 547.474732 -105.80217 
L 549.799145 -105.493251 
L 552.123557 -105.215838 
L 554.44797 -104.969234 
L 556.772383 -104.751988 
L 559.096796 -104.562122 
L 561.421209 -104.397336 
L 563.745622 -104.255179 
L 566.070035 -104.133181 
L 568.394448 -104.028951 
L 570.718861 -103.940242 
L 573.043274 -103.864988 
L 575.367687 -103.801324 
L 577.6921 -103.747591 
L 580.016513 -103.702329 
L 582.340926 -103.664267 
L 584.665339 -103.632303 
L 586.989752 -103.605493 
L 589.314165 -103.583027 
L 591.638578 -103.564217 
L 593.96299 -103.548479 
L 596.287403 -103.535319 
L 598.611816 -103.52432 
L 600.936229 -103.51513 
L 603.260642 -103.507456 
L 605.585055 -103.501048 
L 607.909468 -103.495699 
L 610.233881 -103.491235 
L 612.558294 -103.48751 
L 614.882707 -103.484402 
L 617.20712 -103.481809 
L 619.531533 -103.479646 
L 621.855946 -103.477842 
L 624.180359 -103.476338 
L 626.504772 -103.475083 
L 628.829185 -103.474037 
L 631.153598 -103.473164 
L 633.47801 -103.472437 
L 635.802423 -103.47183 
L 638.126836 -103.471324 
L 640.451249 -103.470902 
L 642.775662 -103.47055 
L 645.100075 -103.470257 
L 647.424488 -103.470012 
L 647.424488 -91.909155 
L 647.424488 -91.909155 
L 645.100075 -91.909399 
L 642.775662 -91.909692 
L 640.451249 -91.910044 
L 638.126836 -91.910466 
L 635.802423 -91.910972 
L 633.47801 -91.911579 
L 631.153598 -91.912306 
L 628.829185 -91.913179 
L 626.504772 -91.914225 
L 624.180359 -91.91548 
L 621.855946 -91.916985 
L 619.531533 -91.918789 
L 617.20712 -91.920951 
L 614.882707 -91.923544 
L 612.558294 -91.926652 
L 610.233881 -91.930377 
L 607.909468 -91.934841 
L 605.585055 -91.94019 
L 603.260642 -91.946598 
L 600.936229 -91.954273 
L 598.611816 -91.963462 
L 596.287403 -91.974461 
L 593.96299 -91.987621 
L 591.638578 -92.003359 
L 589.314165 -92.022169 
L 586.989752 -92.044635 
L 584.665339 -92.071445 
L 582.340926 -92.103409 
L 580.016513 -92.141471 
L 577.6921 -92.186733 
L 575.367687 -92.240466 
L 573.043274 -92.30413 
L 570.718861 -92.379384 
L 568.394448 -92.468094 
L 566.070035 -92.572323 
L 563.745622 -92.694321 
L 561.421209 -92.836479 
L 559.096796 -93.001264 
L 556.772383 -93.191131 
L 554.44797 -93.408377 
L 552.123557 -93.654981 
L 549.799145 -93.932393 
L 547.474732 -94.241312 
L 545.150319 -94.58145 
L 542.825906 -94.951335 
L 540.501493 -95.348169 
L 538.17708 -95.76779 
L 535.852667 -96.204763 
L 533.528254 -96.652608 
L 531.203841 -97.104157 
L 528.879428 -97.552002 
L 526.555015 -97.988975 
L 524.230602 -98.408597 
L 521.906189 -98.80543 
L 519.581776 -99.175315 
L 517.257363 -99.515453 
L 514.93295 -99.824372 
L 512.608537 -100.101784 
L 510.284124 -100.348388 
L 507.959712 -100.565635 
L 505.635299 -100.755501 
L 503.310886 -100.920287 
L 500.986473 -101.062444 
L 498.66206 -101.184442 
L 496.337647 -101.288671 
L 494.013234 -101.377381 
L 491.688821 -101.452635 
L 489.364408 -101.516299 
L 487.039995 -101.570032 
L 484.715582 -101.615294 
L 482.391169 -101.653356 
L 480.066756 -101.68532 
L 477.742343 -101.71213 
L 475.41793 -101.734596 
L 473.093517 -101.753406 
L 470.769104 -101.769144 
L 468.444692 -101.782304 
L 466.120279 -101.793303 
L 463.795866 -101.802492 
L 461.471453 -101.810167 
L 459.14704 -101.816575 
L 456.822627 -101.821924 
L 454.498214 -101.826388 
L 452.173801 -101.830113 
L 449.849388 -101.833221 
L 447.524975 -101.835814 
L 445.200562 -101.837976 
L 442.876149 -101.83978 
L 440.551736 -101.841285 
L 438.227323 -101.84254 
L 435.90291 -101.843586 
L 433.578497 -101.844459 
L 431.254084 -101.845186 
L 428.929671 -101.845793 
L 426.605259 -101.846299 
L 424.280846 -101.846721 
L 421.956433 -101.847073 
L 419.63202 -101.847366 
L 417.307607 -101.84761 
z
"/>
    </defs>
    <g clip-path="url(#p030d018abd)">
     <use xlink:href="#m01998a7bb0" x="0" y="524.88" style="fill: #dbc49a; fill-opacity: 0.05"/>
    </g>
   </g>
   <g id="tf-swoop-YD-YD">
    <defs>
     <path id="m70b728cddf" d="M 417.307607 -69.423629 
L 417.307607 -101.845157 
L 419.63202 -101.844423 
L 421.956433 -101.843544 
L 424.280846 -101.842488 
L 426.605259 -101.841223 
L 428.929671 -101.839705 
L 431.254084 -101.837885 
L 433.578497 -101.835702 
L 435.90291 -101.833084 
L 438.227323 -101.829945 
L 440.551736 -101.826181 
L 442.876149 -101.821667 
L 445.200562 -101.816255 
L 447.524975 -101.809767 
L 449.849388 -101.801989 
L 452.173801 -101.792665 
L 454.498214 -101.78149 
L 456.822627 -101.768098 
L 459.14704 -101.752051 
L 461.471453 -101.732827 
L 463.795866 -101.709803 
L 466.120279 -101.682235 
L 468.444692 -101.649238 
L 470.769104 -101.609758 
L 473.093517 -101.562544 
L 475.41793 -101.506114 
L 477.742343 -101.438716 
L 480.066756 -101.358285 
L 482.391169 -101.262394 
L 484.715582 -101.148207 
L 487.039995 -101.012422 
L 489.364408 -100.851224 
L 491.688821 -100.660231 
L 494.013234 -100.434468 
L 496.337647 -100.16834 
L 498.66206 -99.855651 
L 500.986473 -99.489657 
L 503.310886 -99.063185 
L 505.635299 -98.568828 
L 507.959712 -97.999229 
L 510.284124 -97.347491 
L 512.608537 -96.607679 
L 514.93295 -95.775441 
L 517.257363 -94.848684 
L 519.581776 -93.82827 
L 521.906189 -92.718617 
L 524.230602 -91.528115 
L 526.555015 -90.269251 
L 528.879428 -88.958331 
L 531.203841 -87.614796 
L 533.528254 -86.260151 
L 535.852667 -84.916616 
L 538.17708 -83.605696 
L 540.501493 -82.346831 
L 542.825906 -81.15633 
L 545.150319 -80.046676 
L 547.474732 -79.026263 
L 549.799145 -78.099506 
L 552.123557 -77.267268 
L 554.44797 -76.527456 
L 556.772383 -75.875717 
L 559.096796 -75.306119 
L 561.421209 -74.811761 
L 563.745622 -74.38529 
L 566.070035 -74.019296 
L 568.394448 -73.706607 
L 570.718861 -73.440479 
L 573.043274 -73.214715 
L 575.367687 -73.023723 
L 577.6921 -72.862524 
L 580.016513 -72.72674 
L 582.340926 -72.612552 
L 584.665339 -72.516662 
L 586.989752 -72.43623 
L 589.314165 -72.368833 
L 591.638578 -72.312403 
L 593.96299 -72.265189 
L 596.287403 -72.225709 
L 598.611816 -72.192711 
L 600.936229 -72.165144 
L 603.260642 -72.14212 
L 605.585055 -72.122896 
L 607.909468 -72.106849 
L 610.233881 -72.093457 
L 612.558294 -72.082282 
L 614.882707 -72.072958 
L 617.20712 -72.06518 
L 619.531533 -72.058692 
L 621.855946 -72.05328 
L 624.180359 -72.048766 
L 626.504772 -72.045002 
L 628.829185 -72.041863 
L 631.153598 -72.039245 
L 633.47801 -72.037062 
L 635.802423 -72.035242 
L 638.126836 -72.033724 
L 640.451249 -72.032459 
L 642.775662 -72.031403 
L 645.100075 -72.030523 
L 647.424488 -72.02979 
L 647.424488 -39.608262 
L 647.424488 -39.608262 
L 645.100075 -39.608995 
L 642.775662 -39.609875 
L 640.451249 -39.610931 
L 638.126836 -39.612196 
L 635.802423 -39.613714 
L 633.47801 -39.615534 
L 631.153598 -39.617717 
L 628.829185 -39.620335 
L 626.504772 -39.623474 
L 624.180359 -39.627238 
L 621.855946 -39.631752 
L 619.531533 -39.637164 
L 617.20712 -39.643652 
L 614.882707 -39.65143 
L 612.558294 -39.660754 
L 610.233881 -39.671929 
L 607.909468 -39.685321 
L 605.585055 -39.701368 
L 603.260642 -39.720592 
L 600.936229 -39.743616 
L 598.611816 -39.771183 
L 596.287403 -39.804181 
L 593.96299 -39.843661 
L 591.638578 -39.890875 
L 589.314165 -39.947305 
L 586.989752 -40.014702 
L 584.665339 -40.095134 
L 582.340926 -40.191024 
L 580.016513 -40.305212 
L 577.6921 -40.440996 
L 575.367687 -40.602195 
L 573.043274 -40.793187 
L 570.718861 -41.018951 
L 568.394448 -41.285079 
L 566.070035 -41.597768 
L 563.745622 -41.963762 
L 561.421209 -42.390233 
L 559.096796 -42.884591 
L 556.772383 -43.454189 
L 554.44797 -44.105928 
L 552.123557 -44.84574 
L 549.799145 -45.677978 
L 547.474732 -46.604735 
L 545.150319 -47.625148 
L 542.825906 -48.734802 
L 540.501493 -49.925303 
L 538.17708 -51.184168 
L 535.852667 -52.495088 
L 533.528254 -53.838623 
L 531.203841 -55.193268 
L 528.879428 -56.536803 
L 526.555015 -57.847723 
L 524.230602 -59.106587 
L 521.906189 -60.297089 
L 519.581776 -61.406742 
L 517.257363 -62.427156 
L 514.93295 -63.353913 
L 512.608537 -64.186151 
L 510.284124 -64.925963 
L 507.959712 -65.577701 
L 505.635299 -66.1473 
L 503.310886 -66.641657 
L 500.986473 -67.068129 
L 498.66206 -67.434123 
L 496.337647 -67.746812 
L 494.013234 -68.01294 
L 491.688821 -68.238703 
L 489.364408 -68.429696 
L 487.039995 -68.590894 
L 484.715582 -68.726679 
L 482.391169 -68.840866 
L 480.066756 -68.936757 
L 477.742343 -69.017188 
L 475.41793 -69.084586 
L 473.093517 -69.141016 
L 470.769104 -69.18823 
L 468.444692 -69.22771 
L 466.120279 -69.260707 
L 463.795866 -69.288275 
L 461.471453 -69.311299 
L 459.14704 -69.330523 
L 456.822627 -69.34657 
L 454.498214 -69.359962 
L 452.173801 -69.371137 
L 449.849388 -69.380461 
L 447.524975 -69.388239 
L 445.200562 -69.394727 
L 442.876149 -69.400139 
L 440.551736 -69.404653 
L 438.227323 -69.408417 
L 435.90291 -69.411556 
L 433.578497 -69.414174 
L 431.254084 -69.416357 
L 428.929671 -69.418177 
L 426.605259 -69.419695 
L 424.280846 -69.42096 
L 421.956433 -69.422016 
L 419.63202 -69.422895 
L 417.307607 -69.423629 
z
"/>
    </defs>
    <g clip-path="url(#p030d018abd)">
     <use xlink:href="#m70b728cddf" x="0" y="524.88" style="fill: #b78935; fill-opacity: 0.05"/>
    </g>
   </g>
   <g id="tf-swoop-ND-YD">
    <defs>
     <path id="m1fc4947f99" d="M 417.307607 -146.352531 
L 417.307607 -133.29274 
L 419.63202 -133.292984 
L 421.956433 -133.293277 
L 424.280846 -133.293629 
L 426.605259 -133.294051 
L 428.929671 -133.294557 
L 431.254084 -133.295164 
L 433.578497 -133.295891 
L 435.90291 -133.296764 
L 438.227323 -133.29781 
L 440.551736 -133.299065 
L 442.876149 -133.30057 
L 445.200562 -133.302374 
L 447.524975 -133.304536 
L 449.849388 -133.307129 
L 452.173801 -133.310237 
L 454.498214 -133.313962 
L 456.822627 -133.318426 
L 459.14704 -133.323775 
L 461.471453 -133.330183 
L 463.795866 -133.337858 
L 466.120279 -133.347047 
L 468.444692 -133.358046 
L 470.769104 -133.371206 
L 473.093517 -133.386944 
L 475.41793 -133.405754 
L 477.742343 -133.42822 
L 480.066756 -133.45503 
L 482.391169 -133.486994 
L 484.715582 -133.525056 
L 487.039995 -133.570318 
L 489.364408 -133.624051 
L 491.688821 -133.687715 
L 494.013234 -133.762969 
L 496.337647 -133.851679 
L 498.66206 -133.955908 
L 500.986473 -134.077906 
L 503.310886 -134.220063 
L 505.635299 -134.384849 
L 507.959712 -134.574716 
L 510.284124 -134.791962 
L 512.608537 -135.038566 
L 514.93295 -135.315978 
L 517.257363 -135.624897 
L 519.581776 -135.965035 
L 521.906189 -136.33492 
L 524.230602 -136.731753 
L 526.555015 -137.151375 
L 528.879428 -137.588348 
L 531.203841 -138.036193 
L 533.528254 -138.487742 
L 535.852667 -138.935587 
L 538.17708 -139.37256 
L 540.501493 -139.792182 
L 542.825906 -140.189015 
L 545.150319 -140.5589 
L 547.474732 -140.899038 
L 549.799145 -141.207957 
L 552.123557 -141.485369 
L 554.44797 -141.731973 
L 556.772383 -141.949219 
L 559.096796 -142.139086 
L 561.421209 -142.303871 
L 563.745622 -142.446029 
L 566.070035 -142.568027 
L 568.394448 -142.672256 
L 570.718861 -142.760966 
L 573.043274 -142.83622 
L 575.367687 -142.899884 
L 577.6921 -142.953617 
L 580.016513 -142.998879 
L 582.340926 -143.036941 
L 584.665339 -143.068905 
L 586.989752 -143.095715 
L 589.314165 -143.118181 
L 591.638578 -143.136991 
L 593.96299 -143.152729 
L 596.287403 -143.165889 
L 598.611816 -143.176888 
L 600.936229 -143.186077 
L 603.260642 -143.193752 
L 605.585055 -143.20016 
L 607.909468 -143.205509 
L 610.233881 -143.209973 
L 612.558294 -143.213698 
L 614.882707 -143.216806 
L 617.20712 -143.219399 
L 619.531533 -143.221561 
L 621.855946 -143.223365 
L 624.180359 -143.22487 
L 626.504772 -143.226125 
L 628.829185 -143.227171 
L 631.153598 -143.228044 
L 633.47801 -143.228771 
L 635.802423 -143.229378 
L 638.126836 -143.229884 
L 640.451249 -143.230306 
L 642.775662 -143.230658 
L 645.100075 -143.230951 
L 647.424488 -143.231195 
L 647.424488 -156.290987 
L 647.424488 -156.290987 
L 645.100075 -156.290742 
L 642.775662 -156.290449 
L 640.451249 -156.290097 
L 638.126836 -156.289675 
L 635.802423 -156.289169 
L 633.47801 -156.288562 
L 631.153598 -156.287835 
L 628.829185 -156.286962 
L 626.504772 -156.285916 
L 624.180359 -156.284661 
L 621.855946 -156.283157 
L 619.531533 -156.281353 
L 617.20712 -156.27919 
L 614.882707 -156.276597 
L 612.558294 -156.273489 
L 610.233881 -156.269764 
L 607.909468 -156.2653 
L 605.585055 -156.259951 
L 603.260642 -156.253543 
L 600.936229 -156.245869 
L 598.611816 -156.236679 
L 596.287403 -156.22568 
L 593.96299 -156.21252 
L 591.638578 -156.196782 
L 589.314165 -156.177972 
L 586.989752 -156.155506 
L 584.665339 -156.128696 
L 582.340926 -156.096732 
L 580.016513 -156.05867 
L 577.6921 -156.013408 
L 575.367687 -155.959675 
L 573.043274 -155.896011 
L 570.718861 -155.820757 
L 568.394448 -155.732048 
L 566.070035 -155.627818 
L 563.745622 -155.50582 
L 561.421209 -155.363663 
L 559.096796 -155.198877 
L 556.772383 -155.009011 
L 554.44797 -154.791765 
L 552.123557 -154.545161 
L 549.799145 -154.267748 
L 547.474732 -153.958829 
L 545.150319 -153.618691 
L 542.825906 -153.248806 
L 540.501493 -152.851973 
L 538.17708 -152.432351 
L 535.852667 -151.995378 
L 533.528254 -151.547533 
L 531.203841 -151.095984 
L 528.879428 -150.64814 
L 526.555015 -150.211166 
L 524.230602 -149.791545 
L 521.906189 -149.394711 
L 519.581776 -149.024826 
L 517.257363 -148.684688 
L 514.93295 -148.37577 
L 512.608537 -148.098357 
L 510.284124 -147.851753 
L 507.959712 -147.634507 
L 505.635299 -147.444641 
L 503.310886 -147.279855 
L 500.986473 -147.137697 
L 498.66206 -147.0157 
L 496.337647 -146.91147 
L 494.013234 -146.82276 
L 491.688821 -146.747506 
L 489.364408 -146.683842 
L 487.039995 -146.630109 
L 484.715582 -146.584847 
L 482.391169 -146.546785 
L 480.066756 -146.514821 
L 477.742343 -146.488011 
L 475.41793 -146.465545 
L 473.093517 -146.446735 
L 470.769104 -146.430997 
L 468.444692 -146.417837 
L 466.120279 -146.406838 
L 463.795866 -146.397649 
L 461.471453 -146.389974 
L 459.14704 -146.383566 
L 456.822627 -146.378217 
L 454.498214 -146.373753 
L 452.173801 -146.370028 
L 449.849388 -146.36692 
L 447.524975 -146.364327 
L 445.200562 -146.362165 
L 442.876149 -146.360361 
L 440.551736 -146.358856 
L 438.227323 -146.357602 
L 435.90291 -146.356555 
L 433.578497 -146.355683 
L 431.254084 -146.354955 
L 428.929671 -146.354348 
L 426.605259 -146.353842 
L 424.280846 -146.35342 
L 421.956433 -146.353069 
L 419.63202 -146.352775 
L 417.307607 -146.352531 
z
"/>
    </defs>
    <g clip-path="url(#p030d018abd)">
     <use xlink:href="#m1fc4947f99" x="0" y="524.88" style="fill: #9fb4c8; fill-opacity: 0.05"/>
    </g>
   </g>
   <g id="tf-swoop-ND-ND">
    <defs>
     <path id="m01dfaf1677" d="M 417.307607 -486.949171 
L 417.307607 -146.354984 
L 419.63202 -146.355718 
L 421.956433 -146.356598 
L 424.280846 -146.357653 
L 426.605259 -146.358919 
L 428.929671 -146.360436 
L 431.254084 -146.362257 
L 433.578497 -146.36444 
L 435.90291 -146.367057 
L 438.227323 -146.370196 
L 440.551736 -146.373961 
L 442.876149 -146.378474 
L 445.200562 -146.383886 
L 447.524975 -146.390374 
L 449.849388 -146.398152 
L 452.173801 -146.407476 
L 454.498214 -146.418651 
L 456.822627 -146.432043 
L 459.14704 -146.44809 
L 461.471453 -146.467314 
L 463.795866 -146.490338 
L 466.120279 -146.517906 
L 468.444692 -146.550903 
L 470.769104 -146.590383 
L 473.093517 -146.637597 
L 475.41793 -146.694027 
L 477.742343 -146.761425 
L 480.066756 -146.841856 
L 482.391169 -146.937747 
L 484.715582 -147.051934 
L 487.039995 -147.187719 
L 489.364408 -147.348918 
L 491.688821 -147.53991 
L 494.013234 -147.765673 
L 496.337647 -148.031801 
L 498.66206 -148.34449 
L 500.986473 -148.710484 
L 503.310886 -149.136956 
L 505.635299 -149.631314 
L 507.959712 -150.200912 
L 510.284124 -150.85265 
L 512.608537 -151.592462 
L 514.93295 -152.424701 
L 517.257363 -153.351457 
L 519.581776 -154.371871 
L 521.906189 -155.481525 
L 524.230602 -156.672026 
L 526.555015 -157.93089 
L 528.879428 -159.24181 
L 531.203841 -160.585345 
L 533.528254 -161.939991 
L 535.852667 -163.283525 
L 538.17708 -164.594445 
L 540.501493 -165.85331 
L 542.825906 -167.043811 
L 545.150319 -168.153465 
L 547.474732 -169.173879 
L 549.799145 -170.100635 
L 552.123557 -170.932874 
L 554.44797 -171.672686 
L 556.772383 -172.324424 
L 559.096796 -172.894022 
L 561.421209 -173.38838 
L 563.745622 -173.814851 
L 566.070035 -174.180845 
L 568.394448 -174.493535 
L 570.718861 -174.759663 
L 573.043274 -174.985426 
L 575.367687 -175.176418 
L 577.6921 -175.337617 
L 580.016513 -175.473402 
L 582.340926 -175.587589 
L 584.665339 -175.683479 
L 586.989752 -175.763911 
L 589.314165 -175.831309 
L 591.638578 -175.887738 
L 593.96299 -175.934952 
L 596.287403 -175.974432 
L 598.611816 -176.00743 
L 600.936229 -176.034998 
L 603.260642 -176.058022 
L 605.585055 -176.077245 
L 607.909468 -176.093292 
L 610.233881 -176.106685 
L 612.558294 -176.11786 
L 614.882707 -176.127183 
L 617.20712 -176.134962 
L 619.531533 -176.14145 
L 621.855946 -176.146861 
L 624.180359 -176.151375 
L 626.504772 -176.155139 
L 628.829185 -176.158278 
L 631.153598 -176.160896 
L 633.47801 -176.163079 
L 635.802423 -176.164899 
L 638.126836 -176.166417 
L 640.451249 -176.167683 
L 642.775662 -176.168738 
L 645.100075 -176.169618 
L 647.424488 -176.170351 
L 647.424488 -516.764538 
L 647.424488 -516.764538 
L 645.100075 -516.763805 
L 642.775662 -516.762925 
L 640.451249 -516.761869 
L 638.126836 -516.760604 
L 635.802423 -516.759086 
L 633.47801 -516.757266 
L 631.153598 -516.755083 
L 628.829185 -516.752465 
L 626.504772 -516.749326 
L 624.180359 -516.745562 
L 621.855946 -516.741048 
L 619.531533 -516.735636 
L 617.20712 -516.729148 
L 614.882707 -516.72137 
L 612.558294 -516.712046 
L 610.233881 -516.700871 
L 607.909468 -516.687479 
L 605.585055 -516.671432 
L 603.260642 -516.652208 
L 600.936229 -516.629184 
L 598.611816 -516.601617 
L 596.287403 -516.568619 
L 593.96299 -516.529139 
L 591.638578 -516.481925 
L 589.314165 -516.425495 
L 586.989752 -516.358098 
L 584.665339 -516.277666 
L 582.340926 -516.181776 
L 580.016513 -516.067588 
L 577.6921 -515.931804 
L 575.367687 -515.770605 
L 573.043274 -515.579613 
L 570.718861 -515.353849 
L 568.394448 -515.087721 
L 566.070035 -514.775032 
L 563.745622 -514.409038 
L 561.421209 -513.982567 
L 559.096796 -513.488209 
L 556.772383 -512.918611 
L 554.44797 -512.266872 
L 552.123557 -511.52706 
L 549.799145 -510.694822 
L 547.474732 -509.768065 
L 545.150319 -508.747652 
L 542.825906 -507.637998 
L 540.501493 -506.447497 
L 538.17708 -505.188632 
L 535.852667 -503.877712 
L 533.528254 -502.534177 
L 531.203841 -501.179532 
L 528.879428 -499.835997 
L 526.555015 -498.525077 
L 524.230602 -497.266213 
L 521.906189 -496.075711 
L 519.581776 -494.966058 
L 517.257363 -493.945644 
L 514.93295 -493.018887 
L 512.608537 -492.186649 
L 510.284124 -491.446837 
L 507.959712 -490.795099 
L 505.635299 -490.2255 
L 503.310886 -489.731143 
L 500.986473 -489.304671 
L 498.66206 -488.938677 
L 496.337647 -488.625988 
L 494.013234 -488.35986 
L 491.688821 -488.134097 
L 489.364408 -487.943104 
L 487.039995 -487.781906 
L 484.715582 -487.646121 
L 482.391169 -487.531934 
L 480.066756 -487.436043 
L 477.742343 -487.355612 
L 475.41793 -487.288214 
L 473.093517 -487.231784 
L 470.769104 -487.18457 
L 468.444692 -487.14509 
L 466.120279 -487.112093 
L 463.795866 -487.084525 
L 461.471453 -487.061501 
L 459.14704 -487.042277 
L 456.822627 -487.02623 
L 454.498214 -487.012838 
L 452.173801 -487.001663 
L 449.849388 -486.992339 
L 447.524975 -486.984561 
L 445.200562 -486.978073 
L 442.876149 -486.972661 
L 440.551736 -486.968147 
L 438.227323 -486.964383 
L 435.90291 -486.961244 
L 433.578497 -486.958626 
L 431.254084 -486.956443 
L 428.929671 -486.954623 
L 426.605259 -486.953105 
L 424.280846 -486.95184 
L 421.956433 -486.950784 
L 419.63202 -486.949905 
L 417.307607 -486.949171 
z
"/>
    </defs>
    <g clip-path="url(#p030d018abd)">
     <use xlink:href="#m01dfaf1677" x="0" y="524.88" style="fill: #406992; fill-opacity: 0.05"/>
    </g>
   </g>
   <g id="tf-bar-YD-YD">
    <defs>
     <path id="m2354459fb8" d="M 647.424488 -39.604582 
L 647.424488 -72.02611 
L 672.993031 -72.02611 
L 672.993031 -39.604582 
L 672.993031 -39.604582 
L 647.424488 -39.604582 
z
"/>
    </defs>
    <g clip-path="url(#p030d018abd)">
     <use xlink:href="#m2354459fb8" x="0" y="524.88" style="fill: #b78935; fill-opacity: 0.25"/>
    </g>
   </g>
   <g id="tf-bar-YD-ND">
    <defs>
     <path id="m641b7af891" d="M 647.424488 -91.907928 
L 647.424488 -103.468786 
L 672.993031 -103.468786 
L 672.993031 -91.907928 
L 672.993031 -91.907928 
L 647.424488 -91.907928 
z
"/>
    </defs>
    <g clip-path="url(#p030d018abd)">
     <use xlink:href="#m641b7af891" x="0" y="524.88" style="fill: #dbc49a; fill-opacity: 0.25"/>
    </g>
   </g>
   <g id="tf-bar-ND-YD">
    <defs>
     <path id="m2de8e53965" d="M 647.424488 -143.232422 
L 647.424488 -156.292213 
L 672.993031 -156.292213 
L 672.993031 -143.232422 
L 672.993031 -143.232422 
L 647.424488 -143.232422 
z
"/>
    </defs>
    <g clip-path="url(#p030d018abd)">
     <use xlink:href="#m2de8e53965" x="0" y="524.88" style="fill: #9fb4c8; fill-opacity: 0.25"/>
    </g>
   </g>
   <g id="tf-bar-ND-ND">
    <defs>
     <path id="m8307c7028d" d="M 647.424488 -176.174031 
L 647.424488 -516.768218 
L 672.993031 -516.768218 
L 672.993031 -176.174031 
L 672.993031 -176.174031 
L 647.424488 -176.174031 
z
"/>
    </defs>
    <g clip-path="url(#p030d018abd)">
     <use xlink:href="#m8307c7028d" x="0" y="524.88" style="fill: #406992; fill-opacity: 0.25"/>
    </g>
   </g>
   <g id="text_1">
    <text style="font-weight: 300; font-size: 16px; font-family: 'Source Sans 3', sans-serif; fill: #595959" transform="translate(63.014369 241.98585)">All model</text>
    <text style="font-weight: 300; font-size: 16px; font-family: 'Source Sans 3', sans-serif; fill: #595959" transform="translate(51.046869 259.40135)">predictions</text>
   </g>
   <g id="tf-label-YD">
    <text style="font-weight: 300; font-size: 16px; font-family: 'Source Sans 3', sans-serif; fill: #595959; opacity: 0" transform="translate(305.677293 419.949748)">Streamflow</text>
    <text style="font-weight: 300; font-size: 16px; font-family: 'Source Sans 3', sans-serif; fill: #595959; opacity: 0" transform="translate(267.722293 437.365248)">dought predicted</text>
    <text style="font-weight: 300; font-size: 16px; font-family: 'Source Sans 3', sans-serif; fill: #595959; opacity: 0" transform="translate(340.202293 454.973248)">11.1%</text>
   </g>
   <g id="tf-label-ND">
    <text style="font-weight: 300; font-size: 16px; font-family: 'Source Sans 3', sans-serif; fill: #595959; opacity: 0" transform="translate(256.074793 201.345998)">Streamflow dought</text>
    <text style="font-weight: 300; font-size: 16px; font-family: 'Source Sans 3', sans-serif; fill: #595959; opacity: 0" transform="translate(292.364793 218.953998)">not predicted</text>
    <text style="font-weight: 300; font-size: 16px; font-family: 'Source Sans 3', sans-serif; fill: #595959; opacity: 0" transform="translate(340.202293 236.369498)">88.9%</text>
   </g>
   <g id="tf-label-YD-YD">
    <text style="font-weight: 300; font-size: 16px; font-family: 'Source Sans 3', sans-serif; fill: #595959; opacity: 0" transform="translate(573.585217 455.572654)">Did occur</text>
    <text style="font-weight: 300; font-size: 16px; font-family: 'Source Sans 3', sans-serif; fill: #595959; opacity: 0" transform="translate(547.150217 473.141154)">(true positive)</text>
    <text style="font-weight: 300; font-size: 16px; font-family: 'Source Sans 3', sans-serif; fill: #595959; opacity: 0" transform="translate(603.440217 490.556654)">8.2%</text>
   </g>
   <g id="tf-label-YD-ND">
    <text style="font-weight: 300; font-size: 16px; font-family: 'Source Sans 3', sans-serif; fill: #595959; opacity: 0" transform="translate(548.625217 413.660643)">Did not occur</text>
    <text style="font-weight: 300; font-size: 16px; font-family: 'Source Sans 3', sans-serif; fill: #595959; opacity: 0" transform="translate(543.375217 431.307143)">(false positive)</text>
    <text style="font-weight: 300; font-size: 16px; font-family: 'Source Sans 3', sans-serif; fill: #595959; opacity: 0" transform="translate(603.440217 448.722643)">2.9%</text>
   </g>
   <g id="tf-label-ND-YD">
    <text style="font-weight: 300; font-size: 16px; font-family: 'Source Sans 3', sans-serif; fill: #595959; opacity: 0" transform="translate(561.362717 352.686432)">Streamflow</text>
    <text style="font-weight: 300; font-size: 16px; font-family: 'Source Sans 3', sans-serif; fill: #595959; opacity: 0" transform="translate(520.047717 370.101932)">drought did occur</text>
    <text style="font-weight: 300; font-size: 16px; font-family: 'Source Sans 3', sans-serif; fill: #595959; opacity: 0" transform="translate(538.962717 387.940932)">(false negative)</text>
    <text style="font-weight: 300; font-size: 16px; font-family: 'Source Sans 3', sans-serif; fill: #595959; opacity: 0" transform="translate(603.440217 405.548932)">3.3%</text>
   </g>
   <g id="tf-label-ND-ND">
    <text style="font-weight: 300; font-size: 16px; font-family: 'Source Sans 3', sans-serif; fill: #595959; opacity: 0" transform="translate(506.865217 156.112875)">Streamflow drought</text>
    <text style="font-weight: 300; font-size: 16px; font-family: 'Source Sans 3', sans-serif; fill: #595959; opacity: 0" transform="translate(549.585217 173.720875)">did not occur</text>
    <text style="font-weight: 300; font-size: 16px; font-family: 'Source Sans 3', sans-serif; fill: #595959; opacity: 0" transform="translate(542.737717 191.289375)">(true negative)</text>
    <text style="font-weight: 300; font-size: 16px; font-family: 'Source Sans 3', sans-serif; fill: #595959; opacity: 0" transform="translate(595.887717 208.897375)">85.7%</text>
   </g>
  </g>
 </g>
 <defs>
  <clipPath id="p030d018abd">
   <rect x="20.9952" y="-15.7464" width="678.8448" height="524.88"/>
  </clipPath>
 </defs>
</svg>
