<?xml version="1.0" encoding="utf-8" standalone="no"?>
<!DOCTYPE svg PUBLIC "-//W3C//DTD SVG 1.1//EN"
  "http://www.w3.org/Graphics/SVG/1.1/DTD/svg11.dtd">
<svg xmlns:xlink="http://www.w3.org/1999/xlink" width="399.6px" height="299.52px" viewBox="0 0 399.6 299.52" xmlns="http://www.w3.org/2000/svg" version="1.1">
  <defs>
  <style type="text/css">*{stroke-linejoin: round; stroke-linecap: butt}</style>
 </defs>
 <g id="figure-forecast_truefalse_summary">
  <g id="patch_1">
   <path d="M 0 299.52 
L 399.6 299.52 
L 399.6 0 
L 0 0 
z
" style="fill: #ffffff"/>
  </g>
  <g id="axis-forecast_truefalse_summary">
   <g id="patch_2">
    <path d="M 39.96 254.592 
L 379.62 254.592 
L 379.62 29.952 
L 39.96 29.952 
z
" style="fill: #ffffff"/>
   </g>
   <g id="matplotlib.axis_1">
    <g id="xtick_1">
     <g id="line2d_1">
      <defs>
       <path id="m9c6ac13e63" d="M 0 0 
L 0 3.5 
" style="stroke: #949494; stroke-width: 0.8"/>
      </defs>
      <g>
       <use xlink:href="#m9c6ac13e63" x="65.048523" y="254.592" style="fill: #949494; stroke: #949494; stroke-width: 0.8"/>
      </g>
     </g>
     <g id="text_1">
      <text style="font-weight: 300; font-size: 16px; font-family: 'Source Sans 3', sans-serif; text-anchor: middle; fill: #595959" x="65.048523" y="273.1445" transform="rotate(-0 65.048523 273.1445)">1</text>
     </g>
    </g>
    <g id="xtick_2">
     <g id="line2d_2">
      <g>
       <use xlink:href="#m9c6ac13e63" x="89.172102" y="254.592" style="fill: #949494; stroke: #949494; stroke-width: 0.8"/>
      </g>
     </g>
     <g id="text_2">
      <text style="font-weight: 300; font-size: 16px; font-family: 'Source Sans 3', sans-serif; text-anchor: middle; fill: #595959" x="89.172102" y="273.1445" transform="rotate(-0 89.172102 273.1445)">2</text>
     </g>
    </g>
    <g id="xtick_3">
     <g id="line2d_3">
      <g>
       <use xlink:href="#m9c6ac13e63" x="113.295682" y="254.592" style="fill: #949494; stroke: #949494; stroke-width: 0.8"/>
      </g>
     </g>
     <g id="text_3">
      <text style="font-weight: 300; font-size: 16px; font-family: 'Source Sans 3', sans-serif; text-anchor: middle; fill: #595959" x="113.295682" y="273.1445" transform="rotate(-0 113.295682 273.1445)">3</text>
     </g>
    </g>
    <g id="xtick_4">
     <g id="line2d_4">
      <g>
       <use xlink:href="#m9c6ac13e63" x="137.419261" y="254.592" style="fill: #949494; stroke: #949494; stroke-width: 0.8"/>
      </g>
     </g>
     <g id="text_4">
      <text style="font-weight: 300; font-size: 16px; font-family: 'Source Sans 3', sans-serif; text-anchor: middle; fill: #595959" x="137.419261" y="273.1445" transform="rotate(-0 137.419261 273.1445)">4</text>
     </g>
    </g>
    <g id="xtick_5">
     <g id="line2d_5">
      <g>
       <use xlink:href="#m9c6ac13e63" x="161.542841" y="254.592" style="fill: #949494; stroke: #949494; stroke-width: 0.8"/>
      </g>
     </g>
     <g id="text_5">
      <text style="font-weight: 300; font-size: 16px; font-family: 'Source Sans 3', sans-serif; text-anchor: middle; fill: #595959" x="161.542841" y="273.1445" transform="rotate(-0 161.542841 273.1445)">5</text>
     </g>
    </g>
    <g id="xtick_6">
     <g id="line2d_6">
      <g>
       <use xlink:href="#m9c6ac13e63" x="185.66642" y="254.592" style="fill: #949494; stroke: #949494; stroke-width: 0.8"/>
      </g>
     </g>
     <g id="text_6">
      <text style="font-weight: 300; font-size: 16px; font-family: 'Source Sans 3', sans-serif; text-anchor: middle; fill: #595959" x="185.66642" y="273.1445" transform="rotate(-0 185.66642 273.1445)">6</text>
     </g>
    </g>
    <g id="xtick_7">
     <g id="line2d_7">
      <g>
       <use xlink:href="#m9c6ac13e63" x="209.79" y="254.592" style="fill: #949494; stroke: #949494; stroke-width: 0.8"/>
      </g>
     </g>
     <g id="text_7">
      <text style="font-weight: 300; font-size: 16px; font-family: 'Source Sans 3', sans-serif; text-anchor: middle; fill: #595959" x="209.79" y="273.1445" transform="rotate(-0 209.79 273.1445)">7</text>
     </g>
    </g>
    <g id="xtick_8">
     <g id="line2d_8">
      <g>
       <use xlink:href="#m9c6ac13e63" x="233.91358" y="254.592" style="fill: #949494; stroke: #949494; stroke-width: 0.8"/>
      </g>
     </g>
     <g id="text_8">
      <text style="font-weight: 300; font-size: 16px; font-family: 'Source Sans 3', sans-serif; text-anchor: middle; fill: #595959" x="233.91358" y="273.1445" transform="rotate(-0 233.91358 273.1445)">8</text>
     </g>
    </g>
    <g id="xtick_9">
     <g id="line2d_9">
      <g>
       <use xlink:href="#m9c6ac13e63" x="258.037159" y="254.592" style="fill: #949494; stroke: #949494; stroke-width: 0.8"/>
      </g>
     </g>
     <g id="text_9">
      <text style="font-weight: 300; font-size: 16px; font-family: 'Source Sans 3', sans-serif; text-anchor: middle; fill: #595959" x="258.037159" y="273.1445" transform="rotate(-0 258.037159 273.1445)">9</text>
     </g>
    </g>
    <g id="xtick_10">
     <g id="line2d_10">
      <g>
       <use xlink:href="#m9c6ac13e63" x="282.160739" y="254.592" style="fill: #949494; stroke: #949494; stroke-width: 0.8"/>
      </g>
     </g>
     <g id="text_10">
      <text style="font-weight: 300; font-size: 16px; font-family: 'Source Sans 3', sans-serif; text-anchor: middle; fill: #595959" x="282.160739" y="273.1445" transform="rotate(-0 282.160739 273.1445)">10</text>
     </g>
    </g>
    <g id="xtick_11">
     <g id="line2d_11">
      <g>
       <use xlink:href="#m9c6ac13e63" x="306.284318" y="254.592" style="fill: #949494; stroke: #949494; stroke-width: 0.8"/>
      </g>
     </g>
     <g id="text_11">
      <text style="font-weight: 300; font-size: 16px; font-family: 'Source Sans 3', sans-serif; text-anchor: middle; fill: #595959" x="306.284318" y="273.1445" transform="rotate(-0 306.284318 273.1445)">11</text>
     </g>
    </g>
    <g id="xtick_12">
     <g id="line2d_12">
      <g>
       <use xlink:href="#m9c6ac13e63" x="330.407898" y="254.592" style="fill: #949494; stroke: #949494; stroke-width: 0.8"/>
      </g>
     </g>
     <g id="text_12">
      <text style="font-weight: 300; font-size: 16px; font-family: 'Source Sans 3', sans-serif; text-anchor: middle; fill: #595959" x="330.407898" y="273.1445" transform="rotate(-0 330.407898 273.1445)">12</text>
     </g>
    </g>
    <g id="xtick_13">
     <g id="line2d_13">
      <g>
       <use xlink:href="#m9c6ac13e63" x="354.531477" y="254.592" style="fill: #949494; stroke: #949494; stroke-width: 0.8"/>
      </g>
     </g>
     <g id="text_13">
      <text style="font-weight: 300; font-size: 16px; font-family: 'Source Sans 3', sans-serif; text-anchor: middle; fill: #595959" x="354.531477" y="273.1445" transform="rotate(-0 354.531477 273.1445)">13</text>
     </g>
    </g>
    <g id="text_14">
     <text style="font-weight: 600; font-size: 16px; font-family: 'Source Sans 3', sans-serif; text-anchor: middle; fill: #595959" x="209.79" y="292.2495" transform="rotate(-0 209.79 292.2495)">Forecast horizon in weeks</text>
    </g>
   </g>
   <g id="matplotlib.axis_2">
    <g id="ytick_1">
     <g id="line2d_14">
      <path d="M 39.96 254.592 
L 379.62 254.592 
" clip-path="url(#pc98157ac45)" style="fill: none; stroke: #d1d1d1; stroke-width: 0.8; stroke-linecap: square"/>
     </g>
     <g id="line2d_15">
      <defs>
       <path id="m82feb85cc0" d="M 0 0 
L -3.5 0 
" style="stroke: #949494; stroke-width: 0.8"/>
      </defs>
      <g>
       <use xlink:href="#m82feb85cc0" x="39.96" y="254.592" style="fill: #949494; stroke: #949494; stroke-width: 0.8"/>
      </g>
     </g>
     <g id="text_15">
      <text style="font-weight: 300; font-size: 16px; font-family: 'Source Sans 3', sans-serif; text-anchor: end; fill: #595959" x="32.96" y="260.36825" transform="rotate(-0 32.96 260.36825)">0%</text>
     </g>
    </g>
    <g id="ytick_2">
     <g id="line2d_16">
      <path d="M 39.96 209.664 
L 379.62 209.664 
" clip-path="url(#pc98157ac45)" style="fill: none; stroke: #d1d1d1; stroke-width: 0.8; stroke-linecap: square"/>
     </g>
     <g id="line2d_17">
      <g>
       <use xlink:href="#m82feb85cc0" x="39.96" y="209.664" style="fill: #949494; stroke: #949494; stroke-width: 0.8"/>
      </g>
     </g>
     <g id="text_16">
      <text style="font-weight: 300; font-size: 16px; font-family: 'Source Sans 3', sans-serif; text-anchor: end; fill: #595959" x="32.96" y="215.44025" transform="rotate(-0 32.96 215.44025)">20%</text>
     </g>
    </g>
    <g id="ytick_3">
     <g id="line2d_18">
      <path d="M 39.96 164.736 
L 379.62 164.736 
" clip-path="url(#pc98157ac45)" style="fill: none; stroke: #d1d1d1; stroke-width: 0.8; stroke-linecap: square"/>
     </g>
     <g id="line2d_19">
      <g>
       <use xlink:href="#m82feb85cc0" x="39.96" y="164.736" style="fill: #949494; stroke: #949494; stroke-width: 0.8"/>
      </g>
     </g>
     <g id="text_17">
      <text style="font-weight: 300; font-size: 16px; font-family: 'Source Sans 3', sans-serif; text-anchor: end; fill: #595959" x="32.96" y="170.51225" transform="rotate(-0 32.96 170.51225)">40%</text>
     </g>
    </g>
    <g id="ytick_4">
     <g id="line2d_20">
      <path d="M 39.96 119.808 
L 379.62 119.808 
" clip-path="url(#pc98157ac45)" style="fill: none; stroke: #d1d1d1; stroke-width: 0.8; stroke-linecap: square"/>
     </g>
     <g id="line2d_21">
      <g>
       <use xlink:href="#m82feb85cc0" x="39.96" y="119.808" style="fill: #949494; stroke: #949494; stroke-width: 0.8"/>
      </g>
     </g>
     <g id="text_18">
      <text style="font-weight: 300; font-size: 16px; font-family: 'Source Sans 3', sans-serif; text-anchor: end; fill: #595959" x="32.96" y="125.58425" transform="rotate(-0 32.96 125.58425)">60%</text>
     </g>
    </g>
    <g id="ytick_5">
     <g id="line2d_22">
      <path d="M 39.96 74.88 
L 379.62 74.88 
" clip-path="url(#pc98157ac45)" style="fill: none; stroke: #d1d1d1; stroke-width: 0.8; stroke-linecap: square"/>
     </g>
     <g id="line2d_23">
      <g>
       <use xlink:href="#m82feb85cc0" x="39.96" y="74.88" style="fill: #949494; stroke: #949494; stroke-width: 0.8"/>
      </g>
     </g>
     <g id="text_19">
      <text style="font-weight: 300; font-size: 16px; font-family: 'Source Sans 3', sans-serif; text-anchor: end; fill: #595959" x="32.96" y="80.65625" transform="rotate(-0 32.96 80.65625)">80%</text>
     </g>
    </g>
    <g id="ytick_6">
     <g id="line2d_24">
      <path d="M 39.96 29.952 
L 379.62 29.952 
" clip-path="url(#pc98157ac45)" style="fill: none; stroke: #d1d1d1; stroke-width: 0.8; stroke-linecap: square"/>
     </g>
     <g id="line2d_25">
      <g>
       <use xlink:href="#m82feb85cc0" x="39.96" y="29.952" style="fill: #949494; stroke: #949494; stroke-width: 0.8"/>
      </g>
     </g>
     <g id="text_20">
      <text style="font-weight: 300; font-size: 16px; font-family: 'Source Sans 3', sans-serif; text-anchor: end; fill: #595959" x="32.96" y="35.72825" transform="rotate(-0 32.96 35.72825)">100%</text>
     </g>
    </g>
   </g>
   <g id="FillBetweenPolyCollection_1">
    <path d="M 55.399091 254.592 
L 55.399091 217.868721 
L 74.697955 217.868721 
L 74.697955 254.592 
L 74.697955 254.592 
L 55.399091 254.592 
z
" clip-path="url(#pc98157ac45)" style="fill: #b78935"/>
   </g>
   <g id="FillBetweenPolyCollection_2">
    <path d="M 55.399091 217.868721 
L 55.399091 208.215341 
L 74.697955 208.215341 
L 74.697955 217.868721 
L 74.697955 217.868721 
L 55.399091 217.868721 
z
" clip-path="url(#pc98157ac45)" style="fill: #dbc49a"/>
   </g>
   <g id="FillBetweenPolyCollection_3">
    <path d="M 55.399091 208.215341 
L 55.399091 196.594225 
L 74.697955 196.594225 
L 74.697955 208.215341 
L 74.697955 208.215341 
L 55.399091 208.215341 
z
" clip-path="url(#pc98157ac45)" style="fill: #9fb4c8"/>
   </g>
   <g id="FillBetweenPolyCollection_4">
    <path d="M 55.399091 196.594225 
L 55.399091 29.952 
L 74.697955 29.952 
L 74.697955 196.594225 
L 74.697955 196.594225 
L 55.399091 196.594225 
z
" clip-path="url(#pc98157ac45)" style="fill: #406992"/>
   </g>
   <g id="FillBetweenPolyCollection_5">
    <path d="M 79.52267 254.592 
L 79.52267 228.618452 
L 98.821534 228.618452 
L 98.821534 254.592 
L 98.821534 254.592 
L 79.52267 254.592 
z
" clip-path="url(#pc98157ac45)" style="fill: #b78935"/>
   </g>
   <g id="FillBetweenPolyCollection_6">
    <path d="M 79.52267 228.618452 
L 79.52267 218.976888 
L 98.821534 218.976888 
L 98.821534 228.618452 
L 98.821534 228.618452 
L 79.52267 228.618452 
z
" clip-path="url(#pc98157ac45)" style="fill: #dbc49a"/>
   </g>
   <g id="FillBetweenPolyCollection_7">
    <path d="M 79.52267 218.976888 
L 79.52267 196.33524 
L 98.821534 196.33524 
L 98.821534 218.976888 
L 98.821534 218.976888 
L 79.52267 218.976888 
z
" clip-path="url(#pc98157ac45)" style="fill: #9fb4c8"/>
   </g>
   <g id="FillBetweenPolyCollection_8">
    <path d="M 79.52267 196.33524 
L 79.52267 29.952 
L 98.821534 29.952 
L 98.821534 196.33524 
L 98.821534 196.33524 
L 79.52267 196.33524 
z
" clip-path="url(#pc98157ac45)" style="fill: #406992"/>
   </g>
   <g id="FillBetweenPolyCollection_9">
    <path d="M 103.64625 254.592 
L 103.64625 231.596362 
L 122.945114 231.596362 
L 122.945114 254.592 
L 122.945114 254.592 
L 103.64625 254.592 
z
" clip-path="url(#pc98157ac45)" style="fill: #b78935"/>
   </g>
   <g id="FillBetweenPolyCollection_10">
    <path d="M 103.64625 231.596362 
L 103.64625 221.191301 
L 122.945114 221.191301 
L 122.945114 231.596362 
L 122.945114 231.596362 
L 103.64625 231.596362 
z
" clip-path="url(#pc98157ac45)" style="fill: #dbc49a"/>
   </g>
   <g id="FillBetweenPolyCollection_11">
    <path d="M 103.64625 221.191301 
L 103.64625 195.38405 
L 122.945114 195.38405 
L 122.945114 221.191301 
L 122.945114 221.191301 
L 103.64625 221.191301 
z
" clip-path="url(#pc98157ac45)" style="fill: #9fb4c8"/>
   </g>
   <g id="FillBetweenPolyCollection_12">
    <path d="M 103.64625 195.38405 
L 103.64625 29.952 
L 122.945114 29.952 
L 122.945114 195.38405 
L 122.945114 195.38405 
L 103.64625 195.38405 
z
" clip-path="url(#pc98157ac45)" style="fill: #406992"/>
   </g>
   <g id="FillBetweenPolyCollection_13">
    <path d="M 127.76983 254.592 
L 127.76983 234.607573 
L 147.068693 234.607573 
L 147.068693 254.592 
L 147.068693 254.592 
L 127.76983 254.592 
z
" clip-path="url(#pc98157ac45)" style="fill: #b78935"/>
   </g>
   <g id="FillBetweenPolyCollection_14">
    <path d="M 127.76983 234.607573 
L 127.76983 223.430478 
L 147.068693 223.430478 
L 147.068693 234.607573 
L 147.068693 234.607573 
L 127.76983 234.607573 
z
" clip-path="url(#pc98157ac45)" style="fill: #dbc49a"/>
   </g>
   <g id="FillBetweenPolyCollection_15">
    <path d="M 127.76983 223.430478 
L 127.76983 194.422222 
L 147.068693 194.422222 
L 147.068693 223.430478 
L 147.068693 223.430478 
L 127.76983 223.430478 
z
" clip-path="url(#pc98157ac45)" style="fill: #9fb4c8"/>
   </g>
   <g id="FillBetweenPolyCollection_16">
    <path d="M 127.76983 194.422222 
L 127.76983 29.952 
L 147.068693 29.952 
L 147.068693 194.422222 
L 147.068693 194.422222 
L 127.76983 194.422222 
z
" clip-path="url(#pc98157ac45)" style="fill: #406992"/>
   </g>
   <g id="FillBetweenPolyCollection_17">
    <path d="M 151.893409 254.592 
L 151.893409 235.039032 
L 171.192273 235.039032 
L 171.192273 254.592 
L 171.192273 254.592 
L 151.893409 254.592 
z
" clip-path="url(#pc98157ac45)" style="fill: #b78935"/>
   </g>
   <g id="FillBetweenPolyCollection_18">
    <path d="M 151.893409 235.039032 
L 151.893409 222.527835 
L 171.192273 222.527835 
L 171.192273 235.039032 
L 171.192273 235.039032 
L 151.893409 235.039032 
z
" clip-path="url(#pc98157ac45)" style="fill: #dbc49a"/>
   </g>
   <g id="FillBetweenPolyCollection_19">
    <path d="M 151.893409 222.527835 
L 151.893409 192.983757 
L 171.192273 192.983757 
L 171.192273 222.527835 
L 171.192273 222.527835 
L 151.893409 222.527835 
z
" clip-path="url(#pc98157ac45)" style="fill: #9fb4c8"/>
   </g>
   <g id="FillBetweenPolyCollection_20">
    <path d="M 151.893409 192.983757 
L 151.893409 29.952 
L 171.192273 29.952 
L 171.192273 192.983757 
L 171.192273 192.983757 
L 151.893409 192.983757 
z
" clip-path="url(#pc98157ac45)" style="fill: #406992"/>
   </g>
   <g id="FillBetweenPolyCollection_21">
    <path d="M 176.016989 254.592 
L 176.016989 235.475368 
L 195.315852 235.475368 
L 195.315852 254.592 
L 195.315852 254.592 
L 176.016989 254.592 
z
" clip-path="url(#pc98157ac45)" style="fill: #b78935"/>
   </g>
   <g id="FillBetweenPolyCollection_22">
    <path d="M 176.016989 235.475368 
L 176.016989 221.614987 
L 195.315852 221.614987 
L 195.315852 235.475368 
L 195.315852 235.475368 
L 176.016989 235.475368 
z
" clip-path="url(#pc98157ac45)" style="fill: #dbc49a"/>
   </g>
   <g id="FillBetweenPolyCollection_23">
    <path d="M 176.016989 221.614987 
L 176.016989 191.529029 
L 195.315852 191.529029 
L 195.315852 221.614987 
L 195.315852 221.614987 
L 176.016989 221.614987 
z
" clip-path="url(#pc98157ac45)" style="fill: #9fb4c8"/>
   </g>
   <g id="FillBetweenPolyCollection_24">
    <path d="M 176.016989 191.529029 
L 176.016989 29.952 
L 195.315852 29.952 
L 195.315852 191.529029 
L 195.315852 191.529029 
L 176.016989 191.529029 
z
" clip-path="url(#pc98157ac45)" style="fill: #406992"/>
   </g>
   <g id="FillBetweenPolyCollection_25">
    <path d="M 200.140568 254.592 
L 200.140568 235.916666 
L 219.439432 235.916666 
L 219.439432 254.592 
L 219.439432 254.592 
L 200.140568 254.592 
z
" clip-path="url(#pc98157ac45)" style="fill: #b78935"/>
   </g>
   <g id="FillBetweenPolyCollection_26">
    <path d="M 200.140568 235.916666 
L 200.140568 220.691759 
L 219.439432 220.691759 
L 219.439432 235.916666 
L 219.439432 235.916666 
L 200.140568 235.916666 
z
" clip-path="url(#pc98157ac45)" style="fill: #dbc49a"/>
   </g>
   <g id="FillBetweenPolyCollection_27">
    <path d="M 200.140568 220.691759 
L 200.140568 190.057761 
L 219.439432 190.057761 
L 219.439432 220.691759 
L 219.439432 220.691759 
L 200.140568 220.691759 
z
" clip-path="url(#pc98157ac45)" style="fill: #9fb4c8"/>
   </g>
   <g id="FillBetweenPolyCollection_28">
    <path d="M 200.140568 190.057761 
L 200.140568 29.952 
L 219.439432 29.952 
L 219.439432 190.057761 
L 219.439432 190.057761 
L 200.140568 190.057761 
z
" clip-path="url(#pc98157ac45)" style="fill: #406992"/>
   </g>
   <g id="FillBetweenPolyCollection_29">
    <path d="M 224.264148 254.592 
L 224.264148 236.36301 
L 243.563011 236.36301 
L 243.563011 254.592 
L 243.563011 254.592 
L 224.264148 254.592 
z
" clip-path="url(#pc98157ac45)" style="fill: #b78935"/>
   </g>
   <g id="FillBetweenPolyCollection_30">
    <path d="M 224.264148 236.36301 
L 224.264148 219.757975 
L 243.563011 219.757975 
L 243.563011 236.36301 
L 243.563011 236.36301 
L 224.264148 236.36301 
z
" clip-path="url(#pc98157ac45)" style="fill: #dbc49a"/>
   </g>
   <g id="FillBetweenPolyCollection_31">
    <path d="M 224.264148 219.757975 
L 224.264148 188.569668 
L 243.563011 188.569668 
L 243.563011 219.757975 
L 243.563011 219.757975 
L 224.264148 219.757975 
z
" clip-path="url(#pc98157ac45)" style="fill: #9fb4c8"/>
   </g>
   <g id="FillBetweenPolyCollection_32">
    <path d="M 224.264148 188.569668 
L 224.264148 29.952 
L 243.563011 29.952 
L 243.563011 188.569668 
L 243.563011 188.569668 
L 224.264148 188.569668 
z
" clip-path="url(#pc98157ac45)" style="fill: #406992"/>
   </g>
   <g id="FillBetweenPolyCollection_33">
    <path d="M 248.387727 254.592 
L 248.387727 237.616377 
L 267.686591 237.616377 
L 267.686591 254.592 
L 267.686591 254.592 
L 248.387727 254.592 
z
" clip-path="url(#pc98157ac45)" style="fill: #b78935"/>
   </g>
   <g id="FillBetweenPolyCollection_34">
    <path d="M 248.387727 237.616377 
L 248.387727 221.827477 
L 267.686591 221.827477 
L 267.686591 237.616377 
L 267.686591 237.616377 
L 248.387727 237.616377 
z
" clip-path="url(#pc98157ac45)" style="fill: #dbc49a"/>
   </g>
   <g id="FillBetweenPolyCollection_35">
    <path d="M 248.387727 221.827477 
L 248.387727 189.244582 
L 267.686591 189.244582 
L 267.686591 221.827477 
L 267.686591 221.827477 
L 248.387727 221.827477 
z
" clip-path="url(#pc98157ac45)" style="fill: #9fb4c8"/>
   </g>
   <g id="FillBetweenPolyCollection_36">
    <path d="M 248.387727 189.244582 
L 248.387727 29.952 
L 267.686591 29.952 
L 267.686591 189.244582 
L 267.686591 189.244582 
L 248.387727 189.244582 
z
" clip-path="url(#pc98157ac45)" style="fill: #406992"/>
   </g>
   <g id="FillBetweenPolyCollection_37">
    <path d="M 272.511307 254.592 
L 272.511307 238.884237 
L 291.81017 238.884237 
L 291.81017 254.592 
L 291.81017 254.592 
L 272.511307 254.592 
z
" clip-path="url(#pc98157ac45)" style="fill: #b78935"/>
   </g>
   <g id="FillBetweenPolyCollection_38">
    <path d="M 272.511307 238.884237 
L 272.511307 223.92091 
L 291.81017 223.92091 
L 291.81017 238.884237 
L 291.81017 238.884237 
L 272.511307 238.884237 
z
" clip-path="url(#pc98157ac45)" style="fill: #dbc49a"/>
   </g>
   <g id="FillBetweenPolyCollection_39">
    <path d="M 272.511307 223.92091 
L 272.511307 189.927301 
L 291.81017 189.927301 
L 291.81017 223.92091 
L 291.81017 223.92091 
L 272.511307 223.92091 
z
" clip-path="url(#pc98157ac45)" style="fill: #9fb4c8"/>
   </g>
   <g id="FillBetweenPolyCollection_40">
    <path d="M 272.511307 189.927301 
L 272.511307 29.952 
L 291.81017 29.952 
L 291.81017 189.927301 
L 291.81017 189.927301 
L 272.511307 189.927301 
z
" clip-path="url(#pc98157ac45)" style="fill: #406992"/>
   </g>
   <g id="FillBetweenPolyCollection_41">
    <path d="M 296.634886 254.592 
L 296.634886 240.166844 
L 315.93375 240.166844 
L 315.93375 254.592 
L 315.93375 254.592 
L 296.634886 254.592 
z
" clip-path="url(#pc98157ac45)" style="fill: #b78935"/>
   </g>
   <g id="FillBetweenPolyCollection_42">
    <path d="M 296.634886 240.166844 
L 296.634886 226.038693 
L 315.93375 226.038693 
L 315.93375 240.166844 
L 315.93375 240.166844 
L 296.634886 240.166844 
z
" clip-path="url(#pc98157ac45)" style="fill: #dbc49a"/>
   </g>
   <g id="FillBetweenPolyCollection_43">
    <path d="M 296.634886 226.038693 
L 296.634886 190.617961 
L 315.93375 190.617961 
L 315.93375 226.038693 
L 315.93375 226.038693 
L 296.634886 226.038693 
z
" clip-path="url(#pc98157ac45)" style="fill: #9fb4c8"/>
   </g>
   <g id="FillBetweenPolyCollection_44">
    <path d="M 296.634886 190.617961 
L 296.634886 29.952 
L 315.93375 29.952 
L 315.93375 190.617961 
L 315.93375 190.617961 
L 296.634886 190.617961 
z
" clip-path="url(#pc98157ac45)" style="fill: #406992"/>
   </g>
   <g id="FillBetweenPolyCollection_45">
    <path d="M 320.758466 254.592 
L 320.758466 241.464456 
L 340.05733 241.464456 
L 340.05733 254.592 
L 340.05733 254.592 
L 320.758466 254.592 
z
" clip-path="url(#pc98157ac45)" style="fill: #b78935"/>
   </g>
   <g id="FillBetweenPolyCollection_46">
    <path d="M 320.758466 241.464456 
L 320.758466 228.181251 
L 340.05733 228.181251 
L 340.05733 241.464456 
L 340.05733 241.464456 
L 320.758466 241.464456 
z
" clip-path="url(#pc98157ac45)" style="fill: #dbc49a"/>
   </g>
   <g id="FillBetweenPolyCollection_47">
    <path d="M 320.758466 228.181251 
L 320.758466 191.316701 
L 340.05733 191.316701 
L 340.05733 228.181251 
L 340.05733 228.181251 
L 320.758466 228.181251 
z
" clip-path="url(#pc98157ac45)" style="fill: #9fb4c8"/>
   </g>
   <g id="FillBetweenPolyCollection_48">
    <path d="M 320.758466 191.316701 
L 320.758466 29.952 
L 340.05733 29.952 
L 340.05733 191.316701 
L 340.05733 191.316701 
L 320.758466 191.316701 
z
" clip-path="url(#pc98157ac45)" style="fill: #406992"/>
   </g>
   <g id="FillBetweenPolyCollection_49">
    <path d="M 344.882045 254.592 
L 344.882045 242.777338 
L 364.180909 242.777338 
L 364.180909 254.592 
L 364.180909 254.592 
L 344.882045 254.592 
z
" clip-path="url(#pc98157ac45)" style="fill: #b78935"/>
   </g>
   <g id="FillBetweenPolyCollection_50">
    <path d="M 344.882045 242.777338 
L 344.882045 230.349023 
L 364.180909 230.349023 
L 364.180909 242.777338 
L 364.180909 242.777338 
L 344.882045 242.777338 
z
" clip-path="url(#pc98157ac45)" style="fill: #dbc49a"/>
   </g>
   <g id="FillBetweenPolyCollection_51">
    <path d="M 344.882045 230.349023 
L 344.882045 192.023663 
L 364.180909 192.023663 
L 364.180909 230.349023 
L 364.180909 230.349023 
L 344.882045 230.349023 
z
" clip-path="url(#pc98157ac45)" style="fill: #9fb4c8"/>
   </g>
   <g id="FillBetweenPolyCollection_52">
    <path d="M 344.882045 192.023663 
L 344.882045 29.952 
L 364.180909 29.952 
L 364.180909 192.023663 
L 364.180909 192.023663 
L 344.882045 192.023663 
z
" clip-path="url(#pc98157ac45)" style="fill: #406992"/>
   </g>
   <g id="line2d_26">
    <path d="M 55.399091 208.215341 
L 74.697955 208.215341 
" clip-path="url(#pc98157ac45)" style="fill: none; stroke: #595959; stroke-width: 2; stroke-linecap: square"/>
   </g>
   <g id="line2d_27">
    <path d="M 79.52267 218.976888 
L 98.821534 218.976888 
" clip-path="url(#pc98157ac45)" style="fill: none; stroke: #595959; stroke-width: 2; stroke-linecap: square"/>
   </g>
   <g id="line2d_28">
    <path d="M 103.64625 221.191301 
L 122.945114 221.191301 
" clip-path="url(#pc98157ac45)" style="fill: none; stroke: #595959; stroke-width: 2; stroke-linecap: square"/>
   </g>
   <g id="line2d_29">
    <path d="M 127.76983 223.430478 
L 147.068693 223.430478 
" clip-path="url(#pc98157ac45)" style="fill: none; stroke: #595959; stroke-width: 2; stroke-linecap: square"/>
   </g>
   <g id="line2d_30">
    <path d="M 151.893409 222.527835 
L 171.192273 222.527835 
" clip-path="url(#pc98157ac45)" style="fill: none; stroke: #595959; stroke-width: 2; stroke-linecap: square"/>
   </g>
   <g id="line2d_31">
    <path d="M 176.016989 221.614987 
L 195.315852 221.614987 
" clip-path="url(#pc98157ac45)" style="fill: none; stroke: #595959; stroke-width: 2; stroke-linecap: square"/>
   </g>
   <g id="line2d_32">
    <path d="M 200.140568 220.691759 
L 219.439432 220.691759 
" clip-path="url(#pc98157ac45)" style="fill: none; stroke: #595959; stroke-width: 2; stroke-linecap: square"/>
   </g>
   <g id="line2d_33">
    <path d="M 224.264148 219.757975 
L 243.563011 219.757975 
" clip-path="url(#pc98157ac45)" style="fill: none; stroke: #595959; stroke-width: 2; stroke-linecap: square"/>
   </g>
   <g id="line2d_34">
    <path d="M 248.387727 221.827477 
L 267.686591 221.827477 
" clip-path="url(#pc98157ac45)" style="fill: none; stroke: #595959; stroke-width: 2; stroke-linecap: square"/>
   </g>
   <g id="line2d_35">
    <path d="M 272.511307 223.92091 
L 291.81017 223.92091 
" clip-path="url(#pc98157ac45)" style="fill: none; stroke: #595959; stroke-width: 2; stroke-linecap: square"/>
   </g>
   <g id="line2d_36">
    <path d="M 296.634886 226.038693 
L 315.93375 226.038693 
" clip-path="url(#pc98157ac45)" style="fill: none; stroke: #595959; stroke-width: 2; stroke-linecap: square"/>
   </g>
   <g id="line2d_37">
    <path d="M 320.758466 228.181251 
L 340.05733 228.181251 
" clip-path="url(#pc98157ac45)" style="fill: none; stroke: #595959; stroke-width: 2; stroke-linecap: square"/>
   </g>
   <g id="line2d_38">
    <path d="M 344.882045 230.349023 
L 364.180909 230.349023 
" clip-path="url(#pc98157ac45)" style="fill: none; stroke: #595959; stroke-width: 2; stroke-linecap: square"/>
   </g>
   <g id="patch_3">
    <path d="M 39.96 254.592 
L 39.96 29.952 
" style="fill: none; stroke: #949494; stroke-width: 0.8; stroke-linejoin: miter; stroke-linecap: square"/>
   </g>
   <g id="patch_4">
    <path d="M 39.96 254.592 
L 379.62 254.592 
" style="fill: none; stroke: #949494; stroke-width: 0.8; stroke-linejoin: miter; stroke-linecap: square"/>
   </g>
   <g id="text_21">
    <text style="font-weight: 800; font-size: 20px; font-family: 'Source Sans 3', sans-serif; text-anchor: start" x="39.96" y="23.952" transform="rotate(-0 39.96 23.952)">Model outcomes</text>
   </g>
  </g>
 </g>
 <defs>
  <clipPath id="pc98157ac45">
   <rect x="39.96" y="29.952" width="339.66" height="224.64"/>
  </clipPath>
 </defs>
</svg>
