<?xml version="1.0" encoding="utf-8" standalone="no"?>
<!DOCTYPE svg PUBLIC "-//W3C//DTD SVG 1.1//EN"
  "http://www.w3.org/Graphics/SVG/1.1/DTD/svg11.dtd">
<svg xmlns:xlink="http://www.w3.org/1999/xlink" width="399.6px" height="299.52px" viewBox="0 0 399.6 299.52" xmlns="http://www.w3.org/2000/svg" version="1.1">
  <defs>
  <style type="text/css">*{stroke-linejoin: round; stroke-linecap: butt}</style>
 </defs>
 <g id="figure-forecast_truefalse">
  <g id="patch_1">
   <path d="M 0 299.52 
L 399.6 299.52 
L 399.6 0 
L 0 0 
z
" style="fill: #ffffff"/>
  </g>
  <g id="axis-forecast_truefalse">
   <g id="FillBetweenPolyCollection_1">
    <defs>
     <path id="m1467f4a5cd" d="M 67.728814 -36.305455 
L 67.728814 -263.214545 
L 82.779661 -263.214545 
L 82.779661 -36.305455 
L 82.779661 -36.305455 
L 67.728814 -36.305455 
z
"/>
    </defs>
    <g clip-path="url(#p7c15f30225)">
     <use xlink:href="#m1467f4a5cd" x="0" y="299.52" style="fill: #00264c"/>
    </g>
   </g>
   <g id="FillBetweenPolyCollection_2">
    <defs>
     <path id="m26a5b37eae" d="M 82.779661 -263.215245 
L 82.779661 -71.492038 
L 84.14792 -71.492178 
L 85.516179 -71.492345 
L 86.884438 -71.492546 
L 88.252696 -71.492787 
L 89.620955 -71.493076 
L 90.989214 -71.493422 
L 92.357473 -71.493837 
L 93.725732 -71.494335 
L 95.093991 -71.494932 
L 96.46225 -71.495648 
L 97.830508 -71.496507 
L 99.198767 -71.497536 
L 100.567026 -71.49877 
L 101.935285 -71.50025 
L 103.303544 -71.502023 
L 104.671803 -71.504149 
L 106.040062 -71.506696 
L 107.40832 -71.509749 
L 108.776579 -71.513405 
L 110.144838 -71.517785 
L 111.513097 -71.523029 
L 112.881356 -71.529305 
L 114.249615 -71.536815 
L 115.617874 -71.545796 
L 116.986133 -71.556529 
L 118.354391 -71.56935 
L 119.72265 -71.584649 
L 121.090909 -71.602889 
L 122.459168 -71.624609 
L 123.827427 -71.650437 
L 125.195686 -71.681099 
L 126.563945 -71.717429 
L 127.932203 -71.760372 
L 129.300462 -71.810994 
L 130.668721 -71.870472 
L 132.03698 -71.94009 
L 133.405239 -72.021211 
L 134.773498 -72.115245 
L 136.141757 -72.223591 
L 137.510015 -72.347562 
L 138.878274 -72.488285 
L 140.246533 -72.646589 
L 141.614792 -72.822872 
L 142.983051 -73.01697 
L 144.35131 -73.228042 
L 145.719569 -73.454494 
L 147.087827 -73.693948 
L 148.456086 -73.943305 
L 149.824345 -74.198865 
L 151.192604 -74.456539 
L 152.560863 -74.712099 
L 153.929122 -74.961456 
L 155.297381 -75.200911 
L 156.665639 -75.427362 
L 158.033898 -75.638434 
L 159.402157 -75.832532 
L 160.770416 -76.008815 
L 162.138675 -76.167119 
L 163.506934 -76.307843 
L 164.875193 -76.431813 
L 166.243451 -76.540159 
L 167.61171 -76.634193 
L 168.979969 -76.715315 
L 170.348228 -76.784932 
L 171.716487 -76.84441 
L 173.084746 -76.895032 
L 174.453005 -76.937975 
L 175.821263 -76.974305 
L 177.189522 -77.004967 
L 178.557781 -77.030795 
L 179.92604 -77.052516 
L 181.294299 -77.070755 
L 182.662558 -77.086055 
L 184.030817 -77.098875 
L 185.399076 -77.109609 
L 186.767334 -77.118589 
L 188.135593 -77.126099 
L 189.503852 -77.132376 
L 190.872111 -77.137619 
L 192.24037 -77.141999 
L 193.608629 -77.145656 
L 194.976888 -77.148708 
L 196.345146 -77.151255 
L 197.713405 -77.153381 
L 199.081664 -77.155155 
L 200.449923 -77.156634 
L 201.818182 -77.157868 
L 203.186441 -77.158898 
L 204.5547 -77.159756 
L 205.922958 -77.160472 
L 207.291217 -77.161069 
L 208.659476 -77.161567 
L 210.027735 -77.161982 
L 211.395994 -77.162329 
L 212.764253 -77.162617 
L 214.132512 -77.162858 
L 215.50077 -77.163059 
L 216.869029 -77.163226 
L 218.237288 -77.163366 
L 218.237288 -268.886573 
L 218.237288 -268.886573 
L 216.869029 -268.886433 
L 215.50077 -268.886266 
L 214.132512 -268.886065 
L 212.764253 -268.885824 
L 211.395994 -268.885536 
L 210.027735 -268.885189 
L 208.659476 -268.884774 
L 207.291217 -268.884276 
L 205.922958 -268.883679 
L 204.5547 -268.882963 
L 203.186441 -268.882105 
L 201.818182 -268.881075 
L 200.449923 -268.879841 
L 199.081664 -268.878362 
L 197.713405 -268.876588 
L 196.345146 -268.874462 
L 194.976888 -268.871915 
L 193.608629 -268.868863 
L 192.24037 -268.865206 
L 190.872111 -268.860826 
L 189.503852 -268.855583 
L 188.135593 -268.849306 
L 186.767334 -268.841796 
L 185.399076 -268.832816 
L 184.030817 -268.822082 
L 182.662558 -268.809262 
L 181.294299 -268.793962 
L 179.92604 -268.775723 
L 178.557781 -268.754002 
L 177.189522 -268.728174 
L 175.821263 -268.697512 
L 174.453005 -268.661182 
L 173.084746 -268.618239 
L 171.716487 -268.567617 
L 170.348228 -268.508139 
L 168.979969 -268.438522 
L 167.61171 -268.3574 
L 166.243451 -268.263366 
L 164.875193 -268.15502 
L 163.506934 -268.03105 
L 162.138675 -267.890326 
L 160.770416 -267.732022 
L 159.402157 -267.555739 
L 158.033898 -267.361641 
L 156.665639 -267.150569 
L 155.297381 -266.924118 
L 153.929122 -266.684663 
L 152.560863 -266.435306 
L 151.192604 -266.179746 
L 149.824345 -265.922072 
L 148.456086 -265.666512 
L 147.087827 -265.417155 
L 145.719569 -265.177701 
L 144.35131 -264.951249 
L 142.983051 -264.740177 
L 141.614792 -264.546079 
L 140.246533 -264.369796 
L 138.878274 -264.211492 
L 137.510015 -264.070769 
L 136.141757 -263.946798 
L 134.773498 -263.838452 
L 133.405239 -263.744418 
L 132.03698 -263.663297 
L 130.668721 -263.593679 
L 129.300462 -263.534201 
L 127.932203 -263.483579 
L 126.563945 -263.440636 
L 125.195686 -263.404306 
L 123.827427 -263.373644 
L 122.459168 -263.347816 
L 121.090909 -263.326096 
L 119.72265 -263.307856 
L 118.354391 -263.292557 
L 116.986133 -263.279736 
L 115.617874 -263.269003 
L 114.249615 -263.260022 
L 112.881356 -263.252512 
L 111.513097 -263.246236 
L 110.144838 -263.240992 
L 108.776579 -263.236612 
L 107.40832 -263.232956 
L 106.040062 -263.229903 
L 104.671803 -263.227356 
L 103.303544 -263.22523 
L 101.935285 -263.223457 
L 100.567026 -263.221977 
L 99.198767 -263.220743 
L 97.830508 -263.219714 
L 96.46225 -263.218855 
L 95.093991 -263.218139 
L 93.725732 -263.217542 
L 92.357473 -263.217044 
L 90.989214 -263.216629 
L 89.620955 -263.216283 
L 88.252696 -263.215994 
L 86.884438 -263.215753 
L 85.516179 -263.215552 
L 84.14792 -263.215385 
L 82.779661 -263.215245 
z
"/>
    </defs>
    <g clip-path="url(#p7c15f30225)">
     <use xlink:href="#m26a5b37eae" x="0" y="299.52" style="fill: #406992; fill-opacity: 0.2"/>
    </g>
   </g>
   <g id="FillBetweenPolyCollection_3">
    <defs>
     <path id="m7797e15345" d="M 82.779661 -36.304755 
L 82.779661 -71.490638 
L 84.14792 -71.490499 
L 85.516179 -71.490332 
L 86.884438 -71.490131 
L 88.252696 -71.48989 
L 89.620955 -71.489601 
L 90.989214 -71.489255 
L 92.357473 -71.48884 
L 93.725732 -71.488342 
L 95.093991 -71.487745 
L 96.46225 -71.487029 
L 97.830508 -71.48617 
L 99.198767 -71.485141 
L 100.567026 -71.483907 
L 101.935285 -71.482427 
L 103.303544 -71.480654 
L 104.671803 -71.478528 
L 106.040062 -71.475981 
L 107.40832 -71.472928 
L 108.776579 -71.469272 
L 110.144838 -71.464892 
L 111.513097 -71.459648 
L 112.881356 -71.453372 
L 114.249615 -71.445862 
L 115.617874 -71.436881 
L 116.986133 -71.426147 
L 118.354391 -71.413327 
L 119.72265 -71.398028 
L 121.090909 -71.379788 
L 122.459168 -71.358068 
L 123.827427 -71.33224 
L 125.195686 -71.301577 
L 126.563945 -71.265248 
L 127.932203 -71.222304 
L 129.300462 -71.171683 
L 130.668721 -71.112205 
L 132.03698 -71.042587 
L 133.405239 -70.961466 
L 134.773498 -70.867432 
L 136.141757 -70.759086 
L 137.510015 -70.635115 
L 138.878274 -70.494392 
L 140.246533 -70.336088 
L 141.614792 -70.159805 
L 142.983051 -69.965707 
L 144.35131 -69.754634 
L 145.719569 -69.528183 
L 147.087827 -69.288729 
L 148.456086 -69.039372 
L 149.824345 -68.783812 
L 151.192604 -68.526138 
L 152.560863 -68.270578 
L 153.929122 -68.021221 
L 155.297381 -67.781766 
L 156.665639 -67.555315 
L 158.033898 -67.344243 
L 159.402157 -67.150145 
L 160.770416 -66.973862 
L 162.138675 -66.815558 
L 163.506934 -66.674834 
L 164.875193 -66.550864 
L 166.243451 -66.442518 
L 167.61171 -66.348484 
L 168.979969 -66.267362 
L 170.348228 -66.197745 
L 171.716487 -66.138267 
L 173.084746 -66.087645 
L 174.453005 -66.044702 
L 175.821263 -66.008372 
L 177.189522 -65.97771 
L 178.557781 -65.951881 
L 179.92604 -65.930161 
L 181.294299 -65.911921 
L 182.662558 -65.896622 
L 184.030817 -65.883802 
L 185.399076 -65.873068 
L 186.767334 -65.864088 
L 188.135593 -65.856578 
L 189.503852 -65.850301 
L 190.872111 -65.845057 
L 192.24037 -65.840678 
L 193.608629 -65.837021 
L 194.976888 -65.833969 
L 196.345146 -65.831422 
L 197.713405 -65.829296 
L 199.081664 -65.827522 
L 200.449923 -65.826043 
L 201.818182 -65.824809 
L 203.186441 -65.823779 
L 204.5547 -65.822921 
L 205.922958 -65.822205 
L 207.291217 -65.821608 
L 208.659476 -65.82111 
L 210.027735 -65.820695 
L 211.395994 -65.820348 
L 212.764253 -65.82006 
L 214.132512 -65.819819 
L 215.50077 -65.819618 
L 216.869029 -65.819451 
L 218.237288 -65.819311 
L 218.237288 -30.633427 
L 218.237288 -30.633427 
L 216.869029 -30.633567 
L 215.50077 -30.633734 
L 214.132512 -30.633935 
L 212.764253 -30.634176 
L 211.395994 -30.634464 
L 210.027735 -30.634811 
L 208.659476 -30.635226 
L 207.291217 -30.635724 
L 205.922958 -30.636321 
L 204.5547 -30.637037 
L 203.186441 -30.637895 
L 201.818182 -30.638925 
L 200.449923 -30.640159 
L 199.081664 -30.641638 
L 197.713405 -30.643412 
L 196.345146 -30.645538 
L 194.976888 -30.648085 
L 193.608629 -30.651137 
L 192.24037 -30.654794 
L 190.872111 -30.659174 
L 189.503852 -30.664417 
L 188.135593 -30.670694 
L 186.767334 -30.678204 
L 185.399076 -30.687184 
L 184.030817 -30.697918 
L 182.662558 -30.710738 
L 181.294299 -30.726038 
L 179.92604 -30.744277 
L 178.557781 -30.765998 
L 177.189522 -30.791826 
L 175.821263 -30.822488 
L 174.453005 -30.858818 
L 173.084746 -30.901761 
L 171.716487 -30.952383 
L 170.348228 -31.011861 
L 168.979969 -31.081478 
L 167.61171 -31.1626 
L 166.243451 -31.256634 
L 164.875193 -31.36498 
L 163.506934 -31.48895 
L 162.138675 -31.629674 
L 160.770416 -31.787978 
L 159.402157 -31.964261 
L 158.033898 -32.158359 
L 156.665639 -32.369431 
L 155.297381 -32.595882 
L 153.929122 -32.835337 
L 152.560863 -33.084694 
L 151.192604 -33.340254 
L 149.824345 -33.597928 
L 148.456086 -33.853488 
L 147.087827 -34.102845 
L 145.719569 -34.342299 
L 144.35131 -34.568751 
L 142.983051 -34.779823 
L 141.614792 -34.973921 
L 140.246533 -35.150204 
L 138.878274 -35.308508 
L 137.510015 -35.449231 
L 136.141757 -35.573202 
L 134.773498 -35.681548 
L 133.405239 -35.775582 
L 132.03698 -35.856703 
L 130.668721 -35.926321 
L 129.300462 -35.985799 
L 127.932203 -36.036421 
L 126.563945 -36.079364 
L 125.195686 -36.115694 
L 123.827427 -36.146356 
L 122.459168 -36.172184 
L 121.090909 -36.193904 
L 119.72265 -36.212144 
L 118.354391 -36.227443 
L 116.986133 -36.240264 
L 115.617874 -36.250997 
L 114.249615 -36.259978 
L 112.881356 -36.267488 
L 111.513097 -36.273764 
L 110.144838 -36.279008 
L 108.776579 -36.283388 
L 107.40832 -36.287044 
L 106.040062 -36.290097 
L 104.671803 -36.292644 
L 103.303544 -36.29477 
L 101.935285 -36.296543 
L 100.567026 -36.298023 
L 99.198767 -36.299257 
L 97.830508 -36.300286 
L 96.46225 -36.301145 
L 95.093991 -36.301861 
L 93.725732 -36.302458 
L 92.357473 -36.302956 
L 90.989214 -36.303371 
L 89.620955 -36.303717 
L 88.252696 -36.304006 
L 86.884438 -36.304247 
L 85.516179 -36.304448 
L 84.14792 -36.304615 
L 82.779661 -36.304755 
z
"/>
    </defs>
    <g clip-path="url(#p7c15f30225)">
     <use xlink:href="#m7797e15345" x="0" y="299.52" style="fill: #b78935; fill-opacity: 0.2"/>
    </g>
   </g>
   <g id="FillBetweenPolyCollection_4">
    <defs>
     <path id="mfe8176ca87" d="M 218.237288 -77.164066 
L 218.237288 -268.887273 
L 233.288136 -268.887273 
L 233.288136 -77.164066 
L 233.288136 -77.164066 
L 218.237288 -77.164066 
z
"/>
    </defs>
    <g clip-path="url(#p7c15f30225)">
     <use xlink:href="#mfe8176ca87" x="0" y="299.52" style="fill: #406992"/>
    </g>
   </g>
   <g id="FillBetweenPolyCollection_5">
    <defs>
     <path id="me4c41203d1" d="M 218.237288 -30.632727 
L 218.237288 -65.818611 
L 233.288136 -65.818611 
L 233.288136 -30.632727 
L 233.288136 -30.632727 
L 218.237288 -30.632727 
z
"/>
    </defs>
    <g clip-path="url(#p7c15f30225)">
     <use xlink:href="#me4c41203d1" x="0" y="299.52" style="fill: #b78935"/>
    </g>
   </g>
   <g id="FillBetweenPolyCollection_6">
    <defs>
     <path id="m0b96944f23" d="M 368.745763 -13.614545 
L 368.745763 -32.027666 
L 383.79661 -32.027666 
L 383.79661 -13.614545 
L 383.79661 -13.614545 
L 368.745763 -13.614545 
z
"/>
    </defs>
    <g clip-path="url(#p7c15f30225)">
     <use xlink:href="#m0b96944f23" x="0" y="299.52" style="fill: #b78935"/>
    </g>
   </g>
   <g id="FillBetweenPolyCollection_7">
    <defs>
     <path id="m63508c9086" d="M 368.745763 -43.373121 
L 368.745763 -60.145884 
L 383.79661 -60.145884 
L 383.79661 -43.373121 
L 383.79661 -43.373121 
L 368.745763 -43.373121 
z
"/>
    </defs>
    <g clip-path="url(#p7c15f30225)">
     <use xlink:href="#m63508c9086" x="0" y="299.52" style="fill: #949494"/>
    </g>
   </g>
   <g id="FillBetweenPolyCollection_8">
    <defs>
     <path id="m440a2a04f5" d="M 368.745763 -82.836793 
L 368.745763 -114.340133 
L 383.79661 -114.340133 
L 383.79661 -82.836793 
L 383.79661 -82.836793 
L 368.745763 -82.836793 
z
"/>
    </defs>
    <g clip-path="url(#p7c15f30225)">
     <use xlink:href="#m440a2a04f5" x="0" y="299.52" style="fill: #949494"/>
    </g>
   </g>
   <g id="FillBetweenPolyCollection_9">
    <defs>
     <path id="mbb9a7ce0b2" d="M 368.745763 -125.685588 
L 368.745763 -285.905455 
L 383.79661 -285.905455 
L 383.79661 -125.685588 
L 383.79661 -125.685588 
L 368.745763 -125.685588 
z
"/>
    </defs>
    <g clip-path="url(#p7c15f30225)">
     <use xlink:href="#mbb9a7ce0b2" x="0" y="299.52" style="fill: #406992"/>
    </g>
   </g>
   <g id="FillBetweenPolyCollection_10">
    <defs>
     <path id="mf81ef30d5a" d="M 233.288136 -49.045148 
L 233.288136 -65.817911 
L 234.656394 -65.817772 
L 236.024653 -65.817604 
L 237.392912 -65.817404 
L 238.761171 -65.817163 
L 240.12943 -65.816874 
L 241.497689 -65.816528 
L 242.865948 -65.816113 
L 244.234206 -65.815615 
L 245.602465 -65.815018 
L 246.970724 -65.814302 
L 248.338983 -65.813443 
L 249.707242 -65.812414 
L 251.075501 -65.81118 
L 252.44376 -65.8097 
L 253.812018 -65.807926 
L 255.180277 -65.805801 
L 256.548536 -65.803253 
L 257.916795 -65.800201 
L 259.285054 -65.796544 
L 260.653313 -65.792165 
L 262.021572 -65.786921 
L 263.389831 -65.780644 
L 264.758089 -65.773135 
L 266.126348 -65.764154 
L 267.494607 -65.75342 
L 268.862866 -65.7406 
L 270.231125 -65.725301 
L 271.599384 -65.707061 
L 272.967643 -65.685341 
L 274.335901 -65.659513 
L 275.70416 -65.62885 
L 277.072419 -65.592521 
L 278.440678 -65.549577 
L 279.808937 -65.498956 
L 281.177196 -65.439477 
L 282.545455 -65.36986 
L 283.913713 -65.288739 
L 285.281972 -65.194704 
L 286.650231 -65.086358 
L 288.01849 -64.962388 
L 289.386749 -64.821665 
L 290.755008 -64.663361 
L 292.123267 -64.487078 
L 293.491525 -64.29298 
L 294.859784 -64.081907 
L 296.228043 -63.855456 
L 297.596302 -63.616001 
L 298.964561 -63.366645 
L 300.33282 -63.111084 
L 301.701079 -62.853411 
L 303.069337 -62.59785 
L 304.437596 -62.348494 
L 305.805855 -62.109039 
L 307.174114 -61.882588 
L 308.542373 -61.671515 
L 309.910632 -61.477417 
L 311.278891 -61.301134 
L 312.647149 -61.14283 
L 314.015408 -61.002107 
L 315.383667 -60.878137 
L 316.751926 -60.769791 
L 318.120185 -60.675756 
L 319.488444 -60.594635 
L 320.856703 -60.525018 
L 322.224961 -60.465539 
L 323.59322 -60.414918 
L 324.961479 -60.371974 
L 326.329738 -60.335645 
L 327.697997 -60.304982 
L 329.066256 -60.279154 
L 330.434515 -60.257434 
L 331.802773 -60.239194 
L 333.171032 -60.223895 
L 334.539291 -60.211075 
L 335.90755 -60.200341 
L 337.275809 -60.19136 
L 338.644068 -60.183851 
L 340.012327 -60.177574 
L 341.380586 -60.17233 
L 342.748844 -60.167951 
L 344.117103 -60.164294 
L 345.485362 -60.161242 
L 346.853621 -60.158694 
L 348.22188 -60.156569 
L 349.590139 -60.154795 
L 350.958398 -60.153316 
L 352.326656 -60.152081 
L 353.694915 -60.151052 
L 355.063174 -60.150194 
L 356.431433 -60.149478 
L 357.799692 -60.14888 
L 359.167951 -60.148382 
L 360.53621 -60.147967 
L 361.904468 -60.147621 
L 363.272727 -60.147332 
L 364.640986 -60.147092 
L 366.009245 -60.146891 
L 367.377504 -60.146723 
L 368.745763 -60.146584 
L 368.745763 -43.373821 
L 368.745763 -43.373821 
L 367.377504 -43.373961 
L 366.009245 -43.374128 
L 364.640986 -43.374329 
L 363.272727 -43.374569 
L 361.904468 -43.374858 
L 360.53621 -43.375204 
L 359.167951 -43.37562 
L 357.799692 -43.376118 
L 356.431433 -43.376715 
L 355.063174 -43.377431 
L 353.694915 -43.378289 
L 352.326656 -43.379319 
L 350.958398 -43.380553 
L 349.590139 -43.382032 
L 348.22188 -43.383806 
L 346.853621 -43.385931 
L 345.485362 -43.388479 
L 344.117103 -43.391531 
L 342.748844 -43.395188 
L 341.380586 -43.399567 
L 340.012327 -43.404811 
L 338.644068 -43.411088 
L 337.275809 -43.418597 
L 335.90755 -43.427578 
L 334.539291 -43.438312 
L 333.171032 -43.451132 
L 331.802773 -43.466431 
L 330.434515 -43.484671 
L 329.066256 -43.506391 
L 327.697997 -43.53222 
L 326.329738 -43.562882 
L 324.961479 -43.599212 
L 323.59322 -43.642155 
L 322.224961 -43.692777 
L 320.856703 -43.752255 
L 319.488444 -43.821872 
L 318.120185 -43.902993 
L 316.751926 -43.997028 
L 315.383667 -44.105374 
L 314.015408 -44.229344 
L 312.647149 -44.370067 
L 311.278891 -44.528372 
L 309.910632 -44.704654 
L 308.542373 -44.898752 
L 307.174114 -45.109825 
L 305.805855 -45.336276 
L 304.437596 -45.575731 
L 303.069337 -45.825087 
L 301.701079 -46.080648 
L 300.33282 -46.338322 
L 298.964561 -46.593882 
L 297.596302 -46.843238 
L 296.228043 -47.082693 
L 294.859784 -47.309144 
L 293.491525 -47.520217 
L 292.123267 -47.714315 
L 290.755008 -47.890598 
L 289.386749 -48.048902 
L 288.01849 -48.189625 
L 286.650231 -48.313596 
L 285.281972 -48.421942 
L 283.913713 -48.515976 
L 282.545455 -48.597097 
L 281.177196 -48.666715 
L 279.808937 -48.726193 
L 278.440678 -48.776814 
L 277.072419 -48.819758 
L 275.70416 -48.856087 
L 274.335901 -48.88675 
L 272.967643 -48.912578 
L 271.599384 -48.934298 
L 270.231125 -48.952538 
L 268.862866 -48.967837 
L 267.494607 -48.980657 
L 266.126348 -48.991391 
L 264.758089 -49.000372 
L 263.389831 -49.007882 
L 262.021572 -49.014158 
L 260.653313 -49.019402 
L 259.285054 -49.023782 
L 257.916795 -49.027438 
L 256.548536 -49.030491 
L 255.180277 -49.033038 
L 253.812018 -49.035164 
L 252.44376 -49.036937 
L 251.075501 -49.038417 
L 249.707242 -49.039651 
L 248.338983 -49.04068 
L 246.970724 -49.041539 
L 245.602465 -49.042255 
L 244.234206 -49.042852 
L 242.865948 -49.04335 
L 241.497689 -49.043765 
L 240.12943 -49.044111 
L 238.761171 -49.0444 
L 237.392912 -49.044641 
L 236.024653 -49.044841 
L 234.656394 -49.045009 
L 233.288136 -49.045148 
z
"/>
    </defs>
    <g clip-path="url(#p7c15f30225)">
     <use xlink:href="#mf81ef30d5a" x="0" y="299.52" style="fill: #949494; fill-opacity: 0.2"/>
    </g>
   </g>
   <g id="FillBetweenPolyCollection_11">
    <defs>
     <path id="mcd41b82410" d="M 233.288136 -30.630627 
L 233.288136 -49.043748 
L 234.656394 -49.04333 
L 236.024653 -49.042828 
L 237.392912 -49.042225 
L 238.761171 -49.041503 
L 240.12943 -49.040637 
L 241.497689 -49.039598 
L 242.865948 -49.038353 
L 244.234206 -49.036859 
L 245.602465 -49.035067 
L 246.970724 -49.032919 
L 248.338983 -49.030344 
L 249.707242 -49.027256 
L 251.075501 -49.023553 
L 252.44376 -49.019115 
L 253.812018 -49.013794 
L 255.180277 -49.007417 
L 256.548536 -48.999775 
L 257.916795 -48.990618 
L 259.285054 -48.979648 
L 260.653313 -48.966509 
L 262.021572 -48.950778 
L 263.389831 -48.931948 
L 264.758089 -48.909419 
L 266.126348 -48.882477 
L 267.494607 -48.850275 
L 268.862866 -48.811815 
L 270.231125 -48.765917 
L 271.599384 -48.711198 
L 272.967643 -48.646038 
L 274.335901 -48.568553 
L 275.70416 -48.476565 
L 277.072419 -48.367577 
L 278.440678 -48.238746 
L 279.808937 -48.086882 
L 281.177196 -47.908447 
L 282.545455 -47.699595 
L 283.913713 -47.456231 
L 285.281972 -47.174128 
L 286.650231 -46.84909 
L 288.01849 -46.477179 
L 289.386749 -46.055009 
L 290.755008 -45.580097 
L 292.123267 -45.051248 
L 293.491525 -44.468954 
L 294.859784 -43.835736 
L 296.228043 -43.156383 
L 297.596302 -42.438019 
L 298.964561 -41.689949 
L 300.33282 -40.923268 
L 301.701079 -40.150247 
L 303.069337 -39.383566 
L 304.437596 -38.635496 
L 305.805855 -37.917132 
L 307.174114 -37.237779 
L 308.542373 -36.60456 
L 309.910632 -36.022267 
L 311.278891 -35.493418 
L 312.647149 -35.018505 
L 314.015408 -34.596336 
L 315.383667 -34.224425 
L 316.751926 -33.899387 
L 318.120185 -33.617284 
L 319.488444 -33.37392 
L 320.856703 -33.165068 
L 322.224961 -32.986633 
L 323.59322 -32.834769 
L 324.961479 -32.705938 
L 326.329738 -32.596949 
L 327.697997 -32.504962 
L 329.066256 -32.427477 
L 330.434515 -32.362317 
L 331.802773 -32.307597 
L 333.171032 -32.2617 
L 334.539291 -32.223239 
L 335.90755 -32.191038 
L 337.275809 -32.164096 
L 338.644068 -32.141567 
L 340.012327 -32.122737 
L 341.380586 -32.107005 
L 342.748844 -32.093867 
L 344.117103 -32.082897 
L 345.485362 -32.07374 
L 346.853621 -32.066098 
L 348.22188 -32.059721 
L 349.590139 -32.0544 
L 350.958398 -32.049961 
L 352.326656 -32.046259 
L 353.694915 -32.043171 
L 355.063174 -32.040595 
L 356.431433 -32.038447 
L 357.799692 -32.036656 
L 359.167951 -32.035162 
L 360.53621 -32.033916 
L 361.904468 -32.032878 
L 363.272727 -32.032012 
L 364.640986 -32.031289 
L 366.009245 -32.030687 
L 367.377504 -32.030185 
L 368.745763 -32.029766 
L 368.745763 -13.616645 
L 368.745763 -13.616645 
L 367.377504 -13.617064 
L 366.009245 -13.617566 
L 364.640986 -13.618168 
L 363.272727 -13.618891 
L 361.904468 -13.619757 
L 360.53621 -13.620795 
L 359.167951 -13.622041 
L 357.799692 -13.623535 
L 356.431433 -13.625326 
L 355.063174 -13.627474 
L 353.694915 -13.63005 
L 352.326656 -13.633138 
L 350.958398 -13.63684 
L 349.590139 -13.641279 
L 348.22188 -13.6466 
L 346.853621 -13.652977 
L 345.485362 -13.660619 
L 344.117103 -13.669776 
L 342.748844 -13.680746 
L 341.380586 -13.693884 
L 340.012327 -13.709616 
L 338.644068 -13.728446 
L 337.275809 -13.750975 
L 335.90755 -13.777917 
L 334.539291 -13.810118 
L 333.171032 -13.848579 
L 331.802773 -13.894476 
L 330.434515 -13.949196 
L 329.066256 -14.014356 
L 327.697997 -14.091841 
L 326.329738 -14.183828 
L 324.961479 -14.292817 
L 323.59322 -14.421648 
L 322.224961 -14.573512 
L 320.856703 -14.751947 
L 319.488444 -14.960799 
L 318.120185 -15.204163 
L 316.751926 -15.486266 
L 315.383667 -15.811304 
L 314.015408 -16.183215 
L 312.647149 -16.605384 
L 311.278891 -17.080297 
L 309.910632 -17.609146 
L 308.542373 -18.191439 
L 307.174114 -18.824657 
L 305.805855 -19.504011 
L 304.437596 -20.222375 
L 303.069337 -20.970445 
L 301.701079 -21.737126 
L 300.33282 -22.510147 
L 298.964561 -23.276828 
L 297.596302 -24.024898 
L 296.228043 -24.743262 
L 294.859784 -25.422615 
L 293.491525 -26.055833 
L 292.123267 -26.638127 
L 290.755008 -27.166976 
L 289.386749 -27.641888 
L 288.01849 -28.064058 
L 286.650231 -28.435969 
L 285.281972 -28.761007 
L 283.913713 -29.04311 
L 282.545455 -29.286474 
L 281.177196 -29.495326 
L 279.808937 -29.673761 
L 278.440678 -29.825625 
L 277.072419 -29.954456 
L 275.70416 -30.063444 
L 274.335901 -30.155432 
L 272.967643 -30.232917 
L 271.599384 -30.298077 
L 270.231125 -30.352796 
L 268.862866 -30.398694 
L 267.494607 -30.437154 
L 266.126348 -30.469356 
L 264.758089 -30.496298 
L 263.389831 -30.518827 
L 262.021572 -30.537657 
L 260.653313 -30.553388 
L 259.285054 -30.566527 
L 257.916795 -30.577497 
L 256.548536 -30.586654 
L 255.180277 -30.594296 
L 253.812018 -30.600673 
L 252.44376 -30.605994 
L 251.075501 -30.610432 
L 249.707242 -30.614135 
L 248.338983 -30.617223 
L 246.970724 -30.619798 
L 245.602465 -30.621946 
L 244.234206 -30.623738 
L 242.865948 -30.625232 
L 241.497689 -30.626477 
L 240.12943 -30.627516 
L 238.761171 -30.628382 
L 237.392912 -30.629104 
L 236.024653 -30.629707 
L 234.656394 -30.630209 
L 233.288136 -30.630627 
z
"/>
    </defs>
    <g clip-path="url(#p7c15f30225)">
     <use xlink:href="#mcd41b82410" x="0" y="299.52" style="fill: #b78935; fill-opacity: 0.2"/>
    </g>
   </g>
   <g id="FillBetweenPolyCollection_12">
    <defs>
     <path id="m97c1b454e1" d="M 233.288136 -108.668106 
L 233.288136 -77.164766 
L 234.656394 -77.164905 
L 236.024653 -77.165073 
L 237.392912 -77.165273 
L 238.761171 -77.165514 
L 240.12943 -77.165803 
L 241.497689 -77.166149 
L 242.865948 -77.166564 
L 244.234206 -77.167062 
L 245.602465 -77.167659 
L 246.970724 -77.168375 
L 248.338983 -77.169234 
L 249.707242 -77.170263 
L 251.075501 -77.171497 
L 252.44376 -77.172977 
L 253.812018 -77.17475 
L 255.180277 -77.176876 
L 256.548536 -77.179424 
L 257.916795 -77.182476 
L 259.285054 -77.186133 
L 260.653313 -77.190512 
L 262.021572 -77.195756 
L 263.389831 -77.202032 
L 264.758089 -77.209542 
L 266.126348 -77.218523 
L 267.494607 -77.229257 
L 268.862866 -77.242077 
L 270.231125 -77.257376 
L 271.599384 -77.275616 
L 272.967643 -77.297336 
L 274.335901 -77.323164 
L 275.70416 -77.353827 
L 277.072419 -77.390156 
L 278.440678 -77.4331 
L 279.808937 -77.483721 
L 281.177196 -77.543199 
L 282.545455 -77.612817 
L 283.913713 -77.693938 
L 285.281972 -77.787972 
L 286.650231 -77.896318 
L 288.01849 -78.020289 
L 289.386749 -78.161012 
L 290.755008 -78.319316 
L 292.123267 -78.495599 
L 293.491525 -78.689697 
L 294.859784 -78.90077 
L 296.228043 -79.127221 
L 297.596302 -79.366676 
L 298.964561 -79.616032 
L 300.33282 -79.871592 
L 301.701079 -80.129266 
L 303.069337 -80.384827 
L 304.437596 -80.634183 
L 305.805855 -80.873638 
L 307.174114 -81.100089 
L 308.542373 -81.311162 
L 309.910632 -81.50526 
L 311.278891 -81.681542 
L 312.647149 -81.839847 
L 314.015408 -81.98057 
L 315.383667 -82.10454 
L 316.751926 -82.212886 
L 318.120185 -82.306921 
L 319.488444 -82.388042 
L 320.856703 -82.457659 
L 322.224961 -82.517137 
L 323.59322 -82.567759 
L 324.961479 -82.610702 
L 326.329738 -82.647032 
L 327.697997 -82.677694 
L 329.066256 -82.703523 
L 330.434515 -82.725243 
L 331.802773 -82.743483 
L 333.171032 -82.758782 
L 334.539291 -82.771602 
L 335.90755 -82.782336 
L 337.275809 -82.791317 
L 338.644068 -82.798826 
L 340.012327 -82.805103 
L 341.380586 -82.810347 
L 342.748844 -82.814726 
L 344.117103 -82.818383 
L 345.485362 -82.821435 
L 346.853621 -82.823983 
L 348.22188 -82.826108 
L 349.590139 -82.827882 
L 350.958398 -82.829361 
L 352.326656 -82.830595 
L 353.694915 -82.831625 
L 355.063174 -82.832483 
L 356.431433 -82.833199 
L 357.799692 -82.833797 
L 359.167951 -82.834294 
L 360.53621 -82.83471 
L 361.904468 -82.835056 
L 363.272727 -82.835345 
L 364.640986 -82.835585 
L 366.009245 -82.835786 
L 367.377504 -82.835953 
L 368.745763 -82.836093 
L 368.745763 -114.339433 
L 368.745763 -114.339433 
L 367.377504 -114.339294 
L 366.009245 -114.339126 
L 364.640986 -114.338926 
L 363.272727 -114.338685 
L 361.904468 -114.338396 
L 360.53621 -114.33805 
L 359.167951 -114.337635 
L 357.799692 -114.337137 
L 356.431433 -114.33654 
L 355.063174 -114.335824 
L 353.694915 -114.334965 
L 352.326656 -114.333936 
L 350.958398 -114.332702 
L 349.590139 -114.331222 
L 348.22188 -114.329449 
L 346.853621 -114.327323 
L 345.485362 -114.324776 
L 344.117103 -114.321723 
L 342.748844 -114.318067 
L 341.380586 -114.313687 
L 340.012327 -114.308443 
L 338.644068 -114.302167 
L 337.275809 -114.294657 
L 335.90755 -114.285676 
L 334.539291 -114.274942 
L 333.171032 -114.262122 
L 331.802773 -114.246823 
L 330.434515 -114.228583 
L 329.066256 -114.206863 
L 327.697997 -114.181035 
L 326.329738 -114.150372 
L 324.961479 -114.114043 
L 323.59322 -114.071099 
L 322.224961 -114.020478 
L 320.856703 -113.961 
L 319.488444 -113.891382 
L 318.120185 -113.810261 
L 316.751926 -113.716227 
L 315.383667 -113.607881 
L 314.015408 -113.48391 
L 312.647149 -113.343187 
L 311.278891 -113.184883 
L 309.910632 -113.0086 
L 308.542373 -112.814502 
L 307.174114 -112.603429 
L 305.805855 -112.376978 
L 304.437596 -112.137523 
L 303.069337 -111.888167 
L 301.701079 -111.632607 
L 300.33282 -111.374933 
L 298.964561 -111.119372 
L 297.596302 -110.870016 
L 296.228043 -110.630561 
L 294.859784 -110.40411 
L 293.491525 -110.193037 
L 292.123267 -109.998939 
L 290.755008 -109.822657 
L 289.386749 -109.664352 
L 288.01849 -109.523629 
L 286.650231 -109.399659 
L 285.281972 -109.291313 
L 283.913713 -109.197278 
L 282.545455 -109.116157 
L 281.177196 -109.04654 
L 279.808937 -108.987062 
L 278.440678 -108.93644 
L 277.072419 -108.893497 
L 275.70416 -108.857167 
L 274.335901 -108.826505 
L 272.967643 -108.800676 
L 271.599384 -108.778956 
L 270.231125 -108.760716 
L 268.862866 -108.745417 
L 267.494607 -108.732597 
L 266.126348 -108.721863 
L 264.758089 -108.712882 
L 263.389831 -108.705373 
L 262.021572 -108.699096 
L 260.653313 -108.693852 
L 259.285054 -108.689473 
L 257.916795 -108.685816 
L 256.548536 -108.682764 
L 255.180277 -108.680216 
L 253.812018 -108.678091 
L 252.44376 -108.676317 
L 251.075501 -108.674838 
L 249.707242 -108.673604 
L 248.338983 -108.672574 
L 246.970724 -108.671716 
L 245.602465 -108.671 
L 244.234206 -108.670403 
L 242.865948 -108.669905 
L 241.497689 -108.669489 
L 240.12943 -108.669143 
L 238.761171 -108.668854 
L 237.392912 -108.668614 
L 236.024653 -108.668413 
L 234.656394 -108.668246 
L 233.288136 -108.668106 
z
"/>
    </defs>
    <g clip-path="url(#p7c15f30225)">
     <use xlink:href="#m97c1b454e1" x="0" y="299.52" style="fill: #949494; fill-opacity: 0.2"/>
    </g>
   </g>
   <g id="FillBetweenPolyCollection_13">
    <defs>
     <path id="m6405678cec" d="M 233.288136 -268.889373 
L 233.288136 -108.669506 
L 234.656394 -108.669925 
L 236.024653 -108.670427 
L 237.392912 -108.671029 
L 238.761171 -108.671751 
L 240.12943 -108.672617 
L 241.497689 -108.673656 
L 242.865948 -108.674902 
L 244.234206 -108.676396 
L 245.602465 -108.678187 
L 246.970724 -108.680335 
L 248.338983 -108.68291 
L 249.707242 -108.685999 
L 251.075501 -108.689701 
L 252.44376 -108.69414 
L 253.812018 -108.69946 
L 255.180277 -108.705837 
L 256.548536 -108.713479 
L 257.916795 -108.722636 
L 259.285054 -108.733606 
L 260.653313 -108.746745 
L 262.021572 -108.762476 
L 263.389831 -108.781306 
L 264.758089 -108.803835 
L 266.126348 -108.830778 
L 267.494607 -108.862979 
L 268.862866 -108.901439 
L 270.231125 -108.947337 
L 271.599384 -109.002056 
L 272.967643 -109.067217 
L 274.335901 -109.144702 
L 275.70416 -109.236689 
L 277.072419 -109.345678 
L 278.440678 -109.474508 
L 279.808937 -109.626373 
L 281.177196 -109.804807 
L 282.545455 -110.01366 
L 283.913713 -110.257023 
L 285.281972 -110.539126 
L 286.650231 -110.864164 
L 288.01849 -111.236075 
L 289.386749 -111.658245 
L 290.755008 -112.133158 
L 292.123267 -112.662006 
L 293.491525 -113.2443 
L 294.859784 -113.877518 
L 296.228043 -114.556871 
L 297.596302 -115.275236 
L 298.964561 -116.023305 
L 300.33282 -116.789986 
L 301.701079 -117.563008 
L 303.069337 -118.329688 
L 304.437596 -119.077758 
L 305.805855 -119.796123 
L 307.174114 -120.475476 
L 308.542373 -121.108694 
L 309.910632 -121.690988 
L 311.278891 -122.219836 
L 312.647149 -122.694749 
L 314.015408 -123.116919 
L 315.383667 -123.48883 
L 316.751926 -123.813868 
L 318.120185 -124.09597 
L 319.488444 -124.339334 
L 320.856703 -124.548187 
L 322.224961 -124.726621 
L 323.59322 -124.878486 
L 324.961479 -125.007316 
L 326.329738 -125.116305 
L 327.697997 -125.208292 
L 329.066256 -125.285777 
L 330.434515 -125.350937 
L 331.802773 -125.405657 
L 333.171032 -125.451555 
L 334.539291 -125.490015 
L 335.90755 -125.522216 
L 337.275809 -125.549159 
L 338.644068 -125.571688 
L 340.012327 -125.590517 
L 341.380586 -125.606249 
L 342.748844 -125.619388 
L 344.117103 -125.630357 
L 345.485362 -125.639514 
L 346.853621 -125.647157 
L 348.22188 -125.653534 
L 349.590139 -125.658854 
L 350.958398 -125.663293 
L 352.326656 -125.666995 
L 353.694915 -125.670083 
L 355.063174 -125.672659 
L 356.431433 -125.674807 
L 357.799692 -125.676598 
L 359.167951 -125.678092 
L 360.53621 -125.679338 
L 361.904468 -125.680377 
L 363.272727 -125.681243 
L 364.640986 -125.681965 
L 366.009245 -125.682567 
L 367.377504 -125.683069 
L 368.745763 -125.683488 
L 368.745763 -285.903355 
L 368.745763 -285.903355 
L 367.377504 -285.902936 
L 366.009245 -285.902434 
L 364.640986 -285.901832 
L 363.272727 -285.901109 
L 361.904468 -285.900243 
L 360.53621 -285.899205 
L 359.167951 -285.897959 
L 357.799692 -285.896465 
L 356.431433 -285.894674 
L 355.063174 -285.892526 
L 353.694915 -285.88995 
L 352.326656 -285.886862 
L 350.958398 -285.88316 
L 349.590139 -285.878721 
L 348.22188 -285.8734 
L 346.853621 -285.867023 
L 345.485362 -285.859381 
L 344.117103 -285.850224 
L 342.748844 -285.839254 
L 341.380586 -285.826116 
L 340.012327 -285.810384 
L 338.644068 -285.791554 
L 337.275809 -285.769025 
L 335.90755 -285.742083 
L 334.539291 -285.709882 
L 333.171032 -285.671421 
L 331.802773 -285.625524 
L 330.434515 -285.570804 
L 329.066256 -285.505644 
L 327.697997 -285.428159 
L 326.329738 -285.336172 
L 324.961479 -285.227183 
L 323.59322 -285.098352 
L 322.224961 -284.946488 
L 320.856703 -284.768053 
L 319.488444 -284.559201 
L 318.120185 -284.315837 
L 316.751926 -284.033734 
L 315.383667 -283.708696 
L 314.015408 -283.336785 
L 312.647149 -282.914616 
L 311.278891 -282.439703 
L 309.910632 -281.910854 
L 308.542373 -281.328561 
L 307.174114 -280.695343 
L 305.805855 -280.015989 
L 304.437596 -279.297625 
L 303.069337 -278.549555 
L 301.701079 -277.782874 
L 300.33282 -277.009853 
L 298.964561 -276.243172 
L 297.596302 -275.495102 
L 296.228043 -274.776738 
L 294.859784 -274.097385 
L 293.491525 -273.464167 
L 292.123267 -272.881873 
L 290.755008 -272.353024 
L 289.386749 -271.878112 
L 288.01849 -271.455942 
L 286.650231 -271.084031 
L 285.281972 -270.758993 
L 283.913713 -270.47689 
L 282.545455 -270.233526 
L 281.177196 -270.024674 
L 279.808937 -269.846239 
L 278.440678 -269.694375 
L 277.072419 -269.565544 
L 275.70416 -269.456556 
L 274.335901 -269.364568 
L 272.967643 -269.287083 
L 271.599384 -269.221923 
L 270.231125 -269.167204 
L 268.862866 -269.121306 
L 267.494607 -269.082846 
L 266.126348 -269.050644 
L 264.758089 -269.023702 
L 263.389831 -269.001173 
L 262.021572 -268.982343 
L 260.653313 -268.966612 
L 259.285054 -268.953473 
L 257.916795 -268.942503 
L 256.548536 -268.933346 
L 255.180277 -268.925704 
L 253.812018 -268.919327 
L 252.44376 -268.914006 
L 251.075501 -268.909568 
L 249.707242 -268.905865 
L 248.338983 -268.902777 
L 246.970724 -268.900202 
L 245.602465 -268.898054 
L 244.234206 -268.896262 
L 242.865948 -268.894768 
L 241.497689 -268.893523 
L 240.12943 -268.892484 
L 238.761171 -268.891618 
L 237.392912 -268.890896 
L 236.024653 -268.890293 
L 234.656394 -268.889791 
L 233.288136 -268.889373 
z
"/>
    </defs>
    <g clip-path="url(#p7c15f30225)">
     <use xlink:href="#m6405678cec" x="0" y="299.52" style="fill: #406992; fill-opacity: 0.2"/>
    </g>
   </g>
   <g id="text_1">
    <text style="font-weight: 300; font-size: 16px; font-family: 'Source Sans 3', sans-serif; fill: #595959" transform="translate(-30.93161 145.05225)">All Predictions</text>
    <text style="font-weight: 300; font-size: 16px; font-family: 'Source Sans 3', sans-serif; fill: #595959" transform="translate(24.77839 162.46775)">100%</text>
   </g>
   <g id="text_2">
    <text style="font-weight: 300; font-size: 16px; font-family: 'Source Sans 3', sans-serif; fill: #595959" transform="translate(93.591864 246.490331)">Drought Predicted</text>
    <text style="font-weight: 300; font-size: 16px; font-family: 'Source Sans 3', sans-serif; fill: #595959" transform="translate(171.959364 264.098331)">15.5%</text>
   </g>
   <g id="text_3">
    <text style="font-weight: 300; font-size: 16px; font-family: 'Source Sans 3', sans-serif; fill: #595959" transform="translate(71.766864 121.690331)">No Drought Predicted</text>
    <text style="font-weight: 300; font-size: 16px; font-family: 'Source Sans 3', sans-serif; fill: #595959" transform="translate(171.959364 139.298331)">84.5%</text>
   </g>
   <g id="text_4">
    <text style="font-weight: 300; font-size: 16px; font-family: 'Source Sans 3', sans-serif; fill: #595959" transform="translate(277.060339 271.894894)">Drought Obs.</text>
    <text style="font-weight: 300; font-size: 16px; font-family: 'Source Sans 3', sans-serif; fill: #595959" transform="translate(330.020339 289.502894)">8.1%</text>
   </g>
   <g id="text_5">
    <text style="font-weight: 300; font-size: 16px; font-family: 'Source Sans 3', sans-serif; fill: #595959" transform="translate(255.235339 242.956498)">No Drought Obs.</text>
    <text style="font-weight: 300; font-size: 16px; font-family: 'Source Sans 3', sans-serif; fill: #595959" transform="translate(330.020339 260.564498)">7.4%</text>
   </g>
   <g id="text_6">
    <text style="font-weight: 300; font-size: 16px; font-family: 'Source Sans 3', sans-serif; fill: #595959" transform="translate(277.060339 196.127537)">Drought Obs.</text>
    <text style="font-weight: 300; font-size: 16px; font-family: 'Source Sans 3', sans-serif; fill: #595959" transform="translate(322.467839 213.735537)">13.9%</text>
   </g>
   <g id="text_7">
    <text style="font-weight: 300; font-size: 16px; font-family: 'Source Sans 3', sans-serif; fill: #595959" transform="translate(255.235339 88.920479)">No Drought Obs.</text>
    <text style="font-weight: 300; font-size: 16px; font-family: 'Source Sans 3', sans-serif; fill: #595959" transform="translate(322.467839 106.528479)">70.6%</text>
   </g>
  </g>
 </g>
 <defs>
  <clipPath id="p7c15f30225">
   <rect x="0" y="0" width="399.6" height="299.52"/>
  </clipPath>
 </defs>
</svg>
