<?xml version="1.0" encoding="utf-8" standalone="no"?>
<!DOCTYPE svg PUBLIC "-//W3C//DTD SVG 1.1//EN"
  "http://www.w3.org/Graphics/SVG/1.1/DTD/svg11.dtd">
<svg xmlns:xlink="http://www.w3.org/1999/xlink" width="399.6px" height="299.52px" viewBox="0 0 399.6 299.52" xmlns="http://www.w3.org/2000/svg" version="1.1">
  <defs>
  <style type="text/css">*{stroke-linejoin: round; stroke-linecap: butt}</style>
 </defs>
 <g id="figure-forecast_truefalse_key">
  <g id="patch_1">
   <path d="M 0 299.52 
L 399.6 299.52 
L 399.6 0 
L 0 0 
z
" style="fill: #ffffff"/>
  </g>
  <g id="axis-forecast_truefalse_key">
   <g id="FillBetweenPolyCollection_1">
    <defs>
     <path id="mc41e53c13e" d="M 78.118414 -45.291055 
L 78.118414 -272.200145 
L 93.169261 -272.200145 
L 93.169261 -45.291055 
L 93.169261 -45.291055 
L 78.118414 -45.291055 
z
"/>
    </defs>
    <g clip-path="url(#p84d498ef59)">
     <use xlink:href="#mc41e53c13e" x="0" y="299.52" style="fill: #00264c"/>
    </g>
   </g>
   <g id="tf-swoop-ND">
    <defs>
     <path id="ma33d8f3a72" d="M 93.169261 -272.200845 
L 93.169261 -71.211544 
L 94.53752 -71.211683 
L 95.905779 -71.211851 
L 97.274038 -71.212051 
L 98.642296 -71.212292 
L 100.010555 -71.212581 
L 101.378814 -71.212927 
L 102.747073 -71.213342 
L 104.115332 -71.21384 
L 105.483591 -71.214437 
L 106.85185 -71.215153 
L 108.220108 -71.216012 
L 109.588367 -71.217041 
L 110.956626 -71.218275 
L 112.324885 -71.219755 
L 113.693144 -71.221528 
L 115.061403 -71.223654 
L 116.429662 -71.226201 
L 117.79792 -71.229254 
L 119.166179 -71.23291 
L 120.534438 -71.23729 
L 121.902697 -71.242534 
L 123.270956 -71.24881 
L 124.639215 -71.25632 
L 126.007474 -71.265301 
L 127.375733 -71.276035 
L 128.743991 -71.288855 
L 130.11225 -71.304154 
L 131.480509 -71.322394 
L 132.848768 -71.344114 
L 134.217027 -71.369942 
L 135.585286 -71.400605 
L 136.953545 -71.436934 
L 138.321803 -71.479878 
L 139.690062 -71.530499 
L 141.058321 -71.589977 
L 142.42658 -71.659595 
L 143.794839 -71.740716 
L 145.163098 -71.83475 
L 146.531357 -71.943096 
L 147.899615 -72.067067 
L 149.267874 -72.20779 
L 150.636133 -72.366094 
L 152.004392 -72.542377 
L 153.372651 -72.736475 
L 154.74091 -72.947548 
L 156.109169 -73.173999 
L 157.477427 -73.413454 
L 158.845686 -73.66281 
L 160.213945 -73.91837 
L 161.582204 -74.176044 
L 162.950463 -74.431604 
L 164.318722 -74.680961 
L 165.686981 -74.920416 
L 167.055239 -75.146867 
L 168.423498 -75.35794 
L 169.791757 -75.552037 
L 171.160016 -75.72832 
L 172.528275 -75.886625 
L 173.896534 -76.027348 
L 175.264793 -76.151318 
L 176.633051 -76.259664 
L 178.00131 -76.353698 
L 179.369569 -76.43482 
L 180.737828 -76.504437 
L 182.106087 -76.563915 
L 183.474346 -76.614537 
L 184.842605 -76.65748 
L 186.210863 -76.69381 
L 187.579122 -76.724472 
L 188.947381 -76.750301 
L 190.31564 -76.772021 
L 191.683899 -76.790261 
L 193.052158 -76.80556 
L 194.420417 -76.81838 
L 195.788676 -76.829114 
L 197.156934 -76.838094 
L 198.525193 -76.845604 
L 199.893452 -76.851881 
L 201.261711 -76.857125 
L 202.62997 -76.861504 
L 203.998229 -76.865161 
L 205.366488 -76.868213 
L 206.734746 -76.870761 
L 208.103005 -76.872886 
L 209.471264 -76.87466 
L 210.839523 -76.876139 
L 212.207782 -76.877373 
L 213.576041 -76.878403 
L 214.9443 -76.879261 
L 216.312558 -76.879977 
L 217.680817 -76.880574 
L 219.049076 -76.881072 
L 220.417335 -76.881488 
L 221.785594 -76.881834 
L 223.153853 -76.882123 
L 224.522112 -76.882363 
L 225.89037 -76.882564 
L 227.258629 -76.882731 
L 228.626888 -76.882871 
L 228.626888 -277.872173 
L 228.626888 -277.872173 
L 227.258629 -277.872033 
L 225.89037 -277.871866 
L 224.522112 -277.871665 
L 223.153853 -277.871424 
L 221.785594 -277.871136 
L 220.417335 -277.870789 
L 219.049076 -277.870374 
L 217.680817 -277.869876 
L 216.312558 -277.869279 
L 214.9443 -277.868563 
L 213.576041 -277.867705 
L 212.207782 -277.866675 
L 210.839523 -277.865441 
L 209.471264 -277.863962 
L 208.103005 -277.862188 
L 206.734746 -277.860062 
L 205.366488 -277.857515 
L 203.998229 -277.854463 
L 202.62997 -277.850806 
L 201.261711 -277.846426 
L 199.893452 -277.841183 
L 198.525193 -277.834906 
L 197.156934 -277.827396 
L 195.788676 -277.818416 
L 194.420417 -277.807682 
L 193.052158 -277.794862 
L 191.683899 -277.779562 
L 190.31564 -277.761323 
L 188.947381 -277.739602 
L 187.579122 -277.713774 
L 186.210863 -277.683112 
L 184.842605 -277.646782 
L 183.474346 -277.603839 
L 182.106087 -277.553217 
L 180.737828 -277.493739 
L 179.369569 -277.424122 
L 178.00131 -277.343 
L 176.633051 -277.248966 
L 175.264793 -277.14062 
L 173.896534 -277.01665 
L 172.528275 -276.875926 
L 171.160016 -276.717622 
L 169.791757 -276.541339 
L 168.423498 -276.347241 
L 167.055239 -276.136169 
L 165.686981 -275.909718 
L 164.318722 -275.670263 
L 162.950463 -275.420906 
L 161.582204 -275.165346 
L 160.213945 -274.907672 
L 158.845686 -274.652112 
L 157.477427 -274.402755 
L 156.109169 -274.163301 
L 154.74091 -273.936849 
L 153.372651 -273.725777 
L 152.004392 -273.531679 
L 150.636133 -273.355396 
L 149.267874 -273.197092 
L 147.899615 -273.056369 
L 146.531357 -272.932398 
L 145.163098 -272.824052 
L 143.794839 -272.730018 
L 142.42658 -272.648897 
L 141.058321 -272.579279 
L 139.690062 -272.519801 
L 138.321803 -272.469179 
L 136.953545 -272.426236 
L 135.585286 -272.389906 
L 134.217027 -272.359244 
L 132.848768 -272.333416 
L 131.480509 -272.311696 
L 130.11225 -272.293456 
L 128.743991 -272.278157 
L 127.375733 -272.265336 
L 126.007474 -272.254603 
L 124.639215 -272.245622 
L 123.270956 -272.238112 
L 121.902697 -272.231836 
L 120.534438 -272.226592 
L 119.166179 -272.222212 
L 117.79792 -272.218556 
L 116.429662 -272.215503 
L 115.061403 -272.212956 
L 113.693144 -272.21083 
L 112.324885 -272.209057 
L 110.956626 -272.207577 
L 109.588367 -272.206343 
L 108.220108 -272.205314 
L 106.85185 -272.204455 
L 105.483591 -272.203739 
L 104.115332 -272.203142 
L 102.747073 -272.202644 
L 101.378814 -272.202229 
L 100.010555 -272.201883 
L 98.642296 -272.201594 
L 97.274038 -272.201353 
L 95.905779 -272.201152 
L 94.53752 -272.200985 
L 93.169261 -272.200845 
z
"/>
    </defs>
    <g clip-path="url(#p84d498ef59)">
     <use xlink:href="#ma33d8f3a72" x="0" y="299.52" style="fill: #406992; fill-opacity: 0.05"/>
    </g>
   </g>
   <g id="tf-swoop-YD">
    <defs>
     <path id="m2c21cb057c" d="M 93.169261 -45.290355 
L 93.169261 -71.210144 
L 94.53752 -71.210004 
L 95.905779 -71.209837 
L 97.274038 -71.209636 
L 98.642296 -71.209395 
L 100.010555 -71.209107 
L 101.378814 -71.20876 
L 102.747073 -71.208345 
L 104.115332 -71.207847 
L 105.483591 -71.20725 
L 106.85185 -71.206534 
L 108.220108 -71.205675 
L 109.588367 -71.204646 
L 110.956626 -71.203412 
L 112.324885 -71.201932 
L 113.693144 -71.200159 
L 115.061403 -71.198033 
L 116.429662 -71.195486 
L 117.79792 -71.192433 
L 119.166179 -71.188777 
L 120.534438 -71.184397 
L 121.902697 -71.179154 
L 123.270956 -71.172877 
L 124.639215 -71.165367 
L 126.007474 -71.156386 
L 127.375733 -71.145653 
L 128.743991 -71.132833 
L 130.11225 -71.117533 
L 131.480509 -71.099293 
L 132.848768 -71.077573 
L 134.217027 -71.051745 
L 135.585286 -71.021083 
L 136.953545 -70.984753 
L 138.321803 -70.94181 
L 139.690062 -70.891188 
L 141.058321 -70.83171 
L 142.42658 -70.762092 
L 143.794839 -70.680971 
L 145.163098 -70.586937 
L 146.531357 -70.478591 
L 147.899615 -70.354621 
L 149.267874 -70.213897 
L 150.636133 -70.055593 
L 152.004392 -69.87931 
L 153.372651 -69.685212 
L 154.74091 -69.47414 
L 156.109169 -69.247689 
L 157.477427 -69.008234 
L 158.845686 -68.758877 
L 160.213945 -68.503317 
L 161.582204 -68.245643 
L 162.950463 -67.990083 
L 164.318722 -67.740726 
L 165.686981 -67.501271 
L 167.055239 -67.27482 
L 168.423498 -67.063748 
L 169.791757 -66.86965 
L 171.160016 -66.693367 
L 172.528275 -66.535063 
L 173.896534 -66.394339 
L 175.264793 -66.270369 
L 176.633051 -66.162023 
L 178.00131 -66.067989 
L 179.369569 -65.986868 
L 180.737828 -65.91725 
L 182.106087 -65.857772 
L 183.474346 -65.80715 
L 184.842605 -65.764207 
L 186.210863 -65.727877 
L 187.579122 -65.697215 
L 188.947381 -65.671387 
L 190.31564 -65.649666 
L 191.683899 -65.631427 
L 193.052158 -65.616127 
L 194.420417 -65.603307 
L 195.788676 -65.592574 
L 197.156934 -65.583593 
L 198.525193 -65.576083 
L 199.893452 -65.569806 
L 201.261711 -65.564563 
L 202.62997 -65.560183 
L 203.998229 -65.556527 
L 205.366488 -65.553474 
L 206.734746 -65.550927 
L 208.103005 -65.548801 
L 209.471264 -65.547028 
L 210.839523 -65.545548 
L 212.207782 -65.544314 
L 213.576041 -65.543285 
L 214.9443 -65.542426 
L 216.312558 -65.54171 
L 217.680817 -65.541113 
L 219.049076 -65.540615 
L 220.417335 -65.5402 
L 221.785594 -65.539853 
L 223.153853 -65.539565 
L 224.522112 -65.539324 
L 225.89037 -65.539123 
L 227.258629 -65.538956 
L 228.626888 -65.538816 
L 228.626888 -39.619027 
L 228.626888 -39.619027 
L 227.258629 -39.619167 
L 225.89037 -39.619334 
L 224.522112 -39.619535 
L 223.153853 -39.619776 
L 221.785594 -39.620064 
L 220.417335 -39.620411 
L 219.049076 -39.620826 
L 217.680817 -39.621324 
L 216.312558 -39.621921 
L 214.9443 -39.622637 
L 213.576041 -39.623495 
L 212.207782 -39.624525 
L 210.839523 -39.625759 
L 209.471264 -39.627238 
L 208.103005 -39.629012 
L 206.734746 -39.631138 
L 205.366488 -39.633685 
L 203.998229 -39.636737 
L 202.62997 -39.640394 
L 201.261711 -39.644774 
L 199.893452 -39.650017 
L 198.525193 -39.656294 
L 197.156934 -39.663804 
L 195.788676 -39.672784 
L 194.420417 -39.683518 
L 193.052158 -39.696338 
L 191.683899 -39.711638 
L 190.31564 -39.729877 
L 188.947381 -39.751598 
L 187.579122 -39.777426 
L 186.210863 -39.808088 
L 184.842605 -39.844418 
L 183.474346 -39.887361 
L 182.106087 -39.937983 
L 180.737828 -39.997461 
L 179.369569 -40.067078 
L 178.00131 -40.1482 
L 176.633051 -40.242234 
L 175.264793 -40.35058 
L 173.896534 -40.47455 
L 172.528275 -40.615274 
L 171.160016 -40.773578 
L 169.791757 -40.949861 
L 168.423498 -41.143959 
L 167.055239 -41.355031 
L 165.686981 -41.581482 
L 164.318722 -41.820937 
L 162.950463 -42.070294 
L 161.582204 -42.325854 
L 160.213945 -42.583528 
L 158.845686 -42.839088 
L 157.477427 -43.088445 
L 156.109169 -43.327899 
L 154.74091 -43.554351 
L 153.372651 -43.765423 
L 152.004392 -43.959521 
L 150.636133 -44.135804 
L 149.267874 -44.294108 
L 147.899615 -44.434831 
L 146.531357 -44.558802 
L 145.163098 -44.667148 
L 143.794839 -44.761182 
L 142.42658 -44.842303 
L 141.058321 -44.911921 
L 139.690062 -44.971399 
L 138.321803 -45.022021 
L 136.953545 -45.064964 
L 135.585286 -45.101294 
L 134.217027 -45.131956 
L 132.848768 -45.157784 
L 131.480509 -45.179504 
L 130.11225 -45.197744 
L 128.743991 -45.213043 
L 127.375733 -45.225864 
L 126.007474 -45.236597 
L 124.639215 -45.245578 
L 123.270956 -45.253088 
L 121.902697 -45.259364 
L 120.534438 -45.264608 
L 119.166179 -45.268988 
L 117.79792 -45.272644 
L 116.429662 -45.275697 
L 115.061403 -45.278244 
L 113.693144 -45.28037 
L 112.324885 -45.282143 
L 110.956626 -45.283623 
L 109.588367 -45.284857 
L 108.220108 -45.285886 
L 106.85185 -45.286745 
L 105.483591 -45.287461 
L 104.115332 -45.288058 
L 102.747073 -45.288556 
L 101.378814 -45.288971 
L 100.010555 -45.289317 
L 98.642296 -45.289606 
L 97.274038 -45.289847 
L 95.905779 -45.290048 
L 94.53752 -45.290215 
L 93.169261 -45.290355 
z
"/>
    </defs>
    <g clip-path="url(#p84d498ef59)">
     <use xlink:href="#m2c21cb057c" x="0" y="299.52" style="fill: #b78935; fill-opacity: 0.05"/>
    </g>
   </g>
   <g id="tf-bar-ND">
    <defs>
     <path id="ma6bab9fb7c" d="M 228.626888 -76.883571 
L 228.626888 -277.872873 
L 243.677736 -277.872873 
L 243.677736 -76.883571 
L 243.677736 -76.883571 
L 228.626888 -76.883571 
z
"/>
    </defs>
    <g clip-path="url(#p84d498ef59)">
     <use xlink:href="#ma6bab9fb7c" x="0" y="299.52" style="fill: #406992; fill-opacity: 0.25"/>
    </g>
   </g>
   <g id="tf-bar-YD">
    <defs>
     <path id="m0c3a93c301" d="M 228.626888 -39.618327 
L 228.626888 -65.538116 
L 243.677736 -65.538116 
L 243.677736 -39.618327 
L 243.677736 -39.618327 
L 228.626888 -39.618327 
z
"/>
    </defs>
    <g clip-path="url(#p84d498ef59)">
     <use xlink:href="#m0c3a93c301" x="0" y="299.52" style="fill: #b78935; fill-opacity: 0.25"/>
    </g>
   </g>
   <g id="tf-swoop-YD-ND">
    <defs>
     <path id="m0f858d77d2" d="M 243.677736 -58.302229 
L 243.677736 -65.537416 
L 245.045994 -65.537277 
L 246.414253 -65.537109 
L 247.782512 -65.536909 
L 249.150771 -65.536668 
L 250.51903 -65.536379 
L 251.887289 -65.536033 
L 253.255548 -65.535618 
L 254.623806 -65.53512 
L 255.992065 -65.534523 
L 257.360324 -65.533807 
L 258.728583 -65.532948 
L 260.096842 -65.531919 
L 261.465101 -65.530685 
L 262.83336 -65.529205 
L 264.201618 -65.527432 
L 265.569877 -65.525306 
L 266.938136 -65.522759 
L 268.306395 -65.519706 
L 269.674654 -65.51605 
L 271.042913 -65.51167 
L 272.411172 -65.506426 
L 273.779431 -65.50015 
L 275.147689 -65.49264 
L 276.515948 -65.483659 
L 277.884207 -65.472925 
L 279.252466 -65.460105 
L 280.620725 -65.444806 
L 281.988984 -65.426566 
L 283.357243 -65.404846 
L 284.725501 -65.379018 
L 286.09376 -65.348355 
L 287.462019 -65.312026 
L 288.830278 -65.269082 
L 290.198537 -65.218461 
L 291.566796 -65.158983 
L 292.935055 -65.089365 
L 294.303313 -65.008244 
L 295.671572 -64.91421 
L 297.039831 -64.805864 
L 298.40809 -64.681893 
L 299.776349 -64.54117 
L 301.144608 -64.382866 
L 302.512867 -64.206583 
L 303.881125 -64.012485 
L 305.249384 -63.801412 
L 306.617643 -63.574961 
L 307.985902 -63.335506 
L 309.354161 -63.08615 
L 310.72242 -62.83059 
L 312.090679 -62.572916 
L 313.458937 -62.317356 
L 314.827196 -62.067999 
L 316.195455 -61.828544 
L 317.563714 -61.602093 
L 318.931973 -61.39102 
L 320.300232 -61.196922 
L 321.668491 -61.02064 
L 323.036749 -60.862335 
L 324.405008 -60.721612 
L 325.773267 -60.597642 
L 327.141526 -60.489296 
L 328.509785 -60.395262 
L 329.878044 -60.31414 
L 331.246303 -60.244523 
L 332.614561 -60.185045 
L 333.98282 -60.134423 
L 335.351079 -60.09148 
L 336.719338 -60.05515 
L 338.087597 -60.024488 
L 339.455856 -59.998659 
L 340.824115 -59.976939 
L 342.192373 -59.958699 
L 343.560632 -59.9434 
L 344.928891 -59.93058 
L 346.29715 -59.919846 
L 347.665409 -59.910866 
L 349.033668 -59.903356 
L 350.401927 -59.897079 
L 351.770186 -59.891835 
L 353.138444 -59.887456 
L 354.506703 -59.883799 
L 355.874962 -59.880747 
L 357.243221 -59.878199 
L 358.61148 -59.876074 
L 359.979739 -59.8743 
L 361.347998 -59.872821 
L 362.716256 -59.871587 
L 364.084515 -59.870557 
L 365.452774 -59.869699 
L 366.821033 -59.868983 
L 368.189292 -59.868386 
L 369.557551 -59.867888 
L 370.92581 -59.867472 
L 372.294068 -59.867126 
L 373.662327 -59.866837 
L 375.030586 -59.866597 
L 376.398845 -59.866396 
L 377.767104 -59.866229 
L 379.135363 -59.866089 
L 379.135363 -52.630902 
L 379.135363 -52.630902 
L 377.767104 -52.631042 
L 376.398845 -52.631209 
L 375.030586 -52.63141 
L 373.662327 -52.63165 
L 372.294068 -52.631939 
L 370.92581 -52.632285 
L 369.557551 -52.632701 
L 368.189292 -52.633199 
L 366.821033 -52.633796 
L 365.452774 -52.634512 
L 364.084515 -52.63537 
L 362.716256 -52.6364 
L 361.347998 -52.637634 
L 359.979739 -52.639113 
L 358.61148 -52.640887 
L 357.243221 -52.643012 
L 355.874962 -52.64556 
L 354.506703 -52.648612 
L 353.138444 -52.652269 
L 351.770186 -52.656648 
L 350.401927 -52.661892 
L 349.033668 -52.668169 
L 347.665409 -52.675679 
L 346.29715 -52.684659 
L 344.928891 -52.695393 
L 343.560632 -52.708213 
L 342.192373 -52.723512 
L 340.824115 -52.741752 
L 339.455856 -52.763472 
L 338.087597 -52.789301 
L 336.719338 -52.819963 
L 335.351079 -52.856293 
L 333.98282 -52.899236 
L 332.614561 -52.949858 
L 331.246303 -53.009336 
L 329.878044 -53.078953 
L 328.509785 -53.160075 
L 327.141526 -53.254109 
L 325.773267 -53.362455 
L 324.405008 -53.486425 
L 323.036749 -53.627148 
L 321.668491 -53.785453 
L 320.300232 -53.961735 
L 318.931973 -54.155833 
L 317.563714 -54.366906 
L 316.195455 -54.593357 
L 314.827196 -54.832812 
L 313.458937 -55.082169 
L 312.090679 -55.337729 
L 310.72242 -55.595403 
L 309.354161 -55.850963 
L 307.985902 -56.100319 
L 306.617643 -56.339774 
L 305.249384 -56.566225 
L 303.881125 -56.777298 
L 302.512867 -56.971396 
L 301.144608 -57.147679 
L 299.776349 -57.305983 
L 298.40809 -57.446706 
L 297.039831 -57.570677 
L 295.671572 -57.679023 
L 294.303313 -57.773057 
L 292.935055 -57.854178 
L 291.566796 -57.923796 
L 290.198537 -57.983274 
L 288.830278 -58.033895 
L 287.462019 -58.076839 
L 286.09376 -58.113168 
L 284.725501 -58.143831 
L 283.357243 -58.169659 
L 281.988984 -58.191379 
L 280.620725 -58.209619 
L 279.252466 -58.224918 
L 277.884207 -58.237738 
L 276.515948 -58.248472 
L 275.147689 -58.257453 
L 273.779431 -58.264963 
L 272.411172 -58.271239 
L 271.042913 -58.276483 
L 269.674654 -58.280863 
L 268.306395 -58.284519 
L 266.938136 -58.287572 
L 265.569877 -58.290119 
L 264.201618 -58.292245 
L 262.83336 -58.294018 
L 261.465101 -58.295498 
L 260.096842 -58.296732 
L 258.728583 -58.297761 
L 257.360324 -58.29862 
L 255.992065 -58.299336 
L 254.623806 -58.299933 
L 253.255548 -58.300431 
L 251.887289 -58.300846 
L 250.51903 -58.301192 
L 249.150771 -58.301481 
L 247.782512 -58.301722 
L 246.414253 -58.301922 
L 245.045994 -58.30209 
L 243.677736 -58.302229 
z
"/>
    </defs>
    <g clip-path="url(#p84d498ef59)">
     <use xlink:href="#m0f858d77d2" x="0" y="299.52" style="fill: #dbc49a; fill-opacity: 0.05"/>
    </g>
   </g>
   <g id="tf-swoop-YD-YD">
    <defs>
     <path id="m6d802880bb" d="M 243.677736 -39.616227 
L 243.677736 -58.300829 
L 245.045994 -58.300411 
L 246.414253 -58.299909 
L 247.782512 -58.299306 
L 249.150771 -58.298584 
L 250.51903 -58.297718 
L 251.887289 -58.296679 
L 253.255548 -58.295434 
L 254.623806 -58.29394 
L 255.992065 -58.292149 
L 257.360324 -58.290001 
L 258.728583 -58.287425 
L 260.096842 -58.284337 
L 261.465101 -58.280634 
L 262.83336 -58.276196 
L 264.201618 -58.270875 
L 265.569877 -58.264498 
L 266.938136 -58.256856 
L 268.306395 -58.247699 
L 269.674654 -58.236729 
L 271.042913 -58.22359 
L 272.411172 -58.207859 
L 273.779431 -58.189029 
L 275.147689 -58.1665 
L 276.515948 -58.139558 
L 277.884207 -58.107356 
L 279.252466 -58.068896 
L 280.620725 -58.022998 
L 281.988984 -57.968279 
L 283.357243 -57.903119 
L 284.725501 -57.825634 
L 286.09376 -57.733646 
L 287.462019 -57.624658 
L 288.830278 -57.495827 
L 290.198537 -57.343963 
L 291.566796 -57.165528 
L 292.935055 -56.956676 
L 294.303313 -56.713312 
L 295.671572 -56.431209 
L 297.039831 -56.106171 
L 298.40809 -55.73426 
L 299.776349 -55.31209 
L 301.144608 -54.837178 
L 302.512867 -54.308329 
L 303.881125 -53.726035 
L 305.249384 -53.092817 
L 306.617643 -52.413464 
L 307.985902 -51.6951 
L 309.354161 -50.94703 
L 310.72242 -50.180349 
L 312.090679 -49.407328 
L 313.458937 -48.640647 
L 314.827196 -47.892577 
L 316.195455 -47.174213 
L 317.563714 -46.49486 
L 318.931973 -45.861642 
L 320.300232 -45.279348 
L 321.668491 -44.750499 
L 323.036749 -44.275586 
L 324.405008 -43.853417 
L 325.773267 -43.481506 
L 327.141526 -43.156468 
L 328.509785 -42.874365 
L 329.878044 -42.631001 
L 331.246303 -42.422149 
L 332.614561 -42.243714 
L 333.98282 -42.09185 
L 335.351079 -41.963019 
L 336.719338 -41.85403 
L 338.087597 -41.762043 
L 339.455856 -41.684558 
L 340.824115 -41.619398 
L 342.192373 -41.564678 
L 343.560632 -41.518781 
L 344.928891 -41.480321 
L 346.29715 -41.448119 
L 347.665409 -41.421177 
L 349.033668 -41.398648 
L 350.401927 -41.379818 
L 351.770186 -41.364086 
L 353.138444 -41.350948 
L 354.506703 -41.339978 
L 355.874962 -41.330821 
L 357.243221 -41.323179 
L 358.61148 -41.316802 
L 359.979739 -41.311481 
L 361.347998 -41.307043 
L 362.716256 -41.30334 
L 364.084515 -41.300252 
L 365.452774 -41.297676 
L 366.821033 -41.295528 
L 368.189292 -41.293737 
L 369.557551 -41.292243 
L 370.92581 -41.290998 
L 372.294068 -41.289959 
L 373.662327 -41.289093 
L 375.030586 -41.28837 
L 376.398845 -41.287768 
L 377.767104 -41.287266 
L 379.135363 -41.286847 
L 379.135363 -22.602245 
L 379.135363 -22.602245 
L 377.767104 -22.602664 
L 376.398845 -22.603166 
L 375.030586 -22.603768 
L 373.662327 -22.604491 
L 372.294068 -22.605357 
L 370.92581 -22.606395 
L 369.557551 -22.607641 
L 368.189292 -22.609135 
L 366.821033 -22.610926 
L 365.452774 -22.613074 
L 364.084515 -22.61565 
L 362.716256 -22.618738 
L 361.347998 -22.62244 
L 359.979739 -22.626879 
L 358.61148 -22.6322 
L 357.243221 -22.638577 
L 355.874962 -22.646219 
L 354.506703 -22.655376 
L 353.138444 -22.666346 
L 351.770186 -22.679484 
L 350.401927 -22.695216 
L 349.033668 -22.714046 
L 347.665409 -22.736575 
L 346.29715 -22.763517 
L 344.928891 -22.795718 
L 343.560632 -22.834179 
L 342.192373 -22.880076 
L 340.824115 -22.934796 
L 339.455856 -22.999956 
L 338.087597 -23.077441 
L 336.719338 -23.169428 
L 335.351079 -23.278417 
L 333.98282 -23.407248 
L 332.614561 -23.559112 
L 331.246303 -23.737547 
L 329.878044 -23.946399 
L 328.509785 -24.189763 
L 327.141526 -24.471866 
L 325.773267 -24.796904 
L 324.405008 -25.168815 
L 323.036749 -25.590984 
L 321.668491 -26.065897 
L 320.300232 -26.594746 
L 318.931973 -27.177039 
L 317.563714 -27.810257 
L 316.195455 -28.489611 
L 314.827196 -29.207975 
L 313.458937 -29.956045 
L 312.090679 -30.722726 
L 310.72242 -31.495747 
L 309.354161 -32.262428 
L 307.985902 -33.010498 
L 306.617643 -33.728862 
L 305.249384 -34.408215 
L 303.881125 -35.041433 
L 302.512867 -35.623727 
L 301.144608 -36.152576 
L 299.776349 -36.627488 
L 298.40809 -37.049658 
L 297.039831 -37.421569 
L 295.671572 -37.746607 
L 294.303313 -38.02871 
L 292.935055 -38.272074 
L 291.566796 -38.480926 
L 290.198537 -38.659361 
L 288.830278 -38.811225 
L 287.462019 -38.940056 
L 286.09376 -39.049044 
L 284.725501 -39.141032 
L 283.357243 -39.218517 
L 281.988984 -39.283677 
L 280.620725 -39.338396 
L 279.252466 -39.384294 
L 277.884207 -39.422754 
L 276.515948 -39.454956 
L 275.147689 -39.481898 
L 273.779431 -39.504427 
L 272.411172 -39.523257 
L 271.042913 -39.538988 
L 269.674654 -39.552127 
L 268.306395 -39.563097 
L 266.938136 -39.572254 
L 265.569877 -39.579896 
L 264.201618 -39.586273 
L 262.83336 -39.591594 
L 261.465101 -39.596032 
L 260.096842 -39.599735 
L 258.728583 -39.602823 
L 257.360324 -39.605398 
L 255.992065 -39.607546 
L 254.623806 -39.609338 
L 253.255548 -39.610832 
L 251.887289 -39.612077 
L 250.51903 -39.613116 
L 249.150771 -39.613982 
L 247.782512 -39.614704 
L 246.414253 -39.615307 
L 245.045994 -39.615809 
L 243.677736 -39.616227 
z
"/>
    </defs>
    <g clip-path="url(#p84d498ef59)">
     <use xlink:href="#m6d802880bb" x="0" y="299.52" style="fill: #b78935; fill-opacity: 0.05"/>
    </g>
   </g>
   <g id="tf-swoop-ND-YD">
    <defs>
     <path id="mb2b5eb2953" d="M 243.677736 -84.081478 
L 243.677736 -76.884271 
L 245.045994 -76.88441 
L 246.414253 -76.884578 
L 247.782512 -76.884779 
L 249.150771 -76.885019 
L 250.51903 -76.885308 
L 251.887289 -76.885654 
L 253.255548 -76.886069 
L 254.623806 -76.886567 
L 255.992065 -76.887165 
L 257.360324 -76.887881 
L 258.728583 -76.888739 
L 260.096842 -76.889768 
L 261.465101 -76.891003 
L 262.83336 -76.892482 
L 264.201618 -76.894256 
L 265.569877 -76.896381 
L 266.938136 -76.898929 
L 268.306395 -76.901981 
L 269.674654 -76.905638 
L 271.042913 -76.910017 
L 272.411172 -76.915261 
L 273.779431 -76.921538 
L 275.147689 -76.929047 
L 276.515948 -76.938028 
L 277.884207 -76.948762 
L 279.252466 -76.961582 
L 280.620725 -76.976881 
L 281.988984 -76.995121 
L 283.357243 -77.016841 
L 284.725501 -77.042669 
L 286.09376 -77.073332 
L 287.462019 -77.109661 
L 288.830278 -77.152605 
L 290.198537 -77.203226 
L 291.566796 -77.262705 
L 292.935055 -77.332322 
L 294.303313 -77.413443 
L 295.671572 -77.507478 
L 297.039831 -77.615824 
L 298.40809 -77.739794 
L 299.776349 -77.880517 
L 301.144608 -78.038821 
L 302.512867 -78.215104 
L 303.881125 -78.409202 
L 305.249384 -78.620275 
L 306.617643 -78.846726 
L 307.985902 -79.086181 
L 309.354161 -79.335537 
L 310.72242 -79.591098 
L 312.090679 -79.848771 
L 313.458937 -80.104332 
L 314.827196 -80.353688 
L 316.195455 -80.593143 
L 317.563714 -80.819594 
L 318.931973 -81.030667 
L 320.300232 -81.224765 
L 321.668491 -81.401048 
L 323.036749 -81.559352 
L 324.405008 -81.700075 
L 325.773267 -81.824045 
L 327.141526 -81.932391 
L 328.509785 -82.026426 
L 329.878044 -82.107547 
L 331.246303 -82.177164 
L 332.614561 -82.236643 
L 333.98282 -82.287264 
L 335.351079 -82.330208 
L 336.719338 -82.366537 
L 338.087597 -82.3972 
L 339.455856 -82.423028 
L 340.824115 -82.444748 
L 342.192373 -82.462988 
L 343.560632 -82.478287 
L 344.928891 -82.491107 
L 346.29715 -82.501841 
L 347.665409 -82.510822 
L 349.033668 -82.518331 
L 350.401927 -82.524608 
L 351.770186 -82.529852 
L 353.138444 -82.534231 
L 354.506703 -82.537888 
L 355.874962 -82.54094 
L 357.243221 -82.543488 
L 358.61148 -82.545613 
L 359.979739 -82.547387 
L 361.347998 -82.548867 
L 362.716256 -82.550101 
L 364.084515 -82.55113 
L 365.452774 -82.551989 
L 366.821033 -82.552705 
L 368.189292 -82.553302 
L 369.557551 -82.5538 
L 370.92581 -82.554215 
L 372.294068 -82.554561 
L 373.662327 -82.55485 
L 375.030586 -82.555091 
L 376.398845 -82.555291 
L 377.767104 -82.555459 
L 379.135363 -82.555598 
L 379.135363 -89.752805 
L 379.135363 -89.752805 
L 377.767104 -89.752666 
L 376.398845 -89.752498 
L 375.030586 -89.752298 
L 373.662327 -89.752057 
L 372.294068 -89.751768 
L 370.92581 -89.751422 
L 369.557551 -89.751007 
L 368.189292 -89.750509 
L 366.821033 -89.749912 
L 365.452774 -89.749196 
L 364.084515 -89.748337 
L 362.716256 -89.747308 
L 361.347998 -89.746074 
L 359.979739 -89.744594 
L 358.61148 -89.742821 
L 357.243221 -89.740695 
L 355.874962 -89.738147 
L 354.506703 -89.735095 
L 353.138444 -89.731438 
L 351.770186 -89.727059 
L 350.401927 -89.721815 
L 349.033668 -89.715538 
L 347.665409 -89.708029 
L 346.29715 -89.699048 
L 344.928891 -89.688314 
L 343.560632 -89.675494 
L 342.192373 -89.660195 
L 340.824115 -89.641955 
L 339.455856 -89.620235 
L 338.087597 -89.594407 
L 336.719338 -89.563744 
L 335.351079 -89.527415 
L 333.98282 -89.484471 
L 332.614561 -89.43385 
L 331.246303 -89.374371 
L 329.878044 -89.304754 
L 328.509785 -89.223633 
L 327.141526 -89.129598 
L 325.773267 -89.021252 
L 324.405008 -88.897282 
L 323.036749 -88.756559 
L 321.668491 -88.598255 
L 320.300232 -88.421972 
L 318.931973 -88.227874 
L 317.563714 -88.016801 
L 316.195455 -87.79035 
L 314.827196 -87.550895 
L 313.458937 -87.301539 
L 312.090679 -87.045978 
L 310.72242 -86.788305 
L 309.354161 -86.532744 
L 307.985902 -86.283388 
L 306.617643 -86.043933 
L 305.249384 -85.817482 
L 303.881125 -85.606409 
L 302.512867 -85.412311 
L 301.144608 -85.236028 
L 299.776349 -85.077724 
L 298.40809 -84.937001 
L 297.039831 -84.813031 
L 295.671572 -84.704685 
L 294.303313 -84.61065 
L 292.935055 -84.529529 
L 291.566796 -84.459912 
L 290.198537 -84.400433 
L 288.830278 -84.349812 
L 287.462019 -84.306868 
L 286.09376 -84.270539 
L 284.725501 -84.239876 
L 283.357243 -84.214048 
L 281.988984 -84.192328 
L 280.620725 -84.174088 
L 279.252466 -84.158789 
L 277.884207 -84.145969 
L 276.515948 -84.135235 
L 275.147689 -84.126254 
L 273.779431 -84.118745 
L 272.411172 -84.112468 
L 271.042913 -84.107224 
L 269.674654 -84.102845 
L 268.306395 -84.099188 
L 266.938136 -84.096136 
L 265.569877 -84.093588 
L 264.201618 -84.091463 
L 262.83336 -84.089689 
L 261.465101 -84.08821 
L 260.096842 -84.086975 
L 258.728583 -84.085946 
L 257.360324 -84.085088 
L 255.992065 -84.084372 
L 254.623806 -84.083774 
L 253.255548 -84.083276 
L 251.887289 -84.082861 
L 250.51903 -84.082515 
L 249.150771 -84.082226 
L 247.782512 -84.081986 
L 246.414253 -84.081785 
L 245.045994 -84.081617 
L 243.677736 -84.081478 
z
"/>
    </defs>
    <g clip-path="url(#p84d498ef59)">
     <use xlink:href="#mb2b5eb2953" x="0" y="299.52" style="fill: #9fb4c8; fill-opacity: 0.05"/>
    </g>
   </g>
   <g id="tf-swoop-ND-ND">
    <defs>
     <path id="mf32e08a749" d="M 243.677736 -277.874973 
L 243.677736 -84.082878 
L 245.045994 -84.083297 
L 246.414253 -84.083799 
L 247.782512 -84.084401 
L 249.150771 -84.085123 
L 250.51903 -84.085989 
L 251.887289 -84.087028 
L 253.255548 -84.088274 
L 254.623806 -84.089767 
L 255.992065 -84.091559 
L 257.360324 -84.093707 
L 258.728583 -84.096282 
L 260.096842 -84.099371 
L 261.465101 -84.103073 
L 262.83336 -84.107511 
L 264.201618 -84.112832 
L 265.569877 -84.119209 
L 266.938136 -84.126851 
L 268.306395 -84.136008 
L 269.674654 -84.146978 
L 271.042913 -84.160117 
L 272.411172 -84.175848 
L 273.779431 -84.194678 
L 275.147689 -84.217207 
L 276.515948 -84.24415 
L 277.884207 -84.276351 
L 279.252466 -84.314811 
L 280.620725 -84.360709 
L 281.988984 -84.415428 
L 283.357243 -84.480589 
L 284.725501 -84.558074 
L 286.09376 -84.650061 
L 287.462019 -84.759049 
L 288.830278 -84.88788 
L 290.198537 -85.039745 
L 291.566796 -85.218179 
L 292.935055 -85.427032 
L 294.303313 -85.670395 
L 295.671572 -85.952498 
L 297.039831 -86.277536 
L 298.40809 -86.649447 
L 299.776349 -87.071617 
L 301.144608 -87.54653 
L 302.512867 -88.075378 
L 303.881125 -88.657672 
L 305.249384 -89.29089 
L 306.617643 -89.970243 
L 307.985902 -90.688608 
L 309.354161 -91.436677 
L 310.72242 -92.203358 
L 312.090679 -92.97638 
L 313.458937 -93.74306 
L 314.827196 -94.49113 
L 316.195455 -95.209494 
L 317.563714 -95.888848 
L 318.931973 -96.522066 
L 320.300232 -97.10436 
L 321.668491 -97.633208 
L 323.036749 -98.108121 
L 324.405008 -98.530291 
L 325.773267 -98.902201 
L 327.141526 -99.22724 
L 328.509785 -99.509342 
L 329.878044 -99.752706 
L 331.246303 -99.961559 
L 332.614561 -100.139993 
L 333.98282 -100.291858 
L 335.351079 -100.420688 
L 336.719338 -100.529677 
L 338.087597 -100.621664 
L 339.455856 -100.699149 
L 340.824115 -100.764309 
L 342.192373 -100.819029 
L 343.560632 -100.864927 
L 344.928891 -100.903387 
L 346.29715 -100.935588 
L 347.665409 -100.96253 
L 349.033668 -100.98506 
L 350.401927 -101.003889 
L 351.770186 -101.019621 
L 353.138444 -101.032759 
L 354.506703 -101.043729 
L 355.874962 -101.052886 
L 357.243221 -101.060529 
L 358.61148 -101.066906 
L 359.979739 -101.072226 
L 361.347998 -101.076665 
L 362.716256 -101.080367 
L 364.084515 -101.083455 
L 365.452774 -101.086031 
L 366.821033 -101.088179 
L 368.189292 -101.08997 
L 369.557551 -101.091464 
L 370.92581 -101.09271 
L 372.294068 -101.093748 
L 373.662327 -101.094615 
L 375.030586 -101.095337 
L 376.398845 -101.095939 
L 377.767104 -101.096441 
L 379.135363 -101.09686 
L 379.135363 -294.888955 
L 379.135363 -294.888955 
L 377.767104 -294.888536 
L 376.398845 -294.888034 
L 375.030586 -294.887432 
L 373.662327 -294.886709 
L 372.294068 -294.885843 
L 370.92581 -294.884805 
L 369.557551 -294.883559 
L 368.189292 -294.882065 
L 366.821033 -294.880274 
L 365.452774 -294.878126 
L 364.084515 -294.87555 
L 362.716256 -294.872462 
L 361.347998 -294.86876 
L 359.979739 -294.864321 
L 358.61148 -294.859 
L 357.243221 -294.852623 
L 355.874962 -294.844981 
L 354.506703 -294.835824 
L 353.138444 -294.824854 
L 351.770186 -294.811716 
L 350.401927 -294.795984 
L 349.033668 -294.777154 
L 347.665409 -294.754625 
L 346.29715 -294.727683 
L 344.928891 -294.695482 
L 343.560632 -294.657021 
L 342.192373 -294.611124 
L 340.824115 -294.556404 
L 339.455856 -294.491244 
L 338.087597 -294.413759 
L 336.719338 -294.321772 
L 335.351079 -294.212783 
L 333.98282 -294.083952 
L 332.614561 -293.932088 
L 331.246303 -293.753653 
L 329.878044 -293.544801 
L 328.509785 -293.301437 
L 327.141526 -293.019334 
L 325.773267 -292.694296 
L 324.405008 -292.322385 
L 323.036749 -291.900216 
L 321.668491 -291.425303 
L 320.300232 -290.896454 
L 318.931973 -290.314161 
L 317.563714 -289.680943 
L 316.195455 -289.001589 
L 314.827196 -288.283225 
L 313.458937 -287.535155 
L 312.090679 -286.768474 
L 310.72242 -285.995453 
L 309.354161 -285.228772 
L 307.985902 -284.480702 
L 306.617643 -283.762338 
L 305.249384 -283.082985 
L 303.881125 -282.449767 
L 302.512867 -281.867473 
L 301.144608 -281.338624 
L 299.776349 -280.863712 
L 298.40809 -280.441542 
L 297.039831 -280.069631 
L 295.671572 -279.744593 
L 294.303313 -279.46249 
L 292.935055 -279.219126 
L 291.566796 -279.010274 
L 290.198537 -278.831839 
L 288.830278 -278.679975 
L 287.462019 -278.551144 
L 286.09376 -278.442156 
L 284.725501 -278.350168 
L 283.357243 -278.272683 
L 281.988984 -278.207523 
L 280.620725 -278.152804 
L 279.252466 -278.106906 
L 277.884207 -278.068446 
L 276.515948 -278.036244 
L 275.147689 -278.009302 
L 273.779431 -277.986773 
L 272.411172 -277.967943 
L 271.042913 -277.952212 
L 269.674654 -277.939073 
L 268.306395 -277.928103 
L 266.938136 -277.918946 
L 265.569877 -277.911304 
L 264.201618 -277.904927 
L 262.83336 -277.899606 
L 261.465101 -277.895168 
L 260.096842 -277.891465 
L 258.728583 -277.888377 
L 257.360324 -277.885802 
L 255.992065 -277.883654 
L 254.623806 -277.881862 
L 253.255548 -277.880368 
L 251.887289 -277.879123 
L 250.51903 -277.878084 
L 249.150771 -277.877218 
L 247.782512 -277.876496 
L 246.414253 -277.875893 
L 245.045994 -277.875391 
L 243.677736 -277.874973 
z
"/>
    </defs>
    <g clip-path="url(#p84d498ef59)">
     <use xlink:href="#mf32e08a749" x="0" y="299.52" style="fill: #406992; fill-opacity: 0.05"/>
    </g>
   </g>
   <g id="tf-bar-YD-YD">
    <defs>
     <path id="m291fb6eedb" d="M 379.135363 -22.600145 
L 379.135363 -41.284748 
L 394.18621 -41.284748 
L 394.18621 -22.600145 
L 394.18621 -22.600145 
L 379.135363 -22.600145 
z
"/>
    </defs>
    <g clip-path="url(#p84d498ef59)">
     <use xlink:href="#m291fb6eedb" x="0" y="299.52" style="fill: #b78935; fill-opacity: 0.25"/>
    </g>
   </g>
   <g id="tf-bar-YD-ND">
    <defs>
     <path id="m6a9b3ccfb6" d="M 379.135363 -52.630202 
L 379.135363 -59.865389 
L 394.18621 -59.865389 
L 394.18621 -52.630202 
L 394.18621 -52.630202 
L 379.135363 -52.630202 
z
"/>
    </defs>
    <g clip-path="url(#p84d498ef59)">
     <use xlink:href="#m6a9b3ccfb6" x="0" y="299.52" style="fill: #dbc49a; fill-opacity: 0.25"/>
    </g>
   </g>
   <g id="tf-bar-ND-YD">
    <defs>
     <path id="m654fc2dd06" d="M 379.135363 -82.556298 
L 379.135363 -89.753505 
L 394.18621 -89.753505 
L 394.18621 -82.556298 
L 394.18621 -82.556298 
L 379.135363 -82.556298 
z
"/>
    </defs>
    <g clip-path="url(#p84d498ef59)">
     <use xlink:href="#m654fc2dd06" x="0" y="299.52" style="fill: #9fb4c8; fill-opacity: 0.25"/>
    </g>
   </g>
   <g id="tf-bar-ND-ND">
    <defs>
     <path id="mfd7cc7b6fb" d="M 379.135363 -101.09896 
L 379.135363 -294.891055 
L 394.18621 -294.891055 
L 394.18621 -101.09896 
L 394.18621 -101.09896 
L 379.135363 -101.09896 
z
"/>
    </defs>
    <g clip-path="url(#p84d498ef59)">
     <use xlink:href="#mfd7cc7b6fb" x="0" y="299.52" style="fill: #406992; fill-opacity: 0.25"/>
    </g>
   </g>
   <g id="text_1">
    <text style="font-weight: 300; font-size: 16px; font-family: 'Source Sans 3', sans-serif; fill: #494949" transform="translate(10.33799 136.06665)">All model</text>
    <text style="font-weight: 300; font-size: 16px; font-family: 'Source Sans 3', sans-serif; fill: #494949" transform="translate(-1.62951 153.48215)">predictions</text>
   </g>
   <g id="tf-label-YD">
    <text style="font-weight: 300; font-size: 16px; font-family: 'Source Sans 3', sans-serif; fill: #494949; opacity: 0" transform="translate(106.611464 224.606778)">Severe or extreme</text>
    <text style="font-weight: 300; font-size: 16px; font-family: 'Source Sans 3', sans-serif; fill: #494949; opacity: 0" transform="translate(100.076464 242.253278)">streamflow dought</text>
    <text style="font-weight: 300; font-size: 16px; font-family: 'Source Sans 3', sans-serif; fill: #494949; opacity: 0" transform="translate(159.471464 259.861278)">predicted</text>
    <text style="font-weight: 300; font-size: 16px; font-family: 'Source Sans 3', sans-serif; fill: #494949; opacity: 0" transform="translate(182.348964 277.276778)">11.4%</text>
   </g>
   <g id="tf-label-ND">
    <text style="font-weight: 300; font-size: 16px; font-family: 'Source Sans 3', sans-serif; fill: #494949; opacity: 0" transform="translate(104.848964 99.922278)">Neither severe nor</text>
    <text style="font-weight: 300; font-size: 16px; font-family: 'Source Sans 3', sans-serif; fill: #494949; opacity: 0" transform="translate(94.641464 117.337778)">extreme streamflow</text>
    <text style="font-weight: 300; font-size: 16px; font-family: 'Source Sans 3', sans-serif; fill: #494949; opacity: 0" transform="translate(109.868964 134.753278)">dought predicted</text>
    <text style="font-weight: 300; font-size: 16px; font-family: 'Source Sans 3', sans-serif; fill: #494949; opacity: 0" transform="translate(182.348964 152.361278)">88.6%</text>
   </g>
   <g id="tf-label-YD-YD">
    <text style="font-weight: 300; font-size: 16px; font-family: 'Source Sans 3', sans-serif; fill: #494949; opacity: 0" transform="translate(310.554939 254.085554)">Did occur</text>
    <text style="font-weight: 300; font-size: 16px; font-family: 'Source Sans 3', sans-serif; fill: #494949; opacity: 0" transform="translate(284.119939 271.654054)">(true positive)</text>
    <text style="font-weight: 300; font-size: 16px; font-family: 'Source Sans 3', sans-serif; fill: #494949; opacity: 0" transform="translate(340.409939 289.069554)">8.2%</text>
   </g>
   <g id="tf-label-YD-ND">
    <text style="font-weight: 300; font-size: 16px; font-family: 'Source Sans 3', sans-serif; fill: #494949; opacity: 0" transform="translate(285.594939 229.741204)">Did not occur</text>
    <text style="font-weight: 300; font-size: 16px; font-family: 'Source Sans 3', sans-serif; fill: #494949; opacity: 0" transform="translate(280.344939 247.387704)">(false positive)</text>
    <text style="font-weight: 300; font-size: 16px; font-family: 'Source Sans 3', sans-serif; fill: #494949; opacity: 0" transform="translate(340.409939 264.803204)">3.2%</text>
   </g>
   <g id="tf-label-ND-YD">
    <text style="font-weight: 300; font-size: 16px; font-family: 'Source Sans 3', sans-serif; fill: #494949; opacity: 0" transform="translate(257.119939 182.110598)">Severe or extreme</text>
    <text style="font-weight: 300; font-size: 16px; font-family: 'Source Sans 3', sans-serif; fill: #494949; opacity: 0" transform="translate(245.689939 199.757098)">streamflow drought</text>
    <text style="font-weight: 300; font-size: 16px; font-family: 'Source Sans 3', sans-serif; fill: #494949; opacity: 0" transform="translate(314.364939 217.365098)">occurred</text>
    <text style="font-weight: 300; font-size: 16px; font-family: 'Source Sans 3', sans-serif; fill: #494949; opacity: 0" transform="translate(275.932439 235.011598)">(false negative)</text>
    <text style="font-weight: 300; font-size: 16px; font-family: 'Source Sans 3', sans-serif; fill: #494949; opacity: 0" transform="translate(340.409939 252.619598)">3.2%</text>
   </g>
   <g id="tf-label-ND-ND">
    <text style="font-weight: 300; font-size: 16px; font-family: 'Source Sans 3', sans-serif; fill: #494949; opacity: 0" transform="translate(255.357439 70.424993)">Neither severe nor</text>
    <text style="font-weight: 300; font-size: 16px; font-family: 'Source Sans 3', sans-serif; fill: #494949; opacity: 0" transform="translate(245.149939 87.840493)">extreme streamflow</text>
    <text style="font-weight: 300; font-size: 16px; font-family: 'Source Sans 3', sans-serif; fill: #494949; opacity: 0" transform="translate(264.762439 105.255993)">dought occurred</text>
    <text style="font-weight: 300; font-size: 16px; font-family: 'Source Sans 3', sans-serif; fill: #494949; opacity: 0" transform="translate(279.707439 123.016993)">(true negative)</text>
    <text style="font-weight: 300; font-size: 16px; font-family: 'Source Sans 3', sans-serif; fill: #494949; opacity: 0" transform="translate(332.857439 140.624993)">85.4%</text>
   </g>
  </g>
 </g>
 <defs>
  <clipPath id="p84d498ef59">
   <rect x="10.3896" y="-8.9856" width="399.6" height="299.52"/>
  </clipPath>
 </defs>
</svg>
