<?xml version="1.0" encoding="utf-8" standalone="no"?>
<!DOCTYPE svg PUBLIC "-//W3C//DTD SVG 1.1//EN"
  "http://www.w3.org/Graphics/SVG/1.1/DTD/svg11.dtd">
<svg xmlns:xlink="http://www.w3.org/1999/xlink" width="399.6px" height="299.52px" viewBox="0 0 399.6 299.52" xmlns="http://www.w3.org/2000/svg" version="1.1">
  <defs>
  <style type="text/css">*{stroke-linejoin: round; stroke-linecap: butt}</style>
 </defs>
 <g id="figure-forecast_truefalse_summary-rw">
  <g id="patch_1">
   <path d="M 0 299.52 
L 399.6 299.52 
L 399.6 0 
L 0 0 
z
" style="fill: #ffffff"/>
  </g>
  <g id="axis-forecast_truefalse_summary-rw">
   <g id="patch_2">
    <path d="M 39.96 254.592 
L 379.62 254.592 
L 379.62 44.928 
L 39.96 44.928 
z
" style="fill: #ffffff"/>
   </g>
   <g id="matplotlib.axis_1">
    <g id="xtick_1">
     <g id="line2d_1">
      <defs>
       <path id="md4f36a2e02" d="M 0 0 
L 0 3.5 
" style="stroke: #949494; stroke-width: 0.8"/>
      </defs>
      <g>
       <use xlink:href="#md4f36a2e02" x="65.048523" y="254.592" style="fill: #949494; stroke: #949494; stroke-width: 0.8"/>
      </g>
     </g>
     <g id="text_1">
      <text style="font-weight: 300; font-size: 16px; font-family: 'Source Sans 3', sans-serif; text-anchor: middle; fill: #494949" x="65.048523" y="273.1445" transform="rotate(-0 65.048523 273.1445)">1</text>
     </g>
    </g>
    <g id="xtick_2">
     <g id="line2d_2">
      <g>
       <use xlink:href="#md4f36a2e02" x="89.172102" y="254.592" style="fill: #949494; stroke: #949494; stroke-width: 0.8"/>
      </g>
     </g>
     <g id="text_2">
      <text style="font-weight: 300; font-size: 16px; font-family: 'Source Sans 3', sans-serif; text-anchor: middle; fill: #494949" x="89.172102" y="273.1445" transform="rotate(-0 89.172102 273.1445)">2</text>
     </g>
    </g>
    <g id="xtick_3">
     <g id="line2d_3">
      <g>
       <use xlink:href="#md4f36a2e02" x="113.295682" y="254.592" style="fill: #949494; stroke: #949494; stroke-width: 0.8"/>
      </g>
     </g>
     <g id="text_3">
      <text style="font-weight: 300; font-size: 16px; font-family: 'Source Sans 3', sans-serif; text-anchor: middle; fill: #494949" x="113.295682" y="273.1445" transform="rotate(-0 113.295682 273.1445)">3</text>
     </g>
    </g>
    <g id="xtick_4">
     <g id="line2d_4">
      <g>
       <use xlink:href="#md4f36a2e02" x="137.419261" y="254.592" style="fill: #949494; stroke: #949494; stroke-width: 0.8"/>
      </g>
     </g>
     <g id="text_4">
      <text style="font-weight: 300; font-size: 16px; font-family: 'Source Sans 3', sans-serif; text-anchor: middle; fill: #494949" x="137.419261" y="273.1445" transform="rotate(-0 137.419261 273.1445)">4</text>
     </g>
    </g>
    <g id="xtick_5">
     <g id="line2d_5">
      <g>
       <use xlink:href="#md4f36a2e02" x="161.542841" y="254.592" style="fill: #949494; stroke: #949494; stroke-width: 0.8"/>
      </g>
     </g>
     <g id="text_5">
      <text style="font-weight: 300; font-size: 16px; font-family: 'Source Sans 3', sans-serif; text-anchor: middle; fill: #494949" x="161.542841" y="273.1445" transform="rotate(-0 161.542841 273.1445)">5</text>
     </g>
    </g>
    <g id="xtick_6">
     <g id="line2d_6">
      <g>
       <use xlink:href="#md4f36a2e02" x="185.66642" y="254.592" style="fill: #949494; stroke: #949494; stroke-width: 0.8"/>
      </g>
     </g>
     <g id="text_6">
      <text style="font-weight: 300; font-size: 16px; font-family: 'Source Sans 3', sans-serif; text-anchor: middle; fill: #494949" x="185.66642" y="273.1445" transform="rotate(-0 185.66642 273.1445)">6</text>
     </g>
    </g>
    <g id="xtick_7">
     <g id="line2d_7">
      <g>
       <use xlink:href="#md4f36a2e02" x="209.79" y="254.592" style="fill: #949494; stroke: #949494; stroke-width: 0.8"/>
      </g>
     </g>
     <g id="text_7">
      <text style="font-weight: 300; font-size: 16px; font-family: 'Source Sans 3', sans-serif; text-anchor: middle; fill: #494949" x="209.79" y="273.1445" transform="rotate(-0 209.79 273.1445)">7</text>
     </g>
    </g>
    <g id="xtick_8">
     <g id="line2d_8">
      <g>
       <use xlink:href="#md4f36a2e02" x="233.91358" y="254.592" style="fill: #949494; stroke: #949494; stroke-width: 0.8"/>
      </g>
     </g>
     <g id="text_8">
      <text style="font-weight: 300; font-size: 16px; font-family: 'Source Sans 3', sans-serif; text-anchor: middle; fill: #494949" x="233.91358" y="273.1445" transform="rotate(-0 233.91358 273.1445)">8</text>
     </g>
    </g>
    <g id="xtick_9">
     <g id="line2d_9">
      <g>
       <use xlink:href="#md4f36a2e02" x="258.037159" y="254.592" style="fill: #949494; stroke: #949494; stroke-width: 0.8"/>
      </g>
     </g>
     <g id="text_9">
      <text style="font-weight: 300; font-size: 16px; font-family: 'Source Sans 3', sans-serif; text-anchor: middle; fill: #494949" x="258.037159" y="273.1445" transform="rotate(-0 258.037159 273.1445)">9</text>
     </g>
    </g>
    <g id="xtick_10">
     <g id="line2d_10">
      <g>
       <use xlink:href="#md4f36a2e02" x="282.160739" y="254.592" style="fill: #949494; stroke: #949494; stroke-width: 0.8"/>
      </g>
     </g>
     <g id="text_10">
      <text style="font-weight: 300; font-size: 16px; font-family: 'Source Sans 3', sans-serif; text-anchor: middle; fill: #494949" x="282.160739" y="273.1445" transform="rotate(-0 282.160739 273.1445)">10</text>
     </g>
    </g>
    <g id="xtick_11">
     <g id="line2d_11">
      <g>
       <use xlink:href="#md4f36a2e02" x="306.284318" y="254.592" style="fill: #949494; stroke: #949494; stroke-width: 0.8"/>
      </g>
     </g>
     <g id="text_11">
      <text style="font-weight: 300; font-size: 16px; font-family: 'Source Sans 3', sans-serif; text-anchor: middle; fill: #494949" x="306.284318" y="273.1445" transform="rotate(-0 306.284318 273.1445)">11</text>
     </g>
    </g>
    <g id="xtick_12">
     <g id="line2d_12">
      <g>
       <use xlink:href="#md4f36a2e02" x="330.407898" y="254.592" style="fill: #949494; stroke: #949494; stroke-width: 0.8"/>
      </g>
     </g>
     <g id="text_12">
      <text style="font-weight: 300; font-size: 16px; font-family: 'Source Sans 3', sans-serif; text-anchor: middle; fill: #494949" x="330.407898" y="273.1445" transform="rotate(-0 330.407898 273.1445)">12</text>
     </g>
    </g>
    <g id="xtick_13">
     <g id="line2d_13">
      <g>
       <use xlink:href="#md4f36a2e02" x="354.531477" y="254.592" style="fill: #949494; stroke: #949494; stroke-width: 0.8"/>
      </g>
     </g>
     <g id="text_13">
      <text style="font-weight: 300; font-size: 16px; font-family: 'Source Sans 3', sans-serif; text-anchor: middle; fill: #494949" x="354.531477" y="273.1445" transform="rotate(-0 354.531477 273.1445)">13</text>
     </g>
    </g>
    <g id="text_14">
     <text style="font-weight: 600; font-size: 16px; font-family: 'Source Sans 3', sans-serif; text-anchor: middle; fill: #494949" x="209.79" y="292.2495" transform="rotate(-0 209.79 292.2495)">Forecast horizon in weeks</text>
    </g>
   </g>
   <g id="matplotlib.axis_2">
    <g id="ytick_1">
     <g id="line2d_14">
      <path d="M 39.96 254.592 
L 379.62 254.592 
" clip-path="url(#p4ac03a9173)" style="fill: none; stroke: #d1d1d1; stroke-width: 0.8; stroke-linecap: square"/>
     </g>
     <g id="line2d_15">
      <defs>
       <path id="m56bae6fe1a" d="M 0 0 
L -3.5 0 
" style="stroke: #949494; stroke-width: 0.8"/>
      </defs>
      <g>
       <use xlink:href="#m56bae6fe1a" x="39.96" y="254.592" style="fill: #949494; stroke: #949494; stroke-width: 0.8"/>
      </g>
     </g>
     <g id="text_15">
      <text style="font-weight: 300; font-size: 16px; font-family: 'Source Sans 3', sans-serif; text-anchor: end; fill: #494949" x="32.96" y="260.36825" transform="rotate(-0 32.96 260.36825)">0%</text>
     </g>
    </g>
    <g id="ytick_2">
     <g id="line2d_16">
      <path d="M 39.96 212.6592 
L 379.62 212.6592 
" clip-path="url(#p4ac03a9173)" style="fill: none; stroke: #d1d1d1; stroke-width: 0.8; stroke-linecap: square"/>
     </g>
     <g id="line2d_17">
      <g>
       <use xlink:href="#m56bae6fe1a" x="39.96" y="212.6592" style="fill: #949494; stroke: #949494; stroke-width: 0.8"/>
      </g>
     </g>
     <g id="text_16">
      <text style="font-weight: 300; font-size: 16px; font-family: 'Source Sans 3', sans-serif; text-anchor: end; fill: #494949" x="32.96" y="218.43545" transform="rotate(-0 32.96 218.43545)">20%</text>
     </g>
    </g>
    <g id="ytick_3">
     <g id="line2d_18">
      <path d="M 39.96 170.7264 
L 379.62 170.7264 
" clip-path="url(#p4ac03a9173)" style="fill: none; stroke: #d1d1d1; stroke-width: 0.8; stroke-linecap: square"/>
     </g>
     <g id="line2d_19">
      <g>
       <use xlink:href="#m56bae6fe1a" x="39.96" y="170.7264" style="fill: #949494; stroke: #949494; stroke-width: 0.8"/>
      </g>
     </g>
     <g id="text_17">
      <text style="font-weight: 300; font-size: 16px; font-family: 'Source Sans 3', sans-serif; text-anchor: end; fill: #494949" x="32.96" y="176.50265" transform="rotate(-0 32.96 176.50265)">40%</text>
     </g>
    </g>
    <g id="ytick_4">
     <g id="line2d_20">
      <path d="M 39.96 128.7936 
L 379.62 128.7936 
" clip-path="url(#p4ac03a9173)" style="fill: none; stroke: #d1d1d1; stroke-width: 0.8; stroke-linecap: square"/>
     </g>
     <g id="line2d_21">
      <g>
       <use xlink:href="#m56bae6fe1a" x="39.96" y="128.7936" style="fill: #949494; stroke: #949494; stroke-width: 0.8"/>
      </g>
     </g>
     <g id="text_18">
      <text style="font-weight: 300; font-size: 16px; font-family: 'Source Sans 3', sans-serif; text-anchor: end; fill: #494949" x="32.96" y="134.56985" transform="rotate(-0 32.96 134.56985)">60%</text>
     </g>
    </g>
    <g id="ytick_5">
     <g id="line2d_22">
      <path d="M 39.96 86.8608 
L 379.62 86.8608 
" clip-path="url(#p4ac03a9173)" style="fill: none; stroke: #d1d1d1; stroke-width: 0.8; stroke-linecap: square"/>
     </g>
     <g id="line2d_23">
      <g>
       <use xlink:href="#m56bae6fe1a" x="39.96" y="86.8608" style="fill: #949494; stroke: #949494; stroke-width: 0.8"/>
      </g>
     </g>
     <g id="text_19">
      <text style="font-weight: 300; font-size: 16px; font-family: 'Source Sans 3', sans-serif; text-anchor: end; fill: #494949" x="32.96" y="92.63705" transform="rotate(-0 32.96 92.63705)">80%</text>
     </g>
    </g>
    <g id="ytick_6">
     <g id="line2d_24">
      <path d="M 39.96 44.928 
L 379.62 44.928 
" clip-path="url(#p4ac03a9173)" style="fill: none; stroke: #d1d1d1; stroke-width: 0.8; stroke-linecap: square"/>
     </g>
     <g id="line2d_25">
      <g>
       <use xlink:href="#m56bae6fe1a" x="39.96" y="44.928" style="fill: #949494; stroke: #949494; stroke-width: 0.8"/>
      </g>
     </g>
     <g id="text_20">
      <text style="font-weight: 300; font-size: 16px; font-family: 'Source Sans 3', sans-serif; text-anchor: end; fill: #494949" x="32.96" y="50.70425" transform="rotate(-0 32.96 50.70425)">100%</text>
     </g>
    </g>
   </g>
   <g id="FillBetweenPolyCollection_1">
    <path d="M 55.399091 254.592 
L 55.399091 57.90987 
L 74.697955 57.90987 
L 74.697955 254.592 
L 74.697955 254.592 
L 55.399091 254.592 
z
" clip-path="url(#p4ac03a9173)" style="fill: #595959"/>
   </g>
   <g id="FillBetweenPolyCollection_2">
    <path d="M 55.399091 44.928 
L 55.399091 57.90987 
L 74.697955 57.90987 
L 74.697955 44.928 
L 74.697955 44.928 
L 55.399091 44.928 
z
" clip-path="url(#p4ac03a9173)" style="fill: #949494"/>
   </g>
   <g id="FillBetweenPolyCollection_3">
    <path d="M 79.52267 254.592 
L 79.52267 63.784415 
L 98.821534 63.784415 
L 98.821534 254.592 
L 98.821534 254.592 
L 79.52267 254.592 
z
" clip-path="url(#p4ac03a9173)" style="fill: #595959"/>
   </g>
   <g id="FillBetweenPolyCollection_4">
    <path d="M 79.52267 44.928 
L 79.52267 63.784415 
L 98.821534 63.784415 
L 98.821534 44.928 
L 98.821534 44.928 
L 79.52267 44.928 
z
" clip-path="url(#p4ac03a9173)" style="fill: #949494"/>
   </g>
   <g id="FillBetweenPolyCollection_5">
    <path d="M 103.64625 254.592 
L 103.64625 66.396964 
L 122.945114 66.396964 
L 122.945114 254.592 
L 122.945114 254.592 
L 103.64625 254.592 
z
" clip-path="url(#p4ac03a9173)" style="fill: #595959"/>
   </g>
   <g id="FillBetweenPolyCollection_6">
    <path d="M 103.64625 44.928 
L 103.64625 66.396964 
L 122.945114 66.396964 
L 122.945114 44.928 
L 122.945114 44.928 
L 103.64625 44.928 
z
" clip-path="url(#p4ac03a9173)" style="fill: #949494"/>
   </g>
   <g id="FillBetweenPolyCollection_7">
    <path d="M 127.76983 254.592 
L 127.76983 69.069331 
L 147.068693 69.069331 
L 147.068693 254.592 
L 147.068693 254.592 
L 127.76983 254.592 
z
" clip-path="url(#p4ac03a9173)" style="fill: #595959"/>
   </g>
   <g id="FillBetweenPolyCollection_8">
    <path d="M 127.76983 44.928 
L 127.76983 69.069331 
L 147.068693 69.069331 
L 147.068693 44.928 
L 147.068693 44.928 
L 127.76983 44.928 
z
" clip-path="url(#p4ac03a9173)" style="fill: #949494"/>
   </g>
   <g id="FillBetweenPolyCollection_9">
    <path d="M 151.893409 254.592 
L 151.893409 69.777896 
L 171.192273 69.777896 
L 171.192273 254.592 
L 171.192273 254.592 
L 151.893409 254.592 
z
" clip-path="url(#p4ac03a9173)" style="fill: #595959"/>
   </g>
   <g id="FillBetweenPolyCollection_10">
    <path d="M 151.893409 44.928 
L 151.893409 69.777896 
L 171.192273 69.777896 
L 171.192273 44.928 
L 171.192273 44.928 
L 151.893409 44.928 
z
" clip-path="url(#p4ac03a9173)" style="fill: #949494"/>
   </g>
   <g id="FillBetweenPolyCollection_11">
    <path d="M 176.016989 254.592 
L 176.016989 70.507334 
L 195.315852 70.507334 
L 195.315852 254.592 
L 195.315852 254.592 
L 176.016989 254.592 
z
" clip-path="url(#p4ac03a9173)" style="fill: #595959"/>
   </g>
   <g id="FillBetweenPolyCollection_12">
    <path d="M 176.016989 44.928 
L 176.016989 70.507334 
L 195.315852 70.507334 
L 195.315852 44.928 
L 195.315852 44.928 
L 176.016989 44.928 
z
" clip-path="url(#p4ac03a9173)" style="fill: #949494"/>
   </g>
   <g id="FillBetweenPolyCollection_13">
    <path d="M 200.140568 254.592 
L 200.140568 71.258581 
L 219.439432 71.258581 
L 219.439432 254.592 
L 219.439432 254.592 
L 200.140568 254.592 
z
" clip-path="url(#p4ac03a9173)" style="fill: #595959"/>
   </g>
   <g id="FillBetweenPolyCollection_14">
    <path d="M 200.140568 44.928 
L 200.140568 71.258581 
L 219.439432 71.258581 
L 219.439432 44.928 
L 219.439432 44.928 
L 200.140568 44.928 
z
" clip-path="url(#p4ac03a9173)" style="fill: #949494"/>
   </g>
   <g id="FillBetweenPolyCollection_15">
    <path d="M 224.264148 254.592 
L 224.264148 72.032631 
L 243.563011 72.032631 
L 243.563011 254.592 
L 243.563011 254.592 
L 224.264148 254.592 
z
" clip-path="url(#p4ac03a9173)" style="fill: #595959"/>
   </g>
   <g id="FillBetweenPolyCollection_16">
    <path d="M 224.264148 44.928 
L 224.264148 72.032631 
L 243.563011 72.032631 
L 243.563011 44.928 
L 243.563011 44.928 
L 224.264148 44.928 
z
" clip-path="url(#p4ac03a9173)" style="fill: #949494"/>
   </g>
   <g id="FillBetweenPolyCollection_17">
    <path d="M 248.387727 254.592 
L 248.387727 72.302675 
L 267.686591 72.302675 
L 267.686591 254.592 
L 267.686591 254.592 
L 248.387727 254.592 
z
" clip-path="url(#p4ac03a9173)" style="fill: #595959"/>
   </g>
   <g id="FillBetweenPolyCollection_18">
    <path d="M 248.387727 44.928 
L 248.387727 72.302675 
L 267.686591 72.302675 
L 267.686591 44.928 
L 267.686591 44.928 
L 248.387727 44.928 
z
" clip-path="url(#p4ac03a9173)" style="fill: #949494"/>
   </g>
   <g id="FillBetweenPolyCollection_19">
    <path d="M 272.511307 254.592 
L 272.511307 72.578068 
L 291.81017 72.578068 
L 291.81017 254.592 
L 291.81017 254.592 
L 272.511307 254.592 
z
" clip-path="url(#p4ac03a9173)" style="fill: #595959"/>
   </g>
   <g id="FillBetweenPolyCollection_20">
    <path d="M 272.511307 44.928 
L 272.511307 72.578068 
L 291.81017 72.578068 
L 291.81017 44.928 
L 291.81017 44.928 
L 272.511307 44.928 
z
" clip-path="url(#p4ac03a9173)" style="fill: #949494"/>
   </g>
   <g id="FillBetweenPolyCollection_21">
    <path d="M 296.634886 254.592 
L 296.634886 72.85897 
L 315.93375 72.85897 
L 315.93375 254.592 
L 315.93375 254.592 
L 296.634886 254.592 
z
" clip-path="url(#p4ac03a9173)" style="fill: #595959"/>
   </g>
   <g id="FillBetweenPolyCollection_22">
    <path d="M 296.634886 44.928 
L 296.634886 72.85897 
L 315.93375 72.85897 
L 315.93375 44.928 
L 315.93375 44.928 
L 296.634886 44.928 
z
" clip-path="url(#p4ac03a9173)" style="fill: #949494"/>
   </g>
   <g id="FillBetweenPolyCollection_23">
    <path d="M 320.758466 254.592 
L 320.758466 73.145549 
L 340.05733 73.145549 
L 340.05733 254.592 
L 340.05733 254.592 
L 320.758466 254.592 
z
" clip-path="url(#p4ac03a9173)" style="fill: #595959"/>
   </g>
   <g id="FillBetweenPolyCollection_24">
    <path d="M 320.758466 44.928 
L 320.758466 73.145549 
L 340.05733 73.145549 
L 340.05733 44.928 
L 340.05733 44.928 
L 320.758466 44.928 
z
" clip-path="url(#p4ac03a9173)" style="fill: #949494"/>
   </g>
   <g id="FillBetweenPolyCollection_25">
    <path d="M 344.882045 254.592 
L 344.882045 73.437979 
L 364.180909 73.437979 
L 364.180909 254.592 
L 364.180909 254.592 
L 344.882045 254.592 
z
" clip-path="url(#p4ac03a9173)" style="fill: #595959"/>
   </g>
   <g id="FillBetweenPolyCollection_26">
    <path d="M 344.882045 44.928 
L 344.882045 73.437979 
L 364.180909 73.437979 
L 364.180909 44.928 
L 364.180909 44.928 
L 344.882045 44.928 
z
" clip-path="url(#p4ac03a9173)" style="fill: #949494"/>
   </g>
   <g id="patch_3">
    <path d="M 39.96 254.592 
L 39.96 44.928 
" style="fill: none; stroke: #949494; stroke-width: 0.8; stroke-linejoin: miter; stroke-linecap: square"/>
   </g>
   <g id="patch_4">
    <path d="M 39.96 254.592 
L 379.62 254.592 
" style="fill: none; stroke: #949494; stroke-width: 0.8; stroke-linejoin: miter; stroke-linecap: square"/>
   </g>
   <g id="text_21">
    <text style="font-weight: 800; font-size: 20px; font-family: 'Source Sans 3', sans-serif; text-anchor: start" x="39.96" y="38.928" transform="rotate(-0 39.96 38.928)">All model outcomes</text>
   </g>
  </g>
 </g>
 <defs>
  <clipPath id="p4ac03a9173">
   <rect x="39.96" y="44.928" width="339.66" height="209.664"/>
  </clipPath>
 </defs>
</svg>
