<?xml version="1.0" encoding="utf-8" standalone="no"?>
<!DOCTYPE svg PUBLIC "-//W3C//DTD SVG 1.1//EN"
  "http://www.w3.org/Graphics/SVG/1.1/DTD/svg11.dtd">
<svg xmlns:xlink="http://www.w3.org/1999/xlink" width="399.6px" height="299.52px" viewBox="0 0 399.6 299.52" xmlns="http://www.w3.org/2000/svg" version="1.1">
  <defs>
  <style type="text/css">*{stroke-linejoin: round; stroke-linecap: butt}</style>
 </defs>
 <g id="figure-forecast_truefalse_key">
  <g id="patch_1">
   <path d="M 0 299.52 
L 399.6 299.52 
L 399.6 0 
L 0 0 
z
" style="fill: #ffffff"/>
  </g>
  <g id="axis-forecast_truefalse_key">
   <g id="FillBetweenPolyCollection_1">
    <defs>
     <path id="mf5e39def7b" d="M 78.118414 -45.291055 
L 78.118414 -272.200145 
L 93.169261 -272.200145 
L 93.169261 -45.291055 
L 93.169261 -45.291055 
L 78.118414 -45.291055 
z
"/>
    </defs>
    <g clip-path="url(#p1aa3940534)">
     <use xlink:href="#mf5e39def7b" x="0" y="299.52" style="fill: #00264c"/>
    </g>
   </g>
   <g id="tf-swoop-ND">
    <defs>
     <path id="mbed3ca78cc" d="M 93.169261 -272.200845 
L 93.169261 -67.81466 
L 94.53752 -67.8148 
L 95.905779 -67.814967 
L 97.274038 -67.815168 
L 98.642296 -67.815409 
L 100.010555 -67.815697 
L 101.378814 -67.816044 
L 102.747073 -67.816459 
L 104.115332 -67.816957 
L 105.483591 -67.817554 
L 106.85185 -67.81827 
L 108.220108 -67.819128 
L 109.588367 -67.820158 
L 110.956626 -67.821392 
L 112.324885 -67.822872 
L 113.693144 -67.824645 
L 115.061403 -67.826771 
L 116.429662 -67.829318 
L 117.79792 -67.83237 
L 119.166179 -67.836027 
L 120.534438 -67.840407 
L 121.902697 -67.84565 
L 123.270956 -67.851927 
L 124.639215 -67.859437 
L 126.007474 -67.868418 
L 127.375733 -67.879151 
L 128.743991 -67.891971 
L 130.11225 -67.907271 
L 131.480509 -67.92551 
L 132.848768 -67.947231 
L 134.217027 -67.973059 
L 135.585286 -68.003721 
L 136.953545 -68.040051 
L 138.321803 -68.082994 
L 139.690062 -68.133616 
L 141.058321 -68.193094 
L 142.42658 -68.262712 
L 143.794839 -68.343833 
L 145.163098 -68.437867 
L 146.531357 -68.546213 
L 147.899615 -68.670183 
L 149.267874 -68.810907 
L 150.636133 -68.969211 
L 152.004392 -69.145494 
L 153.372651 -69.339592 
L 154.74091 -69.550664 
L 156.109169 -69.777115 
L 157.477427 -70.01657 
L 158.845686 -70.265927 
L 160.213945 -70.521487 
L 161.582204 -70.779161 
L 162.950463 -71.034721 
L 164.318722 -71.284078 
L 165.686981 -71.523533 
L 167.055239 -71.749984 
L 168.423498 -71.961056 
L 169.791757 -72.155154 
L 171.160016 -72.331437 
L 172.528275 -72.489741 
L 173.896534 -72.630465 
L 175.264793 -72.754435 
L 176.633051 -72.862781 
L 178.00131 -72.956815 
L 179.369569 -73.037936 
L 180.737828 -73.107554 
L 182.106087 -73.167032 
L 183.474346 -73.217654 
L 184.842605 -73.260597 
L 186.210863 -73.296927 
L 187.579122 -73.327589 
L 188.947381 -73.353417 
L 190.31564 -73.375137 
L 191.683899 -73.393377 
L 193.052158 -73.408677 
L 194.420417 -73.421497 
L 195.788676 -73.43223 
L 197.156934 -73.441211 
L 198.525193 -73.448721 
L 199.893452 -73.454997 
L 201.261711 -73.460241 
L 202.62997 -73.464621 
L 203.998229 -73.468277 
L 205.366488 -73.47133 
L 206.734746 -73.473877 
L 208.103005 -73.476003 
L 209.471264 -73.477776 
L 210.839523 -73.479256 
L 212.207782 -73.48049 
L 213.576041 -73.481519 
L 214.9443 -73.482378 
L 216.312558 -73.483094 
L 217.680817 -73.483691 
L 219.049076 -73.484189 
L 220.417335 -73.484604 
L 221.785594 -73.484951 
L 223.153853 -73.485239 
L 224.522112 -73.48548 
L 225.89037 -73.485681 
L 227.258629 -73.485848 
L 228.626888 -73.485988 
L 228.626888 -277.872173 
L 228.626888 -277.872173 
L 227.258629 -277.872033 
L 225.89037 -277.871866 
L 224.522112 -277.871665 
L 223.153853 -277.871424 
L 221.785594 -277.871136 
L 220.417335 -277.870789 
L 219.049076 -277.870374 
L 217.680817 -277.869876 
L 216.312558 -277.869279 
L 214.9443 -277.868563 
L 213.576041 -277.867705 
L 212.207782 -277.866675 
L 210.839523 -277.865441 
L 209.471264 -277.863962 
L 208.103005 -277.862188 
L 206.734746 -277.860062 
L 205.366488 -277.857515 
L 203.998229 -277.854463 
L 202.62997 -277.850806 
L 201.261711 -277.846426 
L 199.893452 -277.841183 
L 198.525193 -277.834906 
L 197.156934 -277.827396 
L 195.788676 -277.818416 
L 194.420417 -277.807682 
L 193.052158 -277.794862 
L 191.683899 -277.779562 
L 190.31564 -277.761323 
L 188.947381 -277.739602 
L 187.579122 -277.713774 
L 186.210863 -277.683112 
L 184.842605 -277.646782 
L 183.474346 -277.603839 
L 182.106087 -277.553217 
L 180.737828 -277.493739 
L 179.369569 -277.424122 
L 178.00131 -277.343 
L 176.633051 -277.248966 
L 175.264793 -277.14062 
L 173.896534 -277.01665 
L 172.528275 -276.875926 
L 171.160016 -276.717622 
L 169.791757 -276.541339 
L 168.423498 -276.347241 
L 167.055239 -276.136169 
L 165.686981 -275.909718 
L 164.318722 -275.670263 
L 162.950463 -275.420906 
L 161.582204 -275.165346 
L 160.213945 -274.907672 
L 158.845686 -274.652112 
L 157.477427 -274.402755 
L 156.109169 -274.163301 
L 154.74091 -273.936849 
L 153.372651 -273.725777 
L 152.004392 -273.531679 
L 150.636133 -273.355396 
L 149.267874 -273.197092 
L 147.899615 -273.056369 
L 146.531357 -272.932398 
L 145.163098 -272.824052 
L 143.794839 -272.730018 
L 142.42658 -272.648897 
L 141.058321 -272.579279 
L 139.690062 -272.519801 
L 138.321803 -272.469179 
L 136.953545 -272.426236 
L 135.585286 -272.389906 
L 134.217027 -272.359244 
L 132.848768 -272.333416 
L 131.480509 -272.311696 
L 130.11225 -272.293456 
L 128.743991 -272.278157 
L 127.375733 -272.265336 
L 126.007474 -272.254603 
L 124.639215 -272.245622 
L 123.270956 -272.238112 
L 121.902697 -272.231836 
L 120.534438 -272.226592 
L 119.166179 -272.222212 
L 117.79792 -272.218556 
L 116.429662 -272.215503 
L 115.061403 -272.212956 
L 113.693144 -272.21083 
L 112.324885 -272.209057 
L 110.956626 -272.207577 
L 109.588367 -272.206343 
L 108.220108 -272.205314 
L 106.85185 -272.204455 
L 105.483591 -272.203739 
L 104.115332 -272.203142 
L 102.747073 -272.202644 
L 101.378814 -272.202229 
L 100.010555 -272.201883 
L 98.642296 -272.201594 
L 97.274038 -272.201353 
L 95.905779 -272.201152 
L 94.53752 -272.200985 
L 93.169261 -272.200845 
z
"/>
    </defs>
    <g clip-path="url(#p1aa3940534)">
     <use xlink:href="#mbed3ca78cc" x="0" y="299.52" style="fill: #406992; fill-opacity: 0.05"/>
    </g>
   </g>
   <g id="tf-swoop-YD">
    <defs>
     <path id="mc1928b7450" d="M 93.169261 -45.290355 
L 93.169261 -67.81326 
L 94.53752 -67.813121 
L 95.905779 -67.812953 
L 97.274038 -67.812753 
L 98.642296 -67.812512 
L 100.010555 -67.812223 
L 101.378814 -67.811877 
L 102.747073 -67.811462 
L 104.115332 -67.810964 
L 105.483591 -67.810367 
L 106.85185 -67.809651 
L 108.220108 -67.808792 
L 109.588367 -67.807763 
L 110.956626 -67.806529 
L 112.324885 -67.805049 
L 113.693144 -67.803276 
L 115.061403 -67.80115 
L 116.429662 -67.798603 
L 117.79792 -67.79555 
L 119.166179 -67.791894 
L 120.534438 -67.787514 
L 121.902697 -67.78227 
L 123.270956 -67.775994 
L 124.639215 -67.768484 
L 126.007474 -67.759503 
L 127.375733 -67.748769 
L 128.743991 -67.735949 
L 130.11225 -67.72065 
L 131.480509 -67.70241 
L 132.848768 -67.68069 
L 134.217027 -67.654862 
L 135.585286 -67.624199 
L 136.953545 -67.58787 
L 138.321803 -67.544926 
L 139.690062 -67.494305 
L 141.058321 -67.434827 
L 142.42658 -67.365209 
L 143.794839 -67.284088 
L 145.163098 -67.190054 
L 146.531357 -67.081708 
L 147.899615 -66.957737 
L 149.267874 -66.817014 
L 150.636133 -66.65871 
L 152.004392 -66.482427 
L 153.372651 -66.288329 
L 154.74091 -66.077256 
L 156.109169 -65.850805 
L 157.477427 -65.61135 
L 158.845686 -65.361994 
L 160.213945 -65.106434 
L 161.582204 -64.84876 
L 162.950463 -64.5932 
L 164.318722 -64.343843 
L 165.686981 -64.104388 
L 167.055239 -63.877937 
L 168.423498 -63.666864 
L 169.791757 -63.472766 
L 171.160016 -63.296484 
L 172.528275 -63.138179 
L 173.896534 -62.997456 
L 175.264793 -62.873486 
L 176.633051 -62.76514 
L 178.00131 -62.671106 
L 179.369569 -62.589984 
L 180.737828 -62.520367 
L 182.106087 -62.460889 
L 183.474346 -62.410267 
L 184.842605 -62.367324 
L 186.210863 -62.330994 
L 187.579122 -62.300332 
L 188.947381 -62.274503 
L 190.31564 -62.252783 
L 191.683899 -62.234543 
L 193.052158 -62.219244 
L 194.420417 -62.206424 
L 195.788676 -62.19569 
L 197.156934 -62.18671 
L 198.525193 -62.1792 
L 199.893452 -62.172923 
L 201.261711 -62.167679 
L 202.62997 -62.1633 
L 203.998229 -62.159643 
L 205.366488 -62.156591 
L 206.734746 -62.154043 
L 208.103005 -62.151918 
L 209.471264 -62.150144 
L 210.839523 -62.148665 
L 212.207782 -62.147431 
L 213.576041 -62.146401 
L 214.9443 -62.145543 
L 216.312558 -62.144827 
L 217.680817 -62.14423 
L 219.049076 -62.143732 
L 220.417335 -62.143316 
L 221.785594 -62.14297 
L 223.153853 -62.142681 
L 224.522112 -62.142441 
L 225.89037 -62.14224 
L 227.258629 -62.142073 
L 228.626888 -62.141933 
L 228.626888 -39.619027 
L 228.626888 -39.619027 
L 227.258629 -39.619167 
L 225.89037 -39.619334 
L 224.522112 -39.619535 
L 223.153853 -39.619776 
L 221.785594 -39.620064 
L 220.417335 -39.620411 
L 219.049076 -39.620826 
L 217.680817 -39.621324 
L 216.312558 -39.621921 
L 214.9443 -39.622637 
L 213.576041 -39.623495 
L 212.207782 -39.624525 
L 210.839523 -39.625759 
L 209.471264 -39.627238 
L 208.103005 -39.629012 
L 206.734746 -39.631138 
L 205.366488 -39.633685 
L 203.998229 -39.636737 
L 202.62997 -39.640394 
L 201.261711 -39.644774 
L 199.893452 -39.650017 
L 198.525193 -39.656294 
L 197.156934 -39.663804 
L 195.788676 -39.672784 
L 194.420417 -39.683518 
L 193.052158 -39.696338 
L 191.683899 -39.711638 
L 190.31564 -39.729877 
L 188.947381 -39.751598 
L 187.579122 -39.777426 
L 186.210863 -39.808088 
L 184.842605 -39.844418 
L 183.474346 -39.887361 
L 182.106087 -39.937983 
L 180.737828 -39.997461 
L 179.369569 -40.067078 
L 178.00131 -40.1482 
L 176.633051 -40.242234 
L 175.264793 -40.35058 
L 173.896534 -40.47455 
L 172.528275 -40.615274 
L 171.160016 -40.773578 
L 169.791757 -40.949861 
L 168.423498 -41.143959 
L 167.055239 -41.355031 
L 165.686981 -41.581482 
L 164.318722 -41.820937 
L 162.950463 -42.070294 
L 161.582204 -42.325854 
L 160.213945 -42.583528 
L 158.845686 -42.839088 
L 157.477427 -43.088445 
L 156.109169 -43.327899 
L 154.74091 -43.554351 
L 153.372651 -43.765423 
L 152.004392 -43.959521 
L 150.636133 -44.135804 
L 149.267874 -44.294108 
L 147.899615 -44.434831 
L 146.531357 -44.558802 
L 145.163098 -44.667148 
L 143.794839 -44.761182 
L 142.42658 -44.842303 
L 141.058321 -44.911921 
L 139.690062 -44.971399 
L 138.321803 -45.022021 
L 136.953545 -45.064964 
L 135.585286 -45.101294 
L 134.217027 -45.131956 
L 132.848768 -45.157784 
L 131.480509 -45.179504 
L 130.11225 -45.197744 
L 128.743991 -45.213043 
L 127.375733 -45.225864 
L 126.007474 -45.236597 
L 124.639215 -45.245578 
L 123.270956 -45.253088 
L 121.902697 -45.259364 
L 120.534438 -45.264608 
L 119.166179 -45.268988 
L 117.79792 -45.272644 
L 116.429662 -45.275697 
L 115.061403 -45.278244 
L 113.693144 -45.28037 
L 112.324885 -45.282143 
L 110.956626 -45.283623 
L 109.588367 -45.284857 
L 108.220108 -45.285886 
L 106.85185 -45.286745 
L 105.483591 -45.287461 
L 104.115332 -45.288058 
L 102.747073 -45.288556 
L 101.378814 -45.288971 
L 100.010555 -45.289317 
L 98.642296 -45.289606 
L 97.274038 -45.289847 
L 95.905779 -45.290048 
L 94.53752 -45.290215 
L 93.169261 -45.290355 
z
"/>
    </defs>
    <g clip-path="url(#p1aa3940534)">
     <use xlink:href="#mc1928b7450" x="0" y="299.52" style="fill: #b78935; fill-opacity: 0.05"/>
    </g>
   </g>
   <g id="tf-bar-ND">
    <defs>
     <path id="m403269647c" d="M 228.626888 -73.486688 
L 228.626888 -277.872873 
L 243.677736 -277.872873 
L 243.677736 -73.486688 
L 243.677736 -73.486688 
L 228.626888 -73.486688 
z
"/>
    </defs>
    <g clip-path="url(#p1aa3940534)">
     <use xlink:href="#m403269647c" x="0" y="299.52" style="fill: #406992; fill-opacity: 0.25"/>
    </g>
   </g>
   <g id="tf-bar-YD">
    <defs>
     <path id="md726cc6a86" d="M 228.626888 -39.618327 
L 228.626888 -62.141233 
L 243.677736 -62.141233 
L 243.677736 -39.618327 
L 243.677736 -39.618327 
L 228.626888 -39.618327 
z
"/>
    </defs>
    <g clip-path="url(#p1aa3940534)">
     <use xlink:href="#md726cc6a86" x="0" y="299.52" style="fill: #b78935; fill-opacity: 0.25"/>
    </g>
   </g>
   <g id="tf-swoop-YD-ND">
    <defs>
     <path id="m2a3997882c" d="M 243.677736 -56.739237 
L 243.677736 -62.140533 
L 245.045994 -62.140394 
L 246.414253 -62.140226 
L 247.782512 -62.140025 
L 249.150771 -62.139785 
L 250.51903 -62.139496 
L 251.887289 -62.13915 
L 253.255548 -62.138735 
L 254.623806 -62.138237 
L 255.992065 -62.137639 
L 257.360324 -62.136923 
L 258.728583 -62.136065 
L 260.096842 -62.135036 
L 261.465101 -62.133801 
L 262.83336 -62.132322 
L 264.201618 -62.130548 
L 265.569877 -62.128423 
L 266.938136 -62.125875 
L 268.306395 -62.122823 
L 269.674654 -62.119166 
L 271.042913 -62.114787 
L 272.411172 -62.109543 
L 273.779431 -62.103266 
L 275.147689 -62.095757 
L 276.515948 -62.086776 
L 277.884207 -62.076042 
L 279.252466 -62.063222 
L 280.620725 -62.047923 
L 281.988984 -62.029683 
L 283.357243 -62.007963 
L 284.725501 -61.982135 
L 286.09376 -61.951472 
L 287.462019 -61.915143 
L 288.830278 -61.872199 
L 290.198537 -61.821578 
L 291.566796 -61.762099 
L 292.935055 -61.692482 
L 294.303313 -61.611361 
L 295.671572 -61.517326 
L 297.039831 -61.40898 
L 298.40809 -61.28501 
L 299.776349 -61.144287 
L 301.144608 -60.985983 
L 302.512867 -60.8097 
L 303.881125 -60.615602 
L 305.249384 -60.404529 
L 306.617643 -60.178078 
L 307.985902 -59.938623 
L 309.354161 -59.689267 
L 310.72242 -59.433706 
L 312.090679 -59.176033 
L 313.458937 -58.920472 
L 314.827196 -58.671116 
L 316.195455 -58.431661 
L 317.563714 -58.20521 
L 318.931973 -57.994137 
L 320.300232 -57.800039 
L 321.668491 -57.623756 
L 323.036749 -57.465452 
L 324.405008 -57.324729 
L 325.773267 -57.200759 
L 327.141526 -57.092413 
L 328.509785 -56.998378 
L 329.878044 -56.917257 
L 331.246303 -56.84764 
L 332.614561 -56.788161 
L 333.98282 -56.73754 
L 335.351079 -56.694596 
L 336.719338 -56.658267 
L 338.087597 -56.627604 
L 339.455856 -56.601776 
L 340.824115 -56.580056 
L 342.192373 -56.561816 
L 343.560632 -56.546517 
L 344.928891 -56.533697 
L 346.29715 -56.522963 
L 347.665409 -56.513982 
L 349.033668 -56.506473 
L 350.401927 -56.500196 
L 351.770186 -56.494952 
L 353.138444 -56.490573 
L 354.506703 -56.486916 
L 355.874962 -56.483864 
L 357.243221 -56.481316 
L 358.61148 -56.47919 
L 359.979739 -56.477417 
L 361.347998 -56.475937 
L 362.716256 -56.474703 
L 364.084515 -56.473674 
L 365.452774 -56.472815 
L 366.821033 -56.472099 
L 368.189292 -56.471502 
L 369.557551 -56.471004 
L 370.92581 -56.470589 
L 372.294068 -56.470243 
L 373.662327 -56.469954 
L 375.030586 -56.469713 
L 376.398845 -56.469513 
L 377.767104 -56.469345 
L 379.135363 -56.469206 
L 379.135363 -51.067909 
L 379.135363 -51.067909 
L 377.767104 -51.068049 
L 376.398845 -51.068216 
L 375.030586 -51.068417 
L 373.662327 -51.068658 
L 372.294068 -51.068947 
L 370.92581 -51.069293 
L 369.557551 -51.069708 
L 368.189292 -51.070206 
L 366.821033 -51.070803 
L 365.452774 -51.071519 
L 364.084515 -51.072378 
L 362.716256 -51.073407 
L 361.347998 -51.074641 
L 359.979739 -51.076121 
L 358.61148 -51.077894 
L 357.243221 -51.08002 
L 355.874962 -51.082567 
L 354.506703 -51.08562 
L 353.138444 -51.089276 
L 351.770186 -51.093656 
L 350.401927 -51.0989 
L 349.033668 -51.105176 
L 347.665409 -51.112686 
L 346.29715 -51.121667 
L 344.928891 -51.1324 
L 343.560632 -51.145221 
L 342.192373 -51.16052 
L 340.824115 -51.17876 
L 339.455856 -51.20048 
L 338.087597 -51.226308 
L 336.719338 -51.25697 
L 335.351079 -51.2933 
L 333.98282 -51.336243 
L 332.614561 -51.386865 
L 331.246303 -51.446343 
L 329.878044 -51.515961 
L 328.509785 -51.597082 
L 327.141526 -51.691116 
L 325.773267 -51.799462 
L 324.405008 -51.923433 
L 323.036749 -52.064156 
L 321.668491 -52.22246 
L 320.300232 -52.398743 
L 318.931973 -52.592841 
L 317.563714 -52.803913 
L 316.195455 -53.030365 
L 314.827196 -53.269819 
L 313.458937 -53.519176 
L 312.090679 -53.774736 
L 310.72242 -54.03241 
L 309.354161 -54.28797 
L 307.985902 -54.537327 
L 306.617643 -54.776782 
L 305.249384 -55.003233 
L 303.881125 -55.214305 
L 302.512867 -55.408403 
L 301.144608 -55.584686 
L 299.776349 -55.74299 
L 298.40809 -55.883714 
L 297.039831 -56.007684 
L 295.671572 -56.11603 
L 294.303313 -56.210064 
L 292.935055 -56.291186 
L 291.566796 -56.360803 
L 290.198537 -56.420281 
L 288.830278 -56.470903 
L 287.462019 -56.513846 
L 286.09376 -56.550176 
L 284.725501 -56.580838 
L 283.357243 -56.606666 
L 281.988984 -56.628387 
L 280.620725 -56.646626 
L 279.252466 -56.661926 
L 277.884207 -56.674746 
L 276.515948 -56.68548 
L 275.147689 -56.69446 
L 273.779431 -56.70197 
L 272.411172 -56.708247 
L 271.042913 -56.71349 
L 269.674654 -56.71787 
L 268.306395 -56.721527 
L 266.938136 -56.724579 
L 265.569877 -56.727126 
L 264.201618 -56.729252 
L 262.83336 -56.731026 
L 261.465101 -56.732505 
L 260.096842 -56.733739 
L 258.728583 -56.734769 
L 257.360324 -56.735627 
L 255.992065 -56.736343 
L 254.623806 -56.73694 
L 253.255548 -56.737438 
L 251.887289 -56.737853 
L 250.51903 -56.7382 
L 249.150771 -56.738488 
L 247.782512 -56.738729 
L 246.414253 -56.73893 
L 245.045994 -56.739097 
L 243.677736 -56.739237 
z
"/>
    </defs>
    <g clip-path="url(#p1aa3940534)">
     <use xlink:href="#m2a3997882c" x="0" y="299.52" style="fill: #dbc49a; fill-opacity: 0.05"/>
    </g>
   </g>
   <g id="tf-swoop-YD-YD">
    <defs>
     <path id="m654ded5e71" d="M 243.677736 -39.616227 
L 243.677736 -56.737837 
L 245.045994 -56.737418 
L 246.414253 -56.736916 
L 247.782512 -56.736314 
L 249.150771 -56.735592 
L 250.51903 -56.734725 
L 251.887289 -56.733687 
L 253.255548 -56.732441 
L 254.623806 -56.730947 
L 255.992065 -56.729156 
L 257.360324 -56.727008 
L 258.728583 -56.724432 
L 260.096842 -56.721344 
L 261.465101 -56.717642 
L 262.83336 -56.713203 
L 264.201618 -56.707883 
L 265.569877 -56.701506 
L 266.938136 -56.693863 
L 268.306395 -56.684706 
L 269.674654 -56.673736 
L 271.042913 -56.660598 
L 272.411172 -56.644866 
L 273.779431 -56.626037 
L 275.147689 -56.603507 
L 276.515948 -56.576565 
L 277.884207 -56.544364 
L 279.252466 -56.505904 
L 280.620725 -56.460006 
L 281.988984 -56.405286 
L 283.357243 -56.340126 
L 284.725501 -56.262641 
L 286.09376 -56.170654 
L 287.462019 -56.061665 
L 288.830278 -55.932835 
L 290.198537 -55.78097 
L 291.566796 -55.602536 
L 292.935055 -55.393683 
L 294.303313 -55.150319 
L 295.671572 -54.868217 
L 297.039831 -54.543178 
L 298.40809 -54.171267 
L 299.776349 -53.749098 
L 301.144608 -53.274185 
L 302.512867 -52.745337 
L 303.881125 -52.163043 
L 305.249384 -51.529825 
L 306.617643 -50.850471 
L 307.985902 -50.132107 
L 309.354161 -49.384037 
L 310.72242 -48.617357 
L 312.090679 -47.844335 
L 313.458937 -47.077654 
L 314.827196 -46.329585 
L 316.195455 -45.61122 
L 317.563714 -44.931867 
L 318.931973 -44.298649 
L 320.300232 -43.716355 
L 321.668491 -43.187507 
L 323.036749 -42.712594 
L 324.405008 -42.290424 
L 325.773267 -41.918513 
L 327.141526 -41.593475 
L 328.509785 -41.311372 
L 329.878044 -41.068009 
L 331.246303 -40.859156 
L 332.614561 -40.680722 
L 333.98282 -40.528857 
L 335.351079 -40.400026 
L 336.719338 -40.291038 
L 338.087597 -40.199051 
L 339.455856 -40.121566 
L 340.824115 -40.056405 
L 342.192373 -40.001686 
L 343.560632 -39.955788 
L 344.928891 -39.917328 
L 346.29715 -39.885127 
L 347.665409 -39.858184 
L 349.033668 -39.835655 
L 350.401927 -39.816825 
L 351.770186 -39.801094 
L 353.138444 -39.787955 
L 354.506703 -39.776985 
L 355.874962 -39.767828 
L 357.243221 -39.760186 
L 358.61148 -39.753809 
L 359.979739 -39.748488 
L 361.347998 -39.74405 
L 362.716256 -39.740347 
L 364.084515 -39.737259 
L 365.452774 -39.734684 
L 366.821033 -39.732536 
L 368.189292 -39.730744 
L 369.557551 -39.729251 
L 370.92581 -39.728005 
L 372.294068 -39.726966 
L 373.662327 -39.7261 
L 375.030586 -39.725378 
L 376.398845 -39.724776 
L 377.767104 -39.724274 
L 379.135363 -39.723855 
L 379.135363 -22.602245 
L 379.135363 -22.602245 
L 377.767104 -22.602664 
L 376.398845 -22.603166 
L 375.030586 -22.603768 
L 373.662327 -22.604491 
L 372.294068 -22.605357 
L 370.92581 -22.606395 
L 369.557551 -22.607641 
L 368.189292 -22.609135 
L 366.821033 -22.610926 
L 365.452774 -22.613074 
L 364.084515 -22.61565 
L 362.716256 -22.618738 
L 361.347998 -22.62244 
L 359.979739 -22.626879 
L 358.61148 -22.6322 
L 357.243221 -22.638577 
L 355.874962 -22.646219 
L 354.506703 -22.655376 
L 353.138444 -22.666346 
L 351.770186 -22.679484 
L 350.401927 -22.695216 
L 349.033668 -22.714046 
L 347.665409 -22.736575 
L 346.29715 -22.763517 
L 344.928891 -22.795718 
L 343.560632 -22.834179 
L 342.192373 -22.880076 
L 340.824115 -22.934796 
L 339.455856 -22.999956 
L 338.087597 -23.077441 
L 336.719338 -23.169428 
L 335.351079 -23.278417 
L 333.98282 -23.407248 
L 332.614561 -23.559112 
L 331.246303 -23.737547 
L 329.878044 -23.946399 
L 328.509785 -24.189763 
L 327.141526 -24.471866 
L 325.773267 -24.796904 
L 324.405008 -25.168815 
L 323.036749 -25.590984 
L 321.668491 -26.065897 
L 320.300232 -26.594746 
L 318.931973 -27.177039 
L 317.563714 -27.810257 
L 316.195455 -28.489611 
L 314.827196 -29.207975 
L 313.458937 -29.956045 
L 312.090679 -30.722726 
L 310.72242 -31.495747 
L 309.354161 -32.262428 
L 307.985902 -33.010498 
L 306.617643 -33.728862 
L 305.249384 -34.408215 
L 303.881125 -35.041433 
L 302.512867 -35.623727 
L 301.144608 -36.152576 
L 299.776349 -36.627488 
L 298.40809 -37.049658 
L 297.039831 -37.421569 
L 295.671572 -37.746607 
L 294.303313 -38.02871 
L 292.935055 -38.272074 
L 291.566796 -38.480926 
L 290.198537 -38.659361 
L 288.830278 -38.811225 
L 287.462019 -38.940056 
L 286.09376 -39.049044 
L 284.725501 -39.141032 
L 283.357243 -39.218517 
L 281.988984 -39.283677 
L 280.620725 -39.338396 
L 279.252466 -39.384294 
L 277.884207 -39.422754 
L 276.515948 -39.454956 
L 275.147689 -39.481898 
L 273.779431 -39.504427 
L 272.411172 -39.523257 
L 271.042913 -39.538988 
L 269.674654 -39.552127 
L 268.306395 -39.563097 
L 266.938136 -39.572254 
L 265.569877 -39.579896 
L 264.201618 -39.586273 
L 262.83336 -39.591594 
L 261.465101 -39.596032 
L 260.096842 -39.599735 
L 258.728583 -39.602823 
L 257.360324 -39.605398 
L 255.992065 -39.607546 
L 254.623806 -39.609338 
L 253.255548 -39.610832 
L 251.887289 -39.612077 
L 250.51903 -39.613116 
L 249.150771 -39.613982 
L 247.782512 -39.614704 
L 246.414253 -39.615307 
L 245.045994 -39.615809 
L 243.677736 -39.616227 
z
"/>
    </defs>
    <g clip-path="url(#p1aa3940534)">
     <use xlink:href="#m654ded5e71" x="0" y="299.52" style="fill: #b78935; fill-opacity: 0.05"/>
    </g>
   </g>
   <g id="tf-swoop-ND-YD">
    <defs>
     <path id="m6c3135e3fa" d="M 243.677736 -82.247587 
L 243.677736 -73.487388 
L 245.045994 -73.487527 
L 246.414253 -73.487695 
L 247.782512 -73.487895 
L 249.150771 -73.488136 
L 250.51903 -73.488425 
L 251.887289 -73.488771 
L 253.255548 -73.489186 
L 254.623806 -73.489684 
L 255.992065 -73.490281 
L 257.360324 -73.490997 
L 258.728583 -73.491856 
L 260.096842 -73.492885 
L 261.465101 -73.494119 
L 262.83336 -73.495599 
L 264.201618 -73.497372 
L 265.569877 -73.499498 
L 266.938136 -73.502045 
L 268.306395 -73.505098 
L 269.674654 -73.508754 
L 271.042913 -73.513134 
L 272.411172 -73.518378 
L 273.779431 -73.524654 
L 275.147689 -73.532164 
L 276.515948 -73.541145 
L 277.884207 -73.551879 
L 279.252466 -73.564699 
L 280.620725 -73.579998 
L 281.988984 -73.598238 
L 283.357243 -73.619958 
L 284.725501 -73.645786 
L 286.09376 -73.676449 
L 287.462019 -73.712778 
L 288.830278 -73.755722 
L 290.198537 -73.806343 
L 291.566796 -73.865821 
L 292.935055 -73.935439 
L 294.303313 -74.01656 
L 295.671572 -74.110594 
L 297.039831 -74.21894 
L 298.40809 -74.342911 
L 299.776349 -74.483634 
L 301.144608 -74.641938 
L 302.512867 -74.818221 
L 303.881125 -75.012319 
L 305.249384 -75.223392 
L 306.617643 -75.449843 
L 307.985902 -75.689297 
L 309.354161 -75.938654 
L 310.72242 -76.194214 
L 312.090679 -76.451888 
L 313.458937 -76.707448 
L 314.827196 -76.956805 
L 316.195455 -77.19626 
L 317.563714 -77.422711 
L 318.931973 -77.633784 
L 320.300232 -77.827881 
L 321.668491 -78.004164 
L 323.036749 -78.162469 
L 324.405008 -78.303192 
L 325.773267 -78.427162 
L 327.141526 -78.535508 
L 328.509785 -78.629542 
L 329.878044 -78.710664 
L 331.246303 -78.780281 
L 332.614561 -78.839759 
L 333.98282 -78.890381 
L 335.351079 -78.933324 
L 336.719338 -78.969654 
L 338.087597 -79.000316 
L 339.455856 -79.026145 
L 340.824115 -79.047865 
L 342.192373 -79.066105 
L 343.560632 -79.081404 
L 344.928891 -79.094224 
L 346.29715 -79.104958 
L 347.665409 -79.113938 
L 349.033668 -79.121448 
L 350.401927 -79.127725 
L 351.770186 -79.132969 
L 353.138444 -79.137348 
L 354.506703 -79.141005 
L 355.874962 -79.144057 
L 357.243221 -79.146605 
L 358.61148 -79.14873 
L 359.979739 -79.150504 
L 361.347998 -79.151983 
L 362.716256 -79.153217 
L 364.084515 -79.154247 
L 365.452774 -79.155105 
L 366.821033 -79.155821 
L 368.189292 -79.156418 
L 369.557551 -79.156916 
L 370.92581 -79.157332 
L 372.294068 -79.157678 
L 373.662327 -79.157967 
L 375.030586 -79.158207 
L 376.398845 -79.158408 
L 377.767104 -79.158575 
L 379.135363 -79.158715 
L 379.135363 -87.918915 
L 379.135363 -87.918915 
L 377.767104 -87.918775 
L 376.398845 -87.918608 
L 375.030586 -87.918407 
L 373.662327 -87.918166 
L 372.294068 -87.917877 
L 370.92581 -87.917531 
L 369.557551 -87.917116 
L 368.189292 -87.916618 
L 366.821033 -87.916021 
L 365.452774 -87.915305 
L 364.084515 -87.914446 
L 362.716256 -87.913417 
L 361.347998 -87.912183 
L 359.979739 -87.910703 
L 358.61148 -87.90893 
L 357.243221 -87.906804 
L 355.874962 -87.904257 
L 354.506703 -87.901204 
L 353.138444 -87.897548 
L 351.770186 -87.893168 
L 350.401927 -87.887924 
L 349.033668 -87.881648 
L 347.665409 -87.874138 
L 346.29715 -87.865157 
L 344.928891 -87.854424 
L 343.560632 -87.841603 
L 342.192373 -87.826304 
L 340.824115 -87.808064 
L 339.455856 -87.786344 
L 338.087597 -87.760516 
L 336.719338 -87.729854 
L 335.351079 -87.693524 
L 333.98282 -87.65058 
L 332.614561 -87.599959 
L 331.246303 -87.540481 
L 329.878044 -87.470863 
L 328.509785 -87.389742 
L 327.141526 -87.295708 
L 325.773267 -87.187362 
L 324.405008 -87.063391 
L 323.036749 -86.922668 
L 321.668491 -86.764364 
L 320.300232 -86.588081 
L 318.931973 -86.393983 
L 317.563714 -86.182911 
L 316.195455 -85.956459 
L 314.827196 -85.717005 
L 313.458937 -85.467648 
L 312.090679 -85.212088 
L 310.72242 -84.954414 
L 309.354161 -84.698854 
L 307.985902 -84.449497 
L 306.617643 -84.210042 
L 305.249384 -83.983591 
L 303.881125 -83.772519 
L 302.512867 -83.578421 
L 301.144608 -83.402138 
L 299.776349 -83.243834 
L 298.40809 -83.10311 
L 297.039831 -82.97914 
L 295.671572 -82.870794 
L 294.303313 -82.77676 
L 292.935055 -82.695638 
L 291.566796 -82.626021 
L 290.198537 -82.566543 
L 288.830278 -82.515921 
L 287.462019 -82.472978 
L 286.09376 -82.436648 
L 284.725501 -82.405986 
L 283.357243 -82.380158 
L 281.988984 -82.358437 
L 280.620725 -82.340198 
L 279.252466 -82.324898 
L 277.884207 -82.312078 
L 276.515948 -82.301344 
L 275.147689 -82.292364 
L 273.779431 -82.284854 
L 272.411172 -82.278577 
L 271.042913 -82.273334 
L 269.674654 -82.268954 
L 268.306395 -82.265297 
L 266.938136 -82.262245 
L 265.569877 -82.259698 
L 264.201618 -82.257572 
L 262.83336 -82.255798 
L 261.465101 -82.254319 
L 260.096842 -82.253085 
L 258.728583 -82.252055 
L 257.360324 -82.251197 
L 255.992065 -82.250481 
L 254.623806 -82.249884 
L 253.255548 -82.249386 
L 251.887289 -82.248971 
L 250.51903 -82.248624 
L 249.150771 -82.248336 
L 247.782512 -82.248095 
L 246.414253 -82.247894 
L 245.045994 -82.247727 
L 243.677736 -82.247587 
z
"/>
    </defs>
    <g clip-path="url(#p1aa3940534)">
     <use xlink:href="#m6c3135e3fa" x="0" y="299.52" style="fill: #9fb4c8; fill-opacity: 0.05"/>
    </g>
   </g>
   <g id="tf-swoop-ND-ND">
    <defs>
     <path id="mb8300cc221" d="M 243.677736 -277.874973 
L 243.677736 -82.248987 
L 245.045994 -82.249406 
L 246.414253 -82.249908 
L 247.782512 -82.25051 
L 249.150771 -82.251232 
L 250.51903 -82.252099 
L 251.887289 -82.253137 
L 253.255548 -82.254383 
L 254.623806 -82.255877 
L 255.992065 -82.257668 
L 257.360324 -82.259816 
L 258.728583 -82.262392 
L 260.096842 -82.26548 
L 261.465101 -82.269182 
L 262.83336 -82.273621 
L 264.201618 -82.278941 
L 265.569877 -82.285318 
L 266.938136 -82.292961 
L 268.306395 -82.302118 
L 269.674654 -82.313088 
L 271.042913 -82.326226 
L 272.411172 -82.341958 
L 273.779431 -82.360787 
L 275.147689 -82.383317 
L 276.515948 -82.410259 
L 277.884207 -82.44246 
L 279.252466 -82.48092 
L 280.620725 -82.526818 
L 281.988984 -82.581538 
L 283.357243 -82.646698 
L 284.725501 -82.724183 
L 286.09376 -82.81617 
L 287.462019 -82.925159 
L 288.830278 -83.053989 
L 290.198537 -83.205854 
L 291.566796 -83.384288 
L 292.935055 -83.593141 
L 294.303313 -83.836505 
L 295.671572 -84.118607 
L 297.039831 -84.443646 
L 298.40809 -84.815556 
L 299.776349 -85.237726 
L 301.144608 -85.712639 
L 302.512867 -86.241487 
L 303.881125 -86.823781 
L 305.249384 -87.456999 
L 306.617643 -88.136353 
L 307.985902 -88.854717 
L 309.354161 -89.602787 
L 310.72242 -90.369467 
L 312.090679 -91.142489 
L 313.458937 -91.90917 
L 314.827196 -92.657239 
L 316.195455 -93.375604 
L 317.563714 -94.054957 
L 318.931973 -94.688175 
L 320.300232 -95.270469 
L 321.668491 -95.799317 
L 323.036749 -96.27423 
L 324.405008 -96.6964 
L 325.773267 -97.068311 
L 327.141526 -97.393349 
L 328.509785 -97.675452 
L 329.878044 -97.918815 
L 331.246303 -98.127668 
L 332.614561 -98.306102 
L 333.98282 -98.457967 
L 335.351079 -98.586798 
L 336.719338 -98.695786 
L 338.087597 -98.787773 
L 339.455856 -98.865258 
L 340.824115 -98.930419 
L 342.192373 -98.985138 
L 343.560632 -99.031036 
L 344.928891 -99.069496 
L 346.29715 -99.101697 
L 347.665409 -99.12864 
L 349.033668 -99.151169 
L 350.401927 -99.169999 
L 351.770186 -99.18573 
L 353.138444 -99.198869 
L 354.506703 -99.209839 
L 355.874962 -99.218996 
L 357.243221 -99.226638 
L 358.61148 -99.233015 
L 359.979739 -99.238336 
L 361.347998 -99.242774 
L 362.716256 -99.246476 
L 364.084515 -99.249565 
L 365.452774 -99.25214 
L 366.821033 -99.254288 
L 368.189292 -99.25608 
L 369.557551 -99.257573 
L 370.92581 -99.258819 
L 372.294068 -99.259858 
L 373.662327 -99.260724 
L 375.030586 -99.261446 
L 376.398845 -99.262048 
L 377.767104 -99.26255 
L 379.135363 -99.262969 
L 379.135363 -294.888955 
L 379.135363 -294.888955 
L 377.767104 -294.888536 
L 376.398845 -294.888034 
L 375.030586 -294.887432 
L 373.662327 -294.886709 
L 372.294068 -294.885843 
L 370.92581 -294.884805 
L 369.557551 -294.883559 
L 368.189292 -294.882065 
L 366.821033 -294.880274 
L 365.452774 -294.878126 
L 364.084515 -294.87555 
L 362.716256 -294.872462 
L 361.347998 -294.86876 
L 359.979739 -294.864321 
L 358.61148 -294.859 
L 357.243221 -294.852623 
L 355.874962 -294.844981 
L 354.506703 -294.835824 
L 353.138444 -294.824854 
L 351.770186 -294.811716 
L 350.401927 -294.795984 
L 349.033668 -294.777154 
L 347.665409 -294.754625 
L 346.29715 -294.727683 
L 344.928891 -294.695482 
L 343.560632 -294.657021 
L 342.192373 -294.611124 
L 340.824115 -294.556404 
L 339.455856 -294.491244 
L 338.087597 -294.413759 
L 336.719338 -294.321772 
L 335.351079 -294.212783 
L 333.98282 -294.083952 
L 332.614561 -293.932088 
L 331.246303 -293.753653 
L 329.878044 -293.544801 
L 328.509785 -293.301437 
L 327.141526 -293.019334 
L 325.773267 -292.694296 
L 324.405008 -292.322385 
L 323.036749 -291.900216 
L 321.668491 -291.425303 
L 320.300232 -290.896454 
L 318.931973 -290.314161 
L 317.563714 -289.680943 
L 316.195455 -289.001589 
L 314.827196 -288.283225 
L 313.458937 -287.535155 
L 312.090679 -286.768474 
L 310.72242 -285.995453 
L 309.354161 -285.228772 
L 307.985902 -284.480702 
L 306.617643 -283.762338 
L 305.249384 -283.082985 
L 303.881125 -282.449767 
L 302.512867 -281.867473 
L 301.144608 -281.338624 
L 299.776349 -280.863712 
L 298.40809 -280.441542 
L 297.039831 -280.069631 
L 295.671572 -279.744593 
L 294.303313 -279.46249 
L 292.935055 -279.219126 
L 291.566796 -279.010274 
L 290.198537 -278.831839 
L 288.830278 -278.679975 
L 287.462019 -278.551144 
L 286.09376 -278.442156 
L 284.725501 -278.350168 
L 283.357243 -278.272683 
L 281.988984 -278.207523 
L 280.620725 -278.152804 
L 279.252466 -278.106906 
L 277.884207 -278.068446 
L 276.515948 -278.036244 
L 275.147689 -278.009302 
L 273.779431 -277.986773 
L 272.411172 -277.967943 
L 271.042913 -277.952212 
L 269.674654 -277.939073 
L 268.306395 -277.928103 
L 266.938136 -277.918946 
L 265.569877 -277.911304 
L 264.201618 -277.904927 
L 262.83336 -277.899606 
L 261.465101 -277.895168 
L 260.096842 -277.891465 
L 258.728583 -277.888377 
L 257.360324 -277.885802 
L 255.992065 -277.883654 
L 254.623806 -277.881862 
L 253.255548 -277.880368 
L 251.887289 -277.879123 
L 250.51903 -277.878084 
L 249.150771 -277.877218 
L 247.782512 -277.876496 
L 246.414253 -277.875893 
L 245.045994 -277.875391 
L 243.677736 -277.874973 
z
"/>
    </defs>
    <g clip-path="url(#p1aa3940534)">
     <use xlink:href="#mb8300cc221" x="0" y="299.52" style="fill: #406992; fill-opacity: 0.05"/>
    </g>
   </g>
   <g id="tf-bar-YD-YD">
    <defs>
     <path id="m5cf3b24a9b" d="M 379.135363 -22.600145 
L 379.135363 -39.721755 
L 394.18621 -39.721755 
L 394.18621 -22.600145 
L 394.18621 -22.600145 
L 379.135363 -22.600145 
z
"/>
    </defs>
    <g clip-path="url(#p1aa3940534)">
     <use xlink:href="#m5cf3b24a9b" x="0" y="299.52" style="fill: #b78935; fill-opacity: 0.25"/>
    </g>
   </g>
   <g id="tf-bar-YD-ND">
    <defs>
     <path id="m71cef28934" d="M 379.135363 -51.067209 
L 379.135363 -56.468506 
L 394.18621 -56.468506 
L 394.18621 -51.067209 
L 394.18621 -51.067209 
L 379.135363 -51.067209 
z
"/>
    </defs>
    <g clip-path="url(#p1aa3940534)">
     <use xlink:href="#m71cef28934" x="0" y="299.52" style="fill: #dbc49a; fill-opacity: 0.25"/>
    </g>
   </g>
   <g id="tf-bar-ND-YD">
    <defs>
     <path id="m30613bc1d6" d="M 379.135363 -79.159415 
L 379.135363 -87.919615 
L 394.18621 -87.919615 
L 394.18621 -79.159415 
L 394.18621 -79.159415 
L 379.135363 -79.159415 
z
"/>
    </defs>
    <g clip-path="url(#p1aa3940534)">
     <use xlink:href="#m30613bc1d6" x="0" y="299.52" style="fill: #9fb4c8; fill-opacity: 0.25"/>
    </g>
   </g>
   <g id="tf-bar-ND-ND">
    <defs>
     <path id="m3b02f917d6" d="M 379.135363 -99.265069 
L 379.135363 -294.891055 
L 394.18621 -294.891055 
L 394.18621 -99.265069 
L 394.18621 -99.265069 
L 379.135363 -99.265069 
z
"/>
    </defs>
    <g clip-path="url(#p1aa3940534)">
     <use xlink:href="#m3b02f917d6" x="0" y="299.52" style="fill: #406992; fill-opacity: 0.25"/>
    </g>
   </g>
   <g id="text_1">
    <text style="font-weight: 300; font-size: 16px; font-family: 'Source Sans 3', sans-serif; fill: #494949" transform="translate(10.33799 136.06665)">All model</text>
    <text style="font-weight: 300; font-size: 16px; font-family: 'Source Sans 3', sans-serif; fill: #494949" transform="translate(-1.62951 153.48215)">predictions</text>
   </g>
   <g id="tf-label-YD">
    <text style="font-weight: 300; font-size: 16px; font-family: 'Source Sans 3', sans-serif; fill: #494949; opacity: 0" transform="translate(106.611464 226.30522)">Severe or extreme</text>
    <text style="font-weight: 300; font-size: 16px; font-family: 'Source Sans 3', sans-serif; fill: #494949; opacity: 0" transform="translate(100.076464 243.95172)">streamflow dought</text>
    <text style="font-weight: 300; font-size: 16px; font-family: 'Source Sans 3', sans-serif; fill: #494949; opacity: 0" transform="translate(159.471464 261.55972)">predicted</text>
    <text style="font-weight: 300; font-size: 16px; font-family: 'Source Sans 3', sans-serif; fill: #494949; opacity: 0" transform="translate(189.901464 278.97522)">9.9%</text>
   </g>
   <g id="tf-label-ND">
    <text style="font-weight: 300; font-size: 16px; font-family: 'Source Sans 3', sans-serif; fill: #494949; opacity: 0" transform="translate(104.848964 101.62072)">Neither severe nor</text>
    <text style="font-weight: 300; font-size: 16px; font-family: 'Source Sans 3', sans-serif; fill: #494949; opacity: 0" transform="translate(94.641464 119.03622)">extreme streamflow</text>
    <text style="font-weight: 300; font-size: 16px; font-family: 'Source Sans 3', sans-serif; fill: #494949; opacity: 0" transform="translate(109.868964 136.45172)">dought predicted</text>
    <text style="font-weight: 300; font-size: 16px; font-family: 'Source Sans 3', sans-serif; fill: #494949; opacity: 0" transform="translate(182.348964 154.05972)">90.1%</text>
   </g>
   <g id="tf-label-YD-YD">
    <text style="font-weight: 300; font-size: 16px; font-family: 'Source Sans 3', sans-serif; fill: #494949; opacity: 0" transform="translate(310.554939 254.86705)">Did occur</text>
    <text style="font-weight: 300; font-size: 16px; font-family: 'Source Sans 3', sans-serif; fill: #494949; opacity: 0" transform="translate(284.119939 272.43555)">(true positive)</text>
    <text style="font-weight: 300; font-size: 16px; font-family: 'Source Sans 3', sans-serif; fill: #494949; opacity: 0" transform="translate(340.409939 289.85105)">7.5%</text>
   </g>
   <g id="tf-label-YD-ND">
    <text style="font-weight: 300; font-size: 16px; font-family: 'Source Sans 3', sans-serif; fill: #494949; opacity: 0" transform="translate(285.594939 232.221142)">Did not occur</text>
    <text style="font-weight: 300; font-size: 16px; font-family: 'Source Sans 3', sans-serif; fill: #494949; opacity: 0" transform="translate(280.344939 249.867642)">(false positive)</text>
    <text style="font-weight: 300; font-size: 16px; font-family: 'Source Sans 3', sans-serif; fill: #494949; opacity: 0" transform="translate(340.409939 267.283142)">2.4%</text>
   </g>
   <g id="tf-label-ND-YD">
    <text style="font-weight: 300; font-size: 16px; font-family: 'Source Sans 3', sans-serif; fill: #494949; opacity: 0" transform="translate(257.119939 184.725985)">Severe or extreme</text>
    <text style="font-weight: 300; font-size: 16px; font-family: 'Source Sans 3', sans-serif; fill: #494949; opacity: 0" transform="translate(245.689939 202.372485)">streamflow drought</text>
    <text style="font-weight: 300; font-size: 16px; font-family: 'Source Sans 3', sans-serif; fill: #494949; opacity: 0" transform="translate(314.364939 219.980485)">occurred</text>
    <text style="font-weight: 300; font-size: 16px; font-family: 'Source Sans 3', sans-serif; fill: #494949; opacity: 0" transform="translate(275.932439 237.626985)">(false negative)</text>
    <text style="font-weight: 300; font-size: 16px; font-family: 'Source Sans 3', sans-serif; fill: #494949; opacity: 0" transform="translate(340.409939 255.234985)">3.9%</text>
   </g>
   <g id="tf-label-ND-ND">
    <text style="font-weight: 300; font-size: 16px; font-family: 'Source Sans 3', sans-serif; fill: #494949; opacity: 0" transform="translate(255.357439 71.341938)">Neither severe nor</text>
    <text style="font-weight: 300; font-size: 16px; font-family: 'Source Sans 3', sans-serif; fill: #494949; opacity: 0" transform="translate(245.149939 88.757438)">extreme streamflow</text>
    <text style="font-weight: 300; font-size: 16px; font-family: 'Source Sans 3', sans-serif; fill: #494949; opacity: 0" transform="translate(264.762439 106.172938)">dought occurred</text>
    <text style="font-weight: 300; font-size: 16px; font-family: 'Source Sans 3', sans-serif; fill: #494949; opacity: 0" transform="translate(279.707439 123.933938)">(true negative)</text>
    <text style="font-weight: 300; font-size: 16px; font-family: 'Source Sans 3', sans-serif; fill: #494949; opacity: 0" transform="translate(332.857439 141.541938)">86.2%</text>
   </g>
  </g>
 </g>
 <defs>
  <clipPath id="p1aa3940534">
   <rect x="10.3896" y="-8.9856" width="399.6" height="299.52"/>
  </clipPath>
 </defs>
</svg>
