<?xml version="1.0" encoding="utf-8" standalone="no"?>
<!DOCTYPE svg PUBLIC "-//W3C//DTD SVG 1.1//EN"
  "http://www.w3.org/Graphics/SVG/1.1/DTD/svg11.dtd">
<svg xmlns:xlink="http://www.w3.org/1999/xlink" width="699.84px" height="524.88px" viewBox="0 0 699.84 524.88" xmlns="http://www.w3.org/2000/svg" version="1.1">
  <defs>
  <style type="text/css">*{stroke-linejoin: round; stroke-linecap: butt}</style>
 </defs>
 <g id="figure-forecast_truefalse">
  <g id="patch_1">
   <path d="M 0 524.88 
L 699.84 524.88 
L 699.84 0 
L 0 0 
z
" style="fill: #ffffff"/>
  </g>
  <g id="axis-forecast_truefalse">
   <g id="FillBetweenPolyCollection_1">
    <defs>
     <path id="m76e03d87da" d="M 118.616949 -63.621818 
L 118.616949 -461.258182 
L 144.976271 -461.258182 
L 144.976271 -63.621818 
L 144.976271 -63.621818 
L 118.616949 -63.621818 
z
"/>
    </defs>
    <g clip-path="url(#p22705e1646)">
     <use xlink:href="#m76e03d87da" x="0" y="524.88" style="fill: #00264c"/>
    </g>
   </g>
   <g id="FillBetweenPolyCollection_2">
    <defs>
     <path id="m6aafa27c13" d="M 144.976271 -461.259408 
L 144.976271 -125.282923 
L 147.372573 -125.283168 
L 149.768875 -125.283461 
L 152.165177 -125.283813 
L 154.561479 -125.284235 
L 156.957781 -125.284741 
L 159.354083 -125.285347 
L 161.750385 -125.286075 
L 164.146687 -125.286948 
L 166.542989 -125.287994 
L 168.939291 -125.289249 
L 171.335593 -125.290753 
L 173.731895 -125.292557 
L 176.128197 -125.29472 
L 178.524499 -125.297312 
L 180.920801 -125.30042 
L 183.317103 -125.304145 
L 185.713405 -125.30861 
L 188.109707 -125.313958 
L 190.506009 -125.320366 
L 192.902311 -125.328041 
L 195.298613 -125.33723 
L 197.694915 -125.348229 
L 200.091217 -125.36139 
L 202.487519 -125.377128 
L 204.883821 -125.395937 
L 207.280123 -125.418403 
L 209.676425 -125.445214 
L 212.072727 -125.477177 
L 214.469029 -125.51524 
L 216.865331 -125.560501 
L 219.261633 -125.614234 
L 221.657935 -125.677898 
L 224.054237 -125.753153 
L 226.450539 -125.841862 
L 228.846841 -125.946092 
L 231.243143 -126.06809 
L 233.639445 -126.210247 
L 236.035747 -126.375033 
L 238.432049 -126.564899 
L 240.828351 -126.782145 
L 243.224653 -127.028749 
L 245.620955 -127.306162 
L 248.017257 -127.615081 
L 250.413559 -127.955219 
L 252.809861 -128.325103 
L 255.206163 -128.721937 
L 257.602465 -129.141559 
L 259.998767 -129.578532 
L 262.395069 -130.026377 
L 264.791371 -130.477925 
L 267.187673 -130.92577 
L 269.583975 -131.362744 
L 271.980277 -131.782365 
L 274.376579 -132.179199 
L 276.772881 -132.549083 
L 279.169183 -132.889221 
L 281.565485 -133.19814 
L 283.961787 -133.475553 
L 286.358089 -133.722157 
L 288.754391 -133.939403 
L 291.150693 -134.129269 
L 293.546995 -134.294055 
L 295.943297 -134.436212 
L 298.339599 -134.55821 
L 300.735901 -134.66244 
L 303.132203 -134.751149 
L 305.528505 -134.826404 
L 307.924807 -134.890068 
L 310.321109 -134.943801 
L 312.717411 -134.989062 
L 315.113713 -135.027125 
L 317.510015 -135.059088 
L 319.906317 -135.085899 
L 322.302619 -135.108365 
L 324.698921 -135.127175 
L 327.095223 -135.142912 
L 329.491525 -135.156073 
L 331.887827 -135.167072 
L 334.284129 -135.176261 
L 336.680431 -135.183936 
L 339.076733 -135.190344 
L 341.473035 -135.195692 
L 343.869337 -135.200157 
L 346.265639 -135.203882 
L 348.661941 -135.20699 
L 351.058243 -135.209582 
L 353.454545 -135.211745 
L 355.850847 -135.213549 
L 358.247149 -135.215053 
L 360.643451 -135.216308 
L 363.039753 -135.217354 
L 365.436055 -135.218227 
L 367.832357 -135.218955 
L 370.228659 -135.219561 
L 372.624961 -135.220067 
L 375.021263 -135.220489 
L 377.417565 -135.220841 
L 379.813867 -135.221134 
L 382.210169 -135.221379 
L 382.210169 -471.197864 
L 382.210169 -471.197864 
L 379.813867 -471.19762 
L 377.417565 -471.197326 
L 375.021263 -471.196975 
L 372.624961 -471.196553 
L 370.228659 -471.196047 
L 367.832357 -471.19544 
L 365.436055 -471.194712 
L 363.039753 -471.19384 
L 360.643451 -471.192793 
L 358.247149 -471.191539 
L 355.850847 -471.190034 
L 353.454545 -471.18823 
L 351.058243 -471.186068 
L 348.661941 -471.183475 
L 346.265639 -471.180367 
L 343.869337 -471.176642 
L 341.473035 -471.172178 
L 339.076733 -471.166829 
L 336.680431 -471.160421 
L 334.284129 -471.152746 
L 331.887827 -471.143557 
L 329.491525 -471.132558 
L 327.095223 -471.119398 
L 324.698921 -471.10366 
L 322.302619 -471.08485 
L 319.906317 -471.062384 
L 317.510015 -471.035574 
L 315.113713 -471.00361 
L 312.717411 -470.965548 
L 310.321109 -470.920286 
L 307.924807 -470.866553 
L 305.528505 -470.802889 
L 303.132203 -470.727635 
L 300.735901 -470.638925 
L 298.339599 -470.534696 
L 295.943297 -470.412698 
L 293.546995 -470.27054 
L 291.150693 -470.105754 
L 288.754391 -469.915888 
L 286.358089 -469.698642 
L 283.961787 -469.452038 
L 281.565485 -469.174625 
L 279.169183 -468.865707 
L 276.772881 -468.525569 
L 274.376579 -468.155684 
L 271.980277 -467.75885 
L 269.583975 -467.339229 
L 267.187673 -466.902255 
L 264.791371 -466.454411 
L 262.395069 -466.002862 
L 259.998767 -465.555017 
L 257.602465 -465.118044 
L 255.206163 -464.698422 
L 252.809861 -464.301589 
L 250.413559 -463.931704 
L 248.017257 -463.591566 
L 245.620955 -463.282647 
L 243.224653 -463.005234 
L 240.828351 -462.75863 
L 238.432049 -462.541384 
L 236.035747 -462.351518 
L 233.639445 -462.186732 
L 231.243143 -462.044575 
L 228.846841 -461.922577 
L 226.450539 -461.818347 
L 224.054237 -461.729638 
L 221.657935 -461.654384 
L 219.261633 -461.59072 
L 216.865331 -461.536987 
L 214.469029 -461.491725 
L 212.072727 -461.453663 
L 209.676425 -461.421699 
L 207.280123 -461.394889 
L 204.883821 -461.372423 
L 202.487519 -461.353613 
L 200.091217 -461.337875 
L 197.694915 -461.324715 
L 195.298613 -461.313716 
L 192.902311 -461.304526 
L 190.506009 -461.296852 
L 188.109707 -461.290444 
L 185.713405 -461.285095 
L 183.317103 -461.280631 
L 180.920801 -461.276906 
L 178.524499 -461.273798 
L 176.128197 -461.271205 
L 173.731895 -461.269042 
L 171.335593 -461.267238 
L 168.939291 -461.265734 
L 166.542989 -461.264479 
L 164.146687 -461.263433 
L 161.750385 -461.26256 
L 159.354083 -461.261833 
L 156.957781 -461.261226 
L 154.561479 -461.26072 
L 152.165177 -461.260298 
L 149.768875 -461.259946 
L 147.372573 -461.259653 
L 144.976271 -461.259408 
z
"/>
    </defs>
    <g clip-path="url(#p22705e1646)">
     <use xlink:href="#m6aafa27c13" x="0" y="524.88" style="fill: #406992; fill-opacity: 0.2"/>
    </g>
   </g>
   <g id="FillBetweenPolyCollection_3">
    <defs>
     <path id="mede8a2fa4e" d="M 144.976271 -63.620592 
L 144.976271 -125.28047 
L 147.372573 -125.280225 
L 149.768875 -125.279932 
L 152.165177 -125.27958 
L 154.561479 -125.279158 
L 156.957781 -125.278652 
L 159.354083 -125.278046 
L 161.750385 -125.277318 
L 164.146687 -125.276445 
L 166.542989 -125.275399 
L 168.939291 -125.274144 
L 171.335593 -125.27264 
L 173.731895 -125.270836 
L 176.128197 -125.268673 
L 178.524499 -125.26608 
L 180.920801 -125.262973 
L 183.317103 -125.259248 
L 185.713405 -125.254783 
L 188.109707 -125.249434 
L 190.506009 -125.243027 
L 192.902311 -125.235352 
L 195.298613 -125.226163 
L 197.694915 -125.215163 
L 200.091217 -125.202003 
L 202.487519 -125.186265 
L 204.883821 -125.167456 
L 207.280123 -125.14499 
L 209.676425 -125.118179 
L 212.072727 -125.086216 
L 214.469029 -125.048153 
L 216.865331 -125.002892 
L 219.261633 -124.949159 
L 221.657935 -124.885495 
L 224.054237 -124.81024 
L 226.450539 -124.721531 
L 228.846841 -124.617301 
L 231.243143 -124.495303 
L 233.639445 -124.353146 
L 236.035747 -124.18836 
L 238.432049 -123.998494 
L 240.828351 -123.781248 
L 243.224653 -123.534644 
L 245.620955 -123.257231 
L 248.017257 -122.948312 
L 250.413559 -122.608174 
L 252.809861 -122.23829 
L 255.206163 -121.841456 
L 257.602465 -121.421834 
L 259.998767 -120.984861 
L 262.395069 -120.537016 
L 264.791371 -120.085468 
L 267.187673 -119.637623 
L 269.583975 -119.200649 
L 271.980277 -118.781028 
L 274.376579 -118.384194 
L 276.772881 -118.01431 
L 279.169183 -117.674172 
L 281.565485 -117.365253 
L 283.961787 -117.08784 
L 286.358089 -116.841236 
L 288.754391 -116.62399 
L 291.150693 -116.434124 
L 293.546995 -116.269338 
L 295.943297 -116.127181 
L 298.339599 -116.005183 
L 300.735901 -115.900953 
L 303.132203 -115.812244 
L 305.528505 -115.736989 
L 307.924807 -115.673325 
L 310.321109 -115.619592 
L 312.717411 -115.574331 
L 315.113713 -115.536268 
L 317.510015 -115.504305 
L 319.906317 -115.477494 
L 322.302619 -115.455028 
L 324.698921 -115.436218 
L 327.095223 -115.42048 
L 329.491525 -115.40732 
L 331.887827 -115.396321 
L 334.284129 -115.387132 
L 336.680431 -115.379457 
L 339.076733 -115.373049 
L 341.473035 -115.3677 
L 343.869337 -115.363236 
L 346.265639 -115.359511 
L 348.661941 -115.356403 
L 351.058243 -115.353811 
L 353.454545 -115.351648 
L 355.850847 -115.349844 
L 358.247149 -115.34834 
L 360.643451 -115.347085 
L 363.039753 -115.346038 
L 365.436055 -115.345166 
L 367.832357 -115.344438 
L 370.228659 -115.343831 
L 372.624961 -115.343326 
L 375.021263 -115.342904 
L 377.417565 -115.342552 
L 379.813867 -115.342259 
L 382.210169 -115.342014 
L 382.210169 -53.682136 
L 382.210169 -53.682136 
L 379.813867 -53.68238 
L 377.417565 -53.682674 
L 375.021263 -53.683025 
L 372.624961 -53.683447 
L 370.228659 -53.683953 
L 367.832357 -53.68456 
L 365.436055 -53.685288 
L 363.039753 -53.68616 
L 360.643451 -53.687207 
L 358.247149 -53.688461 
L 355.850847 -53.689966 
L 353.454545 -53.69177 
L 351.058243 -53.693932 
L 348.661941 -53.696525 
L 346.265639 -53.699633 
L 343.869337 -53.703358 
L 341.473035 -53.707822 
L 339.076733 -53.713171 
L 336.680431 -53.719579 
L 334.284129 -53.727254 
L 331.887827 -53.736443 
L 329.491525 -53.747442 
L 327.095223 -53.760602 
L 324.698921 -53.77634 
L 322.302619 -53.79515 
L 319.906317 -53.817616 
L 317.510015 -53.844426 
L 315.113713 -53.87639 
L 312.717411 -53.914452 
L 310.321109 -53.959714 
L 307.924807 -54.013447 
L 305.528505 -54.077111 
L 303.132203 -54.152365 
L 300.735901 -54.241075 
L 298.339599 -54.345304 
L 295.943297 -54.467302 
L 293.546995 -54.60946 
L 291.150693 -54.774246 
L 288.754391 -54.964112 
L 286.358089 -55.181358 
L 283.961787 -55.427962 
L 281.565485 -55.705375 
L 279.169183 -56.014293 
L 276.772881 -56.354431 
L 274.376579 -56.724316 
L 271.980277 -57.12115 
L 269.583975 -57.540771 
L 267.187673 -57.977745 
L 264.791371 -58.425589 
L 262.395069 -58.877138 
L 259.998767 -59.324983 
L 257.602465 -59.761956 
L 255.206163 -60.181578 
L 252.809861 -60.578411 
L 250.413559 -60.948296 
L 248.017257 -61.288434 
L 245.620955 -61.597353 
L 243.224653 -61.874766 
L 240.828351 -62.12137 
L 238.432049 -62.338616 
L 236.035747 -62.528482 
L 233.639445 -62.693268 
L 231.243143 -62.835425 
L 228.846841 -62.957423 
L 226.450539 -63.061653 
L 224.054237 -63.150362 
L 221.657935 -63.225616 
L 219.261633 -63.28928 
L 216.865331 -63.343013 
L 214.469029 -63.388275 
L 212.072727 -63.426337 
L 209.676425 -63.458301 
L 207.280123 -63.485111 
L 204.883821 -63.507577 
L 202.487519 -63.526387 
L 200.091217 -63.542125 
L 197.694915 -63.555285 
L 195.298613 -63.566284 
L 192.902311 -63.575474 
L 190.506009 -63.583148 
L 188.109707 -63.589556 
L 185.713405 -63.594905 
L 183.317103 -63.599369 
L 180.920801 -63.603094 
L 178.524499 -63.606202 
L 176.128197 -63.608795 
L 173.731895 -63.610958 
L 171.335593 -63.612762 
L 168.939291 -63.614266 
L 166.542989 -63.615521 
L 164.146687 -63.616567 
L 161.750385 -63.61744 
L 159.354083 -63.618167 
L 156.957781 -63.618774 
L 154.561479 -63.61928 
L 152.165177 -63.619702 
L 149.768875 -63.620054 
L 147.372573 -63.620347 
L 144.976271 -63.620592 
z
"/>
    </defs>
    <g clip-path="url(#p22705e1646)">
     <use xlink:href="#mede8a2fa4e" x="0" y="524.88" style="fill: #b78935; fill-opacity: 0.2"/>
    </g>
   </g>
   <g id="FillBetweenPolyCollection_4">
    <defs>
     <path id="m8a7fc8e95b" d="M 382.210169 -135.222606 
L 382.210169 -471.199091 
L 408.569492 -471.199091 
L 408.569492 -135.222606 
L 408.569492 -135.222606 
L 382.210169 -135.222606 
z
"/>
    </defs>
    <g clip-path="url(#p22705e1646)">
     <use xlink:href="#m8a7fc8e95b" x="0" y="524.88" style="fill: #406992"/>
    </g>
   </g>
   <g id="FillBetweenPolyCollection_5">
    <defs>
     <path id="mdd339f3152" d="M 382.210169 -53.680909 
L 382.210169 -115.340787 
L 408.569492 -115.340787 
L 408.569492 -53.680909 
L 408.569492 -53.680909 
L 382.210169 -53.680909 
z
"/>
    </defs>
    <g clip-path="url(#p22705e1646)">
     <use xlink:href="#mdd339f3152" x="0" y="524.88" style="fill: #b78935"/>
    </g>
   </g>
   <g id="FillBetweenPolyCollection_6">
    <defs>
     <path id="m036d857dc5" d="M 645.80339 -23.858182 
L 645.80339 -56.125406 
L 672.162712 -56.125406 
L 672.162712 -23.858182 
L 672.162712 -23.858182 
L 645.80339 -23.858182 
z
"/>
    </defs>
    <g clip-path="url(#p22705e1646)">
     <use xlink:href="#m036d857dc5" x="0" y="524.88" style="fill: #b78935"/>
    </g>
   </g>
   <g id="FillBetweenPolyCollection_7">
    <defs>
     <path id="mc624fd47c7" d="M 645.80339 -76.007224 
L 645.80339 -105.399878 
L 672.162712 -105.399878 
L 672.162712 -76.007224 
L 672.162712 -76.007224 
L 645.80339 -76.007224 
z
"/>
    </defs>
    <g clip-path="url(#p22705e1646)">
     <use xlink:href="#mc624fd47c7" x="0" y="524.88" style="fill: #949494"/>
    </g>
   </g>
   <g id="FillBetweenPolyCollection_8">
    <defs>
     <path id="md2309e925a" d="M 645.80339 -145.163515 
L 645.80339 -200.370089 
L 672.162712 -200.370089 
L 672.162712 -145.163515 
L 672.162712 -145.163515 
L 645.80339 -145.163515 
z
"/>
    </defs>
    <g clip-path="url(#p22705e1646)">
     <use xlink:href="#md2309e925a" x="0" y="524.88" style="fill: #949494"/>
    </g>
   </g>
   <g id="FillBetweenPolyCollection_9">
    <defs>
     <path id="me985e55d2c" d="M 645.80339 -220.251908 
L 645.80339 -501.021818 
L 672.162712 -501.021818 
L 672.162712 -220.251908 
L 672.162712 -220.251908 
L 645.80339 -220.251908 
z
"/>
    </defs>
    <g clip-path="url(#p22705e1646)">
     <use xlink:href="#me985e55d2c" x="0" y="524.88" style="fill: #406992"/>
    </g>
   </g>
   <g id="FillBetweenPolyCollection_10">
    <defs>
     <path id="m2d2887643a" d="M 408.569492 -85.946907 
L 408.569492 -115.339561 
L 410.965794 -115.339316 
L 413.362096 -115.339023 
L 415.758398 -115.338671 
L 418.1547 -115.338249 
L 420.551002 -115.337743 
L 422.947304 -115.337137 
L 425.343606 -115.336409 
L 427.739908 -115.335536 
L 430.13621 -115.33449 
L 432.532512 -115.333235 
L 434.928814 -115.331731 
L 437.325116 -115.329927 
L 439.721418 -115.327764 
L 442.11772 -115.325171 
L 444.514022 -115.322063 
L 446.910324 -115.318338 
L 449.306626 -115.313874 
L 451.702928 -115.308525 
L 454.09923 -115.302117 
L 456.495532 -115.294443 
L 458.891834 -115.285253 
L 461.288136 -115.274254 
L 463.684438 -115.261094 
L 466.08074 -115.245356 
L 468.477042 -115.226546 
L 470.873344 -115.20408 
L 473.269646 -115.17727 
L 475.665948 -115.145306 
L 478.06225 -115.107244 
L 480.458552 -115.061983 
L 482.854854 -115.00825 
L 485.251156 -114.944586 
L 487.647458 -114.869331 
L 490.04376 -114.780622 
L 492.440062 -114.676392 
L 494.836364 -114.554394 
L 497.232666 -114.412237 
L 499.628968 -114.247451 
L 502.02527 -114.057585 
L 504.421572 -113.840339 
L 506.817874 -113.593735 
L 509.214176 -113.316322 
L 511.610478 -113.007403 
L 514.00678 -112.667265 
L 516.403082 -112.297381 
L 518.799384 -111.900547 
L 521.195686 -111.480925 
L 523.591988 -111.043952 
L 525.98829 -110.596107 
L 528.384592 -110.144559 
L 530.780894 -109.696714 
L 533.177196 -109.25974 
L 535.573498 -108.840119 
L 537.9698 -108.443285 
L 540.366102 -108.073401 
L 542.762404 -107.733263 
L 545.158706 -107.424344 
L 547.555008 -107.146931 
L 549.95131 -106.900327 
L 552.347612 -106.683081 
L 554.743914 -106.493215 
L 557.140216 -106.328429 
L 559.536518 -106.186272 
L 561.93282 -106.064274 
L 564.329122 -105.960044 
L 566.725424 -105.871335 
L 569.121726 -105.79608 
L 571.518028 -105.732416 
L 573.91433 -105.678683 
L 576.310632 -105.633422 
L 578.706934 -105.595359 
L 581.103236 -105.563396 
L 583.499538 -105.536585 
L 585.89584 -105.514119 
L 588.292142 -105.495309 
L 590.688444 -105.479571 
L 593.084746 -105.466411 
L 595.481048 -105.455412 
L 597.87735 -105.446223 
L 600.273652 -105.438548 
L 602.669954 -105.43214 
L 605.066256 -105.426791 
L 607.462558 -105.422327 
L 609.85886 -105.418602 
L 612.255162 -105.415494 
L 614.651464 -105.412902 
L 617.047766 -105.410739 
L 619.444068 -105.408935 
L 621.84037 -105.40743 
L 624.236672 -105.406176 
L 626.632974 -105.405129 
L 629.029276 -105.404257 
L 631.425578 -105.403529 
L 633.82188 -105.402922 
L 636.218182 -105.402416 
L 638.614484 -105.401995 
L 641.010786 -105.401643 
L 643.407088 -105.401349 
L 645.80339 -105.401105 
L 645.80339 -76.008451 
L 645.80339 -76.008451 
L 643.407088 -76.008695 
L 641.010786 -76.008989 
L 638.614484 -76.00934 
L 636.218182 -76.009762 
L 633.82188 -76.010268 
L 631.425578 -76.010875 
L 629.029276 -76.011603 
L 626.632974 -76.012475 
L 624.236672 -76.013522 
L 621.84037 -76.014776 
L 619.444068 -76.016281 
L 617.047766 -76.018085 
L 614.651464 -76.020247 
L 612.255162 -76.02284 
L 609.85886 -76.025948 
L 607.462558 -76.029673 
L 605.066256 -76.034137 
L 602.669954 -76.039486 
L 600.273652 -76.045894 
L 597.87735 -76.053569 
L 595.481048 -76.062758 
L 593.084746 -76.073757 
L 590.688444 -76.086917 
L 588.292142 -76.102655 
L 585.89584 -76.121465 
L 583.499538 -76.143931 
L 581.103236 -76.170741 
L 578.706934 -76.202705 
L 576.310632 -76.240767 
L 573.91433 -76.286029 
L 571.518028 -76.339762 
L 569.121726 -76.403426 
L 566.725424 -76.47868 
L 564.329122 -76.56739 
L 561.93282 -76.67162 
L 559.536518 -76.793617 
L 557.140216 -76.935775 
L 554.743914 -77.100561 
L 552.347612 -77.290427 
L 549.95131 -77.507673 
L 547.555008 -77.754277 
L 545.158706 -78.03169 
L 542.762404 -78.340608 
L 540.366102 -78.680746 
L 537.9698 -79.050631 
L 535.573498 -79.447465 
L 533.177196 -79.867086 
L 530.780894 -80.30406 
L 528.384592 -80.751904 
L 525.98829 -81.203453 
L 523.591988 -81.651298 
L 521.195686 -82.088271 
L 518.799384 -82.507893 
L 516.403082 -82.904726 
L 514.00678 -83.274611 
L 511.610478 -83.614749 
L 509.214176 -83.923668 
L 506.817874 -84.201081 
L 504.421572 -84.447685 
L 502.02527 -84.664931 
L 499.628968 -84.854797 
L 497.232666 -85.019583 
L 494.836364 -85.16174 
L 492.440062 -85.283738 
L 490.04376 -85.387968 
L 487.647458 -85.476677 
L 485.251156 -85.551931 
L 482.854854 -85.615595 
L 480.458552 -85.669328 
L 478.06225 -85.71459 
L 475.665948 -85.752652 
L 473.269646 -85.784616 
L 470.873344 -85.811426 
L 468.477042 -85.833892 
L 466.08074 -85.852702 
L 463.684438 -85.86844 
L 461.288136 -85.8816 
L 458.891834 -85.892599 
L 456.495532 -85.901789 
L 454.09923 -85.909463 
L 451.702928 -85.915871 
L 449.306626 -85.92122 
L 446.910324 -85.925684 
L 444.514022 -85.929409 
L 442.11772 -85.932517 
L 439.721418 -85.93511 
L 437.325116 -85.937273 
L 434.928814 -85.939077 
L 432.532512 -85.940581 
L 430.13621 -85.941836 
L 427.739908 -85.942882 
L 425.343606 -85.943755 
L 422.947304 -85.944482 
L 420.551002 -85.945089 
L 418.1547 -85.945595 
L 415.758398 -85.946017 
L 413.362096 -85.946369 
L 410.965794 -85.946662 
L 408.569492 -85.946907 
z
"/>
    </defs>
    <g clip-path="url(#p22705e1646)">
     <use xlink:href="#m2d2887643a" x="0" y="524.88" style="fill: #949494; fill-opacity: 0.2"/>
    </g>
   </g>
   <g id="FillBetweenPolyCollection_11">
    <defs>
     <path id="mbf5a02eb7b" d="M 408.569492 -53.677229 
L 408.569492 -85.944453 
L 410.965794 -85.94372 
L 413.362096 -85.94284 
L 415.758398 -85.941784 
L 418.1547 -85.940519 
L 420.551002 -85.939001 
L 422.947304 -85.937181 
L 425.343606 -85.934998 
L 427.739908 -85.93238 
L 430.13621 -85.929241 
L 432.532512 -85.925477 
L 434.928814 -85.920963 
L 437.325116 -85.915551 
L 439.721418 -85.909063 
L 442.11772 -85.901285 
L 444.514022 -85.891961 
L 446.910324 -85.880786 
L 449.306626 -85.867394 
L 451.702928 -85.851347 
L 454.09923 -85.832123 
L 456.495532 -85.809099 
L 458.891834 -85.781532 
L 461.288136 -85.748534 
L 463.684438 -85.709054 
L 466.08074 -85.66184 
L 468.477042 -85.60541 
L 470.873344 -85.538013 
L 473.269646 -85.457581 
L 475.665948 -85.361691 
L 478.06225 -85.247503 
L 480.458552 -85.111719 
L 482.854854 -84.95052 
L 485.251156 -84.759528 
L 487.647458 -84.533764 
L 490.04376 -84.267636 
L 492.440062 -83.954947 
L 494.836364 -83.588953 
L 497.232666 -83.162482 
L 499.628968 -82.668124 
L 502.02527 -82.098526 
L 504.421572 -81.446787 
L 506.817874 -80.706975 
L 509.214176 -79.874737 
L 511.610478 -78.94798 
L 514.00678 -77.927567 
L 516.403082 -76.817913 
L 518.799384 -75.627412 
L 521.195686 -74.368547 
L 523.591988 -73.057627 
L 525.98829 -71.714092 
L 528.384592 -70.359447 
L 530.780894 -69.015912 
L 533.177196 -67.704992 
L 535.573498 -66.446128 
L 537.9698 -65.255626 
L 540.366102 -64.145973 
L 542.762404 -63.125559 
L 545.158706 -62.198802 
L 547.555008 -61.366564 
L 549.95131 -60.626752 
L 552.347612 -59.975014 
L 554.743914 -59.405415 
L 557.140216 -58.911058 
L 559.536518 -58.484586 
L 561.93282 -58.118592 
L 564.329122 -57.805903 
L 566.725424 -57.539775 
L 569.121726 -57.314012 
L 571.518028 -57.123019 
L 573.91433 -56.961821 
L 576.310632 -56.826036 
L 578.706934 -56.711849 
L 581.103236 -56.615958 
L 583.499538 -56.535527 
L 585.89584 -56.468129 
L 588.292142 -56.411699 
L 590.688444 -56.364485 
L 593.084746 -56.325005 
L 595.481048 -56.292008 
L 597.87735 -56.26444 
L 600.273652 -56.241416 
L 602.669954 -56.222192 
L 605.066256 -56.206145 
L 607.462558 -56.192753 
L 609.85886 -56.181578 
L 612.255162 -56.172254 
L 614.651464 -56.164476 
L 617.047766 -56.157988 
L 619.444068 -56.152576 
L 621.84037 -56.148062 
L 624.236672 -56.144298 
L 626.632974 -56.141159 
L 629.029276 -56.138541 
L 631.425578 -56.136358 
L 633.82188 -56.134538 
L 636.218182 -56.13302 
L 638.614484 -56.131755 
L 641.010786 -56.130699 
L 643.407088 -56.12982 
L 645.80339 -56.129086 
L 645.80339 -23.861862 
L 645.80339 -23.861862 
L 643.407088 -23.862595 
L 641.010786 -23.863475 
L 638.614484 -23.864531 
L 636.218182 -23.865796 
L 633.82188 -23.867314 
L 631.425578 -23.869134 
L 629.029276 -23.871317 
L 626.632974 -23.873935 
L 624.236672 -23.877074 
L 621.84037 -23.880838 
L 619.444068 -23.885352 
L 617.047766 -23.890764 
L 614.651464 -23.897252 
L 612.255162 -23.90503 
L 609.85886 -23.914354 
L 607.462558 -23.925529 
L 605.066256 -23.938921 
L 602.669954 -23.954968 
L 600.273652 -23.974192 
L 597.87735 -23.997216 
L 595.481048 -24.024783 
L 593.084746 -24.057781 
L 590.688444 -24.097261 
L 588.292142 -24.144475 
L 585.89584 -24.200905 
L 583.499538 -24.268302 
L 581.103236 -24.348734 
L 578.706934 -24.444624 
L 576.310632 -24.558812 
L 573.91433 -24.694596 
L 571.518028 -24.855795 
L 569.121726 -25.046787 
L 566.725424 -25.272551 
L 564.329122 -25.538679 
L 561.93282 -25.851368 
L 559.536518 -26.217362 
L 557.140216 -26.643833 
L 554.743914 -27.138191 
L 552.347612 -27.707789 
L 549.95131 -28.359528 
L 547.555008 -29.09934 
L 545.158706 -29.931578 
L 542.762404 -30.858335 
L 540.366102 -31.878748 
L 537.9698 -32.988402 
L 535.573498 -34.178903 
L 533.177196 -35.437768 
L 530.780894 -36.748688 
L 528.384592 -38.092223 
L 525.98829 -39.446868 
L 523.591988 -40.790403 
L 521.195686 -42.101323 
L 518.799384 -43.360187 
L 516.403082 -44.550689 
L 514.00678 -45.660342 
L 511.610478 -46.680756 
L 509.214176 -47.607513 
L 506.817874 -48.439751 
L 504.421572 -49.179563 
L 502.02527 -49.831301 
L 499.628968 -50.4009 
L 497.232666 -50.895257 
L 494.836364 -51.321729 
L 492.440062 -51.687723 
L 490.04376 -52.000412 
L 487.647458 -52.26654 
L 485.251156 -52.492303 
L 482.854854 -52.683296 
L 480.458552 -52.844494 
L 478.06225 -52.980279 
L 475.665948 -53.094466 
L 473.269646 -53.190357 
L 470.873344 -53.270788 
L 468.477042 -53.338186 
L 466.08074 -53.394616 
L 463.684438 -53.44183 
L 461.288136 -53.48131 
L 458.891834 -53.514307 
L 456.495532 -53.541875 
L 454.09923 -53.564899 
L 451.702928 -53.584123 
L 449.306626 -53.60017 
L 446.910324 -53.613562 
L 444.514022 -53.624737 
L 442.11772 -53.634061 
L 439.721418 -53.641839 
L 437.325116 -53.648327 
L 434.928814 -53.653739 
L 432.532512 -53.658253 
L 430.13621 -53.662017 
L 427.739908 -53.665156 
L 425.343606 -53.667774 
L 422.947304 -53.669957 
L 420.551002 -53.671777 
L 418.1547 -53.673295 
L 415.758398 -53.67456 
L 413.362096 -53.675616 
L 410.965794 -53.676495 
L 408.569492 -53.677229 
z
"/>
    </defs>
    <g clip-path="url(#p22705e1646)">
     <use xlink:href="#mbf5a02eb7b" x="0" y="524.88" style="fill: #b78935; fill-opacity: 0.2"/>
    </g>
   </g>
   <g id="FillBetweenPolyCollection_12">
    <defs>
     <path id="m8ae778f5bd" d="M 408.569492 -190.430407 
L 408.569492 -135.223832 
L 410.965794 -135.224077 
L 413.362096 -135.22437 
L 415.758398 -135.224722 
L 418.1547 -135.225144 
L 420.551002 -135.22565 
L 422.947304 -135.226256 
L 425.343606 -135.226984 
L 427.739908 -135.227857 
L 430.13621 -135.228903 
L 432.532512 -135.230158 
L 434.928814 -135.231662 
L 437.325116 -135.233466 
L 439.721418 -135.235629 
L 442.11772 -135.238222 
L 444.514022 -135.241329 
L 446.910324 -135.245055 
L 449.306626 -135.249519 
L 451.702928 -135.254868 
L 454.09923 -135.261275 
L 456.495532 -135.26895 
L 458.891834 -135.278139 
L 461.288136 -135.289139 
L 463.684438 -135.302299 
L 466.08074 -135.318037 
L 468.477042 -135.336847 
L 470.873344 -135.359312 
L 473.269646 -135.386123 
L 475.665948 -135.418086 
L 478.06225 -135.456149 
L 480.458552 -135.50141 
L 482.854854 -135.555143 
L 485.251156 -135.618807 
L 487.647458 -135.694062 
L 490.04376 -135.782771 
L 492.440062 -135.887001 
L 494.836364 -136.008999 
L 497.232666 -136.151156 
L 499.628968 -136.315942 
L 502.02527 -136.505808 
L 504.421572 -136.723054 
L 506.817874 -136.969658 
L 509.214176 -137.247071 
L 511.610478 -137.55599 
L 514.00678 -137.896128 
L 516.403082 -138.266012 
L 518.799384 -138.662846 
L 521.195686 -139.082468 
L 523.591988 -139.519441 
L 525.98829 -139.967286 
L 528.384592 -140.418834 
L 530.780894 -140.866679 
L 533.177196 -141.303653 
L 535.573498 -141.723274 
L 537.9698 -142.120108 
L 540.366102 -142.489992 
L 542.762404 -142.83013 
L 545.158706 -143.139049 
L 547.555008 -143.416462 
L 549.95131 -143.663066 
L 552.347612 -143.880312 
L 554.743914 -144.070178 
L 557.140216 -144.234964 
L 559.536518 -144.377121 
L 561.93282 -144.499119 
L 564.329122 -144.603349 
L 566.725424 -144.692058 
L 569.121726 -144.767313 
L 571.518028 -144.830977 
L 573.91433 -144.88471 
L 576.310632 -144.929971 
L 578.706934 -144.968034 
L 581.103236 -144.999997 
L 583.499538 -145.026808 
L 585.89584 -145.049274 
L 588.292142 -145.068084 
L 590.688444 -145.083822 
L 593.084746 -145.096982 
L 595.481048 -145.107981 
L 597.87735 -145.11717 
L 600.273652 -145.124845 
L 602.669954 -145.131253 
L 605.066256 -145.136602 
L 607.462558 -145.141066 
L 609.85886 -145.144791 
L 612.255162 -145.147899 
L 614.651464 -145.150491 
L 617.047766 -145.152654 
L 619.444068 -145.154458 
L 621.84037 -145.155962 
L 624.236672 -145.157217 
L 626.632974 -145.158264 
L 629.029276 -145.159136 
L 631.425578 -145.159864 
L 633.82188 -145.160471 
L 636.218182 -145.160977 
L 638.614484 -145.161398 
L 641.010786 -145.16175 
L 643.407088 -145.162043 
L 645.80339 -145.162288 
L 645.80339 -200.368863 
L 645.80339 -200.368863 
L 643.407088 -200.368618 
L 641.010786 -200.368325 
L 638.614484 -200.367973 
L 636.218182 -200.367551 
L 633.82188 -200.367045 
L 631.425578 -200.366439 
L 629.029276 -200.365711 
L 626.632974 -200.364838 
L 624.236672 -200.363792 
L 621.84037 -200.362537 
L 619.444068 -200.361033 
L 617.047766 -200.359229 
L 614.651464 -200.357066 
L 612.255162 -200.354473 
L 609.85886 -200.351365 
L 607.462558 -200.34764 
L 605.066256 -200.343176 
L 602.669954 -200.337827 
L 600.273652 -200.331419 
L 597.87735 -200.323745 
L 595.481048 -200.314555 
L 593.084746 -200.303556 
L 590.688444 -200.290396 
L 588.292142 -200.274658 
L 585.89584 -200.255848 
L 583.499538 -200.233382 
L 581.103236 -200.206572 
L 578.706934 -200.174608 
L 576.310632 -200.136546 
L 573.91433 -200.091284 
L 571.518028 -200.037552 
L 569.121726 -199.973888 
L 566.725424 -199.898633 
L 564.329122 -199.809924 
L 561.93282 -199.705694 
L 559.536518 -199.583696 
L 557.140216 -199.441539 
L 554.743914 -199.276753 
L 552.347612 -199.086887 
L 549.95131 -198.869641 
L 547.555008 -198.623037 
L 545.158706 -198.345624 
L 542.762404 -198.036705 
L 540.366102 -197.696567 
L 537.9698 -197.326683 
L 535.573498 -196.929849 
L 533.177196 -196.510227 
L 530.780894 -196.073254 
L 528.384592 -195.625409 
L 525.98829 -195.173861 
L 523.591988 -194.726016 
L 521.195686 -194.289042 
L 518.799384 -193.869421 
L 516.403082 -193.472587 
L 514.00678 -193.102703 
L 511.610478 -192.762565 
L 509.214176 -192.453646 
L 506.817874 -192.176233 
L 504.421572 -191.929629 
L 502.02527 -191.712383 
L 499.628968 -191.522517 
L 497.232666 -191.357731 
L 494.836364 -191.215574 
L 492.440062 -191.093576 
L 490.04376 -190.989346 
L 487.647458 -190.900637 
L 485.251156 -190.825382 
L 482.854854 -190.761718 
L 480.458552 -190.707985 
L 478.06225 -190.662724 
L 475.665948 -190.624661 
L 473.269646 -190.592698 
L 470.873344 -190.565887 
L 468.477042 -190.543421 
L 466.08074 -190.524611 
L 463.684438 -190.508873 
L 461.288136 -190.495713 
L 458.891834 -190.484714 
L 456.495532 -190.475525 
L 454.09923 -190.46785 
L 451.702928 -190.461442 
L 449.306626 -190.456093 
L 446.910324 -190.451629 
L 444.514022 -190.447904 
L 442.11772 -190.444796 
L 439.721418 -190.442204 
L 437.325116 -190.440041 
L 434.928814 -190.438237 
L 432.532512 -190.436732 
L 430.13621 -190.435478 
L 427.739908 -190.434431 
L 425.343606 -190.433559 
L 422.947304 -190.432831 
L 420.551002 -190.432224 
L 418.1547 -190.431718 
L 415.758398 -190.431297 
L 413.362096 -190.430945 
L 410.965794 -190.430651 
L 408.569492 -190.430407 
z
"/>
    </defs>
    <g clip-path="url(#p22705e1646)">
     <use xlink:href="#m8ae778f5bd" x="0" y="524.88" style="fill: #949494; fill-opacity: 0.2"/>
    </g>
   </g>
   <g id="FillBetweenPolyCollection_13">
    <defs>
     <path id="m0cf2642be1" d="M 408.569492 -471.202771 
L 408.569492 -190.43286 
L 410.965794 -190.433594 
L 413.362096 -190.434474 
L 415.758398 -190.435529 
L 418.1547 -190.436795 
L 420.551002 -190.438313 
L 422.947304 -190.440133 
L 425.343606 -190.442316 
L 427.739908 -190.444933 
L 430.13621 -190.448073 
L 432.532512 -190.451837 
L 434.928814 -190.45635 
L 437.325116 -190.461762 
L 439.721418 -190.46825 
L 442.11772 -190.476028 
L 444.514022 -190.485352 
L 446.910324 -190.496527 
L 449.306626 -190.509919 
L 451.702928 -190.525966 
L 454.09923 -190.54519 
L 456.495532 -190.568214 
L 458.891834 -190.595782 
L 461.288136 -190.628779 
L 463.684438 -190.66826 
L 466.08074 -190.715473 
L 468.477042 -190.771903 
L 470.873344 -190.839301 
L 473.269646 -190.919732 
L 475.665948 -191.015623 
L 478.06225 -191.12981 
L 480.458552 -191.265595 
L 482.854854 -191.426794 
L 485.251156 -191.617786 
L 487.647458 -191.843549 
L 490.04376 -192.109677 
L 492.440062 -192.422366 
L 494.836364 -192.78836 
L 497.232666 -193.214832 
L 499.628968 -193.70919 
L 502.02527 -194.278788 
L 504.421572 -194.930526 
L 506.817874 -195.670338 
L 509.214176 -196.502577 
L 511.610478 -197.429333 
L 514.00678 -198.449747 
L 516.403082 -199.559401 
L 518.799384 -200.749902 
L 521.195686 -202.008766 
L 523.591988 -203.319687 
L 525.98829 -204.663221 
L 528.384592 -206.017867 
L 530.780894 -207.361401 
L 533.177196 -208.672321 
L 535.573498 -209.931186 
L 537.9698 -211.121687 
L 540.366102 -212.231341 
L 542.762404 -213.251755 
L 545.158706 -214.178511 
L 547.555008 -215.01075 
L 549.95131 -215.750562 
L 552.347612 -216.4023 
L 554.743914 -216.971898 
L 557.140216 -217.466256 
L 559.536518 -217.892728 
L 561.93282 -218.258721 
L 564.329122 -218.571411 
L 566.725424 -218.837539 
L 569.121726 -219.063302 
L 571.518028 -219.254294 
L 573.91433 -219.415493 
L 576.310632 -219.551278 
L 578.706934 -219.665465 
L 581.103236 -219.761356 
L 583.499538 -219.841787 
L 585.89584 -219.909185 
L 588.292142 -219.965614 
L 590.688444 -220.012828 
L 593.084746 -220.052308 
L 595.481048 -220.085306 
L 597.87735 -220.112874 
L 600.273652 -220.135898 
L 602.669954 -220.155122 
L 605.066256 -220.171168 
L 607.462558 -220.184561 
L 609.85886 -220.195736 
L 612.255162 -220.20506 
L 614.651464 -220.212838 
L 617.047766 -220.219326 
L 619.444068 -220.224738 
L 621.84037 -220.229251 
L 624.236672 -220.233015 
L 626.632974 -220.236154 
L 629.029276 -220.238772 
L 631.425578 -220.240955 
L 633.82188 -220.242775 
L 636.218182 -220.244293 
L 638.614484 -220.245559 
L 641.010786 -220.246614 
L 643.407088 -220.247494 
L 645.80339 -220.248228 
L 645.80339 -501.018138 
L 645.80339 -501.018138 
L 643.407088 -501.017405 
L 641.010786 -501.016525 
L 638.614484 -501.015469 
L 636.218182 -501.014204 
L 633.82188 -501.012686 
L 631.425578 -501.010866 
L 629.029276 -501.008683 
L 626.632974 -501.006065 
L 624.236672 -501.002926 
L 621.84037 -500.999162 
L 619.444068 -500.994648 
L 617.047766 -500.989236 
L 614.651464 -500.982748 
L 612.255162 -500.97497 
L 609.85886 -500.965646 
L 607.462558 -500.954471 
L 605.066256 -500.941079 
L 602.669954 -500.925032 
L 600.273652 -500.905808 
L 597.87735 -500.882784 
L 595.481048 -500.855217 
L 593.084746 -500.822219 
L 590.688444 -500.782739 
L 588.292142 -500.735525 
L 585.89584 -500.679095 
L 583.499538 -500.611698 
L 581.103236 -500.531266 
L 578.706934 -500.435376 
L 576.310632 -500.321188 
L 573.91433 -500.185404 
L 571.518028 -500.024205 
L 569.121726 -499.833213 
L 566.725424 -499.607449 
L 564.329122 -499.341321 
L 561.93282 -499.028632 
L 559.536518 -498.662638 
L 557.140216 -498.236167 
L 554.743914 -497.741809 
L 552.347612 -497.172211 
L 549.95131 -496.520472 
L 547.555008 -495.78066 
L 545.158706 -494.948422 
L 542.762404 -494.021665 
L 540.366102 -493.001252 
L 537.9698 -491.891598 
L 535.573498 -490.701097 
L 533.177196 -489.442232 
L 530.780894 -488.131312 
L 528.384592 -486.787777 
L 525.98829 -485.433132 
L 523.591988 -484.089597 
L 521.195686 -482.778677 
L 518.799384 -481.519813 
L 516.403082 -480.329311 
L 514.00678 -479.219658 
L 511.610478 -478.199244 
L 509.214176 -477.272487 
L 506.817874 -476.440249 
L 504.421572 -475.700437 
L 502.02527 -475.048699 
L 499.628968 -474.4791 
L 497.232666 -473.984743 
L 494.836364 -473.558271 
L 492.440062 -473.192277 
L 490.04376 -472.879588 
L 487.647458 -472.61346 
L 485.251156 -472.387697 
L 482.854854 -472.196704 
L 480.458552 -472.035506 
L 478.06225 -471.899721 
L 475.665948 -471.785534 
L 473.269646 -471.689643 
L 470.873344 -471.609212 
L 468.477042 -471.541814 
L 466.08074 -471.485384 
L 463.684438 -471.43817 
L 461.288136 -471.39869 
L 458.891834 -471.365693 
L 456.495532 -471.338125 
L 454.09923 -471.315101 
L 451.702928 -471.295877 
L 449.306626 -471.27983 
L 446.910324 -471.266438 
L 444.514022 -471.255263 
L 442.11772 -471.245939 
L 439.721418 -471.238161 
L 437.325116 -471.231673 
L 434.928814 -471.226261 
L 432.532512 -471.221747 
L 430.13621 -471.217983 
L 427.739908 -471.214844 
L 425.343606 -471.212226 
L 422.947304 -471.210043 
L 420.551002 -471.208223 
L 418.1547 -471.206705 
L 415.758398 -471.20544 
L 413.362096 -471.204384 
L 410.965794 -471.203505 
L 408.569492 -471.202771 
z
"/>
    </defs>
    <g clip-path="url(#p22705e1646)">
     <use xlink:href="#m0cf2642be1" x="0" y="524.88" style="fill: #406992; fill-opacity: 0.2"/>
    </g>
   </g>
   <g id="text_1">
    <text style="font-weight: 300; font-size: 16px; font-family: 'Source Sans 3', sans-serif; fill: #595959" transform="translate(14.302288 257.73225)">All Predictions</text>
    <text style="font-weight: 300; font-size: 16px; font-family: 'Source Sans 3', sans-serif; fill: #595959" transform="translate(70.012288 275.14775)">100%</text>
   </g>
   <g id="text_2">
    <text style="font-weight: 300; font-size: 16px; font-family: 'Source Sans 3', sans-serif; fill: #595959" transform="translate(251.910508 435.565152)">Drought Predicted</text>
    <text style="font-weight: 300; font-size: 16px; font-family: 'Source Sans 3', sans-serif; fill: #595959" transform="translate(330.278008 453.173152)">15.5%</text>
   </g>
   <g id="text_3">
    <text style="font-weight: 300; font-size: 16px; font-family: 'Source Sans 3', sans-serif; fill: #595959" transform="translate(230.085508 216.865152)">No Drought Predicted</text>
    <text style="font-weight: 300; font-size: 16px; font-family: 'Source Sans 3', sans-serif; fill: #595959" transform="translate(330.278008 234.473152)">84.5%</text>
   </g>
   <g id="text_4">
    <text style="font-weight: 300; font-size: 16px; font-family: 'Source Sans 3', sans-serif; fill: #595959" transform="translate(548.463729 480.084206)">Drought Obs.</text>
    <text style="font-weight: 300; font-size: 16px; font-family: 'Source Sans 3', sans-serif; fill: #595959" transform="translate(601.423729 497.692206)">8.1%</text>
   </g>
   <g id="text_5">
    <text style="font-weight: 300; font-size: 16px; font-family: 'Source Sans 3', sans-serif; fill: #595959" transform="translate(526.638729 429.372449)">No Drought Obs.</text>
    <text style="font-weight: 300; font-size: 16px; font-family: 'Source Sans 3', sans-serif; fill: #595959" transform="translate(601.423729 446.980449)">7.4%</text>
   </g>
   <g id="text_6">
    <text style="font-weight: 300; font-size: 16px; font-family: 'Source Sans 3', sans-serif; fill: #595959" transform="translate(548.463729 347.309198)">Drought Obs.</text>
    <text style="font-weight: 300; font-size: 16px; font-family: 'Source Sans 3', sans-serif; fill: #595959" transform="translate(593.871229 364.917198)">13.9%</text>
   </g>
   <g id="text_7">
    <text style="font-weight: 300; font-size: 16px; font-family: 'Source Sans 3', sans-serif; fill: #595959" transform="translate(526.638729 159.439137)">No Drought Obs.</text>
    <text style="font-weight: 300; font-size: 16px; font-family: 'Source Sans 3', sans-serif; fill: #595959" transform="translate(593.871229 177.047137)">70.6%</text>
   </g>
  </g>
 </g>
 <defs>
  <clipPath id="p22705e1646">
   <rect x="0" y="0" width="699.84" height="524.88"/>
  </clipPath>
 </defs>
</svg>
