<?xml version="1.0" encoding="utf-8" standalone="no"?>
<!DOCTYPE svg PUBLIC "-//W3C//DTD SVG 1.1//EN"
  "http://www.w3.org/Graphics/SVG/1.1/DTD/svg11.dtd">
<svg xmlns:xlink="http://www.w3.org/1999/xlink" width="699.84px" height="524.88px" viewBox="0 0 699.84 524.88" xmlns="http://www.w3.org/2000/svg" version="1.1">
  <defs>
  <style type="text/css">*{stroke-linejoin: round; stroke-linecap: butt}</style>
 </defs>
 <g id="figure-forecast_truefalse_key">
  <g id="patch_1">
   <path d="M 0 524.88 
L 699.84 524.88 
L 699.84 0 
L 0 0 
z
" style="fill: #ffffff"/>
  </g>
  <g id="axis-forecast_truefalse_key">
   <g id="FillBetweenPolyCollection_1">
    <defs>
     <path id="m4c8340e172" d="M 136.812789 -79.368218 
L 136.812789 -477.004582 
L 163.172111 -477.004582 
L 163.172111 -79.368218 
L 163.172111 -79.368218 
L 136.812789 -79.368218 
z
"/>
    </defs>
    <g clip-path="url(#pe8bcafd4fa)">
     <use xlink:href="#m4c8340e172" x="0" y="524.88" style="fill: #00264c"/>
    </g>
   </g>
   <g id="tf-swoop-ND">
    <defs>
     <path id="mec43458517" d="M 163.172111 -477.005808 
L 163.172111 -123.351831 
L 165.568413 -123.352075 
L 167.964715 -123.352368 
L 170.361017 -123.35272 
L 172.757319 -123.353142 
L 175.153621 -123.353648 
L 177.549923 -123.354255 
L 179.946225 -123.354982 
L 182.342527 -123.355855 
L 184.738829 -123.356901 
L 187.135131 -123.358156 
L 189.531433 -123.359661 
L 191.927735 -123.361464 
L 194.324037 -123.363627 
L 196.720339 -123.36622 
L 199.116641 -123.369328 
L 201.512943 -123.373053 
L 203.909245 -123.377517 
L 206.305547 -123.382866 
L 208.701849 -123.389274 
L 211.098151 -123.396948 
L 213.494453 -123.406138 
L 215.890755 -123.417137 
L 218.287057 -123.430297 
L 220.683359 -123.446035 
L 223.079661 -123.464845 
L 225.475963 -123.487311 
L 227.872265 -123.514121 
L 230.268567 -123.546085 
L 232.664869 -123.584147 
L 235.061171 -123.629409 
L 237.457473 -123.683142 
L 239.853775 -123.746806 
L 242.250077 -123.82206 
L 244.646379 -123.910769 
L 247.042681 -124.014999 
L 249.438983 -124.136997 
L 251.835285 -124.279154 
L 254.231587 -124.44394 
L 256.627889 -124.633806 
L 259.024191 -124.851052 
L 261.420493 -125.097656 
L 263.816795 -125.375069 
L 266.213097 -125.683988 
L 268.609399 -126.024126 
L 271.005701 -126.394011 
L 273.402003 -126.790844 
L 275.798305 -127.210466 
L 278.194607 -127.647439 
L 280.590909 -128.095284 
L 282.987211 -128.546833 
L 285.383513 -128.994678 
L 287.779815 -129.431651 
L 290.176117 -129.851272 
L 292.572419 -130.248106 
L 294.968721 -130.617991 
L 297.365023 -130.958129 
L 299.761325 -131.267047 
L 302.157627 -131.54446 
L 304.553929 -131.791064 
L 306.950231 -132.00831 
L 309.346533 -132.198176 
L 311.742835 -132.362962 
L 314.139137 -132.50512 
L 316.535439 -132.627118 
L 318.931741 -132.731347 
L 321.328043 -132.820057 
L 323.724345 -132.895311 
L 326.120647 -132.958975 
L 328.516949 -133.012708 
L 330.913251 -133.05797 
L 333.309553 -133.096032 
L 335.705855 -133.127996 
L 338.102157 -133.154806 
L 340.498459 -133.177272 
L 342.894761 -133.196082 
L 345.291063 -133.21182 
L 347.687365 -133.22498 
L 350.083667 -133.235979 
L 352.479969 -133.245168 
L 354.876271 -133.252843 
L 357.272573 -133.259251 
L 359.668875 -133.2646 
L 362.065177 -133.269064 
L 364.461479 -133.272789 
L 366.857781 -133.275897 
L 369.254083 -133.27849 
L 371.650385 -133.280652 
L 374.046687 -133.282456 
L 376.442989 -133.283961 
L 378.839291 -133.285216 
L 381.235593 -133.286262 
L 383.631895 -133.287134 
L 386.028197 -133.287862 
L 388.424499 -133.288469 
L 390.820801 -133.288975 
L 393.217103 -133.289397 
L 395.613405 -133.289748 
L 398.009707 -133.290042 
L 400.406009 -133.290286 
L 400.406009 -486.944264 
L 400.406009 -486.944264 
L 398.009707 -486.94402 
L 395.613405 -486.943726 
L 393.217103 -486.943375 
L 390.820801 -486.942953 
L 388.424499 -486.942447 
L 386.028197 -486.94184 
L 383.631895 -486.941112 
L 381.235593 -486.94024 
L 378.839291 -486.939193 
L 376.442989 -486.937939 
L 374.046687 -486.936434 
L 371.650385 -486.93463 
L 369.254083 -486.932468 
L 366.857781 -486.929875 
L 364.461479 -486.926767 
L 362.065177 -486.923042 
L 359.668875 -486.918578 
L 357.272573 -486.913229 
L 354.876271 -486.906821 
L 352.479969 -486.899146 
L 350.083667 -486.889957 
L 347.687365 -486.878958 
L 345.291063 -486.865798 
L 342.894761 -486.85006 
L 340.498459 -486.83125 
L 338.102157 -486.808784 
L 335.705855 -486.781974 
L 333.309553 -486.75001 
L 330.913251 -486.711948 
L 328.516949 -486.666686 
L 326.120647 -486.612953 
L 323.724345 -486.549289 
L 321.328043 -486.474035 
L 318.931741 -486.385325 
L 316.535439 -486.281096 
L 314.139137 -486.159098 
L 311.742835 -486.01694 
L 309.346533 -485.852154 
L 306.950231 -485.662288 
L 304.553929 -485.445042 
L 302.157627 -485.198438 
L 299.761325 -484.921025 
L 297.365023 -484.612107 
L 294.968721 -484.271969 
L 292.572419 -483.902084 
L 290.176117 -483.50525 
L 287.779815 -483.085629 
L 285.383513 -482.648655 
L 282.987211 -482.200811 
L 280.590909 -481.749262 
L 278.194607 -481.301417 
L 275.798305 -480.864444 
L 273.402003 -480.444822 
L 271.005701 -480.047989 
L 268.609399 -479.678104 
L 266.213097 -479.337966 
L 263.816795 -479.029047 
L 261.420493 -478.751634 
L 259.024191 -478.50503 
L 256.627889 -478.287784 
L 254.231587 -478.097918 
L 251.835285 -477.933132 
L 249.438983 -477.790975 
L 247.042681 -477.668977 
L 244.646379 -477.564747 
L 242.250077 -477.476038 
L 239.853775 -477.400784 
L 237.457473 -477.33712 
L 235.061171 -477.283387 
L 232.664869 -477.238125 
L 230.268567 -477.200063 
L 227.872265 -477.168099 
L 225.475963 -477.141289 
L 223.079661 -477.118823 
L 220.683359 -477.100013 
L 218.287057 -477.084275 
L 215.890755 -477.071115 
L 213.494453 -477.060116 
L 211.098151 -477.050926 
L 208.701849 -477.043252 
L 206.305547 -477.036844 
L 203.909245 -477.031495 
L 201.512943 -477.027031 
L 199.116641 -477.023306 
L 196.720339 -477.020198 
L 194.324037 -477.017605 
L 191.927735 -477.015442 
L 189.531433 -477.013638 
L 187.135131 -477.012134 
L 184.738829 -477.010879 
L 182.342527 -477.009833 
L 179.946225 -477.00896 
L 177.549923 -477.008233 
L 175.153621 -477.007626 
L 172.757319 -477.00712 
L 170.361017 -477.006698 
L 167.964715 -477.006346 
L 165.568413 -477.006053 
L 163.172111 -477.005808 
z
"/>
    </defs>
    <g clip-path="url(#pe8bcafd4fa)">
     <use xlink:href="#mec43458517" x="0" y="524.88" style="fill: #406992; fill-opacity: 0.05"/>
    </g>
   </g>
   <g id="tf-swoop-YD">
    <defs>
     <path id="mb3dea7e7c1" d="M 163.172111 -79.366992 
L 163.172111 -123.349377 
L 165.568413 -123.349133 
L 167.964715 -123.348839 
L 170.361017 -123.348488 
L 172.757319 -123.348066 
L 175.153621 -123.34756 
L 177.549923 -123.346953 
L 179.946225 -123.346225 
L 182.342527 -123.345353 
L 184.738829 -123.344306 
L 187.135131 -123.343052 
L 189.531433 -123.341547 
L 191.927735 -123.339743 
L 194.324037 -123.337581 
L 196.720339 -123.334988 
L 199.116641 -123.33188 
L 201.512943 -123.328155 
L 203.909245 -123.323691 
L 206.305547 -123.318342 
L 208.701849 -123.311934 
L 211.098151 -123.304259 
L 213.494453 -123.29507 
L 215.890755 -123.284071 
L 218.287057 -123.270911 
L 220.683359 -123.255173 
L 223.079661 -123.236363 
L 225.475963 -123.213897 
L 227.872265 -123.187087 
L 230.268567 -123.155123 
L 232.664869 -123.117061 
L 235.061171 -123.071799 
L 237.457473 -123.018066 
L 239.853775 -122.954402 
L 242.250077 -122.879148 
L 244.646379 -122.790438 
L 247.042681 -122.686208 
L 249.438983 -122.564211 
L 251.835285 -122.422053 
L 254.231587 -122.257267 
L 256.627889 -122.067401 
L 259.024191 -121.850155 
L 261.420493 -121.603551 
L 263.816795 -121.326138 
L 266.213097 -121.01722 
L 268.609399 -120.677082 
L 271.005701 -120.307197 
L 273.402003 -119.910363 
L 275.798305 -119.490742 
L 278.194607 -119.053768 
L 280.590909 -118.605924 
L 282.987211 -118.154375 
L 285.383513 -117.70653 
L 287.779815 -117.269557 
L 290.176117 -116.849935 
L 292.572419 -116.453102 
L 294.968721 -116.083217 
L 297.365023 -115.743079 
L 299.761325 -115.43416 
L 302.157627 -115.156747 
L 304.553929 -114.910143 
L 306.950231 -114.692897 
L 309.346533 -114.503031 
L 311.742835 -114.338245 
L 314.139137 -114.196088 
L 316.535439 -114.07409 
L 318.931741 -113.96986 
L 321.328043 -113.881151 
L 323.724345 -113.805897 
L 326.120647 -113.742233 
L 328.516949 -113.6885 
L 330.913251 -113.643238 
L 333.309553 -113.605176 
L 335.705855 -113.573212 
L 338.102157 -113.546402 
L 340.498459 -113.523936 
L 342.894761 -113.505126 
L 345.291063 -113.489388 
L 347.687365 -113.476228 
L 350.083667 -113.465229 
L 352.479969 -113.456039 
L 354.876271 -113.448365 
L 357.272573 -113.441957 
L 359.668875 -113.436608 
L 362.065177 -113.432144 
L 364.461479 -113.428419 
L 366.857781 -113.425311 
L 369.254083 -113.422718 
L 371.650385 -113.420555 
L 374.046687 -113.418751 
L 376.442989 -113.417247 
L 378.839291 -113.415992 
L 381.235593 -113.414946 
L 383.631895 -113.414073 
L 386.028197 -113.413346 
L 388.424499 -113.412739 
L 390.820801 -113.412233 
L 393.217103 -113.411811 
L 395.613405 -113.411459 
L 398.009707 -113.411166 
L 400.406009 -113.410921 
L 400.406009 -69.428536 
L 400.406009 -69.428536 
L 398.009707 -69.42878 
L 395.613405 -69.429074 
L 393.217103 -69.429425 
L 390.820801 -69.429847 
L 388.424499 -69.430353 
L 386.028197 -69.43096 
L 383.631895 -69.431688 
L 381.235593 -69.43256 
L 378.839291 -69.433607 
L 376.442989 -69.434861 
L 374.046687 -69.436366 
L 371.650385 -69.43817 
L 369.254083 -69.440332 
L 366.857781 -69.442925 
L 364.461479 -69.446033 
L 362.065177 -69.449758 
L 359.668875 -69.454222 
L 357.272573 -69.459571 
L 354.876271 -69.465979 
L 352.479969 -69.473654 
L 350.083667 -69.482843 
L 347.687365 -69.493842 
L 345.291063 -69.507002 
L 342.894761 -69.52274 
L 340.498459 -69.54155 
L 338.102157 -69.564016 
L 335.705855 -69.590826 
L 333.309553 -69.62279 
L 330.913251 -69.660852 
L 328.516949 -69.706114 
L 326.120647 -69.759847 
L 323.724345 -69.823511 
L 321.328043 -69.898765 
L 318.931741 -69.987475 
L 316.535439 -70.091704 
L 314.139137 -70.213702 
L 311.742835 -70.35586 
L 309.346533 -70.520646 
L 306.950231 -70.710512 
L 304.553929 -70.927758 
L 302.157627 -71.174362 
L 299.761325 -71.451775 
L 297.365023 -71.760693 
L 294.968721 -72.100831 
L 292.572419 -72.470716 
L 290.176117 -72.86755 
L 287.779815 -73.287171 
L 285.383513 -73.724145 
L 282.987211 -74.171989 
L 280.590909 -74.623538 
L 278.194607 -75.071383 
L 275.798305 -75.508356 
L 273.402003 -75.927978 
L 271.005701 -76.324811 
L 268.609399 -76.694696 
L 266.213097 -77.034834 
L 263.816795 -77.343753 
L 261.420493 -77.621166 
L 259.024191 -77.86777 
L 256.627889 -78.085016 
L 254.231587 -78.274882 
L 251.835285 -78.439668 
L 249.438983 -78.581825 
L 247.042681 -78.703823 
L 244.646379 -78.808053 
L 242.250077 -78.896762 
L 239.853775 -78.972016 
L 237.457473 -79.03568 
L 235.061171 -79.089413 
L 232.664869 -79.134675 
L 230.268567 -79.172737 
L 227.872265 -79.204701 
L 225.475963 -79.231511 
L 223.079661 -79.253977 
L 220.683359 -79.272787 
L 218.287057 -79.288525 
L 215.890755 -79.301685 
L 213.494453 -79.312684 
L 211.098151 -79.321874 
L 208.701849 -79.329548 
L 206.305547 -79.335956 
L 203.909245 -79.341305 
L 201.512943 -79.345769 
L 199.116641 -79.349494 
L 196.720339 -79.352602 
L 194.324037 -79.355195 
L 191.927735 -79.357358 
L 189.531433 -79.359162 
L 187.135131 -79.360666 
L 184.738829 -79.361921 
L 182.342527 -79.362967 
L 179.946225 -79.36384 
L 177.549923 -79.364567 
L 175.153621 -79.365174 
L 172.757319 -79.36568 
L 170.361017 -79.366102 
L 167.964715 -79.366454 
L 165.568413 -79.366747 
L 163.172111 -79.366992 
z
"/>
    </defs>
    <g clip-path="url(#pe8bcafd4fa)">
     <use xlink:href="#mb3dea7e7c1" x="0" y="524.88" style="fill: #b78935; fill-opacity: 0.05"/>
    </g>
   </g>
   <g id="tf-bar-ND">
    <defs>
     <path id="m842d8124d8" d="M 400.406009 -133.291513 
L 400.406009 -486.945491 
L 426.765332 -486.945491 
L 426.765332 -133.291513 
L 426.765332 -133.291513 
L 400.406009 -133.291513 
z
"/>
    </defs>
    <g clip-path="url(#pe8bcafd4fa)">
     <use xlink:href="#m842d8124d8" x="0" y="524.88" style="fill: #406992; fill-opacity: 0.25"/>
    </g>
   </g>
   <g id="tf-bar-YD">
    <defs>
     <path id="m3c2e560019" d="M 400.406009 -69.427309 
L 400.406009 -113.409695 
L 426.765332 -113.409695 
L 426.765332 -69.427309 
L 426.765332 -69.427309 
L 400.406009 -69.427309 
z
"/>
    </defs>
    <g clip-path="url(#pe8bcafd4fa)">
     <use xlink:href="#m3c2e560019" x="0" y="524.88" style="fill: #b78935; fill-opacity: 0.25"/>
    </g>
   </g>
   <g id="tf-swoop-YD-ND">
    <defs>
     <path id="mfa9c18caca" d="M 426.765332 -101.84761 
L 426.765332 -113.408468 
L 429.161634 -113.408224 
L 431.557936 -113.40793 
L 433.954238 -113.407578 
L 436.35054 -113.407157 
L 438.746842 -113.406651 
L 441.143144 -113.406044 
L 443.539446 -113.405316 
L 445.935748 -113.404444 
L 448.33205 -113.403397 
L 450.728352 -113.402143 
L 453.124654 -113.400638 
L 455.520956 -113.398834 
L 457.917258 -113.396671 
L 460.31356 -113.394079 
L 462.709862 -113.390971 
L 465.106164 -113.387246 
L 467.502466 -113.382782 
L 469.898768 -113.377433 
L 472.29507 -113.371025 
L 474.691372 -113.36335 
L 477.087674 -113.354161 
L 479.483976 -113.343162 
L 481.880278 -113.330002 
L 484.27658 -113.314264 
L 486.672882 -113.295454 
L 489.069184 -113.272988 
L 491.465486 -113.246177 
L 493.861788 -113.214214 
L 496.25809 -113.176151 
L 498.654392 -113.13089 
L 501.050694 -113.077157 
L 503.446996 -113.013493 
L 505.843298 -112.938238 
L 508.2396 -112.849529 
L 510.635902 -112.745299 
L 513.032204 -112.623301 
L 515.428506 -112.481144 
L 517.824808 -112.316358 
L 520.22111 -112.126492 
L 522.617412 -111.909246 
L 525.013714 -111.662642 
L 527.410016 -111.385229 
L 529.806318 -111.076311 
L 532.20262 -110.736173 
L 534.598922 -110.366288 
L 536.995224 -109.969454 
L 539.391526 -109.549833 
L 541.787828 -109.112859 
L 544.18413 -108.665015 
L 546.580432 -108.213466 
L 548.976734 -107.765621 
L 551.373036 -107.328648 
L 553.769338 -106.909026 
L 556.16564 -106.512192 
L 558.561942 -106.142308 
L 560.958244 -105.80217 
L 563.354546 -105.493251 
L 565.750848 -105.215838 
L 568.14715 -104.969234 
L 570.543452 -104.751988 
L 572.939754 -104.562122 
L 575.336056 -104.397336 
L 577.732358 -104.255179 
L 580.12866 -104.133181 
L 582.524962 -104.028951 
L 584.921264 -103.940242 
L 587.317566 -103.864988 
L 589.713868 -103.801324 
L 592.11017 -103.747591 
L 594.506472 -103.702329 
L 596.902774 -103.664267 
L 599.299076 -103.632303 
L 601.695378 -103.605493 
L 604.09168 -103.583027 
L 606.487982 -103.564217 
L 608.884284 -103.548479 
L 611.280586 -103.535319 
L 613.676888 -103.52432 
L 616.07319 -103.51513 
L 618.469492 -103.507456 
L 620.865794 -103.501048 
L 623.262096 -103.495699 
L 625.658398 -103.491235 
L 628.0547 -103.48751 
L 630.451002 -103.484402 
L 632.847304 -103.481809 
L 635.243606 -103.479646 
L 637.639908 -103.477842 
L 640.03621 -103.476338 
L 642.432512 -103.475083 
L 644.828814 -103.474037 
L 647.225116 -103.473164 
L 649.621418 -103.472437 
L 652.01772 -103.47183 
L 654.414022 -103.471324 
L 656.810324 -103.470902 
L 659.206626 -103.47055 
L 661.602928 -103.470257 
L 663.99923 -103.470012 
L 663.99923 -91.909155 
L 663.99923 -91.909155 
L 661.602928 -91.909399 
L 659.206626 -91.909692 
L 656.810324 -91.910044 
L 654.414022 -91.910466 
L 652.01772 -91.910972 
L 649.621418 -91.911579 
L 647.225116 -91.912306 
L 644.828814 -91.913179 
L 642.432512 -91.914225 
L 640.03621 -91.91548 
L 637.639908 -91.916985 
L 635.243606 -91.918789 
L 632.847304 -91.920951 
L 630.451002 -91.923544 
L 628.0547 -91.926652 
L 625.658398 -91.930377 
L 623.262096 -91.934841 
L 620.865794 -91.94019 
L 618.469492 -91.946598 
L 616.07319 -91.954273 
L 613.676888 -91.963462 
L 611.280586 -91.974461 
L 608.884284 -91.987621 
L 606.487982 -92.003359 
L 604.09168 -92.022169 
L 601.695378 -92.044635 
L 599.299076 -92.071445 
L 596.902774 -92.103409 
L 594.506472 -92.141471 
L 592.11017 -92.186733 
L 589.713868 -92.240466 
L 587.317566 -92.30413 
L 584.921264 -92.379384 
L 582.524962 -92.468094 
L 580.12866 -92.572323 
L 577.732358 -92.694321 
L 575.336056 -92.836479 
L 572.939754 -93.001264 
L 570.543452 -93.191131 
L 568.14715 -93.408377 
L 565.750848 -93.654981 
L 563.354546 -93.932393 
L 560.958244 -94.241312 
L 558.561942 -94.58145 
L 556.16564 -94.951335 
L 553.769338 -95.348169 
L 551.373036 -95.76779 
L 548.976734 -96.204763 
L 546.580432 -96.652608 
L 544.18413 -97.104157 
L 541.787828 -97.552002 
L 539.391526 -97.988975 
L 536.995224 -98.408597 
L 534.598922 -98.80543 
L 532.20262 -99.175315 
L 529.806318 -99.515453 
L 527.410016 -99.824372 
L 525.013714 -100.101784 
L 522.617412 -100.348388 
L 520.22111 -100.565635 
L 517.824808 -100.755501 
L 515.428506 -100.920287 
L 513.032204 -101.062444 
L 510.635902 -101.184442 
L 508.2396 -101.288671 
L 505.843298 -101.377381 
L 503.446996 -101.452635 
L 501.050694 -101.516299 
L 498.654392 -101.570032 
L 496.25809 -101.615294 
L 493.861788 -101.653356 
L 491.465486 -101.68532 
L 489.069184 -101.71213 
L 486.672882 -101.734596 
L 484.27658 -101.753406 
L 481.880278 -101.769144 
L 479.483976 -101.782304 
L 477.087674 -101.793303 
L 474.691372 -101.802492 
L 472.29507 -101.810167 
L 469.898768 -101.816575 
L 467.502466 -101.821924 
L 465.106164 -101.826388 
L 462.709862 -101.830113 
L 460.31356 -101.833221 
L 457.917258 -101.835814 
L 455.520956 -101.837976 
L 453.124654 -101.83978 
L 450.728352 -101.841285 
L 448.33205 -101.84254 
L 445.935748 -101.843586 
L 443.539446 -101.844459 
L 441.143144 -101.845186 
L 438.746842 -101.845793 
L 436.35054 -101.846299 
L 433.954238 -101.846721 
L 431.557936 -101.847073 
L 429.161634 -101.847366 
L 426.765332 -101.84761 
z
"/>
    </defs>
    <g clip-path="url(#pe8bcafd4fa)">
     <use xlink:href="#mfa9c18caca" x="0" y="524.88" style="fill: #dbc49a; fill-opacity: 0.05"/>
    </g>
   </g>
   <g id="tf-swoop-YD-YD">
    <defs>
     <path id="mda679ec9a4" d="M 426.765332 -69.423629 
L 426.765332 -101.845157 
L 429.161634 -101.844423 
L 431.557936 -101.843544 
L 433.954238 -101.842488 
L 436.35054 -101.841223 
L 438.746842 -101.839705 
L 441.143144 -101.837885 
L 443.539446 -101.835702 
L 445.935748 -101.833084 
L 448.33205 -101.829945 
L 450.728352 -101.826181 
L 453.124654 -101.821667 
L 455.520956 -101.816255 
L 457.917258 -101.809767 
L 460.31356 -101.801989 
L 462.709862 -101.792665 
L 465.106164 -101.78149 
L 467.502466 -101.768098 
L 469.898768 -101.752051 
L 472.29507 -101.732827 
L 474.691372 -101.709803 
L 477.087674 -101.682235 
L 479.483976 -101.649238 
L 481.880278 -101.609758 
L 484.27658 -101.562544 
L 486.672882 -101.506114 
L 489.069184 -101.438716 
L 491.465486 -101.358285 
L 493.861788 -101.262394 
L 496.25809 -101.148207 
L 498.654392 -101.012422 
L 501.050694 -100.851224 
L 503.446996 -100.660231 
L 505.843298 -100.434468 
L 508.2396 -100.16834 
L 510.635902 -99.855651 
L 513.032204 -99.489657 
L 515.428506 -99.063185 
L 517.824808 -98.568828 
L 520.22111 -97.999229 
L 522.617412 -97.347491 
L 525.013714 -96.607679 
L 527.410016 -95.775441 
L 529.806318 -94.848684 
L 532.20262 -93.82827 
L 534.598922 -92.718617 
L 536.995224 -91.528115 
L 539.391526 -90.269251 
L 541.787828 -88.958331 
L 544.18413 -87.614796 
L 546.580432 -86.260151 
L 548.976734 -84.916616 
L 551.373036 -83.605696 
L 553.769338 -82.346831 
L 556.16564 -81.15633 
L 558.561942 -80.046676 
L 560.958244 -79.026263 
L 563.354546 -78.099506 
L 565.750848 -77.267268 
L 568.14715 -76.527456 
L 570.543452 -75.875717 
L 572.939754 -75.306119 
L 575.336056 -74.811761 
L 577.732358 -74.38529 
L 580.12866 -74.019296 
L 582.524962 -73.706607 
L 584.921264 -73.440479 
L 587.317566 -73.214715 
L 589.713868 -73.023723 
L 592.11017 -72.862524 
L 594.506472 -72.72674 
L 596.902774 -72.612552 
L 599.299076 -72.516662 
L 601.695378 -72.43623 
L 604.09168 -72.368833 
L 606.487982 -72.312403 
L 608.884284 -72.265189 
L 611.280586 -72.225709 
L 613.676888 -72.192711 
L 616.07319 -72.165144 
L 618.469492 -72.14212 
L 620.865794 -72.122896 
L 623.262096 -72.106849 
L 625.658398 -72.093457 
L 628.0547 -72.082282 
L 630.451002 -72.072958 
L 632.847304 -72.06518 
L 635.243606 -72.058692 
L 637.639908 -72.05328 
L 640.03621 -72.048766 
L 642.432512 -72.045002 
L 644.828814 -72.041863 
L 647.225116 -72.039245 
L 649.621418 -72.037062 
L 652.01772 -72.035242 
L 654.414022 -72.033724 
L 656.810324 -72.032459 
L 659.206626 -72.031403 
L 661.602928 -72.030523 
L 663.99923 -72.02979 
L 663.99923 -39.608262 
L 663.99923 -39.608262 
L 661.602928 -39.608995 
L 659.206626 -39.609875 
L 656.810324 -39.610931 
L 654.414022 -39.612196 
L 652.01772 -39.613714 
L 649.621418 -39.615534 
L 647.225116 -39.617717 
L 644.828814 -39.620335 
L 642.432512 -39.623474 
L 640.03621 -39.627238 
L 637.639908 -39.631752 
L 635.243606 -39.637164 
L 632.847304 -39.643652 
L 630.451002 -39.65143 
L 628.0547 -39.660754 
L 625.658398 -39.671929 
L 623.262096 -39.685321 
L 620.865794 -39.701368 
L 618.469492 -39.720592 
L 616.07319 -39.743616 
L 613.676888 -39.771183 
L 611.280586 -39.804181 
L 608.884284 -39.843661 
L 606.487982 -39.890875 
L 604.09168 -39.947305 
L 601.695378 -40.014702 
L 599.299076 -40.095134 
L 596.902774 -40.191024 
L 594.506472 -40.305212 
L 592.11017 -40.440996 
L 589.713868 -40.602195 
L 587.317566 -40.793187 
L 584.921264 -41.018951 
L 582.524962 -41.285079 
L 580.12866 -41.597768 
L 577.732358 -41.963762 
L 575.336056 -42.390233 
L 572.939754 -42.884591 
L 570.543452 -43.454189 
L 568.14715 -44.105928 
L 565.750848 -44.84574 
L 563.354546 -45.677978 
L 560.958244 -46.604735 
L 558.561942 -47.625148 
L 556.16564 -48.734802 
L 553.769338 -49.925303 
L 551.373036 -51.184168 
L 548.976734 -52.495088 
L 546.580432 -53.838623 
L 544.18413 -55.193268 
L 541.787828 -56.536803 
L 539.391526 -57.847723 
L 536.995224 -59.106587 
L 534.598922 -60.297089 
L 532.20262 -61.406742 
L 529.806318 -62.427156 
L 527.410016 -63.353913 
L 525.013714 -64.186151 
L 522.617412 -64.925963 
L 520.22111 -65.577701 
L 517.824808 -66.1473 
L 515.428506 -66.641657 
L 513.032204 -67.068129 
L 510.635902 -67.434123 
L 508.2396 -67.746812 
L 505.843298 -68.01294 
L 503.446996 -68.238703 
L 501.050694 -68.429696 
L 498.654392 -68.590894 
L 496.25809 -68.726679 
L 493.861788 -68.840866 
L 491.465486 -68.936757 
L 489.069184 -69.017188 
L 486.672882 -69.084586 
L 484.27658 -69.141016 
L 481.880278 -69.18823 
L 479.483976 -69.22771 
L 477.087674 -69.260707 
L 474.691372 -69.288275 
L 472.29507 -69.311299 
L 469.898768 -69.330523 
L 467.502466 -69.34657 
L 465.106164 -69.359962 
L 462.709862 -69.371137 
L 460.31356 -69.380461 
L 457.917258 -69.388239 
L 455.520956 -69.394727 
L 453.124654 -69.400139 
L 450.728352 -69.404653 
L 448.33205 -69.408417 
L 445.935748 -69.411556 
L 443.539446 -69.414174 
L 441.143144 -69.416357 
L 438.746842 -69.418177 
L 436.35054 -69.419695 
L 433.954238 -69.42096 
L 431.557936 -69.422016 
L 429.161634 -69.422895 
L 426.765332 -69.423629 
z
"/>
    </defs>
    <g clip-path="url(#pe8bcafd4fa)">
     <use xlink:href="#mda679ec9a4" x="0" y="524.88" style="fill: #b78935; fill-opacity: 0.05"/>
    </g>
   </g>
   <g id="tf-swoop-ND-YD">
    <defs>
     <path id="m40382b3409" d="M 426.765332 -146.352531 
L 426.765332 -133.29274 
L 429.161634 -133.292984 
L 431.557936 -133.293277 
L 433.954238 -133.293629 
L 436.35054 -133.294051 
L 438.746842 -133.294557 
L 441.143144 -133.295164 
L 443.539446 -133.295891 
L 445.935748 -133.296764 
L 448.33205 -133.29781 
L 450.728352 -133.299065 
L 453.124654 -133.30057 
L 455.520956 -133.302374 
L 457.917258 -133.304536 
L 460.31356 -133.307129 
L 462.709862 -133.310237 
L 465.106164 -133.313962 
L 467.502466 -133.318426 
L 469.898768 -133.323775 
L 472.29507 -133.330183 
L 474.691372 -133.337858 
L 477.087674 -133.347047 
L 479.483976 -133.358046 
L 481.880278 -133.371206 
L 484.27658 -133.386944 
L 486.672882 -133.405754 
L 489.069184 -133.42822 
L 491.465486 -133.45503 
L 493.861788 -133.486994 
L 496.25809 -133.525056 
L 498.654392 -133.570318 
L 501.050694 -133.624051 
L 503.446996 -133.687715 
L 505.843298 -133.762969 
L 508.2396 -133.851679 
L 510.635902 -133.955908 
L 513.032204 -134.077906 
L 515.428506 -134.220063 
L 517.824808 -134.384849 
L 520.22111 -134.574716 
L 522.617412 -134.791962 
L 525.013714 -135.038566 
L 527.410016 -135.315978 
L 529.806318 -135.624897 
L 532.20262 -135.965035 
L 534.598922 -136.33492 
L 536.995224 -136.731753 
L 539.391526 -137.151375 
L 541.787828 -137.588348 
L 544.18413 -138.036193 
L 546.580432 -138.487742 
L 548.976734 -138.935587 
L 551.373036 -139.37256 
L 553.769338 -139.792182 
L 556.16564 -140.189015 
L 558.561942 -140.5589 
L 560.958244 -140.899038 
L 563.354546 -141.207957 
L 565.750848 -141.485369 
L 568.14715 -141.731973 
L 570.543452 -141.949219 
L 572.939754 -142.139086 
L 575.336056 -142.303871 
L 577.732358 -142.446029 
L 580.12866 -142.568027 
L 582.524962 -142.672256 
L 584.921264 -142.760966 
L 587.317566 -142.83622 
L 589.713868 -142.899884 
L 592.11017 -142.953617 
L 594.506472 -142.998879 
L 596.902774 -143.036941 
L 599.299076 -143.068905 
L 601.695378 -143.095715 
L 604.09168 -143.118181 
L 606.487982 -143.136991 
L 608.884284 -143.152729 
L 611.280586 -143.165889 
L 613.676888 -143.176888 
L 616.07319 -143.186077 
L 618.469492 -143.193752 
L 620.865794 -143.20016 
L 623.262096 -143.205509 
L 625.658398 -143.209973 
L 628.0547 -143.213698 
L 630.451002 -143.216806 
L 632.847304 -143.219399 
L 635.243606 -143.221561 
L 637.639908 -143.223365 
L 640.03621 -143.22487 
L 642.432512 -143.226125 
L 644.828814 -143.227171 
L 647.225116 -143.228044 
L 649.621418 -143.228771 
L 652.01772 -143.229378 
L 654.414022 -143.229884 
L 656.810324 -143.230306 
L 659.206626 -143.230658 
L 661.602928 -143.230951 
L 663.99923 -143.231195 
L 663.99923 -156.290987 
L 663.99923 -156.290987 
L 661.602928 -156.290742 
L 659.206626 -156.290449 
L 656.810324 -156.290097 
L 654.414022 -156.289675 
L 652.01772 -156.289169 
L 649.621418 -156.288562 
L 647.225116 -156.287835 
L 644.828814 -156.286962 
L 642.432512 -156.285916 
L 640.03621 -156.284661 
L 637.639908 -156.283157 
L 635.243606 -156.281353 
L 632.847304 -156.27919 
L 630.451002 -156.276597 
L 628.0547 -156.273489 
L 625.658398 -156.269764 
L 623.262096 -156.2653 
L 620.865794 -156.259951 
L 618.469492 -156.253543 
L 616.07319 -156.245869 
L 613.676888 -156.236679 
L 611.280586 -156.22568 
L 608.884284 -156.21252 
L 606.487982 -156.196782 
L 604.09168 -156.177972 
L 601.695378 -156.155506 
L 599.299076 -156.128696 
L 596.902774 -156.096732 
L 594.506472 -156.05867 
L 592.11017 -156.013408 
L 589.713868 -155.959675 
L 587.317566 -155.896011 
L 584.921264 -155.820757 
L 582.524962 -155.732048 
L 580.12866 -155.627818 
L 577.732358 -155.50582 
L 575.336056 -155.363663 
L 572.939754 -155.198877 
L 570.543452 -155.009011 
L 568.14715 -154.791765 
L 565.750848 -154.545161 
L 563.354546 -154.267748 
L 560.958244 -153.958829 
L 558.561942 -153.618691 
L 556.16564 -153.248806 
L 553.769338 -152.851973 
L 551.373036 -152.432351 
L 548.976734 -151.995378 
L 546.580432 -151.547533 
L 544.18413 -151.095984 
L 541.787828 -150.64814 
L 539.391526 -150.211166 
L 536.995224 -149.791545 
L 534.598922 -149.394711 
L 532.20262 -149.024826 
L 529.806318 -148.684688 
L 527.410016 -148.37577 
L 525.013714 -148.098357 
L 522.617412 -147.851753 
L 520.22111 -147.634507 
L 517.824808 -147.444641 
L 515.428506 -147.279855 
L 513.032204 -147.137697 
L 510.635902 -147.0157 
L 508.2396 -146.91147 
L 505.843298 -146.82276 
L 503.446996 -146.747506 
L 501.050694 -146.683842 
L 498.654392 -146.630109 
L 496.25809 -146.584847 
L 493.861788 -146.546785 
L 491.465486 -146.514821 
L 489.069184 -146.488011 
L 486.672882 -146.465545 
L 484.27658 -146.446735 
L 481.880278 -146.430997 
L 479.483976 -146.417837 
L 477.087674 -146.406838 
L 474.691372 -146.397649 
L 472.29507 -146.389974 
L 469.898768 -146.383566 
L 467.502466 -146.378217 
L 465.106164 -146.373753 
L 462.709862 -146.370028 
L 460.31356 -146.36692 
L 457.917258 -146.364327 
L 455.520956 -146.362165 
L 453.124654 -146.360361 
L 450.728352 -146.358856 
L 448.33205 -146.357602 
L 445.935748 -146.356555 
L 443.539446 -146.355683 
L 441.143144 -146.354955 
L 438.746842 -146.354348 
L 436.35054 -146.353842 
L 433.954238 -146.35342 
L 431.557936 -146.353069 
L 429.161634 -146.352775 
L 426.765332 -146.352531 
z
"/>
    </defs>
    <g clip-path="url(#pe8bcafd4fa)">
     <use xlink:href="#m40382b3409" x="0" y="524.88" style="fill: #9fb4c8; fill-opacity: 0.05"/>
    </g>
   </g>
   <g id="tf-swoop-ND-ND">
    <defs>
     <path id="m7fd60dec7f" d="M 426.765332 -486.949171 
L 426.765332 -146.354984 
L 429.161634 -146.355718 
L 431.557936 -146.356598 
L 433.954238 -146.357653 
L 436.35054 -146.358919 
L 438.746842 -146.360436 
L 441.143144 -146.362257 
L 443.539446 -146.36444 
L 445.935748 -146.367057 
L 448.33205 -146.370196 
L 450.728352 -146.373961 
L 453.124654 -146.378474 
L 455.520956 -146.383886 
L 457.917258 -146.390374 
L 460.31356 -146.398152 
L 462.709862 -146.407476 
L 465.106164 -146.418651 
L 467.502466 -146.432043 
L 469.898768 -146.44809 
L 472.29507 -146.467314 
L 474.691372 -146.490338 
L 477.087674 -146.517906 
L 479.483976 -146.550903 
L 481.880278 -146.590383 
L 484.27658 -146.637597 
L 486.672882 -146.694027 
L 489.069184 -146.761425 
L 491.465486 -146.841856 
L 493.861788 -146.937747 
L 496.25809 -147.051934 
L 498.654392 -147.187719 
L 501.050694 -147.348918 
L 503.446996 -147.53991 
L 505.843298 -147.765673 
L 508.2396 -148.031801 
L 510.635902 -148.34449 
L 513.032204 -148.710484 
L 515.428506 -149.136956 
L 517.824808 -149.631314 
L 520.22111 -150.200912 
L 522.617412 -150.85265 
L 525.013714 -151.592462 
L 527.410016 -152.424701 
L 529.806318 -153.351457 
L 532.20262 -154.371871 
L 534.598922 -155.481525 
L 536.995224 -156.672026 
L 539.391526 -157.93089 
L 541.787828 -159.24181 
L 544.18413 -160.585345 
L 546.580432 -161.939991 
L 548.976734 -163.283525 
L 551.373036 -164.594445 
L 553.769338 -165.85331 
L 556.16564 -167.043811 
L 558.561942 -168.153465 
L 560.958244 -169.173879 
L 563.354546 -170.100635 
L 565.750848 -170.932874 
L 568.14715 -171.672686 
L 570.543452 -172.324424 
L 572.939754 -172.894022 
L 575.336056 -173.38838 
L 577.732358 -173.814851 
L 580.12866 -174.180845 
L 582.524962 -174.493535 
L 584.921264 -174.759663 
L 587.317566 -174.985426 
L 589.713868 -175.176418 
L 592.11017 -175.337617 
L 594.506472 -175.473402 
L 596.902774 -175.587589 
L 599.299076 -175.683479 
L 601.695378 -175.763911 
L 604.09168 -175.831309 
L 606.487982 -175.887738 
L 608.884284 -175.934952 
L 611.280586 -175.974432 
L 613.676888 -176.00743 
L 616.07319 -176.034998 
L 618.469492 -176.058022 
L 620.865794 -176.077245 
L 623.262096 -176.093292 
L 625.658398 -176.106685 
L 628.0547 -176.11786 
L 630.451002 -176.127183 
L 632.847304 -176.134962 
L 635.243606 -176.14145 
L 637.639908 -176.146861 
L 640.03621 -176.151375 
L 642.432512 -176.155139 
L 644.828814 -176.158278 
L 647.225116 -176.160896 
L 649.621418 -176.163079 
L 652.01772 -176.164899 
L 654.414022 -176.166417 
L 656.810324 -176.167683 
L 659.206626 -176.168738 
L 661.602928 -176.169618 
L 663.99923 -176.170351 
L 663.99923 -516.764538 
L 663.99923 -516.764538 
L 661.602928 -516.763805 
L 659.206626 -516.762925 
L 656.810324 -516.761869 
L 654.414022 -516.760604 
L 652.01772 -516.759086 
L 649.621418 -516.757266 
L 647.225116 -516.755083 
L 644.828814 -516.752465 
L 642.432512 -516.749326 
L 640.03621 -516.745562 
L 637.639908 -516.741048 
L 635.243606 -516.735636 
L 632.847304 -516.729148 
L 630.451002 -516.72137 
L 628.0547 -516.712046 
L 625.658398 -516.700871 
L 623.262096 -516.687479 
L 620.865794 -516.671432 
L 618.469492 -516.652208 
L 616.07319 -516.629184 
L 613.676888 -516.601617 
L 611.280586 -516.568619 
L 608.884284 -516.529139 
L 606.487982 -516.481925 
L 604.09168 -516.425495 
L 601.695378 -516.358098 
L 599.299076 -516.277666 
L 596.902774 -516.181776 
L 594.506472 -516.067588 
L 592.11017 -515.931804 
L 589.713868 -515.770605 
L 587.317566 -515.579613 
L 584.921264 -515.353849 
L 582.524962 -515.087721 
L 580.12866 -514.775032 
L 577.732358 -514.409038 
L 575.336056 -513.982567 
L 572.939754 -513.488209 
L 570.543452 -512.918611 
L 568.14715 -512.266872 
L 565.750848 -511.52706 
L 563.354546 -510.694822 
L 560.958244 -509.768065 
L 558.561942 -508.747652 
L 556.16564 -507.637998 
L 553.769338 -506.447497 
L 551.373036 -505.188632 
L 548.976734 -503.877712 
L 546.580432 -502.534177 
L 544.18413 -501.179532 
L 541.787828 -499.835997 
L 539.391526 -498.525077 
L 536.995224 -497.266213 
L 534.598922 -496.075711 
L 532.20262 -494.966058 
L 529.806318 -493.945644 
L 527.410016 -493.018887 
L 525.013714 -492.186649 
L 522.617412 -491.446837 
L 520.22111 -490.795099 
L 517.824808 -490.2255 
L 515.428506 -489.731143 
L 513.032204 -489.304671 
L 510.635902 -488.938677 
L 508.2396 -488.625988 
L 505.843298 -488.35986 
L 503.446996 -488.134097 
L 501.050694 -487.943104 
L 498.654392 -487.781906 
L 496.25809 -487.646121 
L 493.861788 -487.531934 
L 491.465486 -487.436043 
L 489.069184 -487.355612 
L 486.672882 -487.288214 
L 484.27658 -487.231784 
L 481.880278 -487.18457 
L 479.483976 -487.14509 
L 477.087674 -487.112093 
L 474.691372 -487.084525 
L 472.29507 -487.061501 
L 469.898768 -487.042277 
L 467.502466 -487.02623 
L 465.106164 -487.012838 
L 462.709862 -487.001663 
L 460.31356 -486.992339 
L 457.917258 -486.984561 
L 455.520956 -486.978073 
L 453.124654 -486.972661 
L 450.728352 -486.968147 
L 448.33205 -486.964383 
L 445.935748 -486.961244 
L 443.539446 -486.958626 
L 441.143144 -486.956443 
L 438.746842 -486.954623 
L 436.35054 -486.953105 
L 433.954238 -486.95184 
L 431.557936 -486.950784 
L 429.161634 -486.949905 
L 426.765332 -486.949171 
z
"/>
    </defs>
    <g clip-path="url(#pe8bcafd4fa)">
     <use xlink:href="#m7fd60dec7f" x="0" y="524.88" style="fill: #406992; fill-opacity: 0.05"/>
    </g>
   </g>
   <g id="tf-bar-YD-YD">
    <defs>
     <path id="ma62332d36f" d="M 663.99923 -39.604582 
L 663.99923 -72.02611 
L 690.358552 -72.02611 
L 690.358552 -39.604582 
L 690.358552 -39.604582 
L 663.99923 -39.604582 
z
"/>
    </defs>
    <g clip-path="url(#pe8bcafd4fa)">
     <use xlink:href="#ma62332d36f" x="0" y="524.88" style="fill: #b78935; fill-opacity: 0.25"/>
    </g>
   </g>
   <g id="tf-bar-YD-ND">
    <defs>
     <path id="mc9b5853650" d="M 663.99923 -91.907928 
L 663.99923 -103.468786 
L 690.358552 -103.468786 
L 690.358552 -91.907928 
L 690.358552 -91.907928 
L 663.99923 -91.907928 
z
"/>
    </defs>
    <g clip-path="url(#pe8bcafd4fa)">
     <use xlink:href="#mc9b5853650" x="0" y="524.88" style="fill: #dbc49a; fill-opacity: 0.25"/>
    </g>
   </g>
   <g id="tf-bar-ND-YD">
    <defs>
     <path id="m17dd7a85d3" d="M 663.99923 -143.232422 
L 663.99923 -156.292213 
L 690.358552 -156.292213 
L 690.358552 -143.232422 
L 690.358552 -143.232422 
L 663.99923 -143.232422 
z
"/>
    </defs>
    <g clip-path="url(#pe8bcafd4fa)">
     <use xlink:href="#m17dd7a85d3" x="0" y="524.88" style="fill: #9fb4c8; fill-opacity: 0.25"/>
    </g>
   </g>
   <g id="tf-bar-ND-ND">
    <defs>
     <path id="med26e29356" d="M 663.99923 -176.174031 
L 663.99923 -516.768218 
L 690.358552 -516.768218 
L 690.358552 -176.174031 
L 690.358552 -176.174031 
L 663.99923 -176.174031 
z
"/>
    </defs>
    <g clip-path="url(#pe8bcafd4fa)">
     <use xlink:href="#med26e29356" x="0" y="524.88" style="fill: #406992; fill-opacity: 0.25"/>
    </g>
   </g>
   <g id="text_1">
    <text style="font-weight: 300; font-size: 16px; font-family: 'Source Sans 3', sans-serif; fill: #494949" transform="translate(63.378128 241.98585)">All model</text>
    <text style="font-weight: 300; font-size: 16px; font-family: 'Source Sans 3', sans-serif; fill: #494949" transform="translate(51.410628 259.40135)">predictions</text>
   </g>
   <g id="tf-label-YD">
    <text style="font-weight: 300; font-size: 16px; font-family: 'Source Sans 3', sans-serif; fill: #494949; opacity: 0" transform="translate(272.736348 411.126498)">Severe or extreme</text>
    <text style="font-weight: 300; font-size: 16px; font-family: 'Source Sans 3', sans-serif; fill: #494949; opacity: 0" transform="translate(266.201348 428.772998)">streamflow dought</text>
    <text style="font-weight: 300; font-size: 16px; font-family: 'Source Sans 3', sans-serif; fill: #494949; opacity: 0" transform="translate(325.596348 446.380998)">predicted</text>
    <text style="font-weight: 300; font-size: 16px; font-family: 'Source Sans 3', sans-serif; fill: #494949; opacity: 0" transform="translate(348.473848 463.796498)">11.1%</text>
   </g>
   <g id="tf-label-ND">
    <text style="font-weight: 300; font-size: 16px; font-family: 'Source Sans 3', sans-serif; fill: #494949; opacity: 0" transform="translate(270.973848 192.541998)">Neither severe nor</text>
    <text style="font-weight: 300; font-size: 16px; font-family: 'Source Sans 3', sans-serif; fill: #494949; opacity: 0" transform="translate(260.766348 209.957498)">extreme streamflow</text>
    <text style="font-weight: 300; font-size: 16px; font-family: 'Source Sans 3', sans-serif; fill: #494949; opacity: 0" transform="translate(275.993848 227.372998)">dought predicted</text>
    <text style="font-weight: 300; font-size: 16px; font-family: 'Source Sans 3', sans-serif; fill: #494949; opacity: 0" transform="translate(348.473848 244.980998)">88.9%</text>
   </g>
   <g id="tf-label-YD-YD">
    <text style="font-weight: 300; font-size: 16px; font-family: 'Source Sans 3', sans-serif; fill: #494949; opacity: 0" transform="translate(589.764569 455.572654)">Did occur</text>
    <text style="font-weight: 300; font-size: 16px; font-family: 'Source Sans 3', sans-serif; fill: #494949; opacity: 0" transform="translate(563.329569 473.141154)">(true positive)</text>
    <text style="font-weight: 300; font-size: 16px; font-family: 'Source Sans 3', sans-serif; fill: #494949; opacity: 0" transform="translate(619.619569 490.556654)">8.2%</text>
   </g>
   <g id="tf-label-YD-ND">
    <text style="font-weight: 300; font-size: 16px; font-family: 'Source Sans 3', sans-serif; fill: #494949; opacity: 0" transform="translate(564.804569 413.660643)">Did not occur</text>
    <text style="font-weight: 300; font-size: 16px; font-family: 'Source Sans 3', sans-serif; fill: #494949; opacity: 0" transform="translate(559.554569 431.307143)">(false positive)</text>
    <text style="font-weight: 300; font-size: 16px; font-family: 'Source Sans 3', sans-serif; fill: #494949; opacity: 0" transform="translate(619.619569 448.722643)">2.9%</text>
   </g>
   <g id="tf-label-ND-YD">
    <text style="font-weight: 300; font-size: 16px; font-family: 'Source Sans 3', sans-serif; fill: #494949; opacity: 0" transform="translate(536.329569 343.863182)">Severe or extreme</text>
    <text style="font-weight: 300; font-size: 16px; font-family: 'Source Sans 3', sans-serif; fill: #494949; opacity: 0" transform="translate(524.899569 361.509682)">streamflow drought</text>
    <text style="font-weight: 300; font-size: 16px; font-family: 'Source Sans 3', sans-serif; fill: #494949; opacity: 0" transform="translate(593.574569 379.117682)">occurred</text>
    <text style="font-weight: 300; font-size: 16px; font-family: 'Source Sans 3', sans-serif; fill: #494949; opacity: 0" transform="translate(555.142069 396.764182)">(false negative)</text>
    <text style="font-weight: 300; font-size: 16px; font-family: 'Source Sans 3', sans-serif; fill: #494949; opacity: 0" transform="translate(619.619569 414.372182)">3.3%</text>
   </g>
   <g id="tf-label-ND-ND">
    <text style="font-weight: 300; font-size: 16px; font-family: 'Source Sans 3', sans-serif; fill: #494949; opacity: 0" transform="translate(534.567069 147.308875)">Neither severe nor</text>
    <text style="font-weight: 300; font-size: 16px; font-family: 'Source Sans 3', sans-serif; fill: #494949; opacity: 0" transform="translate(524.359569 164.724375)">extreme streamflow</text>
    <text style="font-weight: 300; font-size: 16px; font-family: 'Source Sans 3', sans-serif; fill: #494949; opacity: 0" transform="translate(543.972069 182.139875)">dought occurred</text>
    <text style="font-weight: 300; font-size: 16px; font-family: 'Source Sans 3', sans-serif; fill: #494949; opacity: 0" transform="translate(558.917069 199.900875)">(true negative)</text>
    <text style="font-weight: 300; font-size: 16px; font-family: 'Source Sans 3', sans-serif; fill: #494949; opacity: 0" transform="translate(612.067069 217.508875)">85.7%</text>
   </g>
  </g>
 </g>
 <defs>
  <clipPath id="pe8bcafd4fa">
   <rect x="18.19584" y="-15.7464" width="699.84" height="524.88"/>
  </clipPath>
 </defs>
</svg>
