<?xml version="1.0" encoding="utf-8" standalone="no"?>
<!DOCTYPE svg PUBLIC "-//W3C//DTD SVG 1.1//EN"
  "http://www.w3.org/Graphics/SVG/1.1/DTD/svg11.dtd">
<svg xmlns:xlink="http://www.w3.org/1999/xlink" width="399.6px" height="299.52px" viewBox="0 0 399.6 299.52" xmlns="http://www.w3.org/2000/svg" version="1.1">
  <defs>
  <style type="text/css">*{stroke-linejoin: round; stroke-linecap: butt}</style>
 </defs>
 <g id="figure-forecast_truefalse">
  <g id="patch_1">
   <path d="M 0 299.52 
L 399.6 299.52 
L 399.6 0 
L 0 0 
z
" style="fill: #ffffff"/>
  </g>
  <g id="axis-forecast_truefalse">
   <g id="FillBetweenPolyCollection_1">
    <defs>
     <path id="m3f1c10d98c" d="M 67.728814 -36.305455 
L 67.728814 -263.214545 
L 82.779661 -263.214545 
L 82.779661 -36.305455 
L 82.779661 -36.305455 
L 67.728814 -36.305455 
z
"/>
    </defs>
    <g clip-path="url(#p7cc54b6dc5)">
     <use xlink:href="#m3f1c10d98c" x="0" y="299.52" style="fill: #00264c"/>
    </g>
   </g>
   <g id="FillBetweenPolyCollection_2">
    <defs>
     <path id="mc94cb2150c" d="M 82.779661 -263.215245 
L 82.779661 -60.79401 
L 84.14792 -60.794149 
L 85.516179 -60.794317 
L 86.884438 -60.794517 
L 88.252696 -60.794758 
L 89.620955 -60.795047 
L 90.989214 -60.795393 
L 92.357473 -60.795808 
L 93.725732 -60.796306 
L 95.093991 -60.796903 
L 96.46225 -60.797619 
L 97.830508 -60.798478 
L 99.198767 -60.799507 
L 100.567026 -60.800741 
L 101.935285 -60.802221 
L 103.303544 -60.803994 
L 104.671803 -60.80612 
L 106.040062 -60.808667 
L 107.40832 -60.81172 
L 108.776579 -60.815376 
L 110.144838 -60.819756 
L 111.513097 -60.825 
L 112.881356 -60.831276 
L 114.249615 -60.838786 
L 115.617874 -60.847767 
L 116.986133 -60.858501 
L 118.354391 -60.871321 
L 119.72265 -60.88662 
L 121.090909 -60.90486 
L 122.459168 -60.92658 
L 123.827427 -60.952408 
L 125.195686 -60.983071 
L 126.563945 -61.0194 
L 127.932203 -61.062344 
L 129.300462 -61.112965 
L 130.668721 -61.172443 
L 132.03698 -61.242061 
L 133.405239 -61.323182 
L 134.773498 -61.417216 
L 136.141757 -61.525562 
L 137.510015 -61.649533 
L 138.878274 -61.790256 
L 140.246533 -61.94856 
L 141.614792 -62.124843 
L 142.983051 -62.318941 
L 144.35131 -62.530014 
L 145.719569 -62.756465 
L 147.087827 -62.99592 
L 148.456086 -63.245276 
L 149.824345 -63.500836 
L 151.192604 -63.75851 
L 152.560863 -64.01407 
L 153.929122 -64.263427 
L 155.297381 -64.502882 
L 156.665639 -64.729333 
L 158.033898 -64.940406 
L 159.402157 -65.134504 
L 160.770416 -65.310786 
L 162.138675 -65.469091 
L 163.506934 -65.609814 
L 164.875193 -65.733784 
L 166.243451 -65.84213 
L 167.61171 -65.936164 
L 168.979969 -66.017286 
L 170.348228 -66.086903 
L 171.716487 -66.146381 
L 173.084746 -66.197003 
L 174.453005 -66.239946 
L 175.821263 -66.276276 
L 177.189522 -66.306938 
L 178.557781 -66.332767 
L 179.92604 -66.354487 
L 181.294299 -66.372727 
L 182.662558 -66.388026 
L 184.030817 -66.400846 
L 185.399076 -66.41158 
L 186.767334 -66.420561 
L 188.135593 -66.42807 
L 189.503852 -66.434347 
L 190.872111 -66.439591 
L 192.24037 -66.44397 
L 193.608629 -66.447627 
L 194.976888 -66.450679 
L 196.345146 -66.453227 
L 197.713405 -66.455352 
L 199.081664 -66.457126 
L 200.449923 -66.458605 
L 201.818182 -66.459839 
L 203.186441 -66.460869 
L 204.5547 -66.461727 
L 205.922958 -66.462443 
L 207.291217 -66.46304 
L 208.659476 -66.463538 
L 210.027735 -66.463954 
L 211.395994 -66.4643 
L 212.764253 -66.464589 
L 214.132512 -66.464829 
L 215.50077 -66.46503 
L 216.869029 -66.465197 
L 218.237288 -66.465337 
L 218.237288 -268.886573 
L 218.237288 -268.886573 
L 216.869029 -268.886433 
L 215.50077 -268.886266 
L 214.132512 -268.886065 
L 212.764253 -268.885824 
L 211.395994 -268.885536 
L 210.027735 -268.885189 
L 208.659476 -268.884774 
L 207.291217 -268.884276 
L 205.922958 -268.883679 
L 204.5547 -268.882963 
L 203.186441 -268.882105 
L 201.818182 -268.881075 
L 200.449923 -268.879841 
L 199.081664 -268.878362 
L 197.713405 -268.876588 
L 196.345146 -268.874462 
L 194.976888 -268.871915 
L 193.608629 -268.868863 
L 192.24037 -268.865206 
L 190.872111 -268.860826 
L 189.503852 -268.855583 
L 188.135593 -268.849306 
L 186.767334 -268.841796 
L 185.399076 -268.832816 
L 184.030817 -268.822082 
L 182.662558 -268.809262 
L 181.294299 -268.793962 
L 179.92604 -268.775723 
L 178.557781 -268.754002 
L 177.189522 -268.728174 
L 175.821263 -268.697512 
L 174.453005 -268.661182 
L 173.084746 -268.618239 
L 171.716487 -268.567617 
L 170.348228 -268.508139 
L 168.979969 -268.438522 
L 167.61171 -268.3574 
L 166.243451 -268.263366 
L 164.875193 -268.15502 
L 163.506934 -268.03105 
L 162.138675 -267.890326 
L 160.770416 -267.732022 
L 159.402157 -267.555739 
L 158.033898 -267.361641 
L 156.665639 -267.150569 
L 155.297381 -266.924118 
L 153.929122 -266.684663 
L 152.560863 -266.435306 
L 151.192604 -266.179746 
L 149.824345 -265.922072 
L 148.456086 -265.666512 
L 147.087827 -265.417155 
L 145.719569 -265.177701 
L 144.35131 -264.951249 
L 142.983051 -264.740177 
L 141.614792 -264.546079 
L 140.246533 -264.369796 
L 138.878274 -264.211492 
L 137.510015 -264.070769 
L 136.141757 -263.946798 
L 134.773498 -263.838452 
L 133.405239 -263.744418 
L 132.03698 -263.663297 
L 130.668721 -263.593679 
L 129.300462 -263.534201 
L 127.932203 -263.483579 
L 126.563945 -263.440636 
L 125.195686 -263.404306 
L 123.827427 -263.373644 
L 122.459168 -263.347816 
L 121.090909 -263.326096 
L 119.72265 -263.307856 
L 118.354391 -263.292557 
L 116.986133 -263.279736 
L 115.617874 -263.269003 
L 114.249615 -263.260022 
L 112.881356 -263.252512 
L 111.513097 -263.246236 
L 110.144838 -263.240992 
L 108.776579 -263.236612 
L 107.40832 -263.232956 
L 106.040062 -263.229903 
L 104.671803 -263.227356 
L 103.303544 -263.22523 
L 101.935285 -263.223457 
L 100.567026 -263.221977 
L 99.198767 -263.220743 
L 97.830508 -263.219714 
L 96.46225 -263.218855 
L 95.093991 -263.218139 
L 93.725732 -263.217542 
L 92.357473 -263.217044 
L 90.989214 -263.216629 
L 89.620955 -263.216283 
L 88.252696 -263.215994 
L 86.884438 -263.215753 
L 85.516179 -263.215552 
L 84.14792 -263.215385 
L 82.779661 -263.215245 
z
"/>
    </defs>
    <g clip-path="url(#p7cc54b6dc5)">
     <use xlink:href="#mc94cb2150c" x="0" y="299.52" style="fill: #406992; fill-opacity: 0.2"/>
    </g>
   </g>
   <g id="FillBetweenPolyCollection_3">
    <defs>
     <path id="mee18acdde2" d="M 82.779661 -36.304755 
L 82.779661 -60.79261 
L 84.14792 -60.79247 
L 85.516179 -60.792303 
L 86.884438 -60.792102 
L 88.252696 -60.791861 
L 89.620955 -60.791573 
L 90.989214 -60.791226 
L 92.357473 -60.790811 
L 93.725732 -60.790313 
L 95.093991 -60.789716 
L 96.46225 -60.789 
L 97.830508 -60.788142 
L 99.198767 -60.787112 
L 100.567026 -60.785878 
L 101.935285 -60.784398 
L 103.303544 -60.782625 
L 104.671803 -60.780499 
L 106.040062 -60.777952 
L 107.40832 -60.7749 
L 108.776579 -60.771243 
L 110.144838 -60.766863 
L 111.513097 -60.76162 
L 112.881356 -60.755343 
L 114.249615 -60.747833 
L 115.617874 -60.738852 
L 116.986133 -60.728119 
L 118.354391 -60.715299 
L 119.72265 -60.699999 
L 121.090909 -60.68176 
L 122.459168 -60.660039 
L 123.827427 -60.634211 
L 125.195686 -60.603549 
L 126.563945 -60.567219 
L 127.932203 -60.524276 
L 129.300462 -60.473654 
L 130.668721 -60.414176 
L 132.03698 -60.344558 
L 133.405239 -60.263437 
L 134.773498 -60.169403 
L 136.141757 -60.061057 
L 137.510015 -59.937087 
L 138.878274 -59.796363 
L 140.246533 -59.638059 
L 141.614792 -59.461776 
L 142.983051 -59.267678 
L 144.35131 -59.056606 
L 145.719569 -58.830155 
L 147.087827 -58.5907 
L 148.456086 -58.341343 
L 149.824345 -58.085783 
L 151.192604 -57.828109 
L 152.560863 -57.572549 
L 153.929122 -57.323192 
L 155.297381 -57.083737 
L 156.665639 -56.857286 
L 158.033898 -56.646214 
L 159.402157 -56.452116 
L 160.770416 -56.275833 
L 162.138675 -56.117529 
L 163.506934 -55.976805 
L 164.875193 -55.852835 
L 166.243451 -55.744489 
L 167.61171 -55.650455 
L 168.979969 -55.569334 
L 170.348228 -55.499716 
L 171.716487 -55.440238 
L 173.084746 -55.389616 
L 174.453005 -55.346673 
L 175.821263 -55.310343 
L 177.189522 -55.279681 
L 178.557781 -55.253853 
L 179.92604 -55.232133 
L 181.294299 -55.213893 
L 182.662558 -55.198593 
L 184.030817 -55.185773 
L 185.399076 -55.17504 
L 186.767334 -55.166059 
L 188.135593 -55.158549 
L 189.503852 -55.152273 
L 190.872111 -55.147029 
L 192.24037 -55.142649 
L 193.608629 -55.138993 
L 194.976888 -55.13594 
L 196.345146 -55.133393 
L 197.713405 -55.131267 
L 199.081664 -55.129494 
L 200.449923 -55.128014 
L 201.818182 -55.12678 
L 203.186441 -55.125751 
L 204.5547 -55.124892 
L 205.922958 -55.124176 
L 207.291217 -55.123579 
L 208.659476 -55.123081 
L 210.027735 -55.122666 
L 211.395994 -55.122319 
L 212.764253 -55.122031 
L 214.132512 -55.12179 
L 215.50077 -55.121589 
L 216.869029 -55.121422 
L 218.237288 -55.121282 
L 218.237288 -30.633427 
L 218.237288 -30.633427 
L 216.869029 -30.633567 
L 215.50077 -30.633734 
L 214.132512 -30.633935 
L 212.764253 -30.634176 
L 211.395994 -30.634464 
L 210.027735 -30.634811 
L 208.659476 -30.635226 
L 207.291217 -30.635724 
L 205.922958 -30.636321 
L 204.5547 -30.637037 
L 203.186441 -30.637895 
L 201.818182 -30.638925 
L 200.449923 -30.640159 
L 199.081664 -30.641638 
L 197.713405 -30.643412 
L 196.345146 -30.645538 
L 194.976888 -30.648085 
L 193.608629 -30.651137 
L 192.24037 -30.654794 
L 190.872111 -30.659174 
L 189.503852 -30.664417 
L 188.135593 -30.670694 
L 186.767334 -30.678204 
L 185.399076 -30.687184 
L 184.030817 -30.697918 
L 182.662558 -30.710738 
L 181.294299 -30.726038 
L 179.92604 -30.744277 
L 178.557781 -30.765998 
L 177.189522 -30.791826 
L 175.821263 -30.822488 
L 174.453005 -30.858818 
L 173.084746 -30.901761 
L 171.716487 -30.952383 
L 170.348228 -31.011861 
L 168.979969 -31.081478 
L 167.61171 -31.1626 
L 166.243451 -31.256634 
L 164.875193 -31.36498 
L 163.506934 -31.48895 
L 162.138675 -31.629674 
L 160.770416 -31.787978 
L 159.402157 -31.964261 
L 158.033898 -32.158359 
L 156.665639 -32.369431 
L 155.297381 -32.595882 
L 153.929122 -32.835337 
L 152.560863 -33.084694 
L 151.192604 -33.340254 
L 149.824345 -33.597928 
L 148.456086 -33.853488 
L 147.087827 -34.102845 
L 145.719569 -34.342299 
L 144.35131 -34.568751 
L 142.983051 -34.779823 
L 141.614792 -34.973921 
L 140.246533 -35.150204 
L 138.878274 -35.308508 
L 137.510015 -35.449231 
L 136.141757 -35.573202 
L 134.773498 -35.681548 
L 133.405239 -35.775582 
L 132.03698 -35.856703 
L 130.668721 -35.926321 
L 129.300462 -35.985799 
L 127.932203 -36.036421 
L 126.563945 -36.079364 
L 125.195686 -36.115694 
L 123.827427 -36.146356 
L 122.459168 -36.172184 
L 121.090909 -36.193904 
L 119.72265 -36.212144 
L 118.354391 -36.227443 
L 116.986133 -36.240264 
L 115.617874 -36.250997 
L 114.249615 -36.259978 
L 112.881356 -36.267488 
L 111.513097 -36.273764 
L 110.144838 -36.279008 
L 108.776579 -36.283388 
L 107.40832 -36.287044 
L 106.040062 -36.290097 
L 104.671803 -36.292644 
L 103.303544 -36.29477 
L 101.935285 -36.296543 
L 100.567026 -36.298023 
L 99.198767 -36.299257 
L 97.830508 -36.300286 
L 96.46225 -36.301145 
L 95.093991 -36.301861 
L 93.725732 -36.302458 
L 92.357473 -36.302956 
L 90.989214 -36.303371 
L 89.620955 -36.303717 
L 88.252696 -36.304006 
L 86.884438 -36.304247 
L 85.516179 -36.304448 
L 84.14792 -36.304615 
L 82.779661 -36.304755 
z
"/>
    </defs>
    <g clip-path="url(#p7cc54b6dc5)">
     <use xlink:href="#mee18acdde2" x="0" y="299.52" style="fill: #b78935; fill-opacity: 0.2"/>
    </g>
   </g>
   <g id="FillBetweenPolyCollection_4">
    <defs>
     <path id="m18706f06f2" d="M 218.237288 -66.466037 
L 218.237288 -268.887273 
L 233.288136 -268.887273 
L 233.288136 -66.466037 
L 233.288136 -66.466037 
L 218.237288 -66.466037 
z
"/>
    </defs>
    <g clip-path="url(#p7cc54b6dc5)">
     <use xlink:href="#m18706f06f2" x="0" y="299.52" style="fill: #406992"/>
    </g>
   </g>
   <g id="FillBetweenPolyCollection_5">
    <defs>
     <path id="mb908dde62b" d="M 218.237288 -30.632727 
L 218.237288 -55.120582 
L 233.288136 -55.120582 
L 233.288136 -30.632727 
L 233.288136 -30.632727 
L 218.237288 -30.632727 
z
"/>
    </defs>
    <g clip-path="url(#p7cc54b6dc5)">
     <use xlink:href="#mb908dde62b" x="0" y="299.52" style="fill: #b78935"/>
    </g>
   </g>
   <g id="FillBetweenPolyCollection_6">
    <defs>
     <path id="m30432842a8" d="M 368.745763 -13.614545 
L 368.745763 -25.548547 
L 383.79661 -25.548547 
L 383.79661 -13.614545 
L 383.79661 -13.614545 
L 368.745763 -13.614545 
z
"/>
    </defs>
    <g clip-path="url(#p7cc54b6dc5)">
     <use xlink:href="#m30432842a8" x="0" y="299.52" style="fill: #b78935"/>
    </g>
   </g>
   <g id="FillBetweenPolyCollection_7">
    <defs>
     <path id="m126179a78b" d="M 368.745763 -36.894002 
L 368.745763 -49.447855 
L 383.79661 -49.447855 
L 383.79661 -36.894002 
L 383.79661 -36.894002 
L 368.745763 -36.894002 
z
"/>
    </defs>
    <g clip-path="url(#p7cc54b6dc5)">
     <use xlink:href="#m126179a78b" x="0" y="299.52" style="fill: #949494"/>
    </g>
   </g>
   <g id="FillBetweenPolyCollection_8">
    <defs>
     <path id="m654291da74" d="M 368.745763 -72.138764 
L 368.745763 -110.851249 
L 383.79661 -110.851249 
L 383.79661 -72.138764 
L 383.79661 -72.138764 
L 368.745763 -72.138764 
z
"/>
    </defs>
    <g clip-path="url(#p7cc54b6dc5)">
     <use xlink:href="#m654291da74" x="0" y="299.52" style="fill: #949494"/>
    </g>
   </g>
   <g id="FillBetweenPolyCollection_9">
    <defs>
     <path id="meaea1cd7f1" d="M 368.745763 -122.196704 
L 368.745763 -285.905455 
L 383.79661 -285.905455 
L 383.79661 -122.196704 
L 383.79661 -122.196704 
L 368.745763 -122.196704 
z
"/>
    </defs>
    <g clip-path="url(#p7cc54b6dc5)">
     <use xlink:href="#meaea1cd7f1" x="0" y="299.52" style="fill: #406992"/>
    </g>
   </g>
   <g id="FillBetweenPolyCollection_10">
    <defs>
     <path id="m880b728c54" d="M 233.288136 -42.566029 
L 233.288136 -55.119882 
L 234.656394 -55.119743 
L 236.024653 -55.119575 
L 237.392912 -55.119375 
L 238.761171 -55.119134 
L 240.12943 -55.118845 
L 241.497689 -55.118499 
L 242.865948 -55.118084 
L 244.234206 -55.117586 
L 245.602465 -55.116989 
L 246.970724 -55.116273 
L 248.338983 -55.115414 
L 249.707242 -55.114385 
L 251.075501 -55.113151 
L 252.44376 -55.111671 
L 253.812018 -55.109898 
L 255.180277 -55.107772 
L 256.548536 -55.105225 
L 257.916795 -55.102172 
L 259.285054 -55.098516 
L 260.653313 -55.094136 
L 262.021572 -55.088892 
L 263.389831 -55.082616 
L 264.758089 -55.075106 
L 266.126348 -55.066125 
L 267.494607 -55.055391 
L 268.862866 -55.042571 
L 270.231125 -55.027272 
L 271.599384 -55.009032 
L 272.967643 -54.987312 
L 274.335901 -54.961484 
L 275.70416 -54.930821 
L 277.072419 -54.894492 
L 278.440678 -54.851548 
L 279.808937 -54.800927 
L 281.177196 -54.741449 
L 282.545455 -54.671831 
L 283.913713 -54.59071 
L 285.281972 -54.496676 
L 286.650231 -54.38833 
L 288.01849 -54.264359 
L 289.386749 -54.123636 
L 290.755008 -53.965332 
L 292.123267 -53.789049 
L 293.491525 -53.594951 
L 294.859784 -53.383878 
L 296.228043 -53.157427 
L 297.596302 -52.917973 
L 298.964561 -52.668616 
L 300.33282 -52.413056 
L 301.701079 -52.155382 
L 303.069337 -51.899822 
L 304.437596 -51.650465 
L 305.805855 -51.41101 
L 307.174114 -51.184559 
L 308.542373 -50.973486 
L 309.910632 -50.779389 
L 311.278891 -50.603106 
L 312.647149 -50.444801 
L 314.015408 -50.304078 
L 315.383667 -50.180108 
L 316.751926 -50.071762 
L 318.120185 -49.977728 
L 319.488444 -49.896606 
L 320.856703 -49.826989 
L 322.224961 -49.767511 
L 323.59322 -49.716889 
L 324.961479 -49.673946 
L 326.329738 -49.637616 
L 327.697997 -49.606954 
L 329.066256 -49.581125 
L 330.434515 -49.559405 
L 331.802773 -49.541165 
L 333.171032 -49.525866 
L 334.539291 -49.513046 
L 335.90755 -49.502312 
L 337.275809 -49.493332 
L 338.644068 -49.485822 
L 340.012327 -49.479545 
L 341.380586 -49.474301 
L 342.748844 -49.469922 
L 344.117103 -49.466265 
L 345.485362 -49.463213 
L 346.853621 -49.460666 
L 348.22188 -49.45854 
L 349.590139 -49.456766 
L 350.958398 -49.455287 
L 352.326656 -49.454053 
L 353.694915 -49.453023 
L 355.063174 -49.452165 
L 356.431433 -49.451449 
L 357.799692 -49.450852 
L 359.167951 -49.450354 
L 360.53621 -49.449938 
L 361.904468 -49.449592 
L 363.272727 -49.449304 
L 364.640986 -49.449063 
L 366.009245 -49.448862 
L 367.377504 -49.448695 
L 368.745763 -49.448555 
L 368.745763 -36.894702 
L 368.745763 -36.894702 
L 367.377504 -36.894842 
L 366.009245 -36.895009 
L 364.640986 -36.89521 
L 363.272727 -36.89545 
L 361.904468 -36.895739 
L 360.53621 -36.896085 
L 359.167951 -36.896501 
L 357.799692 -36.896998 
L 356.431433 -36.897596 
L 355.063174 -36.898312 
L 353.694915 -36.89917 
L 352.326656 -36.9002 
L 350.958398 -36.901434 
L 349.590139 -36.902913 
L 348.22188 -36.904687 
L 346.853621 -36.906812 
L 345.485362 -36.90936 
L 344.117103 -36.912412 
L 342.748844 -36.916069 
L 341.380586 -36.920448 
L 340.012327 -36.925692 
L 338.644068 -36.931969 
L 337.275809 -36.939478 
L 335.90755 -36.948459 
L 334.539291 -36.959193 
L 333.171032 -36.972013 
L 331.802773 -36.987312 
L 330.434515 -37.005552 
L 329.066256 -37.027272 
L 327.697997 -37.053101 
L 326.329738 -37.083763 
L 324.961479 -37.120092 
L 323.59322 -37.163036 
L 322.224961 -37.213658 
L 320.856703 -37.273136 
L 319.488444 -37.342753 
L 318.120185 -37.423874 
L 316.751926 -37.517909 
L 315.383667 -37.626255 
L 314.015408 -37.750225 
L 312.647149 -37.890948 
L 311.278891 -38.049253 
L 309.910632 -38.225535 
L 308.542373 -38.419633 
L 307.174114 -38.630706 
L 305.805855 -38.857157 
L 304.437596 -39.096612 
L 303.069337 -39.345968 
L 301.701079 -39.601529 
L 300.33282 -39.859203 
L 298.964561 -40.114763 
L 297.596302 -40.364119 
L 296.228043 -40.603574 
L 294.859784 -40.830025 
L 293.491525 -41.041098 
L 292.123267 -41.235196 
L 290.755008 -41.411479 
L 289.386749 -41.569783 
L 288.01849 -41.710506 
L 286.650231 -41.834476 
L 285.281972 -41.942823 
L 283.913713 -42.036857 
L 282.545455 -42.117978 
L 281.177196 -42.187596 
L 279.808937 -42.247074 
L 278.440678 -42.297695 
L 277.072419 -42.340639 
L 275.70416 -42.376968 
L 274.335901 -42.407631 
L 272.967643 -42.433459 
L 271.599384 -42.455179 
L 270.231125 -42.473419 
L 268.862866 -42.488718 
L 267.494607 -42.501538 
L 266.126348 -42.512272 
L 264.758089 -42.521253 
L 263.389831 -42.528763 
L 262.021572 -42.535039 
L 260.653313 -42.540283 
L 259.285054 -42.544662 
L 257.916795 -42.548319 
L 256.548536 -42.551371 
L 255.180277 -42.553919 
L 253.812018 -42.556045 
L 252.44376 -42.557818 
L 251.075501 -42.559298 
L 249.707242 -42.560532 
L 248.338983 -42.561561 
L 246.970724 -42.56242 
L 245.602465 -42.563136 
L 244.234206 -42.563733 
L 242.865948 -42.564231 
L 241.497689 -42.564646 
L 240.12943 -42.564992 
L 238.761171 -42.565281 
L 237.392912 -42.565522 
L 236.024653 -42.565722 
L 234.656394 -42.56589 
L 233.288136 -42.566029 
z
"/>
    </defs>
    <g clip-path="url(#p7cc54b6dc5)">
     <use xlink:href="#m880b728c54" x="0" y="299.52" style="fill: #949494; fill-opacity: 0.2"/>
    </g>
   </g>
   <g id="FillBetweenPolyCollection_11">
    <defs>
     <path id="m7edc1a83ec" d="M 233.288136 -30.630627 
L 233.288136 -42.564629 
L 234.656394 -42.564211 
L 236.024653 -42.563709 
L 237.392912 -42.563106 
L 238.761171 -42.562384 
L 240.12943 -42.561518 
L 241.497689 -42.560479 
L 242.865948 -42.559234 
L 244.234206 -42.55774 
L 245.602465 -42.555948 
L 246.970724 -42.5538 
L 248.338983 -42.551225 
L 249.707242 -42.548137 
L 251.075501 -42.544434 
L 252.44376 -42.539996 
L 253.812018 -42.534675 
L 255.180277 -42.528298 
L 256.548536 -42.520656 
L 257.916795 -42.511499 
L 259.285054 -42.500529 
L 260.653313 -42.48739 
L 262.021572 -42.471659 
L 263.389831 -42.452829 
L 264.758089 -42.4303 
L 266.126348 -42.403358 
L 267.494607 -42.371156 
L 268.862866 -42.332696 
L 270.231125 -42.286798 
L 271.599384 -42.232079 
L 272.967643 -42.166919 
L 274.335901 -42.089434 
L 275.70416 -41.997446 
L 277.072419 -41.888458 
L 278.440678 -41.759627 
L 279.808937 -41.607763 
L 281.177196 -41.429328 
L 282.545455 -41.220476 
L 283.913713 -40.977112 
L 285.281972 -40.695009 
L 286.650231 -40.369971 
L 288.01849 -39.99806 
L 289.386749 -39.57589 
L 290.755008 -39.100978 
L 292.123267 -38.572129 
L 293.491525 -37.989835 
L 294.859784 -37.356617 
L 296.228043 -36.677264 
L 297.596302 -35.9589 
L 298.964561 -35.21083 
L 300.33282 -34.444149 
L 301.701079 -33.671128 
L 303.069337 -32.904447 
L 304.437596 -32.156377 
L 305.805855 -31.438013 
L 307.174114 -30.758659 
L 308.542373 -30.125441 
L 309.910632 -29.543148 
L 311.278891 -29.014299 
L 312.647149 -28.539386 
L 314.015408 -28.117217 
L 315.383667 -27.745306 
L 316.751926 -27.420268 
L 318.120185 -27.138165 
L 319.488444 -26.894801 
L 320.856703 -26.685949 
L 322.224961 -26.507514 
L 323.59322 -26.35565 
L 324.961479 -26.226819 
L 326.329738 -26.11783 
L 327.697997 -26.025843 
L 329.066256 -25.948358 
L 330.434515 -25.883198 
L 331.802773 -25.828478 
L 333.171032 -25.782581 
L 334.539291 -25.74412 
L 335.90755 -25.711919 
L 337.275809 -25.684977 
L 338.644068 -25.662448 
L 340.012327 -25.643618 
L 341.380586 -25.627886 
L 342.748844 -25.614748 
L 344.117103 -25.603778 
L 345.485362 -25.594621 
L 346.853621 -25.586979 
L 348.22188 -25.580602 
L 349.590139 -25.575281 
L 350.958398 -25.570842 
L 352.326656 -25.56714 
L 353.694915 -25.564052 
L 355.063174 -25.561476 
L 356.431433 -25.559328 
L 357.799692 -25.557537 
L 359.167951 -25.556043 
L 360.53621 -25.554797 
L 361.904468 -25.553759 
L 363.272727 -25.552893 
L 364.640986 -25.55217 
L 366.009245 -25.551568 
L 367.377504 -25.551066 
L 368.745763 -25.550647 
L 368.745763 -13.616645 
L 368.745763 -13.616645 
L 367.377504 -13.617064 
L 366.009245 -13.617566 
L 364.640986 -13.618168 
L 363.272727 -13.618891 
L 361.904468 -13.619757 
L 360.53621 -13.620795 
L 359.167951 -13.622041 
L 357.799692 -13.623535 
L 356.431433 -13.625326 
L 355.063174 -13.627474 
L 353.694915 -13.63005 
L 352.326656 -13.633138 
L 350.958398 -13.63684 
L 349.590139 -13.641279 
L 348.22188 -13.6466 
L 346.853621 -13.652977 
L 345.485362 -13.660619 
L 344.117103 -13.669776 
L 342.748844 -13.680746 
L 341.380586 -13.693884 
L 340.012327 -13.709616 
L 338.644068 -13.728446 
L 337.275809 -13.750975 
L 335.90755 -13.777917 
L 334.539291 -13.810118 
L 333.171032 -13.848579 
L 331.802773 -13.894476 
L 330.434515 -13.949196 
L 329.066256 -14.014356 
L 327.697997 -14.091841 
L 326.329738 -14.183828 
L 324.961479 -14.292817 
L 323.59322 -14.421648 
L 322.224961 -14.573512 
L 320.856703 -14.751947 
L 319.488444 -14.960799 
L 318.120185 -15.204163 
L 316.751926 -15.486266 
L 315.383667 -15.811304 
L 314.015408 -16.183215 
L 312.647149 -16.605384 
L 311.278891 -17.080297 
L 309.910632 -17.609146 
L 308.542373 -18.191439 
L 307.174114 -18.824657 
L 305.805855 -19.504011 
L 304.437596 -20.222375 
L 303.069337 -20.970445 
L 301.701079 -21.737126 
L 300.33282 -22.510147 
L 298.964561 -23.276828 
L 297.596302 -24.024898 
L 296.228043 -24.743262 
L 294.859784 -25.422615 
L 293.491525 -26.055833 
L 292.123267 -26.638127 
L 290.755008 -27.166976 
L 289.386749 -27.641888 
L 288.01849 -28.064058 
L 286.650231 -28.435969 
L 285.281972 -28.761007 
L 283.913713 -29.04311 
L 282.545455 -29.286474 
L 281.177196 -29.495326 
L 279.808937 -29.673761 
L 278.440678 -29.825625 
L 277.072419 -29.954456 
L 275.70416 -30.063444 
L 274.335901 -30.155432 
L 272.967643 -30.232917 
L 271.599384 -30.298077 
L 270.231125 -30.352796 
L 268.862866 -30.398694 
L 267.494607 -30.437154 
L 266.126348 -30.469356 
L 264.758089 -30.496298 
L 263.389831 -30.518827 
L 262.021572 -30.537657 
L 260.653313 -30.553388 
L 259.285054 -30.566527 
L 257.916795 -30.577497 
L 256.548536 -30.586654 
L 255.180277 -30.594296 
L 253.812018 -30.600673 
L 252.44376 -30.605994 
L 251.075501 -30.610432 
L 249.707242 -30.614135 
L 248.338983 -30.617223 
L 246.970724 -30.619798 
L 245.602465 -30.621946 
L 244.234206 -30.623738 
L 242.865948 -30.625232 
L 241.497689 -30.626477 
L 240.12943 -30.627516 
L 238.761171 -30.628382 
L 237.392912 -30.629104 
L 236.024653 -30.629707 
L 234.656394 -30.630209 
L 233.288136 -30.630627 
z
"/>
    </defs>
    <g clip-path="url(#p7cc54b6dc5)">
     <use xlink:href="#m7edc1a83ec" x="0" y="299.52" style="fill: #b78935; fill-opacity: 0.2"/>
    </g>
   </g>
   <g id="FillBetweenPolyCollection_12">
    <defs>
     <path id="meca1693826" d="M 233.288136 -105.179222 
L 233.288136 -66.466737 
L 234.656394 -66.466876 
L 236.024653 -66.467044 
L 237.392912 -66.467245 
L 238.761171 -66.467485 
L 240.12943 -66.467774 
L 241.497689 -66.46812 
L 242.865948 -66.468536 
L 244.234206 -66.469033 
L 245.602465 -66.469631 
L 246.970724 -66.470347 
L 248.338983 -66.471205 
L 249.707242 -66.472234 
L 251.075501 -66.473469 
L 252.44376 -66.474948 
L 253.812018 -66.476722 
L 255.180277 -66.478847 
L 256.548536 -66.481395 
L 257.916795 -66.484447 
L 259.285054 -66.488104 
L 260.653313 -66.492483 
L 262.021572 -66.497727 
L 263.389831 -66.504004 
L 264.758089 -66.511513 
L 266.126348 -66.520494 
L 267.494607 -66.531228 
L 268.862866 -66.544048 
L 270.231125 -66.559347 
L 271.599384 -66.577587 
L 272.967643 -66.599307 
L 274.335901 -66.625135 
L 275.70416 -66.655798 
L 277.072419 -66.692127 
L 278.440678 -66.735071 
L 279.808937 -66.785693 
L 281.177196 -66.845171 
L 282.545455 -66.914788 
L 283.913713 -66.995909 
L 285.281972 -67.089944 
L 286.650231 -67.19829 
L 288.01849 -67.32226 
L 289.386749 -67.462983 
L 290.755008 -67.621287 
L 292.123267 -67.79757 
L 293.491525 -67.991668 
L 294.859784 -68.202741 
L 296.228043 -68.429192 
L 297.596302 -68.668647 
L 298.964561 -68.918003 
L 300.33282 -69.173564 
L 301.701079 -69.431237 
L 303.069337 -69.686798 
L 304.437596 -69.936154 
L 305.805855 -70.175609 
L 307.174114 -70.40206 
L 308.542373 -70.613133 
L 309.910632 -70.807231 
L 311.278891 -70.983514 
L 312.647149 -71.141818 
L 314.015408 -71.282541 
L 315.383667 -71.406511 
L 316.751926 -71.514858 
L 318.120185 -71.608892 
L 319.488444 -71.690013 
L 320.856703 -71.759631 
L 322.224961 -71.819109 
L 323.59322 -71.86973 
L 324.961479 -71.912674 
L 326.329738 -71.949003 
L 327.697997 -71.979666 
L 329.066256 -72.005494 
L 330.434515 -72.027214 
L 331.802773 -72.045454 
L 333.171032 -72.060753 
L 334.539291 -72.073573 
L 335.90755 -72.084307 
L 337.275809 -72.093288 
L 338.644068 -72.100798 
L 340.012327 -72.107074 
L 341.380586 -72.112318 
L 342.748844 -72.116697 
L 344.117103 -72.120354 
L 345.485362 -72.123406 
L 346.853621 -72.125954 
L 348.22188 -72.12808 
L 349.590139 -72.129853 
L 350.958398 -72.131333 
L 352.326656 -72.132567 
L 353.694915 -72.133596 
L 355.063174 -72.134455 
L 356.431433 -72.135171 
L 357.799692 -72.135768 
L 359.167951 -72.136266 
L 360.53621 -72.136681 
L 361.904468 -72.137027 
L 363.272727 -72.137316 
L 364.640986 -72.137557 
L 366.009245 -72.137757 
L 367.377504 -72.137925 
L 368.745763 -72.138064 
L 368.745763 -110.850549 
L 368.745763 -110.850549 
L 367.377504 -110.85041 
L 366.009245 -110.850242 
L 364.640986 -110.850042 
L 363.272727 -110.849801 
L 361.904468 -110.849512 
L 360.53621 -110.849166 
L 359.167951 -110.848751 
L 357.799692 -110.848253 
L 356.431433 -110.847656 
L 355.063174 -110.84694 
L 353.694915 -110.846081 
L 352.326656 -110.845052 
L 350.958398 -110.843818 
L 349.590139 -110.842338 
L 348.22188 -110.840565 
L 346.853621 -110.838439 
L 345.485362 -110.835892 
L 344.117103 -110.832839 
L 342.748844 -110.829183 
L 341.380586 -110.824803 
L 340.012327 -110.819559 
L 338.644068 -110.813283 
L 337.275809 -110.805773 
L 335.90755 -110.796792 
L 334.539291 -110.786058 
L 333.171032 -110.773238 
L 331.802773 -110.757939 
L 330.434515 -110.739699 
L 329.066256 -110.717979 
L 327.697997 -110.692151 
L 326.329738 -110.661488 
L 324.961479 -110.625159 
L 323.59322 -110.582215 
L 322.224961 -110.531594 
L 320.856703 -110.472116 
L 319.488444 -110.402498 
L 318.120185 -110.321377 
L 316.751926 -110.227343 
L 315.383667 -110.118997 
L 314.015408 -109.995026 
L 312.647149 -109.854303 
L 311.278891 -109.695999 
L 309.910632 -109.519716 
L 308.542373 -109.325618 
L 307.174114 -109.114545 
L 305.805855 -108.888094 
L 304.437596 -108.648639 
L 303.069337 -108.399283 
L 301.701079 -108.143723 
L 300.33282 -107.886049 
L 298.964561 -107.630489 
L 297.596302 -107.381132 
L 296.228043 -107.141677 
L 294.859784 -106.915226 
L 293.491525 -106.704153 
L 292.123267 -106.510056 
L 290.755008 -106.333773 
L 289.386749 -106.175468 
L 288.01849 -106.034745 
L 286.650231 -105.910775 
L 285.281972 -105.802429 
L 283.913713 -105.708395 
L 282.545455 -105.627273 
L 281.177196 -105.557656 
L 279.808937 -105.498178 
L 278.440678 -105.447556 
L 277.072419 -105.404613 
L 275.70416 -105.368283 
L 274.335901 -105.337621 
L 272.967643 -105.311792 
L 271.599384 -105.290072 
L 270.231125 -105.271832 
L 268.862866 -105.256533 
L 267.494607 -105.243713 
L 266.126348 -105.232979 
L 264.758089 -105.223999 
L 263.389831 -105.216489 
L 262.021572 -105.210212 
L 260.653313 -105.204968 
L 259.285054 -105.200589 
L 257.916795 -105.196932 
L 256.548536 -105.19388 
L 255.180277 -105.191332 
L 253.812018 -105.189207 
L 252.44376 -105.187433 
L 251.075501 -105.185954 
L 249.707242 -105.18472 
L 248.338983 -105.18369 
L 246.970724 -105.182832 
L 245.602465 -105.182116 
L 244.234206 -105.181519 
L 242.865948 -105.181021 
L 241.497689 -105.180605 
L 240.12943 -105.180259 
L 238.761171 -105.17997 
L 237.392912 -105.17973 
L 236.024653 -105.179529 
L 234.656394 -105.179362 
L 233.288136 -105.179222 
z
"/>
    </defs>
    <g clip-path="url(#p7cc54b6dc5)">
     <use xlink:href="#meca1693826" x="0" y="299.52" style="fill: #949494; fill-opacity: 0.2"/>
    </g>
   </g>
   <g id="FillBetweenPolyCollection_13">
    <defs>
     <path id="mc3ebb372d2" d="M 233.288136 -268.889373 
L 233.288136 -105.180622 
L 234.656394 -105.181041 
L 236.024653 -105.181543 
L 237.392912 -105.182145 
L 238.761171 -105.182867 
L 240.12943 -105.183733 
L 241.497689 -105.184772 
L 242.865948 -105.186018 
L 244.234206 -105.187512 
L 245.602465 -105.189303 
L 246.970724 -105.191451 
L 248.338983 -105.194027 
L 249.707242 -105.197115 
L 251.075501 -105.200817 
L 252.44376 -105.205256 
L 253.812018 -105.210576 
L 255.180277 -105.216953 
L 256.548536 -105.224596 
L 257.916795 -105.233753 
L 259.285054 -105.244722 
L 260.653313 -105.257861 
L 262.021572 -105.273592 
L 263.389831 -105.292422 
L 264.758089 -105.314951 
L 266.126348 -105.341894 
L 267.494607 -105.374095 
L 268.862866 -105.412555 
L 270.231125 -105.458453 
L 271.599384 -105.513173 
L 272.967643 -105.578333 
L 274.335901 -105.655818 
L 275.70416 -105.747805 
L 277.072419 -105.856794 
L 278.440678 -105.985624 
L 279.808937 -106.137489 
L 281.177196 -106.315923 
L 282.545455 -106.524776 
L 283.913713 -106.76814 
L 285.281972 -107.050242 
L 286.650231 -107.37528 
L 288.01849 -107.747191 
L 289.386749 -108.169361 
L 290.755008 -108.644274 
L 292.123267 -109.173122 
L 293.491525 -109.755416 
L 294.859784 -110.388634 
L 296.228043 -111.067987 
L 297.596302 -111.786352 
L 298.964561 -112.534421 
L 300.33282 -113.301102 
L 301.701079 -114.074124 
L 303.069337 -114.840805 
L 304.437596 -115.588874 
L 305.805855 -116.307239 
L 307.174114 -116.986592 
L 308.542373 -117.61981 
L 309.910632 -118.202104 
L 311.278891 -118.730952 
L 312.647149 -119.205865 
L 314.015408 -119.628035 
L 315.383667 -119.999946 
L 316.751926 -120.324984 
L 318.120185 -120.607087 
L 319.488444 -120.85045 
L 320.856703 -121.059303 
L 322.224961 -121.237737 
L 323.59322 -121.389602 
L 324.961479 -121.518432 
L 326.329738 -121.627421 
L 327.697997 -121.719408 
L 329.066256 -121.796893 
L 330.434515 -121.862054 
L 331.802773 -121.916773 
L 333.171032 -121.962671 
L 334.539291 -122.001131 
L 335.90755 -122.033332 
L 337.275809 -122.060275 
L 338.644068 -122.082804 
L 340.012327 -122.101634 
L 341.380586 -122.117365 
L 342.748844 -122.130504 
L 344.117103 -122.141473 
L 345.485362 -122.150631 
L 346.853621 -122.158273 
L 348.22188 -122.16465 
L 349.590139 -122.16997 
L 350.958398 -122.174409 
L 352.326656 -122.178111 
L 353.694915 -122.181199 
L 355.063174 -122.183775 
L 356.431433 -122.185923 
L 357.799692 -122.187714 
L 359.167951 -122.189208 
L 360.53621 -122.190454 
L 361.904468 -122.191493 
L 363.272727 -122.192359 
L 364.640986 -122.193081 
L 366.009245 -122.193683 
L 367.377504 -122.194185 
L 368.745763 -122.194604 
L 368.745763 -285.903355 
L 368.745763 -285.903355 
L 367.377504 -285.902936 
L 366.009245 -285.902434 
L 364.640986 -285.901832 
L 363.272727 -285.901109 
L 361.904468 -285.900243 
L 360.53621 -285.899205 
L 359.167951 -285.897959 
L 357.799692 -285.896465 
L 356.431433 -285.894674 
L 355.063174 -285.892526 
L 353.694915 -285.88995 
L 352.326656 -285.886862 
L 350.958398 -285.88316 
L 349.590139 -285.878721 
L 348.22188 -285.8734 
L 346.853621 -285.867023 
L 345.485362 -285.859381 
L 344.117103 -285.850224 
L 342.748844 -285.839254 
L 341.380586 -285.826116 
L 340.012327 -285.810384 
L 338.644068 -285.791554 
L 337.275809 -285.769025 
L 335.90755 -285.742083 
L 334.539291 -285.709882 
L 333.171032 -285.671421 
L 331.802773 -285.625524 
L 330.434515 -285.570804 
L 329.066256 -285.505644 
L 327.697997 -285.428159 
L 326.329738 -285.336172 
L 324.961479 -285.227183 
L 323.59322 -285.098352 
L 322.224961 -284.946488 
L 320.856703 -284.768053 
L 319.488444 -284.559201 
L 318.120185 -284.315837 
L 316.751926 -284.033734 
L 315.383667 -283.708696 
L 314.015408 -283.336785 
L 312.647149 -282.914616 
L 311.278891 -282.439703 
L 309.910632 -281.910854 
L 308.542373 -281.328561 
L 307.174114 -280.695343 
L 305.805855 -280.015989 
L 304.437596 -279.297625 
L 303.069337 -278.549555 
L 301.701079 -277.782874 
L 300.33282 -277.009853 
L 298.964561 -276.243172 
L 297.596302 -275.495102 
L 296.228043 -274.776738 
L 294.859784 -274.097385 
L 293.491525 -273.464167 
L 292.123267 -272.881873 
L 290.755008 -272.353024 
L 289.386749 -271.878112 
L 288.01849 -271.455942 
L 286.650231 -271.084031 
L 285.281972 -270.758993 
L 283.913713 -270.47689 
L 282.545455 -270.233526 
L 281.177196 -270.024674 
L 279.808937 -269.846239 
L 278.440678 -269.694375 
L 277.072419 -269.565544 
L 275.70416 -269.456556 
L 274.335901 -269.364568 
L 272.967643 -269.287083 
L 271.599384 -269.221923 
L 270.231125 -269.167204 
L 268.862866 -269.121306 
L 267.494607 -269.082846 
L 266.126348 -269.050644 
L 264.758089 -269.023702 
L 263.389831 -269.001173 
L 262.021572 -268.982343 
L 260.653313 -268.966612 
L 259.285054 -268.953473 
L 257.916795 -268.942503 
L 256.548536 -268.933346 
L 255.180277 -268.925704 
L 253.812018 -268.919327 
L 252.44376 -268.914006 
L 251.075501 -268.909568 
L 249.707242 -268.905865 
L 248.338983 -268.902777 
L 246.970724 -268.900202 
L 245.602465 -268.898054 
L 244.234206 -268.896262 
L 242.865948 -268.894768 
L 241.497689 -268.893523 
L 240.12943 -268.892484 
L 238.761171 -268.891618 
L 237.392912 -268.890896 
L 236.024653 -268.890293 
L 234.656394 -268.889791 
L 233.288136 -268.889373 
z
"/>
    </defs>
    <g clip-path="url(#p7cc54b6dc5)">
     <use xlink:href="#mc3ebb372d2" x="0" y="299.52" style="fill: #406992; fill-opacity: 0.2"/>
    </g>
   </g>
   <g id="text_1">
    <text style="font-weight: 300; font-size: 16px; font-family: 'Source Sans 3', sans-serif; fill: #595959" transform="translate(-30.93161 145.05225)">All Predictions</text>
    <text style="font-weight: 300; font-size: 16px; font-family: 'Source Sans 3', sans-serif; fill: #595959" transform="translate(24.77839 162.46775)">100%</text>
   </g>
   <g id="text_2">
    <text style="font-weight: 300; font-size: 16px; font-family: 'Source Sans 3', sans-serif; fill: #595959" transform="translate(93.591864 251.839345)">Drought Predicted</text>
    <text style="font-weight: 300; font-size: 16px; font-family: 'Source Sans 3', sans-serif; fill: #595959" transform="translate(171.959364 269.447345)">10.8%</text>
   </g>
   <g id="text_3">
    <text style="font-weight: 300; font-size: 16px; font-family: 'Source Sans 3', sans-serif; fill: #595959" transform="translate(71.766864 127.039345)">No Drought Predicted</text>
    <text style="font-weight: 300; font-size: 16px; font-family: 'Source Sans 3', sans-serif; fill: #595959" transform="translate(171.959364 144.647345)">89.2%</text>
   </g>
   <g id="text_4">
    <text style="font-weight: 300; font-size: 16px; font-family: 'Source Sans 3', sans-serif; fill: #595959" transform="translate(277.060339 275.134454)">Drought Obs.</text>
    <text style="font-weight: 300; font-size: 16px; font-family: 'Source Sans 3', sans-serif; fill: #595959" transform="translate(330.020339 292.742454)">5.3%</text>
   </g>
   <g id="text_5">
    <text style="font-weight: 300; font-size: 16px; font-family: 'Source Sans 3', sans-serif; fill: #595959" transform="translate(255.235339 251.545071)">No Drought Obs.</text>
    <text style="font-weight: 300; font-size: 16px; font-family: 'Source Sans 3', sans-serif; fill: #595959" transform="translate(330.020339 269.153071)">5.5%</text>
   </g>
   <g id="text_6">
    <text style="font-weight: 300; font-size: 16px; font-family: 'Source Sans 3', sans-serif; fill: #595959" transform="translate(277.060339 203.220993)">Drought Obs.</text>
    <text style="font-weight: 300; font-size: 16px; font-family: 'Source Sans 3', sans-serif; fill: #595959" transform="translate(322.467839 220.828993)">17.1%</text>
   </g>
   <g id="text_7">
    <text style="font-weight: 300; font-size: 16px; font-family: 'Source Sans 3', sans-serif; fill: #595959" transform="translate(255.235339 90.664921)">No Drought Obs.</text>
    <text style="font-weight: 300; font-size: 16px; font-family: 'Source Sans 3', sans-serif; fill: #595959" transform="translate(322.467839 108.272921)">72.1%</text>
   </g>
  </g>
 </g>
 <defs>
  <clipPath id="p7cc54b6dc5">
   <rect x="0" y="0" width="399.6" height="299.52"/>
  </clipPath>
 </defs>
</svg>
