<?xml version="1.0" encoding="utf-8" standalone="no"?>
<!DOCTYPE svg PUBLIC "-//W3C//DTD SVG 1.1//EN"
  "http://www.w3.org/Graphics/SVG/1.1/DTD/svg11.dtd">
<svg xmlns:xlink="http://www.w3.org/1999/xlink" width="699.84px" height="524.88px" viewBox="0 0 699.84 524.88" xmlns="http://www.w3.org/2000/svg" version="1.1">
  <defs>
  <style type="text/css">*{stroke-linejoin: round; stroke-linecap: butt}</style>
 </defs>
 <g id="figure-forecast_truefalse_key">
  <g id="patch_1">
   <path d="M 0 524.88 
L 699.84 524.88 
L 699.84 0 
L 0 0 
z
" style="fill: #ffffff"/>
  </g>
  <g id="axis-forecast_truefalse_key">
   <g id="FillBetweenPolyCollection_1">
    <defs>
     <path id="mab732f042b" d="M 136.112949 -79.368218 
L 136.112949 -477.004582 
L 162.472271 -477.004582 
L 162.472271 -79.368218 
L 162.472271 -79.368218 
L 136.112949 -79.368218 
z
"/>
    </defs>
    <g clip-path="url(#p49e5402bc1)">
     <use xlink:href="#mab732f042b" x="0" y="524.88" style="fill: #00264c"/>
    </g>
   </g>
   <g id="tf-swoop-ND">
    <defs>
     <path id="m90d3748234" d="M 162.472271 -477.005808 
L 162.472271 -123.351831 
L 164.868573 -123.352075 
L 167.264875 -123.352368 
L 169.661177 -123.35272 
L 172.057479 -123.353142 
L 174.453781 -123.353648 
L 176.850083 -123.354255 
L 179.246385 -123.354982 
L 181.642687 -123.355855 
L 184.038989 -123.356901 
L 186.435291 -123.358156 
L 188.831593 -123.359661 
L 191.227895 -123.361464 
L 193.624197 -123.363627 
L 196.020499 -123.36622 
L 198.416801 -123.369328 
L 200.813103 -123.373053 
L 203.209405 -123.377517 
L 205.605707 -123.382866 
L 208.002009 -123.389274 
L 210.398311 -123.396948 
L 212.794613 -123.406138 
L 215.190915 -123.417137 
L 217.587217 -123.430297 
L 219.983519 -123.446035 
L 222.379821 -123.464845 
L 224.776123 -123.487311 
L 227.172425 -123.514121 
L 229.568727 -123.546085 
L 231.965029 -123.584147 
L 234.361331 -123.629409 
L 236.757633 -123.683142 
L 239.153935 -123.746806 
L 241.550237 -123.82206 
L 243.946539 -123.910769 
L 246.342841 -124.014999 
L 248.739143 -124.136997 
L 251.135445 -124.279154 
L 253.531747 -124.44394 
L 255.928049 -124.633806 
L 258.324351 -124.851052 
L 260.720653 -125.097656 
L 263.116955 -125.375069 
L 265.513257 -125.683988 
L 267.909559 -126.024126 
L 270.305861 -126.394011 
L 272.702163 -126.790844 
L 275.098465 -127.210466 
L 277.494767 -127.647439 
L 279.891069 -128.095284 
L 282.287371 -128.546833 
L 284.683673 -128.994678 
L 287.079975 -129.431651 
L 289.476277 -129.851272 
L 291.872579 -130.248106 
L 294.268881 -130.617991 
L 296.665183 -130.958129 
L 299.061485 -131.267047 
L 301.457787 -131.54446 
L 303.854089 -131.791064 
L 306.250391 -132.00831 
L 308.646693 -132.198176 
L 311.042995 -132.362962 
L 313.439297 -132.50512 
L 315.835599 -132.627118 
L 318.231901 -132.731347 
L 320.628203 -132.820057 
L 323.024505 -132.895311 
L 325.420807 -132.958975 
L 327.817109 -133.012708 
L 330.213411 -133.05797 
L 332.609713 -133.096032 
L 335.006015 -133.127996 
L 337.402317 -133.154806 
L 339.798619 -133.177272 
L 342.194921 -133.196082 
L 344.591223 -133.21182 
L 346.987525 -133.22498 
L 349.383827 -133.235979 
L 351.780129 -133.245168 
L 354.176431 -133.252843 
L 356.572733 -133.259251 
L 358.969035 -133.2646 
L 361.365337 -133.269064 
L 363.761639 -133.272789 
L 366.157941 -133.275897 
L 368.554243 -133.27849 
L 370.950545 -133.280652 
L 373.346847 -133.282456 
L 375.743149 -133.283961 
L 378.139451 -133.285216 
L 380.535753 -133.286262 
L 382.932055 -133.287134 
L 385.328357 -133.287862 
L 387.724659 -133.288469 
L 390.120961 -133.288975 
L 392.517263 -133.289397 
L 394.913565 -133.289748 
L 397.309867 -133.290042 
L 399.706169 -133.290286 
L 399.706169 -486.944264 
L 399.706169 -486.944264 
L 397.309867 -486.94402 
L 394.913565 -486.943726 
L 392.517263 -486.943375 
L 390.120961 -486.942953 
L 387.724659 -486.942447 
L 385.328357 -486.94184 
L 382.932055 -486.941112 
L 380.535753 -486.94024 
L 378.139451 -486.939193 
L 375.743149 -486.937939 
L 373.346847 -486.936434 
L 370.950545 -486.93463 
L 368.554243 -486.932468 
L 366.157941 -486.929875 
L 363.761639 -486.926767 
L 361.365337 -486.923042 
L 358.969035 -486.918578 
L 356.572733 -486.913229 
L 354.176431 -486.906821 
L 351.780129 -486.899146 
L 349.383827 -486.889957 
L 346.987525 -486.878958 
L 344.591223 -486.865798 
L 342.194921 -486.85006 
L 339.798619 -486.83125 
L 337.402317 -486.808784 
L 335.006015 -486.781974 
L 332.609713 -486.75001 
L 330.213411 -486.711948 
L 327.817109 -486.666686 
L 325.420807 -486.612953 
L 323.024505 -486.549289 
L 320.628203 -486.474035 
L 318.231901 -486.385325 
L 315.835599 -486.281096 
L 313.439297 -486.159098 
L 311.042995 -486.01694 
L 308.646693 -485.852154 
L 306.250391 -485.662288 
L 303.854089 -485.445042 
L 301.457787 -485.198438 
L 299.061485 -484.921025 
L 296.665183 -484.612107 
L 294.268881 -484.271969 
L 291.872579 -483.902084 
L 289.476277 -483.50525 
L 287.079975 -483.085629 
L 284.683673 -482.648655 
L 282.287371 -482.200811 
L 279.891069 -481.749262 
L 277.494767 -481.301417 
L 275.098465 -480.864444 
L 272.702163 -480.444822 
L 270.305861 -480.047989 
L 267.909559 -479.678104 
L 265.513257 -479.337966 
L 263.116955 -479.029047 
L 260.720653 -478.751634 
L 258.324351 -478.50503 
L 255.928049 -478.287784 
L 253.531747 -478.097918 
L 251.135445 -477.933132 
L 248.739143 -477.790975 
L 246.342841 -477.668977 
L 243.946539 -477.564747 
L 241.550237 -477.476038 
L 239.153935 -477.400784 
L 236.757633 -477.33712 
L 234.361331 -477.283387 
L 231.965029 -477.238125 
L 229.568727 -477.200063 
L 227.172425 -477.168099 
L 224.776123 -477.141289 
L 222.379821 -477.118823 
L 219.983519 -477.100013 
L 217.587217 -477.084275 
L 215.190915 -477.071115 
L 212.794613 -477.060116 
L 210.398311 -477.050926 
L 208.002009 -477.043252 
L 205.605707 -477.036844 
L 203.209405 -477.031495 
L 200.813103 -477.027031 
L 198.416801 -477.023306 
L 196.020499 -477.020198 
L 193.624197 -477.017605 
L 191.227895 -477.015442 
L 188.831593 -477.013638 
L 186.435291 -477.012134 
L 184.038989 -477.010879 
L 181.642687 -477.009833 
L 179.246385 -477.00896 
L 176.850083 -477.008233 
L 174.453781 -477.007626 
L 172.057479 -477.00712 
L 169.661177 -477.006698 
L 167.264875 -477.006346 
L 164.868573 -477.006053 
L 162.472271 -477.005808 
z
"/>
    </defs>
    <g clip-path="url(#p49e5402bc1)">
     <use xlink:href="#m90d3748234" x="0" y="524.88" style="fill: #406992; fill-opacity: 0.05"/>
    </g>
   </g>
   <g id="tf-swoop-YD">
    <defs>
     <path id="me030225048" d="M 162.472271 -79.366992 
L 162.472271 -123.349377 
L 164.868573 -123.349133 
L 167.264875 -123.348839 
L 169.661177 -123.348488 
L 172.057479 -123.348066 
L 174.453781 -123.34756 
L 176.850083 -123.346953 
L 179.246385 -123.346225 
L 181.642687 -123.345353 
L 184.038989 -123.344306 
L 186.435291 -123.343052 
L 188.831593 -123.341547 
L 191.227895 -123.339743 
L 193.624197 -123.337581 
L 196.020499 -123.334988 
L 198.416801 -123.33188 
L 200.813103 -123.328155 
L 203.209405 -123.323691 
L 205.605707 -123.318342 
L 208.002009 -123.311934 
L 210.398311 -123.304259 
L 212.794613 -123.29507 
L 215.190915 -123.284071 
L 217.587217 -123.270911 
L 219.983519 -123.255173 
L 222.379821 -123.236363 
L 224.776123 -123.213897 
L 227.172425 -123.187087 
L 229.568727 -123.155123 
L 231.965029 -123.117061 
L 234.361331 -123.071799 
L 236.757633 -123.018066 
L 239.153935 -122.954402 
L 241.550237 -122.879148 
L 243.946539 -122.790438 
L 246.342841 -122.686208 
L 248.739143 -122.564211 
L 251.135445 -122.422053 
L 253.531747 -122.257267 
L 255.928049 -122.067401 
L 258.324351 -121.850155 
L 260.720653 -121.603551 
L 263.116955 -121.326138 
L 265.513257 -121.01722 
L 267.909559 -120.677082 
L 270.305861 -120.307197 
L 272.702163 -119.910363 
L 275.098465 -119.490742 
L 277.494767 -119.053768 
L 279.891069 -118.605924 
L 282.287371 -118.154375 
L 284.683673 -117.70653 
L 287.079975 -117.269557 
L 289.476277 -116.849935 
L 291.872579 -116.453102 
L 294.268881 -116.083217 
L 296.665183 -115.743079 
L 299.061485 -115.43416 
L 301.457787 -115.156747 
L 303.854089 -114.910143 
L 306.250391 -114.692897 
L 308.646693 -114.503031 
L 311.042995 -114.338245 
L 313.439297 -114.196088 
L 315.835599 -114.07409 
L 318.231901 -113.96986 
L 320.628203 -113.881151 
L 323.024505 -113.805897 
L 325.420807 -113.742233 
L 327.817109 -113.6885 
L 330.213411 -113.643238 
L 332.609713 -113.605176 
L 335.006015 -113.573212 
L 337.402317 -113.546402 
L 339.798619 -113.523936 
L 342.194921 -113.505126 
L 344.591223 -113.489388 
L 346.987525 -113.476228 
L 349.383827 -113.465229 
L 351.780129 -113.456039 
L 354.176431 -113.448365 
L 356.572733 -113.441957 
L 358.969035 -113.436608 
L 361.365337 -113.432144 
L 363.761639 -113.428419 
L 366.157941 -113.425311 
L 368.554243 -113.422718 
L 370.950545 -113.420555 
L 373.346847 -113.418751 
L 375.743149 -113.417247 
L 378.139451 -113.415992 
L 380.535753 -113.414946 
L 382.932055 -113.414073 
L 385.328357 -113.413346 
L 387.724659 -113.412739 
L 390.120961 -113.412233 
L 392.517263 -113.411811 
L 394.913565 -113.411459 
L 397.309867 -113.411166 
L 399.706169 -113.410921 
L 399.706169 -69.428536 
L 399.706169 -69.428536 
L 397.309867 -69.42878 
L 394.913565 -69.429074 
L 392.517263 -69.429425 
L 390.120961 -69.429847 
L 387.724659 -69.430353 
L 385.328357 -69.43096 
L 382.932055 -69.431688 
L 380.535753 -69.43256 
L 378.139451 -69.433607 
L 375.743149 -69.434861 
L 373.346847 -69.436366 
L 370.950545 -69.43817 
L 368.554243 -69.440332 
L 366.157941 -69.442925 
L 363.761639 -69.446033 
L 361.365337 -69.449758 
L 358.969035 -69.454222 
L 356.572733 -69.459571 
L 354.176431 -69.465979 
L 351.780129 -69.473654 
L 349.383827 -69.482843 
L 346.987525 -69.493842 
L 344.591223 -69.507002 
L 342.194921 -69.52274 
L 339.798619 -69.54155 
L 337.402317 -69.564016 
L 335.006015 -69.590826 
L 332.609713 -69.62279 
L 330.213411 -69.660852 
L 327.817109 -69.706114 
L 325.420807 -69.759847 
L 323.024505 -69.823511 
L 320.628203 -69.898765 
L 318.231901 -69.987475 
L 315.835599 -70.091704 
L 313.439297 -70.213702 
L 311.042995 -70.35586 
L 308.646693 -70.520646 
L 306.250391 -70.710512 
L 303.854089 -70.927758 
L 301.457787 -71.174362 
L 299.061485 -71.451775 
L 296.665183 -71.760693 
L 294.268881 -72.100831 
L 291.872579 -72.470716 
L 289.476277 -72.86755 
L 287.079975 -73.287171 
L 284.683673 -73.724145 
L 282.287371 -74.171989 
L 279.891069 -74.623538 
L 277.494767 -75.071383 
L 275.098465 -75.508356 
L 272.702163 -75.927978 
L 270.305861 -76.324811 
L 267.909559 -76.694696 
L 265.513257 -77.034834 
L 263.116955 -77.343753 
L 260.720653 -77.621166 
L 258.324351 -77.86777 
L 255.928049 -78.085016 
L 253.531747 -78.274882 
L 251.135445 -78.439668 
L 248.739143 -78.581825 
L 246.342841 -78.703823 
L 243.946539 -78.808053 
L 241.550237 -78.896762 
L 239.153935 -78.972016 
L 236.757633 -79.03568 
L 234.361331 -79.089413 
L 231.965029 -79.134675 
L 229.568727 -79.172737 
L 227.172425 -79.204701 
L 224.776123 -79.231511 
L 222.379821 -79.253977 
L 219.983519 -79.272787 
L 217.587217 -79.288525 
L 215.190915 -79.301685 
L 212.794613 -79.312684 
L 210.398311 -79.321874 
L 208.002009 -79.329548 
L 205.605707 -79.335956 
L 203.209405 -79.341305 
L 200.813103 -79.345769 
L 198.416801 -79.349494 
L 196.020499 -79.352602 
L 193.624197 -79.355195 
L 191.227895 -79.357358 
L 188.831593 -79.359162 
L 186.435291 -79.360666 
L 184.038989 -79.361921 
L 181.642687 -79.362967 
L 179.246385 -79.36384 
L 176.850083 -79.364567 
L 174.453781 -79.365174 
L 172.057479 -79.36568 
L 169.661177 -79.366102 
L 167.264875 -79.366454 
L 164.868573 -79.366747 
L 162.472271 -79.366992 
z
"/>
    </defs>
    <g clip-path="url(#p49e5402bc1)">
     <use xlink:href="#me030225048" x="0" y="524.88" style="fill: #b78935; fill-opacity: 0.05"/>
    </g>
   </g>
   <g id="tf-bar-ND">
    <defs>
     <path id="m12784d3f92" d="M 399.706169 -133.291513 
L 399.706169 -486.945491 
L 426.065492 -486.945491 
L 426.065492 -133.291513 
L 426.065492 -133.291513 
L 399.706169 -133.291513 
z
"/>
    </defs>
    <g clip-path="url(#p49e5402bc1)">
     <use xlink:href="#m12784d3f92" x="0" y="524.88" style="fill: #406992; fill-opacity: 0.25"/>
    </g>
   </g>
   <g id="tf-bar-YD">
    <defs>
     <path id="m6647efee2c" d="M 399.706169 -69.427309 
L 399.706169 -113.409695 
L 426.065492 -113.409695 
L 426.065492 -69.427309 
L 426.065492 -69.427309 
L 399.706169 -69.427309 
z
"/>
    </defs>
    <g clip-path="url(#p49e5402bc1)">
     <use xlink:href="#m6647efee2c" x="0" y="524.88" style="fill: #b78935; fill-opacity: 0.25"/>
    </g>
   </g>
   <g id="tf-swoop-YD-ND">
    <defs>
     <path id="md4d99f67e7" d="M 426.065492 -101.84761 
L 426.065492 -113.408468 
L 428.461794 -113.408224 
L 430.858096 -113.40793 
L 433.254398 -113.407578 
L 435.6507 -113.407157 
L 438.047002 -113.406651 
L 440.443304 -113.406044 
L 442.839606 -113.405316 
L 445.235908 -113.404444 
L 447.63221 -113.403397 
L 450.028512 -113.402143 
L 452.424814 -113.400638 
L 454.821116 -113.398834 
L 457.217418 -113.396671 
L 459.61372 -113.394079 
L 462.010022 -113.390971 
L 464.406324 -113.387246 
L 466.802626 -113.382782 
L 469.198928 -113.377433 
L 471.59523 -113.371025 
L 473.991532 -113.36335 
L 476.387834 -113.354161 
L 478.784136 -113.343162 
L 481.180438 -113.330002 
L 483.57674 -113.314264 
L 485.973042 -113.295454 
L 488.369344 -113.272988 
L 490.765646 -113.246177 
L 493.161948 -113.214214 
L 495.55825 -113.176151 
L 497.954552 -113.13089 
L 500.350854 -113.077157 
L 502.747156 -113.013493 
L 505.143458 -112.938238 
L 507.53976 -112.849529 
L 509.936062 -112.745299 
L 512.332364 -112.623301 
L 514.728666 -112.481144 
L 517.124968 -112.316358 
L 519.52127 -112.126492 
L 521.917572 -111.909246 
L 524.313874 -111.662642 
L 526.710176 -111.385229 
L 529.106478 -111.076311 
L 531.50278 -110.736173 
L 533.899082 -110.366288 
L 536.295384 -109.969454 
L 538.691686 -109.549833 
L 541.087988 -109.112859 
L 543.48429 -108.665015 
L 545.880592 -108.213466 
L 548.276894 -107.765621 
L 550.673196 -107.328648 
L 553.069498 -106.909026 
L 555.4658 -106.512192 
L 557.862102 -106.142308 
L 560.258404 -105.80217 
L 562.654706 -105.493251 
L 565.051008 -105.215838 
L 567.44731 -104.969234 
L 569.843612 -104.751988 
L 572.239914 -104.562122 
L 574.636216 -104.397336 
L 577.032518 -104.255179 
L 579.42882 -104.133181 
L 581.825122 -104.028951 
L 584.221424 -103.940242 
L 586.617726 -103.864988 
L 589.014028 -103.801324 
L 591.41033 -103.747591 
L 593.806632 -103.702329 
L 596.202934 -103.664267 
L 598.599236 -103.632303 
L 600.995538 -103.605493 
L 603.39184 -103.583027 
L 605.788142 -103.564217 
L 608.184444 -103.548479 
L 610.580746 -103.535319 
L 612.977048 -103.52432 
L 615.37335 -103.51513 
L 617.769652 -103.507456 
L 620.165954 -103.501048 
L 622.562256 -103.495699 
L 624.958558 -103.491235 
L 627.35486 -103.48751 
L 629.751162 -103.484402 
L 632.147464 -103.481809 
L 634.543766 -103.479646 
L 636.940068 -103.477842 
L 639.33637 -103.476338 
L 641.732672 -103.475083 
L 644.128974 -103.474037 
L 646.525276 -103.473164 
L 648.921578 -103.472437 
L 651.31788 -103.47183 
L 653.714182 -103.471324 
L 656.110484 -103.470902 
L 658.506786 -103.47055 
L 660.903088 -103.470257 
L 663.29939 -103.470012 
L 663.29939 -91.909155 
L 663.29939 -91.909155 
L 660.903088 -91.909399 
L 658.506786 -91.909692 
L 656.110484 -91.910044 
L 653.714182 -91.910466 
L 651.31788 -91.910972 
L 648.921578 -91.911579 
L 646.525276 -91.912306 
L 644.128974 -91.913179 
L 641.732672 -91.914225 
L 639.33637 -91.91548 
L 636.940068 -91.916985 
L 634.543766 -91.918789 
L 632.147464 -91.920951 
L 629.751162 -91.923544 
L 627.35486 -91.926652 
L 624.958558 -91.930377 
L 622.562256 -91.934841 
L 620.165954 -91.94019 
L 617.769652 -91.946598 
L 615.37335 -91.954273 
L 612.977048 -91.963462 
L 610.580746 -91.974461 
L 608.184444 -91.987621 
L 605.788142 -92.003359 
L 603.39184 -92.022169 
L 600.995538 -92.044635 
L 598.599236 -92.071445 
L 596.202934 -92.103409 
L 593.806632 -92.141471 
L 591.41033 -92.186733 
L 589.014028 -92.240466 
L 586.617726 -92.30413 
L 584.221424 -92.379384 
L 581.825122 -92.468094 
L 579.42882 -92.572323 
L 577.032518 -92.694321 
L 574.636216 -92.836479 
L 572.239914 -93.001264 
L 569.843612 -93.191131 
L 567.44731 -93.408377 
L 565.051008 -93.654981 
L 562.654706 -93.932393 
L 560.258404 -94.241312 
L 557.862102 -94.58145 
L 555.4658 -94.951335 
L 553.069498 -95.348169 
L 550.673196 -95.76779 
L 548.276894 -96.204763 
L 545.880592 -96.652608 
L 543.48429 -97.104157 
L 541.087988 -97.552002 
L 538.691686 -97.988975 
L 536.295384 -98.408597 
L 533.899082 -98.80543 
L 531.50278 -99.175315 
L 529.106478 -99.515453 
L 526.710176 -99.824372 
L 524.313874 -100.101784 
L 521.917572 -100.348388 
L 519.52127 -100.565635 
L 517.124968 -100.755501 
L 514.728666 -100.920287 
L 512.332364 -101.062444 
L 509.936062 -101.184442 
L 507.53976 -101.288671 
L 505.143458 -101.377381 
L 502.747156 -101.452635 
L 500.350854 -101.516299 
L 497.954552 -101.570032 
L 495.55825 -101.615294 
L 493.161948 -101.653356 
L 490.765646 -101.68532 
L 488.369344 -101.71213 
L 485.973042 -101.734596 
L 483.57674 -101.753406 
L 481.180438 -101.769144 
L 478.784136 -101.782304 
L 476.387834 -101.793303 
L 473.991532 -101.802492 
L 471.59523 -101.810167 
L 469.198928 -101.816575 
L 466.802626 -101.821924 
L 464.406324 -101.826388 
L 462.010022 -101.830113 
L 459.61372 -101.833221 
L 457.217418 -101.835814 
L 454.821116 -101.837976 
L 452.424814 -101.83978 
L 450.028512 -101.841285 
L 447.63221 -101.84254 
L 445.235908 -101.843586 
L 442.839606 -101.844459 
L 440.443304 -101.845186 
L 438.047002 -101.845793 
L 435.6507 -101.846299 
L 433.254398 -101.846721 
L 430.858096 -101.847073 
L 428.461794 -101.847366 
L 426.065492 -101.84761 
z
"/>
    </defs>
    <g clip-path="url(#p49e5402bc1)">
     <use xlink:href="#md4d99f67e7" x="0" y="524.88" style="fill: #dbc49a; fill-opacity: 0.05"/>
    </g>
   </g>
   <g id="tf-swoop-YD-YD">
    <defs>
     <path id="mf33f68e9b5" d="M 426.065492 -69.423629 
L 426.065492 -101.845157 
L 428.461794 -101.844423 
L 430.858096 -101.843544 
L 433.254398 -101.842488 
L 435.6507 -101.841223 
L 438.047002 -101.839705 
L 440.443304 -101.837885 
L 442.839606 -101.835702 
L 445.235908 -101.833084 
L 447.63221 -101.829945 
L 450.028512 -101.826181 
L 452.424814 -101.821667 
L 454.821116 -101.816255 
L 457.217418 -101.809767 
L 459.61372 -101.801989 
L 462.010022 -101.792665 
L 464.406324 -101.78149 
L 466.802626 -101.768098 
L 469.198928 -101.752051 
L 471.59523 -101.732827 
L 473.991532 -101.709803 
L 476.387834 -101.682235 
L 478.784136 -101.649238 
L 481.180438 -101.609758 
L 483.57674 -101.562544 
L 485.973042 -101.506114 
L 488.369344 -101.438716 
L 490.765646 -101.358285 
L 493.161948 -101.262394 
L 495.55825 -101.148207 
L 497.954552 -101.012422 
L 500.350854 -100.851224 
L 502.747156 -100.660231 
L 505.143458 -100.434468 
L 507.53976 -100.16834 
L 509.936062 -99.855651 
L 512.332364 -99.489657 
L 514.728666 -99.063185 
L 517.124968 -98.568828 
L 519.52127 -97.999229 
L 521.917572 -97.347491 
L 524.313874 -96.607679 
L 526.710176 -95.775441 
L 529.106478 -94.848684 
L 531.50278 -93.82827 
L 533.899082 -92.718617 
L 536.295384 -91.528115 
L 538.691686 -90.269251 
L 541.087988 -88.958331 
L 543.48429 -87.614796 
L 545.880592 -86.260151 
L 548.276894 -84.916616 
L 550.673196 -83.605696 
L 553.069498 -82.346831 
L 555.4658 -81.15633 
L 557.862102 -80.046676 
L 560.258404 -79.026263 
L 562.654706 -78.099506 
L 565.051008 -77.267268 
L 567.44731 -76.527456 
L 569.843612 -75.875717 
L 572.239914 -75.306119 
L 574.636216 -74.811761 
L 577.032518 -74.38529 
L 579.42882 -74.019296 
L 581.825122 -73.706607 
L 584.221424 -73.440479 
L 586.617726 -73.214715 
L 589.014028 -73.023723 
L 591.41033 -72.862524 
L 593.806632 -72.72674 
L 596.202934 -72.612552 
L 598.599236 -72.516662 
L 600.995538 -72.43623 
L 603.39184 -72.368833 
L 605.788142 -72.312403 
L 608.184444 -72.265189 
L 610.580746 -72.225709 
L 612.977048 -72.192711 
L 615.37335 -72.165144 
L 617.769652 -72.14212 
L 620.165954 -72.122896 
L 622.562256 -72.106849 
L 624.958558 -72.093457 
L 627.35486 -72.082282 
L 629.751162 -72.072958 
L 632.147464 -72.06518 
L 634.543766 -72.058692 
L 636.940068 -72.05328 
L 639.33637 -72.048766 
L 641.732672 -72.045002 
L 644.128974 -72.041863 
L 646.525276 -72.039245 
L 648.921578 -72.037062 
L 651.31788 -72.035242 
L 653.714182 -72.033724 
L 656.110484 -72.032459 
L 658.506786 -72.031403 
L 660.903088 -72.030523 
L 663.29939 -72.02979 
L 663.29939 -39.608262 
L 663.29939 -39.608262 
L 660.903088 -39.608995 
L 658.506786 -39.609875 
L 656.110484 -39.610931 
L 653.714182 -39.612196 
L 651.31788 -39.613714 
L 648.921578 -39.615534 
L 646.525276 -39.617717 
L 644.128974 -39.620335 
L 641.732672 -39.623474 
L 639.33637 -39.627238 
L 636.940068 -39.631752 
L 634.543766 -39.637164 
L 632.147464 -39.643652 
L 629.751162 -39.65143 
L 627.35486 -39.660754 
L 624.958558 -39.671929 
L 622.562256 -39.685321 
L 620.165954 -39.701368 
L 617.769652 -39.720592 
L 615.37335 -39.743616 
L 612.977048 -39.771183 
L 610.580746 -39.804181 
L 608.184444 -39.843661 
L 605.788142 -39.890875 
L 603.39184 -39.947305 
L 600.995538 -40.014702 
L 598.599236 -40.095134 
L 596.202934 -40.191024 
L 593.806632 -40.305212 
L 591.41033 -40.440996 
L 589.014028 -40.602195 
L 586.617726 -40.793187 
L 584.221424 -41.018951 
L 581.825122 -41.285079 
L 579.42882 -41.597768 
L 577.032518 -41.963762 
L 574.636216 -42.390233 
L 572.239914 -42.884591 
L 569.843612 -43.454189 
L 567.44731 -44.105928 
L 565.051008 -44.84574 
L 562.654706 -45.677978 
L 560.258404 -46.604735 
L 557.862102 -47.625148 
L 555.4658 -48.734802 
L 553.069498 -49.925303 
L 550.673196 -51.184168 
L 548.276894 -52.495088 
L 545.880592 -53.838623 
L 543.48429 -55.193268 
L 541.087988 -56.536803 
L 538.691686 -57.847723 
L 536.295384 -59.106587 
L 533.899082 -60.297089 
L 531.50278 -61.406742 
L 529.106478 -62.427156 
L 526.710176 -63.353913 
L 524.313874 -64.186151 
L 521.917572 -64.925963 
L 519.52127 -65.577701 
L 517.124968 -66.1473 
L 514.728666 -66.641657 
L 512.332364 -67.068129 
L 509.936062 -67.434123 
L 507.53976 -67.746812 
L 505.143458 -68.01294 
L 502.747156 -68.238703 
L 500.350854 -68.429696 
L 497.954552 -68.590894 
L 495.55825 -68.726679 
L 493.161948 -68.840866 
L 490.765646 -68.936757 
L 488.369344 -69.017188 
L 485.973042 -69.084586 
L 483.57674 -69.141016 
L 481.180438 -69.18823 
L 478.784136 -69.22771 
L 476.387834 -69.260707 
L 473.991532 -69.288275 
L 471.59523 -69.311299 
L 469.198928 -69.330523 
L 466.802626 -69.34657 
L 464.406324 -69.359962 
L 462.010022 -69.371137 
L 459.61372 -69.380461 
L 457.217418 -69.388239 
L 454.821116 -69.394727 
L 452.424814 -69.400139 
L 450.028512 -69.404653 
L 447.63221 -69.408417 
L 445.235908 -69.411556 
L 442.839606 -69.414174 
L 440.443304 -69.416357 
L 438.047002 -69.418177 
L 435.6507 -69.419695 
L 433.254398 -69.42096 
L 430.858096 -69.422016 
L 428.461794 -69.422895 
L 426.065492 -69.423629 
z
"/>
    </defs>
    <g clip-path="url(#p49e5402bc1)">
     <use xlink:href="#mf33f68e9b5" x="0" y="524.88" style="fill: #b78935; fill-opacity: 0.05"/>
    </g>
   </g>
   <g id="tf-swoop-ND-YD">
    <defs>
     <path id="m0f447cc92e" d="M 426.065492 -146.352531 
L 426.065492 -133.29274 
L 428.461794 -133.292984 
L 430.858096 -133.293277 
L 433.254398 -133.293629 
L 435.6507 -133.294051 
L 438.047002 -133.294557 
L 440.443304 -133.295164 
L 442.839606 -133.295891 
L 445.235908 -133.296764 
L 447.63221 -133.29781 
L 450.028512 -133.299065 
L 452.424814 -133.30057 
L 454.821116 -133.302374 
L 457.217418 -133.304536 
L 459.61372 -133.307129 
L 462.010022 -133.310237 
L 464.406324 -133.313962 
L 466.802626 -133.318426 
L 469.198928 -133.323775 
L 471.59523 -133.330183 
L 473.991532 -133.337858 
L 476.387834 -133.347047 
L 478.784136 -133.358046 
L 481.180438 -133.371206 
L 483.57674 -133.386944 
L 485.973042 -133.405754 
L 488.369344 -133.42822 
L 490.765646 -133.45503 
L 493.161948 -133.486994 
L 495.55825 -133.525056 
L 497.954552 -133.570318 
L 500.350854 -133.624051 
L 502.747156 -133.687715 
L 505.143458 -133.762969 
L 507.53976 -133.851679 
L 509.936062 -133.955908 
L 512.332364 -134.077906 
L 514.728666 -134.220063 
L 517.124968 -134.384849 
L 519.52127 -134.574716 
L 521.917572 -134.791962 
L 524.313874 -135.038566 
L 526.710176 -135.315978 
L 529.106478 -135.624897 
L 531.50278 -135.965035 
L 533.899082 -136.33492 
L 536.295384 -136.731753 
L 538.691686 -137.151375 
L 541.087988 -137.588348 
L 543.48429 -138.036193 
L 545.880592 -138.487742 
L 548.276894 -138.935587 
L 550.673196 -139.37256 
L 553.069498 -139.792182 
L 555.4658 -140.189015 
L 557.862102 -140.5589 
L 560.258404 -140.899038 
L 562.654706 -141.207957 
L 565.051008 -141.485369 
L 567.44731 -141.731973 
L 569.843612 -141.949219 
L 572.239914 -142.139086 
L 574.636216 -142.303871 
L 577.032518 -142.446029 
L 579.42882 -142.568027 
L 581.825122 -142.672256 
L 584.221424 -142.760966 
L 586.617726 -142.83622 
L 589.014028 -142.899884 
L 591.41033 -142.953617 
L 593.806632 -142.998879 
L 596.202934 -143.036941 
L 598.599236 -143.068905 
L 600.995538 -143.095715 
L 603.39184 -143.118181 
L 605.788142 -143.136991 
L 608.184444 -143.152729 
L 610.580746 -143.165889 
L 612.977048 -143.176888 
L 615.37335 -143.186077 
L 617.769652 -143.193752 
L 620.165954 -143.20016 
L 622.562256 -143.205509 
L 624.958558 -143.209973 
L 627.35486 -143.213698 
L 629.751162 -143.216806 
L 632.147464 -143.219399 
L 634.543766 -143.221561 
L 636.940068 -143.223365 
L 639.33637 -143.22487 
L 641.732672 -143.226125 
L 644.128974 -143.227171 
L 646.525276 -143.228044 
L 648.921578 -143.228771 
L 651.31788 -143.229378 
L 653.714182 -143.229884 
L 656.110484 -143.230306 
L 658.506786 -143.230658 
L 660.903088 -143.230951 
L 663.29939 -143.231195 
L 663.29939 -156.290987 
L 663.29939 -156.290987 
L 660.903088 -156.290742 
L 658.506786 -156.290449 
L 656.110484 -156.290097 
L 653.714182 -156.289675 
L 651.31788 -156.289169 
L 648.921578 -156.288562 
L 646.525276 -156.287835 
L 644.128974 -156.286962 
L 641.732672 -156.285916 
L 639.33637 -156.284661 
L 636.940068 -156.283157 
L 634.543766 -156.281353 
L 632.147464 -156.27919 
L 629.751162 -156.276597 
L 627.35486 -156.273489 
L 624.958558 -156.269764 
L 622.562256 -156.2653 
L 620.165954 -156.259951 
L 617.769652 -156.253543 
L 615.37335 -156.245869 
L 612.977048 -156.236679 
L 610.580746 -156.22568 
L 608.184444 -156.21252 
L 605.788142 -156.196782 
L 603.39184 -156.177972 
L 600.995538 -156.155506 
L 598.599236 -156.128696 
L 596.202934 -156.096732 
L 593.806632 -156.05867 
L 591.41033 -156.013408 
L 589.014028 -155.959675 
L 586.617726 -155.896011 
L 584.221424 -155.820757 
L 581.825122 -155.732048 
L 579.42882 -155.627818 
L 577.032518 -155.50582 
L 574.636216 -155.363663 
L 572.239914 -155.198877 
L 569.843612 -155.009011 
L 567.44731 -154.791765 
L 565.051008 -154.545161 
L 562.654706 -154.267748 
L 560.258404 -153.958829 
L 557.862102 -153.618691 
L 555.4658 -153.248806 
L 553.069498 -152.851973 
L 550.673196 -152.432351 
L 548.276894 -151.995378 
L 545.880592 -151.547533 
L 543.48429 -151.095984 
L 541.087988 -150.64814 
L 538.691686 -150.211166 
L 536.295384 -149.791545 
L 533.899082 -149.394711 
L 531.50278 -149.024826 
L 529.106478 -148.684688 
L 526.710176 -148.37577 
L 524.313874 -148.098357 
L 521.917572 -147.851753 
L 519.52127 -147.634507 
L 517.124968 -147.444641 
L 514.728666 -147.279855 
L 512.332364 -147.137697 
L 509.936062 -147.0157 
L 507.53976 -146.91147 
L 505.143458 -146.82276 
L 502.747156 -146.747506 
L 500.350854 -146.683842 
L 497.954552 -146.630109 
L 495.55825 -146.584847 
L 493.161948 -146.546785 
L 490.765646 -146.514821 
L 488.369344 -146.488011 
L 485.973042 -146.465545 
L 483.57674 -146.446735 
L 481.180438 -146.430997 
L 478.784136 -146.417837 
L 476.387834 -146.406838 
L 473.991532 -146.397649 
L 471.59523 -146.389974 
L 469.198928 -146.383566 
L 466.802626 -146.378217 
L 464.406324 -146.373753 
L 462.010022 -146.370028 
L 459.61372 -146.36692 
L 457.217418 -146.364327 
L 454.821116 -146.362165 
L 452.424814 -146.360361 
L 450.028512 -146.358856 
L 447.63221 -146.357602 
L 445.235908 -146.356555 
L 442.839606 -146.355683 
L 440.443304 -146.354955 
L 438.047002 -146.354348 
L 435.6507 -146.353842 
L 433.254398 -146.35342 
L 430.858096 -146.353069 
L 428.461794 -146.352775 
L 426.065492 -146.352531 
z
"/>
    </defs>
    <g clip-path="url(#p49e5402bc1)">
     <use xlink:href="#m0f447cc92e" x="0" y="524.88" style="fill: #9fb4c8; fill-opacity: 0.05"/>
    </g>
   </g>
   <g id="tf-swoop-ND-ND">
    <defs>
     <path id="mf34bb355c9" d="M 426.065492 -486.949171 
L 426.065492 -146.354984 
L 428.461794 -146.355718 
L 430.858096 -146.356598 
L 433.254398 -146.357653 
L 435.6507 -146.358919 
L 438.047002 -146.360436 
L 440.443304 -146.362257 
L 442.839606 -146.36444 
L 445.235908 -146.367057 
L 447.63221 -146.370196 
L 450.028512 -146.373961 
L 452.424814 -146.378474 
L 454.821116 -146.383886 
L 457.217418 -146.390374 
L 459.61372 -146.398152 
L 462.010022 -146.407476 
L 464.406324 -146.418651 
L 466.802626 -146.432043 
L 469.198928 -146.44809 
L 471.59523 -146.467314 
L 473.991532 -146.490338 
L 476.387834 -146.517906 
L 478.784136 -146.550903 
L 481.180438 -146.590383 
L 483.57674 -146.637597 
L 485.973042 -146.694027 
L 488.369344 -146.761425 
L 490.765646 -146.841856 
L 493.161948 -146.937747 
L 495.55825 -147.051934 
L 497.954552 -147.187719 
L 500.350854 -147.348918 
L 502.747156 -147.53991 
L 505.143458 -147.765673 
L 507.53976 -148.031801 
L 509.936062 -148.34449 
L 512.332364 -148.710484 
L 514.728666 -149.136956 
L 517.124968 -149.631314 
L 519.52127 -150.200912 
L 521.917572 -150.85265 
L 524.313874 -151.592462 
L 526.710176 -152.424701 
L 529.106478 -153.351457 
L 531.50278 -154.371871 
L 533.899082 -155.481525 
L 536.295384 -156.672026 
L 538.691686 -157.93089 
L 541.087988 -159.24181 
L 543.48429 -160.585345 
L 545.880592 -161.939991 
L 548.276894 -163.283525 
L 550.673196 -164.594445 
L 553.069498 -165.85331 
L 555.4658 -167.043811 
L 557.862102 -168.153465 
L 560.258404 -169.173879 
L 562.654706 -170.100635 
L 565.051008 -170.932874 
L 567.44731 -171.672686 
L 569.843612 -172.324424 
L 572.239914 -172.894022 
L 574.636216 -173.38838 
L 577.032518 -173.814851 
L 579.42882 -174.180845 
L 581.825122 -174.493535 
L 584.221424 -174.759663 
L 586.617726 -174.985426 
L 589.014028 -175.176418 
L 591.41033 -175.337617 
L 593.806632 -175.473402 
L 596.202934 -175.587589 
L 598.599236 -175.683479 
L 600.995538 -175.763911 
L 603.39184 -175.831309 
L 605.788142 -175.887738 
L 608.184444 -175.934952 
L 610.580746 -175.974432 
L 612.977048 -176.00743 
L 615.37335 -176.034998 
L 617.769652 -176.058022 
L 620.165954 -176.077245 
L 622.562256 -176.093292 
L 624.958558 -176.106685 
L 627.35486 -176.11786 
L 629.751162 -176.127183 
L 632.147464 -176.134962 
L 634.543766 -176.14145 
L 636.940068 -176.146861 
L 639.33637 -176.151375 
L 641.732672 -176.155139 
L 644.128974 -176.158278 
L 646.525276 -176.160896 
L 648.921578 -176.163079 
L 651.31788 -176.164899 
L 653.714182 -176.166417 
L 656.110484 -176.167683 
L 658.506786 -176.168738 
L 660.903088 -176.169618 
L 663.29939 -176.170351 
L 663.29939 -516.764538 
L 663.29939 -516.764538 
L 660.903088 -516.763805 
L 658.506786 -516.762925 
L 656.110484 -516.761869 
L 653.714182 -516.760604 
L 651.31788 -516.759086 
L 648.921578 -516.757266 
L 646.525276 -516.755083 
L 644.128974 -516.752465 
L 641.732672 -516.749326 
L 639.33637 -516.745562 
L 636.940068 -516.741048 
L 634.543766 -516.735636 
L 632.147464 -516.729148 
L 629.751162 -516.72137 
L 627.35486 -516.712046 
L 624.958558 -516.700871 
L 622.562256 -516.687479 
L 620.165954 -516.671432 
L 617.769652 -516.652208 
L 615.37335 -516.629184 
L 612.977048 -516.601617 
L 610.580746 -516.568619 
L 608.184444 -516.529139 
L 605.788142 -516.481925 
L 603.39184 -516.425495 
L 600.995538 -516.358098 
L 598.599236 -516.277666 
L 596.202934 -516.181776 
L 593.806632 -516.067588 
L 591.41033 -515.931804 
L 589.014028 -515.770605 
L 586.617726 -515.579613 
L 584.221424 -515.353849 
L 581.825122 -515.087721 
L 579.42882 -514.775032 
L 577.032518 -514.409038 
L 574.636216 -513.982567 
L 572.239914 -513.488209 
L 569.843612 -512.918611 
L 567.44731 -512.266872 
L 565.051008 -511.52706 
L 562.654706 -510.694822 
L 560.258404 -509.768065 
L 557.862102 -508.747652 
L 555.4658 -507.637998 
L 553.069498 -506.447497 
L 550.673196 -505.188632 
L 548.276894 -503.877712 
L 545.880592 -502.534177 
L 543.48429 -501.179532 
L 541.087988 -499.835997 
L 538.691686 -498.525077 
L 536.295384 -497.266213 
L 533.899082 -496.075711 
L 531.50278 -494.966058 
L 529.106478 -493.945644 
L 526.710176 -493.018887 
L 524.313874 -492.186649 
L 521.917572 -491.446837 
L 519.52127 -490.795099 
L 517.124968 -490.2255 
L 514.728666 -489.731143 
L 512.332364 -489.304671 
L 509.936062 -488.938677 
L 507.53976 -488.625988 
L 505.143458 -488.35986 
L 502.747156 -488.134097 
L 500.350854 -487.943104 
L 497.954552 -487.781906 
L 495.55825 -487.646121 
L 493.161948 -487.531934 
L 490.765646 -487.436043 
L 488.369344 -487.355612 
L 485.973042 -487.288214 
L 483.57674 -487.231784 
L 481.180438 -487.18457 
L 478.784136 -487.14509 
L 476.387834 -487.112093 
L 473.991532 -487.084525 
L 471.59523 -487.061501 
L 469.198928 -487.042277 
L 466.802626 -487.02623 
L 464.406324 -487.012838 
L 462.010022 -487.001663 
L 459.61372 -486.992339 
L 457.217418 -486.984561 
L 454.821116 -486.978073 
L 452.424814 -486.972661 
L 450.028512 -486.968147 
L 447.63221 -486.964383 
L 445.235908 -486.961244 
L 442.839606 -486.958626 
L 440.443304 -486.956443 
L 438.047002 -486.954623 
L 435.6507 -486.953105 
L 433.254398 -486.95184 
L 430.858096 -486.950784 
L 428.461794 -486.949905 
L 426.065492 -486.949171 
z
"/>
    </defs>
    <g clip-path="url(#p49e5402bc1)">
     <use xlink:href="#mf34bb355c9" x="0" y="524.88" style="fill: #406992; fill-opacity: 0.05"/>
    </g>
   </g>
   <g id="tf-bar-YD-YD">
    <defs>
     <path id="m9bec7cdb0f" d="M 663.29939 -39.604582 
L 663.29939 -72.02611 
L 689.658712 -72.02611 
L 689.658712 -39.604582 
L 689.658712 -39.604582 
L 663.29939 -39.604582 
z
"/>
    </defs>
    <g clip-path="url(#p49e5402bc1)">
     <use xlink:href="#m9bec7cdb0f" x="0" y="524.88" style="fill: #b78935; fill-opacity: 0.25"/>
    </g>
   </g>
   <g id="tf-bar-YD-ND">
    <defs>
     <path id="m497a17af84" d="M 663.29939 -91.907928 
L 663.29939 -103.468786 
L 689.658712 -103.468786 
L 689.658712 -91.907928 
L 689.658712 -91.907928 
L 663.29939 -91.907928 
z
"/>
    </defs>
    <g clip-path="url(#p49e5402bc1)">
     <use xlink:href="#m497a17af84" x="0" y="524.88" style="fill: #dbc49a; fill-opacity: 0.25"/>
    </g>
   </g>
   <g id="tf-bar-ND-YD">
    <defs>
     <path id="mb6b1645719" d="M 663.29939 -143.232422 
L 663.29939 -156.292213 
L 689.658712 -156.292213 
L 689.658712 -143.232422 
L 689.658712 -143.232422 
L 663.29939 -143.232422 
z
"/>
    </defs>
    <g clip-path="url(#p49e5402bc1)">
     <use xlink:href="#mb6b1645719" x="0" y="524.88" style="fill: #9fb4c8; fill-opacity: 0.25"/>
    </g>
   </g>
   <g id="tf-bar-ND-ND">
    <defs>
     <path id="ma4d4bbeaf9" d="M 663.29939 -176.174031 
L 663.29939 -516.768218 
L 689.658712 -516.768218 
L 689.658712 -176.174031 
L 689.658712 -176.174031 
L 663.29939 -176.174031 
z
"/>
    </defs>
    <g clip-path="url(#p49e5402bc1)">
     <use xlink:href="#ma4d4bbeaf9" x="0" y="524.88" style="fill: #406992; fill-opacity: 0.25"/>
    </g>
   </g>
   <g id="text_1">
    <text style="font-weight: 300; font-size: 16px; font-family: 'Source Sans 3', sans-serif; fill: #595959" transform="translate(62.678288 241.98585)">All model</text>
    <text style="font-weight: 300; font-size: 16px; font-family: 'Source Sans 3', sans-serif; fill: #595959" transform="translate(50.710788 259.40135)">predictions</text>
   </g>
   <g id="tf-label-YD">
    <text style="font-weight: 300; font-size: 16px; font-family: 'Source Sans 3', sans-serif; fill: #595959; opacity: 0" transform="translate(272.036508 411.126498)">Severe or extreme</text>
    <text style="font-weight: 300; font-size: 16px; font-family: 'Source Sans 3', sans-serif; fill: #595959; opacity: 0" transform="translate(265.501508 428.772998)">streamflow dought</text>
    <text style="font-weight: 300; font-size: 16px; font-family: 'Source Sans 3', sans-serif; fill: #595959; opacity: 0" transform="translate(324.896508 446.380998)">predicted</text>
    <text style="font-weight: 300; font-size: 16px; font-family: 'Source Sans 3', sans-serif; fill: #595959; opacity: 0" transform="translate(347.774008 463.796498)">11.1%</text>
   </g>
   <g id="tf-label-ND">
    <text style="font-weight: 300; font-size: 16px; font-family: 'Source Sans 3', sans-serif; fill: #595959; opacity: 0" transform="translate(270.274008 192.541998)">Neither severe nor</text>
    <text style="font-weight: 300; font-size: 16px; font-family: 'Source Sans 3', sans-serif; fill: #595959; opacity: 0" transform="translate(260.066508 209.957498)">extreme streamflow</text>
    <text style="font-weight: 300; font-size: 16px; font-family: 'Source Sans 3', sans-serif; fill: #595959; opacity: 0" transform="translate(275.294008 227.372998)">dought predicted</text>
    <text style="font-weight: 300; font-size: 16px; font-family: 'Source Sans 3', sans-serif; fill: #595959; opacity: 0" transform="translate(347.774008 244.980998)">88.9%</text>
   </g>
   <g id="tf-label-YD-YD">
    <text style="font-weight: 300; font-size: 16px; font-family: 'Source Sans 3', sans-serif; fill: #595959; opacity: 0" transform="translate(589.064729 455.572654)">Did occur</text>
    <text style="font-weight: 300; font-size: 16px; font-family: 'Source Sans 3', sans-serif; fill: #595959; opacity: 0" transform="translate(562.629729 473.141154)">(true positive)</text>
    <text style="font-weight: 300; font-size: 16px; font-family: 'Source Sans 3', sans-serif; fill: #595959; opacity: 0" transform="translate(618.919729 490.556654)">8.2%</text>
   </g>
   <g id="tf-label-YD-ND">
    <text style="font-weight: 300; font-size: 16px; font-family: 'Source Sans 3', sans-serif; fill: #595959; opacity: 0" transform="translate(564.104729 413.660643)">Did not occur</text>
    <text style="font-weight: 300; font-size: 16px; font-family: 'Source Sans 3', sans-serif; fill: #595959; opacity: 0" transform="translate(558.854729 431.307143)">(false positive)</text>
    <text style="font-weight: 300; font-size: 16px; font-family: 'Source Sans 3', sans-serif; fill: #595959; opacity: 0" transform="translate(618.919729 448.722643)">2.9%</text>
   </g>
   <g id="tf-label-ND-YD">
    <text style="font-weight: 300; font-size: 16px; font-family: 'Source Sans 3', sans-serif; fill: #595959; opacity: 0" transform="translate(535.629729 343.863182)">Severe or extreme</text>
    <text style="font-weight: 300; font-size: 16px; font-family: 'Source Sans 3', sans-serif; fill: #595959; opacity: 0" transform="translate(524.199729 361.509682)">streamflow drought</text>
    <text style="font-weight: 300; font-size: 16px; font-family: 'Source Sans 3', sans-serif; fill: #595959; opacity: 0" transform="translate(592.874729 379.117682)">occurred</text>
    <text style="font-weight: 300; font-size: 16px; font-family: 'Source Sans 3', sans-serif; fill: #595959; opacity: 0" transform="translate(554.442229 396.764182)">(false negative)</text>
    <text style="font-weight: 300; font-size: 16px; font-family: 'Source Sans 3', sans-serif; fill: #595959; opacity: 0" transform="translate(618.919729 414.372182)">3.3%</text>
   </g>
   <g id="tf-label-ND-ND">
    <text style="font-weight: 300; font-size: 16px; font-family: 'Source Sans 3', sans-serif; fill: #595959; opacity: 0" transform="translate(533.867229 147.308875)">Neither severe nor</text>
    <text style="font-weight: 300; font-size: 16px; font-family: 'Source Sans 3', sans-serif; fill: #595959; opacity: 0" transform="translate(523.659729 164.724375)">extreme streamflow</text>
    <text style="font-weight: 300; font-size: 16px; font-family: 'Source Sans 3', sans-serif; fill: #595959; opacity: 0" transform="translate(543.272229 182.139875)">dought occurred</text>
    <text style="font-weight: 300; font-size: 16px; font-family: 'Source Sans 3', sans-serif; fill: #595959; opacity: 0" transform="translate(558.217229 199.900875)">(true negative)</text>
    <text style="font-weight: 300; font-size: 16px; font-family: 'Source Sans 3', sans-serif; fill: #595959; opacity: 0" transform="translate(611.367229 217.508875)">85.7%</text>
   </g>
  </g>
 </g>
 <defs>
  <clipPath id="p49e5402bc1">
   <rect x="17.496" y="-15.7464" width="699.84" height="524.88"/>
  </clipPath>
 </defs>
</svg>
