<?xml version="1.0" encoding="utf-8" standalone="no"?>
<!DOCTYPE svg PUBLIC "-//W3C//DTD SVG 1.1//EN"
  "http://www.w3.org/Graphics/SVG/1.1/DTD/svg11.dtd">
<svg xmlns:xlink="http://www.w3.org/1999/xlink" width="399.6px" height="299.52px" viewBox="0 0 399.6 299.52" xmlns="http://www.w3.org/2000/svg" version="1.1">
  <defs>
  <style type="text/css">*{stroke-linejoin: round; stroke-linecap: butt}</style>
 </defs>
 <g id="figure-forecast_truefalse">
  <g id="patch_1">
   <path d="M 0 299.52 
L 399.6 299.52 
L 399.6 0 
L 0 0 
z
" style="fill: #ffffff"/>
  </g>
  <g id="axis-forecast_truefalse">
   <g id="FillBetweenPolyCollection_1">
    <defs>
     <path id="m31a772700c" d="M 67.728814 -36.305455 
L 67.728814 -263.214545 
L 82.779661 -263.214545 
L 82.779661 -36.305455 
L 82.779661 -36.305455 
L 67.728814 -36.305455 
z
"/>
    </defs>
    <g clip-path="url(#pd260de5c34)">
     <use xlink:href="#m31a772700c" x="0" y="299.52" style="fill: #00264c"/>
    </g>
   </g>
   <g id="FillBetweenPolyCollection_2">
    <defs>
     <path id="md5b4705281" d="M 82.779661 -263.215245 
L 82.779661 -72.281015 
L 84.14792 -72.281155 
L 85.516179 -72.281322 
L 86.884438 -72.281523 
L 88.252696 -72.281764 
L 89.620955 -72.282052 
L 90.989214 -72.282399 
L 92.357473 -72.282814 
L 93.725732 -72.283312 
L 95.093991 -72.283909 
L 96.46225 -72.284625 
L 97.830508 -72.285484 
L 99.198767 -72.286513 
L 100.567026 -72.287747 
L 101.935285 -72.289227 
L 103.303544 -72.291 
L 104.671803 -72.293126 
L 106.040062 -72.295673 
L 107.40832 -72.298726 
L 108.776579 -72.302382 
L 110.144838 -72.306762 
L 111.513097 -72.312006 
L 112.881356 -72.318282 
L 114.249615 -72.325792 
L 115.617874 -72.334773 
L 116.986133 -72.345506 
L 118.354391 -72.358326 
L 119.72265 -72.373626 
L 121.090909 -72.391866 
L 122.459168 -72.413586 
L 123.827427 -72.439414 
L 125.195686 -72.470076 
L 126.563945 -72.506406 
L 127.932203 -72.549349 
L 129.300462 -72.599971 
L 130.668721 -72.659449 
L 132.03698 -72.729067 
L 133.405239 -72.810188 
L 134.773498 -72.904222 
L 136.141757 -73.012568 
L 137.510015 -73.136538 
L 138.878274 -73.277262 
L 140.246533 -73.435566 
L 141.614792 -73.611849 
L 142.983051 -73.805947 
L 144.35131 -74.017019 
L 145.719569 -74.24347 
L 147.087827 -74.482925 
L 148.456086 -74.732282 
L 149.824345 -74.987842 
L 151.192604 -75.245516 
L 152.560863 -75.501076 
L 153.929122 -75.750433 
L 155.297381 -75.989888 
L 156.665639 -76.216339 
L 158.033898 -76.427411 
L 159.402157 -76.621509 
L 160.770416 -76.797792 
L 162.138675 -76.956096 
L 163.506934 -77.09682 
L 164.875193 -77.22079 
L 166.243451 -77.329136 
L 167.61171 -77.42317 
L 168.979969 -77.504291 
L 170.348228 -77.573909 
L 171.716487 -77.633387 
L 173.084746 -77.684009 
L 174.453005 -77.726952 
L 175.821263 -77.763282 
L 177.189522 -77.793944 
L 178.557781 -77.819772 
L 179.92604 -77.841493 
L 181.294299 -77.859732 
L 182.662558 -77.875032 
L 184.030817 -77.887852 
L 185.399076 -77.898585 
L 186.767334 -77.907566 
L 188.135593 -77.915076 
L 189.503852 -77.921353 
L 190.872111 -77.926596 
L 192.24037 -77.930976 
L 193.608629 -77.934633 
L 194.976888 -77.937685 
L 196.345146 -77.940232 
L 197.713405 -77.942358 
L 199.081664 -77.944131 
L 200.449923 -77.945611 
L 201.818182 -77.946845 
L 203.186441 -77.947875 
L 204.5547 -77.948733 
L 205.922958 -77.949449 
L 207.291217 -77.950046 
L 208.659476 -77.950544 
L 210.027735 -77.950959 
L 211.395994 -77.951306 
L 212.764253 -77.951594 
L 214.132512 -77.951835 
L 215.50077 -77.952036 
L 216.869029 -77.952203 
L 218.237288 -77.952343 
L 218.237288 -268.886573 
L 218.237288 -268.886573 
L 216.869029 -268.886433 
L 215.50077 -268.886266 
L 214.132512 -268.886065 
L 212.764253 -268.885824 
L 211.395994 -268.885536 
L 210.027735 -268.885189 
L 208.659476 -268.884774 
L 207.291217 -268.884276 
L 205.922958 -268.883679 
L 204.5547 -268.882963 
L 203.186441 -268.882105 
L 201.818182 -268.881075 
L 200.449923 -268.879841 
L 199.081664 -268.878362 
L 197.713405 -268.876588 
L 196.345146 -268.874462 
L 194.976888 -268.871915 
L 193.608629 -268.868863 
L 192.24037 -268.865206 
L 190.872111 -268.860826 
L 189.503852 -268.855583 
L 188.135593 -268.849306 
L 186.767334 -268.841796 
L 185.399076 -268.832816 
L 184.030817 -268.822082 
L 182.662558 -268.809262 
L 181.294299 -268.793962 
L 179.92604 -268.775723 
L 178.557781 -268.754002 
L 177.189522 -268.728174 
L 175.821263 -268.697512 
L 174.453005 -268.661182 
L 173.084746 -268.618239 
L 171.716487 -268.567617 
L 170.348228 -268.508139 
L 168.979969 -268.438522 
L 167.61171 -268.3574 
L 166.243451 -268.263366 
L 164.875193 -268.15502 
L 163.506934 -268.03105 
L 162.138675 -267.890326 
L 160.770416 -267.732022 
L 159.402157 -267.555739 
L 158.033898 -267.361641 
L 156.665639 -267.150569 
L 155.297381 -266.924118 
L 153.929122 -266.684663 
L 152.560863 -266.435306 
L 151.192604 -266.179746 
L 149.824345 -265.922072 
L 148.456086 -265.666512 
L 147.087827 -265.417155 
L 145.719569 -265.177701 
L 144.35131 -264.951249 
L 142.983051 -264.740177 
L 141.614792 -264.546079 
L 140.246533 -264.369796 
L 138.878274 -264.211492 
L 137.510015 -264.070769 
L 136.141757 -263.946798 
L 134.773498 -263.838452 
L 133.405239 -263.744418 
L 132.03698 -263.663297 
L 130.668721 -263.593679 
L 129.300462 -263.534201 
L 127.932203 -263.483579 
L 126.563945 -263.440636 
L 125.195686 -263.404306 
L 123.827427 -263.373644 
L 122.459168 -263.347816 
L 121.090909 -263.326096 
L 119.72265 -263.307856 
L 118.354391 -263.292557 
L 116.986133 -263.279736 
L 115.617874 -263.269003 
L 114.249615 -263.260022 
L 112.881356 -263.252512 
L 111.513097 -263.246236 
L 110.144838 -263.240992 
L 108.776579 -263.236612 
L 107.40832 -263.232956 
L 106.040062 -263.229903 
L 104.671803 -263.227356 
L 103.303544 -263.22523 
L 101.935285 -263.223457 
L 100.567026 -263.221977 
L 99.198767 -263.220743 
L 97.830508 -263.219714 
L 96.46225 -263.218855 
L 95.093991 -263.218139 
L 93.725732 -263.217542 
L 92.357473 -263.217044 
L 90.989214 -263.216629 
L 89.620955 -263.216283 
L 88.252696 -263.215994 
L 86.884438 -263.215753 
L 85.516179 -263.215552 
L 84.14792 -263.215385 
L 82.779661 -263.215245 
z
"/>
    </defs>
    <g clip-path="url(#pd260de5c34)">
     <use xlink:href="#md5b4705281" x="0" y="299.52" style="fill: #406992; fill-opacity: 0.2"/>
    </g>
   </g>
   <g id="FillBetweenPolyCollection_3">
    <defs>
     <path id="m186f23ff3a" d="M 82.779661 -36.304755 
L 82.779661 -72.279615 
L 84.14792 -72.279476 
L 85.516179 -72.279308 
L 86.884438 -72.279108 
L 88.252696 -72.278867 
L 89.620955 -72.278578 
L 90.989214 -72.278232 
L 92.357473 -72.277817 
L 93.725732 -72.277319 
L 95.093991 -72.276722 
L 96.46225 -72.276006 
L 97.830508 -72.275147 
L 99.198767 -72.274118 
L 100.567026 -72.272884 
L 101.935285 -72.271404 
L 103.303544 -72.269631 
L 104.671803 -72.267505 
L 106.040062 -72.264958 
L 107.40832 -72.261905 
L 108.776579 -72.258249 
L 110.144838 -72.253869 
L 111.513097 -72.248625 
L 112.881356 -72.242349 
L 114.249615 -72.234839 
L 115.617874 -72.225858 
L 116.986133 -72.215124 
L 118.354391 -72.202304 
L 119.72265 -72.187005 
L 121.090909 -72.168765 
L 122.459168 -72.147045 
L 123.827427 -72.121217 
L 125.195686 -72.090554 
L 126.563945 -72.054225 
L 127.932203 -72.011281 
L 129.300462 -71.96066 
L 130.668721 -71.901182 
L 132.03698 -71.831564 
L 133.405239 -71.750443 
L 134.773498 -71.656409 
L 136.141757 -71.548063 
L 137.510015 -71.424092 
L 138.878274 -71.283369 
L 140.246533 -71.125065 
L 141.614792 -70.948782 
L 142.983051 -70.754684 
L 144.35131 -70.543611 
L 145.719569 -70.31716 
L 147.087827 -70.077706 
L 148.456086 -69.828349 
L 149.824345 -69.572789 
L 151.192604 -69.315115 
L 152.560863 -69.059555 
L 153.929122 -68.810198 
L 155.297381 -68.570743 
L 156.665639 -68.344292 
L 158.033898 -68.133219 
L 159.402157 -67.939122 
L 160.770416 -67.762839 
L 162.138675 -67.604534 
L 163.506934 -67.463811 
L 164.875193 -67.339841 
L 166.243451 -67.231495 
L 167.61171 -67.137461 
L 168.979969 -67.056339 
L 170.348228 -66.986722 
L 171.716487 -66.927244 
L 173.084746 -66.876622 
L 174.453005 -66.833679 
L 175.821263 -66.797349 
L 177.189522 -66.766687 
L 178.557781 -66.740858 
L 179.92604 -66.719138 
L 181.294299 -66.700898 
L 182.662558 -66.685599 
L 184.030817 -66.672779 
L 185.399076 -66.662045 
L 186.767334 -66.653065 
L 188.135593 -66.645555 
L 189.503852 -66.639278 
L 190.872111 -66.634034 
L 192.24037 -66.629655 
L 193.608629 -66.625998 
L 194.976888 -66.622946 
L 196.345146 -66.620398 
L 197.713405 -66.618273 
L 199.081664 -66.616499 
L 200.449923 -66.61502 
L 201.818182 -66.613786 
L 203.186441 -66.612756 
L 204.5547 -66.611898 
L 205.922958 -66.611182 
L 207.291217 -66.610585 
L 208.659476 -66.610087 
L 210.027735 -66.609671 
L 211.395994 -66.609325 
L 212.764253 -66.609036 
L 214.132512 -66.608796 
L 215.50077 -66.608595 
L 216.869029 -66.608428 
L 218.237288 -66.608288 
L 218.237288 -30.633427 
L 218.237288 -30.633427 
L 216.869029 -30.633567 
L 215.50077 -30.633734 
L 214.132512 -30.633935 
L 212.764253 -30.634176 
L 211.395994 -30.634464 
L 210.027735 -30.634811 
L 208.659476 -30.635226 
L 207.291217 -30.635724 
L 205.922958 -30.636321 
L 204.5547 -30.637037 
L 203.186441 -30.637895 
L 201.818182 -30.638925 
L 200.449923 -30.640159 
L 199.081664 -30.641638 
L 197.713405 -30.643412 
L 196.345146 -30.645538 
L 194.976888 -30.648085 
L 193.608629 -30.651137 
L 192.24037 -30.654794 
L 190.872111 -30.659174 
L 189.503852 -30.664417 
L 188.135593 -30.670694 
L 186.767334 -30.678204 
L 185.399076 -30.687184 
L 184.030817 -30.697918 
L 182.662558 -30.710738 
L 181.294299 -30.726038 
L 179.92604 -30.744277 
L 178.557781 -30.765998 
L 177.189522 -30.791826 
L 175.821263 -30.822488 
L 174.453005 -30.858818 
L 173.084746 -30.901761 
L 171.716487 -30.952383 
L 170.348228 -31.011861 
L 168.979969 -31.081478 
L 167.61171 -31.1626 
L 166.243451 -31.256634 
L 164.875193 -31.36498 
L 163.506934 -31.48895 
L 162.138675 -31.629674 
L 160.770416 -31.787978 
L 159.402157 -31.964261 
L 158.033898 -32.158359 
L 156.665639 -32.369431 
L 155.297381 -32.595882 
L 153.929122 -32.835337 
L 152.560863 -33.084694 
L 151.192604 -33.340254 
L 149.824345 -33.597928 
L 148.456086 -33.853488 
L 147.087827 -34.102845 
L 145.719569 -34.342299 
L 144.35131 -34.568751 
L 142.983051 -34.779823 
L 141.614792 -34.973921 
L 140.246533 -35.150204 
L 138.878274 -35.308508 
L 137.510015 -35.449231 
L 136.141757 -35.573202 
L 134.773498 -35.681548 
L 133.405239 -35.775582 
L 132.03698 -35.856703 
L 130.668721 -35.926321 
L 129.300462 -35.985799 
L 127.932203 -36.036421 
L 126.563945 -36.079364 
L 125.195686 -36.115694 
L 123.827427 -36.146356 
L 122.459168 -36.172184 
L 121.090909 -36.193904 
L 119.72265 -36.212144 
L 118.354391 -36.227443 
L 116.986133 -36.240264 
L 115.617874 -36.250997 
L 114.249615 -36.259978 
L 112.881356 -36.267488 
L 111.513097 -36.273764 
L 110.144838 -36.279008 
L 108.776579 -36.283388 
L 107.40832 -36.287044 
L 106.040062 -36.290097 
L 104.671803 -36.292644 
L 103.303544 -36.29477 
L 101.935285 -36.296543 
L 100.567026 -36.298023 
L 99.198767 -36.299257 
L 97.830508 -36.300286 
L 96.46225 -36.301145 
L 95.093991 -36.301861 
L 93.725732 -36.302458 
L 92.357473 -36.302956 
L 90.989214 -36.303371 
L 89.620955 -36.303717 
L 88.252696 -36.304006 
L 86.884438 -36.304247 
L 85.516179 -36.304448 
L 84.14792 -36.304615 
L 82.779661 -36.304755 
z
"/>
    </defs>
    <g clip-path="url(#pd260de5c34)">
     <use xlink:href="#m186f23ff3a" x="0" y="299.52" style="fill: #b78935; fill-opacity: 0.2"/>
    </g>
   </g>
   <g id="FillBetweenPolyCollection_4">
    <defs>
     <path id="m724ab73b22" d="M 218.237288 -77.953043 
L 218.237288 -268.887273 
L 233.288136 -268.887273 
L 233.288136 -77.953043 
L 233.288136 -77.953043 
L 218.237288 -77.953043 
z
"/>
    </defs>
    <g clip-path="url(#pd260de5c34)">
     <use xlink:href="#m724ab73b22" x="0" y="299.52" style="fill: #406992"/>
    </g>
   </g>
   <g id="FillBetweenPolyCollection_5">
    <defs>
     <path id="ma805fdc776" d="M 218.237288 -30.632727 
L 218.237288 -66.607588 
L 233.288136 -66.607588 
L 233.288136 -30.632727 
L 233.288136 -30.632727 
L 218.237288 -30.632727 
z
"/>
    </defs>
    <g clip-path="url(#pd260de5c34)">
     <use xlink:href="#ma805fdc776" x="0" y="299.52" style="fill: #b78935"/>
    </g>
   </g>
   <g id="FillBetweenPolyCollection_6">
    <defs>
     <path id="m5221f20e97" d="M 368.745763 -13.614545 
L 368.745763 -39.850452 
L 383.79661 -39.850452 
L 383.79661 -13.614545 
L 383.79661 -13.614545 
L 368.745763 -13.614545 
z
"/>
    </defs>
    <g clip-path="url(#pd260de5c34)">
     <use xlink:href="#m5221f20e97" x="0" y="299.52" style="fill: #b78935"/>
    </g>
   </g>
   <g id="FillBetweenPolyCollection_7">
    <defs>
     <path id="m18d3565c9f" d="M 368.745763 -51.195907 
L 368.745763 -60.934861 
L 383.79661 -60.934861 
L 383.79661 -51.195907 
L 383.79661 -51.195907 
L 368.745763 -51.195907 
z
"/>
    </defs>
    <g clip-path="url(#pd260de5c34)">
     <use xlink:href="#m18d3565c9f" x="0" y="299.52" style="fill: #949494"/>
    </g>
   </g>
   <g id="FillBetweenPolyCollection_8">
    <defs>
     <path id="m1ea7a1a8e2" d="M 368.745763 -83.62577 
L 368.745763 -106.496121 
L 383.79661 -106.496121 
L 383.79661 -83.62577 
L 383.79661 -83.62577 
L 368.745763 -83.62577 
z
"/>
    </defs>
    <g clip-path="url(#pd260de5c34)">
     <use xlink:href="#m1ea7a1a8e2" x="0" y="299.52" style="fill: #949494"/>
    </g>
   </g>
   <g id="FillBetweenPolyCollection_9">
    <defs>
     <path id="m46c3bb297c" d="M 368.745763 -117.841575 
L 368.745763 -285.905455 
L 383.79661 -285.905455 
L 383.79661 -117.841575 
L 383.79661 -117.841575 
L 368.745763 -117.841575 
z
"/>
    </defs>
    <g clip-path="url(#pd260de5c34)">
     <use xlink:href="#m46c3bb297c" x="0" y="299.52" style="fill: #406992"/>
    </g>
   </g>
   <g id="FillBetweenPolyCollection_10">
    <defs>
     <path id="m7b1331c30a" d="M 233.288136 -56.867934 
L 233.288136 -66.606888 
L 234.656394 -66.606749 
L 236.024653 -66.606581 
L 237.392912 -66.60638 
L 238.761171 -66.60614 
L 240.12943 -66.605851 
L 241.497689 -66.605505 
L 242.865948 -66.60509 
L 244.234206 -66.604592 
L 245.602465 -66.603995 
L 246.970724 -66.603279 
L 248.338983 -66.60242 
L 249.707242 -66.601391 
L 251.075501 -66.600156 
L 252.44376 -66.598677 
L 253.812018 -66.596903 
L 255.180277 -66.594778 
L 256.548536 -66.59223 
L 257.916795 -66.589178 
L 259.285054 -66.585521 
L 260.653313 -66.581142 
L 262.021572 -66.575898 
L 263.389831 -66.569621 
L 264.758089 -66.562112 
L 266.126348 -66.553131 
L 267.494607 -66.542397 
L 268.862866 -66.529577 
L 270.231125 -66.514278 
L 271.599384 -66.496038 
L 272.967643 -66.474318 
L 274.335901 -66.44849 
L 275.70416 -66.417827 
L 277.072419 -66.381498 
L 278.440678 -66.338554 
L 279.808937 -66.287933 
L 281.177196 -66.228454 
L 282.545455 -66.158837 
L 283.913713 -66.077716 
L 285.281972 -65.983681 
L 286.650231 -65.875335 
L 288.01849 -65.751365 
L 289.386749 -65.610642 
L 290.755008 -65.452338 
L 292.123267 -65.276055 
L 293.491525 -65.081957 
L 294.859784 -64.870884 
L 296.228043 -64.644433 
L 297.596302 -64.404978 
L 298.964561 -64.155622 
L 300.33282 -63.900061 
L 301.701079 -63.642388 
L 303.069337 -63.386827 
L 304.437596 -63.137471 
L 305.805855 -62.898016 
L 307.174114 -62.671565 
L 308.542373 -62.460492 
L 309.910632 -62.266394 
L 311.278891 -62.090111 
L 312.647149 -61.931807 
L 314.015408 -61.791084 
L 315.383667 -61.667114 
L 316.751926 -61.558768 
L 318.120185 -61.464733 
L 319.488444 -61.383612 
L 320.856703 -61.313995 
L 322.224961 -61.254516 
L 323.59322 -61.203895 
L 324.961479 -61.160951 
L 326.329738 -61.124622 
L 327.697997 -61.093959 
L 329.066256 -61.068131 
L 330.434515 -61.046411 
L 331.802773 -61.028171 
L 333.171032 -61.012872 
L 334.539291 -61.000052 
L 335.90755 -60.989318 
L 337.275809 -60.980337 
L 338.644068 -60.972828 
L 340.012327 -60.966551 
L 341.380586 -60.961307 
L 342.748844 -60.956928 
L 344.117103 -60.953271 
L 345.485362 -60.950219 
L 346.853621 -60.947671 
L 348.22188 -60.945546 
L 349.590139 -60.943772 
L 350.958398 -60.942293 
L 352.326656 -60.941058 
L 353.694915 -60.940029 
L 355.063174 -60.93917 
L 356.431433 -60.938454 
L 357.799692 -60.937857 
L 359.167951 -60.937359 
L 360.53621 -60.936944 
L 361.904468 -60.936598 
L 363.272727 -60.936309 
L 364.640986 -60.936068 
L 366.009245 -60.935868 
L 367.377504 -60.9357 
L 368.745763 -60.935561 
L 368.745763 -51.196607 
L 368.745763 -51.196607 
L 367.377504 -51.196747 
L 366.009245 -51.196914 
L 364.640986 -51.197115 
L 363.272727 -51.197355 
L 361.904468 -51.197644 
L 360.53621 -51.19799 
L 359.167951 -51.198406 
L 357.799692 -51.198903 
L 356.431433 -51.199501 
L 355.063174 -51.200217 
L 353.694915 -51.201075 
L 352.326656 -51.202105 
L 350.958398 -51.203339 
L 349.590139 -51.204818 
L 348.22188 -51.206592 
L 346.853621 -51.208717 
L 345.485362 -51.211265 
L 344.117103 -51.214317 
L 342.748844 -51.217974 
L 341.380586 -51.222353 
L 340.012327 -51.227597 
L 338.644068 -51.233874 
L 337.275809 -51.241383 
L 335.90755 -51.250364 
L 334.539291 -51.261098 
L 333.171032 -51.273918 
L 331.802773 -51.289217 
L 330.434515 -51.307457 
L 329.066256 -51.329177 
L 327.697997 -51.355006 
L 326.329738 -51.385668 
L 324.961479 -51.421998 
L 323.59322 -51.464941 
L 322.224961 -51.515563 
L 320.856703 -51.575041 
L 319.488444 -51.644658 
L 318.120185 -51.725779 
L 316.751926 -51.819814 
L 315.383667 -51.92816 
L 314.015408 -52.05213 
L 312.647149 -52.192853 
L 311.278891 -52.351158 
L 309.910632 -52.52744 
L 308.542373 -52.721538 
L 307.174114 -52.932611 
L 305.805855 -53.159062 
L 304.437596 -53.398517 
L 303.069337 -53.647873 
L 301.701079 -53.903434 
L 300.33282 -54.161108 
L 298.964561 -54.416668 
L 297.596302 -54.666024 
L 296.228043 -54.905479 
L 294.859784 -55.13193 
L 293.491525 -55.343003 
L 292.123267 -55.537101 
L 290.755008 -55.713384 
L 289.386749 -55.871688 
L 288.01849 -56.012411 
L 286.650231 -56.136382 
L 285.281972 -56.244728 
L 283.913713 -56.338762 
L 282.545455 -56.419883 
L 281.177196 -56.489501 
L 279.808937 -56.548979 
L 278.440678 -56.5996 
L 277.072419 -56.642544 
L 275.70416 -56.678873 
L 274.335901 -56.709536 
L 272.967643 -56.735364 
L 271.599384 -56.757084 
L 270.231125 -56.775324 
L 268.862866 -56.790623 
L 267.494607 -56.803443 
L 266.126348 -56.814177 
L 264.758089 -56.823158 
L 263.389831 -56.830668 
L 262.021572 -56.836944 
L 260.653313 -56.842188 
L 259.285054 -56.846567 
L 257.916795 -56.850224 
L 256.548536 -56.853276 
L 255.180277 -56.855824 
L 253.812018 -56.85795 
L 252.44376 -56.859723 
L 251.075501 -56.861203 
L 249.707242 -56.862437 
L 248.338983 -56.863466 
L 246.970724 -56.864325 
L 245.602465 -56.865041 
L 244.234206 -56.865638 
L 242.865948 -56.866136 
L 241.497689 -56.866551 
L 240.12943 -56.866897 
L 238.761171 -56.867186 
L 237.392912 -56.867427 
L 236.024653 -56.867627 
L 234.656394 -56.867795 
L 233.288136 -56.867934 
z
"/>
    </defs>
    <g clip-path="url(#pd260de5c34)">
     <use xlink:href="#m7b1331c30a" x="0" y="299.52" style="fill: #949494; fill-opacity: 0.2"/>
    </g>
   </g>
   <g id="FillBetweenPolyCollection_11">
    <defs>
     <path id="m02726580b0" d="M 233.288136 -30.630627 
L 233.288136 -56.866534 
L 234.656394 -56.866116 
L 236.024653 -56.865614 
L 237.392912 -56.865011 
L 238.761171 -56.864289 
L 240.12943 -56.863423 
L 241.497689 -56.862384 
L 242.865948 -56.861139 
L 244.234206 -56.859645 
L 245.602465 -56.857853 
L 246.970724 -56.855705 
L 248.338983 -56.85313 
L 249.707242 -56.850042 
L 251.075501 -56.846339 
L 252.44376 -56.841901 
L 253.812018 -56.83658 
L 255.180277 -56.830203 
L 256.548536 -56.822561 
L 257.916795 -56.813404 
L 259.285054 -56.802434 
L 260.653313 -56.789295 
L 262.021572 -56.773564 
L 263.389831 -56.754734 
L 264.758089 -56.732205 
L 266.126348 -56.705263 
L 267.494607 -56.673061 
L 268.862866 -56.634601 
L 270.231125 -56.588703 
L 271.599384 -56.533984 
L 272.967643 -56.468824 
L 274.335901 -56.391339 
L 275.70416 -56.299351 
L 277.072419 -56.190363 
L 278.440678 -56.061532 
L 279.808937 -55.909668 
L 281.177196 -55.731233 
L 282.545455 -55.522381 
L 283.913713 -55.279017 
L 285.281972 -54.996914 
L 286.650231 -54.671876 
L 288.01849 -54.299965 
L 289.386749 -53.877795 
L 290.755008 -53.402883 
L 292.123267 -52.874034 
L 293.491525 -52.29174 
L 294.859784 -51.658522 
L 296.228043 -50.979169 
L 297.596302 -50.260805 
L 298.964561 -49.512735 
L 300.33282 -48.746054 
L 301.701079 -47.973033 
L 303.069337 -47.206352 
L 304.437596 -46.458282 
L 305.805855 -45.739918 
L 307.174114 -45.060564 
L 308.542373 -44.427346 
L 309.910632 -43.845053 
L 311.278891 -43.316204 
L 312.647149 -42.841291 
L 314.015408 -42.419122 
L 315.383667 -42.047211 
L 316.751926 -41.722173 
L 318.120185 -41.44007 
L 319.488444 -41.196706 
L 320.856703 -40.987854 
L 322.224961 -40.809419 
L 323.59322 -40.657555 
L 324.961479 -40.528724 
L 326.329738 -40.419735 
L 327.697997 -40.327748 
L 329.066256 -40.250263 
L 330.434515 -40.185103 
L 331.802773 -40.130383 
L 333.171032 -40.084486 
L 334.539291 -40.046025 
L 335.90755 -40.013824 
L 337.275809 -39.986882 
L 338.644068 -39.964353 
L 340.012327 -39.945523 
L 341.380586 -39.929791 
L 342.748844 -39.916653 
L 344.117103 -39.905683 
L 345.485362 -39.896526 
L 346.853621 -39.888884 
L 348.22188 -39.882507 
L 349.590139 -39.877186 
L 350.958398 -39.872747 
L 352.326656 -39.869045 
L 353.694915 -39.865957 
L 355.063174 -39.863381 
L 356.431433 -39.861233 
L 357.799692 -39.859442 
L 359.167951 -39.857948 
L 360.53621 -39.856702 
L 361.904468 -39.855664 
L 363.272727 -39.854798 
L 364.640986 -39.854075 
L 366.009245 -39.853473 
L 367.377504 -39.852971 
L 368.745763 -39.852552 
L 368.745763 -13.616645 
L 368.745763 -13.616645 
L 367.377504 -13.617064 
L 366.009245 -13.617566 
L 364.640986 -13.618168 
L 363.272727 -13.618891 
L 361.904468 -13.619757 
L 360.53621 -13.620795 
L 359.167951 -13.622041 
L 357.799692 -13.623535 
L 356.431433 -13.625326 
L 355.063174 -13.627474 
L 353.694915 -13.63005 
L 352.326656 -13.633138 
L 350.958398 -13.63684 
L 349.590139 -13.641279 
L 348.22188 -13.6466 
L 346.853621 -13.652977 
L 345.485362 -13.660619 
L 344.117103 -13.669776 
L 342.748844 -13.680746 
L 341.380586 -13.693884 
L 340.012327 -13.709616 
L 338.644068 -13.728446 
L 337.275809 -13.750975 
L 335.90755 -13.777917 
L 334.539291 -13.810118 
L 333.171032 -13.848579 
L 331.802773 -13.894476 
L 330.434515 -13.949196 
L 329.066256 -14.014356 
L 327.697997 -14.091841 
L 326.329738 -14.183828 
L 324.961479 -14.292817 
L 323.59322 -14.421648 
L 322.224961 -14.573512 
L 320.856703 -14.751947 
L 319.488444 -14.960799 
L 318.120185 -15.204163 
L 316.751926 -15.486266 
L 315.383667 -15.811304 
L 314.015408 -16.183215 
L 312.647149 -16.605384 
L 311.278891 -17.080297 
L 309.910632 -17.609146 
L 308.542373 -18.191439 
L 307.174114 -18.824657 
L 305.805855 -19.504011 
L 304.437596 -20.222375 
L 303.069337 -20.970445 
L 301.701079 -21.737126 
L 300.33282 -22.510147 
L 298.964561 -23.276828 
L 297.596302 -24.024898 
L 296.228043 -24.743262 
L 294.859784 -25.422615 
L 293.491525 -26.055833 
L 292.123267 -26.638127 
L 290.755008 -27.166976 
L 289.386749 -27.641888 
L 288.01849 -28.064058 
L 286.650231 -28.435969 
L 285.281972 -28.761007 
L 283.913713 -29.04311 
L 282.545455 -29.286474 
L 281.177196 -29.495326 
L 279.808937 -29.673761 
L 278.440678 -29.825625 
L 277.072419 -29.954456 
L 275.70416 -30.063444 
L 274.335901 -30.155432 
L 272.967643 -30.232917 
L 271.599384 -30.298077 
L 270.231125 -30.352796 
L 268.862866 -30.398694 
L 267.494607 -30.437154 
L 266.126348 -30.469356 
L 264.758089 -30.496298 
L 263.389831 -30.518827 
L 262.021572 -30.537657 
L 260.653313 -30.553388 
L 259.285054 -30.566527 
L 257.916795 -30.577497 
L 256.548536 -30.586654 
L 255.180277 -30.594296 
L 253.812018 -30.600673 
L 252.44376 -30.605994 
L 251.075501 -30.610432 
L 249.707242 -30.614135 
L 248.338983 -30.617223 
L 246.970724 -30.619798 
L 245.602465 -30.621946 
L 244.234206 -30.623738 
L 242.865948 -30.625232 
L 241.497689 -30.626477 
L 240.12943 -30.627516 
L 238.761171 -30.628382 
L 237.392912 -30.629104 
L 236.024653 -30.629707 
L 234.656394 -30.630209 
L 233.288136 -30.630627 
z
"/>
    </defs>
    <g clip-path="url(#pd260de5c34)">
     <use xlink:href="#m02726580b0" x="0" y="299.52" style="fill: #b78935; fill-opacity: 0.2"/>
    </g>
   </g>
   <g id="FillBetweenPolyCollection_12">
    <defs>
     <path id="m07f9d948f5" d="M 233.288136 -100.824094 
L 233.288136 -77.953743 
L 234.656394 -77.953882 
L 236.024653 -77.95405 
L 237.392912 -77.95425 
L 238.761171 -77.954491 
L 240.12943 -77.95478 
L 241.497689 -77.955126 
L 242.865948 -77.955541 
L 244.234206 -77.956039 
L 245.602465 -77.956636 
L 246.970724 -77.957352 
L 248.338983 -77.958211 
L 249.707242 -77.95924 
L 251.075501 -77.960474 
L 252.44376 -77.961954 
L 253.812018 -77.963727 
L 255.180277 -77.965853 
L 256.548536 -77.9684 
L 257.916795 -77.971453 
L 259.285054 -77.975109 
L 260.653313 -77.979489 
L 262.021572 -77.984733 
L 263.389831 -77.991009 
L 264.758089 -77.998519 
L 266.126348 -78.0075 
L 267.494607 -78.018234 
L 268.862866 -78.031054 
L 270.231125 -78.046353 
L 271.599384 -78.064593 
L 272.967643 -78.086313 
L 274.335901 -78.112141 
L 275.70416 -78.142804 
L 277.072419 -78.179133 
L 278.440678 -78.222077 
L 279.808937 -78.272698 
L 281.177196 -78.332176 
L 282.545455 -78.401794 
L 283.913713 -78.482915 
L 285.281972 -78.576949 
L 286.650231 -78.685295 
L 288.01849 -78.809266 
L 289.386749 -78.949989 
L 290.755008 -79.108293 
L 292.123267 -79.284576 
L 293.491525 -79.478674 
L 294.859784 -79.689747 
L 296.228043 -79.916198 
L 297.596302 -80.155653 
L 298.964561 -80.405009 
L 300.33282 -80.660569 
L 301.701079 -80.918243 
L 303.069337 -81.173803 
L 304.437596 -81.42316 
L 305.805855 -81.662615 
L 307.174114 -81.889066 
L 308.542373 -82.100139 
L 309.910632 -82.294237 
L 311.278891 -82.470519 
L 312.647149 -82.628824 
L 314.015408 -82.769547 
L 315.383667 -82.893517 
L 316.751926 -83.001863 
L 318.120185 -83.095897 
L 319.488444 -83.177019 
L 320.856703 -83.246636 
L 322.224961 -83.306114 
L 323.59322 -83.356736 
L 324.961479 -83.399679 
L 326.329738 -83.436009 
L 327.697997 -83.466671 
L 329.066256 -83.4925 
L 330.434515 -83.51422 
L 331.802773 -83.53246 
L 333.171032 -83.547759 
L 334.539291 -83.560579 
L 335.90755 -83.571313 
L 337.275809 -83.580293 
L 338.644068 -83.587803 
L 340.012327 -83.59408 
L 341.380586 -83.599324 
L 342.748844 -83.603703 
L 344.117103 -83.60736 
L 345.485362 -83.610412 
L 346.853621 -83.61296 
L 348.22188 -83.615085 
L 349.590139 -83.616859 
L 350.958398 -83.618338 
L 352.326656 -83.619572 
L 353.694915 -83.620602 
L 355.063174 -83.62146 
L 356.431433 -83.622176 
L 357.799692 -83.622773 
L 359.167951 -83.623271 
L 360.53621 -83.623687 
L 361.904468 -83.624033 
L 363.272727 -83.624322 
L 364.640986 -83.624562 
L 366.009245 -83.624763 
L 367.377504 -83.62493 
L 368.745763 -83.62507 
L 368.745763 -106.495421 
L 368.745763 -106.495421 
L 367.377504 -106.495281 
L 366.009245 -106.495114 
L 364.640986 -106.494913 
L 363.272727 -106.494672 
L 361.904468 -106.494384 
L 360.53621 -106.494037 
L 359.167951 -106.493622 
L 357.799692 -106.493124 
L 356.431433 -106.492527 
L 355.063174 -106.491811 
L 353.694915 -106.490953 
L 352.326656 -106.489923 
L 350.958398 -106.488689 
L 349.590139 -106.48721 
L 348.22188 -106.485436 
L 346.853621 -106.48331 
L 345.485362 -106.480763 
L 344.117103 -106.477711 
L 342.748844 -106.474054 
L 341.380586 -106.469675 
L 340.012327 -106.464431 
L 338.644068 -106.458154 
L 337.275809 -106.450644 
L 335.90755 -106.441664 
L 334.539291 -106.43093 
L 333.171032 -106.41811 
L 331.802773 -106.40281 
L 330.434515 -106.384571 
L 329.066256 -106.362851 
L 327.697997 -106.337022 
L 326.329738 -106.30636 
L 324.961479 -106.27003 
L 323.59322 -106.227087 
L 322.224961 -106.176465 
L 320.856703 -106.116987 
L 319.488444 -106.04737 
L 318.120185 -105.966248 
L 316.751926 -105.872214 
L 315.383667 -105.763868 
L 314.015408 -105.639898 
L 312.647149 -105.499174 
L 311.278891 -105.34087 
L 309.910632 -105.164587 
L 308.542373 -104.970489 
L 307.174114 -104.759417 
L 305.805855 -104.532966 
L 304.437596 -104.293511 
L 303.069337 -104.044154 
L 301.701079 -103.788594 
L 300.33282 -103.53092 
L 298.964561 -103.27536 
L 297.596302 -103.026003 
L 296.228043 -102.786549 
L 294.859784 -102.560098 
L 293.491525 -102.349025 
L 292.123267 -102.154927 
L 290.755008 -101.978644 
L 289.386749 -101.82034 
L 288.01849 -101.679617 
L 286.650231 -101.555646 
L 285.281972 -101.4473 
L 283.913713 -101.353266 
L 282.545455 -101.272145 
L 281.177196 -101.202527 
L 279.808937 -101.143049 
L 278.440678 -101.092428 
L 277.072419 -101.049484 
L 275.70416 -101.013154 
L 274.335901 -100.982492 
L 272.967643 -100.956664 
L 271.599384 -100.934944 
L 270.231125 -100.916704 
L 268.862866 -100.901405 
L 267.494607 -100.888585 
L 266.126348 -100.877851 
L 264.758089 -100.86887 
L 263.389831 -100.86136 
L 262.021572 -100.855084 
L 260.653313 -100.84984 
L 259.285054 -100.84546 
L 257.916795 -100.841804 
L 256.548536 -100.838751 
L 255.180277 -100.836204 
L 253.812018 -100.834078 
L 252.44376 -100.832305 
L 251.075501 -100.830825 
L 249.707242 -100.829591 
L 248.338983 -100.828562 
L 246.970724 -100.827703 
L 245.602465 -100.826987 
L 244.234206 -100.82639 
L 242.865948 -100.825892 
L 241.497689 -100.825477 
L 240.12943 -100.825131 
L 238.761171 -100.824842 
L 237.392912 -100.824601 
L 236.024653 -100.8244 
L 234.656394 -100.824233 
L 233.288136 -100.824094 
z
"/>
    </defs>
    <g clip-path="url(#pd260de5c34)">
     <use xlink:href="#m07f9d948f5" x="0" y="299.52" style="fill: #949494; fill-opacity: 0.2"/>
    </g>
   </g>
   <g id="FillBetweenPolyCollection_13">
    <defs>
     <path id="mdb84a32291" d="M 233.288136 -268.889373 
L 233.288136 -100.825493 
L 234.656394 -100.825912 
L 236.024653 -100.826414 
L 237.392912 -100.827016 
L 238.761171 -100.827739 
L 240.12943 -100.828605 
L 241.497689 -100.829644 
L 242.865948 -100.830889 
L 244.234206 -100.832383 
L 245.602465 -100.834174 
L 246.970724 -100.836322 
L 248.338983 -100.838898 
L 249.707242 -100.841986 
L 251.075501 -100.845689 
L 252.44376 -100.850127 
L 253.812018 -100.855448 
L 255.180277 -100.861825 
L 256.548536 -100.869467 
L 257.916795 -100.878624 
L 259.285054 -100.889594 
L 260.653313 -100.902732 
L 262.021572 -100.918464 
L 263.389831 -100.937294 
L 264.758089 -100.959823 
L 266.126348 -100.986765 
L 267.494607 -101.018966 
L 268.862866 -101.057427 
L 270.231125 -101.103324 
L 271.599384 -101.158044 
L 272.967643 -101.223204 
L 274.335901 -101.300689 
L 275.70416 -101.392676 
L 277.072419 -101.501665 
L 278.440678 -101.630496 
L 279.808937 -101.78236 
L 281.177196 -101.960795 
L 282.545455 -102.169647 
L 283.913713 -102.413011 
L 285.281972 -102.695114 
L 286.650231 -103.020152 
L 288.01849 -103.392063 
L 289.386749 -103.814232 
L 290.755008 -104.289145 
L 292.123267 -104.817994 
L 293.491525 -105.400288 
L 294.859784 -106.033506 
L 296.228043 -106.712859 
L 297.596302 -107.431223 
L 298.964561 -108.179293 
L 300.33282 -108.945974 
L 301.701079 -109.718995 
L 303.069337 -110.485676 
L 304.437596 -111.233746 
L 305.805855 -111.95211 
L 307.174114 -112.631463 
L 308.542373 -113.264681 
L 309.910632 -113.846975 
L 311.278891 -114.375824 
L 312.647149 -114.850736 
L 314.015408 -115.272906 
L 315.383667 -115.644817 
L 316.751926 -115.969855 
L 318.120185 -116.251958 
L 319.488444 -116.495322 
L 320.856703 -116.704174 
L 322.224961 -116.882609 
L 323.59322 -117.034473 
L 324.961479 -117.163304 
L 326.329738 -117.272292 
L 327.697997 -117.36428 
L 329.066256 -117.441765 
L 330.434515 -117.506925 
L 331.802773 -117.561644 
L 333.171032 -117.607542 
L 334.539291 -117.646002 
L 335.90755 -117.678204 
L 337.275809 -117.705146 
L 338.644068 -117.727675 
L 340.012327 -117.746505 
L 341.380586 -117.762236 
L 342.748844 -117.775375 
L 344.117103 -117.786345 
L 345.485362 -117.795502 
L 346.853621 -117.803144 
L 348.22188 -117.809521 
L 349.590139 -117.814842 
L 350.958398 -117.81928 
L 352.326656 -117.822983 
L 353.694915 -117.826071 
L 355.063174 -117.828647 
L 356.431433 -117.830795 
L 357.799692 -117.832586 
L 359.167951 -117.83408 
L 360.53621 -117.835325 
L 361.904468 -117.836364 
L 363.272727 -117.83723 
L 364.640986 -117.837952 
L 366.009245 -117.838555 
L 367.377504 -117.839057 
L 368.745763 -117.839475 
L 368.745763 -285.903355 
L 368.745763 -285.903355 
L 367.377504 -285.902936 
L 366.009245 -285.902434 
L 364.640986 -285.901832 
L 363.272727 -285.901109 
L 361.904468 -285.900243 
L 360.53621 -285.899205 
L 359.167951 -285.897959 
L 357.799692 -285.896465 
L 356.431433 -285.894674 
L 355.063174 -285.892526 
L 353.694915 -285.88995 
L 352.326656 -285.886862 
L 350.958398 -285.88316 
L 349.590139 -285.878721 
L 348.22188 -285.8734 
L 346.853621 -285.867023 
L 345.485362 -285.859381 
L 344.117103 -285.850224 
L 342.748844 -285.839254 
L 341.380586 -285.826116 
L 340.012327 -285.810384 
L 338.644068 -285.791554 
L 337.275809 -285.769025 
L 335.90755 -285.742083 
L 334.539291 -285.709882 
L 333.171032 -285.671421 
L 331.802773 -285.625524 
L 330.434515 -285.570804 
L 329.066256 -285.505644 
L 327.697997 -285.428159 
L 326.329738 -285.336172 
L 324.961479 -285.227183 
L 323.59322 -285.098352 
L 322.224961 -284.946488 
L 320.856703 -284.768053 
L 319.488444 -284.559201 
L 318.120185 -284.315837 
L 316.751926 -284.033734 
L 315.383667 -283.708696 
L 314.015408 -283.336785 
L 312.647149 -282.914616 
L 311.278891 -282.439703 
L 309.910632 -281.910854 
L 308.542373 -281.328561 
L 307.174114 -280.695343 
L 305.805855 -280.015989 
L 304.437596 -279.297625 
L 303.069337 -278.549555 
L 301.701079 -277.782874 
L 300.33282 -277.009853 
L 298.964561 -276.243172 
L 297.596302 -275.495102 
L 296.228043 -274.776738 
L 294.859784 -274.097385 
L 293.491525 -273.464167 
L 292.123267 -272.881873 
L 290.755008 -272.353024 
L 289.386749 -271.878112 
L 288.01849 -271.455942 
L 286.650231 -271.084031 
L 285.281972 -270.758993 
L 283.913713 -270.47689 
L 282.545455 -270.233526 
L 281.177196 -270.024674 
L 279.808937 -269.846239 
L 278.440678 -269.694375 
L 277.072419 -269.565544 
L 275.70416 -269.456556 
L 274.335901 -269.364568 
L 272.967643 -269.287083 
L 271.599384 -269.221923 
L 270.231125 -269.167204 
L 268.862866 -269.121306 
L 267.494607 -269.082846 
L 266.126348 -269.050644 
L 264.758089 -269.023702 
L 263.389831 -269.001173 
L 262.021572 -268.982343 
L 260.653313 -268.966612 
L 259.285054 -268.953473 
L 257.916795 -268.942503 
L 256.548536 -268.933346 
L 255.180277 -268.925704 
L 253.812018 -268.919327 
L 252.44376 -268.914006 
L 251.075501 -268.909568 
L 249.707242 -268.905865 
L 248.338983 -268.902777 
L 246.970724 -268.900202 
L 245.602465 -268.898054 
L 244.234206 -268.896262 
L 242.865948 -268.894768 
L 241.497689 -268.893523 
L 240.12943 -268.892484 
L 238.761171 -268.891618 
L 237.392912 -268.890896 
L 236.024653 -268.890293 
L 234.656394 -268.889791 
L 233.288136 -268.889373 
z
"/>
    </defs>
    <g clip-path="url(#pd260de5c34)">
     <use xlink:href="#mdb84a32291" x="0" y="299.52" style="fill: #406992; fill-opacity: 0.2"/>
    </g>
   </g>
   <g id="text_1">
    <text style="font-weight: 300; font-size: 16px; font-family: 'Source Sans 3', sans-serif; fill: #595959" transform="translate(-30.93161 145.05225)">All Predictions</text>
    <text style="font-weight: 300; font-size: 16px; font-family: 'Source Sans 3', sans-serif; fill: #595959" transform="translate(24.77839 162.46775)">100%</text>
   </g>
   <g id="text_2">
    <text style="font-weight: 300; font-size: 16px; font-family: 'Source Sans 3', sans-serif; fill: #595959" transform="translate(93.591864 246.095842)">Drought Predicted</text>
    <text style="font-weight: 300; font-size: 16px; font-family: 'Source Sans 3', sans-serif; fill: #595959" transform="translate(171.959364 263.703842)">15.9%</text>
   </g>
   <g id="text_3">
    <text style="font-weight: 300; font-size: 16px; font-family: 'Source Sans 3', sans-serif; fill: #595959" transform="translate(71.766864 121.295842)">No Drought Predicted</text>
    <text style="font-weight: 300; font-size: 16px; font-family: 'Source Sans 3', sans-serif; fill: #595959" transform="translate(171.959364 138.903842)">84.1%</text>
   </g>
   <g id="text_4">
    <text style="font-weight: 300; font-size: 16px; font-family: 'Source Sans 3', sans-serif; fill: #595959" transform="translate(277.060339 267.983501)">Drought Obs.</text>
    <text style="font-weight: 300; font-size: 16px; font-family: 'Source Sans 3', sans-serif; fill: #595959" transform="translate(322.467839 285.591501)">11.6%</text>
   </g>
   <g id="text_5">
    <text style="font-weight: 300; font-size: 16px; font-family: 'Source Sans 3', sans-serif; fill: #595959" transform="translate(255.235339 238.650616)">No Drought Obs.</text>
    <text style="font-weight: 300; font-size: 16px; font-family: 'Source Sans 3', sans-serif; fill: #595959" transform="translate(330.020339 256.258616)">4.3%</text>
   </g>
   <g id="text_6">
    <text style="font-weight: 300; font-size: 16px; font-family: 'Source Sans 3', sans-serif; fill: #595959" transform="translate(277.060339 199.655055)">Drought Obs.</text>
    <text style="font-weight: 300; font-size: 16px; font-family: 'Source Sans 3', sans-serif; fill: #595959" transform="translate(322.467839 217.263055)">10.1%</text>
   </g>
   <g id="text_7">
    <text style="font-weight: 300; font-size: 16px; font-family: 'Source Sans 3', sans-serif; fill: #595959" transform="translate(255.235339 92.842485)">No Drought Obs.</text>
    <text style="font-weight: 300; font-size: 16px; font-family: 'Source Sans 3', sans-serif; fill: #595959" transform="translate(322.467839 110.450485)">74.1%</text>
   </g>
  </g>
 </g>
 <defs>
  <clipPath id="pd260de5c34">
   <rect x="0" y="0" width="399.6" height="299.52"/>
  </clipPath>
 </defs>
</svg>
