<?xml version="1.0" encoding="utf-8" standalone="no"?>
<!DOCTYPE svg PUBLIC "-//W3C//DTD SVG 1.1//EN"
  "http://www.w3.org/Graphics/SVG/1.1/DTD/svg11.dtd">
<svg xmlns:xlink="http://www.w3.org/1999/xlink" width="399.6px" height="299.52px" viewBox="0 0 399.6 299.52" xmlns="http://www.w3.org/2000/svg" version="1.1">
  <defs>
  <style type="text/css">*{stroke-linejoin: round; stroke-linecap: butt}</style>
 </defs>
 <g id="figure-forecast_truefalse_key">
  <g id="patch_1">
   <path d="M 0 299.52 
L 399.6 299.52 
L 399.6 0 
L 0 0 
z
" style="fill: #ffffff"/>
  </g>
  <g id="axis-forecast_truefalse_key">
   <g id="FillBetweenPolyCollection_1">
    <defs>
     <path id="mac3f23d2fd" d="M 78.118414 -45.291055 
L 78.118414 -272.200145 
L 93.169261 -272.200145 
L 93.169261 -45.291055 
L 93.169261 -45.291055 
L 78.118414 -45.291055 
z
"/>
    </defs>
    <g clip-path="url(#p034212a579)">
     <use xlink:href="#mac3f23d2fd" x="0" y="299.52" style="fill: #00264c"/>
    </g>
   </g>
   <g id="tf-swoop-ND">
    <defs>
     <path id="m712eb82ccc" d="M 93.169261 -272.200845 
L 93.169261 -70.390071 
L 94.53752 -70.39021 
L 95.905779 -70.390378 
L 97.274038 -70.390578 
L 98.642296 -70.390819 
L 100.010555 -70.391108 
L 101.378814 -70.391454 
L 102.747073 -70.391869 
L 104.115332 -70.392367 
L 105.483591 -70.392964 
L 106.85185 -70.39368 
L 108.220108 -70.394539 
L 109.588367 -70.395568 
L 110.956626 -70.396802 
L 112.324885 -70.398282 
L 113.693144 -70.400055 
L 115.061403 -70.402181 
L 116.429662 -70.404728 
L 117.79792 -70.407781 
L 119.166179 -70.411437 
L 120.534438 -70.415817 
L 121.902697 -70.421061 
L 123.270956 -70.427337 
L 124.639215 -70.434847 
L 126.007474 -70.443828 
L 127.375733 -70.454562 
L 128.743991 -70.467382 
L 130.11225 -70.482681 
L 131.480509 -70.500921 
L 132.848768 -70.522641 
L 134.217027 -70.548469 
L 135.585286 -70.579132 
L 136.953545 -70.615461 
L 138.321803 -70.658405 
L 139.690062 -70.709026 
L 141.058321 -70.768504 
L 142.42658 -70.838122 
L 143.794839 -70.919243 
L 145.163098 -71.013277 
L 146.531357 -71.121623 
L 147.899615 -71.245594 
L 149.267874 -71.386317 
L 150.636133 -71.544621 
L 152.004392 -71.720904 
L 153.372651 -71.915002 
L 154.74091 -72.126075 
L 156.109169 -72.352526 
L 157.477427 -72.591981 
L 158.845686 -72.841337 
L 160.213945 -73.096897 
L 161.582204 -73.354571 
L 162.950463 -73.610131 
L 164.318722 -73.859488 
L 165.686981 -74.098943 
L 167.055239 -74.325394 
L 168.423498 -74.536467 
L 169.791757 -74.730565 
L 171.160016 -74.906847 
L 172.528275 -75.065152 
L 173.896534 -75.205875 
L 175.264793 -75.329845 
L 176.633051 -75.438191 
L 178.00131 -75.532225 
L 179.369569 -75.613347 
L 180.737828 -75.682964 
L 182.106087 -75.742442 
L 183.474346 -75.793064 
L 184.842605 -75.836007 
L 186.210863 -75.872337 
L 187.579122 -75.902999 
L 188.947381 -75.928828 
L 190.31564 -75.950548 
L 191.683899 -75.968788 
L 193.052158 -75.984087 
L 194.420417 -75.996907 
L 195.788676 -76.007641 
L 197.156934 -76.016621 
L 198.525193 -76.024131 
L 199.893452 -76.030408 
L 201.261711 -76.035652 
L 202.62997 -76.040031 
L 203.998229 -76.043688 
L 205.366488 -76.04674 
L 206.734746 -76.049288 
L 208.103005 -76.051413 
L 209.471264 -76.053187 
L 210.839523 -76.054666 
L 212.207782 -76.0559 
L 213.576041 -76.05693 
L 214.9443 -76.057788 
L 216.312558 -76.058504 
L 217.680817 -76.059101 
L 219.049076 -76.059599 
L 220.417335 -76.060015 
L 221.785594 -76.060361 
L 223.153853 -76.06065 
L 224.522112 -76.06089 
L 225.89037 -76.061091 
L 227.258629 -76.061258 
L 228.626888 -76.061398 
L 228.626888 -277.872173 
L 228.626888 -277.872173 
L 227.258629 -277.872033 
L 225.89037 -277.871866 
L 224.522112 -277.871665 
L 223.153853 -277.871424 
L 221.785594 -277.871136 
L 220.417335 -277.870789 
L 219.049076 -277.870374 
L 217.680817 -277.869876 
L 216.312558 -277.869279 
L 214.9443 -277.868563 
L 213.576041 -277.867705 
L 212.207782 -277.866675 
L 210.839523 -277.865441 
L 209.471264 -277.863962 
L 208.103005 -277.862188 
L 206.734746 -277.860062 
L 205.366488 -277.857515 
L 203.998229 -277.854463 
L 202.62997 -277.850806 
L 201.261711 -277.846426 
L 199.893452 -277.841183 
L 198.525193 -277.834906 
L 197.156934 -277.827396 
L 195.788676 -277.818416 
L 194.420417 -277.807682 
L 193.052158 -277.794862 
L 191.683899 -277.779562 
L 190.31564 -277.761323 
L 188.947381 -277.739602 
L 187.579122 -277.713774 
L 186.210863 -277.683112 
L 184.842605 -277.646782 
L 183.474346 -277.603839 
L 182.106087 -277.553217 
L 180.737828 -277.493739 
L 179.369569 -277.424122 
L 178.00131 -277.343 
L 176.633051 -277.248966 
L 175.264793 -277.14062 
L 173.896534 -277.01665 
L 172.528275 -276.875926 
L 171.160016 -276.717622 
L 169.791757 -276.541339 
L 168.423498 -276.347241 
L 167.055239 -276.136169 
L 165.686981 -275.909718 
L 164.318722 -275.670263 
L 162.950463 -275.420906 
L 161.582204 -275.165346 
L 160.213945 -274.907672 
L 158.845686 -274.652112 
L 157.477427 -274.402755 
L 156.109169 -274.163301 
L 154.74091 -273.936849 
L 153.372651 -273.725777 
L 152.004392 -273.531679 
L 150.636133 -273.355396 
L 149.267874 -273.197092 
L 147.899615 -273.056369 
L 146.531357 -272.932398 
L 145.163098 -272.824052 
L 143.794839 -272.730018 
L 142.42658 -272.648897 
L 141.058321 -272.579279 
L 139.690062 -272.519801 
L 138.321803 -272.469179 
L 136.953545 -272.426236 
L 135.585286 -272.389906 
L 134.217027 -272.359244 
L 132.848768 -272.333416 
L 131.480509 -272.311696 
L 130.11225 -272.293456 
L 128.743991 -272.278157 
L 127.375733 -272.265336 
L 126.007474 -272.254603 
L 124.639215 -272.245622 
L 123.270956 -272.238112 
L 121.902697 -272.231836 
L 120.534438 -272.226592 
L 119.166179 -272.222212 
L 117.79792 -272.218556 
L 116.429662 -272.215503 
L 115.061403 -272.212956 
L 113.693144 -272.21083 
L 112.324885 -272.209057 
L 110.956626 -272.207577 
L 109.588367 -272.206343 
L 108.220108 -272.205314 
L 106.85185 -272.204455 
L 105.483591 -272.203739 
L 104.115332 -272.203142 
L 102.747073 -272.202644 
L 101.378814 -272.202229 
L 100.010555 -272.201883 
L 98.642296 -272.201594 
L 97.274038 -272.201353 
L 95.905779 -272.201152 
L 94.53752 -272.200985 
L 93.169261 -272.200845 
z
"/>
    </defs>
    <g clip-path="url(#p034212a579)">
     <use xlink:href="#m712eb82ccc" x="0" y="299.52" style="fill: #406992; fill-opacity: 0.05"/>
    </g>
   </g>
   <g id="tf-swoop-YD">
    <defs>
     <path id="m23a532ab31" d="M 93.169261 -45.290355 
L 93.169261 -70.388671 
L 94.53752 -70.388531 
L 95.905779 -70.388364 
L 97.274038 -70.388163 
L 98.642296 -70.387922 
L 100.010555 -70.387634 
L 101.378814 -70.387287 
L 102.747073 -70.386872 
L 104.115332 -70.386374 
L 105.483591 -70.385777 
L 106.85185 -70.385061 
L 108.220108 -70.384203 
L 109.588367 -70.383173 
L 110.956626 -70.381939 
L 112.324885 -70.380459 
L 113.693144 -70.378686 
L 115.061403 -70.37656 
L 116.429662 -70.374013 
L 117.79792 -70.370961 
L 119.166179 -70.367304 
L 120.534438 -70.362924 
L 121.902697 -70.357681 
L 123.270956 -70.351404 
L 124.639215 -70.343894 
L 126.007474 -70.334913 
L 127.375733 -70.32418 
L 128.743991 -70.31136 
L 130.11225 -70.29606 
L 131.480509 -70.277821 
L 132.848768 -70.2561 
L 134.217027 -70.230272 
L 135.585286 -70.19961 
L 136.953545 -70.16328 
L 138.321803 -70.120337 
L 139.690062 -70.069715 
L 141.058321 -70.010237 
L 142.42658 -69.940619 
L 143.794839 -69.859498 
L 145.163098 -69.765464 
L 146.531357 -69.657118 
L 147.899615 -69.533148 
L 149.267874 -69.392424 
L 150.636133 -69.23412 
L 152.004392 -69.057837 
L 153.372651 -68.863739 
L 154.74091 -68.652667 
L 156.109169 -68.426216 
L 157.477427 -68.186761 
L 158.845686 -67.937404 
L 160.213945 -67.681844 
L 161.582204 -67.42417 
L 162.950463 -67.16861 
L 164.318722 -66.919253 
L 165.686981 -66.679798 
L 167.055239 -66.453347 
L 168.423498 -66.242275 
L 169.791757 -66.048177 
L 171.160016 -65.871894 
L 172.528275 -65.71359 
L 173.896534 -65.572866 
L 175.264793 -65.448896 
L 176.633051 -65.34055 
L 178.00131 -65.246516 
L 179.369569 -65.165395 
L 180.737828 -65.095777 
L 182.106087 -65.036299 
L 183.474346 -64.985677 
L 184.842605 -64.942734 
L 186.210863 -64.906404 
L 187.579122 -64.875742 
L 188.947381 -64.849914 
L 190.31564 -64.828194 
L 191.683899 -64.809954 
L 193.052158 -64.794654 
L 194.420417 -64.781834 
L 195.788676 -64.771101 
L 197.156934 -64.76212 
L 198.525193 -64.75461 
L 199.893452 -64.748334 
L 201.261711 -64.74309 
L 202.62997 -64.73871 
L 203.998229 -64.735054 
L 205.366488 -64.732001 
L 206.734746 -64.729454 
L 208.103005 -64.727328 
L 209.471264 -64.725555 
L 210.839523 -64.724075 
L 212.207782 -64.722841 
L 213.576041 -64.721812 
L 214.9443 -64.720953 
L 216.312558 -64.720237 
L 217.680817 -64.71964 
L 219.049076 -64.719142 
L 220.417335 -64.718727 
L 221.785594 -64.71838 
L 223.153853 -64.718092 
L 224.522112 -64.717851 
L 225.89037 -64.71765 
L 227.258629 -64.717483 
L 228.626888 -64.717343 
L 228.626888 -39.619027 
L 228.626888 -39.619027 
L 227.258629 -39.619167 
L 225.89037 -39.619334 
L 224.522112 -39.619535 
L 223.153853 -39.619776 
L 221.785594 -39.620064 
L 220.417335 -39.620411 
L 219.049076 -39.620826 
L 217.680817 -39.621324 
L 216.312558 -39.621921 
L 214.9443 -39.622637 
L 213.576041 -39.623495 
L 212.207782 -39.624525 
L 210.839523 -39.625759 
L 209.471264 -39.627238 
L 208.103005 -39.629012 
L 206.734746 -39.631138 
L 205.366488 -39.633685 
L 203.998229 -39.636737 
L 202.62997 -39.640394 
L 201.261711 -39.644774 
L 199.893452 -39.650017 
L 198.525193 -39.656294 
L 197.156934 -39.663804 
L 195.788676 -39.672784 
L 194.420417 -39.683518 
L 193.052158 -39.696338 
L 191.683899 -39.711638 
L 190.31564 -39.729877 
L 188.947381 -39.751598 
L 187.579122 -39.777426 
L 186.210863 -39.808088 
L 184.842605 -39.844418 
L 183.474346 -39.887361 
L 182.106087 -39.937983 
L 180.737828 -39.997461 
L 179.369569 -40.067078 
L 178.00131 -40.1482 
L 176.633051 -40.242234 
L 175.264793 -40.35058 
L 173.896534 -40.47455 
L 172.528275 -40.615274 
L 171.160016 -40.773578 
L 169.791757 -40.949861 
L 168.423498 -41.143959 
L 167.055239 -41.355031 
L 165.686981 -41.581482 
L 164.318722 -41.820937 
L 162.950463 -42.070294 
L 161.582204 -42.325854 
L 160.213945 -42.583528 
L 158.845686 -42.839088 
L 157.477427 -43.088445 
L 156.109169 -43.327899 
L 154.74091 -43.554351 
L 153.372651 -43.765423 
L 152.004392 -43.959521 
L 150.636133 -44.135804 
L 149.267874 -44.294108 
L 147.899615 -44.434831 
L 146.531357 -44.558802 
L 145.163098 -44.667148 
L 143.794839 -44.761182 
L 142.42658 -44.842303 
L 141.058321 -44.911921 
L 139.690062 -44.971399 
L 138.321803 -45.022021 
L 136.953545 -45.064964 
L 135.585286 -45.101294 
L 134.217027 -45.131956 
L 132.848768 -45.157784 
L 131.480509 -45.179504 
L 130.11225 -45.197744 
L 128.743991 -45.213043 
L 127.375733 -45.225864 
L 126.007474 -45.236597 
L 124.639215 -45.245578 
L 123.270956 -45.253088 
L 121.902697 -45.259364 
L 120.534438 -45.264608 
L 119.166179 -45.268988 
L 117.79792 -45.272644 
L 116.429662 -45.275697 
L 115.061403 -45.278244 
L 113.693144 -45.28037 
L 112.324885 -45.282143 
L 110.956626 -45.283623 
L 109.588367 -45.284857 
L 108.220108 -45.285886 
L 106.85185 -45.286745 
L 105.483591 -45.287461 
L 104.115332 -45.288058 
L 102.747073 -45.288556 
L 101.378814 -45.288971 
L 100.010555 -45.289317 
L 98.642296 -45.289606 
L 97.274038 -45.289847 
L 95.905779 -45.290048 
L 94.53752 -45.290215 
L 93.169261 -45.290355 
z
"/>
    </defs>
    <g clip-path="url(#p034212a579)">
     <use xlink:href="#m23a532ab31" x="0" y="299.52" style="fill: #b78935; fill-opacity: 0.05"/>
    </g>
   </g>
   <g id="tf-bar-ND">
    <defs>
     <path id="m5891920ed2" d="M 228.626888 -76.062098 
L 228.626888 -277.872873 
L 243.677736 -277.872873 
L 243.677736 -76.062098 
L 243.677736 -76.062098 
L 228.626888 -76.062098 
z
"/>
    </defs>
    <g clip-path="url(#p034212a579)">
     <use xlink:href="#m5891920ed2" x="0" y="299.52" style="fill: #406992; fill-opacity: 0.25"/>
    </g>
   </g>
   <g id="tf-bar-YD">
    <defs>
     <path id="mbab2d0f19f" d="M 228.626888 -39.618327 
L 228.626888 -64.716643 
L 243.677736 -64.716643 
L 243.677736 -39.618327 
L 243.677736 -39.618327 
L 228.626888 -39.618327 
z
"/>
    </defs>
    <g clip-path="url(#p034212a579)">
     <use xlink:href="#mbab2d0f19f" x="0" y="299.52" style="fill: #b78935; fill-opacity: 0.25"/>
    </g>
   </g>
   <g id="tf-swoop-YD-ND">
    <defs>
     <path id="m4f2461e217" d="M 243.677736 -58.118801 
L 243.677736 -64.715943 
L 245.045994 -64.715804 
L 246.414253 -64.715636 
L 247.782512 -64.715436 
L 249.150771 -64.715195 
L 250.51903 -64.714906 
L 251.887289 -64.71456 
L 253.255548 -64.714145 
L 254.623806 -64.713647 
L 255.992065 -64.71305 
L 257.360324 -64.712334 
L 258.728583 -64.711475 
L 260.096842 -64.710446 
L 261.465101 -64.709212 
L 262.83336 -64.707732 
L 264.201618 -64.705959 
L 265.569877 -64.703833 
L 266.938136 -64.701286 
L 268.306395 -64.698233 
L 269.674654 -64.694577 
L 271.042913 -64.690197 
L 272.411172 -64.684953 
L 273.779431 -64.678677 
L 275.147689 -64.671167 
L 276.515948 -64.662186 
L 277.884207 -64.651452 
L 279.252466 -64.638632 
L 280.620725 -64.623333 
L 281.988984 -64.605093 
L 283.357243 -64.583373 
L 284.725501 -64.557545 
L 286.09376 -64.526882 
L 287.462019 -64.490553 
L 288.830278 -64.447609 
L 290.198537 -64.396988 
L 291.566796 -64.33751 
L 292.935055 -64.267892 
L 294.303313 -64.186771 
L 295.671572 -64.092737 
L 297.039831 -63.984391 
L 298.40809 -63.86042 
L 299.776349 -63.719697 
L 301.144608 -63.561393 
L 302.512867 -63.38511 
L 303.881125 -63.191012 
L 305.249384 -62.979939 
L 306.617643 -62.753488 
L 307.985902 -62.514033 
L 309.354161 -62.264677 
L 310.72242 -62.009117 
L 312.090679 -61.751443 
L 313.458937 -61.495883 
L 314.827196 -61.246526 
L 316.195455 -61.007071 
L 317.563714 -60.78062 
L 318.931973 -60.569547 
L 320.300232 -60.37545 
L 321.668491 -60.199167 
L 323.036749 -60.040862 
L 324.405008 -59.900139 
L 325.773267 -59.776169 
L 327.141526 -59.667823 
L 328.509785 -59.573789 
L 329.878044 -59.492667 
L 331.246303 -59.42305 
L 332.614561 -59.363572 
L 333.98282 -59.31295 
L 335.351079 -59.270007 
L 336.719338 -59.233677 
L 338.087597 -59.203015 
L 339.455856 -59.177186 
L 340.824115 -59.155466 
L 342.192373 -59.137226 
L 343.560632 -59.121927 
L 344.928891 -59.109107 
L 346.29715 -59.098373 
L 347.665409 -59.089393 
L 349.033668 -59.081883 
L 350.401927 -59.075606 
L 351.770186 -59.070362 
L 353.138444 -59.065983 
L 354.506703 -59.062326 
L 355.874962 -59.059274 
L 357.243221 -59.056726 
L 358.61148 -59.054601 
L 359.979739 -59.052827 
L 361.347998 -59.051348 
L 362.716256 -59.050114 
L 364.084515 -59.049084 
L 365.452774 -59.048226 
L 366.821033 -59.04751 
L 368.189292 -59.046913 
L 369.557551 -59.046415 
L 370.92581 -59.045999 
L 372.294068 -59.045653 
L 373.662327 -59.045364 
L 375.030586 -59.045124 
L 376.398845 -59.044923 
L 377.767104 -59.044756 
L 379.135363 -59.044616 
L 379.135363 -52.447474 
L 379.135363 -52.447474 
L 377.767104 -52.447613 
L 376.398845 -52.447781 
L 375.030586 -52.447981 
L 373.662327 -52.448222 
L 372.294068 -52.448511 
L 370.92581 -52.448857 
L 369.557551 -52.449272 
L 368.189292 -52.44977 
L 366.821033 -52.450367 
L 365.452774 -52.451083 
L 364.084515 -52.451942 
L 362.716256 -52.452971 
L 361.347998 -52.454205 
L 359.979739 -52.455685 
L 358.61148 -52.457458 
L 357.243221 -52.459584 
L 355.874962 -52.462132 
L 354.506703 -52.465184 
L 353.138444 -52.46884 
L 351.770186 -52.47322 
L 350.401927 -52.478464 
L 349.033668 -52.48474 
L 347.665409 -52.49225 
L 346.29715 -52.501231 
L 344.928891 -52.511965 
L 343.560632 -52.524785 
L 342.192373 -52.540084 
L 340.824115 -52.558324 
L 339.455856 -52.580044 
L 338.087597 -52.605872 
L 336.719338 -52.636535 
L 335.351079 -52.672864 
L 333.98282 -52.715808 
L 332.614561 -52.766429 
L 331.246303 -52.825907 
L 329.878044 -52.895525 
L 328.509785 -52.976646 
L 327.141526 -53.07068 
L 325.773267 -53.179026 
L 324.405008 -53.302997 
L 323.036749 -53.44372 
L 321.668491 -53.602024 
L 320.300232 -53.778307 
L 318.931973 -53.972405 
L 317.563714 -54.183478 
L 316.195455 -54.409929 
L 314.827196 -54.649384 
L 313.458937 -54.89874 
L 312.090679 -55.1543 
L 310.72242 -55.411974 
L 309.354161 -55.667535 
L 307.985902 -55.916891 
L 306.617643 -56.156346 
L 305.249384 -56.382797 
L 303.881125 -56.59387 
L 302.512867 -56.787968 
L 301.144608 -56.96425 
L 299.776349 -57.122555 
L 298.40809 -57.263278 
L 297.039831 -57.387248 
L 295.671572 -57.495594 
L 294.303313 -57.589629 
L 292.935055 -57.67075 
L 291.566796 -57.740367 
L 290.198537 -57.799845 
L 288.830278 -57.850467 
L 287.462019 -57.89341 
L 286.09376 -57.92974 
L 284.725501 -57.960402 
L 283.357243 -57.986231 
L 281.988984 -58.007951 
L 280.620725 -58.026191 
L 279.252466 -58.04149 
L 277.884207 -58.05431 
L 276.515948 -58.065044 
L 275.147689 -58.074025 
L 273.779431 -58.081534 
L 272.411172 -58.087811 
L 271.042913 -58.093055 
L 269.674654 -58.097434 
L 268.306395 -58.101091 
L 266.938136 -58.104143 
L 265.569877 -58.106691 
L 264.201618 -58.108816 
L 262.83336 -58.11059 
L 261.465101 -58.112069 
L 260.096842 -58.113303 
L 258.728583 -58.114333 
L 257.360324 -58.115191 
L 255.992065 -58.115907 
L 254.623806 -58.116504 
L 253.255548 -58.117002 
L 251.887289 -58.117418 
L 250.51903 -58.117764 
L 249.150771 -58.118053 
L 247.782512 -58.118293 
L 246.414253 -58.118494 
L 245.045994 -58.118661 
L 243.677736 -58.118801 
z
"/>
    </defs>
    <g clip-path="url(#p034212a579)">
     <use xlink:href="#m4f2461e217" x="0" y="299.52" style="fill: #dbc49a; fill-opacity: 0.05"/>
    </g>
   </g>
   <g id="tf-swoop-YD-YD">
    <defs>
     <path id="m4806dbe343" d="M 243.677736 -39.616227 
L 243.677736 -58.117401 
L 245.045994 -58.116982 
L 246.414253 -58.11648 
L 247.782512 -58.115878 
L 249.150771 -58.115156 
L 250.51903 -58.11429 
L 251.887289 -58.113251 
L 253.255548 -58.112005 
L 254.623806 -58.110512 
L 255.992065 -58.10872 
L 257.360324 -58.106572 
L 258.728583 -58.103997 
L 260.096842 -58.100908 
L 261.465101 -58.097206 
L 262.83336 -58.092767 
L 264.201618 -58.087447 
L 265.569877 -58.08107 
L 266.938136 -58.073428 
L 268.306395 -58.064271 
L 269.674654 -58.053301 
L 271.042913 -58.040162 
L 272.411172 -58.024431 
L 273.779431 -58.005601 
L 275.147689 -57.983072 
L 276.515948 -57.956129 
L 277.884207 -57.923928 
L 279.252466 -57.885468 
L 280.620725 -57.83957 
L 281.988984 -57.784851 
L 283.357243 -57.71969 
L 284.725501 -57.642205 
L 286.09376 -57.550218 
L 287.462019 -57.441229 
L 288.830278 -57.312399 
L 290.198537 -57.160534 
L 291.566796 -56.9821 
L 292.935055 -56.773247 
L 294.303313 -56.529884 
L 295.671572 -56.247781 
L 297.039831 -55.922743 
L 298.40809 -55.550832 
L 299.776349 -55.128662 
L 301.144608 -54.653749 
L 302.512867 -54.124901 
L 303.881125 -53.542607 
L 305.249384 -52.909389 
L 306.617643 -52.230036 
L 307.985902 -51.511671 
L 309.354161 -50.763602 
L 310.72242 -49.996921 
L 312.090679 -49.223899 
L 313.458937 -48.457219 
L 314.827196 -47.709149 
L 316.195455 -46.990784 
L 317.563714 -46.311431 
L 318.931973 -45.678213 
L 320.300232 -45.095919 
L 321.668491 -44.567071 
L 323.036749 -44.092158 
L 324.405008 -43.669988 
L 325.773267 -43.298077 
L 327.141526 -42.973039 
L 328.509785 -42.690937 
L 329.878044 -42.447573 
L 331.246303 -42.23872 
L 332.614561 -42.060286 
L 333.98282 -41.908421 
L 335.351079 -41.779591 
L 336.719338 -41.670602 
L 338.087597 -41.578615 
L 339.455856 -41.50113 
L 340.824115 -41.43597 
L 342.192373 -41.38125 
L 343.560632 -41.335352 
L 344.928891 -41.296892 
L 346.29715 -41.264691 
L 347.665409 -41.237749 
L 349.033668 -41.215219 
L 350.401927 -41.19639 
L 351.770186 -41.180658 
L 353.138444 -41.16752 
L 354.506703 -41.15655 
L 355.874962 -41.147393 
L 357.243221 -41.13975 
L 358.61148 -41.133373 
L 359.979739 -41.128053 
L 361.347998 -41.123614 
L 362.716256 -41.119912 
L 364.084515 -41.116824 
L 365.452774 -41.114248 
L 366.821033 -41.1121 
L 368.189292 -41.110309 
L 369.557551 -41.108815 
L 370.92581 -41.107569 
L 372.294068 -41.10653 
L 373.662327 -41.105664 
L 375.030586 -41.104942 
L 376.398845 -41.10434 
L 377.767104 -41.103838 
L 379.135363 -41.103419 
L 379.135363 -22.602245 
L 379.135363 -22.602245 
L 377.767104 -22.602664 
L 376.398845 -22.603166 
L 375.030586 -22.603768 
L 373.662327 -22.604491 
L 372.294068 -22.605357 
L 370.92581 -22.606395 
L 369.557551 -22.607641 
L 368.189292 -22.609135 
L 366.821033 -22.610926 
L 365.452774 -22.613074 
L 364.084515 -22.61565 
L 362.716256 -22.618738 
L 361.347998 -22.62244 
L 359.979739 -22.626879 
L 358.61148 -22.6322 
L 357.243221 -22.638577 
L 355.874962 -22.646219 
L 354.506703 -22.655376 
L 353.138444 -22.666346 
L 351.770186 -22.679484 
L 350.401927 -22.695216 
L 349.033668 -22.714046 
L 347.665409 -22.736575 
L 346.29715 -22.763517 
L 344.928891 -22.795718 
L 343.560632 -22.834179 
L 342.192373 -22.880076 
L 340.824115 -22.934796 
L 339.455856 -22.999956 
L 338.087597 -23.077441 
L 336.719338 -23.169428 
L 335.351079 -23.278417 
L 333.98282 -23.407248 
L 332.614561 -23.559112 
L 331.246303 -23.737547 
L 329.878044 -23.946399 
L 328.509785 -24.189763 
L 327.141526 -24.471866 
L 325.773267 -24.796904 
L 324.405008 -25.168815 
L 323.036749 -25.590984 
L 321.668491 -26.065897 
L 320.300232 -26.594746 
L 318.931973 -27.177039 
L 317.563714 -27.810257 
L 316.195455 -28.489611 
L 314.827196 -29.207975 
L 313.458937 -29.956045 
L 312.090679 -30.722726 
L 310.72242 -31.495747 
L 309.354161 -32.262428 
L 307.985902 -33.010498 
L 306.617643 -33.728862 
L 305.249384 -34.408215 
L 303.881125 -35.041433 
L 302.512867 -35.623727 
L 301.144608 -36.152576 
L 299.776349 -36.627488 
L 298.40809 -37.049658 
L 297.039831 -37.421569 
L 295.671572 -37.746607 
L 294.303313 -38.02871 
L 292.935055 -38.272074 
L 291.566796 -38.480926 
L 290.198537 -38.659361 
L 288.830278 -38.811225 
L 287.462019 -38.940056 
L 286.09376 -39.049044 
L 284.725501 -39.141032 
L 283.357243 -39.218517 
L 281.988984 -39.283677 
L 280.620725 -39.338396 
L 279.252466 -39.384294 
L 277.884207 -39.422754 
L 276.515948 -39.454956 
L 275.147689 -39.481898 
L 273.779431 -39.504427 
L 272.411172 -39.523257 
L 271.042913 -39.538988 
L 269.674654 -39.552127 
L 268.306395 -39.563097 
L 266.938136 -39.572254 
L 265.569877 -39.579896 
L 264.201618 -39.586273 
L 262.83336 -39.591594 
L 261.465101 -39.596032 
L 260.096842 -39.599735 
L 258.728583 -39.602823 
L 257.360324 -39.605398 
L 255.992065 -39.607546 
L 254.623806 -39.609338 
L 253.255548 -39.610832 
L 251.887289 -39.612077 
L 250.51903 -39.613116 
L 249.150771 -39.613982 
L 247.782512 -39.614704 
L 246.414253 -39.615307 
L 245.045994 -39.615809 
L 243.677736 -39.616227 
z
"/>
    </defs>
    <g clip-path="url(#p034212a579)">
     <use xlink:href="#m4806dbe343" x="0" y="299.52" style="fill: #b78935; fill-opacity: 0.05"/>
    </g>
   </g>
   <g id="tf-swoop-ND-YD">
    <defs>
     <path id="mb7c35e0b3a" d="M 243.677736 -83.515299 
L 243.677736 -76.062798 
L 245.045994 -76.062937 
L 246.414253 -76.063105 
L 247.782512 -76.063306 
L 249.150771 -76.063546 
L 250.51903 -76.063835 
L 251.887289 -76.064181 
L 253.255548 -76.064596 
L 254.623806 -76.065094 
L 255.992065 -76.065692 
L 257.360324 -76.066408 
L 258.728583 -76.067266 
L 260.096842 -76.068295 
L 261.465101 -76.06953 
L 262.83336 -76.071009 
L 264.201618 -76.072783 
L 265.569877 -76.074908 
L 266.938136 -76.077456 
L 268.306395 -76.080508 
L 269.674654 -76.084165 
L 271.042913 -76.088544 
L 272.411172 -76.093788 
L 273.779431 -76.100065 
L 275.147689 -76.107574 
L 276.515948 -76.116555 
L 277.884207 -76.127289 
L 279.252466 -76.140109 
L 280.620725 -76.155408 
L 281.988984 -76.173648 
L 283.357243 -76.195368 
L 284.725501 -76.221196 
L 286.09376 -76.251859 
L 287.462019 -76.288188 
L 288.830278 -76.331132 
L 290.198537 -76.381753 
L 291.566796 -76.441232 
L 292.935055 -76.510849 
L 294.303313 -76.59197 
L 295.671572 -76.686005 
L 297.039831 -76.794351 
L 298.40809 -76.918321 
L 299.776349 -77.059044 
L 301.144608 -77.217348 
L 302.512867 -77.393631 
L 303.881125 -77.587729 
L 305.249384 -77.798802 
L 306.617643 -78.025253 
L 307.985902 -78.264708 
L 309.354161 -78.514064 
L 310.72242 -78.769625 
L 312.090679 -79.027298 
L 313.458937 -79.282859 
L 314.827196 -79.532215 
L 316.195455 -79.77167 
L 317.563714 -79.998121 
L 318.931973 -80.209194 
L 320.300232 -80.403292 
L 321.668491 -80.579575 
L 323.036749 -80.737879 
L 324.405008 -80.878602 
L 325.773267 -81.002572 
L 327.141526 -81.110918 
L 328.509785 -81.204953 
L 329.878044 -81.286074 
L 331.246303 -81.355691 
L 332.614561 -81.41517 
L 333.98282 -81.465791 
L 335.351079 -81.508735 
L 336.719338 -81.545064 
L 338.087597 -81.575727 
L 339.455856 -81.601555 
L 340.824115 -81.623275 
L 342.192373 -81.641515 
L 343.560632 -81.656814 
L 344.928891 -81.669634 
L 346.29715 -81.680368 
L 347.665409 -81.689349 
L 349.033668 -81.696858 
L 350.401927 -81.703135 
L 351.770186 -81.708379 
L 353.138444 -81.712758 
L 354.506703 -81.716415 
L 355.874962 -81.719467 
L 357.243221 -81.722015 
L 358.61148 -81.72414 
L 359.979739 -81.725914 
L 361.347998 -81.727394 
L 362.716256 -81.728628 
L 364.084515 -81.729657 
L 365.452774 -81.730516 
L 366.821033 -81.731232 
L 368.189292 -81.731829 
L 369.557551 -81.732327 
L 370.92581 -81.732742 
L 372.294068 -81.733088 
L 373.662327 -81.733377 
L 375.030586 -81.733618 
L 376.398845 -81.733818 
L 377.767104 -81.733986 
L 379.135363 -81.734125 
L 379.135363 -89.186626 
L 379.135363 -89.186626 
L 377.767104 -89.186487 
L 376.398845 -89.186319 
L 375.030586 -89.186118 
L 373.662327 -89.185878 
L 372.294068 -89.185589 
L 370.92581 -89.185243 
L 369.557551 -89.184828 
L 368.189292 -89.18433 
L 366.821033 -89.183732 
L 365.452774 -89.183016 
L 364.084515 -89.182158 
L 362.716256 -89.181129 
L 361.347998 -89.179894 
L 359.979739 -89.178415 
L 358.61148 -89.176641 
L 357.243221 -89.174516 
L 355.874962 -89.171968 
L 354.506703 -89.168916 
L 353.138444 -89.165259 
L 351.770186 -89.16088 
L 350.401927 -89.155636 
L 349.033668 -89.149359 
L 347.665409 -89.14185 
L 346.29715 -89.132869 
L 344.928891 -89.122135 
L 343.560632 -89.109315 
L 342.192373 -89.094016 
L 340.824115 -89.075776 
L 339.455856 -89.054056 
L 338.087597 -89.028228 
L 336.719338 -88.997565 
L 335.351079 -88.961236 
L 333.98282 -88.918292 
L 332.614561 -88.867671 
L 331.246303 -88.808192 
L 329.878044 -88.738575 
L 328.509785 -88.657454 
L 327.141526 -88.563419 
L 325.773267 -88.455073 
L 324.405008 -88.331103 
L 323.036749 -88.19038 
L 321.668491 -88.032076 
L 320.300232 -87.855793 
L 318.931973 -87.661695 
L 317.563714 -87.450622 
L 316.195455 -87.224171 
L 314.827196 -86.984716 
L 313.458937 -86.73536 
L 312.090679 -86.479799 
L 310.72242 -86.222126 
L 309.354161 -85.966565 
L 307.985902 -85.717209 
L 306.617643 -85.477754 
L 305.249384 -85.251303 
L 303.881125 -85.04023 
L 302.512867 -84.846132 
L 301.144608 -84.669849 
L 299.776349 -84.511545 
L 298.40809 -84.370822 
L 297.039831 -84.246852 
L 295.671572 -84.138506 
L 294.303313 -84.044471 
L 292.935055 -83.96335 
L 291.566796 -83.893733 
L 290.198537 -83.834254 
L 288.830278 -83.783633 
L 287.462019 -83.740689 
L 286.09376 -83.70436 
L 284.725501 -83.673697 
L 283.357243 -83.647869 
L 281.988984 -83.626149 
L 280.620725 -83.607909 
L 279.252466 -83.59261 
L 277.884207 -83.57979 
L 276.515948 -83.569056 
L 275.147689 -83.560075 
L 273.779431 -83.552566 
L 272.411172 -83.546289 
L 271.042913 -83.541045 
L 269.674654 -83.536666 
L 268.306395 -83.533009 
L 266.938136 -83.529957 
L 265.569877 -83.527409 
L 264.201618 -83.525283 
L 262.83336 -83.52351 
L 261.465101 -83.52203 
L 260.096842 -83.520796 
L 258.728583 -83.519767 
L 257.360324 -83.518908 
L 255.992065 -83.518192 
L 254.623806 -83.517595 
L 253.255548 -83.517097 
L 251.887289 -83.516682 
L 250.51903 -83.516336 
L 249.150771 -83.516047 
L 247.782512 -83.515806 
L 246.414253 -83.515606 
L 245.045994 -83.515438 
L 243.677736 -83.515299 
z
"/>
    </defs>
    <g clip-path="url(#p034212a579)">
     <use xlink:href="#mb7c35e0b3a" x="0" y="299.52" style="fill: #9fb4c8; fill-opacity: 0.05"/>
    </g>
   </g>
   <g id="tf-swoop-ND-ND">
    <defs>
     <path id="m4cc3e19b74" d="M 243.677736 -277.874973 
L 243.677736 -83.516699 
L 245.045994 -83.517117 
L 246.414253 -83.51762 
L 247.782512 -83.518222 
L 249.150771 -83.518944 
L 250.51903 -83.51981 
L 251.887289 -83.520849 
L 253.255548 -83.522094 
L 254.623806 -83.523588 
L 255.992065 -83.52538 
L 257.360324 -83.527528 
L 258.728583 -83.530103 
L 260.096842 -83.533191 
L 261.465101 -83.536894 
L 262.83336 -83.541332 
L 264.201618 -83.546653 
L 265.569877 -83.55303 
L 266.938136 -83.560672 
L 268.306395 -83.569829 
L 269.674654 -83.580799 
L 271.042913 -83.593938 
L 272.411172 -83.609669 
L 273.779431 -83.628499 
L 275.147689 -83.651028 
L 276.515948 -83.67797 
L 277.884207 -83.710172 
L 279.252466 -83.748632 
L 280.620725 -83.79453 
L 281.988984 -83.849249 
L 283.357243 -83.91441 
L 284.725501 -83.991894 
L 286.09376 -84.083882 
L 287.462019 -84.19287 
L 288.830278 -84.321701 
L 290.198537 -84.473565 
L 291.566796 -84.652 
L 292.935055 -84.860852 
L 294.303313 -85.104216 
L 295.671572 -85.386319 
L 297.039831 -85.711357 
L 298.40809 -86.083268 
L 299.776349 -86.505438 
L 301.144608 -86.98035 
L 302.512867 -87.509199 
L 303.881125 -88.091493 
L 305.249384 -88.724711 
L 306.617643 -89.404064 
L 307.985902 -90.122428 
L 309.354161 -90.870498 
L 310.72242 -91.637179 
L 312.090679 -92.4102 
L 313.458937 -93.176881 
L 314.827196 -93.924951 
L 316.195455 -94.643315 
L 317.563714 -95.322669 
L 318.931973 -95.955887 
L 320.300232 -96.53818 
L 321.668491 -97.067029 
L 323.036749 -97.541942 
L 324.405008 -97.964111 
L 325.773267 -98.336022 
L 327.141526 -98.66106 
L 328.509785 -98.943163 
L 329.878044 -99.186527 
L 331.246303 -99.395379 
L 332.614561 -99.573814 
L 333.98282 -99.725678 
L 335.351079 -99.854509 
L 336.719338 -99.963498 
L 338.087597 -100.055485 
L 339.455856 -100.13297 
L 340.824115 -100.19813 
L 342.192373 -100.25285 
L 343.560632 -100.298747 
L 344.928891 -100.337208 
L 346.29715 -100.369409 
L 347.665409 -100.396351 
L 349.033668 -100.41888 
L 350.401927 -100.43771 
L 351.770186 -100.453442 
L 353.138444 -100.46658 
L 354.506703 -100.47755 
L 355.874962 -100.486707 
L 357.243221 -100.494349 
L 358.61148 -100.500727 
L 359.979739 -100.506047 
L 361.347998 -100.510486 
L 362.716256 -100.514188 
L 364.084515 -100.517276 
L 365.452774 -100.519852 
L 366.821033 -100.522 
L 368.189292 -100.523791 
L 369.557551 -100.525285 
L 370.92581 -100.526531 
L 372.294068 -100.527569 
L 373.662327 -100.528435 
L 375.030586 -100.529158 
L 376.398845 -100.52976 
L 377.767104 -100.530262 
L 379.135363 -100.530681 
L 379.135363 -294.888955 
L 379.135363 -294.888955 
L 377.767104 -294.888536 
L 376.398845 -294.888034 
L 375.030586 -294.887432 
L 373.662327 -294.886709 
L 372.294068 -294.885843 
L 370.92581 -294.884805 
L 369.557551 -294.883559 
L 368.189292 -294.882065 
L 366.821033 -294.880274 
L 365.452774 -294.878126 
L 364.084515 -294.87555 
L 362.716256 -294.872462 
L 361.347998 -294.86876 
L 359.979739 -294.864321 
L 358.61148 -294.859 
L 357.243221 -294.852623 
L 355.874962 -294.844981 
L 354.506703 -294.835824 
L 353.138444 -294.824854 
L 351.770186 -294.811716 
L 350.401927 -294.795984 
L 349.033668 -294.777154 
L 347.665409 -294.754625 
L 346.29715 -294.727683 
L 344.928891 -294.695482 
L 343.560632 -294.657021 
L 342.192373 -294.611124 
L 340.824115 -294.556404 
L 339.455856 -294.491244 
L 338.087597 -294.413759 
L 336.719338 -294.321772 
L 335.351079 -294.212783 
L 333.98282 -294.083952 
L 332.614561 -293.932088 
L 331.246303 -293.753653 
L 329.878044 -293.544801 
L 328.509785 -293.301437 
L 327.141526 -293.019334 
L 325.773267 -292.694296 
L 324.405008 -292.322385 
L 323.036749 -291.900216 
L 321.668491 -291.425303 
L 320.300232 -290.896454 
L 318.931973 -290.314161 
L 317.563714 -289.680943 
L 316.195455 -289.001589 
L 314.827196 -288.283225 
L 313.458937 -287.535155 
L 312.090679 -286.768474 
L 310.72242 -285.995453 
L 309.354161 -285.228772 
L 307.985902 -284.480702 
L 306.617643 -283.762338 
L 305.249384 -283.082985 
L 303.881125 -282.449767 
L 302.512867 -281.867473 
L 301.144608 -281.338624 
L 299.776349 -280.863712 
L 298.40809 -280.441542 
L 297.039831 -280.069631 
L 295.671572 -279.744593 
L 294.303313 -279.46249 
L 292.935055 -279.219126 
L 291.566796 -279.010274 
L 290.198537 -278.831839 
L 288.830278 -278.679975 
L 287.462019 -278.551144 
L 286.09376 -278.442156 
L 284.725501 -278.350168 
L 283.357243 -278.272683 
L 281.988984 -278.207523 
L 280.620725 -278.152804 
L 279.252466 -278.106906 
L 277.884207 -278.068446 
L 276.515948 -278.036244 
L 275.147689 -278.009302 
L 273.779431 -277.986773 
L 272.411172 -277.967943 
L 271.042913 -277.952212 
L 269.674654 -277.939073 
L 268.306395 -277.928103 
L 266.938136 -277.918946 
L 265.569877 -277.911304 
L 264.201618 -277.904927 
L 262.83336 -277.899606 
L 261.465101 -277.895168 
L 260.096842 -277.891465 
L 258.728583 -277.888377 
L 257.360324 -277.885802 
L 255.992065 -277.883654 
L 254.623806 -277.881862 
L 253.255548 -277.880368 
L 251.887289 -277.879123 
L 250.51903 -277.878084 
L 249.150771 -277.877218 
L 247.782512 -277.876496 
L 246.414253 -277.875893 
L 245.045994 -277.875391 
L 243.677736 -277.874973 
z
"/>
    </defs>
    <g clip-path="url(#p034212a579)">
     <use xlink:href="#m4cc3e19b74" x="0" y="299.52" style="fill: #406992; fill-opacity: 0.05"/>
    </g>
   </g>
   <g id="tf-bar-YD-YD">
    <defs>
     <path id="m930574dc46" d="M 379.135363 -22.600145 
L 379.135363 -41.101319 
L 394.18621 -41.101319 
L 394.18621 -22.600145 
L 394.18621 -22.600145 
L 379.135363 -22.600145 
z
"/>
    </defs>
    <g clip-path="url(#p034212a579)">
     <use xlink:href="#m930574dc46" x="0" y="299.52" style="fill: #b78935; fill-opacity: 0.25"/>
    </g>
   </g>
   <g id="tf-bar-YD-ND">
    <defs>
     <path id="ma78ff15769" d="M 379.135363 -52.446774 
L 379.135363 -59.043916 
L 394.18621 -59.043916 
L 394.18621 -52.446774 
L 394.18621 -52.446774 
L 379.135363 -52.446774 
z
"/>
    </defs>
    <g clip-path="url(#p034212a579)">
     <use xlink:href="#ma78ff15769" x="0" y="299.52" style="fill: #dbc49a; fill-opacity: 0.25"/>
    </g>
   </g>
   <g id="tf-bar-ND-YD">
    <defs>
     <path id="m97eb04ddcf" d="M 379.135363 -81.734825 
L 379.135363 -89.187326 
L 394.18621 -89.187326 
L 394.18621 -81.734825 
L 394.18621 -81.734825 
L 379.135363 -81.734825 
z
"/>
    </defs>
    <g clip-path="url(#p034212a579)">
     <use xlink:href="#m97eb04ddcf" x="0" y="299.52" style="fill: #9fb4c8; fill-opacity: 0.25"/>
    </g>
   </g>
   <g id="tf-bar-ND-ND">
    <defs>
     <path id="mced520f788" d="M 379.135363 -100.532781 
L 379.135363 -294.891055 
L 394.18621 -294.891055 
L 394.18621 -100.532781 
L 394.18621 -100.532781 
L 379.135363 -100.532781 
z
"/>
    </defs>
    <g clip-path="url(#p034212a579)">
     <use xlink:href="#mced520f788" x="0" y="299.52" style="fill: #406992; fill-opacity: 0.25"/>
    </g>
   </g>
   <g id="text_1">
    <text style="font-weight: 300; font-size: 16px; font-family: 'Source Sans 3', sans-serif; fill: #494949" transform="translate(10.33799 136.06665)">All model</text>
    <text style="font-weight: 300; font-size: 16px; font-family: 'Source Sans 3', sans-serif; fill: #494949" transform="translate(-1.62951 153.48215)">predictions</text>
   </g>
   <g id="tf-label-YD">
    <text style="font-weight: 300; font-size: 16px; font-family: 'Source Sans 3', sans-serif; fill: #494949; opacity: 0" transform="translate(106.611464 225.017515)">Severe or extreme</text>
    <text style="font-weight: 300; font-size: 16px; font-family: 'Source Sans 3', sans-serif; fill: #494949; opacity: 0" transform="translate(100.076464 242.664015)">streamflow dought</text>
    <text style="font-weight: 300; font-size: 16px; font-family: 'Source Sans 3', sans-serif; fill: #494949; opacity: 0" transform="translate(159.471464 260.272015)">predicted</text>
    <text style="font-weight: 300; font-size: 16px; font-family: 'Source Sans 3', sans-serif; fill: #494949; opacity: 0" transform="translate(182.348964 277.687515)">11.1%</text>
   </g>
   <g id="tf-label-ND">
    <text style="font-weight: 300; font-size: 16px; font-family: 'Source Sans 3', sans-serif; fill: #494949; opacity: 0" transform="translate(104.848964 100.333015)">Neither severe nor</text>
    <text style="font-weight: 300; font-size: 16px; font-family: 'Source Sans 3', sans-serif; fill: #494949; opacity: 0" transform="translate(94.641464 117.748515)">extreme streamflow</text>
    <text style="font-weight: 300; font-size: 16px; font-family: 'Source Sans 3', sans-serif; fill: #494949; opacity: 0" transform="translate(109.868964 135.164015)">dought predicted</text>
    <text style="font-weight: 300; font-size: 16px; font-family: 'Source Sans 3', sans-serif; fill: #494949; opacity: 0" transform="translate(182.348964 152.772015)">88.9%</text>
   </g>
   <g id="tf-label-YD-YD">
    <text style="font-weight: 300; font-size: 16px; font-family: 'Source Sans 3', sans-serif; fill: #494949; opacity: 0" transform="translate(310.554939 254.177268)">Did occur</text>
    <text style="font-weight: 300; font-size: 16px; font-family: 'Source Sans 3', sans-serif; fill: #494949; opacity: 0" transform="translate(284.119939 271.745768)">(true positive)</text>
    <text style="font-weight: 300; font-size: 16px; font-family: 'Source Sans 3', sans-serif; fill: #494949; opacity: 0" transform="translate(340.409939 289.161268)">8.2%</text>
   </g>
   <g id="tf-label-YD-ND">
    <text style="font-weight: 300; font-size: 16px; font-family: 'Source Sans 3', sans-serif; fill: #494949; opacity: 0" transform="translate(285.594939 230.243655)">Did not occur</text>
    <text style="font-weight: 300; font-size: 16px; font-family: 'Source Sans 3', sans-serif; fill: #494949; opacity: 0" transform="translate(280.344939 247.890155)">(false positive)</text>
    <text style="font-weight: 300; font-size: 16px; font-family: 'Source Sans 3', sans-serif; fill: #494949; opacity: 0" transform="translate(340.409939 265.305655)">2.9%</text>
   </g>
   <g id="tf-label-ND-YD">
    <text style="font-weight: 300; font-size: 16px; font-family: 'Source Sans 3', sans-serif; fill: #494949; opacity: 0" transform="translate(257.119939 182.804424)">Severe or extreme</text>
    <text style="font-weight: 300; font-size: 16px; font-family: 'Source Sans 3', sans-serif; fill: #494949; opacity: 0" transform="translate(245.689939 200.450924)">streamflow drought</text>
    <text style="font-weight: 300; font-size: 16px; font-family: 'Source Sans 3', sans-serif; fill: #494949; opacity: 0" transform="translate(314.364939 218.058924)">occurred</text>
    <text style="font-weight: 300; font-size: 16px; font-family: 'Source Sans 3', sans-serif; fill: #494949; opacity: 0" transform="translate(275.932439 235.705424)">(false negative)</text>
    <text style="font-weight: 300; font-size: 16px; font-family: 'Source Sans 3', sans-serif; fill: #494949; opacity: 0" transform="translate(340.409939 253.313424)">3.3%</text>
   </g>
   <g id="tf-label-ND-ND">
    <text style="font-weight: 300; font-size: 16px; font-family: 'Source Sans 3', sans-serif; fill: #494949; opacity: 0" transform="translate(255.357439 70.708082)">Neither severe nor</text>
    <text style="font-weight: 300; font-size: 16px; font-family: 'Source Sans 3', sans-serif; fill: #494949; opacity: 0" transform="translate(245.149939 88.123582)">extreme streamflow</text>
    <text style="font-weight: 300; font-size: 16px; font-family: 'Source Sans 3', sans-serif; fill: #494949; opacity: 0" transform="translate(264.762439 105.539082)">dought occurred</text>
    <text style="font-weight: 300; font-size: 16px; font-family: 'Source Sans 3', sans-serif; fill: #494949; opacity: 0" transform="translate(279.707439 123.300082)">(true negative)</text>
    <text style="font-weight: 300; font-size: 16px; font-family: 'Source Sans 3', sans-serif; fill: #494949; opacity: 0" transform="translate(332.857439 140.908082)">85.7%</text>
   </g>
  </g>
 </g>
 <defs>
  <clipPath id="p034212a579">
   <rect x="10.3896" y="-8.9856" width="399.6" height="299.52"/>
  </clipPath>
 </defs>
</svg>
