<?xml version="1.0" encoding="utf-8" standalone="no"?>
<!DOCTYPE svg PUBLIC "-//W3C//DTD SVG 1.1//EN"
  "http://www.w3.org/Graphics/SVG/1.1/DTD/svg11.dtd">
<svg xmlns:xlink="http://www.w3.org/1999/xlink" width="399.6px" height="299.52px" viewBox="0 0 399.6 299.52" xmlns="http://www.w3.org/2000/svg" version="1.1">
  <defs>
  <style type="text/css">*{stroke-linejoin: round; stroke-linecap: butt}</style>
 </defs>
 <g id="figure-forecast_truefalse_key">
  <g id="patch_1">
   <path d="M 0 299.52 
L 399.6 299.52 
L 399.6 0 
L 0 0 
z
" style="fill: #ffffff"/>
  </g>
  <g id="axis-forecast_truefalse_key">
   <g id="FillBetweenPolyCollection_1">
    <defs>
     <path id="m5ecb3a129f" d="M 67.728814 -36.305455 
L 67.728814 -263.214545 
L 82.779661 -263.214545 
L 82.779661 -36.305455 
L 82.779661 -36.305455 
L 67.728814 -36.305455 
z
"/>
    </defs>
    <g clip-path="url(#pa4edab53d7)">
     <use xlink:href="#m5ecb3a129f" x="0" y="299.52" style="fill: #00264c"/>
    </g>
   </g>
   <g id="tf-swoop-ND">
    <defs>
     <path id="md517591d22" d="M 82.779661 -263.215245 
L 82.779661 -61.404471 
L 84.14792 -61.40461 
L 85.516179 -61.404778 
L 86.884438 -61.404978 
L 88.252696 -61.405219 
L 89.620955 -61.405508 
L 90.989214 -61.405854 
L 92.357473 -61.406269 
L 93.725732 -61.406767 
L 95.093991 -61.407364 
L 96.46225 -61.40808 
L 97.830508 -61.408939 
L 99.198767 -61.409968 
L 100.567026 -61.411202 
L 101.935285 -61.412682 
L 103.303544 -61.414455 
L 104.671803 -61.416581 
L 106.040062 -61.419128 
L 107.40832 -61.422181 
L 108.776579 -61.425837 
L 110.144838 -61.430217 
L 111.513097 -61.435461 
L 112.881356 -61.441737 
L 114.249615 -61.449247 
L 115.617874 -61.458228 
L 116.986133 -61.468962 
L 118.354391 -61.481782 
L 119.72265 -61.497081 
L 121.090909 -61.515321 
L 122.459168 -61.537041 
L 123.827427 -61.562869 
L 125.195686 -61.593532 
L 126.563945 -61.629861 
L 127.932203 -61.672805 
L 129.300462 -61.723426 
L 130.668721 -61.782904 
L 132.03698 -61.852522 
L 133.405239 -61.933643 
L 134.773498 -62.027677 
L 136.141757 -62.136023 
L 137.510015 -62.259994 
L 138.878274 -62.400717 
L 140.246533 -62.559021 
L 141.614792 -62.735304 
L 142.983051 -62.929402 
L 144.35131 -63.140475 
L 145.719569 -63.366926 
L 147.087827 -63.606381 
L 148.456086 -63.855737 
L 149.824345 -64.111297 
L 151.192604 -64.368971 
L 152.560863 -64.624531 
L 153.929122 -64.873888 
L 155.297381 -65.113343 
L 156.665639 -65.339794 
L 158.033898 -65.550867 
L 159.402157 -65.744965 
L 160.770416 -65.921247 
L 162.138675 -66.079552 
L 163.506934 -66.220275 
L 164.875193 -66.344245 
L 166.243451 -66.452591 
L 167.61171 -66.546625 
L 168.979969 -66.627747 
L 170.348228 -66.697364 
L 171.716487 -66.756842 
L 173.084746 -66.807464 
L 174.453005 -66.850407 
L 175.821263 -66.886737 
L 177.189522 -66.917399 
L 178.557781 -66.943228 
L 179.92604 -66.964948 
L 181.294299 -66.983188 
L 182.662558 -66.998487 
L 184.030817 -67.011307 
L 185.399076 -67.022041 
L 186.767334 -67.031021 
L 188.135593 -67.038531 
L 189.503852 -67.044808 
L 190.872111 -67.050052 
L 192.24037 -67.054431 
L 193.608629 -67.058088 
L 194.976888 -67.06114 
L 196.345146 -67.063688 
L 197.713405 -67.065813 
L 199.081664 -67.067587 
L 200.449923 -67.069066 
L 201.818182 -67.0703 
L 203.186441 -67.07133 
L 204.5547 -67.072188 
L 205.922958 -67.072904 
L 207.291217 -67.073501 
L 208.659476 -67.073999 
L 210.027735 -67.074415 
L 211.395994 -67.074761 
L 212.764253 -67.07505 
L 214.132512 -67.07529 
L 215.50077 -67.075491 
L 216.869029 -67.075658 
L 218.237288 -67.075798 
L 218.237288 -268.886573 
L 218.237288 -268.886573 
L 216.869029 -268.886433 
L 215.50077 -268.886266 
L 214.132512 -268.886065 
L 212.764253 -268.885824 
L 211.395994 -268.885536 
L 210.027735 -268.885189 
L 208.659476 -268.884774 
L 207.291217 -268.884276 
L 205.922958 -268.883679 
L 204.5547 -268.882963 
L 203.186441 -268.882105 
L 201.818182 -268.881075 
L 200.449923 -268.879841 
L 199.081664 -268.878362 
L 197.713405 -268.876588 
L 196.345146 -268.874462 
L 194.976888 -268.871915 
L 193.608629 -268.868863 
L 192.24037 -268.865206 
L 190.872111 -268.860826 
L 189.503852 -268.855583 
L 188.135593 -268.849306 
L 186.767334 -268.841796 
L 185.399076 -268.832816 
L 184.030817 -268.822082 
L 182.662558 -268.809262 
L 181.294299 -268.793962 
L 179.92604 -268.775723 
L 178.557781 -268.754002 
L 177.189522 -268.728174 
L 175.821263 -268.697512 
L 174.453005 -268.661182 
L 173.084746 -268.618239 
L 171.716487 -268.567617 
L 170.348228 -268.508139 
L 168.979969 -268.438522 
L 167.61171 -268.3574 
L 166.243451 -268.263366 
L 164.875193 -268.15502 
L 163.506934 -268.03105 
L 162.138675 -267.890326 
L 160.770416 -267.732022 
L 159.402157 -267.555739 
L 158.033898 -267.361641 
L 156.665639 -267.150569 
L 155.297381 -266.924118 
L 153.929122 -266.684663 
L 152.560863 -266.435306 
L 151.192604 -266.179746 
L 149.824345 -265.922072 
L 148.456086 -265.666512 
L 147.087827 -265.417155 
L 145.719569 -265.177701 
L 144.35131 -264.951249 
L 142.983051 -264.740177 
L 141.614792 -264.546079 
L 140.246533 -264.369796 
L 138.878274 -264.211492 
L 137.510015 -264.070769 
L 136.141757 -263.946798 
L 134.773498 -263.838452 
L 133.405239 -263.744418 
L 132.03698 -263.663297 
L 130.668721 -263.593679 
L 129.300462 -263.534201 
L 127.932203 -263.483579 
L 126.563945 -263.440636 
L 125.195686 -263.404306 
L 123.827427 -263.373644 
L 122.459168 -263.347816 
L 121.090909 -263.326096 
L 119.72265 -263.307856 
L 118.354391 -263.292557 
L 116.986133 -263.279736 
L 115.617874 -263.269003 
L 114.249615 -263.260022 
L 112.881356 -263.252512 
L 111.513097 -263.246236 
L 110.144838 -263.240992 
L 108.776579 -263.236612 
L 107.40832 -263.232956 
L 106.040062 -263.229903 
L 104.671803 -263.227356 
L 103.303544 -263.22523 
L 101.935285 -263.223457 
L 100.567026 -263.221977 
L 99.198767 -263.220743 
L 97.830508 -263.219714 
L 96.46225 -263.218855 
L 95.093991 -263.218139 
L 93.725732 -263.217542 
L 92.357473 -263.217044 
L 90.989214 -263.216629 
L 89.620955 -263.216283 
L 88.252696 -263.215994 
L 86.884438 -263.215753 
L 85.516179 -263.215552 
L 84.14792 -263.215385 
L 82.779661 -263.215245 
z
"/>
    </defs>
    <g clip-path="url(#pa4edab53d7)">
     <use xlink:href="#md517591d22" x="0" y="299.52" style="fill: #406992; fill-opacity: 0.05"/>
    </g>
   </g>
   <g id="tf-swoop-YD">
    <defs>
     <path id="m3ed88a0146" d="M 82.779661 -36.304755 
L 82.779661 -61.403071 
L 84.14792 -61.402931 
L 85.516179 -61.402764 
L 86.884438 -61.402563 
L 88.252696 -61.402322 
L 89.620955 -61.402034 
L 90.989214 -61.401687 
L 92.357473 -61.401272 
L 93.725732 -61.400774 
L 95.093991 -61.400177 
L 96.46225 -61.399461 
L 97.830508 -61.398603 
L 99.198767 -61.397573 
L 100.567026 -61.396339 
L 101.935285 -61.394859 
L 103.303544 -61.393086 
L 104.671803 -61.39096 
L 106.040062 -61.388413 
L 107.40832 -61.385361 
L 108.776579 -61.381704 
L 110.144838 -61.377324 
L 111.513097 -61.372081 
L 112.881356 -61.365804 
L 114.249615 -61.358294 
L 115.617874 -61.349313 
L 116.986133 -61.33858 
L 118.354391 -61.32576 
L 119.72265 -61.31046 
L 121.090909 -61.292221 
L 122.459168 -61.2705 
L 123.827427 -61.244672 
L 125.195686 -61.21401 
L 126.563945 -61.17768 
L 127.932203 -61.134737 
L 129.300462 -61.084115 
L 130.668721 -61.024637 
L 132.03698 -60.955019 
L 133.405239 -60.873898 
L 134.773498 -60.779864 
L 136.141757 -60.671518 
L 137.510015 -60.547548 
L 138.878274 -60.406824 
L 140.246533 -60.24852 
L 141.614792 -60.072237 
L 142.983051 -59.878139 
L 144.35131 -59.667067 
L 145.719569 -59.440616 
L 147.087827 -59.201161 
L 148.456086 -58.951804 
L 149.824345 -58.696244 
L 151.192604 -58.43857 
L 152.560863 -58.18301 
L 153.929122 -57.933653 
L 155.297381 -57.694198 
L 156.665639 -57.467747 
L 158.033898 -57.256675 
L 159.402157 -57.062577 
L 160.770416 -56.886294 
L 162.138675 -56.72799 
L 163.506934 -56.587266 
L 164.875193 -56.463296 
L 166.243451 -56.35495 
L 167.61171 -56.260916 
L 168.979969 -56.179795 
L 170.348228 -56.110177 
L 171.716487 -56.050699 
L 173.084746 -56.000077 
L 174.453005 -55.957134 
L 175.821263 -55.920804 
L 177.189522 -55.890142 
L 178.557781 -55.864314 
L 179.92604 -55.842594 
L 181.294299 -55.824354 
L 182.662558 -55.809054 
L 184.030817 -55.796234 
L 185.399076 -55.785501 
L 186.767334 -55.77652 
L 188.135593 -55.76901 
L 189.503852 -55.762734 
L 190.872111 -55.75749 
L 192.24037 -55.75311 
L 193.608629 -55.749454 
L 194.976888 -55.746401 
L 196.345146 -55.743854 
L 197.713405 -55.741728 
L 199.081664 -55.739955 
L 200.449923 -55.738475 
L 201.818182 -55.737241 
L 203.186441 -55.736212 
L 204.5547 -55.735353 
L 205.922958 -55.734637 
L 207.291217 -55.73404 
L 208.659476 -55.733542 
L 210.027735 -55.733127 
L 211.395994 -55.73278 
L 212.764253 -55.732492 
L 214.132512 -55.732251 
L 215.50077 -55.73205 
L 216.869029 -55.731883 
L 218.237288 -55.731743 
L 218.237288 -30.633427 
L 218.237288 -30.633427 
L 216.869029 -30.633567 
L 215.50077 -30.633734 
L 214.132512 -30.633935 
L 212.764253 -30.634176 
L 211.395994 -30.634464 
L 210.027735 -30.634811 
L 208.659476 -30.635226 
L 207.291217 -30.635724 
L 205.922958 -30.636321 
L 204.5547 -30.637037 
L 203.186441 -30.637895 
L 201.818182 -30.638925 
L 200.449923 -30.640159 
L 199.081664 -30.641638 
L 197.713405 -30.643412 
L 196.345146 -30.645538 
L 194.976888 -30.648085 
L 193.608629 -30.651137 
L 192.24037 -30.654794 
L 190.872111 -30.659174 
L 189.503852 -30.664417 
L 188.135593 -30.670694 
L 186.767334 -30.678204 
L 185.399076 -30.687184 
L 184.030817 -30.697918 
L 182.662558 -30.710738 
L 181.294299 -30.726038 
L 179.92604 -30.744277 
L 178.557781 -30.765998 
L 177.189522 -30.791826 
L 175.821263 -30.822488 
L 174.453005 -30.858818 
L 173.084746 -30.901761 
L 171.716487 -30.952383 
L 170.348228 -31.011861 
L 168.979969 -31.081478 
L 167.61171 -31.1626 
L 166.243451 -31.256634 
L 164.875193 -31.36498 
L 163.506934 -31.48895 
L 162.138675 -31.629674 
L 160.770416 -31.787978 
L 159.402157 -31.964261 
L 158.033898 -32.158359 
L 156.665639 -32.369431 
L 155.297381 -32.595882 
L 153.929122 -32.835337 
L 152.560863 -33.084694 
L 151.192604 -33.340254 
L 149.824345 -33.597928 
L 148.456086 -33.853488 
L 147.087827 -34.102845 
L 145.719569 -34.342299 
L 144.35131 -34.568751 
L 142.983051 -34.779823 
L 141.614792 -34.973921 
L 140.246533 -35.150204 
L 138.878274 -35.308508 
L 137.510015 -35.449231 
L 136.141757 -35.573202 
L 134.773498 -35.681548 
L 133.405239 -35.775582 
L 132.03698 -35.856703 
L 130.668721 -35.926321 
L 129.300462 -35.985799 
L 127.932203 -36.036421 
L 126.563945 -36.079364 
L 125.195686 -36.115694 
L 123.827427 -36.146356 
L 122.459168 -36.172184 
L 121.090909 -36.193904 
L 119.72265 -36.212144 
L 118.354391 -36.227443 
L 116.986133 -36.240264 
L 115.617874 -36.250997 
L 114.249615 -36.259978 
L 112.881356 -36.267488 
L 111.513097 -36.273764 
L 110.144838 -36.279008 
L 108.776579 -36.283388 
L 107.40832 -36.287044 
L 106.040062 -36.290097 
L 104.671803 -36.292644 
L 103.303544 -36.29477 
L 101.935285 -36.296543 
L 100.567026 -36.298023 
L 99.198767 -36.299257 
L 97.830508 -36.300286 
L 96.46225 -36.301145 
L 95.093991 -36.301861 
L 93.725732 -36.302458 
L 92.357473 -36.302956 
L 90.989214 -36.303371 
L 89.620955 -36.303717 
L 88.252696 -36.304006 
L 86.884438 -36.304247 
L 85.516179 -36.304448 
L 84.14792 -36.304615 
L 82.779661 -36.304755 
z
"/>
    </defs>
    <g clip-path="url(#pa4edab53d7)">
     <use xlink:href="#m3ed88a0146" x="0" y="299.52" style="fill: #b78935; fill-opacity: 0.05"/>
    </g>
   </g>
   <g id="tf-bar-ND">
    <defs>
     <path id="m4e532e8dc0" d="M 218.237288 -67.076498 
L 218.237288 -268.887273 
L 233.288136 -268.887273 
L 233.288136 -67.076498 
L 233.288136 -67.076498 
L 218.237288 -67.076498 
z
"/>
    </defs>
    <g clip-path="url(#pa4edab53d7)">
     <use xlink:href="#m4e532e8dc0" x="0" y="299.52" style="fill: #406992; fill-opacity: 0.25"/>
    </g>
   </g>
   <g id="tf-bar-YD">
    <defs>
     <path id="m5bb7bf10c4" d="M 218.237288 -30.632727 
L 218.237288 -55.731043 
L 233.288136 -55.731043 
L 233.288136 -30.632727 
L 233.288136 -30.632727 
L 218.237288 -30.632727 
z
"/>
    </defs>
    <g clip-path="url(#pa4edab53d7)">
     <use xlink:href="#m5bb7bf10c4" x="0" y="299.52" style="fill: #b78935; fill-opacity: 0.25"/>
    </g>
   </g>
   <g id="tf-swoop-YD-ND">
    <defs>
     <path id="m9358c4f113" d="M 233.288136 -49.133201 
L 233.288136 -55.730343 
L 234.656394 -55.730204 
L 236.024653 -55.730036 
L 237.392912 -55.729836 
L 238.761171 -55.729595 
L 240.12943 -55.729306 
L 241.497689 -55.72896 
L 242.865948 -55.728545 
L 244.234206 -55.728047 
L 245.602465 -55.72745 
L 246.970724 -55.726734 
L 248.338983 -55.725875 
L 249.707242 -55.724846 
L 251.075501 -55.723612 
L 252.44376 -55.722132 
L 253.812018 -55.720359 
L 255.180277 -55.718233 
L 256.548536 -55.715686 
L 257.916795 -55.712633 
L 259.285054 -55.708977 
L 260.653313 -55.704597 
L 262.021572 -55.699353 
L 263.389831 -55.693077 
L 264.758089 -55.685567 
L 266.126348 -55.676586 
L 267.494607 -55.665852 
L 268.862866 -55.653032 
L 270.231125 -55.637733 
L 271.599384 -55.619493 
L 272.967643 -55.597773 
L 274.335901 -55.571945 
L 275.70416 -55.541282 
L 277.072419 -55.504953 
L 278.440678 -55.462009 
L 279.808937 -55.411388 
L 281.177196 -55.35191 
L 282.545455 -55.282292 
L 283.913713 -55.201171 
L 285.281972 -55.107137 
L 286.650231 -54.998791 
L 288.01849 -54.87482 
L 289.386749 -54.734097 
L 290.755008 -54.575793 
L 292.123267 -54.39951 
L 293.491525 -54.205412 
L 294.859784 -53.994339 
L 296.228043 -53.767888 
L 297.596302 -53.528433 
L 298.964561 -53.279077 
L 300.33282 -53.023517 
L 301.701079 -52.765843 
L 303.069337 -52.510283 
L 304.437596 -52.260926 
L 305.805855 -52.021471 
L 307.174114 -51.79502 
L 308.542373 -51.583947 
L 309.910632 -51.38985 
L 311.278891 -51.213567 
L 312.647149 -51.055262 
L 314.015408 -50.914539 
L 315.383667 -50.790569 
L 316.751926 -50.682223 
L 318.120185 -50.588189 
L 319.488444 -50.507067 
L 320.856703 -50.43745 
L 322.224961 -50.377972 
L 323.59322 -50.32735 
L 324.961479 -50.284407 
L 326.329738 -50.248077 
L 327.697997 -50.217415 
L 329.066256 -50.191586 
L 330.434515 -50.169866 
L 331.802773 -50.151626 
L 333.171032 -50.136327 
L 334.539291 -50.123507 
L 335.90755 -50.112773 
L 337.275809 -50.103793 
L 338.644068 -50.096283 
L 340.012327 -50.090006 
L 341.380586 -50.084762 
L 342.748844 -50.080383 
L 344.117103 -50.076726 
L 345.485362 -50.073674 
L 346.853621 -50.071126 
L 348.22188 -50.069001 
L 349.590139 -50.067227 
L 350.958398 -50.065748 
L 352.326656 -50.064514 
L 353.694915 -50.063484 
L 355.063174 -50.062626 
L 356.431433 -50.06191 
L 357.799692 -50.061313 
L 359.167951 -50.060815 
L 360.53621 -50.060399 
L 361.904468 -50.060053 
L 363.272727 -50.059764 
L 364.640986 -50.059524 
L 366.009245 -50.059323 
L 367.377504 -50.059156 
L 368.745763 -50.059016 
L 368.745763 -43.461874 
L 368.745763 -43.461874 
L 367.377504 -43.462013 
L 366.009245 -43.462181 
L 364.640986 -43.462381 
L 363.272727 -43.462622 
L 361.904468 -43.462911 
L 360.53621 -43.463257 
L 359.167951 -43.463672 
L 357.799692 -43.46417 
L 356.431433 -43.464767 
L 355.063174 -43.465483 
L 353.694915 -43.466342 
L 352.326656 -43.467371 
L 350.958398 -43.468605 
L 349.590139 -43.470085 
L 348.22188 -43.471858 
L 346.853621 -43.473984 
L 345.485362 -43.476532 
L 344.117103 -43.479584 
L 342.748844 -43.48324 
L 341.380586 -43.48762 
L 340.012327 -43.492864 
L 338.644068 -43.49914 
L 337.275809 -43.50665 
L 335.90755 -43.515631 
L 334.539291 -43.526365 
L 333.171032 -43.539185 
L 331.802773 -43.554484 
L 330.434515 -43.572724 
L 329.066256 -43.594444 
L 327.697997 -43.620272 
L 326.329738 -43.650935 
L 324.961479 -43.687264 
L 323.59322 -43.730208 
L 322.224961 -43.780829 
L 320.856703 -43.840307 
L 319.488444 -43.909925 
L 318.120185 -43.991046 
L 316.751926 -44.08508 
L 315.383667 -44.193426 
L 314.015408 -44.317397 
L 312.647149 -44.45812 
L 311.278891 -44.616424 
L 309.910632 -44.792707 
L 308.542373 -44.986805 
L 307.174114 -45.197878 
L 305.805855 -45.424329 
L 304.437596 -45.663784 
L 303.069337 -45.91314 
L 301.701079 -46.1687 
L 300.33282 -46.426374 
L 298.964561 -46.681935 
L 297.596302 -46.931291 
L 296.228043 -47.170746 
L 294.859784 -47.397197 
L 293.491525 -47.60827 
L 292.123267 -47.802368 
L 290.755008 -47.97865 
L 289.386749 -48.136955 
L 288.01849 -48.277678 
L 286.650231 -48.401648 
L 285.281972 -48.509994 
L 283.913713 -48.604029 
L 282.545455 -48.68515 
L 281.177196 -48.754767 
L 279.808937 -48.814245 
L 278.440678 -48.864867 
L 277.072419 -48.90781 
L 275.70416 -48.94414 
L 274.335901 -48.974802 
L 272.967643 -49.000631 
L 271.599384 -49.022351 
L 270.231125 -49.040591 
L 268.862866 -49.05589 
L 267.494607 -49.06871 
L 266.126348 -49.079444 
L 264.758089 -49.088425 
L 263.389831 -49.095934 
L 262.021572 -49.102211 
L 260.653313 -49.107455 
L 259.285054 -49.111834 
L 257.916795 -49.115491 
L 256.548536 -49.118543 
L 255.180277 -49.121091 
L 253.812018 -49.123216 
L 252.44376 -49.12499 
L 251.075501 -49.126469 
L 249.707242 -49.127703 
L 248.338983 -49.128733 
L 246.970724 -49.129591 
L 245.602465 -49.130307 
L 244.234206 -49.130904 
L 242.865948 -49.131402 
L 241.497689 -49.131818 
L 240.12943 -49.132164 
L 238.761171 -49.132453 
L 237.392912 -49.132693 
L 236.024653 -49.132894 
L 234.656394 -49.133061 
L 233.288136 -49.133201 
z
"/>
    </defs>
    <g clip-path="url(#pa4edab53d7)">
     <use xlink:href="#m9358c4f113" x="0" y="299.52" style="fill: #dbc49a; fill-opacity: 0.05"/>
    </g>
   </g>
   <g id="tf-swoop-YD-YD">
    <defs>
     <path id="mcc6a36b641" d="M 233.288136 -30.630627 
L 233.288136 -49.131801 
L 234.656394 -49.131382 
L 236.024653 -49.13088 
L 237.392912 -49.130278 
L 238.761171 -49.129556 
L 240.12943 -49.12869 
L 241.497689 -49.127651 
L 242.865948 -49.126405 
L 244.234206 -49.124912 
L 245.602465 -49.12312 
L 246.970724 -49.120972 
L 248.338983 -49.118397 
L 249.707242 -49.115308 
L 251.075501 -49.111606 
L 252.44376 -49.107167 
L 253.812018 -49.101847 
L 255.180277 -49.09547 
L 256.548536 -49.087828 
L 257.916795 -49.078671 
L 259.285054 -49.067701 
L 260.653313 -49.054562 
L 262.021572 -49.038831 
L 263.389831 -49.020001 
L 264.758089 -48.997472 
L 266.126348 -48.970529 
L 267.494607 -48.938328 
L 268.862866 -48.899868 
L 270.231125 -48.85397 
L 271.599384 -48.799251 
L 272.967643 -48.73409 
L 274.335901 -48.656605 
L 275.70416 -48.564618 
L 277.072419 -48.455629 
L 278.440678 -48.326799 
L 279.808937 -48.174934 
L 281.177196 -47.9965 
L 282.545455 -47.787647 
L 283.913713 -47.544284 
L 285.281972 -47.262181 
L 286.650231 -46.937143 
L 288.01849 -46.565232 
L 289.386749 -46.143062 
L 290.755008 -45.668149 
L 292.123267 -45.139301 
L 293.491525 -44.557007 
L 294.859784 -43.923789 
L 296.228043 -43.244436 
L 297.596302 -42.526071 
L 298.964561 -41.778002 
L 300.33282 -41.011321 
L 301.701079 -40.238299 
L 303.069337 -39.471619 
L 304.437596 -38.723549 
L 305.805855 -38.005184 
L 307.174114 -37.325831 
L 308.542373 -36.692613 
L 309.910632 -36.110319 
L 311.278891 -35.581471 
L 312.647149 -35.106558 
L 314.015408 -34.684388 
L 315.383667 -34.312477 
L 316.751926 -33.987439 
L 318.120185 -33.705337 
L 319.488444 -33.461973 
L 320.856703 -33.25312 
L 322.224961 -33.074686 
L 323.59322 -32.922821 
L 324.961479 -32.793991 
L 326.329738 -32.685002 
L 327.697997 -32.593015 
L 329.066256 -32.51553 
L 330.434515 -32.45037 
L 331.802773 -32.39565 
L 333.171032 -32.349752 
L 334.539291 -32.311292 
L 335.90755 -32.279091 
L 337.275809 -32.252149 
L 338.644068 -32.229619 
L 340.012327 -32.21079 
L 341.380586 -32.195058 
L 342.748844 -32.18192 
L 344.117103 -32.17095 
L 345.485362 -32.161793 
L 346.853621 -32.15415 
L 348.22188 -32.147773 
L 349.590139 -32.142453 
L 350.958398 -32.138014 
L 352.326656 -32.134312 
L 353.694915 -32.131224 
L 355.063174 -32.128648 
L 356.431433 -32.1265 
L 357.799692 -32.124709 
L 359.167951 -32.123215 
L 360.53621 -32.121969 
L 361.904468 -32.12093 
L 363.272727 -32.120064 
L 364.640986 -32.119342 
L 366.009245 -32.11874 
L 367.377504 -32.118238 
L 368.745763 -32.117819 
L 368.745763 -13.616645 
L 368.745763 -13.616645 
L 367.377504 -13.617064 
L 366.009245 -13.617566 
L 364.640986 -13.618168 
L 363.272727 -13.618891 
L 361.904468 -13.619757 
L 360.53621 -13.620795 
L 359.167951 -13.622041 
L 357.799692 -13.623535 
L 356.431433 -13.625326 
L 355.063174 -13.627474 
L 353.694915 -13.63005 
L 352.326656 -13.633138 
L 350.958398 -13.63684 
L 349.590139 -13.641279 
L 348.22188 -13.6466 
L 346.853621 -13.652977 
L 345.485362 -13.660619 
L 344.117103 -13.669776 
L 342.748844 -13.680746 
L 341.380586 -13.693884 
L 340.012327 -13.709616 
L 338.644068 -13.728446 
L 337.275809 -13.750975 
L 335.90755 -13.777917 
L 334.539291 -13.810118 
L 333.171032 -13.848579 
L 331.802773 -13.894476 
L 330.434515 -13.949196 
L 329.066256 -14.014356 
L 327.697997 -14.091841 
L 326.329738 -14.183828 
L 324.961479 -14.292817 
L 323.59322 -14.421648 
L 322.224961 -14.573512 
L 320.856703 -14.751947 
L 319.488444 -14.960799 
L 318.120185 -15.204163 
L 316.751926 -15.486266 
L 315.383667 -15.811304 
L 314.015408 -16.183215 
L 312.647149 -16.605384 
L 311.278891 -17.080297 
L 309.910632 -17.609146 
L 308.542373 -18.191439 
L 307.174114 -18.824657 
L 305.805855 -19.504011 
L 304.437596 -20.222375 
L 303.069337 -20.970445 
L 301.701079 -21.737126 
L 300.33282 -22.510147 
L 298.964561 -23.276828 
L 297.596302 -24.024898 
L 296.228043 -24.743262 
L 294.859784 -25.422615 
L 293.491525 -26.055833 
L 292.123267 -26.638127 
L 290.755008 -27.166976 
L 289.386749 -27.641888 
L 288.01849 -28.064058 
L 286.650231 -28.435969 
L 285.281972 -28.761007 
L 283.913713 -29.04311 
L 282.545455 -29.286474 
L 281.177196 -29.495326 
L 279.808937 -29.673761 
L 278.440678 -29.825625 
L 277.072419 -29.954456 
L 275.70416 -30.063444 
L 274.335901 -30.155432 
L 272.967643 -30.232917 
L 271.599384 -30.298077 
L 270.231125 -30.352796 
L 268.862866 -30.398694 
L 267.494607 -30.437154 
L 266.126348 -30.469356 
L 264.758089 -30.496298 
L 263.389831 -30.518827 
L 262.021572 -30.537657 
L 260.653313 -30.553388 
L 259.285054 -30.566527 
L 257.916795 -30.577497 
L 256.548536 -30.586654 
L 255.180277 -30.594296 
L 253.812018 -30.600673 
L 252.44376 -30.605994 
L 251.075501 -30.610432 
L 249.707242 -30.614135 
L 248.338983 -30.617223 
L 246.970724 -30.619798 
L 245.602465 -30.621946 
L 244.234206 -30.623738 
L 242.865948 -30.625232 
L 241.497689 -30.626477 
L 240.12943 -30.627516 
L 238.761171 -30.628382 
L 237.392912 -30.629104 
L 236.024653 -30.629707 
L 234.656394 -30.630209 
L 233.288136 -30.630627 
z
"/>
    </defs>
    <g clip-path="url(#pa4edab53d7)">
     <use xlink:href="#mcc6a36b641" x="0" y="299.52" style="fill: #b78935; fill-opacity: 0.05"/>
    </g>
   </g>
   <g id="tf-swoop-ND-YD">
    <defs>
     <path id="m3b3a74186b" d="M 233.288136 -74.529699 
L 233.288136 -67.077198 
L 234.656394 -67.077337 
L 236.024653 -67.077505 
L 237.392912 -67.077706 
L 238.761171 -67.077946 
L 240.12943 -67.078235 
L 241.497689 -67.078581 
L 242.865948 -67.078996 
L 244.234206 -67.079494 
L 245.602465 -67.080092 
L 246.970724 -67.080808 
L 248.338983 -67.081666 
L 249.707242 -67.082695 
L 251.075501 -67.08393 
L 252.44376 -67.085409 
L 253.812018 -67.087183 
L 255.180277 -67.089308 
L 256.548536 -67.091856 
L 257.916795 -67.094908 
L 259.285054 -67.098565 
L 260.653313 -67.102944 
L 262.021572 -67.108188 
L 263.389831 -67.114465 
L 264.758089 -67.121974 
L 266.126348 -67.130955 
L 267.494607 -67.141689 
L 268.862866 -67.154509 
L 270.231125 -67.169808 
L 271.599384 -67.188048 
L 272.967643 -67.209768 
L 274.335901 -67.235596 
L 275.70416 -67.266259 
L 277.072419 -67.302588 
L 278.440678 -67.345532 
L 279.808937 -67.396153 
L 281.177196 -67.455632 
L 282.545455 -67.525249 
L 283.913713 -67.60637 
L 285.281972 -67.700405 
L 286.650231 -67.808751 
L 288.01849 -67.932721 
L 289.386749 -68.073444 
L 290.755008 -68.231748 
L 292.123267 -68.408031 
L 293.491525 -68.602129 
L 294.859784 -68.813202 
L 296.228043 -69.039653 
L 297.596302 -69.279108 
L 298.964561 -69.528464 
L 300.33282 -69.784025 
L 301.701079 -70.041698 
L 303.069337 -70.297259 
L 304.437596 -70.546615 
L 305.805855 -70.78607 
L 307.174114 -71.012521 
L 308.542373 -71.223594 
L 309.910632 -71.417692 
L 311.278891 -71.593975 
L 312.647149 -71.752279 
L 314.015408 -71.893002 
L 315.383667 -72.016972 
L 316.751926 -72.125318 
L 318.120185 -72.219353 
L 319.488444 -72.300474 
L 320.856703 -72.370091 
L 322.224961 -72.42957 
L 323.59322 -72.480191 
L 324.961479 -72.523135 
L 326.329738 -72.559464 
L 327.697997 -72.590127 
L 329.066256 -72.615955 
L 330.434515 -72.637675 
L 331.802773 -72.655915 
L 333.171032 -72.671214 
L 334.539291 -72.684034 
L 335.90755 -72.694768 
L 337.275809 -72.703749 
L 338.644068 -72.711258 
L 340.012327 -72.717535 
L 341.380586 -72.722779 
L 342.748844 -72.727158 
L 344.117103 -72.730815 
L 345.485362 -72.733867 
L 346.853621 -72.736415 
L 348.22188 -72.73854 
L 349.590139 -72.740314 
L 350.958398 -72.741794 
L 352.326656 -72.743028 
L 353.694915 -72.744057 
L 355.063174 -72.744916 
L 356.431433 -72.745632 
L 357.799692 -72.746229 
L 359.167951 -72.746727 
L 360.53621 -72.747142 
L 361.904468 -72.747488 
L 363.272727 -72.747777 
L 364.640986 -72.748018 
L 366.009245 -72.748218 
L 367.377504 -72.748386 
L 368.745763 -72.748525 
L 368.745763 -80.201026 
L 368.745763 -80.201026 
L 367.377504 -80.200887 
L 366.009245 -80.200719 
L 364.640986 -80.200518 
L 363.272727 -80.200278 
L 361.904468 -80.199989 
L 360.53621 -80.199643 
L 359.167951 -80.199228 
L 357.799692 -80.19873 
L 356.431433 -80.198132 
L 355.063174 -80.197416 
L 353.694915 -80.196558 
L 352.326656 -80.195529 
L 350.958398 -80.194294 
L 349.590139 -80.192815 
L 348.22188 -80.191041 
L 346.853621 -80.188916 
L 345.485362 -80.186368 
L 344.117103 -80.183316 
L 342.748844 -80.179659 
L 341.380586 -80.17528 
L 340.012327 -80.170036 
L 338.644068 -80.163759 
L 337.275809 -80.15625 
L 335.90755 -80.147269 
L 334.539291 -80.136535 
L 333.171032 -80.123715 
L 331.802773 -80.108416 
L 330.434515 -80.090176 
L 329.066256 -80.068456 
L 327.697997 -80.042628 
L 326.329738 -80.011965 
L 324.961479 -79.975636 
L 323.59322 -79.932692 
L 322.224961 -79.882071 
L 320.856703 -79.822592 
L 319.488444 -79.752975 
L 318.120185 -79.671854 
L 316.751926 -79.577819 
L 315.383667 -79.469473 
L 314.015408 -79.345503 
L 312.647149 -79.20478 
L 311.278891 -79.046476 
L 309.910632 -78.870193 
L 308.542373 -78.676095 
L 307.174114 -78.465022 
L 305.805855 -78.238571 
L 304.437596 -77.999116 
L 303.069337 -77.74976 
L 301.701079 -77.494199 
L 300.33282 -77.236526 
L 298.964561 -76.980965 
L 297.596302 -76.731609 
L 296.228043 -76.492154 
L 294.859784 -76.265703 
L 293.491525 -76.05463 
L 292.123267 -75.860532 
L 290.755008 -75.684249 
L 289.386749 -75.525945 
L 288.01849 -75.385222 
L 286.650231 -75.261252 
L 285.281972 -75.152906 
L 283.913713 -75.058871 
L 282.545455 -74.97775 
L 281.177196 -74.908133 
L 279.808937 -74.848654 
L 278.440678 -74.798033 
L 277.072419 -74.755089 
L 275.70416 -74.71876 
L 274.335901 -74.688097 
L 272.967643 -74.662269 
L 271.599384 -74.640549 
L 270.231125 -74.622309 
L 268.862866 -74.60701 
L 267.494607 -74.59419 
L 266.126348 -74.583456 
L 264.758089 -74.574475 
L 263.389831 -74.566966 
L 262.021572 -74.560689 
L 260.653313 -74.555445 
L 259.285054 -74.551066 
L 257.916795 -74.547409 
L 256.548536 -74.544357 
L 255.180277 -74.541809 
L 253.812018 -74.539683 
L 252.44376 -74.53791 
L 251.075501 -74.53643 
L 249.707242 -74.535196 
L 248.338983 -74.534167 
L 246.970724 -74.533308 
L 245.602465 -74.532592 
L 244.234206 -74.531995 
L 242.865948 -74.531497 
L 241.497689 -74.531082 
L 240.12943 -74.530736 
L 238.761171 -74.530447 
L 237.392912 -74.530206 
L 236.024653 -74.530006 
L 234.656394 -74.529838 
L 233.288136 -74.529699 
z
"/>
    </defs>
    <g clip-path="url(#pa4edab53d7)">
     <use xlink:href="#m3b3a74186b" x="0" y="299.52" style="fill: #9fb4c8; fill-opacity: 0.05"/>
    </g>
   </g>
   <g id="tf-swoop-ND-ND">
    <defs>
     <path id="mfad8172517" d="M 233.288136 -268.889373 
L 233.288136 -74.531099 
L 234.656394 -74.531517 
L 236.024653 -74.53202 
L 237.392912 -74.532622 
L 238.761171 -74.533344 
L 240.12943 -74.53421 
L 241.497689 -74.535249 
L 242.865948 -74.536494 
L 244.234206 -74.537988 
L 245.602465 -74.53978 
L 246.970724 -74.541928 
L 248.338983 -74.544503 
L 249.707242 -74.547591 
L 251.075501 -74.551294 
L 252.44376 -74.555732 
L 253.812018 -74.561053 
L 255.180277 -74.56743 
L 256.548536 -74.575072 
L 257.916795 -74.584229 
L 259.285054 -74.595199 
L 260.653313 -74.608338 
L 262.021572 -74.624069 
L 263.389831 -74.642899 
L 264.758089 -74.665428 
L 266.126348 -74.69237 
L 267.494607 -74.724572 
L 268.862866 -74.763032 
L 270.231125 -74.80893 
L 271.599384 -74.863649 
L 272.967643 -74.92881 
L 274.335901 -75.006294 
L 275.70416 -75.098282 
L 277.072419 -75.20727 
L 278.440678 -75.336101 
L 279.808937 -75.487965 
L 281.177196 -75.6664 
L 282.545455 -75.875252 
L 283.913713 -76.118616 
L 285.281972 -76.400719 
L 286.650231 -76.725757 
L 288.01849 -77.097668 
L 289.386749 -77.519838 
L 290.755008 -77.99475 
L 292.123267 -78.523599 
L 293.491525 -79.105893 
L 294.859784 -79.739111 
L 296.228043 -80.418464 
L 297.596302 -81.136828 
L 298.964561 -81.884898 
L 300.33282 -82.651579 
L 301.701079 -83.4246 
L 303.069337 -84.191281 
L 304.437596 -84.939351 
L 305.805855 -85.657715 
L 307.174114 -86.337069 
L 308.542373 -86.970287 
L 309.910632 -87.55258 
L 311.278891 -88.081429 
L 312.647149 -88.556342 
L 314.015408 -88.978511 
L 315.383667 -89.350422 
L 316.751926 -89.67546 
L 318.120185 -89.957563 
L 319.488444 -90.200927 
L 320.856703 -90.409779 
L 322.224961 -90.588214 
L 323.59322 -90.740078 
L 324.961479 -90.868909 
L 326.329738 -90.977898 
L 327.697997 -91.069885 
L 329.066256 -91.14737 
L 330.434515 -91.21253 
L 331.802773 -91.26725 
L 333.171032 -91.313147 
L 334.539291 -91.351608 
L 335.90755 -91.383809 
L 337.275809 -91.410751 
L 338.644068 -91.43328 
L 340.012327 -91.45211 
L 341.380586 -91.467842 
L 342.748844 -91.48098 
L 344.117103 -91.49195 
L 345.485362 -91.501107 
L 346.853621 -91.508749 
L 348.22188 -91.515127 
L 349.590139 -91.520447 
L 350.958398 -91.524886 
L 352.326656 -91.528588 
L 353.694915 -91.531676 
L 355.063174 -91.534252 
L 356.431433 -91.5364 
L 357.799692 -91.538191 
L 359.167951 -91.539685 
L 360.53621 -91.540931 
L 361.904468 -91.541969 
L 363.272727 -91.542835 
L 364.640986 -91.543558 
L 366.009245 -91.54416 
L 367.377504 -91.544662 
L 368.745763 -91.545081 
L 368.745763 -285.903355 
L 368.745763 -285.903355 
L 367.377504 -285.902936 
L 366.009245 -285.902434 
L 364.640986 -285.901832 
L 363.272727 -285.901109 
L 361.904468 -285.900243 
L 360.53621 -285.899205 
L 359.167951 -285.897959 
L 357.799692 -285.896465 
L 356.431433 -285.894674 
L 355.063174 -285.892526 
L 353.694915 -285.88995 
L 352.326656 -285.886862 
L 350.958398 -285.88316 
L 349.590139 -285.878721 
L 348.22188 -285.8734 
L 346.853621 -285.867023 
L 345.485362 -285.859381 
L 344.117103 -285.850224 
L 342.748844 -285.839254 
L 341.380586 -285.826116 
L 340.012327 -285.810384 
L 338.644068 -285.791554 
L 337.275809 -285.769025 
L 335.90755 -285.742083 
L 334.539291 -285.709882 
L 333.171032 -285.671421 
L 331.802773 -285.625524 
L 330.434515 -285.570804 
L 329.066256 -285.505644 
L 327.697997 -285.428159 
L 326.329738 -285.336172 
L 324.961479 -285.227183 
L 323.59322 -285.098352 
L 322.224961 -284.946488 
L 320.856703 -284.768053 
L 319.488444 -284.559201 
L 318.120185 -284.315837 
L 316.751926 -284.033734 
L 315.383667 -283.708696 
L 314.015408 -283.336785 
L 312.647149 -282.914616 
L 311.278891 -282.439703 
L 309.910632 -281.910854 
L 308.542373 -281.328561 
L 307.174114 -280.695343 
L 305.805855 -280.015989 
L 304.437596 -279.297625 
L 303.069337 -278.549555 
L 301.701079 -277.782874 
L 300.33282 -277.009853 
L 298.964561 -276.243172 
L 297.596302 -275.495102 
L 296.228043 -274.776738 
L 294.859784 -274.097385 
L 293.491525 -273.464167 
L 292.123267 -272.881873 
L 290.755008 -272.353024 
L 289.386749 -271.878112 
L 288.01849 -271.455942 
L 286.650231 -271.084031 
L 285.281972 -270.758993 
L 283.913713 -270.47689 
L 282.545455 -270.233526 
L 281.177196 -270.024674 
L 279.808937 -269.846239 
L 278.440678 -269.694375 
L 277.072419 -269.565544 
L 275.70416 -269.456556 
L 274.335901 -269.364568 
L 272.967643 -269.287083 
L 271.599384 -269.221923 
L 270.231125 -269.167204 
L 268.862866 -269.121306 
L 267.494607 -269.082846 
L 266.126348 -269.050644 
L 264.758089 -269.023702 
L 263.389831 -269.001173 
L 262.021572 -268.982343 
L 260.653313 -268.966612 
L 259.285054 -268.953473 
L 257.916795 -268.942503 
L 256.548536 -268.933346 
L 255.180277 -268.925704 
L 253.812018 -268.919327 
L 252.44376 -268.914006 
L 251.075501 -268.909568 
L 249.707242 -268.905865 
L 248.338983 -268.902777 
L 246.970724 -268.900202 
L 245.602465 -268.898054 
L 244.234206 -268.896262 
L 242.865948 -268.894768 
L 241.497689 -268.893523 
L 240.12943 -268.892484 
L 238.761171 -268.891618 
L 237.392912 -268.890896 
L 236.024653 -268.890293 
L 234.656394 -268.889791 
L 233.288136 -268.889373 
z
"/>
    </defs>
    <g clip-path="url(#pa4edab53d7)">
     <use xlink:href="#mfad8172517" x="0" y="299.52" style="fill: #406992; fill-opacity: 0.05"/>
    </g>
   </g>
   <g id="tf-bar-YD-YD">
    <defs>
     <path id="mbcec248518" d="M 368.745763 -13.614545 
L 368.745763 -32.115719 
L 383.79661 -32.115719 
L 383.79661 -13.614545 
L 383.79661 -13.614545 
L 368.745763 -13.614545 
z
"/>
    </defs>
    <g clip-path="url(#pa4edab53d7)">
     <use xlink:href="#mbcec248518" x="0" y="299.52" style="fill: #b78935; fill-opacity: 0.25"/>
    </g>
   </g>
   <g id="tf-bar-YD-ND">
    <defs>
     <path id="mdef282dcaa" d="M 368.745763 -43.461174 
L 368.745763 -50.058316 
L 383.79661 -50.058316 
L 383.79661 -43.461174 
L 383.79661 -43.461174 
L 368.745763 -43.461174 
z
"/>
    </defs>
    <g clip-path="url(#pa4edab53d7)">
     <use xlink:href="#mdef282dcaa" x="0" y="299.52" style="fill: #dbc49a; fill-opacity: 0.25"/>
    </g>
   </g>
   <g id="tf-bar-ND-YD">
    <defs>
     <path id="m1092bb5d73" d="M 368.745763 -72.749225 
L 368.745763 -80.201726 
L 383.79661 -80.201726 
L 383.79661 -72.749225 
L 383.79661 -72.749225 
L 368.745763 -72.749225 
z
"/>
    </defs>
    <g clip-path="url(#pa4edab53d7)">
     <use xlink:href="#m1092bb5d73" x="0" y="299.52" style="fill: #9fb4c8; fill-opacity: 0.25"/>
    </g>
   </g>
   <g id="tf-bar-ND-ND">
    <defs>
     <path id="ma6f4f4f5e9" d="M 368.745763 -91.547181 
L 368.745763 -285.905455 
L 383.79661 -285.905455 
L 383.79661 -91.547181 
L 383.79661 -91.547181 
L 368.745763 -91.547181 
z
"/>
    </defs>
    <g clip-path="url(#pa4edab53d7)">
     <use xlink:href="#ma6f4f4f5e9" x="0" y="299.52" style="fill: #406992; fill-opacity: 0.25"/>
    </g>
   </g>
   <g id="text_1">
    <text style="font-weight: 300; font-size: 16px; font-family: 'Source Sans 3', sans-serif; fill: #595959" transform="translate(-0.05161 145.05225)">All model</text>
    <text style="font-weight: 300; font-size: 16px; font-family: 'Source Sans 3', sans-serif; fill: #595959" transform="translate(-12.01911 162.46775)">predictions</text>
   </g>
   <g id="tf-label-YD">
    <text style="font-weight: 300; font-size: 16px; font-family: 'Source Sans 3', sans-serif; fill: #595959; opacity: 0" transform="translate(116.121864 251.534115)">Model predicts</text>
    <text style="font-weight: 300; font-size: 16px; font-family: 'Source Sans 3', sans-serif; fill: #595959; opacity: 0" transform="translate(109.556864 268.949615)">drought - 11.1%</text>
   </g>
   <g id="tf-label-ND">
    <text style="font-weight: 300; font-size: 16px; font-family: 'Source Sans 3', sans-serif; fill: #595959; opacity: 0" transform="translate(116.121864 126.734115)">Model predicts</text>
    <text style="font-weight: 300; font-size: 16px; font-family: 'Source Sans 3', sans-serif; fill: #595959; opacity: 0" transform="translate(89.429364 144.149615)">no drought - 88.9%</text>
   </g>
   <g id="tf-label-YD-YD">
    <text style="font-weight: 300; font-size: 16px; font-family: 'Source Sans 3', sans-serif; fill: #595959; opacity: 0" transform="translate(261.350339 254.358868)">Model detected</text>
    <text style="font-weight: 300; font-size: 16px; font-family: 'Source Sans 3', sans-serif; fill: #595959; opacity: 0" transform="translate(285.890339 271.774368)">the drought</text>
    <text style="font-weight: 300; font-size: 16px; font-family: 'Source Sans 3', sans-serif; fill: #595959; opacity: 0" transform="translate(273.730339 289.535368)">(true positive)</text>
    <text style="font-weight: 300; font-size: 16px; font-family: 'Source Sans 3', sans-serif; fill: #595959; opacity: 0" transform="translate(330.020339 306.950868)">8.2%</text>
   </g>
   <g id="tf-label-YD-ND">
    <text style="font-weight: 300; font-size: 16px; font-family: 'Source Sans 3', sans-serif; fill: #595959; opacity: 0" transform="translate(267.652839 230.329005)">Model wrongly</text>
    <text style="font-weight: 300; font-size: 16px; font-family: 'Source Sans 3', sans-serif; fill: #595959; opacity: 0" transform="translate(245.092839 247.937005)">predicted drought</text>
    <text style="font-weight: 300; font-size: 16px; font-family: 'Source Sans 3', sans-serif; fill: #595959; opacity: 0" transform="translate(269.955339 265.776005)">(false positive)</text>
    <text style="font-weight: 300; font-size: 16px; font-family: 'Source Sans 3', sans-serif; fill: #595959; opacity: 0" transform="translate(330.020339 283.191505)">2.9%</text>
   </g>
   <g id="tf-label-ND-YD">
    <text style="font-weight: 300; font-size: 16px; font-family: 'Source Sans 3', sans-serif; fill: #595959; opacity: 0" transform="translate(272.837839 200.613274)">Model missed</text>
    <text style="font-weight: 300; font-size: 16px; font-family: 'Source Sans 3', sans-serif; fill: #595959; opacity: 0" transform="translate(285.890339 218.028774)">the drought</text>
    <text style="font-weight: 300; font-size: 16px; font-family: 'Source Sans 3', sans-serif; fill: #595959; opacity: 0" transform="translate(265.542839 235.867774)">(false negative)</text>
    <text style="font-weight: 300; font-size: 16px; font-family: 'Source Sans 3', sans-serif; fill: #595959; opacity: 0" transform="translate(330.020339 253.475774)">3.3%</text>
   </g>
   <g id="tf-label-ND-ND">
    <text style="font-weight: 300; font-size: 16px; font-family: 'Source Sans 3', sans-serif; fill: #595959; opacity: 0" transform="translate(288.097839 88.401432)">No drought</text>
    <text style="font-weight: 300; font-size: 16px; font-family: 'Source Sans 3', sans-serif; fill: #595959; opacity: 0" transform="translate(303.975339 106.009432)">occurred</text>
    <text style="font-weight: 300; font-size: 16px; font-family: 'Source Sans 3', sans-serif; fill: #595959; opacity: 0" transform="translate(269.317839 123.577932)">(true negative)</text>
    <text style="font-weight: 300; font-size: 16px; font-family: 'Source Sans 3', sans-serif; fill: #595959; opacity: 0" transform="translate(322.467839 141.185932)">85.7%</text>
   </g>
  </g>
 </g>
 <defs>
  <clipPath id="pa4edab53d7">
   <rect x="0" y="0" width="399.6" height="299.52"/>
  </clipPath>
 </defs>
</svg>
