<?xml version="1.0" encoding="utf-8" standalone="no"?>
<!DOCTYPE svg PUBLIC "-//W3C//DTD SVG 1.1//EN"
  "http://www.w3.org/Graphics/SVG/1.1/DTD/svg11.dtd">
<svg xmlns:xlink="http://www.w3.org/1999/xlink" width="699.84px" height="524.88px" viewBox="0 0 699.84 524.88" xmlns="http://www.w3.org/2000/svg" version="1.1">
  <defs>
  <style type="text/css">*{stroke-linejoin: round; stroke-linecap: butt}</style>
 </defs>
 <g id="figure-forecast_truefalse_key">
  <g id="patch_1">
   <path d="M 0 524.88 
L 699.84 524.88 
L 699.84 0 
L 0 0 
z
" style="fill: #ffffff"/>
  </g>
  <g id="axis-forecast_truefalse_key">
   <g id="FillBetweenPolyCollection_1">
    <defs>
     <path id="mc9715f386f" d="M 136.812789 -79.368218 
L 136.812789 -477.004582 
L 163.172111 -477.004582 
L 163.172111 -79.368218 
L 163.172111 -79.368218 
L 136.812789 -79.368218 
z
"/>
    </defs>
    <g clip-path="url(#pe0201e60db)">
     <use xlink:href="#mc9715f386f" x="0" y="524.88" style="fill: #00264c"/>
    </g>
   </g>
   <g id="tf-swoop-ND">
    <defs>
     <path id="mf70e68ae98" d="M 163.172111 -477.005808 
L 163.172111 -118.838672 
L 165.568413 -118.838916 
L 167.964715 -118.839209 
L 170.361017 -118.839561 
L 172.757319 -118.839983 
L 175.153621 -118.840489 
L 177.549923 -118.841096 
L 179.946225 -118.841823 
L 182.342527 -118.842696 
L 184.738829 -118.843742 
L 187.135131 -118.844997 
L 189.531433 -118.846502 
L 191.927735 -118.848305 
L 194.324037 -118.850468 
L 196.720339 -118.853061 
L 199.116641 -118.856169 
L 201.512943 -118.859894 
L 203.909245 -118.864358 
L 206.305547 -118.869707 
L 208.701849 -118.876115 
L 211.098151 -118.88379 
L 213.494453 -118.892979 
L 215.890755 -118.903978 
L 218.287057 -118.917138 
L 220.683359 -118.932876 
L 223.079661 -118.951686 
L 225.475963 -118.974152 
L 227.872265 -119.000962 
L 230.268567 -119.032926 
L 232.664869 -119.070988 
L 235.061171 -119.11625 
L 237.457473 -119.169983 
L 239.853775 -119.233647 
L 242.250077 -119.308901 
L 244.646379 -119.397611 
L 247.042681 -119.50184 
L 249.438983 -119.623838 
L 251.835285 -119.765995 
L 254.231587 -119.930781 
L 256.627889 -120.120647 
L 259.024191 -120.337894 
L 261.420493 -120.584497 
L 263.816795 -120.86191 
L 266.213097 -121.170829 
L 268.609399 -121.510967 
L 271.005701 -121.880852 
L 273.402003 -122.277685 
L 275.798305 -122.697307 
L 278.194607 -123.13428 
L 280.590909 -123.582125 
L 282.987211 -124.033674 
L 285.383513 -124.481519 
L 287.779815 -124.918492 
L 290.176117 -125.338113 
L 292.572419 -125.734947 
L 294.968721 -126.104832 
L 297.365023 -126.44497 
L 299.761325 -126.753889 
L 302.157627 -127.031301 
L 304.553929 -127.277905 
L 306.950231 -127.495151 
L 309.346533 -127.685017 
L 311.742835 -127.849803 
L 314.139137 -127.991961 
L 316.535439 -128.113959 
L 318.931741 -128.218188 
L 321.328043 -128.306898 
L 323.724345 -128.382152 
L 326.120647 -128.445816 
L 328.516949 -128.499549 
L 330.913251 -128.544811 
L 333.309553 -128.582873 
L 335.705855 -128.614837 
L 338.102157 -128.641647 
L 340.498459 -128.664113 
L 342.894761 -128.682923 
L 345.291063 -128.698661 
L 347.687365 -128.711821 
L 350.083667 -128.72282 
L 352.479969 -128.732009 
L 354.876271 -128.739684 
L 357.272573 -128.746092 
L 359.668875 -128.751441 
L 362.065177 -128.755905 
L 364.461479 -128.75963 
L 366.857781 -128.762738 
L 369.254083 -128.765331 
L 371.650385 -128.767493 
L 374.046687 -128.769297 
L 376.442989 -128.770802 
L 378.839291 -128.772057 
L 381.235593 -128.773103 
L 383.631895 -128.773976 
L 386.028197 -128.774703 
L 388.424499 -128.77531 
L 390.820801 -128.775816 
L 393.217103 -128.776238 
L 395.613405 -128.77659 
L 398.009707 -128.776883 
L 400.406009 -128.777127 
L 400.406009 -486.944264 
L 400.406009 -486.944264 
L 398.009707 -486.94402 
L 395.613405 -486.943726 
L 393.217103 -486.943375 
L 390.820801 -486.942953 
L 388.424499 -486.942447 
L 386.028197 -486.94184 
L 383.631895 -486.941112 
L 381.235593 -486.94024 
L 378.839291 -486.939193 
L 376.442989 -486.937939 
L 374.046687 -486.936434 
L 371.650385 -486.93463 
L 369.254083 -486.932468 
L 366.857781 -486.929875 
L 364.461479 -486.926767 
L 362.065177 -486.923042 
L 359.668875 -486.918578 
L 357.272573 -486.913229 
L 354.876271 -486.906821 
L 352.479969 -486.899146 
L 350.083667 -486.889957 
L 347.687365 -486.878958 
L 345.291063 -486.865798 
L 342.894761 -486.85006 
L 340.498459 -486.83125 
L 338.102157 -486.808784 
L 335.705855 -486.781974 
L 333.309553 -486.75001 
L 330.913251 -486.711948 
L 328.516949 -486.666686 
L 326.120647 -486.612953 
L 323.724345 -486.549289 
L 321.328043 -486.474035 
L 318.931741 -486.385325 
L 316.535439 -486.281096 
L 314.139137 -486.159098 
L 311.742835 -486.01694 
L 309.346533 -485.852154 
L 306.950231 -485.662288 
L 304.553929 -485.445042 
L 302.157627 -485.198438 
L 299.761325 -484.921025 
L 297.365023 -484.612107 
L 294.968721 -484.271969 
L 292.572419 -483.902084 
L 290.176117 -483.50525 
L 287.779815 -483.085629 
L 285.383513 -482.648655 
L 282.987211 -482.200811 
L 280.590909 -481.749262 
L 278.194607 -481.301417 
L 275.798305 -480.864444 
L 273.402003 -480.444822 
L 271.005701 -480.047989 
L 268.609399 -479.678104 
L 266.213097 -479.337966 
L 263.816795 -479.029047 
L 261.420493 -478.751634 
L 259.024191 -478.50503 
L 256.627889 -478.287784 
L 254.231587 -478.097918 
L 251.835285 -477.933132 
L 249.438983 -477.790975 
L 247.042681 -477.668977 
L 244.646379 -477.564747 
L 242.250077 -477.476038 
L 239.853775 -477.400784 
L 237.457473 -477.33712 
L 235.061171 -477.283387 
L 232.664869 -477.238125 
L 230.268567 -477.200063 
L 227.872265 -477.168099 
L 225.475963 -477.141289 
L 223.079661 -477.118823 
L 220.683359 -477.100013 
L 218.287057 -477.084275 
L 215.890755 -477.071115 
L 213.494453 -477.060116 
L 211.098151 -477.050926 
L 208.701849 -477.043252 
L 206.305547 -477.036844 
L 203.909245 -477.031495 
L 201.512943 -477.027031 
L 199.116641 -477.023306 
L 196.720339 -477.020198 
L 194.324037 -477.017605 
L 191.927735 -477.015442 
L 189.531433 -477.013638 
L 187.135131 -477.012134 
L 184.738829 -477.010879 
L 182.342527 -477.009833 
L 179.946225 -477.00896 
L 177.549923 -477.008233 
L 175.153621 -477.007626 
L 172.757319 -477.00712 
L 170.361017 -477.006698 
L 167.964715 -477.006346 
L 165.568413 -477.006053 
L 163.172111 -477.005808 
z
"/>
    </defs>
    <g clip-path="url(#pe0201e60db)">
     <use xlink:href="#mf70e68ae98" x="0" y="524.88" style="fill: #406992; fill-opacity: 0.05"/>
    </g>
   </g>
   <g id="tf-swoop-YD">
    <defs>
     <path id="m312305bf76" d="M 163.172111 -79.366992 
L 163.172111 -118.836218 
L 165.568413 -118.835974 
L 167.964715 -118.83568 
L 170.361017 -118.835329 
L 172.757319 -118.834907 
L 175.153621 -118.834401 
L 177.549923 -118.833794 
L 179.946225 -118.833066 
L 182.342527 -118.832194 
L 184.738829 -118.831147 
L 187.135131 -118.829893 
L 189.531433 -118.828388 
L 191.927735 -118.826584 
L 194.324037 -118.824422 
L 196.720339 -118.821829 
L 199.116641 -118.818721 
L 201.512943 -118.814996 
L 203.909245 -118.810532 
L 206.305547 -118.805183 
L 208.701849 -118.798775 
L 211.098151 -118.7911 
L 213.494453 -118.781911 
L 215.890755 -118.770912 
L 218.287057 -118.757752 
L 220.683359 -118.742014 
L 223.079661 -118.723204 
L 225.475963 -118.700738 
L 227.872265 -118.673928 
L 230.268567 -118.641964 
L 232.664869 -118.603902 
L 235.061171 -118.55864 
L 237.457473 -118.504907 
L 239.853775 -118.441243 
L 242.250077 -118.365989 
L 244.646379 -118.277279 
L 247.042681 -118.17305 
L 249.438983 -118.051052 
L 251.835285 -117.908894 
L 254.231587 -117.744108 
L 256.627889 -117.554242 
L 259.024191 -117.336996 
L 261.420493 -117.090392 
L 263.816795 -116.812979 
L 266.213097 -116.504061 
L 268.609399 -116.163923 
L 271.005701 -115.794038 
L 273.402003 -115.397204 
L 275.798305 -114.977583 
L 278.194607 -114.540609 
L 280.590909 -114.092765 
L 282.987211 -113.641216 
L 285.383513 -113.193371 
L 287.779815 -112.756398 
L 290.176117 -112.336776 
L 292.572419 -111.939943 
L 294.968721 -111.570058 
L 297.365023 -111.22992 
L 299.761325 -110.921001 
L 302.157627 -110.643588 
L 304.553929 -110.396984 
L 306.950231 -110.179738 
L 309.346533 -109.989872 
L 311.742835 -109.825086 
L 314.139137 -109.682929 
L 316.535439 -109.560931 
L 318.931741 -109.456701 
L 321.328043 -109.367992 
L 323.724345 -109.292738 
L 326.120647 -109.229074 
L 328.516949 -109.175341 
L 330.913251 -109.130079 
L 333.309553 -109.092017 
L 335.705855 -109.060053 
L 338.102157 -109.033243 
L 340.498459 -109.010777 
L 342.894761 -108.991967 
L 345.291063 -108.976229 
L 347.687365 -108.963069 
L 350.083667 -108.95207 
L 352.479969 -108.94288 
L 354.876271 -108.935206 
L 357.272573 -108.928798 
L 359.668875 -108.923449 
L 362.065177 -108.918985 
L 364.461479 -108.91526 
L 366.857781 -108.912152 
L 369.254083 -108.909559 
L 371.650385 -108.907396 
L 374.046687 -108.905593 
L 376.442989 -108.904088 
L 378.839291 -108.902833 
L 381.235593 -108.901787 
L 383.631895 -108.900914 
L 386.028197 -108.900187 
L 388.424499 -108.89958 
L 390.820801 -108.899074 
L 393.217103 -108.898652 
L 395.613405 -108.8983 
L 398.009707 -108.898007 
L 400.406009 -108.897762 
L 400.406009 -69.428536 
L 400.406009 -69.428536 
L 398.009707 -69.42878 
L 395.613405 -69.429074 
L 393.217103 -69.429425 
L 390.820801 -69.429847 
L 388.424499 -69.430353 
L 386.028197 -69.43096 
L 383.631895 -69.431688 
L 381.235593 -69.43256 
L 378.839291 -69.433607 
L 376.442989 -69.434861 
L 374.046687 -69.436366 
L 371.650385 -69.43817 
L 369.254083 -69.440332 
L 366.857781 -69.442925 
L 364.461479 -69.446033 
L 362.065177 -69.449758 
L 359.668875 -69.454222 
L 357.272573 -69.459571 
L 354.876271 -69.465979 
L 352.479969 -69.473654 
L 350.083667 -69.482843 
L 347.687365 -69.493842 
L 345.291063 -69.507002 
L 342.894761 -69.52274 
L 340.498459 -69.54155 
L 338.102157 -69.564016 
L 335.705855 -69.590826 
L 333.309553 -69.62279 
L 330.913251 -69.660852 
L 328.516949 -69.706114 
L 326.120647 -69.759847 
L 323.724345 -69.823511 
L 321.328043 -69.898765 
L 318.931741 -69.987475 
L 316.535439 -70.091704 
L 314.139137 -70.213702 
L 311.742835 -70.35586 
L 309.346533 -70.520646 
L 306.950231 -70.710512 
L 304.553929 -70.927758 
L 302.157627 -71.174362 
L 299.761325 -71.451775 
L 297.365023 -71.760693 
L 294.968721 -72.100831 
L 292.572419 -72.470716 
L 290.176117 -72.86755 
L 287.779815 -73.287171 
L 285.383513 -73.724145 
L 282.987211 -74.171989 
L 280.590909 -74.623538 
L 278.194607 -75.071383 
L 275.798305 -75.508356 
L 273.402003 -75.927978 
L 271.005701 -76.324811 
L 268.609399 -76.694696 
L 266.213097 -77.034834 
L 263.816795 -77.343753 
L 261.420493 -77.621166 
L 259.024191 -77.86777 
L 256.627889 -78.085016 
L 254.231587 -78.274882 
L 251.835285 -78.439668 
L 249.438983 -78.581825 
L 247.042681 -78.703823 
L 244.646379 -78.808053 
L 242.250077 -78.896762 
L 239.853775 -78.972016 
L 237.457473 -79.03568 
L 235.061171 -79.089413 
L 232.664869 -79.134675 
L 230.268567 -79.172737 
L 227.872265 -79.204701 
L 225.475963 -79.231511 
L 223.079661 -79.253977 
L 220.683359 -79.272787 
L 218.287057 -79.288525 
L 215.890755 -79.301685 
L 213.494453 -79.312684 
L 211.098151 -79.321874 
L 208.701849 -79.329548 
L 206.305547 -79.335956 
L 203.909245 -79.341305 
L 201.512943 -79.345769 
L 199.116641 -79.349494 
L 196.720339 -79.352602 
L 194.324037 -79.355195 
L 191.927735 -79.357358 
L 189.531433 -79.359162 
L 187.135131 -79.360666 
L 184.738829 -79.361921 
L 182.342527 -79.362967 
L 179.946225 -79.36384 
L 177.549923 -79.364567 
L 175.153621 -79.365174 
L 172.757319 -79.36568 
L 170.361017 -79.366102 
L 167.964715 -79.366454 
L 165.568413 -79.366747 
L 163.172111 -79.366992 
z
"/>
    </defs>
    <g clip-path="url(#pe0201e60db)">
     <use xlink:href="#m312305bf76" x="0" y="524.88" style="fill: #b78935; fill-opacity: 0.05"/>
    </g>
   </g>
   <g id="tf-bar-ND">
    <defs>
     <path id="mbeb9604d1b" d="M 400.406009 -128.778354 
L 400.406009 -486.945491 
L 426.765332 -486.945491 
L 426.765332 -128.778354 
L 426.765332 -128.778354 
L 400.406009 -128.778354 
z
"/>
    </defs>
    <g clip-path="url(#pe0201e60db)">
     <use xlink:href="#mbeb9604d1b" x="0" y="524.88" style="fill: #406992; fill-opacity: 0.25"/>
    </g>
   </g>
   <g id="tf-bar-YD">
    <defs>
     <path id="m6789e727f5" d="M 400.406009 -69.427309 
L 400.406009 -108.896536 
L 426.765332 -108.896536 
L 426.765332 -69.427309 
L 426.765332 -69.427309 
L 400.406009 -69.427309 
z
"/>
    </defs>
    <g clip-path="url(#pe0201e60db)">
     <use xlink:href="#m6789e727f5" x="0" y="524.88" style="fill: #b78935; fill-opacity: 0.25"/>
    </g>
   </g>
   <g id="tf-swoop-YD-ND">
    <defs>
     <path id="m612ceeecf2" d="M 426.765332 -99.430057 
L 426.765332 -108.895309 
L 429.161634 -108.895065 
L 431.557936 -108.894771 
L 433.954238 -108.89442 
L 436.35054 -108.893998 
L 438.746842 -108.893492 
L 441.143144 -108.892885 
L 443.539446 -108.892157 
L 445.935748 -108.891285 
L 448.33205 -108.890238 
L 450.728352 -108.888984 
L 453.124654 -108.887479 
L 455.520956 -108.885675 
L 457.917258 -108.883513 
L 460.31356 -108.88092 
L 462.709862 -108.877812 
L 465.106164 -108.874087 
L 467.502466 -108.869623 
L 469.898768 -108.864274 
L 472.29507 -108.857866 
L 474.691372 -108.850191 
L 477.087674 -108.841002 
L 479.483976 -108.830003 
L 481.880278 -108.816843 
L 484.27658 -108.801105 
L 486.672882 -108.782295 
L 489.069184 -108.759829 
L 491.465486 -108.733019 
L 493.861788 -108.701055 
L 496.25809 -108.662993 
L 498.654392 -108.617731 
L 501.050694 -108.563998 
L 503.446996 -108.500334 
L 505.843298 -108.42508 
L 508.2396 -108.33637 
L 510.635902 -108.23214 
L 513.032204 -108.110142 
L 515.428506 -107.967985 
L 517.824808 -107.803199 
L 520.22111 -107.613333 
L 522.617412 -107.396087 
L 525.013714 -107.149483 
L 527.410016 -106.87207 
L 529.806318 -106.563152 
L 532.20262 -106.223014 
L 534.598922 -105.853129 
L 536.995224 -105.456295 
L 539.391526 -105.036674 
L 541.787828 -104.5997 
L 544.18413 -104.151856 
L 546.580432 -103.700307 
L 548.976734 -103.252462 
L 551.373036 -102.815489 
L 553.769338 -102.395867 
L 556.16564 -101.999034 
L 558.561942 -101.629149 
L 560.958244 -101.289011 
L 563.354546 -100.980092 
L 565.750848 -100.702679 
L 568.14715 -100.456075 
L 570.543452 -100.238829 
L 572.939754 -100.048963 
L 575.336056 -99.884177 
L 577.732358 -99.74202 
L 580.12866 -99.620022 
L 582.524962 -99.515792 
L 584.921264 -99.427083 
L 587.317566 -99.351829 
L 589.713868 -99.288165 
L 592.11017 -99.234432 
L 594.506472 -99.18917 
L 596.902774 -99.151108 
L 599.299076 -99.119144 
L 601.695378 -99.092334 
L 604.09168 -99.069868 
L 606.487982 -99.051058 
L 608.884284 -99.03532 
L 611.280586 -99.02216 
L 613.676888 -99.011161 
L 616.07319 -99.001971 
L 618.469492 -98.994297 
L 620.865794 -98.987889 
L 623.262096 -98.98254 
L 625.658398 -98.978076 
L 628.0547 -98.974351 
L 630.451002 -98.971243 
L 632.847304 -98.96865 
L 635.243606 -98.966487 
L 637.639908 -98.964683 
L 640.03621 -98.963179 
L 642.432512 -98.961924 
L 644.828814 -98.960878 
L 647.225116 -98.960005 
L 649.621418 -98.959278 
L 652.01772 -98.958671 
L 654.414022 -98.958165 
L 656.810324 -98.957743 
L 659.206626 -98.957391 
L 661.602928 -98.957098 
L 663.99923 -98.956853 
L 663.99923 -89.491601 
L 663.99923 -89.491601 
L 661.602928 -89.491845 
L 659.206626 -89.492139 
L 656.810324 -89.492491 
L 654.414022 -89.492912 
L 652.01772 -89.493418 
L 649.621418 -89.494025 
L 647.225116 -89.494753 
L 644.828814 -89.495625 
L 642.432512 -89.496672 
L 640.03621 -89.497926 
L 637.639908 -89.499431 
L 635.243606 -89.501235 
L 632.847304 -89.503398 
L 630.451002 -89.50599 
L 628.0547 -89.509098 
L 625.658398 -89.512823 
L 623.262096 -89.517287 
L 620.865794 -89.522636 
L 618.469492 -89.529044 
L 616.07319 -89.536719 
L 613.676888 -89.545908 
L 611.280586 -89.556907 
L 608.884284 -89.570067 
L 606.487982 -89.585805 
L 604.09168 -89.604615 
L 601.695378 -89.627081 
L 599.299076 -89.653892 
L 596.902774 -89.685855 
L 594.506472 -89.723918 
L 592.11017 -89.769179 
L 589.713868 -89.822912 
L 587.317566 -89.886576 
L 584.921264 -89.961831 
L 582.524962 -90.05054 
L 580.12866 -90.15477 
L 577.732358 -90.276768 
L 575.336056 -90.418925 
L 572.939754 -90.583711 
L 570.543452 -90.773577 
L 568.14715 -90.990823 
L 565.750848 -91.237427 
L 563.354546 -91.51484 
L 560.958244 -91.823759 
L 558.561942 -92.163896 
L 556.16564 -92.533781 
L 553.769338 -92.930615 
L 551.373036 -93.350236 
L 548.976734 -93.78721 
L 546.580432 -94.235055 
L 544.18413 -94.686603 
L 541.787828 -95.134448 
L 539.391526 -95.571421 
L 536.995224 -95.991043 
L 534.598922 -96.387877 
L 532.20262 -96.757761 
L 529.806318 -97.097899 
L 527.410016 -97.406818 
L 525.013714 -97.684231 
L 522.617412 -97.930835 
L 520.22111 -98.148081 
L 517.824808 -98.337947 
L 515.428506 -98.502733 
L 513.032204 -98.64489 
L 510.635902 -98.766888 
L 508.2396 -98.871118 
L 505.843298 -98.959827 
L 503.446996 -99.035081 
L 501.050694 -99.098746 
L 498.654392 -99.152478 
L 496.25809 -99.19774 
L 493.861788 -99.235802 
L 491.465486 -99.267766 
L 489.069184 -99.294576 
L 486.672882 -99.317042 
L 484.27658 -99.335852 
L 481.880278 -99.35159 
L 479.483976 -99.36475 
L 477.087674 -99.375749 
L 474.691372 -99.384939 
L 472.29507 -99.392613 
L 469.898768 -99.399021 
L 467.502466 -99.40437 
L 465.106164 -99.408834 
L 462.709862 -99.412559 
L 460.31356 -99.415667 
L 457.917258 -99.41826 
L 455.520956 -99.420423 
L 453.124654 -99.422227 
L 450.728352 -99.423731 
L 448.33205 -99.424986 
L 445.935748 -99.426032 
L 443.539446 -99.426905 
L 441.143144 -99.427633 
L 438.746842 -99.428239 
L 436.35054 -99.428745 
L 433.954238 -99.429167 
L 431.557936 -99.429519 
L 429.161634 -99.429812 
L 426.765332 -99.430057 
z
"/>
    </defs>
    <g clip-path="url(#pe0201e60db)">
     <use xlink:href="#m612ceeecf2" x="0" y="524.88" style="fill: #dbc49a; fill-opacity: 0.05"/>
    </g>
   </g>
   <g id="tf-swoop-YD-YD">
    <defs>
     <path id="ma3049ef36d" d="M 426.765332 -69.423629 
L 426.765332 -99.427603 
L 429.161634 -99.42687 
L 431.557936 -99.42599 
L 433.954238 -99.424935 
L 436.35054 -99.423669 
L 438.746842 -99.422151 
L 441.143144 -99.420331 
L 443.539446 -99.418148 
L 445.935748 -99.41553 
L 448.33205 -99.412391 
L 450.728352 -99.408627 
L 453.124654 -99.404113 
L 455.520956 -99.398702 
L 457.917258 -99.392213 
L 460.31356 -99.384435 
L 462.709862 -99.375112 
L 465.106164 -99.363936 
L 467.502466 -99.350544 
L 469.898768 -99.334497 
L 472.29507 -99.315274 
L 474.691372 -99.29225 
L 477.087674 -99.264682 
L 479.483976 -99.231684 
L 481.880278 -99.192204 
L 484.27658 -99.14499 
L 486.672882 -99.088561 
L 489.069184 -99.021163 
L 491.465486 -98.940731 
L 493.861788 -98.844841 
L 496.25809 -98.730653 
L 498.654392 -98.594869 
L 501.050694 -98.43367 
L 503.446996 -98.242678 
L 505.843298 -98.016914 
L 508.2396 -97.750787 
L 510.635902 -97.438097 
L 513.032204 -97.072103 
L 515.428506 -96.645632 
L 517.824808 -96.151274 
L 520.22111 -95.581676 
L 522.617412 -94.929938 
L 525.013714 -94.190126 
L 527.410016 -93.357887 
L 529.806318 -92.431131 
L 532.20262 -91.410717 
L 534.598922 -90.301063 
L 536.995224 -89.110562 
L 539.391526 -87.851697 
L 541.787828 -86.540777 
L 544.18413 -85.197243 
L 546.580432 -83.842597 
L 548.976734 -82.499062 
L 551.373036 -81.188142 
L 553.769338 -79.929278 
L 556.16564 -78.738776 
L 558.561942 -77.629123 
L 560.958244 -76.608709 
L 563.354546 -75.681953 
L 565.750848 -74.849714 
L 568.14715 -74.109902 
L 570.543452 -73.458164 
L 572.939754 -72.888566 
L 575.336056 -72.394208 
L 577.732358 -71.967736 
L 580.12866 -71.601742 
L 582.524962 -71.289053 
L 584.921264 -71.022925 
L 587.317566 -70.797162 
L 589.713868 -70.60617 
L 592.11017 -70.444971 
L 594.506472 -70.309186 
L 596.902774 -70.194999 
L 599.299076 -70.099108 
L 601.695378 -70.018677 
L 604.09168 -69.951279 
L 606.487982 -69.894849 
L 608.884284 -69.847635 
L 611.280586 -69.808155 
L 613.676888 -69.775158 
L 616.07319 -69.74759 
L 618.469492 -69.724566 
L 620.865794 -69.705342 
L 623.262096 -69.689295 
L 625.658398 -69.675903 
L 628.0547 -69.664728 
L 630.451002 -69.655404 
L 632.847304 -69.647626 
L 635.243606 -69.641138 
L 637.639908 -69.635726 
L 640.03621 -69.631213 
L 642.432512 -69.627448 
L 644.828814 -69.624309 
L 647.225116 -69.621692 
L 649.621418 -69.619509 
L 652.01772 -69.617688 
L 654.414022 -69.61617 
L 656.810324 -69.614905 
L 659.206626 -69.61385 
L 661.602928 -69.61297 
L 663.99923 -69.612236 
L 663.99923 -39.608262 
L 663.99923 -39.608262 
L 661.602928 -39.608995 
L 659.206626 -39.609875 
L 656.810324 -39.610931 
L 654.414022 -39.612196 
L 652.01772 -39.613714 
L 649.621418 -39.615534 
L 647.225116 -39.617717 
L 644.828814 -39.620335 
L 642.432512 -39.623474 
L 640.03621 -39.627238 
L 637.639908 -39.631752 
L 635.243606 -39.637164 
L 632.847304 -39.643652 
L 630.451002 -39.65143 
L 628.0547 -39.660754 
L 625.658398 -39.671929 
L 623.262096 -39.685321 
L 620.865794 -39.701368 
L 618.469492 -39.720592 
L 616.07319 -39.743616 
L 613.676888 -39.771183 
L 611.280586 -39.804181 
L 608.884284 -39.843661 
L 606.487982 -39.890875 
L 604.09168 -39.947305 
L 601.695378 -40.014702 
L 599.299076 -40.095134 
L 596.902774 -40.191024 
L 594.506472 -40.305212 
L 592.11017 -40.440996 
L 589.713868 -40.602195 
L 587.317566 -40.793187 
L 584.921264 -41.018951 
L 582.524962 -41.285079 
L 580.12866 -41.597768 
L 577.732358 -41.963762 
L 575.336056 -42.390233 
L 572.939754 -42.884591 
L 570.543452 -43.454189 
L 568.14715 -44.105928 
L 565.750848 -44.84574 
L 563.354546 -45.677978 
L 560.958244 -46.604735 
L 558.561942 -47.625148 
L 556.16564 -48.734802 
L 553.769338 -49.925303 
L 551.373036 -51.184168 
L 548.976734 -52.495088 
L 546.580432 -53.838623 
L 544.18413 -55.193268 
L 541.787828 -56.536803 
L 539.391526 -57.847723 
L 536.995224 -59.106587 
L 534.598922 -60.297089 
L 532.20262 -61.406742 
L 529.806318 -62.427156 
L 527.410016 -63.353913 
L 525.013714 -64.186151 
L 522.617412 -64.925963 
L 520.22111 -65.577701 
L 517.824808 -66.1473 
L 515.428506 -66.641657 
L 513.032204 -67.068129 
L 510.635902 -67.434123 
L 508.2396 -67.746812 
L 505.843298 -68.01294 
L 503.446996 -68.238703 
L 501.050694 -68.429696 
L 498.654392 -68.590894 
L 496.25809 -68.726679 
L 493.861788 -68.840866 
L 491.465486 -68.936757 
L 489.069184 -69.017188 
L 486.672882 -69.084586 
L 484.27658 -69.141016 
L 481.880278 -69.18823 
L 479.483976 -69.22771 
L 477.087674 -69.260707 
L 474.691372 -69.288275 
L 472.29507 -69.311299 
L 469.898768 -69.330523 
L 467.502466 -69.34657 
L 465.106164 -69.359962 
L 462.709862 -69.371137 
L 460.31356 -69.380461 
L 457.917258 -69.388239 
L 455.520956 -69.394727 
L 453.124654 -69.400139 
L 450.728352 -69.404653 
L 448.33205 -69.408417 
L 445.935748 -69.411556 
L 443.539446 -69.414174 
L 441.143144 -69.416357 
L 438.746842 -69.418177 
L 436.35054 -69.419695 
L 433.954238 -69.42096 
L 431.557936 -69.422016 
L 429.161634 -69.422895 
L 426.765332 -69.423629 
z
"/>
    </defs>
    <g clip-path="url(#pe0201e60db)">
     <use xlink:href="#ma3049ef36d" x="0" y="524.88" style="fill: #b78935; fill-opacity: 0.05"/>
    </g>
   </g>
   <g id="tf-swoop-ND-YD">
    <defs>
     <path id="m755bc7cdd6" d="M 426.765332 -144.130988 
L 426.765332 -128.779581 
L 429.161634 -128.779825 
L 431.557936 -128.780119 
L 433.954238 -128.78047 
L 436.35054 -128.780892 
L 438.746842 -128.781398 
L 441.143144 -128.782005 
L 443.539446 -128.782732 
L 445.935748 -128.783605 
L 448.33205 -128.784651 
L 450.728352 -128.785906 
L 453.124654 -128.787411 
L 455.520956 -128.789215 
L 457.917258 -128.791377 
L 460.31356 -128.79397 
L 462.709862 -128.797078 
L 465.106164 -128.800803 
L 467.502466 -128.805267 
L 469.898768 -128.810616 
L 472.29507 -128.817024 
L 474.691372 -128.824699 
L 477.087674 -128.833888 
L 479.483976 -128.844887 
L 481.880278 -128.858047 
L 484.27658 -128.873785 
L 486.672882 -128.892595 
L 489.069184 -128.915061 
L 491.465486 -128.941871 
L 493.861788 -128.973835 
L 496.25809 -129.011897 
L 498.654392 -129.057159 
L 501.050694 -129.110892 
L 503.446996 -129.174556 
L 505.843298 -129.24981 
L 508.2396 -129.33852 
L 510.635902 -129.442749 
L 513.032204 -129.564747 
L 515.428506 -129.706905 
L 517.824808 -129.871691 
L 520.22111 -130.061557 
L 522.617412 -130.278803 
L 525.013714 -130.525407 
L 527.410016 -130.802819 
L 529.806318 -131.111738 
L 532.20262 -131.451876 
L 534.598922 -131.821761 
L 536.995224 -132.218595 
L 539.391526 -132.638216 
L 541.787828 -133.075189 
L 544.18413 -133.523034 
L 546.580432 -133.974583 
L 548.976734 -134.422428 
L 551.373036 -134.859401 
L 553.769338 -135.279023 
L 556.16564 -135.675856 
L 558.561942 -136.045741 
L 560.958244 -136.385879 
L 563.354546 -136.694798 
L 565.750848 -136.972211 
L 568.14715 -137.218814 
L 570.543452 -137.436061 
L 572.939754 -137.625927 
L 575.336056 -137.790713 
L 577.732358 -137.93287 
L 580.12866 -138.054868 
L 582.524962 -138.159097 
L 584.921264 -138.247807 
L 587.317566 -138.323061 
L 589.713868 -138.386725 
L 592.11017 -138.440458 
L 594.506472 -138.48572 
L 596.902774 -138.523782 
L 599.299076 -138.555746 
L 601.695378 -138.582556 
L 604.09168 -138.605022 
L 606.487982 -138.623832 
L 608.884284 -138.63957 
L 611.280586 -138.65273 
L 613.676888 -138.663729 
L 616.07319 -138.672919 
L 618.469492 -138.680593 
L 620.865794 -138.687001 
L 623.262096 -138.69235 
L 625.658398 -138.696814 
L 628.0547 -138.700539 
L 630.451002 -138.703647 
L 632.847304 -138.70624 
L 635.243606 -138.708403 
L 637.639908 -138.710206 
L 640.03621 -138.711711 
L 642.432512 -138.712966 
L 644.828814 -138.714012 
L 647.225116 -138.714885 
L 649.621418 -138.715612 
L 652.01772 -138.716219 
L 654.414022 -138.716725 
L 656.810324 -138.717147 
L 659.206626 -138.717499 
L 661.602928 -138.717792 
L 663.99923 -138.718036 
L 663.99923 -154.069444 
L 663.99923 -154.069444 
L 661.602928 -154.069199 
L 659.206626 -154.068906 
L 656.810324 -154.068554 
L 654.414022 -154.068133 
L 652.01772 -154.067627 
L 649.621418 -154.06702 
L 647.225116 -154.066292 
L 644.828814 -154.06542 
L 642.432512 -154.064373 
L 640.03621 -154.063118 
L 637.639908 -154.061614 
L 635.243606 -154.05981 
L 632.847304 -154.057647 
L 630.451002 -154.055055 
L 628.0547 -154.051947 
L 625.658398 -154.048222 
L 623.262096 -154.043758 
L 620.865794 -154.038409 
L 618.469492 -154.032001 
L 616.07319 -154.024326 
L 613.676888 -154.015137 
L 611.280586 -154.004138 
L 608.884284 -153.990978 
L 606.487982 -153.97524 
L 604.09168 -153.95643 
L 601.695378 -153.933964 
L 599.299076 -153.907153 
L 596.902774 -153.87519 
L 594.506472 -153.837127 
L 592.11017 -153.791866 
L 589.713868 -153.738133 
L 587.317566 -153.674469 
L 584.921264 -153.599214 
L 582.524962 -153.510505 
L 580.12866 -153.406275 
L 577.732358 -153.284277 
L 575.336056 -153.14212 
L 572.939754 -152.977334 
L 570.543452 -152.787468 
L 568.14715 -152.570222 
L 565.750848 -152.323618 
L 563.354546 -152.046205 
L 560.958244 -151.737286 
L 558.561942 -151.397148 
L 556.16564 -151.027264 
L 553.769338 -150.63043 
L 551.373036 -150.210809 
L 548.976734 -149.773835 
L 546.580432 -149.32599 
L 544.18413 -148.874442 
L 541.787828 -148.426597 
L 539.391526 -147.989624 
L 536.995224 -147.570002 
L 534.598922 -147.173168 
L 532.20262 -146.803284 
L 529.806318 -146.463146 
L 527.410016 -146.154227 
L 525.013714 -145.876814 
L 522.617412 -145.63021 
L 520.22111 -145.412964 
L 517.824808 -145.223098 
L 515.428506 -145.058312 
L 513.032204 -144.916155 
L 510.635902 -144.794157 
L 508.2396 -144.689927 
L 505.843298 -144.601218 
L 503.446996 -144.525963 
L 501.050694 -144.462299 
L 498.654392 -144.408566 
L 496.25809 -144.363305 
L 493.861788 -144.325242 
L 491.465486 -144.293279 
L 489.069184 -144.266468 
L 486.672882 -144.244003 
L 484.27658 -144.225193 
L 481.880278 -144.209455 
L 479.483976 -144.196295 
L 477.087674 -144.185295 
L 474.691372 -144.176106 
L 472.29507 -144.168431 
L 469.898768 -144.162024 
L 467.502466 -144.156675 
L 465.106164 -144.152211 
L 462.709862 -144.148485 
L 460.31356 -144.145378 
L 457.917258 -144.142785 
L 455.520956 -144.140622 
L 453.124654 -144.138818 
L 450.728352 -144.137314 
L 448.33205 -144.136059 
L 445.935748 -144.135013 
L 443.539446 -144.13414 
L 441.143144 -144.133412 
L 438.746842 -144.132806 
L 436.35054 -144.1323 
L 433.954238 -144.131878 
L 431.557936 -144.131526 
L 429.161634 -144.131233 
L 426.765332 -144.130988 
z
"/>
    </defs>
    <g clip-path="url(#pe0201e60db)">
     <use xlink:href="#m755bc7cdd6" x="0" y="524.88" style="fill: #9fb4c8; fill-opacity: 0.05"/>
    </g>
   </g>
   <g id="tf-swoop-ND-ND">
    <defs>
     <path id="m33c11d2eec" d="M 426.765332 -486.949171 
L 426.765332 -144.133442 
L 429.161634 -144.134175 
L 431.557936 -144.135055 
L 433.954238 -144.13611 
L 436.35054 -144.137376 
L 438.746842 -144.138894 
L 441.143144 -144.140714 
L 443.539446 -144.142897 
L 445.935748 -144.145515 
L 448.33205 -144.148654 
L 450.728352 -144.152418 
L 453.124654 -144.156932 
L 455.520956 -144.162343 
L 457.917258 -144.168831 
L 460.31356 -144.17661 
L 462.709862 -144.185933 
L 465.106164 -144.197108 
L 467.502466 -144.210501 
L 469.898768 -144.226548 
L 472.29507 -144.245771 
L 474.691372 -144.268795 
L 477.087674 -144.296363 
L 479.483976 -144.329361 
L 481.880278 -144.368841 
L 484.27658 -144.416055 
L 486.672882 -144.472484 
L 489.069184 -144.539882 
L 491.465486 -144.620314 
L 493.861788 -144.716204 
L 496.25809 -144.830391 
L 498.654392 -144.966176 
L 501.050694 -145.127375 
L 503.446996 -145.318367 
L 505.843298 -145.54413 
L 508.2396 -145.810258 
L 510.635902 -146.122948 
L 513.032204 -146.488942 
L 515.428506 -146.915413 
L 517.824808 -147.409771 
L 520.22111 -147.979369 
L 522.617412 -148.631107 
L 525.013714 -149.370919 
L 527.410016 -150.203158 
L 529.806318 -151.129914 
L 532.20262 -152.150328 
L 534.598922 -153.259982 
L 536.995224 -154.450483 
L 539.391526 -155.709348 
L 541.787828 -157.020268 
L 544.18413 -158.363802 
L 546.580432 -159.718448 
L 548.976734 -161.061982 
L 551.373036 -162.372903 
L 553.769338 -163.631767 
L 556.16564 -164.822268 
L 558.561942 -165.931922 
L 560.958244 -166.952336 
L 563.354546 -167.879092 
L 565.750848 -168.711331 
L 568.14715 -169.451143 
L 570.543452 -170.102881 
L 572.939754 -170.672479 
L 575.336056 -171.166837 
L 577.732358 -171.593309 
L 580.12866 -171.959303 
L 582.524962 -172.271992 
L 584.921264 -172.53812 
L 587.317566 -172.763883 
L 589.713868 -172.954875 
L 592.11017 -173.116074 
L 594.506472 -173.251859 
L 596.902774 -173.366046 
L 599.299076 -173.461937 
L 601.695378 -173.542368 
L 604.09168 -173.609766 
L 606.487982 -173.666196 
L 608.884284 -173.71341 
L 611.280586 -173.75289 
L 613.676888 -173.785887 
L 616.07319 -173.813455 
L 618.469492 -173.836479 
L 620.865794 -173.855703 
L 623.262096 -173.87175 
L 625.658398 -173.885142 
L 628.0547 -173.896317 
L 630.451002 -173.905641 
L 632.847304 -173.913419 
L 635.243606 -173.919907 
L 637.639908 -173.925319 
L 640.03621 -173.929832 
L 642.432512 -173.933597 
L 644.828814 -173.936736 
L 647.225116 -173.939353 
L 649.621418 -173.941536 
L 652.01772 -173.943357 
L 654.414022 -173.944874 
L 656.810324 -173.94614 
L 659.206626 -173.947195 
L 661.602928 -173.948075 
L 663.99923 -173.948809 
L 663.99923 -516.764538 
L 663.99923 -516.764538 
L 661.602928 -516.763805 
L 659.206626 -516.762925 
L 656.810324 -516.761869 
L 654.414022 -516.760604 
L 652.01772 -516.759086 
L 649.621418 -516.757266 
L 647.225116 -516.755083 
L 644.828814 -516.752465 
L 642.432512 -516.749326 
L 640.03621 -516.745562 
L 637.639908 -516.741048 
L 635.243606 -516.735636 
L 632.847304 -516.729148 
L 630.451002 -516.72137 
L 628.0547 -516.712046 
L 625.658398 -516.700871 
L 623.262096 -516.687479 
L 620.865794 -516.671432 
L 618.469492 -516.652208 
L 616.07319 -516.629184 
L 613.676888 -516.601617 
L 611.280586 -516.568619 
L 608.884284 -516.529139 
L 606.487982 -516.481925 
L 604.09168 -516.425495 
L 601.695378 -516.358098 
L 599.299076 -516.277666 
L 596.902774 -516.181776 
L 594.506472 -516.067588 
L 592.11017 -515.931804 
L 589.713868 -515.770605 
L 587.317566 -515.579613 
L 584.921264 -515.353849 
L 582.524962 -515.087721 
L 580.12866 -514.775032 
L 577.732358 -514.409038 
L 575.336056 -513.982567 
L 572.939754 -513.488209 
L 570.543452 -512.918611 
L 568.14715 -512.266872 
L 565.750848 -511.52706 
L 563.354546 -510.694822 
L 560.958244 -509.768065 
L 558.561942 -508.747652 
L 556.16564 -507.637998 
L 553.769338 -506.447497 
L 551.373036 -505.188632 
L 548.976734 -503.877712 
L 546.580432 -502.534177 
L 544.18413 -501.179532 
L 541.787828 -499.835997 
L 539.391526 -498.525077 
L 536.995224 -497.266213 
L 534.598922 -496.075711 
L 532.20262 -494.966058 
L 529.806318 -493.945644 
L 527.410016 -493.018887 
L 525.013714 -492.186649 
L 522.617412 -491.446837 
L 520.22111 -490.795099 
L 517.824808 -490.2255 
L 515.428506 -489.731143 
L 513.032204 -489.304671 
L 510.635902 -488.938677 
L 508.2396 -488.625988 
L 505.843298 -488.35986 
L 503.446996 -488.134097 
L 501.050694 -487.943104 
L 498.654392 -487.781906 
L 496.25809 -487.646121 
L 493.861788 -487.531934 
L 491.465486 -487.436043 
L 489.069184 -487.355612 
L 486.672882 -487.288214 
L 484.27658 -487.231784 
L 481.880278 -487.18457 
L 479.483976 -487.14509 
L 477.087674 -487.112093 
L 474.691372 -487.084525 
L 472.29507 -487.061501 
L 469.898768 -487.042277 
L 467.502466 -487.02623 
L 465.106164 -487.012838 
L 462.709862 -487.001663 
L 460.31356 -486.992339 
L 457.917258 -486.984561 
L 455.520956 -486.978073 
L 453.124654 -486.972661 
L 450.728352 -486.968147 
L 448.33205 -486.964383 
L 445.935748 -486.961244 
L 443.539446 -486.958626 
L 441.143144 -486.956443 
L 438.746842 -486.954623 
L 436.35054 -486.953105 
L 433.954238 -486.95184 
L 431.557936 -486.950784 
L 429.161634 -486.949905 
L 426.765332 -486.949171 
z
"/>
    </defs>
    <g clip-path="url(#pe0201e60db)">
     <use xlink:href="#m33c11d2eec" x="0" y="524.88" style="fill: #406992; fill-opacity: 0.05"/>
    </g>
   </g>
   <g id="tf-bar-YD-YD">
    <defs>
     <path id="m8d5cd22a74" d="M 663.99923 -39.604582 
L 663.99923 -69.608556 
L 690.358552 -69.608556 
L 690.358552 -39.604582 
L 690.358552 -39.604582 
L 663.99923 -39.604582 
z
"/>
    </defs>
    <g clip-path="url(#pe0201e60db)">
     <use xlink:href="#m8d5cd22a74" x="0" y="524.88" style="fill: #b78935; fill-opacity: 0.25"/>
    </g>
   </g>
   <g id="tf-bar-YD-ND">
    <defs>
     <path id="m9e3c05573d" d="M 663.99923 -89.490374 
L 663.99923 -98.955627 
L 690.358552 -98.955627 
L 690.358552 -89.490374 
L 690.358552 -89.490374 
L 663.99923 -89.490374 
z
"/>
    </defs>
    <g clip-path="url(#pe0201e60db)">
     <use xlink:href="#m9e3c05573d" x="0" y="524.88" style="fill: #dbc49a; fill-opacity: 0.25"/>
    </g>
   </g>
   <g id="tf-bar-ND-YD">
    <defs>
     <path id="m79220343fd" d="M 663.99923 -138.719263 
L 663.99923 -154.070671 
L 690.358552 -154.070671 
L 690.358552 -138.719263 
L 690.358552 -138.719263 
L 663.99923 -138.719263 
z
"/>
    </defs>
    <g clip-path="url(#pe0201e60db)">
     <use xlink:href="#m79220343fd" x="0" y="524.88" style="fill: #9fb4c8; fill-opacity: 0.25"/>
    </g>
   </g>
   <g id="tf-bar-ND-ND">
    <defs>
     <path id="m3eaa215472" d="M 663.99923 -173.952489 
L 663.99923 -516.768218 
L 690.358552 -516.768218 
L 690.358552 -173.952489 
L 690.358552 -173.952489 
L 663.99923 -173.952489 
z
"/>
    </defs>
    <g clip-path="url(#pe0201e60db)">
     <use xlink:href="#m3eaa215472" x="0" y="524.88" style="fill: #406992; fill-opacity: 0.25"/>
    </g>
   </g>
   <g id="text_1">
    <text style="font-weight: 300; font-size: 16px; font-family: 'Source Sans 3', sans-serif; fill: #494949" transform="translate(63.378128 241.98585)">All model</text>
    <text style="font-weight: 300; font-size: 16px; font-family: 'Source Sans 3', sans-serif; fill: #494949" transform="translate(51.410628 259.40135)">predictions</text>
   </g>
   <g id="tf-label-YD">
    <text style="font-weight: 300; font-size: 16px; font-family: 'Source Sans 3', sans-serif; fill: #494949; opacity: 0" transform="translate(272.736348 413.383078)">Severe or extreme</text>
    <text style="font-weight: 300; font-size: 16px; font-family: 'Source Sans 3', sans-serif; fill: #494949; opacity: 0" transform="translate(266.201348 431.029578)">streamflow dought</text>
    <text style="font-weight: 300; font-size: 16px; font-family: 'Source Sans 3', sans-serif; fill: #494949; opacity: 0" transform="translate(325.596348 448.637578)">predicted</text>
    <text style="font-weight: 300; font-size: 16px; font-family: 'Source Sans 3', sans-serif; fill: #494949; opacity: 0" transform="translate(356.026348 466.053078)">9.9%</text>
   </g>
   <g id="tf-label-ND">
    <text style="font-weight: 300; font-size: 16px; font-family: 'Source Sans 3', sans-serif; fill: #494949; opacity: 0" transform="translate(270.973848 194.798578)">Neither severe nor</text>
    <text style="font-weight: 300; font-size: 16px; font-family: 'Source Sans 3', sans-serif; fill: #494949; opacity: 0" transform="translate(260.766348 212.214078)">extreme streamflow</text>
    <text style="font-weight: 300; font-size: 16px; font-family: 'Source Sans 3', sans-serif; fill: #494949; opacity: 0" transform="translate(275.993848 229.629578)">dought predicted</text>
    <text style="font-weight: 300; font-size: 16px; font-family: 'Source Sans 3', sans-serif; fill: #494949; opacity: 0" transform="translate(348.473848 247.237578)">90.1%</text>
   </g>
   <g id="tf-label-YD-YD">
    <text style="font-weight: 300; font-size: 16px; font-family: 'Source Sans 3', sans-serif; fill: #494949; opacity: 0" transform="translate(589.764569 456.781431)">Did occur</text>
    <text style="font-weight: 300; font-size: 16px; font-family: 'Source Sans 3', sans-serif; fill: #494949; opacity: 0" transform="translate(563.329569 474.349931)">(true positive)</text>
    <text style="font-weight: 300; font-size: 16px; font-family: 'Source Sans 3', sans-serif; fill: #494949; opacity: 0" transform="translate(619.619569 491.765431)">7.5%</text>
   </g>
   <g id="tf-label-YD-ND">
    <text style="font-weight: 300; font-size: 16px; font-family: 'Source Sans 3', sans-serif; fill: #494949; opacity: 0" transform="translate(564.804569 417.126)">Did not occur</text>
    <text style="font-weight: 300; font-size: 16px; font-family: 'Source Sans 3', sans-serif; fill: #494949; opacity: 0" transform="translate(559.554569 434.7725)">(false positive)</text>
    <text style="font-weight: 300; font-size: 16px; font-family: 'Source Sans 3', sans-serif; fill: #494949; opacity: 0" transform="translate(619.619569 452.188)">2.4%</text>
   </g>
   <g id="tf-label-ND-YD">
    <text style="font-weight: 300; font-size: 16px; font-family: 'Source Sans 3', sans-serif; fill: #494949; opacity: 0" transform="translate(536.329569 347.230533)">Severe or extreme</text>
    <text style="font-weight: 300; font-size: 16px; font-family: 'Source Sans 3', sans-serif; fill: #494949; opacity: 0" transform="translate(524.899569 364.877033)">streamflow drought</text>
    <text style="font-weight: 300; font-size: 16px; font-family: 'Source Sans 3', sans-serif; fill: #494949; opacity: 0" transform="translate(593.574569 382.485033)">occurred</text>
    <text style="font-weight: 300; font-size: 16px; font-family: 'Source Sans 3', sans-serif; fill: #494949; opacity: 0" transform="translate(555.142069 400.131533)">(false negative)</text>
    <text style="font-weight: 300; font-size: 16px; font-family: 'Source Sans 3', sans-serif; fill: #494949; opacity: 0" transform="translate(619.619569 417.739533)">3.9%</text>
   </g>
   <g id="tf-label-ND-ND">
    <text style="font-weight: 300; font-size: 16px; font-family: 'Source Sans 3', sans-serif; fill: #494949; opacity: 0" transform="translate(534.567069 148.419646)">Neither severe nor</text>
    <text style="font-weight: 300; font-size: 16px; font-family: 'Source Sans 3', sans-serif; fill: #494949; opacity: 0" transform="translate(524.359569 165.835146)">extreme streamflow</text>
    <text style="font-weight: 300; font-size: 16px; font-family: 'Source Sans 3', sans-serif; fill: #494949; opacity: 0" transform="translate(543.972069 183.250646)">dought occurred</text>
    <text style="font-weight: 300; font-size: 16px; font-family: 'Source Sans 3', sans-serif; fill: #494949; opacity: 0" transform="translate(558.917069 201.011646)">(true negative)</text>
    <text style="font-weight: 300; font-size: 16px; font-family: 'Source Sans 3', sans-serif; fill: #494949; opacity: 0" transform="translate(612.067069 218.619646)">86.2%</text>
   </g>
  </g>
 </g>
 <defs>
  <clipPath id="pe0201e60db">
   <rect x="18.19584" y="-15.7464" width="699.84" height="524.88"/>
  </clipPath>
 </defs>
</svg>
