<?xml version="1.0" encoding="utf-8" standalone="no"?>
<!DOCTYPE svg PUBLIC "-//W3C//DTD SVG 1.1//EN"
  "http://www.w3.org/Graphics/SVG/1.1/DTD/svg11.dtd">
<svg xmlns:xlink="http://www.w3.org/1999/xlink" width="699.84px" height="524.88px" viewBox="0 0 699.84 524.88" xmlns="http://www.w3.org/2000/svg" version="1.1">
  <defs>
  <style type="text/css">*{stroke-linejoin: round; stroke-linecap: butt}</style>
 </defs>
 <g id="figure-forecast_truefalse_key">
  <g id="patch_1">
   <path d="M 0 524.88 
L 699.84 524.88 
L 699.84 0 
L 0 0 
z
" style="fill: #ffffff"/>
  </g>
  <g id="axis-forecast_truefalse_key">
   <g id="FillBetweenPolyCollection_1">
    <defs>
     <path id="m49756e818d" d="M 118.616949 -63.621818 
L 118.616949 -461.258182 
L 144.976271 -461.258182 
L 144.976271 -63.621818 
L 144.976271 -63.621818 
L 118.616949 -63.621818 
z
"/>
    </defs>
    <g clip-path="url(#p2918653acc)">
     <use xlink:href="#m49756e818d" x="0" y="524.88" style="fill: #00264c"/>
    </g>
   </g>
   <g id="tf-swoop-ND">
    <defs>
     <path id="m9a9575e6cf" d="M 144.976271 -461.259408 
L 144.976271 -145.714596 
L 147.372573 -145.714841 
L 149.768875 -145.715134 
L 152.165177 -145.715486 
L 154.561479 -145.715908 
L 156.957781 -145.716414 
L 159.354083 -145.71702 
L 161.750385 -145.717748 
L 164.146687 -145.718621 
L 166.542989 -145.719667 
L 168.939291 -145.720922 
L 171.335593 -145.722426 
L 173.731895 -145.72423 
L 176.128197 -145.726393 
L 178.524499 -145.728986 
L 180.920801 -145.732093 
L 183.317103 -145.735819 
L 185.713405 -145.740283 
L 188.109707 -145.745632 
L 190.506009 -145.752039 
L 192.902311 -145.759714 
L 195.298613 -145.768903 
L 197.694915 -145.779903 
L 200.091217 -145.793063 
L 202.487519 -145.808801 
L 204.883821 -145.827611 
L 207.280123 -145.850076 
L 209.676425 -145.876887 
L 212.072727 -145.90885 
L 214.469029 -145.946913 
L 216.865331 -145.992174 
L 219.261633 -146.045907 
L 221.657935 -146.109571 
L 224.054237 -146.184826 
L 226.450539 -146.273535 
L 228.846841 -146.377765 
L 231.243143 -146.499763 
L 233.639445 -146.64192 
L 236.035747 -146.806706 
L 238.432049 -146.996572 
L 240.828351 -147.213818 
L 243.224653 -147.460422 
L 245.620955 -147.737835 
L 248.017257 -148.046754 
L 250.413559 -148.386892 
L 252.809861 -148.756776 
L 255.206163 -149.15361 
L 257.602465 -149.573232 
L 259.998767 -150.010205 
L 262.395069 -150.45805 
L 264.791371 -150.909598 
L 267.187673 -151.357443 
L 269.583975 -151.794417 
L 271.980277 -152.214038 
L 274.376579 -152.610872 
L 276.772881 -152.980756 
L 279.169183 -153.320894 
L 281.565485 -153.629813 
L 283.961787 -153.907226 
L 286.358089 -154.15383 
L 288.754391 -154.371076 
L 291.150693 -154.560942 
L 293.546995 -154.725728 
L 295.943297 -154.867885 
L 298.339599 -154.989883 
L 300.735901 -155.094113 
L 303.132203 -155.182822 
L 305.528505 -155.258077 
L 307.924807 -155.321741 
L 310.321109 -155.375474 
L 312.717411 -155.420735 
L 315.113713 -155.458798 
L 317.510015 -155.490761 
L 319.906317 -155.517572 
L 322.302619 -155.540038 
L 324.698921 -155.558848 
L 327.095223 -155.574586 
L 329.491525 -155.587746 
L 331.887827 -155.598745 
L 334.284129 -155.607934 
L 336.680431 -155.615609 
L 339.076733 -155.622017 
L 341.473035 -155.627366 
L 343.869337 -155.63183 
L 346.265639 -155.635555 
L 348.661941 -155.638663 
L 351.058243 -155.641255 
L 353.454545 -155.643418 
L 355.850847 -155.645222 
L 358.247149 -155.646726 
L 360.643451 -155.647981 
L 363.039753 -155.649028 
L 365.436055 -155.6499 
L 367.832357 -155.650628 
L 370.228659 -155.651235 
L 372.624961 -155.651741 
L 375.021263 -155.652162 
L 377.417565 -155.652514 
L 379.813867 -155.652807 
L 382.210169 -155.653052 
L 382.210169 -471.197864 
L 382.210169 -471.197864 
L 379.813867 -471.19762 
L 377.417565 -471.197326 
L 375.021263 -471.196975 
L 372.624961 -471.196553 
L 370.228659 -471.196047 
L 367.832357 -471.19544 
L 365.436055 -471.194712 
L 363.039753 -471.19384 
L 360.643451 -471.192793 
L 358.247149 -471.191539 
L 355.850847 -471.190034 
L 353.454545 -471.18823 
L 351.058243 -471.186068 
L 348.661941 -471.183475 
L 346.265639 -471.180367 
L 343.869337 -471.176642 
L 341.473035 -471.172178 
L 339.076733 -471.166829 
L 336.680431 -471.160421 
L 334.284129 -471.152746 
L 331.887827 -471.143557 
L 329.491525 -471.132558 
L 327.095223 -471.119398 
L 324.698921 -471.10366 
L 322.302619 -471.08485 
L 319.906317 -471.062384 
L 317.510015 -471.035574 
L 315.113713 -471.00361 
L 312.717411 -470.965548 
L 310.321109 -470.920286 
L 307.924807 -470.866553 
L 305.528505 -470.802889 
L 303.132203 -470.727635 
L 300.735901 -470.638925 
L 298.339599 -470.534696 
L 295.943297 -470.412698 
L 293.546995 -470.27054 
L 291.150693 -470.105754 
L 288.754391 -469.915888 
L 286.358089 -469.698642 
L 283.961787 -469.452038 
L 281.565485 -469.174625 
L 279.169183 -468.865707 
L 276.772881 -468.525569 
L 274.376579 -468.155684 
L 271.980277 -467.75885 
L 269.583975 -467.339229 
L 267.187673 -466.902255 
L 264.791371 -466.454411 
L 262.395069 -466.002862 
L 259.998767 -465.555017 
L 257.602465 -465.118044 
L 255.206163 -464.698422 
L 252.809861 -464.301589 
L 250.413559 -463.931704 
L 248.017257 -463.591566 
L 245.620955 -463.282647 
L 243.224653 -463.005234 
L 240.828351 -462.75863 
L 238.432049 -462.541384 
L 236.035747 -462.351518 
L 233.639445 -462.186732 
L 231.243143 -462.044575 
L 228.846841 -461.922577 
L 226.450539 -461.818347 
L 224.054237 -461.729638 
L 221.657935 -461.654384 
L 219.261633 -461.59072 
L 216.865331 -461.536987 
L 214.469029 -461.491725 
L 212.072727 -461.453663 
L 209.676425 -461.421699 
L 207.280123 -461.394889 
L 204.883821 -461.372423 
L 202.487519 -461.353613 
L 200.091217 -461.337875 
L 197.694915 -461.324715 
L 195.298613 -461.313716 
L 192.902311 -461.304526 
L 190.506009 -461.296852 
L 188.109707 -461.290444 
L 185.713405 -461.285095 
L 183.317103 -461.280631 
L 180.920801 -461.276906 
L 178.524499 -461.273798 
L 176.128197 -461.271205 
L 173.731895 -461.269042 
L 171.335593 -461.267238 
L 168.939291 -461.265734 
L 166.542989 -461.264479 
L 164.146687 -461.263433 
L 161.750385 -461.26256 
L 159.354083 -461.261833 
L 156.957781 -461.261226 
L 154.561479 -461.26072 
L 152.165177 -461.260298 
L 149.768875 -461.259946 
L 147.372573 -461.259653 
L 144.976271 -461.259408 
z
"/>
    </defs>
    <g clip-path="url(#p2918653acc)">
     <use xlink:href="#m9a9575e6cf" x="0" y="524.88" style="fill: #406992; fill-opacity: 0.05"/>
    </g>
   </g>
   <g id="tf-swoop-YD">
    <defs>
     <path id="m61327ac6f2" d="M 144.976271 -63.620592 
L 144.976271 -145.712143 
L 147.372573 -145.711898 
L 149.768875 -145.711605 
L 152.165177 -145.711253 
L 154.561479 -145.710831 
L 156.957781 -145.710325 
L 159.354083 -145.709719 
L 161.750385 -145.708991 
L 164.146687 -145.708119 
L 166.542989 -145.707072 
L 168.939291 -145.705817 
L 171.335593 -145.704313 
L 173.731895 -145.702509 
L 176.128197 -145.700346 
L 178.524499 -145.697754 
L 180.920801 -145.694646 
L 183.317103 -145.690921 
L 185.713405 -145.686457 
L 188.109707 -145.681108 
L 190.506009 -145.6747 
L 192.902311 -145.667025 
L 195.298613 -145.657836 
L 197.694915 -145.646837 
L 200.091217 -145.633676 
L 202.487519 -145.617939 
L 204.883821 -145.599129 
L 207.280123 -145.576663 
L 209.676425 -145.549852 
L 212.072727 -145.517889 
L 214.469029 -145.479826 
L 216.865331 -145.434565 
L 219.261633 -145.380832 
L 221.657935 -145.317168 
L 224.054237 -145.241913 
L 226.450539 -145.153204 
L 228.846841 -145.048974 
L 231.243143 -144.926976 
L 233.639445 -144.784819 
L 236.035747 -144.620033 
L 238.432049 -144.430167 
L 240.828351 -144.212921 
L 243.224653 -143.966317 
L 245.620955 -143.688904 
L 248.017257 -143.379985 
L 250.413559 -143.039847 
L 252.809861 -142.669963 
L 255.206163 -142.273129 
L 257.602465 -141.853508 
L 259.998767 -141.416534 
L 262.395069 -140.968689 
L 264.791371 -140.517141 
L 267.187673 -140.069296 
L 269.583975 -139.632323 
L 271.980277 -139.212701 
L 274.376579 -138.815867 
L 276.772881 -138.445983 
L 279.169183 -138.105845 
L 281.565485 -137.796926 
L 283.961787 -137.519513 
L 286.358089 -137.272909 
L 288.754391 -137.055663 
L 291.150693 -136.865797 
L 293.546995 -136.701011 
L 295.943297 -136.558854 
L 298.339599 -136.436856 
L 300.735901 -136.332626 
L 303.132203 -136.243917 
L 305.528505 -136.168662 
L 307.924807 -136.104998 
L 310.321109 -136.051265 
L 312.717411 -136.006004 
L 315.113713 -135.967941 
L 317.510015 -135.935978 
L 319.906317 -135.909167 
L 322.302619 -135.886701 
L 324.698921 -135.867892 
L 327.095223 -135.852154 
L 329.491525 -135.838994 
L 331.887827 -135.827994 
L 334.284129 -135.818805 
L 336.680431 -135.81113 
L 339.076733 -135.804722 
L 341.473035 -135.799374 
L 343.869337 -135.794909 
L 346.265639 -135.791184 
L 348.661941 -135.788076 
L 351.058243 -135.785484 
L 353.454545 -135.783321 
L 355.850847 -135.781517 
L 358.247149 -135.780013 
L 360.643451 -135.778758 
L 363.039753 -135.777712 
L 365.436055 -135.776839 
L 367.832357 -135.776111 
L 370.228659 -135.775505 
L 372.624961 -135.774999 
L 375.021263 -135.774577 
L 377.417565 -135.774225 
L 379.813867 -135.773932 
L 382.210169 -135.773687 
L 382.210169 -53.682136 
L 382.210169 -53.682136 
L 379.813867 -53.68238 
L 377.417565 -53.682674 
L 375.021263 -53.683025 
L 372.624961 -53.683447 
L 370.228659 -53.683953 
L 367.832357 -53.68456 
L 365.436055 -53.685288 
L 363.039753 -53.68616 
L 360.643451 -53.687207 
L 358.247149 -53.688461 
L 355.850847 -53.689966 
L 353.454545 -53.69177 
L 351.058243 -53.693932 
L 348.661941 -53.696525 
L 346.265639 -53.699633 
L 343.869337 -53.703358 
L 341.473035 -53.707822 
L 339.076733 -53.713171 
L 336.680431 -53.719579 
L 334.284129 -53.727254 
L 331.887827 -53.736443 
L 329.491525 -53.747442 
L 327.095223 -53.760602 
L 324.698921 -53.77634 
L 322.302619 -53.79515 
L 319.906317 -53.817616 
L 317.510015 -53.844426 
L 315.113713 -53.87639 
L 312.717411 -53.914452 
L 310.321109 -53.959714 
L 307.924807 -54.013447 
L 305.528505 -54.077111 
L 303.132203 -54.152365 
L 300.735901 -54.241075 
L 298.339599 -54.345304 
L 295.943297 -54.467302 
L 293.546995 -54.60946 
L 291.150693 -54.774246 
L 288.754391 -54.964112 
L 286.358089 -55.181358 
L 283.961787 -55.427962 
L 281.565485 -55.705375 
L 279.169183 -56.014293 
L 276.772881 -56.354431 
L 274.376579 -56.724316 
L 271.980277 -57.12115 
L 269.583975 -57.540771 
L 267.187673 -57.977745 
L 264.791371 -58.425589 
L 262.395069 -58.877138 
L 259.998767 -59.324983 
L 257.602465 -59.761956 
L 255.206163 -60.181578 
L 252.809861 -60.578411 
L 250.413559 -60.948296 
L 248.017257 -61.288434 
L 245.620955 -61.597353 
L 243.224653 -61.874766 
L 240.828351 -62.12137 
L 238.432049 -62.338616 
L 236.035747 -62.528482 
L 233.639445 -62.693268 
L 231.243143 -62.835425 
L 228.846841 -62.957423 
L 226.450539 -63.061653 
L 224.054237 -63.150362 
L 221.657935 -63.225616 
L 219.261633 -63.28928 
L 216.865331 -63.343013 
L 214.469029 -63.388275 
L 212.072727 -63.426337 
L 209.676425 -63.458301 
L 207.280123 -63.485111 
L 204.883821 -63.507577 
L 202.487519 -63.526387 
L 200.091217 -63.542125 
L 197.694915 -63.555285 
L 195.298613 -63.566284 
L 192.902311 -63.575474 
L 190.506009 -63.583148 
L 188.109707 -63.589556 
L 185.713405 -63.594905 
L 183.317103 -63.599369 
L 180.920801 -63.603094 
L 178.524499 -63.606202 
L 176.128197 -63.608795 
L 173.731895 -63.610958 
L 171.335593 -63.612762 
L 168.939291 -63.614266 
L 166.542989 -63.615521 
L 164.146687 -63.616567 
L 161.750385 -63.61744 
L 159.354083 -63.618167 
L 156.957781 -63.618774 
L 154.561479 -63.61928 
L 152.165177 -63.619702 
L 149.768875 -63.620054 
L 147.372573 -63.620347 
L 144.976271 -63.620592 
z
"/>
    </defs>
    <g clip-path="url(#p2918653acc)">
     <use xlink:href="#m61327ac6f2" x="0" y="524.88" style="fill: #b78935; fill-opacity: 0.05"/>
    </g>
   </g>
   <g id="tf-bar-ND">
    <defs>
     <path id="m7ff04e97a1" d="M 382.210169 -155.654279 
L 382.210169 -471.199091 
L 408.569492 -471.199091 
L 408.569492 -155.654279 
L 408.569492 -155.654279 
L 382.210169 -155.654279 
z
"/>
    </defs>
    <g clip-path="url(#p2918653acc)">
     <use xlink:href="#m7ff04e97a1" x="0" y="524.88" style="fill: #406992; fill-opacity: 0.25"/>
    </g>
   </g>
   <g id="tf-bar-YD">
    <defs>
     <path id="mf8f8d98c0e" d="M 382.210169 -53.680909 
L 382.210169 -135.77246 
L 408.569492 -135.77246 
L 408.569492 -53.680909 
L 408.569492 -53.680909 
L 382.210169 -53.680909 
z
"/>
    </defs>
    <g clip-path="url(#p2918653acc)">
     <use xlink:href="#mf8f8d98c0e" x="0" y="524.88" style="fill: #b78935; fill-opacity: 0.25"/>
    </g>
   </g>
   <g id="tf-swoop-YD-ND">
    <defs>
     <path id="m0bf79440b7" d="M 408.569492 -118.683739 
L 408.569492 -135.771234 
L 410.965794 -135.770989 
L 413.362096 -135.770696 
L 415.758398 -135.770344 
L 418.1547 -135.769922 
L 420.551002 -135.769416 
L 422.947304 -135.76881 
L 425.343606 -135.768082 
L 427.739908 -135.767209 
L 430.13621 -135.766163 
L 432.532512 -135.764908 
L 434.928814 -135.763404 
L 437.325116 -135.7616 
L 439.721418 -135.759437 
L 442.11772 -135.756844 
L 444.514022 -135.753737 
L 446.910324 -135.750012 
L 449.306626 -135.745547 
L 451.702928 -135.740198 
L 454.09923 -135.733791 
L 456.495532 -135.726116 
L 458.891834 -135.716927 
L 461.288136 -135.705927 
L 463.684438 -135.692767 
L 466.08074 -135.677029 
L 468.477042 -135.65822 
L 470.873344 -135.635754 
L 473.269646 -135.608943 
L 475.665948 -135.57698 
L 478.06225 -135.538917 
L 480.458552 -135.493656 
L 482.854854 -135.439923 
L 485.251156 -135.376259 
L 487.647458 -135.301004 
L 490.04376 -135.212295 
L 492.440062 -135.108065 
L 494.836364 -134.986067 
L 497.232666 -134.84391 
L 499.628968 -134.679124 
L 502.02527 -134.489258 
L 504.421572 -134.272012 
L 506.817874 -134.025408 
L 509.214176 -133.747995 
L 511.610478 -133.439076 
L 514.00678 -133.098938 
L 516.403082 -132.729054 
L 518.799384 -132.33222 
L 521.195686 -131.912598 
L 523.591988 -131.475625 
L 525.98829 -131.02778 
L 528.384592 -130.576232 
L 530.780894 -130.128387 
L 533.177196 -129.691413 
L 535.573498 -129.271792 
L 537.9698 -128.874958 
L 540.366102 -128.505074 
L 542.762404 -128.164936 
L 545.158706 -127.856017 
L 547.555008 -127.578604 
L 549.95131 -127.332 
L 552.347612 -127.114754 
L 554.743914 -126.924888 
L 557.140216 -126.760102 
L 559.536518 -126.617945 
L 561.93282 -126.495947 
L 564.329122 -126.391717 
L 566.725424 -126.303008 
L 569.121726 -126.227753 
L 571.518028 -126.164089 
L 573.91433 -126.110356 
L 576.310632 -126.065095 
L 578.706934 -126.027032 
L 581.103236 -125.995069 
L 583.499538 -125.968258 
L 585.89584 -125.945792 
L 588.292142 -125.926982 
L 590.688444 -125.911244 
L 593.084746 -125.898084 
L 595.481048 -125.887085 
L 597.87735 -125.877896 
L 600.273652 -125.870221 
L 602.669954 -125.863813 
L 605.066256 -125.858464 
L 607.462558 -125.854 
L 609.85886 -125.850275 
L 612.255162 -125.847167 
L 614.651464 -125.844575 
L 617.047766 -125.842412 
L 619.444068 -125.840608 
L 621.84037 -125.839104 
L 624.236672 -125.837849 
L 626.632974 -125.836802 
L 629.029276 -125.83593 
L 631.425578 -125.835202 
L 633.82188 -125.834595 
L 636.218182 -125.83409 
L 638.614484 -125.833668 
L 641.010786 -125.833316 
L 643.407088 -125.833023 
L 645.80339 -125.832778 
L 645.80339 -108.745283 
L 645.80339 -108.745283 
L 643.407088 -108.745528 
L 641.010786 -108.745821 
L 638.614484 -108.746173 
L 636.218182 -108.746595 
L 633.82188 -108.747101 
L 631.425578 -108.747708 
L 629.029276 -108.748435 
L 626.632974 -108.749308 
L 624.236672 -108.750354 
L 621.84037 -108.751609 
L 619.444068 -108.753113 
L 617.047766 -108.754917 
L 614.651464 -108.75708 
L 612.255162 -108.759673 
L 609.85886 -108.762781 
L 607.462558 -108.766506 
L 605.066256 -108.77097 
L 602.669954 -108.776319 
L 600.273652 -108.782727 
L 597.87735 -108.790401 
L 595.481048 -108.799591 
L 593.084746 -108.81059 
L 590.688444 -108.82375 
L 588.292142 -108.839488 
L 585.89584 -108.858298 
L 583.499538 -108.880764 
L 581.103236 -108.907574 
L 578.706934 -108.939538 
L 576.310632 -108.9776 
L 573.91433 -109.022862 
L 571.518028 -109.076595 
L 569.121726 -109.140259 
L 566.725424 -109.215513 
L 564.329122 -109.304222 
L 561.93282 -109.408452 
L 559.536518 -109.53045 
L 557.140216 -109.672607 
L 554.743914 -109.837393 
L 552.347612 -110.027259 
L 549.95131 -110.244505 
L 547.555008 -110.491109 
L 545.158706 -110.768522 
L 542.762404 -111.077441 
L 540.366102 -111.417579 
L 537.9698 -111.787464 
L 535.573498 -112.184297 
L 533.177196 -112.603919 
L 530.780894 -113.040892 
L 528.384592 -113.488737 
L 525.98829 -113.940286 
L 523.591988 -114.38813 
L 521.195686 -114.825104 
L 518.799384 -115.244725 
L 516.403082 -115.641559 
L 514.00678 -116.011444 
L 511.610478 -116.351582 
L 509.214176 -116.6605 
L 506.817874 -116.937913 
L 504.421572 -117.184517 
L 502.02527 -117.401763 
L 499.628968 -117.591629 
L 497.232666 -117.756415 
L 494.836364 -117.898572 
L 492.440062 -118.02057 
L 490.04376 -118.1248 
L 487.647458 -118.21351 
L 485.251156 -118.288764 
L 482.854854 -118.352428 
L 480.458552 -118.406161 
L 478.06225 -118.451423 
L 475.665948 -118.489485 
L 473.269646 -118.521449 
L 470.873344 -118.548259 
L 468.477042 -118.570725 
L 466.08074 -118.589535 
L 463.684438 -118.605273 
L 461.288136 -118.618433 
L 458.891834 -118.629432 
L 456.495532 -118.638621 
L 454.09923 -118.646296 
L 451.702928 -118.652704 
L 449.306626 -118.658053 
L 446.910324 -118.662517 
L 444.514022 -118.666242 
L 442.11772 -118.66935 
L 439.721418 -118.671943 
L 437.325116 -118.674105 
L 434.928814 -118.675909 
L 432.532512 -118.677414 
L 430.13621 -118.678668 
L 427.739908 -118.679715 
L 425.343606 -118.680587 
L 422.947304 -118.681315 
L 420.551002 -118.681922 
L 418.1547 -118.682428 
L 415.758398 -118.68285 
L 413.362096 -118.683201 
L 410.965794 -118.683495 
L 408.569492 -118.683739 
z
"/>
    </defs>
    <g clip-path="url(#p2918653acc)">
     <use xlink:href="#m0bf79440b7" x="0" y="524.88" style="fill: #dbc49a; fill-opacity: 0.05"/>
    </g>
   </g>
   <g id="tf-swoop-YD-YD">
    <defs>
     <path id="m4b93a66dae" d="M 408.569492 -53.677229 
L 408.569492 -118.681286 
L 410.965794 -118.680552 
L 413.362096 -118.679672 
L 415.758398 -118.678617 
L 418.1547 -118.677351 
L 420.551002 -118.675834 
L 422.947304 -118.674013 
L 425.343606 -118.67183 
L 427.739908 -118.669213 
L 430.13621 -118.666074 
L 432.532512 -118.662309 
L 434.928814 -118.657796 
L 437.325116 -118.652384 
L 439.721418 -118.645896 
L 442.11772 -118.638118 
L 444.514022 -118.628794 
L 446.910324 -118.617619 
L 449.306626 -118.604227 
L 451.702928 -118.58818 
L 454.09923 -118.568956 
L 456.495532 -118.545932 
L 458.891834 -118.518364 
L 461.288136 -118.485367 
L 463.684438 -118.445887 
L 466.08074 -118.398673 
L 468.477042 -118.342243 
L 470.873344 -118.274845 
L 473.269646 -118.194414 
L 475.665948 -118.098523 
L 478.06225 -117.984336 
L 480.458552 -117.848551 
L 482.854854 -117.687352 
L 485.251156 -117.49636 
L 487.647458 -117.270597 
L 490.04376 -117.004469 
L 492.440062 -116.69178 
L 494.836364 -116.325786 
L 497.232666 -115.899314 
L 499.628968 -115.404956 
L 502.02527 -114.835358 
L 504.421572 -114.18362 
L 506.817874 -113.443808 
L 509.214176 -112.611569 
L 511.610478 -111.684813 
L 514.00678 -110.664399 
L 516.403082 -109.554745 
L 518.799384 -108.364244 
L 521.195686 -107.10538 
L 523.591988 -105.794459 
L 525.98829 -104.450925 
L 528.384592 -103.096279 
L 530.780894 -101.752745 
L 533.177196 -100.441825 
L 535.573498 -99.18296 
L 537.9698 -97.992459 
L 540.366102 -96.882805 
L 542.762404 -95.862391 
L 545.158706 -94.935635 
L 547.555008 -94.103396 
L 549.95131 -93.363584 
L 552.347612 -92.711846 
L 554.743914 -92.142248 
L 557.140216 -91.64789 
L 559.536518 -91.221419 
L 561.93282 -90.855425 
L 564.329122 -90.542735 
L 566.725424 -90.276607 
L 569.121726 -90.050844 
L 571.518028 -89.859852 
L 573.91433 -89.698653 
L 576.310632 -89.562868 
L 578.706934 -89.448681 
L 581.103236 -89.352791 
L 583.499538 -89.272359 
L 585.89584 -89.204961 
L 588.292142 -89.148532 
L 590.688444 -89.101318 
L 593.084746 -89.061838 
L 595.481048 -89.02884 
L 597.87735 -89.001272 
L 600.273652 -88.978248 
L 602.669954 -88.959025 
L 605.066256 -88.942978 
L 607.462558 -88.929585 
L 609.85886 -88.91841 
L 612.255162 -88.909087 
L 614.651464 -88.901308 
L 617.047766 -88.89482 
L 619.444068 -88.889409 
L 621.84037 -88.884895 
L 624.236672 -88.881131 
L 626.632974 -88.877992 
L 629.029276 -88.875374 
L 631.425578 -88.873191 
L 633.82188 -88.871371 
L 636.218182 -88.869853 
L 638.614484 -88.868587 
L 641.010786 -88.867532 
L 643.407088 -88.866652 
L 645.80339 -88.865919 
L 645.80339 -23.861862 
L 645.80339 -23.861862 
L 643.407088 -23.862595 
L 641.010786 -23.863475 
L 638.614484 -23.864531 
L 636.218182 -23.865796 
L 633.82188 -23.867314 
L 631.425578 -23.869134 
L 629.029276 -23.871317 
L 626.632974 -23.873935 
L 624.236672 -23.877074 
L 621.84037 -23.880838 
L 619.444068 -23.885352 
L 617.047766 -23.890764 
L 614.651464 -23.897252 
L 612.255162 -23.90503 
L 609.85886 -23.914354 
L 607.462558 -23.925529 
L 605.066256 -23.938921 
L 602.669954 -23.954968 
L 600.273652 -23.974192 
L 597.87735 -23.997216 
L 595.481048 -24.024783 
L 593.084746 -24.057781 
L 590.688444 -24.097261 
L 588.292142 -24.144475 
L 585.89584 -24.200905 
L 583.499538 -24.268302 
L 581.103236 -24.348734 
L 578.706934 -24.444624 
L 576.310632 -24.558812 
L 573.91433 -24.694596 
L 571.518028 -24.855795 
L 569.121726 -25.046787 
L 566.725424 -25.272551 
L 564.329122 -25.538679 
L 561.93282 -25.851368 
L 559.536518 -26.217362 
L 557.140216 -26.643833 
L 554.743914 -27.138191 
L 552.347612 -27.707789 
L 549.95131 -28.359528 
L 547.555008 -29.09934 
L 545.158706 -29.931578 
L 542.762404 -30.858335 
L 540.366102 -31.878748 
L 537.9698 -32.988402 
L 535.573498 -34.178903 
L 533.177196 -35.437768 
L 530.780894 -36.748688 
L 528.384592 -38.092223 
L 525.98829 -39.446868 
L 523.591988 -40.790403 
L 521.195686 -42.101323 
L 518.799384 -43.360187 
L 516.403082 -44.550689 
L 514.00678 -45.660342 
L 511.610478 -46.680756 
L 509.214176 -47.607513 
L 506.817874 -48.439751 
L 504.421572 -49.179563 
L 502.02527 -49.831301 
L 499.628968 -50.4009 
L 497.232666 -50.895257 
L 494.836364 -51.321729 
L 492.440062 -51.687723 
L 490.04376 -52.000412 
L 487.647458 -52.26654 
L 485.251156 -52.492303 
L 482.854854 -52.683296 
L 480.458552 -52.844494 
L 478.06225 -52.980279 
L 475.665948 -53.094466 
L 473.269646 -53.190357 
L 470.873344 -53.270788 
L 468.477042 -53.338186 
L 466.08074 -53.394616 
L 463.684438 -53.44183 
L 461.288136 -53.48131 
L 458.891834 -53.514307 
L 456.495532 -53.541875 
L 454.09923 -53.564899 
L 451.702928 -53.584123 
L 449.306626 -53.60017 
L 446.910324 -53.613562 
L 444.514022 -53.624737 
L 442.11772 -53.634061 
L 439.721418 -53.641839 
L 437.325116 -53.648327 
L 434.928814 -53.653739 
L 432.532512 -53.658253 
L 430.13621 -53.662017 
L 427.739908 -53.665156 
L 425.343606 -53.667774 
L 422.947304 -53.669957 
L 420.551002 -53.671777 
L 418.1547 -53.673295 
L 415.758398 -53.67456 
L 413.362096 -53.675616 
L 410.965794 -53.676495 
L 408.569492 -53.677229 
z
"/>
    </defs>
    <g clip-path="url(#p2918653acc)">
     <use xlink:href="#m4b93a66dae" x="0" y="524.88" style="fill: #b78935; fill-opacity: 0.05"/>
    </g>
   </g>
   <g id="tf-swoop-ND-YD">
    <defs>
     <path id="m96d1b7920c" d="M 408.569492 -176.2261 
L 408.569492 -155.655505 
L 410.965794 -155.65575 
L 413.362096 -155.656043 
L 415.758398 -155.656395 
L 418.1547 -155.656817 
L 420.551002 -155.657323 
L 422.947304 -155.65793 
L 425.343606 -155.658657 
L 427.739908 -155.65953 
L 430.13621 -155.660576 
L 432.532512 -155.661831 
L 434.928814 -155.663335 
L 437.325116 -155.665139 
L 439.721418 -155.667302 
L 442.11772 -155.669895 
L 444.514022 -155.673003 
L 446.910324 -155.676728 
L 449.306626 -155.681192 
L 451.702928 -155.686541 
L 454.09923 -155.692949 
L 456.495532 -155.700623 
L 458.891834 -155.709813 
L 461.288136 -155.720812 
L 463.684438 -155.733972 
L 466.08074 -155.74971 
L 468.477042 -155.76852 
L 470.873344 -155.790986 
L 473.269646 -155.817796 
L 475.665948 -155.84976 
L 478.06225 -155.887822 
L 480.458552 -155.933084 
L 482.854854 -155.986817 
L 485.251156 -156.050481 
L 487.647458 -156.125735 
L 490.04376 -156.214444 
L 492.440062 -156.318674 
L 494.836364 -156.440672 
L 497.232666 -156.582829 
L 499.628968 -156.747615 
L 502.02527 -156.937481 
L 504.421572 -157.154727 
L 506.817874 -157.401331 
L 509.214176 -157.678744 
L 511.610478 -157.987663 
L 514.00678 -158.327801 
L 516.403082 -158.697685 
L 518.799384 -159.094519 
L 521.195686 -159.514141 
L 523.591988 -159.951114 
L 525.98829 -160.398959 
L 528.384592 -160.850507 
L 530.780894 -161.298352 
L 533.177196 -161.735326 
L 535.573498 -162.154947 
L 537.9698 -162.551781 
L 540.366102 -162.921666 
L 542.762404 -163.261803 
L 545.158706 -163.570722 
L 547.555008 -163.848135 
L 549.95131 -164.094739 
L 552.347612 -164.311985 
L 554.743914 -164.501851 
L 557.140216 -164.666637 
L 559.536518 -164.808794 
L 561.93282 -164.930792 
L 564.329122 -165.035022 
L 566.725424 -165.123731 
L 569.121726 -165.198986 
L 571.518028 -165.26265 
L 573.91433 -165.316383 
L 576.310632 -165.361644 
L 578.706934 -165.399707 
L 581.103236 -165.43167 
L 583.499538 -165.458481 
L 585.89584 -165.480947 
L 588.292142 -165.499757 
L 590.688444 -165.515495 
L 593.084746 -165.528655 
L 595.481048 -165.539654 
L 597.87735 -165.548843 
L 600.273652 -165.556518 
L 602.669954 -165.562926 
L 605.066256 -165.568275 
L 607.462558 -165.572739 
L 609.85886 -165.576464 
L 612.255162 -165.579572 
L 614.651464 -165.582164 
L 617.047766 -165.584327 
L 619.444068 -165.586131 
L 621.84037 -165.587636 
L 624.236672 -165.58889 
L 626.632974 -165.589937 
L 629.029276 -165.590809 
L 631.425578 -165.591537 
L 633.82188 -165.592144 
L 636.218182 -165.59265 
L 638.614484 -165.593071 
L 641.010786 -165.593423 
L 643.407088 -165.593717 
L 645.80339 -165.593961 
L 645.80339 -186.164556 
L 645.80339 -186.164556 
L 643.407088 -186.164311 
L 641.010786 -186.164018 
L 638.614484 -186.163666 
L 636.218182 -186.163244 
L 633.82188 -186.162738 
L 631.425578 -186.162131 
L 629.029276 -186.161404 
L 626.632974 -186.160531 
L 624.236672 -186.159485 
L 621.84037 -186.15823 
L 619.444068 -186.156726 
L 617.047766 -186.154922 
L 614.651464 -186.152759 
L 612.255162 -186.150166 
L 609.85886 -186.147058 
L 607.462558 -186.143333 
L 605.066256 -186.138869 
L 602.669954 -186.13352 
L 600.273652 -186.127112 
L 597.87735 -186.119438 
L 595.481048 -186.110248 
L 593.084746 -186.099249 
L 590.688444 -186.086089 
L 588.292142 -186.070351 
L 585.89584 -186.051541 
L 583.499538 -186.029075 
L 581.103236 -186.002265 
L 578.706934 -185.970301 
L 576.310632 -185.932239 
L 573.91433 -185.886977 
L 571.518028 -185.833244 
L 569.121726 -185.76958 
L 566.725424 -185.694326 
L 564.329122 -185.605617 
L 561.93282 -185.501387 
L 559.536518 -185.379389 
L 557.140216 -185.237232 
L 554.743914 -185.072446 
L 552.347612 -184.88258 
L 549.95131 -184.665334 
L 547.555008 -184.41873 
L 545.158706 -184.141317 
L 542.762404 -183.832398 
L 540.366102 -183.49226 
L 537.9698 -183.122376 
L 535.573498 -182.725542 
L 533.177196 -182.30592 
L 530.780894 -181.868947 
L 528.384592 -181.421102 
L 525.98829 -180.969553 
L 523.591988 -180.521709 
L 521.195686 -180.084735 
L 518.799384 -179.665114 
L 516.403082 -179.26828 
L 514.00678 -178.898395 
L 511.610478 -178.558257 
L 509.214176 -178.249339 
L 506.817874 -177.971926 
L 504.421572 -177.725322 
L 502.02527 -177.508076 
L 499.628968 -177.31821 
L 497.232666 -177.153424 
L 494.836364 -177.011267 
L 492.440062 -176.889269 
L 490.04376 -176.785039 
L 487.647458 -176.69633 
L 485.251156 -176.621075 
L 482.854854 -176.557411 
L 480.458552 -176.503678 
L 478.06225 -176.458417 
L 475.665948 -176.420354 
L 473.269646 -176.388391 
L 470.873344 -176.36158 
L 468.477042 -176.339114 
L 466.08074 -176.320304 
L 463.684438 -176.304566 
L 461.288136 -176.291406 
L 458.891834 -176.280407 
L 456.495532 -176.271218 
L 454.09923 -176.263543 
L 451.702928 -176.257135 
L 449.306626 -176.251786 
L 446.910324 -176.247322 
L 444.514022 -176.243597 
L 442.11772 -176.240489 
L 439.721418 -176.237897 
L 437.325116 -176.235734 
L 434.928814 -176.23393 
L 432.532512 -176.232425 
L 430.13621 -176.231171 
L 427.739908 -176.230124 
L 425.343606 -176.229252 
L 422.947304 -176.228524 
L 420.551002 -176.227917 
L 418.1547 -176.227411 
L 415.758398 -176.22699 
L 413.362096 -176.226638 
L 410.965794 -176.226344 
L 408.569492 -176.2261 
z
"/>
    </defs>
    <g clip-path="url(#p2918653acc)">
     <use xlink:href="#m96d1b7920c" x="0" y="524.88" style="fill: #9fb4c8; fill-opacity: 0.05"/>
    </g>
   </g>
   <g id="tf-swoop-ND-ND">
    <defs>
     <path id="m8c4a384225" d="M 408.569492 -471.202771 
L 408.569492 -176.228553 
L 410.965794 -176.229287 
L 413.362096 -176.230167 
L 415.758398 -176.231222 
L 418.1547 -176.232488 
L 420.551002 -176.234005 
L 422.947304 -176.235826 
L 425.343606 -176.238009 
L 427.739908 -176.240626 
L 430.13621 -176.243766 
L 432.532512 -176.24753 
L 434.928814 -176.252043 
L 437.325116 -176.257455 
L 439.721418 -176.263943 
L 442.11772 -176.271721 
L 444.514022 -176.281045 
L 446.910324 -176.29222 
L 449.306626 -176.305612 
L 451.702928 -176.321659 
L 454.09923 -176.340883 
L 456.495532 -176.363907 
L 458.891834 -176.391475 
L 461.288136 -176.424472 
L 463.684438 -176.463953 
L 466.08074 -176.511166 
L 468.477042 -176.567596 
L 470.873344 -176.634994 
L 473.269646 -176.715425 
L 475.665948 -176.811316 
L 478.06225 -176.925503 
L 480.458552 -177.061288 
L 482.854854 -177.222487 
L 485.251156 -177.413479 
L 487.647458 -177.639242 
L 490.04376 -177.90537 
L 492.440062 -178.218059 
L 494.836364 -178.584053 
L 497.232666 -179.010525 
L 499.628968 -179.504883 
L 502.02527 -180.074481 
L 504.421572 -180.726219 
L 506.817874 -181.466031 
L 509.214176 -182.29827 
L 511.610478 -183.225026 
L 514.00678 -184.24544 
L 516.403082 -185.355094 
L 518.799384 -186.545595 
L 521.195686 -187.804459 
L 523.591988 -189.11538 
L 525.98829 -190.458914 
L 528.384592 -191.81356 
L 530.780894 -193.157094 
L 533.177196 -194.468014 
L 535.573498 -195.726879 
L 537.9698 -196.91738 
L 540.366102 -198.027034 
L 542.762404 -199.047448 
L 545.158706 -199.974204 
L 547.555008 -200.806443 
L 549.95131 -201.546255 
L 552.347612 -202.197993 
L 554.743914 -202.767591 
L 557.140216 -203.261949 
L 559.536518 -203.68842 
L 561.93282 -204.054414 
L 564.329122 -204.367104 
L 566.725424 -204.633232 
L 569.121726 -204.858995 
L 571.518028 -205.049987 
L 573.91433 -205.211186 
L 576.310632 -205.346971 
L 578.706934 -205.461158 
L 581.103236 -205.557049 
L 583.499538 -205.63748 
L 585.89584 -205.704878 
L 588.292142 -205.761307 
L 590.688444 -205.808521 
L 593.084746 -205.848001 
L 595.481048 -205.880999 
L 597.87735 -205.908567 
L 600.273652 -205.931591 
L 602.669954 -205.950814 
L 605.066256 -205.966861 
L 607.462558 -205.980254 
L 609.85886 -205.991429 
L 612.255162 -206.000753 
L 614.651464 -206.008531 
L 617.047766 -206.015019 
L 619.444068 -206.02043 
L 621.84037 -206.024944 
L 624.236672 -206.028708 
L 626.632974 -206.031847 
L 629.029276 -206.034465 
L 631.425578 -206.036648 
L 633.82188 -206.038468 
L 636.218182 -206.039986 
L 638.614484 -206.041252 
L 641.010786 -206.042307 
L 643.407088 -206.043187 
L 645.80339 -206.043921 
L 645.80339 -501.018138 
L 645.80339 -501.018138 
L 643.407088 -501.017405 
L 641.010786 -501.016525 
L 638.614484 -501.015469 
L 636.218182 -501.014204 
L 633.82188 -501.012686 
L 631.425578 -501.010866 
L 629.029276 -501.008683 
L 626.632974 -501.006065 
L 624.236672 -501.002926 
L 621.84037 -500.999162 
L 619.444068 -500.994648 
L 617.047766 -500.989236 
L 614.651464 -500.982748 
L 612.255162 -500.97497 
L 609.85886 -500.965646 
L 607.462558 -500.954471 
L 605.066256 -500.941079 
L 602.669954 -500.925032 
L 600.273652 -500.905808 
L 597.87735 -500.882784 
L 595.481048 -500.855217 
L 593.084746 -500.822219 
L 590.688444 -500.782739 
L 588.292142 -500.735525 
L 585.89584 -500.679095 
L 583.499538 -500.611698 
L 581.103236 -500.531266 
L 578.706934 -500.435376 
L 576.310632 -500.321188 
L 573.91433 -500.185404 
L 571.518028 -500.024205 
L 569.121726 -499.833213 
L 566.725424 -499.607449 
L 564.329122 -499.341321 
L 561.93282 -499.028632 
L 559.536518 -498.662638 
L 557.140216 -498.236167 
L 554.743914 -497.741809 
L 552.347612 -497.172211 
L 549.95131 -496.520472 
L 547.555008 -495.78066 
L 545.158706 -494.948422 
L 542.762404 -494.021665 
L 540.366102 -493.001252 
L 537.9698 -491.891598 
L 535.573498 -490.701097 
L 533.177196 -489.442232 
L 530.780894 -488.131312 
L 528.384592 -486.787777 
L 525.98829 -485.433132 
L 523.591988 -484.089597 
L 521.195686 -482.778677 
L 518.799384 -481.519813 
L 516.403082 -480.329311 
L 514.00678 -479.219658 
L 511.610478 -478.199244 
L 509.214176 -477.272487 
L 506.817874 -476.440249 
L 504.421572 -475.700437 
L 502.02527 -475.048699 
L 499.628968 -474.4791 
L 497.232666 -473.984743 
L 494.836364 -473.558271 
L 492.440062 -473.192277 
L 490.04376 -472.879588 
L 487.647458 -472.61346 
L 485.251156 -472.387697 
L 482.854854 -472.196704 
L 480.458552 -472.035506 
L 478.06225 -471.899721 
L 475.665948 -471.785534 
L 473.269646 -471.689643 
L 470.873344 -471.609212 
L 468.477042 -471.541814 
L 466.08074 -471.485384 
L 463.684438 -471.43817 
L 461.288136 -471.39869 
L 458.891834 -471.365693 
L 456.495532 -471.338125 
L 454.09923 -471.315101 
L 451.702928 -471.295877 
L 449.306626 -471.27983 
L 446.910324 -471.266438 
L 444.514022 -471.255263 
L 442.11772 -471.245939 
L 439.721418 -471.238161 
L 437.325116 -471.231673 
L 434.928814 -471.226261 
L 432.532512 -471.221747 
L 430.13621 -471.217983 
L 427.739908 -471.214844 
L 425.343606 -471.212226 
L 422.947304 -471.210043 
L 420.551002 -471.208223 
L 418.1547 -471.206705 
L 415.758398 -471.20544 
L 413.362096 -471.204384 
L 410.965794 -471.203505 
L 408.569492 -471.202771 
z
"/>
    </defs>
    <g clip-path="url(#p2918653acc)">
     <use xlink:href="#m8c4a384225" x="0" y="524.88" style="fill: #406992; fill-opacity: 0.05"/>
    </g>
   </g>
   <g id="tf-bar-YD-YD">
    <defs>
     <path id="m6fa7d7479f" d="M 645.80339 -23.858182 
L 645.80339 -88.862239 
L 672.162712 -88.862239 
L 672.162712 -23.858182 
L 672.162712 -23.858182 
L 645.80339 -23.858182 
z
"/>
    </defs>
    <g clip-path="url(#p2918653acc)">
     <use xlink:href="#m6fa7d7479f" x="0" y="524.88" style="fill: #b78935; fill-opacity: 0.25"/>
    </g>
   </g>
   <g id="tf-bar-YD-ND">
    <defs>
     <path id="m102240b47e" d="M 645.80339 -108.744057 
L 645.80339 -125.831551 
L 672.162712 -125.831551 
L 672.162712 -108.744057 
L 672.162712 -108.744057 
L 645.80339 -108.744057 
z
"/>
    </defs>
    <g clip-path="url(#p2918653acc)">
     <use xlink:href="#m102240b47e" x="0" y="524.88" style="fill: #dbc49a; fill-opacity: 0.25"/>
    </g>
   </g>
   <g id="tf-bar-ND-YD">
    <defs>
     <path id="m8a34c2f848" d="M 645.80339 -165.595188 
L 645.80339 -186.165782 
L 672.162712 -186.165782 
L 672.162712 -165.595188 
L 672.162712 -165.595188 
L 645.80339 -165.595188 
z
"/>
    </defs>
    <g clip-path="url(#p2918653acc)">
     <use xlink:href="#m8a34c2f848" x="0" y="524.88" style="fill: #9fb4c8; fill-opacity: 0.25"/>
    </g>
   </g>
   <g id="tf-bar-ND-ND">
    <defs>
     <path id="m26180182a5" d="M 645.80339 -206.047601 
L 645.80339 -501.021818 
L 672.162712 -501.021818 
L 672.162712 -206.047601 
L 672.162712 -206.047601 
L 645.80339 -206.047601 
z
"/>
    </defs>
    <g clip-path="url(#p2918653acc)">
     <use xlink:href="#m26180182a5" x="0" y="524.88" style="fill: #406992; fill-opacity: 0.25"/>
    </g>
   </g>
   <g id="text_1">
    <text style="font-weight: 300; font-size: 16px; font-family: 'Source Sans 3', sans-serif; fill: #595959" transform="translate(45.182288 257.73225)">All model</text>
    <text style="font-weight: 300; font-size: 16px; font-family: 'Source Sans 3', sans-serif; fill: #595959" transform="translate(33.214788 275.14775)">predictions</text>
   </g>
   <g id="tf-label-YD">
    <text style="font-weight: 300; font-size: 16px; font-family: 'Source Sans 3', sans-serif; fill: #595959; opacity: 0" transform="translate(274.440508 425.349315)">Model predicts</text>
    <text style="font-weight: 300; font-size: 16px; font-family: 'Source Sans 3', sans-serif; fill: #595959; opacity: 0" transform="translate(267.875508 442.764815)">drought - 20.6%</text>
   </g>
   <g id="tf-label-ND">
    <text style="font-weight: 300; font-size: 16px; font-family: 'Source Sans 3', sans-serif; fill: #595959; opacity: 0" transform="translate(274.440508 206.649315)">Model predicts</text>
    <text style="font-weight: 300; font-size: 16px; font-family: 'Source Sans 3', sans-serif; fill: #595959; opacity: 0" transform="translate(247.748008 224.064815)">no drought - 79.4%</text>
   </g>
   <g id="tf-label-YD-YD">
    <text style="font-weight: 300; font-size: 16px; font-family: 'Source Sans 3', sans-serif; fill: #595959; opacity: 0" transform="translate(532.753729 446.22379)">Model detected</text>
    <text style="font-weight: 300; font-size: 16px; font-family: 'Source Sans 3', sans-serif; fill: #595959; opacity: 0" transform="translate(557.293729 463.63929)">the drought</text>
    <text style="font-weight: 300; font-size: 16px; font-family: 'Source Sans 3', sans-serif; fill: #595959; opacity: 0" transform="translate(545.133729 481.40029)">(true positive)</text>
    <text style="font-weight: 300; font-size: 16px; font-family: 'Source Sans 3', sans-serif; fill: #595959; opacity: 0" transform="translate(593.871229 498.81579)">16.3%</text>
   </g>
   <g id="tf-label-YD-ND">
    <text style="font-weight: 300; font-size: 16px; font-family: 'Source Sans 3', sans-serif; fill: #595959; opacity: 0" transform="translate(539.056229 385.160946)">Model wrongly</text>
    <text style="font-weight: 300; font-size: 16px; font-family: 'Source Sans 3', sans-serif; fill: #595959; opacity: 0" transform="translate(516.496229 402.768946)">predicted drought</text>
    <text style="font-weight: 300; font-size: 16px; font-family: 'Source Sans 3', sans-serif; fill: #595959; opacity: 0" transform="translate(541.358729 420.607946)">(false positive)</text>
    <text style="font-weight: 300; font-size: 16px; font-family: 'Source Sans 3', sans-serif; fill: #595959; opacity: 0" transform="translate(601.423729 438.023446)">4.3%</text>
   </g>
   <g id="tf-label-ND-YD">
    <text style="font-weight: 300; font-size: 16px; font-family: 'Source Sans 3', sans-serif; fill: #595959; opacity: 0" transform="translate(544.241229 326.568265)">Model missed</text>
    <text style="font-weight: 300; font-size: 16px; font-family: 'Source Sans 3', sans-serif; fill: #595959; opacity: 0" transform="translate(557.293729 343.983765)">the drought</text>
    <text style="font-weight: 300; font-size: 16px; font-family: 'Source Sans 3', sans-serif; fill: #595959; opacity: 0" transform="translate(536.946229 361.822765)">(false negative)</text>
    <text style="font-weight: 300; font-size: 16px; font-family: 'Source Sans 3', sans-serif; fill: #595959; opacity: 0" transform="translate(601.423729 379.430765)">5.2%</text>
   </g>
   <g id="tf-label-ND-ND">
    <text style="font-weight: 300; font-size: 16px; font-family: 'Source Sans 3', sans-serif; fill: #595959; opacity: 0" transform="translate(559.501229 148.953041)">No drought</text>
    <text style="font-weight: 300; font-size: 16px; font-family: 'Source Sans 3', sans-serif; fill: #595959; opacity: 0" transform="translate(575.378729 166.561041)">occurred</text>
    <text style="font-weight: 300; font-size: 16px; font-family: 'Source Sans 3', sans-serif; fill: #595959; opacity: 0" transform="translate(540.721229 184.129541)">(true negative)</text>
    <text style="font-weight: 300; font-size: 16px; font-family: 'Source Sans 3', sans-serif; fill: #595959; opacity: 0" transform="translate(593.871229 201.737541)">74.2%</text>
   </g>
  </g>
 </g>
 <defs>
  <clipPath id="p2918653acc">
   <rect x="0" y="0" width="699.84" height="524.88"/>
  </clipPath>
 </defs>
</svg>
