<?xml version="1.0" encoding="utf-8" standalone="no"?>
<!DOCTYPE svg PUBLIC "-//W3C//DTD SVG 1.1//EN"
  "http://www.w3.org/Graphics/SVG/1.1/DTD/svg11.dtd">
<svg xmlns:xlink="http://www.w3.org/1999/xlink" width="699.84px" height="524.88px" viewBox="0 0 699.84 524.88" xmlns="http://www.w3.org/2000/svg" version="1.1">
  <defs>
  <style type="text/css">*{stroke-linejoin: round; stroke-linecap: butt}</style>
 </defs>
 <g id="figure-forecast_truefalse_key">
  <g id="patch_1">
   <path d="M 0 524.88 
L 699.84 524.88 
L 699.84 0 
L 0 0 
z
" style="fill: #ffffff"/>
  </g>
  <g id="axis-forecast_truefalse_key">
   <g id="FillBetweenPolyCollection_1">
    <defs>
     <path id="m148c014b7e" d="M 136.812789 -79.368218 
L 136.812789 -477.004582 
L 163.172111 -477.004582 
L 163.172111 -79.368218 
L 163.172111 -79.368218 
L 136.812789 -79.368218 
z
"/>
    </defs>
    <g clip-path="url(#p471c1f8110)">
     <use xlink:href="#m148c014b7e" x="0" y="524.88" style="fill: #00264c"/>
    </g>
   </g>
   <g id="tf-swoop-ND">
    <defs>
     <path id="m56ee51ea28" d="M 163.172111 -477.005808 
L 163.172111 -124.791383 
L 165.568413 -124.791627 
L 167.964715 -124.791921 
L 170.361017 -124.792273 
L 172.757319 -124.792694 
L 175.153621 -124.7932 
L 177.549923 -124.793807 
L 179.946225 -124.794535 
L 182.342527 -124.795407 
L 184.738829 -124.796454 
L 187.135131 -124.797708 
L 189.531433 -124.799213 
L 191.927735 -124.801017 
L 194.324037 -124.80318 
L 196.720339 -124.805772 
L 199.116641 -124.80888 
L 201.512943 -124.812605 
L 203.909245 -124.817069 
L 206.305547 -124.822418 
L 208.701849 -124.828826 
L 211.098151 -124.836501 
L 213.494453 -124.84569 
L 215.890755 -124.856689 
L 218.287057 -124.869849 
L 220.683359 -124.885587 
L 223.079661 -124.904397 
L 225.475963 -124.926863 
L 227.872265 -124.953674 
L 230.268567 -124.985637 
L 232.664869 -125.0237 
L 235.061171 -125.068961 
L 237.457473 -125.122694 
L 239.853775 -125.186358 
L 242.250077 -125.261613 
L 244.646379 -125.350322 
L 247.042681 -125.454552 
L 249.438983 -125.57655 
L 251.835285 -125.718707 
L 254.231587 -125.883493 
L 256.627889 -126.073359 
L 259.024191 -126.290605 
L 261.420493 -126.537209 
L 263.816795 -126.814622 
L 266.213097 -127.123541 
L 268.609399 -127.463678 
L 271.005701 -127.833563 
L 273.402003 -128.230397 
L 275.798305 -128.650018 
L 278.194607 -129.086992 
L 280.590909 -129.534837 
L 282.987211 -129.986385 
L 285.383513 -130.43423 
L 287.779815 -130.871203 
L 290.176117 -131.290825 
L 292.572419 -131.687659 
L 294.968721 -132.057543 
L 297.365023 -132.397681 
L 299.761325 -132.7066 
L 302.157627 -132.984013 
L 304.553929 -133.230617 
L 306.950231 -133.447863 
L 309.346533 -133.637729 
L 311.742835 -133.802515 
L 314.139137 -133.944672 
L 316.535439 -134.06667 
L 318.931741 -134.1709 
L 321.328043 -134.259609 
L 323.724345 -134.334863 
L 326.120647 -134.398528 
L 328.516949 -134.45226 
L 330.913251 -134.497522 
L 333.309553 -134.535584 
L 335.705855 -134.567548 
L 338.102157 -134.594358 
L 340.498459 -134.616824 
L 342.894761 -134.635634 
L 345.291063 -134.651372 
L 347.687365 -134.664532 
L 350.083667 -134.675531 
L 352.479969 -134.684721 
L 354.876271 -134.692395 
L 357.272573 -134.698803 
L 359.668875 -134.704152 
L 362.065177 -134.708616 
L 364.461479 -134.712341 
L 366.857781 -134.715449 
L 369.254083 -134.718042 
L 371.650385 -134.720205 
L 374.046687 -134.722009 
L 376.442989 -134.723513 
L 378.839291 -134.724768 
L 381.235593 -134.725814 
L 383.631895 -134.726687 
L 386.028197 -134.727415 
L 388.424499 -134.728021 
L 390.820801 -134.728527 
L 393.217103 -134.728949 
L 395.613405 -134.729301 
L 398.009707 -134.729594 
L 400.406009 -134.729839 
L 400.406009 -486.944264 
L 400.406009 -486.944264 
L 398.009707 -486.94402 
L 395.613405 -486.943726 
L 393.217103 -486.943375 
L 390.820801 -486.942953 
L 388.424499 -486.942447 
L 386.028197 -486.94184 
L 383.631895 -486.941112 
L 381.235593 -486.94024 
L 378.839291 -486.939193 
L 376.442989 -486.937939 
L 374.046687 -486.936434 
L 371.650385 -486.93463 
L 369.254083 -486.932468 
L 366.857781 -486.929875 
L 364.461479 -486.926767 
L 362.065177 -486.923042 
L 359.668875 -486.918578 
L 357.272573 -486.913229 
L 354.876271 -486.906821 
L 352.479969 -486.899146 
L 350.083667 -486.889957 
L 347.687365 -486.878958 
L 345.291063 -486.865798 
L 342.894761 -486.85006 
L 340.498459 -486.83125 
L 338.102157 -486.808784 
L 335.705855 -486.781974 
L 333.309553 -486.75001 
L 330.913251 -486.711948 
L 328.516949 -486.666686 
L 326.120647 -486.612953 
L 323.724345 -486.549289 
L 321.328043 -486.474035 
L 318.931741 -486.385325 
L 316.535439 -486.281096 
L 314.139137 -486.159098 
L 311.742835 -486.01694 
L 309.346533 -485.852154 
L 306.950231 -485.662288 
L 304.553929 -485.445042 
L 302.157627 -485.198438 
L 299.761325 -484.921025 
L 297.365023 -484.612107 
L 294.968721 -484.271969 
L 292.572419 -483.902084 
L 290.176117 -483.50525 
L 287.779815 -483.085629 
L 285.383513 -482.648655 
L 282.987211 -482.200811 
L 280.590909 -481.749262 
L 278.194607 -481.301417 
L 275.798305 -480.864444 
L 273.402003 -480.444822 
L 271.005701 -480.047989 
L 268.609399 -479.678104 
L 266.213097 -479.337966 
L 263.816795 -479.029047 
L 261.420493 -478.751634 
L 259.024191 -478.50503 
L 256.627889 -478.287784 
L 254.231587 -478.097918 
L 251.835285 -477.933132 
L 249.438983 -477.790975 
L 247.042681 -477.668977 
L 244.646379 -477.564747 
L 242.250077 -477.476038 
L 239.853775 -477.400784 
L 237.457473 -477.33712 
L 235.061171 -477.283387 
L 232.664869 -477.238125 
L 230.268567 -477.200063 
L 227.872265 -477.168099 
L 225.475963 -477.141289 
L 223.079661 -477.118823 
L 220.683359 -477.100013 
L 218.287057 -477.084275 
L 215.890755 -477.071115 
L 213.494453 -477.060116 
L 211.098151 -477.050926 
L 208.701849 -477.043252 
L 206.305547 -477.036844 
L 203.909245 -477.031495 
L 201.512943 -477.027031 
L 199.116641 -477.023306 
L 196.720339 -477.020198 
L 194.324037 -477.017605 
L 191.927735 -477.015442 
L 189.531433 -477.013638 
L 187.135131 -477.012134 
L 184.738829 -477.010879 
L 182.342527 -477.009833 
L 179.946225 -477.00896 
L 177.549923 -477.008233 
L 175.153621 -477.007626 
L 172.757319 -477.00712 
L 170.361017 -477.006698 
L 167.964715 -477.006346 
L 165.568413 -477.006053 
L 163.172111 -477.005808 
z
"/>
    </defs>
    <g clip-path="url(#p471c1f8110)">
     <use xlink:href="#m56ee51ea28" x="0" y="524.88" style="fill: #406992; fill-opacity: 0.05"/>
    </g>
   </g>
   <g id="tf-swoop-YD">
    <defs>
     <path id="m2d13ab8794" d="M 163.172111 -79.366992 
L 163.172111 -124.78893 
L 165.568413 -124.788685 
L 167.964715 -124.788392 
L 170.361017 -124.78804 
L 172.757319 -124.787618 
L 175.153621 -124.787112 
L 177.549923 -124.786505 
L 179.946225 -124.785778 
L 182.342527 -124.784905 
L 184.738829 -124.783859 
L 187.135131 -124.782604 
L 189.531433 -124.7811 
L 191.927735 -124.779296 
L 194.324037 -124.777133 
L 196.720339 -124.77454 
L 199.116641 -124.771432 
L 201.512943 -124.767707 
L 203.909245 -124.763243 
L 206.305547 -124.757894 
L 208.701849 -124.751486 
L 211.098151 -124.743812 
L 213.494453 -124.734622 
L 215.890755 -124.723623 
L 218.287057 -124.710463 
L 220.683359 -124.694725 
L 223.079661 -124.675915 
L 225.475963 -124.653449 
L 227.872265 -124.626639 
L 230.268567 -124.594675 
L 232.664869 -124.556613 
L 235.061171 -124.511351 
L 237.457473 -124.457618 
L 239.853775 -124.393954 
L 242.250077 -124.3187 
L 244.646379 -124.229991 
L 247.042681 -124.125761 
L 249.438983 -124.003763 
L 251.835285 -123.861606 
L 254.231587 -123.69682 
L 256.627889 -123.506954 
L 259.024191 -123.289708 
L 261.420493 -123.043104 
L 263.816795 -122.765691 
L 266.213097 -122.456772 
L 268.609399 -122.116634 
L 271.005701 -121.746749 
L 273.402003 -121.349916 
L 275.798305 -120.930294 
L 278.194607 -120.493321 
L 280.590909 -120.045476 
L 282.987211 -119.593927 
L 285.383513 -119.146083 
L 287.779815 -118.709109 
L 290.176117 -118.289488 
L 292.572419 -117.892654 
L 294.968721 -117.522769 
L 297.365023 -117.182631 
L 299.761325 -116.873713 
L 302.157627 -116.5963 
L 304.553929 -116.349696 
L 306.950231 -116.13245 
L 309.346533 -115.942584 
L 311.742835 -115.777798 
L 314.139137 -115.635641 
L 316.535439 -115.513643 
L 318.931741 -115.409413 
L 321.328043 -115.320703 
L 323.724345 -115.245449 
L 326.120647 -115.181785 
L 328.516949 -115.128052 
L 330.913251 -115.08279 
L 333.309553 -115.044728 
L 335.705855 -115.012764 
L 338.102157 -114.985954 
L 340.498459 -114.963488 
L 342.894761 -114.944678 
L 345.291063 -114.92894 
L 347.687365 -114.91578 
L 350.083667 -114.904781 
L 352.479969 -114.895592 
L 354.876271 -114.887917 
L 357.272573 -114.881509 
L 359.668875 -114.87616 
L 362.065177 -114.871696 
L 364.461479 -114.867971 
L 366.857781 -114.864863 
L 369.254083 -114.86227 
L 371.650385 -114.860108 
L 374.046687 -114.858304 
L 376.442989 -114.856799 
L 378.839291 -114.855545 
L 381.235593 -114.854498 
L 383.631895 -114.853626 
L 386.028197 -114.852898 
L 388.424499 -114.852291 
L 390.820801 -114.851785 
L 393.217103 -114.851363 
L 395.613405 -114.851012 
L 398.009707 -114.850718 
L 400.406009 -114.850474 
L 400.406009 -69.428536 
L 400.406009 -69.428536 
L 398.009707 -69.42878 
L 395.613405 -69.429074 
L 393.217103 -69.429425 
L 390.820801 -69.429847 
L 388.424499 -69.430353 
L 386.028197 -69.43096 
L 383.631895 -69.431688 
L 381.235593 -69.43256 
L 378.839291 -69.433607 
L 376.442989 -69.434861 
L 374.046687 -69.436366 
L 371.650385 -69.43817 
L 369.254083 -69.440332 
L 366.857781 -69.442925 
L 364.461479 -69.446033 
L 362.065177 -69.449758 
L 359.668875 -69.454222 
L 357.272573 -69.459571 
L 354.876271 -69.465979 
L 352.479969 -69.473654 
L 350.083667 -69.482843 
L 347.687365 -69.493842 
L 345.291063 -69.507002 
L 342.894761 -69.52274 
L 340.498459 -69.54155 
L 338.102157 -69.564016 
L 335.705855 -69.590826 
L 333.309553 -69.62279 
L 330.913251 -69.660852 
L 328.516949 -69.706114 
L 326.120647 -69.759847 
L 323.724345 -69.823511 
L 321.328043 -69.898765 
L 318.931741 -69.987475 
L 316.535439 -70.091704 
L 314.139137 -70.213702 
L 311.742835 -70.35586 
L 309.346533 -70.520646 
L 306.950231 -70.710512 
L 304.553929 -70.927758 
L 302.157627 -71.174362 
L 299.761325 -71.451775 
L 297.365023 -71.760693 
L 294.968721 -72.100831 
L 292.572419 -72.470716 
L 290.176117 -72.86755 
L 287.779815 -73.287171 
L 285.383513 -73.724145 
L 282.987211 -74.171989 
L 280.590909 -74.623538 
L 278.194607 -75.071383 
L 275.798305 -75.508356 
L 273.402003 -75.927978 
L 271.005701 -76.324811 
L 268.609399 -76.694696 
L 266.213097 -77.034834 
L 263.816795 -77.343753 
L 261.420493 -77.621166 
L 259.024191 -77.86777 
L 256.627889 -78.085016 
L 254.231587 -78.274882 
L 251.835285 -78.439668 
L 249.438983 -78.581825 
L 247.042681 -78.703823 
L 244.646379 -78.808053 
L 242.250077 -78.896762 
L 239.853775 -78.972016 
L 237.457473 -79.03568 
L 235.061171 -79.089413 
L 232.664869 -79.134675 
L 230.268567 -79.172737 
L 227.872265 -79.204701 
L 225.475963 -79.231511 
L 223.079661 -79.253977 
L 220.683359 -79.272787 
L 218.287057 -79.288525 
L 215.890755 -79.301685 
L 213.494453 -79.312684 
L 211.098151 -79.321874 
L 208.701849 -79.329548 
L 206.305547 -79.335956 
L 203.909245 -79.341305 
L 201.512943 -79.345769 
L 199.116641 -79.349494 
L 196.720339 -79.352602 
L 194.324037 -79.355195 
L 191.927735 -79.357358 
L 189.531433 -79.359162 
L 187.135131 -79.360666 
L 184.738829 -79.361921 
L 182.342527 -79.362967 
L 179.946225 -79.36384 
L 177.549923 -79.364567 
L 175.153621 -79.365174 
L 172.757319 -79.36568 
L 170.361017 -79.366102 
L 167.964715 -79.366454 
L 165.568413 -79.366747 
L 163.172111 -79.366992 
z
"/>
    </defs>
    <g clip-path="url(#p471c1f8110)">
     <use xlink:href="#m2d13ab8794" x="0" y="524.88" style="fill: #b78935; fill-opacity: 0.05"/>
    </g>
   </g>
   <g id="tf-bar-ND">
    <defs>
     <path id="m339c31f1fd" d="M 400.406009 -134.731065 
L 400.406009 -486.945491 
L 426.765332 -486.945491 
L 426.765332 -134.731065 
L 426.765332 -134.731065 
L 400.406009 -134.731065 
z
"/>
    </defs>
    <g clip-path="url(#p471c1f8110)">
     <use xlink:href="#m339c31f1fd" x="0" y="524.88" style="fill: #406992; fill-opacity: 0.25"/>
    </g>
   </g>
   <g id="tf-bar-YD">
    <defs>
     <path id="m5a7353e491" d="M 400.406009 -69.427309 
L 400.406009 -114.849247 
L 426.765332 -114.849247 
L 426.765332 -69.427309 
L 426.765332 -69.427309 
L 400.406009 -69.427309 
z
"/>
    </defs>
    <g clip-path="url(#p471c1f8110)">
     <use xlink:href="#m5a7353e491" x="0" y="524.88" style="fill: #b78935; fill-opacity: 0.25"/>
    </g>
   </g>
   <g id="tf-swoop-YD-ND">
    <defs>
     <path id="m5765d986f9" d="M 426.765332 -102.169051 
L 426.765332 -114.848021 
L 429.161634 -114.847776 
L 431.557936 -114.847483 
L 433.954238 -114.847131 
L 436.35054 -114.846709 
L 438.746842 -114.846203 
L 441.143144 -114.845596 
L 443.539446 -114.844869 
L 445.935748 -114.843996 
L 448.33205 -114.84295 
L 450.728352 -114.841695 
L 453.124654 -114.84019 
L 455.520956 -114.838387 
L 457.917258 -114.836224 
L 460.31356 -114.833631 
L 462.709862 -114.830523 
L 465.106164 -114.826798 
L 467.502466 -114.822334 
L 469.898768 -114.816985 
L 472.29507 -114.810577 
L 474.691372 -114.802903 
L 477.087674 -114.793713 
L 479.483976 -114.782714 
L 481.880278 -114.769554 
L 484.27658 -114.753816 
L 486.672882 -114.735006 
L 489.069184 -114.71254 
L 491.465486 -114.68573 
L 493.861788 -114.653766 
L 496.25809 -114.615704 
L 498.654392 -114.570442 
L 501.050694 -114.516709 
L 503.446996 -114.453045 
L 505.843298 -114.377791 
L 508.2396 -114.289082 
L 510.635902 -114.184852 
L 513.032204 -114.062854 
L 515.428506 -113.920697 
L 517.824808 -113.755911 
L 520.22111 -113.566045 
L 522.617412 -113.348799 
L 525.013714 -113.102195 
L 527.410016 -112.824782 
L 529.806318 -112.515863 
L 532.20262 -112.175725 
L 534.598922 -111.80584 
L 536.995224 -111.409007 
L 539.391526 -110.989385 
L 541.787828 -110.552412 
L 544.18413 -110.104567 
L 546.580432 -109.653018 
L 548.976734 -109.205174 
L 551.373036 -108.7682 
L 553.769338 -108.348579 
L 556.16564 -107.951745 
L 558.561942 -107.58186 
L 560.958244 -107.241722 
L 563.354546 -106.932804 
L 565.750848 -106.655391 
L 568.14715 -106.408787 
L 570.543452 -106.191541 
L 572.939754 -106.001675 
L 575.336056 -105.836889 
L 577.732358 -105.694731 
L 580.12866 -105.572733 
L 582.524962 -105.468504 
L 584.921264 -105.379794 
L 587.317566 -105.30454 
L 589.713868 -105.240876 
L 592.11017 -105.187143 
L 594.506472 -105.141881 
L 596.902774 -105.103819 
L 599.299076 -105.071855 
L 601.695378 -105.045045 
L 604.09168 -105.022579 
L 606.487982 -105.003769 
L 608.884284 -104.988031 
L 611.280586 -104.974871 
L 613.676888 -104.963872 
L 616.07319 -104.954683 
L 618.469492 -104.947008 
L 620.865794 -104.9406 
L 623.262096 -104.935251 
L 625.658398 -104.930787 
L 628.0547 -104.927062 
L 630.451002 -104.923954 
L 632.847304 -104.921361 
L 635.243606 -104.919199 
L 637.639908 -104.917395 
L 640.03621 -104.91589 
L 642.432512 -104.914636 
L 644.828814 -104.913589 
L 647.225116 -104.912717 
L 649.621418 -104.911989 
L 652.01772 -104.911382 
L 654.414022 -104.910876 
L 656.810324 -104.910454 
L 659.206626 -104.910103 
L 661.602928 -104.909809 
L 663.99923 -104.909565 
L 663.99923 -92.230595 
L 663.99923 -92.230595 
L 661.602928 -92.23084 
L 659.206626 -92.231133 
L 656.810324 -92.231485 
L 654.414022 -92.231907 
L 652.01772 -92.232413 
L 649.621418 -92.233019 
L 647.225116 -92.233747 
L 644.828814 -92.23462 
L 642.432512 -92.235666 
L 640.03621 -92.236921 
L 637.639908 -92.238425 
L 635.243606 -92.240229 
L 632.847304 -92.242392 
L 630.451002 -92.244985 
L 628.0547 -92.248092 
L 625.658398 -92.251817 
L 623.262096 -92.256282 
L 620.865794 -92.261631 
L 618.469492 -92.268038 
L 616.07319 -92.275713 
L 613.676888 -92.284902 
L 611.280586 -92.295902 
L 608.884284 -92.309062 
L 606.487982 -92.3248 
L 604.09168 -92.343609 
L 601.695378 -92.366075 
L 599.299076 -92.392886 
L 596.902774 -92.424849 
L 594.506472 -92.462912 
L 592.11017 -92.508173 
L 589.713868 -92.561906 
L 587.317566 -92.62557 
L 584.921264 -92.700825 
L 582.524962 -92.789534 
L 580.12866 -92.893764 
L 577.732358 -93.015762 
L 575.336056 -93.157919 
L 572.939754 -93.322705 
L 570.543452 -93.512571 
L 568.14715 -93.729817 
L 565.750848 -93.976421 
L 563.354546 -94.253834 
L 560.958244 -94.562753 
L 558.561942 -94.902891 
L 556.16564 -95.272775 
L 553.769338 -95.669609 
L 551.373036 -96.089231 
L 548.976734 -96.526204 
L 546.580432 -96.974049 
L 544.18413 -97.425597 
L 541.787828 -97.873442 
L 539.391526 -98.310416 
L 536.995224 -98.730037 
L 534.598922 -99.126871 
L 532.20262 -99.496755 
L 529.806318 -99.836893 
L 527.410016 -100.145812 
L 525.013714 -100.423225 
L 522.617412 -100.669829 
L 520.22111 -100.887075 
L 517.824808 -101.076941 
L 515.428506 -101.241727 
L 513.032204 -101.383884 
L 510.635902 -101.505882 
L 508.2396 -101.610112 
L 505.843298 -101.698821 
L 503.446996 -101.774076 
L 501.050694 -101.83774 
L 498.654392 -101.891473 
L 496.25809 -101.936734 
L 493.861788 -101.974797 
L 491.465486 -102.00676 
L 489.069184 -102.033571 
L 486.672882 -102.056037 
L 484.27658 -102.074847 
L 481.880278 -102.090585 
L 479.483976 -102.103745 
L 477.087674 -102.114744 
L 474.691372 -102.123933 
L 472.29507 -102.131608 
L 469.898768 -102.138016 
L 467.502466 -102.143365 
L 465.106164 -102.147829 
L 462.709862 -102.151554 
L 460.31356 -102.154662 
L 457.917258 -102.157254 
L 455.520956 -102.159417 
L 453.124654 -102.161221 
L 450.728352 -102.162725 
L 448.33205 -102.16398 
L 445.935748 -102.165027 
L 443.539446 -102.165899 
L 441.143144 -102.166627 
L 438.746842 -102.167234 
L 436.35054 -102.167739 
L 433.954238 -102.168161 
L 431.557936 -102.168513 
L 429.161634 -102.168806 
L 426.765332 -102.169051 
z
"/>
    </defs>
    <g clip-path="url(#p471c1f8110)">
     <use xlink:href="#m5765d986f9" x="0" y="524.88" style="fill: #dbc49a; fill-opacity: 0.05"/>
    </g>
   </g>
   <g id="tf-swoop-YD-YD">
    <defs>
     <path id="m55f011c56b" d="M 426.765332 -69.423629 
L 426.765332 -102.166598 
L 429.161634 -102.165864 
L 431.557936 -102.164984 
L 433.954238 -102.163929 
L 436.35054 -102.162663 
L 438.746842 -102.161145 
L 441.143144 -102.159325 
L 443.539446 -102.157142 
L 445.935748 -102.154524 
L 448.33205 -102.151385 
L 450.728352 -102.147621 
L 453.124654 -102.143108 
L 455.520956 -102.137696 
L 457.917258 -102.131208 
L 460.31356 -102.12343 
L 462.709862 -102.114106 
L 465.106164 -102.102931 
L 467.502466 -102.089538 
L 469.898768 -102.073492 
L 472.29507 -102.054268 
L 474.691372 -102.031244 
L 477.087674 -102.003676 
L 479.483976 -101.970679 
L 481.880278 -101.931198 
L 484.27658 -101.883985 
L 486.672882 -101.827555 
L 489.069184 -101.760157 
L 491.465486 -101.679726 
L 493.861788 -101.583835 
L 496.25809 -101.469648 
L 498.654392 -101.333863 
L 501.050694 -101.172664 
L 503.446996 -100.981672 
L 505.843298 -100.755909 
L 508.2396 -100.489781 
L 510.635902 -100.177091 
L 513.032204 -99.811098 
L 515.428506 -99.384626 
L 517.824808 -98.890268 
L 520.22111 -98.32067 
L 522.617412 -97.668932 
L 525.013714 -96.92912 
L 527.410016 -96.096881 
L 529.806318 -95.170125 
L 532.20262 -94.149711 
L 534.598922 -93.040057 
L 536.995224 -91.849556 
L 539.391526 -90.590692 
L 541.787828 -89.279771 
L 544.18413 -87.936237 
L 546.580432 -86.581591 
L 548.976734 -85.238057 
L 551.373036 -83.927136 
L 553.769338 -82.668272 
L 556.16564 -81.477771 
L 558.561942 -80.368117 
L 560.958244 -79.347703 
L 563.354546 -78.420947 
L 565.750848 -77.588708 
L 568.14715 -76.848896 
L 570.543452 -76.197158 
L 572.939754 -75.62756 
L 575.336056 -75.133202 
L 577.732358 -74.70673 
L 580.12866 -74.340737 
L 582.524962 -74.028047 
L 584.921264 -73.761919 
L 587.317566 -73.536156 
L 589.713868 -73.345164 
L 592.11017 -73.183965 
L 594.506472 -73.04818 
L 596.902774 -72.933993 
L 599.299076 -72.838102 
L 601.695378 -72.757671 
L 604.09168 -72.690273 
L 606.487982 -72.633843 
L 608.884284 -72.58663 
L 611.280586 -72.547149 
L 613.676888 -72.514152 
L 616.07319 -72.486584 
L 618.469492 -72.46356 
L 620.865794 -72.444336 
L 623.262096 -72.42829 
L 625.658398 -72.414897 
L 628.0547 -72.403722 
L 630.451002 -72.394398 
L 632.847304 -72.38662 
L 635.243606 -72.380132 
L 637.639908 -72.37472 
L 640.03621 -72.370207 
L 642.432512 -72.366443 
L 644.828814 -72.363304 
L 647.225116 -72.360686 
L 649.621418 -72.358503 
L 652.01772 -72.356683 
L 654.414022 -72.355165 
L 656.810324 -72.353899 
L 659.206626 -72.352844 
L 661.602928 -72.351964 
L 663.99923 -72.35123 
L 663.99923 -39.608262 
L 663.99923 -39.608262 
L 661.602928 -39.608995 
L 659.206626 -39.609875 
L 656.810324 -39.610931 
L 654.414022 -39.612196 
L 652.01772 -39.613714 
L 649.621418 -39.615534 
L 647.225116 -39.617717 
L 644.828814 -39.620335 
L 642.432512 -39.623474 
L 640.03621 -39.627238 
L 637.639908 -39.631752 
L 635.243606 -39.637164 
L 632.847304 -39.643652 
L 630.451002 -39.65143 
L 628.0547 -39.660754 
L 625.658398 -39.671929 
L 623.262096 -39.685321 
L 620.865794 -39.701368 
L 618.469492 -39.720592 
L 616.07319 -39.743616 
L 613.676888 -39.771183 
L 611.280586 -39.804181 
L 608.884284 -39.843661 
L 606.487982 -39.890875 
L 604.09168 -39.947305 
L 601.695378 -40.014702 
L 599.299076 -40.095134 
L 596.902774 -40.191024 
L 594.506472 -40.305212 
L 592.11017 -40.440996 
L 589.713868 -40.602195 
L 587.317566 -40.793187 
L 584.921264 -41.018951 
L 582.524962 -41.285079 
L 580.12866 -41.597768 
L 577.732358 -41.963762 
L 575.336056 -42.390233 
L 572.939754 -42.884591 
L 570.543452 -43.454189 
L 568.14715 -44.105928 
L 565.750848 -44.84574 
L 563.354546 -45.677978 
L 560.958244 -46.604735 
L 558.561942 -47.625148 
L 556.16564 -48.734802 
L 553.769338 -49.925303 
L 551.373036 -51.184168 
L 548.976734 -52.495088 
L 546.580432 -53.838623 
L 544.18413 -55.193268 
L 541.787828 -56.536803 
L 539.391526 -57.847723 
L 536.995224 -59.106587 
L 534.598922 -60.297089 
L 532.20262 -61.406742 
L 529.806318 -62.427156 
L 527.410016 -63.353913 
L 525.013714 -64.186151 
L 522.617412 -64.925963 
L 520.22111 -65.577701 
L 517.824808 -66.1473 
L 515.428506 -66.641657 
L 513.032204 -67.068129 
L 510.635902 -67.434123 
L 508.2396 -67.746812 
L 505.843298 -68.01294 
L 503.446996 -68.238703 
L 501.050694 -68.429696 
L 498.654392 -68.590894 
L 496.25809 -68.726679 
L 493.861788 -68.840866 
L 491.465486 -68.936757 
L 489.069184 -69.017188 
L 486.672882 -69.084586 
L 484.27658 -69.141016 
L 481.880278 -69.18823 
L 479.483976 -69.22771 
L 477.087674 -69.260707 
L 474.691372 -69.288275 
L 472.29507 -69.311299 
L 469.898768 -69.330523 
L 467.502466 -69.34657 
L 465.106164 -69.359962 
L 462.709862 -69.371137 
L 460.31356 -69.380461 
L 457.917258 -69.388239 
L 455.520956 -69.394727 
L 453.124654 -69.400139 
L 450.728352 -69.404653 
L 448.33205 -69.408417 
L 445.935748 -69.411556 
L 443.539446 -69.414174 
L 441.143144 -69.416357 
L 438.746842 -69.418177 
L 436.35054 -69.419695 
L 433.954238 -69.42096 
L 431.557936 -69.422016 
L 429.161634 -69.422895 
L 426.765332 -69.423629 
z
"/>
    </defs>
    <g clip-path="url(#p471c1f8110)">
     <use xlink:href="#m55f011c56b" x="0" y="524.88" style="fill: #b78935; fill-opacity: 0.05"/>
    </g>
   </g>
   <g id="tf-swoop-ND-YD">
    <defs>
     <path id="m0e33a1932a" d="M 426.765332 -147.344705 
L 426.765332 -134.732292 
L 429.161634 -134.732537 
L 431.557936 -134.73283 
L 433.954238 -134.733182 
L 436.35054 -134.733603 
L 438.746842 -134.734109 
L 441.143144 -134.734716 
L 443.539446 -134.735444 
L 445.935748 -134.736316 
L 448.33205 -134.737363 
L 450.728352 -134.738618 
L 453.124654 -134.740122 
L 455.520956 -134.741926 
L 457.917258 -134.744089 
L 460.31356 -134.746681 
L 462.709862 -134.749789 
L 465.106164 -134.753514 
L 467.502466 -134.757978 
L 469.898768 -134.763327 
L 472.29507 -134.769735 
L 474.691372 -134.77741 
L 477.087674 -134.786599 
L 479.483976 -134.797598 
L 481.880278 -134.810758 
L 484.27658 -134.826496 
L 486.672882 -134.845306 
L 489.069184 -134.867772 
L 491.465486 -134.894583 
L 493.861788 -134.926546 
L 496.25809 -134.964609 
L 498.654392 -135.00987 
L 501.050694 -135.063603 
L 503.446996 -135.127267 
L 505.843298 -135.202522 
L 508.2396 -135.291231 
L 510.635902 -135.395461 
L 513.032204 -135.517459 
L 515.428506 -135.659616 
L 517.824808 -135.824402 
L 520.22111 -136.014268 
L 522.617412 -136.231514 
L 525.013714 -136.478118 
L 527.410016 -136.755531 
L 529.806318 -137.06445 
L 532.20262 -137.404588 
L 534.598922 -137.774472 
L 536.995224 -138.171306 
L 539.391526 -138.590927 
L 541.787828 -139.027901 
L 544.18413 -139.475746 
L 546.580432 -139.927294 
L 548.976734 -140.375139 
L 551.373036 -140.812112 
L 553.769338 -141.231734 
L 556.16564 -141.628568 
L 558.561942 -141.998452 
L 560.958244 -142.33859 
L 563.354546 -142.647509 
L 565.750848 -142.924922 
L 568.14715 -143.171526 
L 570.543452 -143.388772 
L 572.939754 -143.578638 
L 575.336056 -143.743424 
L 577.732358 -143.885581 
L 580.12866 -144.007579 
L 582.524962 -144.111809 
L 584.921264 -144.200518 
L 587.317566 -144.275773 
L 589.713868 -144.339437 
L 592.11017 -144.39317 
L 594.506472 -144.438431 
L 596.902774 -144.476494 
L 599.299076 -144.508457 
L 601.695378 -144.535268 
L 604.09168 -144.557734 
L 606.487982 -144.576543 
L 608.884284 -144.592281 
L 611.280586 -144.605441 
L 613.676888 -144.616441 
L 616.07319 -144.62563 
L 618.469492 -144.633305 
L 620.865794 -144.639712 
L 623.262096 -144.645061 
L 625.658398 -144.649525 
L 628.0547 -144.653251 
L 630.451002 -144.656358 
L 632.847304 -144.658951 
L 635.243606 -144.661114 
L 637.639908 -144.662918 
L 640.03621 -144.664422 
L 642.432512 -144.665677 
L 644.828814 -144.666723 
L 647.225116 -144.667596 
L 649.621418 -144.668324 
L 652.01772 -144.66893 
L 654.414022 -144.669436 
L 656.810324 -144.669858 
L 659.206626 -144.67021 
L 661.602928 -144.670503 
L 663.99923 -144.670748 
L 663.99923 -157.283161 
L 663.99923 -157.283161 
L 661.602928 -157.282917 
L 659.206626 -157.282623 
L 656.810324 -157.282271 
L 654.414022 -157.28185 
L 652.01772 -157.281344 
L 649.621418 -157.280737 
L 647.225116 -157.280009 
L 644.828814 -157.279137 
L 642.432512 -157.27809 
L 640.03621 -157.276836 
L 637.639908 -157.275331 
L 635.243606 -157.273527 
L 632.847304 -157.271364 
L 630.451002 -157.268772 
L 628.0547 -157.265664 
L 625.658398 -157.261939 
L 623.262096 -157.257475 
L 620.865794 -157.252126 
L 618.469492 -157.245718 
L 616.07319 -157.238043 
L 613.676888 -157.228854 
L 611.280586 -157.217855 
L 608.884284 -157.204695 
L 606.487982 -157.188957 
L 604.09168 -157.170147 
L 601.695378 -157.147681 
L 599.299076 -157.12087 
L 596.902774 -157.088907 
L 594.506472 -157.050844 
L 592.11017 -157.005583 
L 589.713868 -156.95185 
L 587.317566 -156.888186 
L 584.921264 -156.812931 
L 582.524962 -156.724222 
L 580.12866 -156.619992 
L 577.732358 -156.497994 
L 575.336056 -156.355837 
L 572.939754 -156.191051 
L 570.543452 -156.001185 
L 568.14715 -155.783939 
L 565.750848 -155.537335 
L 563.354546 -155.259922 
L 560.958244 -154.951003 
L 558.561942 -154.610865 
L 556.16564 -154.240981 
L 553.769338 -153.844147 
L 551.373036 -153.424526 
L 548.976734 -152.987552 
L 546.580432 -152.539707 
L 544.18413 -152.088159 
L 541.787828 -151.640314 
L 539.391526 -151.203341 
L 536.995224 -150.783719 
L 534.598922 -150.386885 
L 532.20262 -150.017001 
L 529.806318 -149.676863 
L 527.410016 -149.367944 
L 525.013714 -149.090531 
L 522.617412 -148.843927 
L 520.22111 -148.626681 
L 517.824808 -148.436815 
L 515.428506 -148.272029 
L 513.032204 -148.129872 
L 510.635902 -148.007874 
L 508.2396 -147.903644 
L 505.843298 -147.814935 
L 503.446996 -147.739681 
L 501.050694 -147.676016 
L 498.654392 -147.622284 
L 496.25809 -147.577022 
L 493.861788 -147.53896 
L 491.465486 -147.506996 
L 489.069184 -147.480186 
L 486.672882 -147.45772 
L 484.27658 -147.43891 
L 481.880278 -147.423172 
L 479.483976 -147.410012 
L 477.087674 -147.399013 
L 474.691372 -147.389823 
L 472.29507 -147.382149 
L 469.898768 -147.375741 
L 467.502466 -147.370392 
L 465.106164 -147.365928 
L 462.709862 -147.362203 
L 460.31356 -147.359095 
L 457.917258 -147.356502 
L 455.520956 -147.354339 
L 453.124654 -147.352535 
L 450.728352 -147.351031 
L 448.33205 -147.349776 
L 445.935748 -147.34873 
L 443.539446 -147.347857 
L 441.143144 -147.347129 
L 438.746842 -147.346523 
L 436.35054 -147.346017 
L 433.954238 -147.345595 
L 431.557936 -147.345243 
L 429.161634 -147.34495 
L 426.765332 -147.344705 
z
"/>
    </defs>
    <g clip-path="url(#p471c1f8110)">
     <use xlink:href="#m0e33a1932a" x="0" y="524.88" style="fill: #9fb4c8; fill-opacity: 0.05"/>
    </g>
   </g>
   <g id="tf-swoop-ND-ND">
    <defs>
     <path id="me04b6898bc" d="M 426.765332 -486.949171 
L 426.765332 -147.347159 
L 429.161634 -147.347892 
L 431.557936 -147.348772 
L 433.954238 -147.349827 
L 436.35054 -147.351093 
L 438.746842 -147.352611 
L 441.143144 -147.354431 
L 443.539446 -147.356614 
L 445.935748 -147.359232 
L 448.33205 -147.362371 
L 450.728352 -147.366135 
L 453.124654 -147.370649 
L 455.520956 -147.37606 
L 457.917258 -147.382548 
L 460.31356 -147.390327 
L 462.709862 -147.39965 
L 465.106164 -147.410825 
L 467.502466 -147.424218 
L 469.898768 -147.440265 
L 472.29507 -147.459488 
L 474.691372 -147.482512 
L 477.087674 -147.51008 
L 479.483976 -147.543078 
L 481.880278 -147.582558 
L 484.27658 -147.629772 
L 486.672882 -147.686201 
L 489.069184 -147.753599 
L 491.465486 -147.834031 
L 493.861788 -147.929921 
L 496.25809 -148.044109 
L 498.654392 -148.179893 
L 501.050694 -148.341092 
L 503.446996 -148.532084 
L 505.843298 -148.757848 
L 508.2396 -149.023975 
L 510.635902 -149.336665 
L 513.032204 -149.702659 
L 515.428506 -150.12913 
L 517.824808 -150.623488 
L 520.22111 -151.193086 
L 522.617412 -151.844824 
L 525.013714 -152.584636 
L 527.410016 -153.416875 
L 529.806318 -154.343631 
L 532.20262 -155.364045 
L 534.598922 -156.473699 
L 536.995224 -157.6642 
L 539.391526 -158.923065 
L 541.787828 -160.233985 
L 544.18413 -161.577519 
L 546.580432 -162.932165 
L 548.976734 -164.2757 
L 551.373036 -165.58662 
L 553.769338 -166.845484 
L 556.16564 -168.035986 
L 558.561942 -169.145639 
L 560.958244 -170.166053 
L 563.354546 -171.092809 
L 565.750848 -171.925048 
L 568.14715 -172.66486 
L 570.543452 -173.316598 
L 572.939754 -173.886196 
L 575.336056 -174.380554 
L 577.732358 -174.807026 
L 580.12866 -175.17302 
L 582.524962 -175.485709 
L 584.921264 -175.751837 
L 587.317566 -175.9776 
L 589.713868 -176.168592 
L 592.11017 -176.329791 
L 594.506472 -176.465576 
L 596.902774 -176.579763 
L 599.299076 -176.675654 
L 601.695378 -176.756085 
L 604.09168 -176.823483 
L 606.487982 -176.879913 
L 608.884284 -176.927127 
L 611.280586 -176.966607 
L 613.676888 -176.999604 
L 616.07319 -177.027172 
L 618.469492 -177.050196 
L 620.865794 -177.06942 
L 623.262096 -177.085467 
L 625.658398 -177.098859 
L 628.0547 -177.110034 
L 630.451002 -177.119358 
L 632.847304 -177.127136 
L 635.243606 -177.133624 
L 637.639908 -177.139036 
L 640.03621 -177.143549 
L 642.432512 -177.147314 
L 644.828814 -177.150453 
L 647.225116 -177.15307 
L 649.621418 -177.155253 
L 652.01772 -177.157074 
L 654.414022 -177.158591 
L 656.810324 -177.159857 
L 659.206626 -177.160912 
L 661.602928 -177.161792 
L 663.99923 -177.162526 
L 663.99923 -516.764538 
L 663.99923 -516.764538 
L 661.602928 -516.763805 
L 659.206626 -516.762925 
L 656.810324 -516.761869 
L 654.414022 -516.760604 
L 652.01772 -516.759086 
L 649.621418 -516.757266 
L 647.225116 -516.755083 
L 644.828814 -516.752465 
L 642.432512 -516.749326 
L 640.03621 -516.745562 
L 637.639908 -516.741048 
L 635.243606 -516.735636 
L 632.847304 -516.729148 
L 630.451002 -516.72137 
L 628.0547 -516.712046 
L 625.658398 -516.700871 
L 623.262096 -516.687479 
L 620.865794 -516.671432 
L 618.469492 -516.652208 
L 616.07319 -516.629184 
L 613.676888 -516.601617 
L 611.280586 -516.568619 
L 608.884284 -516.529139 
L 606.487982 -516.481925 
L 604.09168 -516.425495 
L 601.695378 -516.358098 
L 599.299076 -516.277666 
L 596.902774 -516.181776 
L 594.506472 -516.067588 
L 592.11017 -515.931804 
L 589.713868 -515.770605 
L 587.317566 -515.579613 
L 584.921264 -515.353849 
L 582.524962 -515.087721 
L 580.12866 -514.775032 
L 577.732358 -514.409038 
L 575.336056 -513.982567 
L 572.939754 -513.488209 
L 570.543452 -512.918611 
L 568.14715 -512.266872 
L 565.750848 -511.52706 
L 563.354546 -510.694822 
L 560.958244 -509.768065 
L 558.561942 -508.747652 
L 556.16564 -507.637998 
L 553.769338 -506.447497 
L 551.373036 -505.188632 
L 548.976734 -503.877712 
L 546.580432 -502.534177 
L 544.18413 -501.179532 
L 541.787828 -499.835997 
L 539.391526 -498.525077 
L 536.995224 -497.266213 
L 534.598922 -496.075711 
L 532.20262 -494.966058 
L 529.806318 -493.945644 
L 527.410016 -493.018887 
L 525.013714 -492.186649 
L 522.617412 -491.446837 
L 520.22111 -490.795099 
L 517.824808 -490.2255 
L 515.428506 -489.731143 
L 513.032204 -489.304671 
L 510.635902 -488.938677 
L 508.2396 -488.625988 
L 505.843298 -488.35986 
L 503.446996 -488.134097 
L 501.050694 -487.943104 
L 498.654392 -487.781906 
L 496.25809 -487.646121 
L 493.861788 -487.531934 
L 491.465486 -487.436043 
L 489.069184 -487.355612 
L 486.672882 -487.288214 
L 484.27658 -487.231784 
L 481.880278 -487.18457 
L 479.483976 -487.14509 
L 477.087674 -487.112093 
L 474.691372 -487.084525 
L 472.29507 -487.061501 
L 469.898768 -487.042277 
L 467.502466 -487.02623 
L 465.106164 -487.012838 
L 462.709862 -487.001663 
L 460.31356 -486.992339 
L 457.917258 -486.984561 
L 455.520956 -486.978073 
L 453.124654 -486.972661 
L 450.728352 -486.968147 
L 448.33205 -486.964383 
L 445.935748 -486.961244 
L 443.539446 -486.958626 
L 441.143144 -486.956443 
L 438.746842 -486.954623 
L 436.35054 -486.953105 
L 433.954238 -486.95184 
L 431.557936 -486.950784 
L 429.161634 -486.949905 
L 426.765332 -486.949171 
z
"/>
    </defs>
    <g clip-path="url(#p471c1f8110)">
     <use xlink:href="#me04b6898bc" x="0" y="524.88" style="fill: #406992; fill-opacity: 0.05"/>
    </g>
   </g>
   <g id="tf-bar-YD-YD">
    <defs>
     <path id="md23cdc3ab6" d="M 663.99923 -39.604582 
L 663.99923 -72.34755 
L 690.358552 -72.34755 
L 690.358552 -39.604582 
L 690.358552 -39.604582 
L 663.99923 -39.604582 
z
"/>
    </defs>
    <g clip-path="url(#p471c1f8110)">
     <use xlink:href="#md23cdc3ab6" x="0" y="524.88" style="fill: #b78935; fill-opacity: 0.25"/>
    </g>
   </g>
   <g id="tf-bar-YD-ND">
    <defs>
     <path id="m2d9f9f2749" d="M 663.99923 -92.229369 
L 663.99923 -104.908338 
L 690.358552 -104.908338 
L 690.358552 -92.229369 
L 690.358552 -92.229369 
L 663.99923 -92.229369 
z
"/>
    </defs>
    <g clip-path="url(#p471c1f8110)">
     <use xlink:href="#m2d9f9f2749" x="0" y="524.88" style="fill: #dbc49a; fill-opacity: 0.25"/>
    </g>
   </g>
   <g id="tf-bar-ND-YD">
    <defs>
     <path id="md615fb59f7" d="M 663.99923 -144.671974 
L 663.99923 -157.284388 
L 690.358552 -157.284388 
L 690.358552 -144.671974 
L 690.358552 -144.671974 
L 663.99923 -144.671974 
z
"/>
    </defs>
    <g clip-path="url(#p471c1f8110)">
     <use xlink:href="#md615fb59f7" x="0" y="524.88" style="fill: #9fb4c8; fill-opacity: 0.25"/>
    </g>
   </g>
   <g id="tf-bar-ND-ND">
    <defs>
     <path id="m9e735e556d" d="M 663.99923 -177.166206 
L 663.99923 -516.768218 
L 690.358552 -516.768218 
L 690.358552 -177.166206 
L 690.358552 -177.166206 
L 663.99923 -177.166206 
z
"/>
    </defs>
    <g clip-path="url(#p471c1f8110)">
     <use xlink:href="#m9e735e556d" x="0" y="524.88" style="fill: #406992; fill-opacity: 0.25"/>
    </g>
   </g>
   <g id="text_1">
    <text style="font-weight: 300; font-size: 16px; font-family: 'Source Sans 3', sans-serif; fill: #494949" transform="translate(63.378128 241.98585)">All model</text>
    <text style="font-weight: 300; font-size: 16px; font-family: 'Source Sans 3', sans-serif; fill: #494949" transform="translate(51.410628 259.40135)">predictions</text>
   </g>
   <g id="tf-label-YD">
    <text style="font-weight: 300; font-size: 16px; font-family: 'Source Sans 3', sans-serif; fill: #494949; opacity: 0" transform="translate(272.736348 410.406722)">Severe or extreme</text>
    <text style="font-weight: 300; font-size: 16px; font-family: 'Source Sans 3', sans-serif; fill: #494949; opacity: 0" transform="translate(266.201348 428.053222)">streamflow dought</text>
    <text style="font-weight: 300; font-size: 16px; font-family: 'Source Sans 3', sans-serif; fill: #494949; opacity: 0" transform="translate(325.596348 445.661222)">predicted</text>
    <text style="font-weight: 300; font-size: 16px; font-family: 'Source Sans 3', sans-serif; fill: #494949; opacity: 0" transform="translate(348.473848 463.076722)">11.4%</text>
   </g>
   <g id="tf-label-ND">
    <text style="font-weight: 300; font-size: 16px; font-family: 'Source Sans 3', sans-serif; fill: #494949; opacity: 0" transform="translate(270.973848 191.822222)">Neither severe nor</text>
    <text style="font-weight: 300; font-size: 16px; font-family: 'Source Sans 3', sans-serif; fill: #494949; opacity: 0" transform="translate(260.766348 209.237722)">extreme streamflow</text>
    <text style="font-weight: 300; font-size: 16px; font-family: 'Source Sans 3', sans-serif; fill: #494949; opacity: 0" transform="translate(275.993848 226.653222)">dought predicted</text>
    <text style="font-weight: 300; font-size: 16px; font-family: 'Source Sans 3', sans-serif; fill: #494949; opacity: 0" transform="translate(348.473848 244.261222)">88.6%</text>
   </g>
   <g id="tf-label-YD-YD">
    <text style="font-weight: 300; font-size: 16px; font-family: 'Source Sans 3', sans-serif; fill: #494949; opacity: 0" transform="translate(589.764569 455.411934)">Did occur</text>
    <text style="font-weight: 300; font-size: 16px; font-family: 'Source Sans 3', sans-serif; fill: #494949; opacity: 0" transform="translate(563.329569 472.980434)">(true positive)</text>
    <text style="font-weight: 300; font-size: 16px; font-family: 'Source Sans 3', sans-serif; fill: #494949; opacity: 0" transform="translate(619.619569 490.395934)">8.2%</text>
   </g>
   <g id="tf-label-YD-ND">
    <text style="font-weight: 300; font-size: 16px; font-family: 'Source Sans 3', sans-serif; fill: #494949; opacity: 0" transform="translate(564.804569 412.780147)">Did not occur</text>
    <text style="font-weight: 300; font-size: 16px; font-family: 'Source Sans 3', sans-serif; fill: #494949; opacity: 0" transform="translate(559.554569 430.426647)">(false positive)</text>
    <text style="font-weight: 300; font-size: 16px; font-family: 'Source Sans 3', sans-serif; fill: #494949; opacity: 0" transform="translate(619.619569 447.842147)">3.2%</text>
   </g>
   <g id="tf-label-ND-YD">
    <text style="font-weight: 300; font-size: 16px; font-family: 'Source Sans 3', sans-serif; fill: #494949; opacity: 0" transform="translate(536.329569 342.647319)">Severe or extreme</text>
    <text style="font-weight: 300; font-size: 16px; font-family: 'Source Sans 3', sans-serif; fill: #494949; opacity: 0" transform="translate(524.899569 360.293819)">streamflow drought</text>
    <text style="font-weight: 300; font-size: 16px; font-family: 'Source Sans 3', sans-serif; fill: #494949; opacity: 0" transform="translate(593.574569 377.901819)">occurred</text>
    <text style="font-weight: 300; font-size: 16px; font-family: 'Source Sans 3', sans-serif; fill: #494949; opacity: 0" transform="translate(555.142069 395.548319)">(false negative)</text>
    <text style="font-weight: 300; font-size: 16px; font-family: 'Source Sans 3', sans-serif; fill: #494949; opacity: 0" transform="translate(619.619569 413.156319)">3.2%</text>
   </g>
   <g id="tf-label-ND-ND">
    <text style="font-weight: 300; font-size: 16px; font-family: 'Source Sans 3', sans-serif; fill: #494949; opacity: 0" transform="translate(534.567069 146.812788)">Neither severe nor</text>
    <text style="font-weight: 300; font-size: 16px; font-family: 'Source Sans 3', sans-serif; fill: #494949; opacity: 0" transform="translate(524.359569 164.228288)">extreme streamflow</text>
    <text style="font-weight: 300; font-size: 16px; font-family: 'Source Sans 3', sans-serif; fill: #494949; opacity: 0" transform="translate(543.972069 181.643788)">dought occurred</text>
    <text style="font-weight: 300; font-size: 16px; font-family: 'Source Sans 3', sans-serif; fill: #494949; opacity: 0" transform="translate(558.917069 199.404788)">(true negative)</text>
    <text style="font-weight: 300; font-size: 16px; font-family: 'Source Sans 3', sans-serif; fill: #494949; opacity: 0" transform="translate(612.067069 217.012788)">85.4%</text>
   </g>
  </g>
 </g>
 <defs>
  <clipPath id="p471c1f8110">
   <rect x="18.19584" y="-15.7464" width="699.84" height="524.88"/>
  </clipPath>
 </defs>
</svg>
