<?xml version="1.0" encoding="utf-8" standalone="no"?>
<!DOCTYPE svg PUBLIC "-//W3C//DTD SVG 1.1//EN"
  "http://www.w3.org/Graphics/SVG/1.1/DTD/svg11.dtd">
<svg xmlns:xlink="http://www.w3.org/1999/xlink" width="399.6px" height="299.52px" viewBox="0 0 399.6 299.52" xmlns="http://www.w3.org/2000/svg" version="1.1">
  <defs>
  <style type="text/css">*{stroke-linejoin: round; stroke-linecap: butt}</style>
 </defs>
 <g id="figure-forecast_truefalse_key">
  <g id="patch_1">
   <path d="M 0 299.52 
L 399.6 299.52 
L 399.6 0 
L 0 0 
z
" style="fill: #ffffff"/>
  </g>
  <g id="axis-forecast_truefalse_key">
   <g id="FillBetweenPolyCollection_1">
    <defs>
     <path id="mf16a2a453c" d="M 67.728814 -36.305455 
L 67.728814 -263.214545 
L 82.779661 -263.214545 
L 82.779661 -36.305455 
L 82.779661 -36.305455 
L 67.728814 -36.305455 
z
"/>
    </defs>
    <g clip-path="url(#peea24e562c)">
     <use xlink:href="#mf16a2a453c" x="0" y="299.52" style="fill: #00264c"/>
    </g>
   </g>
   <g id="tf-swoop-ND">
    <defs>
     <path id="m13e10cc80d" d="M 82.779661 -263.215245 
L 82.779661 -83.151265 
L 84.14792 -83.151404 
L 85.516179 -83.151572 
L 86.884438 -83.151772 
L 88.252696 -83.152013 
L 89.620955 -83.152302 
L 90.989214 -83.152648 
L 92.357473 -83.153063 
L 93.725732 -83.153561 
L 95.093991 -83.154158 
L 96.46225 -83.154874 
L 97.830508 -83.155733 
L 99.198767 -83.156762 
L 100.567026 -83.157996 
L 101.935285 -83.159476 
L 103.303544 -83.16125 
L 104.671803 -83.163375 
L 106.040062 -83.165923 
L 107.40832 -83.168975 
L 108.776579 -83.172632 
L 110.144838 -83.177011 
L 111.513097 -83.182255 
L 112.881356 -83.188532 
L 114.249615 -83.196041 
L 115.617874 -83.205022 
L 116.986133 -83.215756 
L 118.354391 -83.228576 
L 119.72265 -83.243875 
L 121.090909 -83.262115 
L 122.459168 -83.283835 
L 123.827427 -83.309663 
L 125.195686 -83.340326 
L 126.563945 -83.376655 
L 127.932203 -83.419599 
L 129.300462 -83.47022 
L 130.668721 -83.529699 
L 132.03698 -83.599316 
L 133.405239 -83.680437 
L 134.773498 -83.774472 
L 136.141757 -83.882818 
L 137.510015 -84.006788 
L 138.878274 -84.147511 
L 140.246533 -84.305815 
L 141.614792 -84.482098 
L 142.983051 -84.676196 
L 144.35131 -84.887269 
L 145.719569 -85.11372 
L 147.087827 -85.353175 
L 148.456086 -85.602531 
L 149.824345 -85.858092 
L 151.192604 -86.115765 
L 152.560863 -86.371326 
L 153.929122 -86.620682 
L 155.297381 -86.860137 
L 156.665639 -87.086588 
L 158.033898 -87.297661 
L 159.402157 -87.491759 
L 160.770416 -87.668042 
L 162.138675 -87.826346 
L 163.506934 -87.967069 
L 164.875193 -88.091039 
L 166.243451 -88.199385 
L 167.61171 -88.29342 
L 168.979969 -88.374541 
L 170.348228 -88.444158 
L 171.716487 -88.503637 
L 173.084746 -88.554258 
L 174.453005 -88.597202 
L 175.821263 -88.633531 
L 177.189522 -88.664194 
L 178.557781 -88.690022 
L 179.92604 -88.711742 
L 181.294299 -88.729982 
L 182.662558 -88.745281 
L 184.030817 -88.758101 
L 185.399076 -88.768835 
L 186.767334 -88.777816 
L 188.135593 -88.785325 
L 189.503852 -88.791602 
L 190.872111 -88.796846 
L 192.24037 -88.801225 
L 193.608629 -88.804882 
L 194.976888 -88.807934 
L 196.345146 -88.810482 
L 197.713405 -88.812607 
L 199.081664 -88.814381 
L 200.449923 -88.81586 
L 201.818182 -88.817095 
L 203.186441 -88.818124 
L 204.5547 -88.818982 
L 205.922958 -88.819698 
L 207.291217 -88.820296 
L 208.659476 -88.820794 
L 210.027735 -88.821209 
L 211.395994 -88.821555 
L 212.764253 -88.821844 
L 214.132512 -88.822084 
L 215.50077 -88.822285 
L 216.869029 -88.822453 
L 218.237288 -88.822592 
L 218.237288 -268.886573 
L 218.237288 -268.886573 
L 216.869029 -268.886433 
L 215.50077 -268.886266 
L 214.132512 -268.886065 
L 212.764253 -268.885824 
L 211.395994 -268.885536 
L 210.027735 -268.885189 
L 208.659476 -268.884774 
L 207.291217 -268.884276 
L 205.922958 -268.883679 
L 204.5547 -268.882963 
L 203.186441 -268.882105 
L 201.818182 -268.881075 
L 200.449923 -268.879841 
L 199.081664 -268.878362 
L 197.713405 -268.876588 
L 196.345146 -268.874462 
L 194.976888 -268.871915 
L 193.608629 -268.868863 
L 192.24037 -268.865206 
L 190.872111 -268.860826 
L 189.503852 -268.855583 
L 188.135593 -268.849306 
L 186.767334 -268.841796 
L 185.399076 -268.832816 
L 184.030817 -268.822082 
L 182.662558 -268.809262 
L 181.294299 -268.793962 
L 179.92604 -268.775723 
L 178.557781 -268.754002 
L 177.189522 -268.728174 
L 175.821263 -268.697512 
L 174.453005 -268.661182 
L 173.084746 -268.618239 
L 171.716487 -268.567617 
L 170.348228 -268.508139 
L 168.979969 -268.438522 
L 167.61171 -268.3574 
L 166.243451 -268.263366 
L 164.875193 -268.15502 
L 163.506934 -268.03105 
L 162.138675 -267.890326 
L 160.770416 -267.732022 
L 159.402157 -267.555739 
L 158.033898 -267.361641 
L 156.665639 -267.150569 
L 155.297381 -266.924118 
L 153.929122 -266.684663 
L 152.560863 -266.435306 
L 151.192604 -266.179746 
L 149.824345 -265.922072 
L 148.456086 -265.666512 
L 147.087827 -265.417155 
L 145.719569 -265.177701 
L 144.35131 -264.951249 
L 142.983051 -264.740177 
L 141.614792 -264.546079 
L 140.246533 -264.369796 
L 138.878274 -264.211492 
L 137.510015 -264.070769 
L 136.141757 -263.946798 
L 134.773498 -263.838452 
L 133.405239 -263.744418 
L 132.03698 -263.663297 
L 130.668721 -263.593679 
L 129.300462 -263.534201 
L 127.932203 -263.483579 
L 126.563945 -263.440636 
L 125.195686 -263.404306 
L 123.827427 -263.373644 
L 122.459168 -263.347816 
L 121.090909 -263.326096 
L 119.72265 -263.307856 
L 118.354391 -263.292557 
L 116.986133 -263.279736 
L 115.617874 -263.269003 
L 114.249615 -263.260022 
L 112.881356 -263.252512 
L 111.513097 -263.246236 
L 110.144838 -263.240992 
L 108.776579 -263.236612 
L 107.40832 -263.232956 
L 106.040062 -263.229903 
L 104.671803 -263.227356 
L 103.303544 -263.22523 
L 101.935285 -263.223457 
L 100.567026 -263.221977 
L 99.198767 -263.220743 
L 97.830508 -263.219714 
L 96.46225 -263.218855 
L 95.093991 -263.218139 
L 93.725732 -263.217542 
L 92.357473 -263.217044 
L 90.989214 -263.216629 
L 89.620955 -263.216283 
L 88.252696 -263.215994 
L 86.884438 -263.215753 
L 85.516179 -263.215552 
L 84.14792 -263.215385 
L 82.779661 -263.215245 
z
"/>
    </defs>
    <g clip-path="url(#peea24e562c)">
     <use xlink:href="#m13e10cc80d" x="0" y="299.52" style="fill: #406992; fill-opacity: 0.05"/>
    </g>
   </g>
   <g id="tf-swoop-YD">
    <defs>
     <path id="mf6d6f110ab" d="M 82.779661 -36.304755 
L 82.779661 -83.149865 
L 84.14792 -83.149725 
L 85.516179 -83.149558 
L 86.884438 -83.149357 
L 88.252696 -83.149116 
L 89.620955 -83.148828 
L 90.989214 -83.148481 
L 92.357473 -83.148066 
L 93.725732 -83.147568 
L 95.093991 -83.146971 
L 96.46225 -83.146255 
L 97.830508 -83.145397 
L 99.198767 -83.144367 
L 100.567026 -83.143133 
L 101.935285 -83.141654 
L 103.303544 -83.13988 
L 104.671803 -83.137754 
L 106.040062 -83.135207 
L 107.40832 -83.132155 
L 108.776579 -83.128498 
L 110.144838 -83.124119 
L 111.513097 -83.118875 
L 112.881356 -83.112598 
L 114.249615 -83.105088 
L 115.617874 -83.096108 
L 116.986133 -83.085374 
L 118.354391 -83.072554 
L 119.72265 -83.057255 
L 121.090909 -83.039015 
L 122.459168 -83.017295 
L 123.827427 -82.991466 
L 125.195686 -82.960804 
L 126.563945 -82.924474 
L 127.932203 -82.881531 
L 129.300462 -82.830909 
L 130.668721 -82.771431 
L 132.03698 -82.701814 
L 133.405239 -82.620692 
L 134.773498 -82.526658 
L 136.141757 -82.418312 
L 137.510015 -82.294342 
L 138.878274 -82.153618 
L 140.246533 -81.995314 
L 141.614792 -81.819031 
L 142.983051 -81.624933 
L 144.35131 -81.413861 
L 145.719569 -81.18741 
L 147.087827 -80.947955 
L 148.456086 -80.698598 
L 149.824345 -80.443038 
L 151.192604 -80.185364 
L 152.560863 -79.929804 
L 153.929122 -79.680447 
L 155.297381 -79.440993 
L 156.665639 -79.214542 
L 158.033898 -79.003469 
L 159.402157 -78.809371 
L 160.770416 -78.633088 
L 162.138675 -78.474784 
L 163.506934 -78.334061 
L 164.875193 -78.21009 
L 166.243451 -78.101744 
L 167.61171 -78.00771 
L 168.979969 -77.926589 
L 170.348228 -77.856971 
L 171.716487 -77.797493 
L 173.084746 -77.746872 
L 174.453005 -77.703928 
L 175.821263 -77.667598 
L 177.189522 -77.636936 
L 178.557781 -77.611108 
L 179.92604 -77.589388 
L 181.294299 -77.571148 
L 182.662558 -77.555849 
L 184.030817 -77.543029 
L 185.399076 -77.532295 
L 186.767334 -77.523314 
L 188.135593 -77.515804 
L 189.503852 -77.509528 
L 190.872111 -77.504284 
L 192.24037 -77.499904 
L 193.608629 -77.496248 
L 194.976888 -77.493195 
L 196.345146 -77.490648 
L 197.713405 -77.488522 
L 199.081664 -77.486749 
L 200.449923 -77.485269 
L 201.818182 -77.484035 
L 203.186441 -77.483006 
L 204.5547 -77.482147 
L 205.922958 -77.481431 
L 207.291217 -77.480834 
L 208.659476 -77.480336 
L 210.027735 -77.479921 
L 211.395994 -77.479575 
L 212.764253 -77.479286 
L 214.132512 -77.479045 
L 215.50077 -77.478844 
L 216.869029 -77.478677 
L 218.237288 -77.478538 
L 218.237288 -30.633427 
L 218.237288 -30.633427 
L 216.869029 -30.633567 
L 215.50077 -30.633734 
L 214.132512 -30.633935 
L 212.764253 -30.634176 
L 211.395994 -30.634464 
L 210.027735 -30.634811 
L 208.659476 -30.635226 
L 207.291217 -30.635724 
L 205.922958 -30.636321 
L 204.5547 -30.637037 
L 203.186441 -30.637895 
L 201.818182 -30.638925 
L 200.449923 -30.640159 
L 199.081664 -30.641638 
L 197.713405 -30.643412 
L 196.345146 -30.645538 
L 194.976888 -30.648085 
L 193.608629 -30.651137 
L 192.24037 -30.654794 
L 190.872111 -30.659174 
L 189.503852 -30.664417 
L 188.135593 -30.670694 
L 186.767334 -30.678204 
L 185.399076 -30.687184 
L 184.030817 -30.697918 
L 182.662558 -30.710738 
L 181.294299 -30.726038 
L 179.92604 -30.744277 
L 178.557781 -30.765998 
L 177.189522 -30.791826 
L 175.821263 -30.822488 
L 174.453005 -30.858818 
L 173.084746 -30.901761 
L 171.716487 -30.952383 
L 170.348228 -31.011861 
L 168.979969 -31.081478 
L 167.61171 -31.1626 
L 166.243451 -31.256634 
L 164.875193 -31.36498 
L 163.506934 -31.48895 
L 162.138675 -31.629674 
L 160.770416 -31.787978 
L 159.402157 -31.964261 
L 158.033898 -32.158359 
L 156.665639 -32.369431 
L 155.297381 -32.595882 
L 153.929122 -32.835337 
L 152.560863 -33.084694 
L 151.192604 -33.340254 
L 149.824345 -33.597928 
L 148.456086 -33.853488 
L 147.087827 -34.102845 
L 145.719569 -34.342299 
L 144.35131 -34.568751 
L 142.983051 -34.779823 
L 141.614792 -34.973921 
L 140.246533 -35.150204 
L 138.878274 -35.308508 
L 137.510015 -35.449231 
L 136.141757 -35.573202 
L 134.773498 -35.681548 
L 133.405239 -35.775582 
L 132.03698 -35.856703 
L 130.668721 -35.926321 
L 129.300462 -35.985799 
L 127.932203 -36.036421 
L 126.563945 -36.079364 
L 125.195686 -36.115694 
L 123.827427 -36.146356 
L 122.459168 -36.172184 
L 121.090909 -36.193904 
L 119.72265 -36.212144 
L 118.354391 -36.227443 
L 116.986133 -36.240264 
L 115.617874 -36.250997 
L 114.249615 -36.259978 
L 112.881356 -36.267488 
L 111.513097 -36.273764 
L 110.144838 -36.279008 
L 108.776579 -36.283388 
L 107.40832 -36.287044 
L 106.040062 -36.290097 
L 104.671803 -36.292644 
L 103.303544 -36.29477 
L 101.935285 -36.296543 
L 100.567026 -36.298023 
L 99.198767 -36.299257 
L 97.830508 -36.300286 
L 96.46225 -36.301145 
L 95.093991 -36.301861 
L 93.725732 -36.302458 
L 92.357473 -36.302956 
L 90.989214 -36.303371 
L 89.620955 -36.303717 
L 88.252696 -36.304006 
L 86.884438 -36.304247 
L 85.516179 -36.304448 
L 84.14792 -36.304615 
L 82.779661 -36.304755 
z
"/>
    </defs>
    <g clip-path="url(#peea24e562c)">
     <use xlink:href="#mf6d6f110ab" x="0" y="299.52" style="fill: #b78935; fill-opacity: 0.05"/>
    </g>
   </g>
   <g id="tf-bar-ND">
    <defs>
     <path id="m71cdf12c5c" d="M 218.237288 -88.823292 
L 218.237288 -268.887273 
L 233.288136 -268.887273 
L 233.288136 -88.823292 
L 233.288136 -88.823292 
L 218.237288 -88.823292 
z
"/>
    </defs>
    <g clip-path="url(#peea24e562c)">
     <use xlink:href="#m71cdf12c5c" x="0" y="299.52" style="fill: #406992; fill-opacity: 0.25"/>
    </g>
   </g>
   <g id="tf-bar-YD">
    <defs>
     <path id="m2330762e88" d="M 218.237288 -30.632727 
L 218.237288 -77.477838 
L 233.288136 -77.477838 
L 233.288136 -30.632727 
L 233.288136 -30.632727 
L 218.237288 -30.632727 
z
"/>
    </defs>
    <g clip-path="url(#peea24e562c)">
     <use xlink:href="#m2330762e88" x="0" y="299.52" style="fill: #b78935; fill-opacity: 0.25"/>
    </g>
   </g>
   <g id="tf-bar-YD-YD">
    <defs>
     <path id="m3ef8bbdf4f" d="M 368.745763 -13.614545 
L 368.745763 -50.708767 
L 383.79661 -50.708767 
L 383.79661 -13.614545 
L 383.79661 -13.614545 
L 368.745763 -13.614545 
z
"/>
    </defs>
    <g clip-path="url(#peea24e562c)">
     <use xlink:href="#m3ef8bbdf4f" x="0" y="299.52" style="fill: #b78935; fill-opacity: 0.25"/>
    </g>
   </g>
   <g id="tf-bar-YD-ND">
    <defs>
     <path id="mc310a62804" d="M 368.745763 -62.054222 
L 368.745763 -71.80511 
L 383.79661 -71.80511 
L 383.79661 -62.054222 
L 383.79661 -62.054222 
L 368.745763 -62.054222 
z
"/>
    </defs>
    <g clip-path="url(#peea24e562c)">
     <use xlink:href="#mc310a62804" x="0" y="299.52" style="fill: #949494; fill-opacity: 0.25"/>
    </g>
   </g>
   <g id="tf-bar-ND-YD">
    <defs>
     <path id="m8770ed1220" d="M 368.745763 -94.496019 
L 368.745763 -106.234521 
L 383.79661 -106.234521 
L 383.79661 -94.496019 
L 383.79661 -94.496019 
L 368.745763 -94.496019 
z
"/>
    </defs>
    <g clip-path="url(#peea24e562c)">
     <use xlink:href="#m8770ed1220" x="0" y="299.52" style="fill: #949494; fill-opacity: 0.25"/>
    </g>
   </g>
   <g id="tf-bar-ND-ND">
    <defs>
     <path id="mb567ee8583" d="M 368.745763 -117.579975 
L 368.745763 -285.905455 
L 383.79661 -285.905455 
L 383.79661 -117.579975 
L 383.79661 -117.579975 
L 368.745763 -117.579975 
z
"/>
    </defs>
    <g clip-path="url(#peea24e562c)">
     <use xlink:href="#mb567ee8583" x="0" y="299.52" style="fill: #406992; fill-opacity: 0.25"/>
    </g>
   </g>
   <g id="tf-swoop-YD-ND">
    <defs>
     <path id="m03cf476560" d="M 233.288136 -67.726249 
L 233.288136 -77.477138 
L 234.656394 -77.476998 
L 236.024653 -77.476831 
L 237.392912 -77.47663 
L 238.761171 -77.476389 
L 240.12943 -77.4761 
L 241.497689 -77.475754 
L 242.865948 -77.475339 
L 244.234206 -77.474841 
L 245.602465 -77.474244 
L 246.970724 -77.473528 
L 248.338983 -77.472669 
L 249.707242 -77.47164 
L 251.075501 -77.470406 
L 252.44376 -77.468926 
L 253.812018 -77.467153 
L 255.180277 -77.465027 
L 256.548536 -77.46248 
L 257.916795 -77.459427 
L 259.285054 -77.455771 
L 260.653313 -77.451391 
L 262.021572 -77.446147 
L 263.389831 -77.439871 
L 264.758089 -77.432361 
L 266.126348 -77.42338 
L 267.494607 -77.412647 
L 268.862866 -77.399826 
L 270.231125 -77.384527 
L 271.599384 -77.366287 
L 272.967643 -77.344567 
L 274.335901 -77.318739 
L 275.70416 -77.288077 
L 277.072419 -77.251747 
L 278.440678 -77.208803 
L 279.808937 -77.158182 
L 281.177196 -77.098704 
L 282.545455 -77.029086 
L 283.913713 -76.947965 
L 285.281972 -76.853931 
L 286.650231 -76.745585 
L 288.01849 -76.621614 
L 289.386749 -76.480891 
L 290.755008 -76.322587 
L 292.123267 -76.146304 
L 293.491525 -75.952206 
L 294.859784 -75.741134 
L 296.228043 -75.514682 
L 297.596302 -75.275228 
L 298.964561 -75.025871 
L 300.33282 -74.770311 
L 301.701079 -74.512637 
L 303.069337 -74.257077 
L 304.437596 -74.00772 
L 305.805855 -73.768265 
L 307.174114 -73.541814 
L 308.542373 -73.330742 
L 309.910632 -73.136644 
L 311.278891 -72.960361 
L 312.647149 -72.802057 
L 314.015408 -72.661333 
L 315.383667 -72.537363 
L 316.751926 -72.429017 
L 318.120185 -72.334983 
L 319.488444 -72.253861 
L 320.856703 -72.184244 
L 322.224961 -72.124766 
L 323.59322 -72.074144 
L 324.961479 -72.031201 
L 326.329738 -71.994871 
L 327.697997 -71.964209 
L 329.066256 -71.938381 
L 330.434515 -71.91666 
L 331.802773 -71.898421 
L 333.171032 -71.883121 
L 334.539291 -71.870301 
L 335.90755 -71.859567 
L 337.275809 -71.850587 
L 338.644068 -71.843077 
L 340.012327 -71.8368 
L 341.380586 -71.831557 
L 342.748844 -71.827177 
L 344.117103 -71.82352 
L 345.485362 -71.820468 
L 346.853621 -71.817921 
L 348.22188 -71.815795 
L 349.590139 -71.814021 
L 350.958398 -71.812542 
L 352.326656 -71.811308 
L 353.694915 -71.810278 
L 355.063174 -71.80942 
L 356.431433 -71.808704 
L 357.799692 -71.808107 
L 359.167951 -71.807609 
L 360.53621 -71.807194 
L 361.904468 -71.806847 
L 363.272727 -71.806559 
L 364.640986 -71.806318 
L 366.009245 -71.806117 
L 367.377504 -71.80595 
L 368.745763 -71.80581 
L 368.745763 -62.054922 
L 368.745763 -62.054922 
L 367.377504 -62.055061 
L 366.009245 -62.055229 
L 364.640986 -62.055429 
L 363.272727 -62.05567 
L 361.904468 -62.055959 
L 360.53621 -62.056305 
L 359.167951 -62.05672 
L 357.799692 -62.057218 
L 356.431433 -62.057815 
L 355.063174 -62.058531 
L 353.694915 -62.05939 
L 352.326656 -62.060419 
L 350.958398 -62.061653 
L 349.590139 -62.063133 
L 348.22188 -62.064906 
L 346.853621 -62.067032 
L 345.485362 -62.069579 
L 344.117103 -62.072632 
L 342.748844 -62.076288 
L 341.380586 -62.080668 
L 340.012327 -62.085912 
L 338.644068 -62.092188 
L 337.275809 -62.099698 
L 335.90755 -62.108679 
L 334.539291 -62.119413 
L 333.171032 -62.132233 
L 331.802773 -62.147532 
L 330.434515 -62.165772 
L 329.066256 -62.187492 
L 327.697997 -62.21332 
L 326.329738 -62.243983 
L 324.961479 -62.280312 
L 323.59322 -62.323256 
L 322.224961 -62.373877 
L 320.856703 -62.433355 
L 319.488444 -62.502973 
L 318.120185 -62.584094 
L 316.751926 -62.678128 
L 315.383667 -62.786474 
L 314.015408 -62.910445 
L 312.647149 -63.051168 
L 311.278891 -63.209472 
L 309.910632 -63.385755 
L 308.542373 -63.579853 
L 307.174114 -63.790926 
L 305.805855 -64.017377 
L 304.437596 -64.256832 
L 303.069337 -64.506188 
L 301.701079 -64.761748 
L 300.33282 -65.019422 
L 298.964561 -65.274982 
L 297.596302 -65.524339 
L 296.228043 -65.763794 
L 294.859784 -65.990245 
L 293.491525 -66.201318 
L 292.123267 -66.395416 
L 290.755008 -66.571698 
L 289.386749 -66.730003 
L 288.01849 -66.870726 
L 286.650231 -66.994696 
L 285.281972 -67.103042 
L 283.913713 -67.197076 
L 282.545455 -67.278198 
L 281.177196 -67.347815 
L 279.808937 -67.407293 
L 278.440678 -67.457915 
L 277.072419 -67.500858 
L 275.70416 -67.537188 
L 274.335901 -67.56785 
L 272.967643 -67.593679 
L 271.599384 -67.615399 
L 270.231125 -67.633639 
L 268.862866 -67.648938 
L 267.494607 -67.661758 
L 266.126348 -67.672492 
L 264.758089 -67.681473 
L 263.389831 -67.688982 
L 262.021572 -67.695259 
L 260.653313 -67.700503 
L 259.285054 -67.704882 
L 257.916795 -67.708539 
L 256.548536 -67.711591 
L 255.180277 -67.714139 
L 253.812018 -67.716264 
L 252.44376 -67.718038 
L 251.075501 -67.719517 
L 249.707242 -67.720751 
L 248.338983 -67.721781 
L 246.970724 -67.722639 
L 245.602465 -67.723355 
L 244.234206 -67.723952 
L 242.865948 -67.72445 
L 241.497689 -67.724866 
L 240.12943 -67.725212 
L 238.761171 -67.725501 
L 237.392912 -67.725741 
L 236.024653 -67.725942 
L 234.656394 -67.726109 
L 233.288136 -67.726249 
z
"/>
    </defs>
    <g clip-path="url(#peea24e562c)">
     <use xlink:href="#m03cf476560" x="0" y="299.52" style="fill: #949494; fill-opacity: 0.05"/>
    </g>
   </g>
   <g id="tf-swoop-YD-YD">
    <defs>
     <path id="mef5ae2776e" d="M 233.288136 -30.630627 
L 233.288136 -67.724849 
L 234.656394 -67.72443 
L 236.024653 -67.723928 
L 237.392912 -67.723326 
L 238.761171 -67.722604 
L 240.12943 -67.721738 
L 241.497689 -67.720699 
L 242.865948 -67.719453 
L 244.234206 -67.717959 
L 245.602465 -67.716168 
L 246.970724 -67.71402 
L 248.338983 -67.711445 
L 249.707242 -67.708356 
L 251.075501 -67.704654 
L 252.44376 -67.700215 
L 253.812018 -67.694895 
L 255.180277 -67.688518 
L 256.548536 -67.680876 
L 257.916795 -67.671719 
L 259.285054 -67.660749 
L 260.653313 -67.64761 
L 262.021572 -67.631879 
L 263.389831 -67.613049 
L 264.758089 -67.59052 
L 266.126348 -67.563577 
L 267.494607 -67.531376 
L 268.862866 -67.492916 
L 270.231125 -67.447018 
L 271.599384 -67.392299 
L 272.967643 -67.327138 
L 274.335901 -67.249653 
L 275.70416 -67.157666 
L 277.072419 -67.048677 
L 278.440678 -66.919847 
L 279.808937 -66.767982 
L 281.177196 -66.589548 
L 282.545455 -66.380695 
L 283.913713 -66.137332 
L 285.281972 -65.855229 
L 286.650231 -65.530191 
L 288.01849 -65.15828 
L 289.386749 -64.73611 
L 290.755008 -64.261197 
L 292.123267 -63.732349 
L 293.491525 -63.150055 
L 294.859784 -62.516837 
L 296.228043 -61.837484 
L 297.596302 -61.119119 
L 298.964561 -60.37105 
L 300.33282 -59.604369 
L 301.701079 -58.831347 
L 303.069337 -58.064667 
L 304.437596 -57.316597 
L 305.805855 -56.598232 
L 307.174114 -55.918879 
L 308.542373 -55.285661 
L 309.910632 -54.703367 
L 311.278891 -54.174519 
L 312.647149 -53.699606 
L 314.015408 -53.277436 
L 315.383667 -52.905525 
L 316.751926 -52.580487 
L 318.120185 -52.298385 
L 319.488444 -52.055021 
L 320.856703 -51.846168 
L 322.224961 -51.667734 
L 323.59322 -51.515869 
L 324.961479 -51.387039 
L 326.329738 -51.27805 
L 327.697997 -51.186063 
L 329.066256 -51.108578 
L 330.434515 -51.043418 
L 331.802773 -50.988698 
L 333.171032 -50.9428 
L 334.539291 -50.90434 
L 335.90755 -50.872139 
L 337.275809 -50.845196 
L 338.644068 -50.822667 
L 340.012327 -50.803838 
L 341.380586 -50.788106 
L 342.748844 -50.774967 
L 344.117103 -50.763998 
L 345.485362 -50.754841 
L 346.853621 -50.747198 
L 348.22188 -50.740821 
L 349.590139 -50.735501 
L 350.958398 -50.731062 
L 352.326656 -50.72736 
L 353.694915 -50.724272 
L 355.063174 -50.721696 
L 356.431433 -50.719548 
L 357.799692 -50.717757 
L 359.167951 -50.716263 
L 360.53621 -50.715017 
L 361.904468 -50.713978 
L 363.272727 -50.713112 
L 364.640986 -50.71239 
L 366.009245 -50.711788 
L 367.377504 -50.711286 
L 368.745763 -50.710867 
L 368.745763 -13.616645 
L 368.745763 -13.616645 
L 367.377504 -13.617064 
L 366.009245 -13.617566 
L 364.640986 -13.618168 
L 363.272727 -13.618891 
L 361.904468 -13.619757 
L 360.53621 -13.620795 
L 359.167951 -13.622041 
L 357.799692 -13.623535 
L 356.431433 -13.625326 
L 355.063174 -13.627474 
L 353.694915 -13.63005 
L 352.326656 -13.633138 
L 350.958398 -13.63684 
L 349.590139 -13.641279 
L 348.22188 -13.6466 
L 346.853621 -13.652977 
L 345.485362 -13.660619 
L 344.117103 -13.669776 
L 342.748844 -13.680746 
L 341.380586 -13.693884 
L 340.012327 -13.709616 
L 338.644068 -13.728446 
L 337.275809 -13.750975 
L 335.90755 -13.777917 
L 334.539291 -13.810118 
L 333.171032 -13.848579 
L 331.802773 -13.894476 
L 330.434515 -13.949196 
L 329.066256 -14.014356 
L 327.697997 -14.091841 
L 326.329738 -14.183828 
L 324.961479 -14.292817 
L 323.59322 -14.421648 
L 322.224961 -14.573512 
L 320.856703 -14.751947 
L 319.488444 -14.960799 
L 318.120185 -15.204163 
L 316.751926 -15.486266 
L 315.383667 -15.811304 
L 314.015408 -16.183215 
L 312.647149 -16.605384 
L 311.278891 -17.080297 
L 309.910632 -17.609146 
L 308.542373 -18.191439 
L 307.174114 -18.824657 
L 305.805855 -19.504011 
L 304.437596 -20.222375 
L 303.069337 -20.970445 
L 301.701079 -21.737126 
L 300.33282 -22.510147 
L 298.964561 -23.276828 
L 297.596302 -24.024898 
L 296.228043 -24.743262 
L 294.859784 -25.422615 
L 293.491525 -26.055833 
L 292.123267 -26.638127 
L 290.755008 -27.166976 
L 289.386749 -27.641888 
L 288.01849 -28.064058 
L 286.650231 -28.435969 
L 285.281972 -28.761007 
L 283.913713 -29.04311 
L 282.545455 -29.286474 
L 281.177196 -29.495326 
L 279.808937 -29.673761 
L 278.440678 -29.825625 
L 277.072419 -29.954456 
L 275.70416 -30.063444 
L 274.335901 -30.155432 
L 272.967643 -30.232917 
L 271.599384 -30.298077 
L 270.231125 -30.352796 
L 268.862866 -30.398694 
L 267.494607 -30.437154 
L 266.126348 -30.469356 
L 264.758089 -30.496298 
L 263.389831 -30.518827 
L 262.021572 -30.537657 
L 260.653313 -30.553388 
L 259.285054 -30.566527 
L 257.916795 -30.577497 
L 256.548536 -30.586654 
L 255.180277 -30.594296 
L 253.812018 -30.600673 
L 252.44376 -30.605994 
L 251.075501 -30.610432 
L 249.707242 -30.614135 
L 248.338983 -30.617223 
L 246.970724 -30.619798 
L 245.602465 -30.621946 
L 244.234206 -30.623738 
L 242.865948 -30.625232 
L 241.497689 -30.626477 
L 240.12943 -30.627516 
L 238.761171 -30.628382 
L 237.392912 -30.629104 
L 236.024653 -30.629707 
L 234.656394 -30.630209 
L 233.288136 -30.630627 
z
"/>
    </defs>
    <g clip-path="url(#peea24e562c)">
     <use xlink:href="#mef5ae2776e" x="0" y="299.52" style="fill: #b78935; fill-opacity: 0.05"/>
    </g>
   </g>
   <g id="tf-swoop-ND-YD">
    <defs>
     <path id="m532d9341ee" d="M 233.288136 -100.562493 
L 233.288136 -88.823992 
L 234.656394 -88.824132 
L 236.024653 -88.824299 
L 237.392912 -88.8245 
L 238.761171 -88.82474 
L 240.12943 -88.825029 
L 241.497689 -88.825375 
L 242.865948 -88.825791 
L 244.234206 -88.826289 
L 245.602465 -88.826886 
L 246.970724 -88.827602 
L 248.338983 -88.82846 
L 249.707242 -88.82949 
L 251.075501 -88.830724 
L 252.44376 -88.832203 
L 253.812018 -88.833977 
L 255.180277 -88.836102 
L 256.548536 -88.83865 
L 257.916795 -88.841702 
L 259.285054 -88.845359 
L 260.653313 -88.849738 
L 262.021572 -88.854982 
L 263.389831 -88.861259 
L 264.758089 -88.868769 
L 266.126348 -88.877749 
L 267.494607 -88.888483 
L 268.862866 -88.901303 
L 270.231125 -88.916602 
L 271.599384 -88.934842 
L 272.967643 -88.956562 
L 274.335901 -88.982391 
L 275.70416 -89.013053 
L 277.072419 -89.049383 
L 278.440678 -89.092326 
L 279.808937 -89.142948 
L 281.177196 -89.202426 
L 282.545455 -89.272043 
L 283.913713 -89.353165 
L 285.281972 -89.447199 
L 286.650231 -89.555545 
L 288.01849 -89.679515 
L 289.386749 -89.820238 
L 290.755008 -89.978543 
L 292.123267 -90.154825 
L 293.491525 -90.348923 
L 294.859784 -90.559996 
L 296.228043 -90.786447 
L 297.596302 -91.025902 
L 298.964561 -91.275259 
L 300.33282 -91.530819 
L 301.701079 -91.788493 
L 303.069337 -92.044053 
L 304.437596 -92.293409 
L 305.805855 -92.532864 
L 307.174114 -92.759315 
L 308.542373 -92.970388 
L 309.910632 -93.164486 
L 311.278891 -93.340769 
L 312.647149 -93.499073 
L 314.015408 -93.639796 
L 315.383667 -93.763767 
L 316.751926 -93.872113 
L 318.120185 -93.966147 
L 319.488444 -94.047268 
L 320.856703 -94.116886 
L 322.224961 -94.176364 
L 323.59322 -94.226985 
L 324.961479 -94.269929 
L 326.329738 -94.306258 
L 327.697997 -94.336921 
L 329.066256 -94.362749 
L 330.434515 -94.384469 
L 331.802773 -94.402709 
L 333.171032 -94.418008 
L 334.539291 -94.430828 
L 335.90755 -94.441562 
L 337.275809 -94.450543 
L 338.644068 -94.458053 
L 340.012327 -94.464329 
L 341.380586 -94.469573 
L 342.748844 -94.473953 
L 344.117103 -94.477609 
L 345.485362 -94.480662 
L 346.853621 -94.483209 
L 348.22188 -94.485335 
L 349.590139 -94.487108 
L 350.958398 -94.488588 
L 352.326656 -94.489822 
L 353.694915 -94.490851 
L 355.063174 -94.49171 
L 356.431433 -94.492426 
L 357.799692 -94.493023 
L 359.167951 -94.493521 
L 360.53621 -94.493936 
L 361.904468 -94.494282 
L 363.272727 -94.494571 
L 364.640986 -94.494812 
L 366.009245 -94.495012 
L 367.377504 -94.49518 
L 368.745763 -94.495319 
L 368.745763 -106.233821 
L 368.745763 -106.233821 
L 367.377504 -106.233681 
L 366.009245 -106.233514 
L 364.640986 -106.233313 
L 363.272727 -106.233072 
L 361.904468 -106.232783 
L 360.53621 -106.232437 
L 359.167951 -106.232022 
L 357.799692 -106.231524 
L 356.431433 -106.230927 
L 355.063174 -106.230211 
L 353.694915 -106.229352 
L 352.326656 -106.228323 
L 350.958398 -106.227089 
L 349.590139 -106.225609 
L 348.22188 -106.223836 
L 346.853621 -106.22171 
L 345.485362 -106.219163 
L 344.117103 -106.21611 
L 342.748844 -106.212454 
L 341.380586 -106.208074 
L 340.012327 -106.20283 
L 338.644068 -106.196554 
L 337.275809 -106.189044 
L 335.90755 -106.180063 
L 334.539291 -106.16933 
L 333.171032 -106.156509 
L 331.802773 -106.14121 
L 330.434515 -106.12297 
L 329.066256 -106.10125 
L 327.697997 -106.075422 
L 326.329738 -106.04476 
L 324.961479 -106.00843 
L 323.59322 -105.965486 
L 322.224961 -105.914865 
L 320.856703 -105.855387 
L 319.488444 -105.785769 
L 318.120185 -105.704648 
L 316.751926 -105.610614 
L 315.383667 -105.502268 
L 314.015408 -105.378297 
L 312.647149 -105.237574 
L 311.278891 -105.07927 
L 309.910632 -104.902987 
L 308.542373 -104.708889 
L 307.174114 -104.497816 
L 305.805855 -104.271365 
L 304.437596 -104.031911 
L 303.069337 -103.782554 
L 301.701079 -103.526994 
L 300.33282 -103.26932 
L 298.964561 -103.01376 
L 297.596302 -102.764403 
L 296.228043 -102.524948 
L 294.859784 -102.298497 
L 293.491525 -102.087425 
L 292.123267 -101.893327 
L 290.755008 -101.717044 
L 289.386749 -101.55874 
L 288.01849 -101.418016 
L 286.650231 -101.294046 
L 285.281972 -101.1857 
L 283.913713 -101.091666 
L 282.545455 -101.010544 
L 281.177196 -100.940927 
L 279.808937 -100.881449 
L 278.440678 -100.830827 
L 277.072419 -100.787884 
L 275.70416 -100.751554 
L 274.335901 -100.720892 
L 272.967643 -100.695063 
L 271.599384 -100.673343 
L 270.231125 -100.655104 
L 268.862866 -100.639804 
L 267.494607 -100.626984 
L 266.126348 -100.61625 
L 264.758089 -100.60727 
L 263.389831 -100.59976 
L 262.021572 -100.593483 
L 260.653313 -100.58824 
L 259.285054 -100.58386 
L 257.916795 -100.580203 
L 256.548536 -100.577151 
L 255.180277 -100.574604 
L 253.812018 -100.572478 
L 252.44376 -100.570704 
L 251.075501 -100.569225 
L 249.707242 -100.567991 
L 248.338983 -100.566961 
L 246.970724 -100.566103 
L 245.602465 -100.565387 
L 244.234206 -100.56479 
L 242.865948 -100.564292 
L 241.497689 -100.563877 
L 240.12943 -100.56353 
L 238.761171 -100.563242 
L 237.392912 -100.563001 
L 236.024653 -100.5628 
L 234.656394 -100.562633 
L 233.288136 -100.562493 
z
"/>
    </defs>
    <g clip-path="url(#peea24e562c)">
     <use xlink:href="#m532d9341ee" x="0" y="299.52" style="fill: #949494; fill-opacity: 0.05"/>
    </g>
   </g>
   <g id="tf-swoop-ND-ND">
    <defs>
     <path id="m890870a06c" d="M 233.288136 -268.889373 
L 233.288136 -100.563893 
L 234.656394 -100.564312 
L 236.024653 -100.564814 
L 237.392912 -100.565416 
L 238.761171 -100.566138 
L 240.12943 -100.567004 
L 241.497689 -100.568043 
L 242.865948 -100.569289 
L 244.234206 -100.570783 
L 245.602465 -100.572574 
L 246.970724 -100.574722 
L 248.338983 -100.577298 
L 249.707242 -100.580386 
L 251.075501 -100.584088 
L 252.44376 -100.588527 
L 253.812018 -100.593847 
L 255.180277 -100.600224 
L 256.548536 -100.607867 
L 257.916795 -100.617024 
L 259.285054 -100.627994 
L 260.653313 -100.641132 
L 262.021572 -100.656864 
L 263.389831 -100.675693 
L 264.758089 -100.698223 
L 266.126348 -100.725165 
L 267.494607 -100.757366 
L 268.862866 -100.795826 
L 270.231125 -100.841724 
L 271.599384 -100.896444 
L 272.967643 -100.961604 
L 274.335901 -101.039089 
L 275.70416 -101.131076 
L 277.072419 -101.240065 
L 278.440678 -101.368895 
L 279.808937 -101.52076 
L 281.177196 -101.699194 
L 282.545455 -101.908047 
L 283.913713 -102.151411 
L 285.281972 -102.433513 
L 286.650231 -102.758552 
L 288.01849 -103.130462 
L 289.386749 -103.552632 
L 290.755008 -104.027545 
L 292.123267 -104.556393 
L 293.491525 -105.138687 
L 294.859784 -105.771905 
L 296.228043 -106.451259 
L 297.596302 -107.169623 
L 298.964561 -107.917693 
L 300.33282 -108.684373 
L 301.701079 -109.457395 
L 303.069337 -110.224076 
L 304.437596 -110.972145 
L 305.805855 -111.69051 
L 307.174114 -112.369863 
L 308.542373 -113.003081 
L 309.910632 -113.585375 
L 311.278891 -114.114223 
L 312.647149 -114.589136 
L 314.015408 -115.011306 
L 315.383667 -115.383217 
L 316.751926 -115.708255 
L 318.120185 -115.990358 
L 319.488444 -116.233721 
L 320.856703 -116.442574 
L 322.224961 -116.621008 
L 323.59322 -116.772873 
L 324.961479 -116.901704 
L 326.329738 -117.010692 
L 327.697997 -117.102679 
L 329.066256 -117.180164 
L 330.434515 -117.245325 
L 331.802773 -117.300044 
L 333.171032 -117.345942 
L 334.539291 -117.384402 
L 335.90755 -117.416603 
L 337.275809 -117.443546 
L 338.644068 -117.466075 
L 340.012327 -117.484905 
L 341.380586 -117.500636 
L 342.748844 -117.513775 
L 344.117103 -117.524745 
L 345.485362 -117.533902 
L 346.853621 -117.541544 
L 348.22188 -117.547921 
L 349.590139 -117.553241 
L 350.958398 -117.55768 
L 352.326656 -117.561382 
L 353.694915 -117.564471 
L 355.063174 -117.567046 
L 356.431433 -117.569194 
L 357.799692 -117.570986 
L 359.167951 -117.572479 
L 360.53621 -117.573725 
L 361.904468 -117.574764 
L 363.272727 -117.57563 
L 364.640986 -117.576352 
L 366.009245 -117.576954 
L 367.377504 -117.577456 
L 368.745763 -117.577875 
L 368.745763 -285.903355 
L 368.745763 -285.903355 
L 367.377504 -285.902936 
L 366.009245 -285.902434 
L 364.640986 -285.901832 
L 363.272727 -285.901109 
L 361.904468 -285.900243 
L 360.53621 -285.899205 
L 359.167951 -285.897959 
L 357.799692 -285.896465 
L 356.431433 -285.894674 
L 355.063174 -285.892526 
L 353.694915 -285.88995 
L 352.326656 -285.886862 
L 350.958398 -285.88316 
L 349.590139 -285.878721 
L 348.22188 -285.8734 
L 346.853621 -285.867023 
L 345.485362 -285.859381 
L 344.117103 -285.850224 
L 342.748844 -285.839254 
L 341.380586 -285.826116 
L 340.012327 -285.810384 
L 338.644068 -285.791554 
L 337.275809 -285.769025 
L 335.90755 -285.742083 
L 334.539291 -285.709882 
L 333.171032 -285.671421 
L 331.802773 -285.625524 
L 330.434515 -285.570804 
L 329.066256 -285.505644 
L 327.697997 -285.428159 
L 326.329738 -285.336172 
L 324.961479 -285.227183 
L 323.59322 -285.098352 
L 322.224961 -284.946488 
L 320.856703 -284.768053 
L 319.488444 -284.559201 
L 318.120185 -284.315837 
L 316.751926 -284.033734 
L 315.383667 -283.708696 
L 314.015408 -283.336785 
L 312.647149 -282.914616 
L 311.278891 -282.439703 
L 309.910632 -281.910854 
L 308.542373 -281.328561 
L 307.174114 -280.695343 
L 305.805855 -280.015989 
L 304.437596 -279.297625 
L 303.069337 -278.549555 
L 301.701079 -277.782874 
L 300.33282 -277.009853 
L 298.964561 -276.243172 
L 297.596302 -275.495102 
L 296.228043 -274.776738 
L 294.859784 -274.097385 
L 293.491525 -273.464167 
L 292.123267 -272.881873 
L 290.755008 -272.353024 
L 289.386749 -271.878112 
L 288.01849 -271.455942 
L 286.650231 -271.084031 
L 285.281972 -270.758993 
L 283.913713 -270.47689 
L 282.545455 -270.233526 
L 281.177196 -270.024674 
L 279.808937 -269.846239 
L 278.440678 -269.694375 
L 277.072419 -269.565544 
L 275.70416 -269.456556 
L 274.335901 -269.364568 
L 272.967643 -269.287083 
L 271.599384 -269.221923 
L 270.231125 -269.167204 
L 268.862866 -269.121306 
L 267.494607 -269.082846 
L 266.126348 -269.050644 
L 264.758089 -269.023702 
L 263.389831 -269.001173 
L 262.021572 -268.982343 
L 260.653313 -268.966612 
L 259.285054 -268.953473 
L 257.916795 -268.942503 
L 256.548536 -268.933346 
L 255.180277 -268.925704 
L 253.812018 -268.919327 
L 252.44376 -268.914006 
L 251.075501 -268.909568 
L 249.707242 -268.905865 
L 248.338983 -268.902777 
L 246.970724 -268.900202 
L 245.602465 -268.898054 
L 244.234206 -268.896262 
L 242.865948 -268.894768 
L 241.497689 -268.893523 
L 240.12943 -268.892484 
L 238.761171 -268.891618 
L 237.392912 -268.890896 
L 236.024653 -268.890293 
L 234.656394 -268.889791 
L 233.288136 -268.889373 
z
"/>
    </defs>
    <g clip-path="url(#peea24e562c)">
     <use xlink:href="#m890870a06c" x="0" y="299.52" style="fill: #406992; fill-opacity: 0.05"/>
    </g>
   </g>
   <g id="text_1">
    <text style="font-weight: 300; font-size: 16px; font-family: 'Source Sans 3', sans-serif; fill: #595959" transform="translate(-0.05161 145.05225)">All model</text>
    <text style="font-weight: 300; font-size: 16px; font-family: 'Source Sans 3', sans-serif; fill: #595959" transform="translate(-12.01911 162.46775)">predictions</text>
   </g>
   <g id="tf-label-YD">
    <text style="font-weight: 300; font-size: 16px; font-family: 'Source Sans 3', sans-serif; text-anchor: end; fill: #595959; opacity: 0" x="210.711864" y="249.368468" transform="rotate(-0 210.711864 249.368468)">Model predicts drought</text>
   </g>
   <g id="tf-label-ND">
    <text style="font-weight: 300; font-size: 16px; font-family: 'Source Sans 3', sans-serif; text-anchor: end; fill: #595959; opacity: 0" x="210.711864" y="124.568468" transform="rotate(-0 210.711864 124.568468)">Model predicts no drought</text>
   </g>
   <g id="tf-label-YD-YD">
    <text style="font-weight: 300; font-size: 16px; font-family: 'Source Sans 3', sans-serif; fill: #595959; opacity: 0" transform="translate(262.855339 253.846594)">Model correctly</text>
    <text style="font-weight: 300; font-size: 16px; font-family: 'Source Sans 3', sans-serif; fill: #595959; opacity: 0" transform="translate(245.092839 271.262094)">predicted drought</text>
    <text style="font-weight: 300; font-size: 16px; font-family: 'Source Sans 3', sans-serif; fill: #595959; opacity: 0" transform="translate(270.210339 288.870094)">(True Positive)</text>
   </g>
   <g id="tf-label-YD-ND">
    <text style="font-weight: 300; font-size: 16px; font-family: 'Source Sans 3', sans-serif; fill: #595959; opacity: 0" transform="translate(267.652839 218.982334)">Model wrongly</text>
    <text style="font-weight: 300; font-size: 16px; font-family: 'Source Sans 3', sans-serif; fill: #595959; opacity: 0" transform="translate(245.092839 236.590334)">predicted drought</text>
    <text style="font-weight: 300; font-size: 16px; font-family: 'Source Sans 3', sans-serif; fill: #595959; opacity: 0" transform="translate(266.435339 254.198334)">(False Positive)</text>
   </g>
   <g id="tf-label-ND-YD">
    <text style="font-weight: 300; font-size: 16px; font-family: 'Source Sans 3', sans-serif; fill: #595959; opacity: 0" transform="translate(272.837839 185.47023)">Model missed</text>
    <text style="font-weight: 300; font-size: 16px; font-family: 'Source Sans 3', sans-serif; fill: #595959; opacity: 0" transform="translate(285.890339 202.88573)">the drought</text>
    <text style="font-weight: 300; font-size: 16px; font-family: 'Source Sans 3', sans-serif; fill: #595959; opacity: 0" transform="translate(260.357839 220.64673)">(False Negative)</text>
   </g>
   <g id="tf-label-ND-ND">
    <text style="font-weight: 300; font-size: 16px; font-family: 'Source Sans 3', sans-serif; fill: #595959; opacity: 0" transform="translate(262.855339 84.092785)">Model correctly</text>
    <text style="font-weight: 300; font-size: 16px; font-family: 'Source Sans 3', sans-serif; fill: #595959; opacity: 0" transform="translate(224.965339 101.508285)">predicted no drought</text>
    <text style="font-weight: 300; font-size: 16px; font-family: 'Source Sans 3', sans-serif; fill: #595959; opacity: 0" transform="translate(264.132839 119.269285)">(True Negative)</text>
   </g>
  </g>
 </g>
 <defs>
  <clipPath id="peea24e562c">
   <rect x="0" y="0" width="399.6" height="299.52"/>
  </clipPath>
 </defs>
</svg>
