<?xml version="1.0" encoding="utf-8" standalone="no"?>
<!DOCTYPE svg PUBLIC "-//W3C//DTD SVG 1.1//EN"
  "http://www.w3.org/Graphics/SVG/1.1/DTD/svg11.dtd">
<svg xmlns:xlink="http://www.w3.org/1999/xlink" width="576pt" height="288pt" viewBox="0 0 576 288" xmlns="http://www.w3.org/2000/svg" version="1.1">
  <defs>
  <style type="text/css">*{stroke-linejoin: round; stroke-linecap: butt}</style>
 </defs>
 <g id="figure_1">
  <g id="patch_1">
   <path d="M 0 288 
L 576 288 
L 576 0 
L 0 0 
z
" style="fill: #ffffff"/>
  </g>
  <g id="axes_1">
   <g id="patch_2">
    <path d="M 57.6 237.6 
L 547.2 237.6 
L 547.2 21.6 
L 57.6 21.6 
z
" style="fill: #ffffff"/>
   </g>
   <g id="toggle-observations-forecast">
    <g id="patch_3">
     <path d="M 462.060837 19.36 
L 544.2624 19.36 
Q 545.2624 19.36 545.2624 18.36 
L 545.2624 9.080312 
Q 545.2624 8.080312 544.2624 8.080312 
L 462.060837 8.080312 
Q 461.060837 8.080312 461.060837 9.080312 
L 461.060837 18.36 
Q 461.060837 19.36 462.060837 19.36 
z
" style="fill: #666666; stroke: #666666; stroke-width: 0.75; stroke-linejoin: miter"/>
    </g>
    <text style="fill: #666666; font: 10px 'Univers 57 Condensed', sans-serif; text-anchor: end" x="544.2624" y="16.450625" transform="rotate(-0 544.2624 16.450625)">Toggle Observations</text>
   </g>
   <g id="matplotlib.axis_1">
    <g id="xtick_1">
     <g id="line2d_1">
      <defs>
       <path id="m2568752642" d="M 0 0 
L 0 3.5 
" style="stroke: #000000; stroke-width: 0.8"/>
      </defs>
      <g>
       <use xlink:href="#m2568752642" x="90.24" y="237.6" style="stroke: #000000; stroke-width: 0.8"/>
      </g>
     </g>
     <g id="text_1">
      <text style="font: 10px 'Univers 57 Condensed', sans-serif; text-anchor: middle" x="90.24" y="251.820312" transform="rotate(-0 90.24 251.820312)">2018-01-08</text>
     </g>
    </g>
    <g id="xtick_2">
     <g id="line2d_2">
      <g>
       <use xlink:href="#m2568752642" x="160.182857" y="237.6" style="stroke: #000000; stroke-width: 0.8"/>
      </g>
     </g>
     <g id="text_2">
      <text style="font: 10px 'Univers 57 Condensed', sans-serif; text-anchor: middle" x="160.182857" y="251.820312" transform="rotate(-0 160.182857 251.820312)">2018-01-23</text>
     </g>
    </g>
    <g id="xtick_3">
     <g id="line2d_3">
      <g>
       <use xlink:href="#m2568752642" x="230.125714" y="237.6" style="stroke: #000000; stroke-width: 0.8"/>
      </g>
     </g>
     <g id="text_3">
      <text style="font: 10px 'Univers 57 Condensed', sans-serif; text-anchor: middle" x="230.125714" y="251.820312" transform="rotate(-0 230.125714 251.820312)">2018-02-07</text>
     </g>
    </g>
    <g id="xtick_4">
     <g id="line2d_4">
      <g>
       <use xlink:href="#m2568752642" x="300.068571" y="237.6" style="stroke: #000000; stroke-width: 0.8"/>
      </g>
     </g>
     <g id="text_4">
      <text style="font: 10px 'Univers 57 Condensed', sans-serif; text-anchor: middle" x="300.068571" y="251.820312" transform="rotate(-0 300.068571 251.820312)">2018-02-22</text>
     </g>
    </g>
    <g id="xtick_5">
     <g id="line2d_5">
      <g>
       <use xlink:href="#m2568752642" x="370.011429" y="237.6" style="stroke: #000000; stroke-width: 0.8"/>
      </g>
     </g>
     <g id="text_5">
      <text style="font: 10px 'Univers 57 Condensed', sans-serif; text-anchor: middle" x="370.011429" y="251.820312" transform="rotate(-0 370.011429 251.820312)">2018-03-09</text>
     </g>
    </g>
    <g id="xtick_6">
     <g id="line2d_6">
      <g>
       <use xlink:href="#m2568752642" x="439.954286" y="237.6" style="stroke: #000000; stroke-width: 0.8"/>
      </g>
     </g>
     <g id="text_6">
      <text style="font: 10px 'Univers 57 Condensed', sans-serif; text-anchor: middle" x="439.954286" y="251.820312" transform="rotate(-0 439.954286 251.820312)">2018-03-24</text>
     </g>
    </g>
    <g id="xtick_7">
     <g id="line2d_7">
      <g>
       <use xlink:href="#m2568752642" x="514.56" y="237.6" style="stroke: #000000; stroke-width: 0.8"/>
      </g>
     </g>
     <g id="text_7">
      <text style="font: 10px 'Univers 57 Condensed', sans-serif; text-anchor: middle" x="514.56" y="251.820312" transform="rotate(-0 514.56 251.820312)">2018-04-09</text>
     </g>
    </g>
    <g id="text_8">
     <text style="font: 10px 'Univers 57 Condensed', sans-serif; text-anchor: middle" x="302.4" y="264.95" transform="rotate(-0 302.4 264.95)">Date</text>
    </g>
   </g>
   <g id="matplotlib.axis_2">
    <g id="ytick_1">
     <g id="line2d_8">
      <path d="M 57.6 237.6 
L 547.2 237.6 
" clip-path="url(#p8bf008eebb)" style="fill: none; stroke: #b0b0b0; stroke-width: 0.8; stroke-linecap: square"/>
     </g>
     <g id="line2d_9">
      <defs>
       <path id="m29472bf8d8" d="M 0 0 
L -3.5 0 
" style="stroke: #000000; stroke-width: 0.8"/>
      </defs>
      <g>
       <use xlink:href="#m29472bf8d8" x="57.6" y="237.6" style="stroke: #000000; stroke-width: 0.8"/>
      </g>
     </g>
     <g id="text_9">
      <text style="font: 10px 'Univers 57 Condensed', sans-serif; text-anchor: end" x="50.6" y="241.210156" transform="rotate(-0 50.6 241.210156)">0%</text>
     </g>
    </g>
    <g id="ytick_2">
     <g id="line2d_10">
      <path d="M 57.6 194.4 
L 547.2 194.4 
" clip-path="url(#p8bf008eebb)" style="fill: none; stroke: #b0b0b0; stroke-width: 0.8; stroke-linecap: square"/>
     </g>
     <g id="line2d_11">
      <g>
       <use xlink:href="#m29472bf8d8" x="57.6" y="194.4" style="stroke: #000000; stroke-width: 0.8"/>
      </g>
     </g>
     <g id="text_10">
      <text style="font: 10px 'Univers 57 Condensed', sans-serif; text-anchor: end" x="50.6" y="198.010156" transform="rotate(-0 50.6 198.010156)">20%</text>
     </g>
    </g>
    <g id="ytick_3">
     <g id="line2d_12">
      <path d="M 57.6 151.2 
L 547.2 151.2 
" clip-path="url(#p8bf008eebb)" style="fill: none; stroke: #b0b0b0; stroke-width: 0.8; stroke-linecap: square"/>
     </g>
     <g id="line2d_13">
      <g>
       <use xlink:href="#m29472bf8d8" x="57.6" y="151.2" style="stroke: #000000; stroke-width: 0.8"/>
      </g>
     </g>
     <g id="text_11">
      <text style="font: 10px 'Univers 57 Condensed', sans-serif; text-anchor: end" x="50.6" y="154.810156" transform="rotate(-0 50.6 154.810156)">40%</text>
     </g>
    </g>
    <g id="ytick_4">
     <g id="line2d_14">
      <path d="M 57.6 108 
L 547.2 108 
" clip-path="url(#p8bf008eebb)" style="fill: none; stroke: #b0b0b0; stroke-width: 0.8; stroke-linecap: square"/>
     </g>
     <g id="line2d_15">
      <g>
       <use xlink:href="#m29472bf8d8" x="57.6" y="108" style="stroke: #000000; stroke-width: 0.8"/>
      </g>
     </g>
     <g id="text_12">
      <text style="font: 10px 'Univers 57 Condensed', sans-serif; text-anchor: end" x="50.6" y="111.610156" transform="rotate(-0 50.6 111.610156)">60%</text>
     </g>
    </g>
    <g id="ytick_5">
     <g id="line2d_16">
      <path d="M 57.6 64.8 
L 547.2 64.8 
" clip-path="url(#p8bf008eebb)" style="fill: none; stroke: #b0b0b0; stroke-width: 0.8; stroke-linecap: square"/>
     </g>
     <g id="line2d_17">
      <g>
       <use xlink:href="#m29472bf8d8" x="57.6" y="64.8" style="stroke: #000000; stroke-width: 0.8"/>
      </g>
     </g>
     <g id="text_13">
      <text style="font: 10px 'Univers 57 Condensed', sans-serif; text-anchor: end" x="50.6" y="68.410156" transform="rotate(-0 50.6 68.410156)">80%</text>
     </g>
    </g>
    <g id="ytick_6">
     <g id="line2d_18">
      <path d="M 57.6 21.6 
L 547.2 21.6 
" clip-path="url(#p8bf008eebb)" style="fill: none; stroke: #b0b0b0; stroke-width: 0.8; stroke-linecap: square"/>
     </g>
     <g id="line2d_19">
      <g>
       <use xlink:href="#m29472bf8d8" x="57.6" y="21.6" style="stroke: #000000; stroke-width: 0.8"/>
      </g>
     </g>
     <g id="text_14">
      <text style="font: 10px 'Univers 57 Condensed', sans-serif; text-anchor: end" x="50.6" y="25.210156" transform="rotate(-0 50.6 25.210156)">100%</text>
     </g>
    </g>
   </g>
   <g id="observation">
    <defs>
     <path id="m1cf58e533e" d="M 0 3 
C 0.795609 3 1.55874 2.683901 2.12132 2.12132 
C 2.683901 1.55874 3 0.795609 3 0 
C 3 -0.795609 2.683901 -1.55874 2.12132 -2.12132 
C 1.55874 -2.683901 0.795609 -3 0 -3 
C -0.795609 -3 -1.55874 -2.683901 -2.12132 -2.12132 
C -2.683901 -1.55874 -3 -0.795609 -3 0 
C -3 0.795609 -2.683901 1.55874 -2.12132 2.12132 
C -1.55874 2.683901 -0.795609 3 0 3 
z
" style="stroke: #d62728"/>
    </defs>
    <g clip-path="url(#p8bf008eebb)">
     <use xlink:href="#m1cf58e533e" x="-1" y="101.777907" style="fill: #d62728; stroke: #d62728"/>
     <use xlink:href="#m1cf58e533e" x="24.96" y="98.577233" style="fill: #d62728; stroke: #d62728"/>
     <use xlink:href="#m1cf58e533e" x="57.6" y="90.691246" style="fill: #d62728; stroke: #d62728"/>
     <use xlink:href="#m1cf58e533e" x="90.24" y="82.803469" style="fill: #d62728; stroke: #d62728"/>
     <use xlink:href="#m1cf58e533e" x="122.88" y="105.649602" style="fill: #d62728; stroke: #d62728"/>
     <use xlink:href="#m1cf58e533e" x="155.52" y="142.989663" style="fill: #d62728; stroke: #d62728"/>
     <use xlink:href="#m1cf58e533e" x="188.16" y="146.545321" style="fill: #d62728; stroke: #d62728"/>
     <use xlink:href="#m1cf58e533e" x="220.8" y="162.533349" style="fill: #d62728; stroke: #d62728"/>
     <use xlink:href="#m1cf58e533e" x="253.44" y="180.187314" style="fill: #d62728; stroke: #d62728"/>
     <use xlink:href="#m1cf58e533e" x="286.08" y="170.937631" style="fill: #d62728; stroke: #d62728"/>
     <use xlink:href="#m1cf58e533e" x="318.72" y="186.975389" style="fill: #d62728; stroke: #d62728"/>
     <use xlink:href="#m1cf58e533e" x="351.36" y="196.921285" style="fill: #d62728; stroke: #d62728"/>
     <use xlink:href="#m1cf58e533e" x="384" y="197.045608" style="fill: #d62728; stroke: #d62728"/>
     <use xlink:href="#m1cf58e533e" x="416.64" y="196.995879" style="fill: #d62728; stroke: #d62728"/>
     <use xlink:href="#m1cf58e533e" x="449.28" y="174.692207" style="fill: #d62728; stroke: #d62728"/>
     <use xlink:href="#m1cf58e533e" x="481.92" y="175.438149" style="fill: #d62728; stroke: #d62728"/>
     <use xlink:href="#m1cf58e533e" x="514.56" y="203.08774" style="fill: #d62728; stroke: #d62728"/>
     <use xlink:href="#m1cf58e533e" x="547.2" y="193.987245" style="fill: #d62728; stroke: #d62728"/>
     <use xlink:href="#m1cf58e533e" x="579.84" y="223.078992" style="fill: #d62728; stroke: #d62728"/>
     <use xlink:href="#m1cf58e533e" x="612.48" y="221.661701" style="fill: #d62728; stroke: #d62728"/>
     <use xlink:href="#m1cf58e533e" x="645.12" y="204.753678" style="fill: #d62728; stroke: #d62728"/>
     <use xlink:href="#m1cf58e533e" x="677.76" y="190.282399" style="fill: #d62728; stroke: #d62728"/>
     <use xlink:href="#m1cf58e533e" x="710.4" y="183.245677" style="fill: #d62728; stroke: #d62728"/>
     <use xlink:href="#m1cf58e533e" x="743.04" y="203.56017" style="fill: #d62728; stroke: #d62728"/>
     <use xlink:href="#m1cf58e533e" x="775.68" y="212.486612" style="fill: #d62728; stroke: #d62728"/>
     <use xlink:href="#m1cf58e533e" x="808.32" y="215.172004" style="fill: #d62728; stroke: #d62728"/>
     <use xlink:href="#m1cf58e533e" x="840.96" y="220.716841" style="fill: #d62728; stroke: #d62728"/>
     <use xlink:href="#m1cf58e533e" x="873.6" y="209.254196" style="fill: #d62728; stroke: #d62728"/>
     <use xlink:href="#m1cf58e533e" x="906.24" y="223.924393" style="fill: #d62728; stroke: #d62728"/>
     <use xlink:href="#m1cf58e533e" x="938.88" y="229.643283" style="fill: #d62728; stroke: #d62728"/>
     <use xlink:href="#m1cf58e533e" x="971.52" y="223.476827" style="fill: #d62728; stroke: #d62728"/>
     <use xlink:href="#m1cf58e533e" x="1004.16" y="222.855209" style="fill: #d62728; stroke: #d62728"/>
     <use xlink:href="#m1cf58e533e" x="1036.8" y="214.774168" style="fill: #d62728; stroke: #d62728"/>
     <use xlink:href="#m1cf58e533e" x="1069.44" y="208.160147" style="fill: #d62728; stroke: #d62728"/>
     <use xlink:href="#m1cf58e533e" x="1102.08" y="209.527708" style="fill: #d62728; stroke: #d62728"/>
     <use xlink:href="#m1cf58e533e" x="1134.72" y="222.059537" style="fill: #d62728; stroke: #d62728"/>
     <use xlink:href="#m1cf58e533e" x="1167.36" y="187.224036" style="fill: #d62728; stroke: #d62728"/>
     <use xlink:href="#m1cf58e533e" x="1200" y="212.511477" style="fill: #d62728; stroke: #d62728"/>
     <use xlink:href="#m1cf58e533e" x="1232.64" y="224.496282" style="fill: #d62728; stroke: #d62728"/>
     <use xlink:href="#m1cf58e533e" x="1265.28" y="230.93625" style="fill: #d62728; stroke: #d62728"/>
     <use xlink:href="#m1cf58e533e" x="1297.92" y="233.074617" style="fill: #d62728; stroke: #d62728"/>
     <use xlink:href="#m1cf58e533e" x="1330.56" y="236.058386" style="fill: #d62728; stroke: #d62728"/>
     <use xlink:href="#m1cf58e533e" x="1363.2" y="210.621757" style="fill: #d62728; stroke: #d62728"/>
     <use xlink:href="#m1cf58e533e" x="1395.84" y="174.81653" style="fill: #d62728; stroke: #d62728"/>
     <use xlink:href="#m1cf58e533e" x="1428.48" y="220.940624" style="fill: #d62728; stroke: #d62728"/>
     <use xlink:href="#m1cf58e533e" x="1461.12" y="226.261678" style="fill: #d62728; stroke: #d62728"/>
     <use xlink:href="#m1cf58e533e" x="1493.76" y="215.719028" style="fill: #d62728; stroke: #d62728"/>
     <use xlink:href="#m1cf58e533e" x="1526.4" y="225.018441" style="fill: #d62728; stroke: #d62728"/>
     <use xlink:href="#m1cf58e533e" x="1559.04" y="230.88652" style="fill: #d62728; stroke: #d62728"/>
     <use xlink:href="#m1cf58e533e" x="1591.68" y="229.444365" style="fill: #d62728; stroke: #d62728"/>
     <use xlink:href="#m1cf58e533e" x="1624.32" y="224.595741" style="fill: #d62728; stroke: #d62728"/>
     <use xlink:href="#m1cf58e533e" x="1656.96" y="223.601151" style="fill: #d62728; stroke: #d62728"/>
     <use xlink:href="#m1cf58e533e" x="1689.6" y="225.208962" style="fill: #d62728; stroke: #d62728"/>
     <use xlink:href="#m1cf58e533e" x="1722.24" y="220.706288" style="fill: #d62728; stroke: #d62728"/>
     <use xlink:href="#m1cf58e533e" x="1754.88" y="218.234658" style="fill: #d62728; stroke: #d62728"/>
     <use xlink:href="#m1cf58e533e" x="1787.52" y="233.151164" style="fill: #d62728; stroke: #d62728"/>
     <use xlink:href="#m1cf58e533e" x="1820.16" y="207.203716" style="fill: #d62728; stroke: #d62728"/>
     <use xlink:href="#m1cf58e533e" x="1852.8" y="213.952058" style="fill: #d62728; stroke: #d62728"/>
     <use xlink:href="#m1cf58e533e" x="1885.44" y="221.462783" style="fill: #d62728; stroke: #d62728"/>
     <use xlink:href="#m1cf58e533e" x="1918.08" y="227.032485" style="fill: #d62728; stroke: #d62728"/>
     <use xlink:href="#m1cf58e533e" x="1950.72" y="204.505031" style="fill: #d62728; stroke: #d62728"/>
     <use xlink:href="#m1cf58e533e" x="1983.36" y="194.01211" style="fill: #d62728; stroke: #d62728"/>
     <use xlink:href="#m1cf58e533e" x="2016" y="218.528744" style="fill: #d62728; stroke: #d62728"/>
     <use xlink:href="#m1cf58e533e" x="2048.64" y="193.141844" style="fill: #d62728; stroke: #d62728"/>
     <use xlink:href="#m1cf58e533e" x="2081.28" y="146.296673" style="fill: #d62728; stroke: #d62728"/>
     <use xlink:href="#m1cf58e533e" x="2113.92" y="171.061955" style="fill: #d62728; stroke: #d62728"/>
     <use xlink:href="#m1cf58e533e" x="2146.56" y="204.156924" style="fill: #d62728; stroke: #d62728"/>
     <use xlink:href="#m1cf58e533e" x="2179.2" y="193.614274" style="fill: #d62728; stroke: #d62728"/>
     <use xlink:href="#m1cf58e533e" x="2211.84" y="187.497548" style="fill: #d62728; stroke: #d62728"/>
     <use xlink:href="#m1cf58e533e" x="2244.48" y="137.245908" style="fill: #d62728; stroke: #d62728"/>
     <use xlink:href="#m1cf58e533e" x="2277.12" y="160.693358" style="fill: #d62728; stroke: #d62728"/>
     <use xlink:href="#m1cf58e533e" x="2309.76" y="93.832071" style="fill: #d62728; stroke: #d62728"/>
     <use xlink:href="#m1cf58e533e" x="2342.4" y="67.674364" style="fill: #d62728; stroke: #d62728"/>
     <use xlink:href="#m1cf58e533e" x="2375.04" y="115.116289" style="fill: #d62728; stroke: #d62728"/>
     <use xlink:href="#m1cf58e533e" x="2407.68" y="117.975734" style="fill: #d62728; stroke: #d62728"/>
     <use xlink:href="#m1cf58e533e" x="2440.32" y="143.014527" style="fill: #d62728; stroke: #d62728"/>
     <use xlink:href="#m1cf58e533e" x="2472.96" y="124.763808" style="fill: #d62728; stroke: #d62728"/>
     <use xlink:href="#m1cf58e533e" x="2505.6" y="64.441948" style="fill: #d62728; stroke: #d62728"/>
     <use xlink:href="#m1cf58e533e" x="2538.24" y="47.285277" style="fill: #d62728; stroke: #d62728"/>
     <use xlink:href="#m1cf58e533e" x="2570.88" y="49.373915" style="fill: #d62728; stroke: #d62728"/>
     <use xlink:href="#m1cf58e533e" x="2603.52" y="61.756556" style="fill: #d62728; stroke: #d62728"/>
     <use xlink:href="#m1cf58e533e" x="2636.16" y="41.491792" style="fill: #d62728; stroke: #d62728"/>
     <use xlink:href="#m1cf58e533e" x="2668.8" y="46.93717" style="fill: #d62728; stroke: #d62728"/>
     <use xlink:href="#m1cf58e533e" x="2701.44" y="43.555566" style="fill: #d62728; stroke: #d62728"/>
     <use xlink:href="#m1cf58e533e" x="2734.08" y="46.017175" style="fill: #d62728; stroke: #d62728"/>
     <use xlink:href="#m1cf58e533e" x="2766.72" y="41.839899" style="fill: #d62728; stroke: #d62728"/>
     <use xlink:href="#m1cf58e533e" x="2799.36" y="46.51447" style="fill: #d62728; stroke: #d62728"/>
     <use xlink:href="#m1cf58e533e" x="2832" y="66.306803" style="fill: #d62728; stroke: #d62728"/>
     <use xlink:href="#m1cf58e533e" x="2864.64" y="123.122735" style="fill: #d62728; stroke: #d62728"/>
     <use xlink:href="#m1cf58e533e" x="2897.28" y="153.184206" style="fill: #d62728; stroke: #d62728"/>
     <use xlink:href="#m1cf58e533e" x="2929.92" y="164.895499" style="fill: #d62728; stroke: #d62728"/>
     <use xlink:href="#m1cf58e533e" x="2962.56" y="117.329251" style="fill: #d62728; stroke: #d62728"/>
     <use xlink:href="#m1cf58e533e" x="2995.2" y="127.797306" style="fill: #d62728; stroke: #d62728"/>
     <use xlink:href="#m1cf58e533e" x="3027.84" y="149.603684" style="fill: #d62728; stroke: #d62728"/>
     <use xlink:href="#m1cf58e533e" x="3060.48" y="149.504225" style="fill: #d62728; stroke: #d62728"/>
     <use xlink:href="#m1cf58e533e" x="3093.12" y="152.562588" style="fill: #d62728; stroke: #d62728"/>
     <use xlink:href="#m1cf58e533e" x="3125.76" y="141.050213" style="fill: #d62728; stroke: #d62728"/>
     <use xlink:href="#m1cf58e533e" x="3158.4" y="111.013607" style="fill: #d62728; stroke: #d62728"/>
     <use xlink:href="#m1cf58e533e" x="3191.04" y="71.453805" style="fill: #d62728; stroke: #d62728"/>
     <use xlink:href="#m1cf58e533e" x="3223.68" y="83.811581" style="fill: #d62728; stroke: #d62728"/>
     <use xlink:href="#m1cf58e533e" x="3256.32" y="98.730425" style="fill: #d62728; stroke: #d62728"/>
     <use xlink:href="#m1cf58e533e" x="3288.96" y="100.12285" style="fill: #d62728; stroke: #d62728"/>
     <use xlink:href="#m1cf58e533e" x="3321.6" y="114.718453" style="fill: #d62728; stroke: #d62728"/>
     <use xlink:href="#m1cf58e533e" x="3354.24" y="116.956279" style="fill: #d62728; stroke: #d62728"/>
     <use xlink:href="#m1cf58e533e" x="3386.88" y="89.928307" style="fill: #d62728; stroke: #d62728"/>
     <use xlink:href="#m1cf58e533e" x="3419.52" y="103.036357" style="fill: #d62728; stroke: #d62728"/>
     <use xlink:href="#m1cf58e533e" x="3452.16" y="83.008517" style="fill: #d62728; stroke: #d62728"/>
     <use xlink:href="#m1cf58e533e" x="3484.8" y="98.089452" style="fill: #d62728; stroke: #d62728"/>
     <use xlink:href="#m1cf58e533e" x="3517.44" y="107.214706" style="fill: #d62728; stroke: #d62728"/>
     <use xlink:href="#m1cf58e533e" x="3550.08" y="113.286091" style="fill: #d62728; stroke: #d62728"/>
     <use xlink:href="#m1cf58e533e" x="3582.72" y="108.626591" style="fill: #d62728; stroke: #d62728"/>
     <use xlink:href="#m1cf58e533e" x="3615.36" y="123.843813" style="fill: #d62728; stroke: #d62728"/>
     <use xlink:href="#m1cf58e533e" x="3648" y="162.036054" style="fill: #d62728; stroke: #d62728"/>
     <use xlink:href="#m1cf58e533e" x="3680.64" y="147.912881" style="fill: #d62728; stroke: #d62728"/>
     <use xlink:href="#m1cf58e533e" x="3713.28" y="169.14737" style="fill: #d62728; stroke: #d62728"/>
     <use xlink:href="#m1cf58e533e" x="3745.92" y="187.34836" style="fill: #d62728; stroke: #d62728"/>
     <use xlink:href="#m1cf58e533e" x="3778.56" y="187.895384" style="fill: #d62728; stroke: #d62728"/>
     <use xlink:href="#m1cf58e533e" x="3811.2" y="174.717071" style="fill: #d62728; stroke: #d62728"/>
     <use xlink:href="#m1cf58e533e" x="3843.84" y="171.832762" style="fill: #d62728; stroke: #d62728"/>
     <use xlink:href="#m1cf58e533e" x="3876.48" y="182.922436" style="fill: #d62728; stroke: #d62728"/>
     <use xlink:href="#m1cf58e533e" x="3909.12" y="171.807897" style="fill: #d62728; stroke: #d62728"/>
    </g>
   </g>
   <g id="forecast_patch_13244">
    <path d="M 90.24 72.929177 
L 90.24 140.32086 
L 94.902857 142.770521 
L 99.565714 145.452696 
L 104.228571 148.350047 
L 108.891429 151.445235 
L 113.554286 154.720922 
L 118.217143 158.159771 
L 122.88 161.744444 
L 127.542857 165.965462 
L 132.205714 171.028714 
L 136.868571 176.489914 
L 141.531429 181.904775 
L 146.194286 186.829009 
L 150.857143 190.818328 
L 155.52 193.428447 
L 160.182857 195.104731 
L 164.845714 196.601491 
L 169.508571 197.937857 
L 174.171429 199.13296 
L 178.834286 200.205929 
L 183.497143 201.175894 
L 188.16 202.061986 
L 192.822857 202.883335 
L 197.485714 203.65907 
L 202.148571 204.408322 
L 206.811429 205.150221 
L 211.474286 205.903898 
L 216.137143 206.688481 
L 220.8 207.523102 
L 225.462857 208.405468 
L 230.125714 209.317432 
L 234.788571 210.254336 
L 239.451429 211.211527 
L 244.114286 212.184347 
L 248.777143 213.168141 
L 253.44 214.158252 
L 258.102857 215.150026 
L 262.765714 216.138805 
L 267.428571 217.119935 
L 272.091429 218.088759 
L 276.754286 219.040622 
L 281.417143 219.970867 
L 286.08 220.87484 
L 290.742857 221.747882 
L 295.405714 222.58534 
L 300.068571 223.382557 
L 304.731429 224.134878 
L 309.394286 224.837645 
L 314.057143 225.486204 
L 318.72 226.075899 
L 323.382857 226.602074 
L 328.045714 227.060072 
L 332.708571 227.445238 
L 337.371429 227.752917 
L 342.034286 227.978452 
L 346.697143 228.117187 
L 351.36 228.164467 
L 356.022857 228.164349 
L 360.685714 228.163525 
L 365.348571 228.161289 
L 370.011429 228.156936 
L 374.674286 228.149757 
L 379.337143 228.139049 
L 384 228.124104 
L 388.662857 228.104218 
L 393.325714 228.078682 
L 397.988571 228.046793 
L 402.651429 228.007843 
L 407.314286 227.961126 
L 411.977143 227.905937 
L 416.64 227.841569 
L 421.302857 227.767317 
L 425.965714 227.682474 
L 430.628571 227.586335 
L 435.291429 227.478192 
L 439.954286 227.357341 
L 444.617143 227.223075 
L 449.28 227.074688 
L 453.942857 226.911475 
L 458.605714 226.732728 
L 463.268571 226.537742 
L 467.931429 226.325811 
L 472.594286 226.09623 
L 477.257143 225.848291 
L 481.92 225.581288 
L 486.582857 225.294517 
L 491.245714 224.98727 
L 495.908571 224.658842 
L 500.571429 224.308527 
L 505.234286 223.935618 
L 509.897143 223.53941 
L 514.56 223.119197 
L 514.56 78.236057 
L 514.56 78.236057 
L 509.897143 78.727168 
L 505.234286 79.213274 
L 500.571429 79.694125 
L 495.908571 80.169473 
L 491.245714 80.639068 
L 486.582857 81.102662 
L 481.92 81.560006 
L 477.257143 82.010849 
L 472.594286 82.454945 
L 467.931429 82.892042 
L 463.268571 83.321894 
L 458.605714 83.744249 
L 453.942857 84.158861 
L 449.28 84.565478 
L 444.617143 84.963853 
L 439.954286 85.353737 
L 435.291429 85.73488 
L 430.628571 86.107033 
L 425.965714 86.469948 
L 421.302857 86.823375 
L 416.64 87.167065 
L 411.977143 87.50077 
L 407.314286 87.824241 
L 402.651429 88.137228 
L 397.988571 88.439482 
L 393.325714 88.730754 
L 388.662857 89.010796 
L 384 89.279358 
L 379.337143 89.536192 
L 374.674286 89.781048 
L 370.011429 90.013677 
L 365.348571 90.23383 
L 360.685714 90.441259 
L 356.022857 90.635714 
L 351.36 90.816947 
L 346.697143 90.991594 
L 342.034286 91.166146 
L 337.371429 91.34013 
L 332.708571 91.513074 
L 328.045714 91.684507 
L 323.382857 91.853954 
L 318.72 92.020946 
L 314.057143 92.185009 
L 309.394286 92.345671 
L 304.731429 92.50246 
L 300.068571 92.654905 
L 295.405714 92.802532 
L 290.742857 92.94487 
L 286.08 93.081447 
L 281.417143 93.21179 
L 276.754286 93.335428 
L 272.091429 93.451888 
L 267.428571 93.560698 
L 262.765714 93.661385 
L 258.102857 93.753479 
L 253.44 93.836506 
L 248.777143 93.909995 
L 244.114286 93.973474 
L 239.451429 94.026469 
L 234.788571 94.06851 
L 230.125714 94.099123 
L 225.462857 94.117837 
L 220.8 94.12418 
L 216.137143 94.090535 
L 211.474286 93.992444 
L 206.811429 93.834175 
L 202.148571 93.619995 
L 197.485714 93.35417 
L 192.822857 93.040969 
L 188.16 92.684658 
L 183.497143 92.289505 
L 178.834286 91.859777 
L 174.171429 91.39974 
L 169.508571 90.913663 
L 164.845714 90.405811 
L 160.182857 89.880454 
L 155.52 89.341857 
L 150.857143 88.683332 
L 146.194286 87.825248 
L 141.531429 86.81246 
L 136.868571 85.689821 
L 132.205714 84.502185 
L 127.542857 83.294408 
L 122.88 82.111342 
L 118.217143 80.931272 
L 113.554286 79.70393 
L 108.891429 78.431345 
L 104.228571 77.115547 
L 99.565714 75.758567 
L 94.902857 74.362434 
L 90.24 72.929177 
z
" clip-path="url(#p8bf008eebb)" style="fill: #7f7f7f; fill-opacity: 0.5"/>
   </g>
   <g id="toggle-observations-forecast">
    <g id="patch_4">
     <path d="M 460.102437 18.28 
L 542.304 18.28 
Q 543.304 18.28 543.304 17.28 
L 543.304 8.000312 
Q 543.304 7.000312 542.304 7.000312 
L 460.102437 7.000312 
Q 459.102437 7.000312 459.102437 8.000312 
L 459.102437 17.28 
Q 459.102437 18.28 460.102437 18.28 
z
" style="fill: #d62728; stroke: #000000; stroke-width: 0.75; stroke-linejoin: miter"/>
    </g>
    <text style="fill: #ffffff; font: 10px 'Univers 57 Condensed', sans-serif; text-anchor: end" x="542.304" y="15.370625" transform="rotate(-0 542.304 15.370625)">Toggle Observations</text>
   </g>
   <g id="forecast_lower_13244">
    <path d="M 90.24 140.32086 
L 94.902857 142.770521 
L 99.565714 145.452696 
L 104.228571 148.350047 
L 108.891429 151.445235 
L 113.554286 154.720922 
L 118.217143 158.159771 
L 122.88 161.744444 
L 127.542857 165.965462 
L 132.205714 171.028714 
L 136.868571 176.489914 
L 141.531429 181.904775 
L 146.194286 186.829009 
L 150.857143 190.818328 
L 155.52 193.428447 
L 160.182857 195.104731 
L 164.845714 196.601491 
L 169.508571 197.937857 
L 174.171429 199.13296 
L 178.834286 200.205929 
L 183.497143 201.175894 
L 188.16 202.061986 
L 192.822857 202.883335 
L 197.485714 203.65907 
L 202.148571 204.408322 
L 206.811429 205.150221 
L 211.474286 205.903898 
L 216.137143 206.688481 
L 220.8 207.523102 
L 225.462857 208.405468 
L 230.125714 209.317432 
L 234.788571 210.254336 
L 239.451429 211.211527 
L 244.114286 212.184347 
L 248.777143 213.168141 
L 253.44 214.158252 
L 258.102857 215.150026 
L 262.765714 216.138805 
L 267.428571 217.119935 
L 272.091429 218.088759 
L 276.754286 219.040622 
L 281.417143 219.970867 
L 286.08 220.87484 
L 290.742857 221.747882 
L 295.405714 222.58534 
L 300.068571 223.382557 
L 304.731429 224.134878 
L 309.394286 224.837645 
L 314.057143 225.486204 
L 318.72 226.075899 
L 323.382857 226.602074 
L 328.045714 227.060072 
L 332.708571 227.445238 
L 337.371429 227.752917 
L 342.034286 227.978452 
L 346.697143 228.117187 
L 351.36 228.164467 
L 356.022857 228.164349 
L 360.685714 228.163525 
L 365.348571 228.161289 
L 370.011429 228.156936 
L 374.674286 228.149757 
L 379.337143 228.139049 
L 384 228.124104 
L 388.662857 228.104218 
L 393.325714 228.078682 
L 397.988571 228.046793 
L 402.651429 228.007843 
L 407.314286 227.961126 
L 411.977143 227.905937 
L 416.64 227.841569 
L 421.302857 227.767317 
L 425.965714 227.682474 
L 430.628571 227.586335 
L 435.291429 227.478192 
L 439.954286 227.357341 
L 444.617143 227.223075 
L 449.28 227.074688 
L 453.942857 226.911475 
L 458.605714 226.732728 
L 463.268571 226.537742 
L 467.931429 226.325811 
L 472.594286 226.09623 
L 477.257143 225.848291 
L 481.92 225.581288 
L 486.582857 225.294517 
L 491.245714 224.98727 
L 495.908571 224.658842 
L 500.571429 224.308527 
L 505.234286 223.935618 
L 509.897143 223.53941 
L 514.56 223.119197 
" clip-path="url(#p8bf008eebb)" style="fill: none; stroke-dasharray: 3.7,1.6; stroke-dashoffset: 0; stroke: #1f77b4"/>
   </g>
   <g id="forecast_middl_13244">
    <path d="M 90.24 88.709934 
L 94.902857 89.110034 
L 99.565714 90.236091 
L 104.228571 91.97674 
L 108.891429 94.220618 
L 113.554286 96.856358 
L 118.217143 99.772598 
L 122.88 102.857972 
L 127.542857 107.450392 
L 132.205714 114.353642 
L 136.868571 122.655166 
L 141.531429 131.442406 
L 146.194286 139.802807 
L 150.857143 146.823811 
L 155.52 151.592863 
L 160.182857 154.786014 
L 164.845714 157.703609 
L 169.508571 160.369528 
L 174.171429 162.807652 
L 178.834286 165.04186 
L 183.497143 167.096033 
L 188.16 168.994052 
L 192.822857 170.759796 
L 197.485714 172.417146 
L 202.148571 173.989983 
L 206.811429 175.502187 
L 211.474286 176.977638 
L 216.137143 178.440216 
L 220.8 179.913802 
L 225.462857 181.413375 
L 230.125714 182.93418 
L 234.788571 184.470498 
L 239.451429 186.016612 
L 244.114286 187.566802 
L 248.777143 189.11535 
L 253.44 190.656538 
L 258.102857 192.184647 
L 262.765714 193.693958 
L 267.428571 195.178753 
L 272.091429 196.633313 
L 276.754286 198.05192 
L 281.417143 199.428855 
L 286.08 200.7584 
L 290.742857 202.034836 
L 295.405714 203.252444 
L 300.068571 204.405506 
L 304.731429 205.488304 
L 309.394286 206.495118 
L 314.057143 207.420231 
L 318.72 208.257924 
L 323.382857 209.002477 
L 328.045714 209.648174 
L 332.708571 210.189294 
L 337.371429 210.62012 
L 342.034286 210.934933 
L 346.697143 211.128014 
L 351.36 211.193646 
L 356.022857 211.192243 
L 360.685714 211.18667 
L 365.348571 211.174877 
L 370.011429 211.154817 
L 374.674286 211.12444 
L 379.337143 211.081698 
L 384 211.024543 
L 388.662857 210.950926 
L 393.325714 210.858799 
L 397.988571 210.746113 
L 402.651429 210.610819 
L 407.314286 210.450869 
L 411.977143 210.264214 
L 416.64 210.048807 
L 421.302857 209.802598 
L 425.965714 209.523538 
L 430.628571 209.20958 
L 435.291429 208.858675 
L 439.954286 208.468774 
L 444.617143 208.037829 
L 449.28 207.563791 
L 453.942857 207.044612 
L 458.605714 206.478243 
L 463.268571 205.862636 
L 467.931429 205.195742 
L 472.594286 204.475512 
L 477.257143 203.699899 
L 481.92 202.866853 
L 486.582857 201.974326 
L 491.245714 201.02027 
L 495.908571 200.002635 
L 500.571429 198.919374 
L 505.234286 197.768438 
L 509.897143 196.547779 
L 514.56 195.255347 
" clip-path="url(#p8bf008eebb)" style="fill: none; stroke: #000000; stroke-linecap: square"/>
   </g>
   <g id="forecast_upper_13244">
    <path d="M 90.24 72.929177 
L 94.902857 74.362434 
L 99.565714 75.758567 
L 104.228571 77.115547 
L 108.891429 78.431345 
L 113.554286 79.70393 
L 118.217143 80.931272 
L 122.88 82.111342 
L 127.542857 83.294408 
L 132.205714 84.502185 
L 136.868571 85.689821 
L 141.531429 86.81246 
L 146.194286 87.825248 
L 150.857143 88.683332 
L 155.52 89.341857 
L 160.182857 89.880454 
L 164.845714 90.405811 
L 169.508571 90.913663 
L 174.171429 91.39974 
L 178.834286 91.859777 
L 183.497143 92.289505 
L 188.16 92.684658 
L 192.822857 93.040969 
L 197.485714 93.35417 
L 202.148571 93.619995 
L 206.811429 93.834175 
L 211.474286 93.992444 
L 216.137143 94.090535 
L 220.8 94.12418 
L 225.462857 94.117837 
L 230.125714 94.099123 
L 234.788571 94.06851 
L 239.451429 94.026469 
L 244.114286 93.973474 
L 248.777143 93.909995 
L 253.44 93.836506 
L 258.102857 93.753479 
L 262.765714 93.661385 
L 267.428571 93.560698 
L 272.091429 93.451888 
L 276.754286 93.335428 
L 281.417143 93.21179 
L 286.08 93.081447 
L 290.742857 92.94487 
L 295.405714 92.802532 
L 300.068571 92.654905 
L 304.731429 92.50246 
L 309.394286 92.345671 
L 314.057143 92.185009 
L 318.72 92.020946 
L 323.382857 91.853954 
L 328.045714 91.684507 
L 332.708571 91.513074 
L 337.371429 91.34013 
L 342.034286 91.166146 
L 346.697143 90.991594 
L 351.36 90.816947 
L 356.022857 90.635714 
L 360.685714 90.441259 
L 365.348571 90.23383 
L 370.011429 90.013677 
L 374.674286 89.781048 
L 379.337143 89.536192 
L 384 89.279358 
L 388.662857 89.010796 
L 393.325714 88.730754 
L 397.988571 88.439482 
L 402.651429 88.137228 
L 407.314286 87.824241 
L 411.977143 87.50077 
L 416.64 87.167065 
L 421.302857 86.823375 
L 425.965714 86.469948 
L 430.628571 86.107033 
L 435.291429 85.73488 
L 439.954286 85.353737 
L 444.617143 84.963853 
L 449.28 84.565478 
L 453.942857 84.158861 
L 458.605714 83.744249 
L 463.268571 83.321894 
L 467.931429 82.892042 
L 472.594286 82.454945 
L 477.257143 82.010849 
L 481.92 81.560006 
L 486.582857 81.102662 
L 491.245714 80.639068 
L 495.908571 80.169473 
L 500.571429 79.694125 
L 505.234286 79.213274 
L 509.897143 78.727168 
L 514.56 78.236057 
" clip-path="url(#p8bf008eebb)" style="fill: none; stroke-dasharray: 3.7,1.6; stroke-dashoffset: 0; stroke: #ff7f0e"/>
   </g>
   <g id="observation-full-forecast">
    <path d="M 52.937143 91.817815 
L 57.6 90.691246 
L 62.262857 89.56442 
L 66.925714 88.437595 
L 71.588571 87.31077 
L 76.251429 86.183945 
L 80.914286 85.057119 
L 85.577143 83.930294 
L 90.24 82.803469 
L 94.902857 86.067202 
L 99.565714 89.330935 
L 104.228571 92.594669 
L 108.891429 95.858402 
L 113.554286 99.122135 
L 118.217143 102.385869 
L 122.88 105.649602 
L 127.542857 110.983896 
L 132.205714 116.318191 
L 136.868571 121.652485 
L 141.531429 126.98678 
L 146.194286 132.321074 
L 150.857143 137.655368 
L 155.52 142.989663 
L 160.182857 143.497614 
L 164.845714 144.005565 
L 169.508571 144.513516 
L 174.171429 145.021467 
L 178.834286 145.529418 
L 183.497143 146.037369 
L 188.16 146.545321 
L 192.822857 148.829325 
L 197.485714 151.113329 
L 202.148571 153.397333 
L 206.811429 155.681337 
L 211.474286 157.965341 
L 216.137143 160.249345 
L 220.8 162.533349 
L 225.462857 165.055344 
L 230.125714 167.577339 
L 234.788571 170.099334 
L 239.451429 172.621329 
L 244.114286 175.143324 
L 248.777143 177.665319 
L 253.44 180.187314 
L 258.102857 178.865931 
L 262.765714 177.544548 
L 267.428571 176.223164 
L 272.091429 174.901781 
L 276.754286 173.580398 
L 281.417143 172.259014 
L 286.08 170.937631 
L 290.742857 173.228739 
L 295.405714 175.519847 
L 300.068571 177.810956 
L 304.731429 180.102064 
L 309.394286 182.393172 
L 314.057143 184.68428 
L 318.72 186.975389 
L 323.382857 188.396231 
L 328.045714 189.817073 
L 332.708571 191.237915 
L 337.371429 192.658758 
L 342.034286 194.0796 
L 346.697143 195.500442 
L 351.36 196.921285 
L 356.022857 196.939045 
L 360.685714 196.956806 
L 365.348571 196.974566 
L 370.011429 196.992327 
L 374.674286 197.010087 
L 379.337143 197.027848 
L 384 197.045608 
L 388.662857 197.038504 
L 393.325714 197.0314 
L 397.988571 197.024296 
L 402.651429 197.017192 
L 407.314286 197.010087 
L 411.977143 197.002983 
L 416.64 196.995879 
L 421.302857 193.80964 
L 425.965714 190.623401 
L 430.628571 187.437162 
L 435.291429 184.250923 
L 439.954286 181.064685 
L 444.617143 177.878446 
L 449.28 174.692207 
L 453.942857 174.79877 
L 458.605714 174.905333 
L 463.268571 175.011896 
L 467.931429 175.118459 
L 472.594286 175.225023 
L 477.257143 175.331586 
L 481.92 175.438149 
L 486.582857 179.388091 
L 491.245714 183.338032 
L 495.908571 187.287974 
L 500.571429 191.237915 
L 505.234286 195.187857 
L 509.897143 199.137799 
L 514.56 203.08774 
L 519.222857 201.78767 
L 523.885714 200.487599 
L 528.548571 199.187528 
L 533.211429 197.887457 
L 537.874286 196.587387 
L 542.537143 195.287316 
L 547.2 193.987245 
L 551.862857 198.143209 
" clip-path="url(#p8bf008eebb)" style="fill: none; stroke: #d62728; stroke-opacity: 0; stroke-linecap: square"/>
   </g>
   <g id="patch_5">
    <path d="M 57.6 237.6 
L 57.6 21.6 
" style="fill: none; stroke: #000000; stroke-width: 0.8; stroke-linejoin: miter; stroke-linecap: square"/>
   </g>
   <g id="patch_6">
    <path d="M 57.6 237.6 
L 547.2 237.6 
" style="fill: none; stroke: #000000; stroke-width: 0.8; stroke-linejoin: miter; stroke-linecap: square"/>
   </g>
   <g id="text_15">
    <text style="font: 700 12px 'Univers 57 Condensed', sans-serif; text-anchor: start" x="57.6" y="15.6" transform="rotate(-0 57.6 15.6)">Streamflow Percentile</text>
   </g>
   <g id="forecast_hover_13244">
    <path d="M 90.24 237.6 
L 90.24 21.6 
" clip-path="url(#p8bf008eebb)" style="fill: none; stroke: #000000; stroke-opacity: 0; stroke-width: 5; stroke-linecap: square"/>
   </g>
  </g>
  <g id="text_16">
   <text style="opacity: 0.5; font: 10px 'Univers 57 Condensed', sans-serif; text-anchor: end" x="576" y="286.090625" transform="rotate(-0 576 286.090625)">Colorado River Near Colorado-Utah State Line - 09163500</text>
  </g>
 </g>
 <defs>
  <clipPath id="p8bf008eebb">
   <rect x="57.6" y="21.6" width="489.6" height="216"/>
  </clipPath>
 </defs>
</svg>
