<?xml version="1.0" encoding="utf-8" standalone="no"?>
<!DOCTYPE svg PUBLIC "-//W3C//DTD SVG 1.1//EN"
  "http://www.w3.org/Graphics/SVG/1.1/DTD/svg11.dtd">
<svg xmlns:xlink="http://www.w3.org/1999/xlink" width="399.6px" height="499.68px" viewBox="0 0 399.6 499.68" xmlns="http://www.w3.org/2000/svg" version="1.1">
  <defs>
  <style type="text/css">*{stroke-linejoin: round; stroke-linecap: butt}</style>
 </defs>
 <g id="figure-predictioninterval">
  <g id="patch_1">
   <path d="M 0 499.68 
L 399.6 499.68 
L 399.6 0 
L 0 0 
z
" style="fill: #ffffff"/>
  </g>
  <g id="axis-predictioninterval1">
   <g id="patch_2">
    <path d="M 55.944 199.872 
L 375.624 199.872 
L 375.624 33.47856 
L 55.944 33.47856 
z
" style="fill: #ffffff"/>
   </g>
   <g id="LF-LOWER-MEDIAN">
    <path d="M 55.944 116.67528 
L 215.784 199.872 
L 375.624 116.67528 
" clip-path="url(#pc9bcd4d515)" style="fill: none; stroke: #00264c; stroke-opacity: 0; stroke-width: 1.5; stroke-linecap: square"/>
   </g>
   <g id="matplotlib.axis_1">
    <g id="xtick_1">
     <g id="line2d_1">
      <defs>
       <path id="ma1dbe7ecf7" d="M 0 0 
L 0 3.5 
" style="stroke: #949494; stroke-width: 0.8"/>
      </defs>
      <g>
       <use xlink:href="#ma1dbe7ecf7" x="55.944" y="199.872" style="fill: #949494; stroke: #949494; stroke-width: 0.8"/>
      </g>
     </g>
     <g id="text_1">
      <text style="font-weight: 300; font-size: 16px; font-family: 'Source Sans 3', sans-serif; text-anchor: middle; fill: #494949" x="55.944" y="218.4245" transform="rotate(-0 55.944 218.4245)">Lower</text>
     </g>
    </g>
    <g id="xtick_2">
     <g id="line2d_2">
      <g>
       <use xlink:href="#ma1dbe7ecf7" x="215.784" y="199.872" style="fill: #949494; stroke: #949494; stroke-width: 0.8"/>
      </g>
     </g>
     <g id="text_2">
      <text style="font-weight: 300; font-size: 16px; font-family: 'Source Sans 3', sans-serif; text-anchor: middle; fill: #494949" x="215.784" y="218.4245" transform="rotate(-0 215.784 218.4245)">Median</text>
     </g>
    </g>
    <g id="xtick_3">
     <g id="line2d_3">
      <g>
       <use xlink:href="#ma1dbe7ecf7" x="375.624" y="199.872" style="fill: #949494; stroke: #949494; stroke-width: 0.8"/>
      </g>
     </g>
     <g id="text_3">
      <text style="font-weight: 300; font-size: 16px; font-family: 'Source Sans 3', sans-serif; text-anchor: middle; fill: #494949" x="375.624" y="218.4245" transform="rotate(-0 375.624 218.4245)">Upper</text>
     </g>
    </g>
    <g id="text_4">
     <text style="font-weight: 600; font-size: 16px; font-family: 'Source Sans 3', sans-serif; text-anchor: middle; fill: #494949" x="215.784" y="237.5295" transform="rotate(-0 215.784 237.5295)">Estimate</text>
    </g>
   </g>
   <g id="matplotlib.axis_2">
    <g id="ytick_1">
     <g id="line2d_4">
      <defs>
       <path id="me2f2847ef8" d="M 0 0 
L -3.5 0 
" style="stroke: #949494; stroke-width: 0.8"/>
      </defs>
      <g>
       <use xlink:href="#me2f2847ef8" x="55.944" y="199.872" style="fill: #949494; stroke: #949494; stroke-width: 0.8"/>
      </g>
     </g>
     <g id="text_5">
      <text style="font-weight: 300; font-size: 16px; font-family: 'Source Sans 3', sans-serif; fill: #494949" transform="translate(21.1365 189.388)">Less</text>
      <text style="font-weight: 300; font-size: 16px; font-family: 'Source Sans 3', sans-serif; fill: #494949" transform="translate(1.1365 206.8035)">Penalty</text>
      <text style="font-weight: 300; font-size: 16px; font-family: 'Source Sans 3', sans-serif; fill: #494949" transform="translate(48.944 224.219)"/>
     </g>
    </g>
    <g id="ytick_2">
     <g id="line2d_5">
      <g>
       <use xlink:href="#me2f2847ef8" x="55.944" y="116.67528" style="fill: #949494; stroke: #949494; stroke-width: 0.8"/>
      </g>
     </g>
    </g>
    <g id="ytick_3">
     <g id="line2d_6">
      <g>
       <use xlink:href="#me2f2847ef8" x="55.944" y="33.47856" style="fill: #949494; stroke: #949494; stroke-width: 0.8"/>
      </g>
     </g>
     <g id="text_6">
      <text style="font-weight: 300; font-size: 16px; font-family: 'Source Sans 3', sans-serif; fill: #494949" transform="translate(16.7215 31.70231)">More</text>
      <text style="font-weight: 300; font-size: 16px; font-family: 'Source Sans 3', sans-serif; fill: #494949" transform="translate(1.1365 49.11781)">Penalty</text>
     </g>
    </g>
   </g>
   <g id="LF-LOWER-0">
    <path d="M 55.944 191.552328 
L 215.784 199.872 
L 375.624 41.798232 
" clip-path="url(#pc9bcd4d515)" style="fill: none; stroke: #b78935; stroke-opacity: 0; stroke-width: 1.5; stroke-linecap: square"/>
   </g>
   <g id="LF-UPPER-0">
    <path d="M 55.944 41.798232 
L 215.784 199.872 
L 375.624 191.552328 
" clip-path="url(#pc9bcd4d515)" style="fill: none; stroke: #406992; stroke-opacity: 0; stroke-width: 1.5; stroke-linecap: square"/>
   </g>
   <g id="LF-LOWER-1">
    <path d="M 55.944 179.07282 
L 215.784 199.872 
L 375.624 54.27774 
" clip-path="url(#pc9bcd4d515)" style="fill: none; stroke: #b78935; stroke-opacity: 0; stroke-width: 1.5; stroke-linecap: square"/>
   </g>
   <g id="LF-UPPER-1">
    <path d="M 55.944 54.27774 
L 215.784 199.872 
L 375.624 179.07282 
" clip-path="url(#pc9bcd4d515)" style="fill: none; stroke: #406992; stroke-opacity: 0; stroke-width: 1.5; stroke-linecap: square"/>
   </g>
   <g id="LF-LOWER-2">
    <path d="M 55.944 158.27364 
L 215.784 199.872 
L 375.624 75.07692 
" clip-path="url(#pc9bcd4d515)" style="fill: none; stroke: #b78935; stroke-opacity: 0; stroke-width: 1.5; stroke-linecap: square"/>
   </g>
   <g id="LF-UPPER-2">
    <path d="M 55.944 75.07692 
L 215.784 199.872 
L 375.624 158.27364 
" clip-path="url(#pc9bcd4d515)" style="fill: none; stroke: #406992; stroke-opacity: 0; stroke-width: 1.5; stroke-linecap: square"/>
   </g>
   <g id="patch_3">
    <path d="M 55.944 199.872 
L 55.944 33.47856 
" style="fill: none; stroke: #949494; stroke-width: 0.8; stroke-linejoin: miter; stroke-linecap: square"/>
   </g>
   <g id="patch_4">
    <path d="M 55.944 199.872 
L 375.624 199.872 
" style="fill: none; stroke: #949494; stroke-width: 0.8; stroke-linejoin: miter; stroke-linecap: square"/>
   </g>
   <g id="text_7">
    <text style="font-weight: 800; font-size: 20px; font-family: 'Source Sans 3', sans-serif; text-anchor: start" x="55.944" y="27.47856" transform="rotate(-0 55.944 27.47856)">Loss function</text>
   </g>
  </g>
  <g id="axis-predictioninterval2">
   <g id="patch_5">
    <path d="M 55.944 449.712 
L 375.624 449.712 
L 375.624 283.31856 
L 55.944 283.31856 
z
" style="fill: #ffffff"/>
   </g>
   <g id="PI-PATCH-0">
    <path d="M 55.944 376.780781 
L 55.944 415.970377 
L 59.109149 409.595277 
L 62.274297 408.627326 
L 65.439446 416.357813 
L 68.604594 409.443577 
L 71.769743 416.22361 
L 74.934891 421.657751 
L 78.10004 407.988656 
L 81.265188 401.477535 
L 84.430337 407.060612 
L 87.595485 408.399711 
L 90.760634 410.741971 
L 93.925782 409.290179 
L 97.090931 403.410987 
L 100.256079 398.6777 
L 103.421228 403.930328 
L 106.586376 409.087361 
L 109.751525 406.949849 
L 112.916673 402.706856 
L 116.081822 405.418239 
L 119.24697 399.92335 
L 122.412119 405.76742 
L 125.577267 414.927631 
L 128.742416 421.142027 
L 131.907564 428.354275 
L 135.072713 410.533208 
L 138.237861 415.557887 
L 141.40301 435.769013 
L 144.568158 437.316632 
L 147.733307 437.335627 
L 150.898455 431.075918 
L 154.063604 436.508602 
L 157.228752 422.218852 
L 160.393901 424.808411 
L 163.55905 439.458634 
L 166.724198 449.712 
L 169.889347 449.712 
L 173.054495 448.695705 
L 176.219644 448.394813 
L 179.384792 449.712 
L 182.549941 440.035903 
L 185.715089 443.498288 
L 188.880238 449.712 
L 192.045386 446.204898 
L 195.210535 446.785463 
L 198.375683 449.261725 
L 201.540832 447.297362 
L 204.70598 442.284493 
L 207.871129 443.531954 
L 211.036277 444.209896 
L 214.201426 447.860266 
L 217.366574 449.712 
L 220.531723 447.62686 
L 223.696871 448.086242 
L 226.86202 446.316154 
L 230.027168 449.239531 
L 233.192317 444.510253 
L 236.357465 449.359527 
L 239.522614 447.579727 
L 242.687762 444.011939 
L 245.852911 447.508895 
L 249.018059 447.287455 
L 252.183208 449.712 
L 255.348356 449.712 
L 258.513505 449.712 
L 261.678653 437.257556 
L 264.843802 437.575507 
L 268.00895 449.712 
L 271.174099 449.712 
L 274.339248 449.533268 
L 277.504396 449.712 
L 280.669545 443.300853 
L 283.834693 421.215594 
L 286.999842 424.609569 
L 290.16499 429.176309 
L 293.330139 442.31275 
L 296.495287 449.712 
L 299.660436 436.54148 
L 302.825584 415.436868 
L 305.990733 408.918672 
L 309.155881 446.051941 
L 312.32103 435.458643 
L 315.486178 443.076019 
L 318.651327 433.382567 
L 321.816475 440.413664 
L 324.981624 414.12297 
L 328.146772 424.243579 
L 331.311921 406.028279 
L 334.477069 425.772788 
L 337.642218 425.265121 
L 340.807366 409.423872 
L 343.972515 412.503544 
L 347.137663 426.864472 
L 350.302812 433.581654 
L 353.46796 432.609138 
L 356.633109 442.52487 
L 359.798257 449.712 
L 362.963406 449.712 
L 366.128554 449.712 
L 369.293703 445.852425 
L 372.458851 444.88685 
L 375.624 430.136213 
L 378.789149 439.257857 
L 381.954297 447.757319 
L 385.119446 446.428249 
L 3028.018455 431.593599 
L 3031.183604 426.537256 
L 3034.348752 431.595918 
L 3037.513901 430.369994 
L 3040.67905 426.678846 
L 3043.844198 413.740336 
L 3047.009347 418.054554 
L 3050.174495 405.54739 
L 3053.339644 408.524209 
L 3056.504792 418.363234 
L 3059.669941 402.160516 
L 3062.835089 402.140458 
L 3066.000238 411.79088 
L 3069.165386 408.883047 
L 3072.330535 402.383088 
L 3075.495683 403.658262 
L 3078.660832 405.667058 
L 3081.82598 405.048246 
L 3084.991129 406.469735 
L 3088.156277 404.774603 
L 3091.321426 406.573645 
L 3094.486574 410.849226 
L 3097.651723 409.711885 
L 3100.816871 412.463311 
L 3103.98202 417.49603 
L 3107.147168 424.28413 
L 3110.312317 406.973468 
L 3113.477465 404.232163 
L 3116.642614 411.03173 
L 3119.807762 409.745291 
L 3122.972911 411.017178 
L 3126.138059 427.223943 
L 3129.303208 402.481295 
L 3132.468356 417.341778 
L 3135.633505 420.113256 
L 3138.798653 405.278476 
L 3141.963802 407.522855 
L 3145.12895 401.811951 
L 3148.294099 410.617784 
L 3151.459248 401.509135 
L 3154.624396 401.952645 
L 3157.789545 401.982636 
L 3160.954693 404.017818 
L 3164.119842 403.585099 
L 3167.28499 404.862165 
L 3170.450139 406.268557 
L 3173.615287 404.972512 
L 3176.780436 408.247231 
L 3179.945584 408.261725 
L 3183.110733 401.831628 
L 3186.275881 420.708442 
L 3189.44103 409.077878 
L 3192.606178 408.356673 
L 3195.771327 409.587479 
L 3198.936475 407.423274 
L 3202.101624 407.18213 
L 3205.266772 407.078486 
L 3208.431921 409.360842 
L 3211.597069 402.725997 
L 3214.762218 404.800878 
L 3217.927366 409.859227 
L 3221.092515 429.654875 
L 3224.257663 408.278269 
L 3227.422812 416.116443 
L 3230.58796 431.329766 
L 3233.753109 417.569047 
L 3236.918257 400.27804 
L 3240.083406 412.989724 
L 3243.248554 414.449437 
L 3246.413703 406.616668 
L 3249.578851 407.778967 
L 3252.744 433.339707 
L 3255.909149 430.41637 
L 3259.074297 434.938554 
L 3262.239446 426.64188 
L 3265.404594 417.122904 
L 3268.569743 405.259519 
L 3271.734891 408.620712 
L 3274.90004 412.826329 
L 3274.90004 369.897978 
L 3274.90004 369.897978 
L 3271.734891 364.480898 
L 3268.569743 360.181305 
L 3265.404594 371.34365 
L 3262.239446 377.865508 
L 3259.074297 383.738122 
L 3255.909149 377.9322 
L 3252.744 383.159004 
L 3249.578851 364.336139 
L 3246.413703 362.877175 
L 3243.248554 368.074844 
L 3240.083406 369.264513 
L 3236.918257 347.777103 
L 3233.753109 371.182585 
L 3230.58796 379.427757 
L 3227.422812 368.314319 
L 3224.257663 360.63776 
L 3221.092515 379.796523 
L 3217.927366 365.31411 
L 3214.762218 360.066531 
L 3211.597069 358.21658 
L 3208.431921 364.886675 
L 3205.266772 361.991744 
L 3202.101624 362.267596 
L 3198.936475 361.796739 
L 3195.771327 361.97863 
L 3192.606178 360.961224 
L 3189.44103 361.936337 
L 3186.275881 374.093321 
L 3183.110733 355.752498 
L 3179.945584 365.225411 
L 3176.780436 366.865873 
L 3173.615287 362.706659 
L 3170.450139 363.344909 
L 3167.28499 362.072946 
L 3164.119842 361.023308 
L 3160.954693 361.489423 
L 3157.789545 357.350476 
L 3154.624396 357.381401 
L 3151.459248 358.902303 
L 3148.294099 365.613593 
L 3145.12895 354.550274 
L 3141.963802 360.565856 
L 3138.798653 362.096794 
L 3135.633505 372.98945 
L 3132.468356 368.999394 
L 3129.303208 357.337845 
L 3126.138059 378.08245 
L 3122.972911 367.829866 
L 3119.807762 366.048993 
L 3116.642614 363.623046 
L 3113.477465 359.195147 
L 3110.312317 362.399501 
L 3107.147168 377.454806 
L 3103.98202 373.168612 
L 3100.816871 371.538604 
L 3097.651723 368.550481 
L 3094.486574 371.145503 
L 3091.321426 365.379805 
L 3088.156277 364.467873 
L 3084.991129 366.171149 
L 3081.82598 362.432946 
L 3078.660832 363.243389 
L 3075.495683 361.584056 
L 3072.330535 358.589166 
L 3069.165386 363.958437 
L 3066.000238 365.996538 
L 3062.835089 359.117454 
L 3059.669941 357.86779 
L 3056.504792 371.632527 
L 3053.339644 364.436574 
L 3050.174495 360.702414 
L 3047.009347 372.621821 
L 3043.844198 366.120611 
L 3040.67905 384.556087 
L 3037.513901 388.44876 
L 3034.348752 391.017257 
L 3031.183604 378.412102 
L 3028.018455 382.281545 
L 385.119446 415.704271 
L 381.954297 415.838249 
L 378.789149 394.22563 
L 375.624 377.265088 
L 372.458851 403.321025 
L 369.293703 414.39939 
L 366.128554 426.191962 
L 362.963406 426.929106 
L 359.798257 415.850804 
L 356.633109 407.003145 
L 353.46796 396.749965 
L 350.302812 396.444747 
L 347.137663 388.951735 
L 343.972515 372.641625 
L 340.807366 369.387576 
L 337.642218 381.90739 
L 334.477069 379.680467 
L 331.311921 359.621273 
L 328.146772 375.924897 
L 324.981624 365.605684 
L 321.816475 384.996609 
L 318.651327 382.741897 
L 315.486178 387.66895 
L 312.32103 386.148105 
L 309.155881 397.199133 
L 305.990733 363.532583 
L 302.825584 373.635851 
L 299.660436 383.648319 
L 296.495287 399.294573 
L 293.330139 394.001592 
L 290.16499 384.441459 
L 286.999842 382.433997 
L 283.834693 380.444993 
L 280.669545 408.277143 
L 277.504396 413.384878 
L 274.339248 401.825814 
L 271.174099 403.550817 
L 268.00895 418.358912 
L 264.843802 399.243746 
L 261.678653 392.360559 
L 258.513505 420.229902 
L 255.348356 404.194875 
L 252.183208 411.608043 
L 249.018059 394.78457 
L 245.852911 397.26253 
L 242.687762 404.909349 
L 239.522614 417.352512 
L 236.357465 416.550511 
L 233.192317 401.521031 
L 230.027168 417.075739 
L 226.86202 411.443588 
L 223.696871 414.653617 
L 220.531723 420.048502 
L 217.366574 423.095021 
L 214.201426 406.78834 
L 211.036277 404.055921 
L 207.871129 412.259105 
L 204.70598 412.784702 
L 201.540832 416.859309 
L 198.375683 416.931764 
L 195.210535 417.98936 
L 192.045386 420.089059 
L 188.880238 424.441534 
L 185.715089 410.621719 
L 182.549941 396.075931 
L 179.384792 427.179053 
L 176.219644 424.756478 
L 173.054495 424.041648 
L 169.889347 418.656875 
L 166.724198 419.734211 
L 163.55905 385.150686 
L 160.393901 382.105068 
L 157.228752 374.43113 
L 154.063604 393.105078 
L 150.898455 384.227469 
L 147.733307 383.732409 
L 144.568158 384.299417 
L 141.40301 388.269878 
L 138.237861 367.409084 
L 135.072713 360.176849 
L 131.907564 382.403301 
L 128.742416 377.162273 
L 125.577267 371.963862 
L 122.412119 365.121129 
L 119.24697 359.688683 
L 116.081822 364.433718 
L 112.916673 362.070725 
L 109.751525 365.208508 
L 106.586376 365.775591 
L 103.421228 361.513626 
L 100.256079 356.994501 
L 97.090931 359.850643 
L 93.925782 364.541097 
L 90.760634 364.823557 
L 87.595485 364.475154 
L 84.430337 362.488562 
L 81.265188 357.382562 
L 78.10004 364.578845 
L 74.934891 375.962181 
L 71.769743 369.775016 
L 68.604594 361.900894 
L 65.439446 366.356652 
L 62.274297 358.769699 
L 59.109149 362.847869 
L 55.944 376.780781 
z
" clip-path="url(#p93fe223160)" style="fill: #e6e6e6; fill-opacity: 0.00001"/>
   </g>
   <g id="PI-PATCH-LOWER-0">
    <path d="M 55.944 415.970377 
L 59.109149 409.595277 
L 62.274297 408.627326 
L 65.439446 416.357813 
L 68.604594 409.443577 
L 71.769743 416.22361 
L 74.934891 421.657751 
L 78.10004 407.988656 
L 81.265188 401.477535 
L 84.430337 407.060612 
L 87.595485 408.399711 
L 90.760634 410.741971 
L 93.925782 409.290179 
L 97.090931 403.410987 
L 100.256079 398.6777 
L 106.586376 409.087361 
L 109.751525 406.949849 
L 112.916673 402.706856 
L 116.081822 405.418239 
L 119.24697 399.92335 
L 122.412119 405.76742 
L 125.577267 414.927631 
L 128.742416 421.142027 
L 131.907564 428.354275 
L 135.072713 410.533208 
L 138.237861 415.557887 
L 141.40301 435.769013 
L 144.568158 437.316632 
L 147.733307 437.335627 
L 150.898455 431.075918 
L 154.063604 436.508602 
L 157.228752 422.218852 
L 160.393901 424.808411 
L 163.55905 439.458634 
L 166.724198 449.712 
L 169.889347 449.712 
L 173.054495 448.695705 
L 176.219644 448.394813 
L 179.384792 449.712 
L 182.549941 440.035903 
L 185.715089 443.498288 
L 188.880238 449.712 
L 192.045386 446.204898 
L 195.210535 446.785463 
L 198.375683 449.261725 
L 201.540832 447.297362 
L 204.70598 442.284493 
L 207.871129 443.531954 
L 211.036277 444.209896 
L 214.201426 447.860266 
L 217.366574 449.712 
L 220.531723 447.62686 
L 223.696871 448.086242 
L 226.86202 446.316154 
L 230.027168 449.239531 
L 233.192317 444.510253 
L 236.357465 449.359527 
L 239.522614 447.579727 
L 242.687762 444.011939 
L 245.852911 447.508895 
L 249.018059 447.287455 
L 252.183208 449.712 
L 258.513505 449.712 
L 261.678653 437.257556 
L 264.843802 437.575507 
L 268.00895 449.712 
L 271.174099 449.712 
L 274.339248 449.533268 
L 277.504396 449.712 
L 280.669545 443.300853 
L 283.834693 421.215594 
L 286.999842 424.609569 
L 290.16499 429.176309 
L 293.330139 442.31275 
L 296.495287 449.712 
L 299.660436 436.54148 
L 302.825584 415.436868 
L 305.990733 408.918672 
L 309.155881 446.051941 
L 312.32103 435.458643 
L 315.486178 443.076019 
L 318.651327 433.382567 
L 321.816475 440.413664 
L 324.981624 414.12297 
L 328.146772 424.243579 
L 331.311921 406.028279 
L 334.477069 425.772788 
L 337.642218 425.265121 
L 340.807366 409.423872 
L 343.972515 412.503544 
L 347.137663 426.864472 
L 350.302812 433.581654 
L 353.46796 432.609138 
L 356.633109 442.52487 
L 359.798257 449.712 
L 366.128554 449.712 
L 369.293703 445.852425 
L 372.458851 444.88685 
L 375.624 430.136213 
L 378.789149 439.257857 
L 381.954297 447.757319 
L 385.119446 446.428249 
L 400.6 446.341356 
L 400.6 446.341356 
" clip-path="url(#p93fe223160)" style="fill: none; stroke: #b78935; stroke-opacity: 0; stroke-width: 1.5; stroke-linecap: square"/>
   </g>
   <g id="PI-PATCH-UPPER-0">
    <path d="M 55.944 376.780781 
L 59.109149 362.847869 
L 62.274297 358.769699 
L 65.439446 366.356652 
L 68.604594 361.900894 
L 71.769743 369.775016 
L 74.934891 375.962181 
L 78.10004 364.578845 
L 81.265188 357.382562 
L 84.430337 362.488562 
L 87.595485 364.475154 
L 90.760634 364.823557 
L 93.925782 364.541097 
L 97.090931 359.850643 
L 100.256079 356.994501 
L 103.421228 361.513626 
L 106.586376 365.775591 
L 109.751525 365.208508 
L 112.916673 362.070725 
L 116.081822 364.433718 
L 119.24697 359.688683 
L 122.412119 365.121129 
L 125.577267 371.963862 
L 131.907564 382.403301 
L 135.072713 360.176849 
L 138.237861 367.409084 
L 141.40301 388.269878 
L 144.568158 384.299417 
L 147.733307 383.732409 
L 150.898455 384.227469 
L 154.063604 393.105078 
L 157.228752 374.43113 
L 160.393901 382.105068 
L 163.55905 385.150686 
L 166.724198 419.734211 
L 169.889347 418.656875 
L 173.054495 424.041648 
L 176.219644 424.756478 
L 179.384792 427.179053 
L 182.549941 396.075931 
L 185.715089 410.621719 
L 188.880238 424.441534 
L 192.045386 420.089059 
L 195.210535 417.98936 
L 198.375683 416.931764 
L 201.540832 416.859309 
L 204.70598 412.784702 
L 207.871129 412.259105 
L 211.036277 404.055921 
L 214.201426 406.78834 
L 217.366574 423.095021 
L 220.531723 420.048502 
L 223.696871 414.653617 
L 226.86202 411.443588 
L 230.027168 417.075739 
L 233.192317 401.521031 
L 236.357465 416.550511 
L 239.522614 417.352512 
L 242.687762 404.909349 
L 245.852911 397.26253 
L 249.018059 394.78457 
L 252.183208 411.608043 
L 255.348356 404.194875 
L 258.513505 420.229902 
L 261.678653 392.360559 
L 264.843802 399.243746 
L 268.00895 418.358912 
L 271.174099 403.550817 
L 274.339248 401.825814 
L 277.504396 413.384878 
L 280.669545 408.277143 
L 283.834693 380.444993 
L 290.16499 384.441459 
L 293.330139 394.001592 
L 296.495287 399.294573 
L 299.660436 383.648319 
L 305.990733 363.532583 
L 309.155881 397.199133 
L 312.32103 386.148105 
L 315.486178 387.66895 
L 318.651327 382.741897 
L 321.816475 384.996609 
L 324.981624 365.605684 
L 328.146772 375.924897 
L 331.311921 359.621273 
L 334.477069 379.680467 
L 337.642218 381.90739 
L 340.807366 369.387576 
L 343.972515 372.641625 
L 347.137663 388.951735 
L 350.302812 396.444747 
L 353.46796 396.749965 
L 356.633109 407.003145 
L 359.798257 415.850804 
L 362.963406 426.929106 
L 366.128554 426.191962 
L 369.293703 414.39939 
L 372.458851 403.321025 
L 375.624 377.265088 
L 378.789149 394.22563 
L 381.954297 415.838249 
L 385.119446 415.704271 
L 400.6 415.5085 
L 400.6 415.5085 
" clip-path="url(#p93fe223160)" style="fill: none; stroke: #406992; stroke-opacity: 0; stroke-width: 1.5; stroke-linecap: square"/>
   </g>
   <g id="PI-PATCH-1">
    <path d="M 55.944 382.554667 
L 55.944 404.813221 
L 59.109149 391.954655 
L 62.274297 388.119241 
L 65.439446 399.230801 
L 68.604594 390.547492 
L 71.769743 402.486703 
L 74.934891 412.289852 
L 78.10004 397.030593 
L 81.265188 388.346853 
L 84.430337 394.694538 
L 87.595485 397.124754 
L 90.760634 400.159496 
L 93.925782 398.057165 
L 97.090931 396.240868 
L 100.256079 389.011629 
L 103.421228 392.852292 
L 106.586376 402.764176 
L 109.751525 398.71681 
L 112.916673 393.901112 
L 116.081822 397.27361 
L 119.24697 388.577772 
L 122.412119 396.31877 
L 125.577267 410.901986 
L 128.742416 418.122731 
L 131.907564 424.413077 
L 135.072713 400.111186 
L 138.237861 405.278095 
L 141.40301 434.206193 
L 144.568158 430.507863 
L 147.733307 427.014806 
L 150.898455 430.339742 
L 154.063604 434.788368 
L 157.228752 417.204379 
L 160.393901 424.1099 
L 163.55905 428.705696 
L 166.724198 449.712 
L 169.889347 449.712 
L 173.054495 448.679005 
L 176.219644 446.71405 
L 179.384792 449.712 
L 182.549941 440.053723 
L 185.715089 438.292644 
L 188.880238 449.712 
L 192.045386 445.126674 
L 195.210535 443.168074 
L 198.375683 446.293966 
L 201.540832 441.731461 
L 204.70598 435.927135 
L 207.871129 440.057172 
L 211.036277 442.827517 
L 214.201426 447.667754 
L 217.366574 449.712 
L 220.531723 444.320784 
L 223.696871 445.673042 
L 226.86202 447.694807 
L 230.027168 449.451985 
L 233.192317 445.29781 
L 236.357465 448.600132 
L 239.522614 449.712 
L 242.687762 446.409481 
L 245.852911 445.903553 
L 249.018059 447.258948 
L 252.183208 449.712 
L 255.348356 448.497529 
L 258.513505 449.712 
L 261.678653 434.681657 
L 264.843802 435.976829 
L 268.00895 449.712 
L 271.174099 448.3524 
L 274.339248 446.642259 
L 277.504396 449.712 
L 280.669545 443.281927 
L 283.834693 419.673498 
L 286.999842 423.453096 
L 290.16499 424.903421 
L 293.330139 440.853151 
L 296.495287 449.402372 
L 299.660436 433.244028 
L 302.825584 411.695018 
L 305.990733 396.472824 
L 309.155881 432.406429 
L 312.32103 444.648557 
L 315.486178 442.031129 
L 318.651327 433.561863 
L 321.816475 433.676888 
L 324.981624 411.103798 
L 328.146772 426.483876 
L 331.311921 404.681591 
L 334.477069 425.605544 
L 337.642218 419.497062 
L 340.807366 399.453506 
L 343.972515 407.678646 
L 347.137663 424.651667 
L 350.302812 431.620362 
L 353.46796 429.05228 
L 356.633109 443.895019 
L 359.798257 449.712 
L 362.963406 449.712 
L 366.128554 449.712 
L 369.293703 439.179326 
L 372.458851 442.931283 
L 375.624 423.51566 
L 375.624 385.671244 
L 375.624 385.671244 
L 372.458851 416.91157 
L 369.293703 421.096335 
L 366.128554 435.979906 
L 362.963406 440.017038 
L 359.798257 433.637163 
L 356.633109 424.824981 
L 353.46796 408.257552 
L 350.302812 408.275896 
L 347.137663 399.296011 
L 343.972515 379.296931 
L 340.807366 366.073063 
L 337.642218 385.000519 
L 334.477069 392.069099 
L 331.311921 364.05354 
L 328.146772 387.845294 
L 324.981624 370.252049 
L 321.816475 394.161286 
L 318.651327 395.949738 
L 315.486178 400.465384 
L 312.32103 408.979287 
L 309.155881 397.495239 
L 305.990733 354.534653 
L 302.825584 374.28196 
L 299.660436 396.525435 
L 296.495287 419.394732 
L 293.330139 409.171959 
L 290.16499 395.90137 
L 286.999842 394.581903 
L 283.834693 390.940086 
L 280.669545 420.933331 
L 277.504396 428.730318 
L 274.339248 421.957567 
L 271.174099 422.545493 
L 268.00895 429.629615 
L 264.843802 412.705547 
L 261.678653 408.390936 
L 258.513505 433.987911 
L 255.348356 425.894755 
L 252.183208 430.322298 
L 249.018059 422.499426 
L 245.852911 419.935366 
L 242.687762 425.769321 
L 239.522614 433.618822 
L 236.357465 431.392168 
L 233.192317 420.660399 
L 230.027168 432.44577 
L 226.86202 429.550487 
L 223.696871 429.111599 
L 220.531723 432.123625 
L 217.366574 438.330737 
L 214.201426 422.229827 
L 211.036277 417.080614 
L 207.871129 420.893691 
L 204.70598 418.092927 
L 201.540832 424.884513 
L 198.375683 425.770408 
L 195.210535 423.602647 
L 192.045386 427.055698 
L 188.880238 433.099577 
L 185.715089 419.062728 
L 182.549941 411.748695 
L 179.384792 436.999257 
L 176.219644 432.390848 
L 173.054495 437.297911 
L 169.889347 440.837698 
L 166.724198 443.506894 
L 163.55905 394.589539 
L 160.393901 394.404658 
L 157.228752 381.300572 
L 154.063604 398.806934 
L 150.898455 391.328604 
L 147.733307 380.816709 
L 144.568158 386.798943 
L 141.40301 397.731718 
L 138.237861 369.041249 
L 135.072713 360.58825 
L 131.907564 391.059112 
L 128.742416 386.328955 
L 125.577267 383.069505 
L 122.412119 371.504195 
L 119.24697 362.779616 
L 116.081822 370.968182 
L 112.916673 367.418573 
L 109.751525 370.636283 
L 106.586376 374.368773 
L 103.421228 365.626364 
L 100.256079 359.663966 
L 97.090931 364.891372 
L 93.925782 367.670171 
L 90.760634 370.634036 
L 87.595485 369.212096 
L 84.430337 366.22229 
L 81.265188 359.436437 
L 78.10004 365.454349 
L 74.934891 381.598551 
L 71.769743 373.918907 
L 68.604594 362.199006 
L 65.439446 372.428511 
L 62.274297 363.615963 
L 59.109149 367.210118 
L 55.944 382.554667 
z
" clip-path="url(#p93fe223160)" style="fill: #bfbfbf; fill-opacity: 0.00001"/>
   </g>
   <g id="PI-PATCH-LOWER-1">
    <path d="M 55.944 404.813221 
L 59.109149 391.954655 
L 62.274297 388.119241 
L 65.439446 399.230801 
L 68.604594 390.547492 
L 71.769743 402.486703 
L 74.934891 412.289852 
L 78.10004 397.030593 
L 81.265188 388.346853 
L 84.430337 394.694538 
L 87.595485 397.124754 
L 90.760634 400.159496 
L 93.925782 398.057165 
L 97.090931 396.240868 
L 100.256079 389.011629 
L 103.421228 392.852292 
L 106.586376 402.764176 
L 109.751525 398.71681 
L 112.916673 393.901112 
L 116.081822 397.27361 
L 119.24697 388.577772 
L 122.412119 396.31877 
L 125.577267 410.901986 
L 128.742416 418.122731 
L 131.907564 424.413077 
L 135.072713 400.111186 
L 138.237861 405.278095 
L 141.40301 434.206193 
L 144.568158 430.507863 
L 147.733307 427.014806 
L 150.898455 430.339742 
L 154.063604 434.788368 
L 157.228752 417.204379 
L 160.393901 424.1099 
L 163.55905 428.705696 
L 166.724198 449.712 
L 169.889347 449.712 
L 173.054495 448.679005 
L 176.219644 446.71405 
L 179.384792 449.712 
L 182.549941 440.053723 
L 185.715089 438.292644 
L 188.880238 449.712 
L 192.045386 445.126674 
L 195.210535 443.168074 
L 198.375683 446.293966 
L 201.540832 441.731461 
L 204.70598 435.927135 
L 207.871129 440.057172 
L 211.036277 442.827517 
L 214.201426 447.667754 
L 217.366574 449.712 
L 220.531723 444.320784 
L 223.696871 445.673042 
L 226.86202 447.694807 
L 230.027168 449.451985 
L 233.192317 445.29781 
L 236.357465 448.600132 
L 239.522614 449.712 
L 242.687762 446.409481 
L 245.852911 445.903553 
L 249.018059 447.258948 
L 252.183208 449.712 
L 255.348356 448.497529 
L 258.513505 449.712 
L 261.678653 434.681657 
L 264.843802 435.976829 
L 268.00895 449.712 
L 271.174099 448.3524 
L 274.339248 446.642259 
L 277.504396 449.712 
L 280.669545 443.281927 
L 283.834693 419.673498 
L 286.999842 423.453096 
L 290.16499 424.903421 
L 293.330139 440.853151 
L 296.495287 449.402372 
L 299.660436 433.244028 
L 302.825584 411.695018 
L 305.990733 396.472824 
L 309.155881 432.406429 
L 312.32103 444.648557 
L 315.486178 442.031129 
L 318.651327 433.561863 
L 321.816475 433.676888 
L 324.981624 411.103798 
L 328.146772 426.483876 
L 331.311921 404.681591 
L 334.477069 425.605544 
L 337.642218 419.497062 
L 340.807366 399.453506 
L 343.972515 407.678646 
L 347.137663 424.651667 
L 350.302812 431.620362 
L 353.46796 429.05228 
L 356.633109 443.895019 
L 359.798257 449.712 
L 362.963406 449.712 
L 366.128554 449.712 
L 369.293703 439.179326 
L 372.458851 442.931283 
L 375.624 423.51566 
" clip-path="url(#p93fe223160)" style="fill: none; stroke: #b78935; stroke-opacity: 0; stroke-width: 1.5; stroke-linecap: square"/>
   </g>
   <g id="PI-PATCH-UPPER-1">
    <path d="M 55.944 382.554667 
L 59.109149 367.210118 
L 62.274297 363.615963 
L 65.439446 372.428511 
L 68.604594 362.199006 
L 71.769743 373.918907 
L 74.934891 381.598551 
L 78.10004 365.454349 
L 81.265188 359.436437 
L 84.430337 366.22229 
L 87.595485 369.212096 
L 90.760634 370.634036 
L 93.925782 367.670171 
L 97.090931 364.891372 
L 100.256079 359.663966 
L 103.421228 365.626364 
L 106.586376 374.368773 
L 109.751525 370.636283 
L 112.916673 367.418573 
L 116.081822 370.968182 
L 119.24697 362.779616 
L 122.412119 371.504195 
L 125.577267 383.069505 
L 128.742416 386.328955 
L 131.907564 391.059112 
L 135.072713 360.58825 
L 138.237861 369.041249 
L 141.40301 397.731718 
L 144.568158 386.798943 
L 147.733307 380.816709 
L 150.898455 391.328604 
L 154.063604 398.806934 
L 157.228752 381.300572 
L 160.393901 394.404658 
L 163.55905 394.589539 
L 166.724198 443.506894 
L 169.889347 440.837698 
L 173.054495 437.297911 
L 176.219644 432.390848 
L 179.384792 436.999257 
L 182.549941 411.748695 
L 185.715089 419.062728 
L 188.880238 433.099577 
L 192.045386 427.055698 
L 195.210535 423.602647 
L 198.375683 425.770408 
L 201.540832 424.884513 
L 204.70598 418.092927 
L 207.871129 420.893691 
L 211.036277 417.080614 
L 214.201426 422.229827 
L 217.366574 438.330737 
L 220.531723 432.123625 
L 223.696871 429.111599 
L 226.86202 429.550487 
L 230.027168 432.44577 
L 233.192317 420.660399 
L 236.357465 431.392168 
L 239.522614 433.618822 
L 242.687762 425.769321 
L 245.852911 419.935366 
L 249.018059 422.499426 
L 252.183208 430.322298 
L 255.348356 425.894755 
L 258.513505 433.987911 
L 261.678653 408.390936 
L 264.843802 412.705547 
L 268.00895 429.629615 
L 271.174099 422.545493 
L 274.339248 421.957567 
L 277.504396 428.730318 
L 280.669545 420.933331 
L 283.834693 390.940086 
L 286.999842 394.581903 
L 290.16499 395.90137 
L 293.330139 409.171959 
L 296.495287 419.394732 
L 299.660436 396.525435 
L 302.825584 374.28196 
L 305.990733 354.534653 
L 309.155881 397.495239 
L 312.32103 408.979287 
L 315.486178 400.465384 
L 318.651327 395.949738 
L 321.816475 394.161286 
L 324.981624 370.252049 
L 328.146772 387.845294 
L 331.311921 364.05354 
L 334.477069 392.069099 
L 337.642218 385.000519 
L 340.807366 366.073063 
L 343.972515 379.296931 
L 347.137663 399.296011 
L 350.302812 408.275896 
L 353.46796 408.257552 
L 356.633109 424.824981 
L 359.798257 433.637163 
L 362.963406 440.017038 
L 366.128554 435.979906 
L 369.293703 421.096335 
L 372.458851 416.91157 
L 375.624 385.671244 
" clip-path="url(#p93fe223160)" style="fill: none; stroke: #406992; stroke-opacity: 0; stroke-width: 1.5; stroke-linecap: square"/>
   </g>
   <g id="PI-PATCH-2">
    <path d="M 55.944 379.88166 
L 55.944 397.11342 
L 59.109149 386.834717 
L 62.274297 383.627982 
L 65.439446 394.963091 
L 68.604594 386.575768 
L 71.769743 396.137037 
L 74.934891 407.959106 
L 78.10004 388.219879 
L 81.265188 383.13065 
L 84.430337 387.751434 
L 87.595485 391.340099 
L 90.760634 393.195928 
L 93.925782 387.993366 
L 97.090931 383.449461 
L 100.256079 377.205061 
L 103.421228 382.834721 
L 106.586376 393.925334 
L 109.751525 391.068367 
L 112.916673 384.387043 
L 116.081822 390.190476 
L 119.24697 380.587435 
L 122.412119 392.354421 
L 125.577267 402.262223 
L 128.742416 412.961481 
L 131.907564 422.005192 
L 135.072713 391.320289 
L 138.237861 398.460752 
L 141.40301 429.674382 
L 144.568158 422.796336 
L 147.733307 429.683136 
L 150.898455 424.907174 
L 154.063604 426.789979 
L 157.228752 409.040082 
L 160.393901 404.82893 
L 163.55905 433.055781 
L 166.724198 449.712 
L 169.889347 445.619407 
L 173.054495 447.605436 
L 176.219644 443.783147 
L 179.384792 449.071752 
L 182.549941 438.607531 
L 185.715089 440.92864 
L 188.880238 444.434471 
L 192.045386 440.925909 
L 195.210535 442.990203 
L 198.375683 444.929563 
L 201.540832 440.929647 
L 204.70598 433.983456 
L 207.871129 435.799195 
L 211.036277 434.971575 
L 214.201426 439.734632 
L 217.366574 448.563287 
L 220.531723 444.402831 
L 223.696871 440.05718 
L 226.86202 440.218232 
L 230.027168 444.805904 
L 233.192317 441.553451 
L 236.357465 446.545598 
L 239.522614 446.533431 
L 242.687762 442.632236 
L 245.852911 449.712 
L 249.018059 445.705585 
L 252.183208 449.712 
L 255.348356 449.712 
L 258.513505 449.712 
L 261.678653 435.724355 
L 264.843802 431.768761 
L 268.00895 449.712 
L 271.174099 449.712 
L 274.339248 447.074345 
L 277.504396 449.10776 
L 280.669545 442.880254 
L 283.834693 414.389708 
L 286.999842 416.62396 
L 290.16499 422.580718 
L 293.330139 435.46732 
L 296.495287 448.420886 
L 299.660436 425.932391 
L 302.825584 404.932847 
L 305.990733 389.495714 
L 309.155881 436.982105 
L 312.32103 427.423714 
L 315.486178 436.653464 
L 318.651327 425.242737 
L 321.816475 433.043015 
L 324.981624 402.540697 
L 328.146772 409.951706 
L 331.311921 389.398758 
L 334.477069 407.813265 
L 337.642218 411.706424 
L 340.807366 395.069441 
L 343.972515 398.570083 
L 347.137663 420.666518 
L 350.302812 425.424628 
L 353.46796 424.02858 
L 356.633109 434.360908 
L 359.798257 443.519983 
L 362.963406 449.562425 
L 366.128554 446.319052 
L 369.293703 438.676787 
L 372.458851 436.170701 
L 375.624 414.940443 
L 375.624 398.063253 
L 375.624 398.063253 
L 372.458851 422.84356 
L 369.293703 428.108044 
L 366.128554 438.044549 
L 362.963406 441.727834 
L 359.798257 432.716486 
L 356.633109 421.150447 
L 353.46796 409.854905 
L 350.302812 411.401701 
L 347.137663 405.100545 
L 343.972515 380.894744 
L 340.807366 373.410645 
L 337.642218 391.839653 
L 334.477069 388.372979 
L 331.311921 364.782279 
L 328.146772 385.562309 
L 324.981624 376.396427 
L 321.816475 411.35275 
L 318.651327 402.655883 
L 315.486178 414.962098 
L 312.32103 406.00652 
L 309.155881 416.692458 
L 305.990733 369.682915 
L 302.825584 385.172813 
L 299.660436 409.2449 
L 296.495287 434.949868 
L 293.330139 420.133078 
L 290.16499 407.371498 
L 286.999842 400.530591 
L 283.834693 397.489723 
L 280.669545 431.605206 
L 277.504396 440.148581 
L 274.339248 435.672438 
L 271.174099 437.801212 
L 268.00895 440.487607 
L 264.843802 419.987869 
L 261.678653 422.066536 
L 258.513505 445.897297 
L 255.348356 439.384669 
L 252.183208 449.712 
L 249.018059 430.38015 
L 245.852911 433.213724 
L 242.687762 429.52146 
L 239.522614 437.023482 
L 236.357465 437.333859 
L 233.192317 427.64885 
L 230.027168 434.312039 
L 226.86202 428.669865 
L 223.696871 428.56586 
L 220.531723 435.662507 
L 217.366574 439.671074 
L 214.201426 426.714947 
L 211.036277 421.082914 
L 207.871129 424.609961 
L 204.70598 422.940089 
L 201.540832 430.546146 
L 198.375683 433.871179 
L 195.210535 432.534087 
L 192.045386 430.564379 
L 188.880238 434.09986 
L 185.715089 429.148326 
L 182.549941 422.797209 
L 179.384792 438.86948 
L 176.219644 432.455593 
L 173.054495 435.509392 
L 169.889347 432.432111 
L 166.724198 439.23374 
L 163.55905 412.868479 
L 160.393901 384.367328 
L 157.228752 388.00375 
L 154.063604 408.705459 
L 150.898455 405.096499 
L 147.733307 411.817072 
L 144.568158 405.607427 
L 141.40301 411.661266 
L 138.237861 378.622995 
L 135.072713 370.106522 
L 131.907564 407.082942 
L 128.742416 398.012032 
L 125.577267 387.661009 
L 122.412119 378.227272 
L 119.24697 367.289467 
L 116.081822 376.4452 
L 112.916673 370.767014 
L 109.751525 376.759574 
L 106.586376 378.794146 
L 103.421228 369.349048 
L 100.256079 363.451812 
L 97.090931 368.220035 
L 93.925782 372.73158 
L 90.760634 378.050104 
L 87.595485 376.790867 
L 84.430337 373.109295 
L 81.265188 369.051849 
L 78.10004 372.99847 
L 74.934891 393.033282 
L 71.769743 381.420246 
L 68.604594 370.576896 
L 65.439446 379.293053 
L 62.274297 369.512919 
L 59.109149 370.911354 
L 55.944 379.88166 
z
" clip-path="url(#p93fe223160)" style="fill: #808080; fill-opacity: 0.00001"/>
   </g>
   <g id="PI-PATCH-LOWER-2">
    <path d="M 55.944 397.11342 
L 59.109149 386.834717 
L 62.274297 383.627982 
L 65.439446 394.963091 
L 68.604594 386.575768 
L 71.769743 396.137037 
L 74.934891 407.959106 
L 78.10004 388.219879 
L 81.265188 383.13065 
L 84.430337 387.751434 
L 87.595485 391.340099 
L 90.760634 393.195928 
L 93.925782 387.993366 
L 97.090931 383.449461 
L 100.256079 377.205061 
L 103.421228 382.834721 
L 106.586376 393.925334 
L 109.751525 391.068367 
L 112.916673 384.387043 
L 116.081822 390.190476 
L 119.24697 380.587435 
L 122.412119 392.354421 
L 125.577267 402.262223 
L 128.742416 412.961481 
L 131.907564 422.005192 
L 135.072713 391.320289 
L 138.237861 398.460752 
L 141.40301 429.674382 
L 144.568158 422.796336 
L 147.733307 429.683136 
L 150.898455 424.907174 
L 154.063604 426.789979 
L 157.228752 409.040082 
L 160.393901 404.82893 
L 163.55905 433.055781 
L 166.724198 449.712 
L 169.889347 445.619407 
L 173.054495 447.605436 
L 176.219644 443.783147 
L 179.384792 449.071752 
L 182.549941 438.607531 
L 185.715089 440.92864 
L 188.880238 444.434471 
L 192.045386 440.925909 
L 195.210535 442.990203 
L 198.375683 444.929563 
L 201.540832 440.929647 
L 204.70598 433.983456 
L 207.871129 435.799195 
L 211.036277 434.971575 
L 214.201426 439.734632 
L 217.366574 448.563287 
L 220.531723 444.402831 
L 223.696871 440.05718 
L 226.86202 440.218232 
L 230.027168 444.805904 
L 233.192317 441.553451 
L 236.357465 446.545598 
L 239.522614 446.533431 
L 242.687762 442.632236 
L 245.852911 449.712 
L 249.018059 445.705585 
L 252.183208 449.712 
L 255.348356 449.712 
L 258.513505 449.712 
L 261.678653 435.724355 
L 264.843802 431.768761 
L 268.00895 449.712 
L 271.174099 449.712 
L 274.339248 447.074345 
L 277.504396 449.10776 
L 280.669545 442.880254 
L 283.834693 414.389708 
L 286.999842 416.62396 
L 290.16499 422.580718 
L 293.330139 435.46732 
L 296.495287 448.420886 
L 299.660436 425.932391 
L 302.825584 404.932847 
L 305.990733 389.495714 
L 309.155881 436.982105 
L 312.32103 427.423714 
L 315.486178 436.653464 
L 318.651327 425.242737 
L 321.816475 433.043015 
L 324.981624 402.540697 
L 328.146772 409.951706 
L 331.311921 389.398758 
L 334.477069 407.813265 
L 337.642218 411.706424 
L 340.807366 395.069441 
L 343.972515 398.570083 
L 347.137663 420.666518 
L 350.302812 425.424628 
L 353.46796 424.02858 
L 356.633109 434.360908 
L 359.798257 443.519983 
L 362.963406 449.562425 
L 366.128554 446.319052 
L 369.293703 438.676787 
L 372.458851 436.170701 
L 375.624 414.940443 
" clip-path="url(#p93fe223160)" style="fill: none; stroke: #b78935; stroke-opacity: 0; stroke-width: 1.5; stroke-linecap: square"/>
   </g>
   <g id="PI-PATCH-UPPER-2">
    <path d="M 55.944 379.88166 
L 59.109149 370.911354 
L 62.274297 369.512919 
L 65.439446 379.293053 
L 68.604594 370.576896 
L 71.769743 381.420246 
L 74.934891 393.033282 
L 78.10004 372.99847 
L 81.265188 369.051849 
L 84.430337 373.109295 
L 87.595485 376.790867 
L 90.760634 378.050104 
L 93.925782 372.73158 
L 97.090931 368.220035 
L 100.256079 363.451812 
L 103.421228 369.349048 
L 106.586376 378.794146 
L 109.751525 376.759574 
L 112.916673 370.767014 
L 116.081822 376.4452 
L 119.24697 367.289467 
L 122.412119 378.227272 
L 125.577267 387.661009 
L 128.742416 398.012032 
L 131.907564 407.082942 
L 135.072713 370.106522 
L 138.237861 378.622995 
L 141.40301 411.661266 
L 144.568158 405.607427 
L 147.733307 411.817072 
L 150.898455 405.096499 
L 154.063604 408.705459 
L 157.228752 388.00375 
L 160.393901 384.367328 
L 163.55905 412.868479 
L 166.724198 439.23374 
L 169.889347 432.432111 
L 173.054495 435.509392 
L 176.219644 432.455593 
L 179.384792 438.86948 
L 182.549941 422.797209 
L 185.715089 429.148326 
L 188.880238 434.09986 
L 192.045386 430.564379 
L 195.210535 432.534087 
L 198.375683 433.871179 
L 201.540832 430.546146 
L 204.70598 422.940089 
L 207.871129 424.609961 
L 211.036277 421.082914 
L 214.201426 426.714947 
L 217.366574 439.671074 
L 220.531723 435.662507 
L 223.696871 428.56586 
L 226.86202 428.669865 
L 230.027168 434.312039 
L 233.192317 427.64885 
L 236.357465 437.333859 
L 239.522614 437.023482 
L 242.687762 429.52146 
L 245.852911 433.213724 
L 249.018059 430.38015 
L 252.183208 449.712 
L 255.348356 439.384669 
L 258.513505 445.897297 
L 261.678653 422.066536 
L 264.843802 419.987869 
L 268.00895 440.487607 
L 271.174099 437.801212 
L 274.339248 435.672438 
L 277.504396 440.148581 
L 280.669545 431.605206 
L 283.834693 397.489723 
L 286.999842 400.530591 
L 290.16499 407.371498 
L 293.330139 420.133078 
L 296.495287 434.949868 
L 299.660436 409.2449 
L 302.825584 385.172813 
L 305.990733 369.682915 
L 309.155881 416.692458 
L 312.32103 406.00652 
L 315.486178 414.962098 
L 318.651327 402.655883 
L 321.816475 411.35275 
L 324.981624 376.396427 
L 328.146772 385.562309 
L 331.311921 364.782279 
L 334.477069 388.372979 
L 337.642218 391.839653 
L 340.807366 373.410645 
L 343.972515 380.894744 
L 347.137663 405.100545 
L 350.302812 411.401701 
L 353.46796 409.854905 
L 356.633109 421.150447 
L 359.798257 432.716486 
L 362.963406 441.727834 
L 366.128554 438.044549 
L 369.293703 428.108044 
L 372.458851 422.84356 
L 375.624 398.063253 
" clip-path="url(#p93fe223160)" style="fill: none; stroke: #406992; stroke-opacity: 0; stroke-width: 1.5; stroke-linecap: square"/>
   </g>
   <g id="matplotlib.axis_3">
    <g id="xtick_4">
     <g id="line2d_7">
      <g>
       <use xlink:href="#ma1dbe7ecf7" x="66.343774" y="449.712" style="fill: #949494; stroke: #949494; stroke-width: 0.8"/>
      </g>
     </g>
     <g id="text_8">
      <text style="font-weight: 300; font-size: 16px; font-family: 'Source Sans 3', sans-serif; text-anchor: middle; fill: #494949" x="66.343774" y="468.2645" transform="rotate(-0 66.343774 468.2645)">2021</text>
     </g>
    </g>
    <g id="xtick_5">
     <g id="line2d_8">
      <g>
       <use xlink:href="#ma1dbe7ecf7" x="231.383661" y="449.712" style="fill: #949494; stroke: #949494; stroke-width: 0.8"/>
      </g>
     </g>
     <g id="text_9">
      <text style="font-weight: 300; font-size: 16px; font-family: 'Source Sans 3', sans-serif; text-anchor: middle; fill: #494949" x="231.383661" y="468.2645" transform="rotate(-0 231.383661 468.2645)">2022</text>
     </g>
    </g>
    <g id="text_10">
     <text style="font-weight: 600; font-size: 16px; font-family: 'Source Sans 3', sans-serif; text-anchor: middle; fill: #494949" x="215.784" y="487.3695" transform="rotate(-0 215.784 487.3695)">Date</text>
    </g>
   </g>
   <g id="matplotlib.axis_4">
    <g id="ytick_4">
     <g id="line2d_9">
      <path d="M 55.944 449.712 
L 375.624 449.712 
" style="fill: none; stroke: #d1d1d1; stroke-width: 0.8; stroke-linecap: square"/>
     </g>
     <g id="line2d_10">
      <g>
       <use xlink:href="#me2f2847ef8" x="55.944" y="449.712" style="fill: #949494; stroke: #949494; stroke-width: 0.8"/>
      </g>
     </g>
     <g id="text_11">
      <text style="font-weight: 300; font-size: 16px; font-family: 'Source Sans 3', sans-serif; text-anchor: end; fill: #494949" x="48.944" y="455.48825" transform="rotate(-0 48.944 455.48825)">0ᵗʰ</text>
     </g>
    </g>
    <g id="ytick_5">
     <g id="line2d_11">
      <path d="M 55.944 416.433312 
L 375.624 416.433312 
" style="fill: none; stroke: #d1d1d1; stroke-width: 0.8; stroke-linecap: square"/>
     </g>
     <g id="line2d_12">
      <g>
       <use xlink:href="#me2f2847ef8" x="55.944" y="416.433312" style="fill: #949494; stroke: #949494; stroke-width: 0.8"/>
      </g>
     </g>
     <g id="text_12">
      <text style="font-weight: 300; font-size: 16px; font-family: 'Source Sans 3', sans-serif; text-anchor: end; fill: #494949" x="48.944" y="422.209562" transform="rotate(-0 48.944 422.209562)">20ᵗʰ</text>
     </g>
    </g>
    <g id="ytick_6">
     <g id="line2d_13">
      <path d="M 55.944 383.154624 
L 375.624 383.154624 
" style="fill: none; stroke: #d1d1d1; stroke-width: 0.8; stroke-linecap: square"/>
     </g>
     <g id="line2d_14">
      <g>
       <use xlink:href="#me2f2847ef8" x="55.944" y="383.154624" style="fill: #949494; stroke: #949494; stroke-width: 0.8"/>
      </g>
     </g>
     <g id="text_13">
      <text style="font-weight: 300; font-size: 16px; font-family: 'Source Sans 3', sans-serif; text-anchor: end; fill: #494949" x="48.944" y="388.930874" transform="rotate(-0 48.944 388.930874)">40ᵗʰ</text>
     </g>
    </g>
    <g id="ytick_7">
     <g id="line2d_15">
      <path d="M 55.944 349.875936 
L 375.624 349.875936 
" style="fill: none; stroke: #d1d1d1; stroke-width: 0.8; stroke-linecap: square"/>
     </g>
     <g id="line2d_16">
      <g>
       <use xlink:href="#me2f2847ef8" x="55.944" y="349.875936" style="fill: #949494; stroke: #949494; stroke-width: 0.8"/>
      </g>
     </g>
     <g id="text_14">
      <text style="font-weight: 300; font-size: 16px; font-family: 'Source Sans 3', sans-serif; text-anchor: end; fill: #494949" x="48.944" y="355.652186" transform="rotate(-0 48.944 355.652186)">60ᵗʰ</text>
     </g>
    </g>
    <g id="ytick_8">
     <g id="line2d_17">
      <path d="M 55.944 316.597248 
L 375.624 316.597248 
" style="fill: none; stroke: #d1d1d1; stroke-width: 0.8; stroke-linecap: square"/>
     </g>
     <g id="line2d_18">
      <g>
       <use xlink:href="#me2f2847ef8" x="55.944" y="316.597248" style="fill: #949494; stroke: #949494; stroke-width: 0.8"/>
      </g>
     </g>
     <g id="text_15">
      <text style="font-weight: 300; font-size: 16px; font-family: 'Source Sans 3', sans-serif; text-anchor: end; fill: #494949" x="48.944" y="322.373498" transform="rotate(-0 48.944 322.373498)">80ᵗʰ</text>
     </g>
    </g>
    <g id="ytick_9">
     <g id="line2d_19">
      <path d="M 55.944 283.31856 
L 375.624 283.31856 
" style="fill: none; stroke: #d1d1d1; stroke-width: 0.8; stroke-linecap: square"/>
     </g>
     <g id="line2d_20">
      <g>
       <use xlink:href="#me2f2847ef8" x="55.944" y="283.31856" style="fill: #949494; stroke: #949494; stroke-width: 0.8"/>
      </g>
     </g>
     <g id="text_16">
      <text style="font-weight: 300; font-size: 16px; font-family: 'Source Sans 3', sans-serif; text-anchor: end; fill: #494949" x="48.944" y="289.09481" transform="rotate(-0 48.944 289.09481)">100ᵗʰ</text>
     </g>
    </g>
   </g>
   <g id="TAG-0-LABEL-BOLD">
    <g id="patch_6">
     <path d="M 239.4165 349.496842 
L 351.9915 349.496842 
L 351.9915 316.976342 
L 239.4165 316.976342 
z
" style="fill: #ffffff; opacity: 0"/>
    </g>
    <text style="font-weight: 700; font-size: 16px; font-family: 'Source Sans 3', sans-serif; fill: #af3331; opacity: 0" transform="translate(239.4165 328.528842)">PI contains 84.6%</text>
    <text style="font-weight: 700; font-size: 16px; font-family: 'Source Sans 3', sans-serif; fill: #af3331; opacity: 0" transform="translate(246.68025 345.944342)">of observations</text>
   </g>
   <g id="TAG-1-LABEL-BOLD">
    <g id="patch_7">
     <path d="M 239.4165 349.496842 
L 351.9915 349.496842 
L 351.9915 316.976342 
L 239.4165 316.976342 
z
" style="fill: #ffffff; opacity: 0"/>
    </g>
    <text style="font-weight: 700; font-size: 16px; font-family: 'Source Sans 3', sans-serif; fill: #af3331; opacity: 0" transform="translate(239.4165 328.528842)">PI contains 69.2%</text>
    <text style="font-weight: 700; font-size: 16px; font-family: 'Source Sans 3', sans-serif; fill: #af3331; opacity: 0" transform="translate(246.68025 345.944342)">of observations</text>
   </g>
   <g id="TAG-2-LABEL-BOLD">
    <g id="patch_8">
     <path d="M 239.4165 349.496842 
L 351.9915 349.496842 
L 351.9915 316.976342 
L 239.4165 316.976342 
z
" style="fill: #ffffff; opacity: 0"/>
    </g>
    <text style="font-weight: 700; font-size: 16px; font-family: 'Source Sans 3', sans-serif; fill: #af3331; opacity: 0" transform="translate(239.4165 328.528842)">PI contains 38.5%</text>
    <text style="font-weight: 700; font-size: 16px; font-family: 'Source Sans 3', sans-serif; fill: #af3331; opacity: 0" transform="translate(246.68025 345.944342)">of observations</text>
   </g>
   <g id="PI-PATCH-MEDIAN">
    <path d="M 55.944 392.622174 
L 59.109149 379.573341 
L 62.274297 373.825867 
L 65.439446 385.309333 
L 68.604594 375.84273 
L 71.769743 385.987681 
L 74.934891 395.647093 
L 78.10004 378.668804 
L 81.265188 369.765729 
L 84.430337 376.513473 
L 87.595485 376.150991 
L 90.760634 382.423701 
L 93.925782 376.390523 
L 97.090931 372.298008 
L 100.256079 366.970097 
L 103.421228 372.736182 
L 106.586376 384.976647 
L 109.751525 380.50502 
L 112.916673 372.959294 
L 116.081822 378.311191 
L 119.24697 372.335045 
L 122.412119 380.424503 
L 125.577267 395.149057 
L 128.742416 401.275675 
L 131.907564 410.72428 
L 135.072713 375.354443 
L 138.237861 382.938768 
L 141.40301 415.603608 
L 144.568158 421.195088 
L 147.733307 421.665936 
L 150.898455 410.616778 
L 154.063604 418.372844 
L 157.228752 401.356912 
L 160.393901 399.141766 
L 163.55905 425.393006 
L 166.724198 444.430974 
L 169.889347 442.651996 
L 173.054495 441.818503 
L 176.219644 442.290073 
L 179.384792 445.38587 
L 182.549941 427.586384 
L 185.715089 433.179405 
L 188.880238 444.134075 
L 192.045386 439.470082 
L 195.210535 440.029223 
L 198.375683 443.271178 
L 201.540832 440.063491 
L 204.70598 432.794868 
L 207.871129 434.630855 
L 211.036277 435.702445 
L 214.201426 440.801999 
L 217.366574 449.226156 
L 220.531723 441.772507 
L 223.696871 442.130577 
L 226.86202 440.264922 
L 230.027168 442.905222 
L 233.192317 435.812317 
L 236.357465 442.483344 
L 239.522614 440.776412 
L 242.687762 435.680667 
L 245.852911 436.185827 
L 249.018059 435.607766 
L 252.183208 448.663311 
L 255.348356 440.118204 
L 258.513505 444.496925 
L 261.678653 423.22602 
L 264.843802 423.437032 
L 268.00895 442.720059 
L 271.174099 438.90847 
L 274.339248 437.062902 
L 277.504396 441.999902 
L 280.669545 432.202892 
L 283.834693 401.007951 
L 286.999842 405.184382 
L 290.16499 413.461301 
L 293.330139 427.47539 
L 296.495287 436.13872 
L 299.660436 420.430943 
L 302.825584 390.245914 
L 305.990733 378.035143 
L 309.155881 430.749431 
L 312.32103 415.812415 
L 315.486178 427.48506 
L 318.651327 413.581461 
L 321.816475 424.860593 
L 324.981624 389.241228 
L 328.146772 403.426611 
L 331.311921 373.5189 
L 334.477069 400.611025 
L 337.642218 410.097779 
L 340.807366 384.091222 
L 343.972515 389.285952 
L 347.137663 412.190998 
L 350.302812 420.702736 
L 353.46796 417.832852 
L 356.633109 432.694787 
L 359.798257 443.958595 
L 362.963406 449.357855 
L 366.128554 446.929618 
L 369.293703 437.969956 
L 372.458851 436.232869 
L 375.624 410.155172 
L 378.789149 425.306765 
L 381.954297 439.498875 
L 385.119446 439.271972 
L 400.6 439.13067 
L 400.6 439.13067 
" clip-path="url(#p93fe223160)" style="fill: none; stroke: #00264c; stroke-opacity: 0; stroke-width: 1.5; stroke-linecap: square"/>
   </g>
   <g id="OBSERVED-FORECAST-LINE">
    <path d="M 55.944 382.806018 
L 59.109149 361.487278 
L 62.274297 379.588093 
L 65.439446 374.358966 
L 68.604594 377.040568 
L 71.769743 389.912263 
L 74.934891 378.78361 
L 78.10004 370.604723 
L 81.265188 368.995764 
L 84.430337 358.939752 
L 87.595485 380.736358 
L 90.760634 344.874516 
L 93.925782 360.813113 
L 97.090931 355.042242 
L 100.256079 349.956383 
L 103.421228 382.806018 
L 106.586376 376.772409 
L 109.751525 355.185509 
L 112.916673 366.984563 
L 116.081822 368.593522 
L 119.24697 374.493049 
L 122.412119 394.739148 
L 125.577267 401.711313 
L 128.742416 413.288233 
L 131.907564 327.241035 
L 135.072713 350.684323 
L 138.237861 395.280461 
L 141.40301 435.565189 
L 144.568158 437.778869 
L 147.733307 409.487961 
L 150.898455 410.694683 
L 154.063604 412.705884 
L 157.228752 372.884083 
L 160.393901 436.035827 
L 163.55905 443.544314 
L 166.724198 449.57792 
L 169.889347 443.007994 
L 173.054495 447.298558 
L 176.219644 449.041599 
L 179.384792 440.192311 
L 182.549941 428.125099 
L 185.715089 442.471673 
L 188.880238 440.728631 
L 192.045386 441.667192 
L 195.210535 446.494077 
L 198.375683 436.974387 
L 201.540832 429.33182 
L 204.70598 434.829105 
L 207.871129 441.264952 
L 211.036277 444.482875 
L 214.201426 448.505279 
L 217.366574 440.862712 
L 220.531723 448.505279 
L 223.696871 444.214715 
L 226.86202 445.957756 
L 230.027168 446.762237 
L 233.192317 442.069433 
L 236.357465 445.019195 
L 239.522614 445.823676 
L 242.687762 441.801272 
L 245.852911 443.946554 
L 249.018059 446.359997 
L 252.183208 443.941129 
L 255.348356 441.880104 
L 258.513505 432.092199 
L 261.678653 423.056072 
L 264.843802 436.796242 
L 268.00895 444.616955 
L 271.174099 436.438067 
L 274.339248 444.482875 
L 277.504396 435.097266 
L 280.669545 404.795156 
L 283.834693 399.566033 
L 286.999842 413.242204 
L 290.16499 425.577577 
L 293.330139 430.910482 
L 296.495287 432.196901 
L 299.660436 386.92711 
L 302.825584 364.696405 
L 305.990733 418.589018 
L 309.155881 407.208598 
L 312.32103 439.65599 
L 315.486178 413.376284 
L 318.651327 442.203513 
L 321.816475 406.940439 
L 324.981624 405.465556 
L 328.146772 363.766637 
L 331.311921 370.068406 
L 334.477069 424.236775 
L 337.642218 379.185851 
L 340.807366 374.22489 
L 343.972515 406.672277 
L 347.137663 420.616611 
L 350.302812 416.191968 
L 353.46796 431.074862 
L 356.633109 447.566718 
L 359.798257 449.30976 
L 362.963406 446.628157 
L 366.128554 435.633587 
L 369.293703 442.069433 
L 372.458851 416.594209 
L 375.624 420.616611 
L 378.789149 433.622384 
L 381.954297 443.812474 
L 381.954297 443.812474 
" clip-path="url(#p93fe223160)" style="fill: none; stroke-dasharray: 1.5,2.475; stroke-dashoffset: 0; stroke: #af3331; stroke-width: 1.5"/>
   </g>
   <g id="PI-missed-dummy">
    <defs>
     <path id="mf195709997" d="M 0 3.9975 
C 1.060149 3.9975 2.077021 3.576298 2.826659 2.826659 
C 3.576298 2.077021 3.9975 1.060149 3.9975 0 
C 3.9975 -1.060149 3.576298 -2.077021 2.826659 -2.826659 
C 2.077021 -3.576298 1.060149 -3.9975 0 -3.9975 
C -1.060149 -3.9975 -2.077021 -3.576298 -2.826659 -2.826659 
C -3.576298 -2.077021 -3.9975 -1.060149 -3.9975 0 
C -3.9975 1.060149 -3.576298 2.077021 -2.826659 2.826659 
C -2.077021 3.576298 -1.060149 3.9975 0 3.9975 
z
" style="stroke: #595959"/>
    </defs>
    <g clip-path="url(#p93fe223160)"/>
   </g>
   <g id="patch_9">
    <path d="M 55.944 449.712 
L 55.944 283.31856 
" style="fill: none; stroke: #949494; stroke-width: 0.8; stroke-linejoin: miter; stroke-linecap: square"/>
   </g>
   <g id="patch_10">
    <path d="M 55.944 449.712 
L 375.624 449.712 
" style="fill: none; stroke: #949494; stroke-width: 0.8; stroke-linejoin: miter; stroke-linecap: square"/>
   </g>
   <g id="PI-missed-0">
    <defs>
     <path id="m057bc15d11" d="M 0 4 
C 1.060812 4 2.078319 3.578535 2.828427 2.828427 
C 3.578535 2.078319 4 1.060812 4 0 
C 4 -1.060812 3.578535 -2.078319 2.828427 -2.828427 
C 2.078319 -3.578535 1.060812 -4 0 -4 
C -1.060812 -4 -2.078319 -3.578535 -2.828427 -2.828427 
C -3.578535 -2.078319 -4 -1.060812 -4 0 
C -4 1.060812 -3.578535 2.078319 -2.828427 2.828427 
C -2.078319 3.578535 -1.060812 4 0 4 
z
" style="stroke: #595959; stroke-opacity: 0"/>
    </defs>
    <g>
     <use xlink:href="#m057bc15d11" x="144.568158" y="437.778869" style="fill-opacity: 0; stroke: #595959; stroke-opacity: 0"/>
     <use xlink:href="#m057bc15d11" x="157.228752" y="372.884083" style="fill-opacity: 0; stroke: #595959; stroke-opacity: 0"/>
     <use xlink:href="#m057bc15d11" x="160.393901" y="436.035827" style="fill-opacity: 0; stroke: #595959; stroke-opacity: 0"/>
     <use xlink:href="#m057bc15d11" x="163.55905" y="443.544314" style="fill-opacity: 0; stroke: #595959; stroke-opacity: 0"/>
     <use xlink:href="#m057bc15d11" x="176.219644" y="449.041599" style="fill-opacity: 0; stroke: #595959; stroke-opacity: 0"/>
     <use xlink:href="#m057bc15d11" x="211.036277" y="444.482875" style="fill-opacity: 0; stroke: #595959; stroke-opacity: 0"/>
     <use xlink:href="#m057bc15d11" x="214.201426" y="448.505279" style="fill-opacity: 0; stroke: #595959; stroke-opacity: 0"/>
     <use xlink:href="#m057bc15d11" x="220.531723" y="448.505279" style="fill-opacity: 0; stroke: #595959; stroke-opacity: 0"/>
     <use xlink:href="#m057bc15d11" x="280.669545" y="404.795156" style="fill-opacity: 0; stroke: #595959; stroke-opacity: 0"/>
     <use xlink:href="#m057bc15d11" x="305.990733" y="418.589018" style="fill-opacity: 0; stroke: #595959; stroke-opacity: 0"/>
     <use xlink:href="#m057bc15d11" x="312.32103" y="439.65599" style="fill-opacity: 0; stroke: #595959; stroke-opacity: 0"/>
     <use xlink:href="#m057bc15d11" x="318.651327" y="442.203513" style="fill-opacity: 0; stroke: #595959; stroke-opacity: 0"/>
     <use xlink:href="#m057bc15d11" x="337.642218" y="379.185851" style="fill-opacity: 0; stroke: #595959; stroke-opacity: 0"/>
     <use xlink:href="#m057bc15d11" x="356.633109" y="447.566718" style="fill-opacity: 0; stroke: #595959; stroke-opacity: 0"/>
    </g>
   </g>
   <g id="PI-missed-1">
    <defs>
     <path id="m430f20a165" d="M 0 4.0025 
C 1.061475 4.0025 2.079618 3.580771 2.830195 2.830195 
C 3.580771 2.079618 4.0025 1.061475 4.0025 0 
C 4.0025 -1.061475 3.580771 -2.079618 2.830195 -2.830195 
C 2.079618 -3.580771 1.061475 -4.0025 0 -4.0025 
C -1.061475 -4.0025 -2.079618 -3.580771 -2.830195 -2.830195 
C -3.580771 -2.079618 -4.0025 -1.061475 -4.0025 0 
C -4.0025 1.061475 -3.580771 2.079618 -2.830195 2.830195 
C -2.079618 3.580771 -1.061475 4.0025 0 4.0025 
z
" style="stroke: #595959; stroke-opacity: 0"/>
    </defs>
    <g>
     <use xlink:href="#m430f20a165" x="74.934891" y="378.78361" style="fill-opacity: 0; stroke: #595959; stroke-opacity: 0"/>
     <use xlink:href="#m430f20a165" x="112.916673" y="366.984563" style="fill-opacity: 0; stroke: #595959; stroke-opacity: 0"/>
     <use xlink:href="#m430f20a165" x="116.081822" y="368.593522" style="fill-opacity: 0; stroke: #595959; stroke-opacity: 0"/>
     <use xlink:href="#m430f20a165" x="141.40301" y="435.565189" style="fill-opacity: 0; stroke: #595959; stroke-opacity: 0"/>
     <use xlink:href="#m430f20a165" x="144.568158" y="437.778869" style="fill-opacity: 0; stroke: #595959; stroke-opacity: 0"/>
     <use xlink:href="#m430f20a165" x="157.228752" y="372.884083" style="fill-opacity: 0; stroke: #595959; stroke-opacity: 0"/>
     <use xlink:href="#m430f20a165" x="160.393901" y="436.035827" style="fill-opacity: 0; stroke: #595959; stroke-opacity: 0"/>
     <use xlink:href="#m430f20a165" x="163.55905" y="443.544314" style="fill-opacity: 0; stroke: #595959; stroke-opacity: 0"/>
     <use xlink:href="#m430f20a165" x="176.219644" y="449.041599" style="fill-opacity: 0; stroke: #595959; stroke-opacity: 0"/>
     <use xlink:href="#m430f20a165" x="185.715089" y="442.471673" style="fill-opacity: 0; stroke: #595959; stroke-opacity: 0"/>
     <use xlink:href="#m430f20a165" x="195.210535" y="446.494077" style="fill-opacity: 0; stroke: #595959; stroke-opacity: 0"/>
     <use xlink:href="#m430f20a165" x="207.871129" y="441.264952" style="fill-opacity: 0; stroke: #595959; stroke-opacity: 0"/>
     <use xlink:href="#m430f20a165" x="211.036277" y="444.482875" style="fill-opacity: 0; stroke: #595959; stroke-opacity: 0"/>
     <use xlink:href="#m430f20a165" x="214.201426" y="448.505279" style="fill-opacity: 0; stroke: #595959; stroke-opacity: 0"/>
     <use xlink:href="#m430f20a165" x="220.531723" y="448.505279" style="fill-opacity: 0; stroke: #595959; stroke-opacity: 0"/>
     <use xlink:href="#m430f20a165" x="258.513505" y="432.092199" style="fill-opacity: 0; stroke: #595959; stroke-opacity: 0"/>
     <use xlink:href="#m430f20a165" x="264.843802" y="436.796242" style="fill-opacity: 0; stroke: #595959; stroke-opacity: 0"/>
     <use xlink:href="#m430f20a165" x="280.669545" y="404.795156" style="fill-opacity: 0; stroke: #595959; stroke-opacity: 0"/>
     <use xlink:href="#m430f20a165" x="290.16499" y="425.577577" style="fill-opacity: 0; stroke: #595959; stroke-opacity: 0"/>
     <use xlink:href="#m430f20a165" x="299.660436" y="386.92711" style="fill-opacity: 0; stroke: #595959; stroke-opacity: 0"/>
     <use xlink:href="#m430f20a165" x="305.990733" y="418.589018" style="fill-opacity: 0; stroke: #595959; stroke-opacity: 0"/>
     <use xlink:href="#m430f20a165" x="318.651327" y="442.203513" style="fill-opacity: 0; stroke: #595959; stroke-opacity: 0"/>
     <use xlink:href="#m430f20a165" x="337.642218" y="379.185851" style="fill-opacity: 0; stroke: #595959; stroke-opacity: 0"/>
     <use xlink:href="#m430f20a165" x="353.46796" y="431.074862" style="fill-opacity: 0; stroke: #595959; stroke-opacity: 0"/>
     <use xlink:href="#m430f20a165" x="356.633109" y="447.566718" style="fill-opacity: 0; stroke: #595959; stroke-opacity: 0"/>
     <use xlink:href="#m430f20a165" x="366.128554" y="435.633587" style="fill-opacity: 0; stroke: #595959; stroke-opacity: 0"/>
     <use xlink:href="#m430f20a165" x="369.293703" y="442.069433" style="fill-opacity: 0; stroke: #595959; stroke-opacity: 0"/>
     <use xlink:href="#m430f20a165" x="372.458851" y="416.594209" style="fill-opacity: 0; stroke: #595959; stroke-opacity: 0"/>
    </g>
   </g>
   <g id="PI-missed-2">
    <defs>
     <path id="mfff15caa0c" d="M 0 4.005 
C 1.062138 4.005 2.080917 3.583008 2.831963 2.831963 
C 3.583008 2.080917 4.005 1.062138 4.005 0 
C 4.005 -1.062138 3.583008 -2.080917 2.831963 -2.831963 
C 2.080917 -3.583008 1.062138 -4.005 0 -4.005 
C -1.062138 -4.005 -2.080917 -3.583008 -2.831963 -2.831963 
C -3.583008 -2.080917 -4.005 -1.062138 -4.005 0 
C -4.005 1.062138 -3.583008 2.080917 -2.831963 2.831963 
C -2.080917 3.583008 -1.062138 4.005 0 4.005 
z
" style="stroke: #595959; stroke-opacity: 0"/>
    </defs>
    <g>
     <use xlink:href="#mfff15caa0c" x="65.439446" y="374.358966" style="fill-opacity: 0; stroke: #595959; stroke-opacity: 0"/>
     <use xlink:href="#mfff15caa0c" x="74.934891" y="378.78361" style="fill-opacity: 0; stroke: #595959; stroke-opacity: 0"/>
     <use xlink:href="#mfff15caa0c" x="78.10004" y="370.604723" style="fill-opacity: 0; stroke: #595959; stroke-opacity: 0"/>
     <use xlink:href="#mfff15caa0c" x="81.265188" y="368.995764" style="fill-opacity: 0; stroke: #595959; stroke-opacity: 0"/>
     <use xlink:href="#mfff15caa0c" x="106.586376" y="376.772409" style="fill-opacity: 0; stroke: #595959; stroke-opacity: 0"/>
     <use xlink:href="#mfff15caa0c" x="112.916673" y="366.984563" style="fill-opacity: 0; stroke: #595959; stroke-opacity: 0"/>
     <use xlink:href="#mfff15caa0c" x="116.081822" y="368.593522" style="fill-opacity: 0; stroke: #595959; stroke-opacity: 0"/>
     <use xlink:href="#mfff15caa0c" x="122.412119" y="394.739148" style="fill-opacity: 0; stroke: #595959; stroke-opacity: 0"/>
     <use xlink:href="#mfff15caa0c" x="128.742416" y="413.288233" style="fill-opacity: 0; stroke: #595959; stroke-opacity: 0"/>
     <use xlink:href="#mfff15caa0c" x="141.40301" y="435.565189" style="fill-opacity: 0; stroke: #595959; stroke-opacity: 0"/>
     <use xlink:href="#mfff15caa0c" x="144.568158" y="437.778869" style="fill-opacity: 0; stroke: #595959; stroke-opacity: 0"/>
     <use xlink:href="#mfff15caa0c" x="147.733307" y="409.487961" style="fill-opacity: 0; stroke: #595959; stroke-opacity: 0"/>
     <use xlink:href="#mfff15caa0c" x="157.228752" y="372.884083" style="fill-opacity: 0; stroke: #595959; stroke-opacity: 0"/>
     <use xlink:href="#mfff15caa0c" x="160.393901" y="436.035827" style="fill-opacity: 0; stroke: #595959; stroke-opacity: 0"/>
     <use xlink:href="#mfff15caa0c" x="163.55905" y="443.544314" style="fill-opacity: 0; stroke: #595959; stroke-opacity: 0"/>
     <use xlink:href="#mfff15caa0c" x="176.219644" y="449.041599" style="fill-opacity: 0; stroke: #595959; stroke-opacity: 0"/>
     <use xlink:href="#mfff15caa0c" x="185.715089" y="442.471673" style="fill-opacity: 0; stroke: #595959; stroke-opacity: 0"/>
     <use xlink:href="#mfff15caa0c" x="192.045386" y="441.667192" style="fill-opacity: 0; stroke: #595959; stroke-opacity: 0"/>
     <use xlink:href="#mfff15caa0c" x="195.210535" y="446.494077" style="fill-opacity: 0; stroke: #595959; stroke-opacity: 0"/>
     <use xlink:href="#mfff15caa0c" x="201.540832" y="429.33182" style="fill-opacity: 0; stroke: #595959; stroke-opacity: 0"/>
     <use xlink:href="#mfff15caa0c" x="204.70598" y="434.829105" style="fill-opacity: 0; stroke: #595959; stroke-opacity: 0"/>
     <use xlink:href="#mfff15caa0c" x="207.871129" y="441.264952" style="fill-opacity: 0; stroke: #595959; stroke-opacity: 0"/>
     <use xlink:href="#mfff15caa0c" x="211.036277" y="444.482875" style="fill-opacity: 0; stroke: #595959; stroke-opacity: 0"/>
     <use xlink:href="#mfff15caa0c" x="214.201426" y="448.505279" style="fill-opacity: 0; stroke: #595959; stroke-opacity: 0"/>
     <use xlink:href="#mfff15caa0c" x="220.531723" y="448.505279" style="fill-opacity: 0; stroke: #595959; stroke-opacity: 0"/>
     <use xlink:href="#mfff15caa0c" x="223.696871" y="444.214715" style="fill-opacity: 0; stroke: #595959; stroke-opacity: 0"/>
     <use xlink:href="#mfff15caa0c" x="226.86202" y="445.957756" style="fill-opacity: 0; stroke: #595959; stroke-opacity: 0"/>
     <use xlink:href="#mfff15caa0c" x="230.027168" y="446.762237" style="fill-opacity: 0; stroke: #595959; stroke-opacity: 0"/>
     <use xlink:href="#mfff15caa0c" x="233.192317" y="442.069433" style="fill-opacity: 0; stroke: #595959; stroke-opacity: 0"/>
     <use xlink:href="#mfff15caa0c" x="249.018059" y="446.359997" style="fill-opacity: 0; stroke: #595959; stroke-opacity: 0"/>
     <use xlink:href="#mfff15caa0c" x="252.183208" y="443.941129" style="fill-opacity: 0; stroke: #595959; stroke-opacity: 0"/>
     <use xlink:href="#mfff15caa0c" x="258.513505" y="432.092199" style="fill-opacity: 0; stroke: #595959; stroke-opacity: 0"/>
     <use xlink:href="#mfff15caa0c" x="264.843802" y="436.796242" style="fill-opacity: 0; stroke: #595959; stroke-opacity: 0"/>
     <use xlink:href="#mfff15caa0c" x="271.174099" y="436.438067" style="fill-opacity: 0; stroke: #595959; stroke-opacity: 0"/>
     <use xlink:href="#mfff15caa0c" x="277.504396" y="435.097266" style="fill-opacity: 0; stroke: #595959; stroke-opacity: 0"/>
     <use xlink:href="#mfff15caa0c" x="280.669545" y="404.795156" style="fill-opacity: 0; stroke: #595959; stroke-opacity: 0"/>
     <use xlink:href="#mfff15caa0c" x="290.16499" y="425.577577" style="fill-opacity: 0; stroke: #595959; stroke-opacity: 0"/>
     <use xlink:href="#mfff15caa0c" x="296.495287" y="432.196901" style="fill-opacity: 0; stroke: #595959; stroke-opacity: 0"/>
     <use xlink:href="#mfff15caa0c" x="299.660436" y="386.92711" style="fill-opacity: 0; stroke: #595959; stroke-opacity: 0"/>
     <use xlink:href="#mfff15caa0c" x="305.990733" y="418.589018" style="fill-opacity: 0; stroke: #595959; stroke-opacity: 0"/>
     <use xlink:href="#mfff15caa0c" x="309.155881" y="407.208598" style="fill-opacity: 0; stroke: #595959; stroke-opacity: 0"/>
     <use xlink:href="#mfff15caa0c" x="312.32103" y="439.65599" style="fill-opacity: 0; stroke: #595959; stroke-opacity: 0"/>
     <use xlink:href="#mfff15caa0c" x="315.486178" y="413.376284" style="fill-opacity: 0; stroke: #595959; stroke-opacity: 0"/>
     <use xlink:href="#mfff15caa0c" x="318.651327" y="442.203513" style="fill-opacity: 0; stroke: #595959; stroke-opacity: 0"/>
     <use xlink:href="#mfff15caa0c" x="321.816475" y="406.940439" style="fill-opacity: 0; stroke: #595959; stroke-opacity: 0"/>
     <use xlink:href="#mfff15caa0c" x="324.981624" y="405.465556" style="fill-opacity: 0; stroke: #595959; stroke-opacity: 0"/>
     <use xlink:href="#mfff15caa0c" x="334.477069" y="424.236775" style="fill-opacity: 0; stroke: #595959; stroke-opacity: 0"/>
     <use xlink:href="#mfff15caa0c" x="337.642218" y="379.185851" style="fill-opacity: 0; stroke: #595959; stroke-opacity: 0"/>
     <use xlink:href="#mfff15caa0c" x="343.972515" y="406.672277" style="fill-opacity: 0; stroke: #595959; stroke-opacity: 0"/>
     <use xlink:href="#mfff15caa0c" x="353.46796" y="431.074862" style="fill-opacity: 0; stroke: #595959; stroke-opacity: 0"/>
     <use xlink:href="#mfff15caa0c" x="356.633109" y="447.566718" style="fill-opacity: 0; stroke: #595959; stroke-opacity: 0"/>
     <use xlink:href="#mfff15caa0c" x="359.798257" y="449.30976" style="fill-opacity: 0; stroke: #595959; stroke-opacity: 0"/>
     <use xlink:href="#mfff15caa0c" x="366.128554" y="435.633587" style="fill-opacity: 0; stroke: #595959; stroke-opacity: 0"/>
     <use xlink:href="#mfff15caa0c" x="369.293703" y="442.069433" style="fill-opacity: 0; stroke: #595959; stroke-opacity: 0"/>
     <use xlink:href="#mfff15caa0c" x="372.458851" y="416.594209" style="fill-opacity: 0; stroke: #595959; stroke-opacity: 0"/>
     <use xlink:href="#mfff15caa0c" x="375.624" y="420.616611" style="fill-opacity: 0; stroke: #595959; stroke-opacity: 0"/>
    </g>
   </g>
   <g id="text_17">
    <text style="font-weight: 800; font-size: 20px; font-family: 'Source Sans 3', sans-serif; text-anchor: start" x="55.944" y="277.31856" transform="rotate(-0 55.944 277.31856)">Streamflow percentile</text>
   </g>
   <g id="legend-pi">
    <g id="patch_11">
     <path d="M 67.144 319.22356 
L 392.164 319.22356 
Q 395.364 319.22356 395.364 316.02356 
L 395.364 294.51856 
Q 395.364 291.31856 392.164 291.31856 
L 67.144 291.31856 
Q 63.944 291.31856 63.944 294.51856 
L 63.944 316.02356 
Q 63.944 319.22356 67.144 319.22356 
L 67.144 319.22356 
z
" style="fill: none; opacity: 0.8"/>
    </g>
    <g id="line2d_21">
     <path d="M 70.344 303.67106 
L 86.344 303.67106 
L 102.344 303.67106 
" style="fill: none; stroke-dasharray: 1.5,2.475; stroke-dashoffset: 0; stroke: #af3331; stroke-width: 1.5"/>
    </g>
    <g id="text_18">
     <text style="font-weight: 300; font-size: 16px; font-family: 'Source Sans 3', sans-serif; text-anchor: start; fill: #494949" x="115.144" y="309.27106" transform="rotate(-0 115.144 309.27106)">Observations</text>
    </g>
    <g id="line2d_22">
     <g>
      <use xlink:href="#mf195709997" x="247.3015" y="303.67106" style="fill-opacity: 0; stroke: #595959"/>
     </g>
    </g>
    <g id="text_19">
     <text style="font-weight: 300; font-size: 16px; font-family: 'Source Sans 3', sans-serif; text-anchor: start; fill: #494949" x="276.1015" y="309.27106" transform="rotate(-0 276.1015 309.27106)">Missed Prediction</text>
    </g>
   </g>
   <g id="legend-pi">
    <g id="patch_12">
     <path d="M 67.144 319.22356 
L 392.164 319.22356 
Q 395.364 319.22356 395.364 316.02356 
L 395.364 294.51856 
Q 395.364 291.31856 392.164 291.31856 
L 67.144 291.31856 
Q 63.944 291.31856 63.944 294.51856 
L 63.944 316.02356 
Q 63.944 319.22356 67.144 319.22356 
L 67.144 319.22356 
z
" style="fill: none; opacity: 0.8"/>
    </g>
    <g id="line2d_23">
     <path d="M 70.344 303.67106 
L 86.344 303.67106 
L 102.344 303.67106 
" style="fill: none; stroke-dasharray: 1.5,2.475; stroke-dashoffset: 0; stroke: #af3331; stroke-width: 1.5"/>
    </g>
    <g id="text_20">
     <text style="font-weight: 300; font-size: 16px; font-family: 'Source Sans 3', sans-serif; text-anchor: start; fill: #494949" x="115.144" y="309.27106" transform="rotate(-0 115.144 309.27106)">Observations</text>
    </g>
    <g id="line2d_24">
     <g>
      <use xlink:href="#mf195709997" x="247.3015" y="303.67106" style="fill-opacity: 0; stroke: #595959"/>
     </g>
    </g>
    <g id="text_21">
     <text style="font-weight: 300; font-size: 16px; font-family: 'Source Sans 3', sans-serif; text-anchor: start; fill: #494949" x="276.1015" y="309.27106" transform="rotate(-0 276.1015 309.27106)">Missed Prediction</text>
    </g>
   </g>
  </g>
 </g>
 <defs>
  <clipPath id="pc9bcd4d515">
   <rect x="55.944" y="33.47856" width="319.68" height="166.39344"/>
  </clipPath>
  <clipPath id="p93fe223160">
   <rect x="55.944" y="283.31856" width="319.68" height="166.39344"/>
  </clipPath>
 </defs>
</svg>
