<?xml version="1.0" encoding="utf-8" standalone="no"?>
<!DOCTYPE svg PUBLIC "-//W3C//DTD SVG 1.1//EN"
  "http://www.w3.org/Graphics/SVG/1.1/DTD/svg11.dtd">
<svg xmlns:xlink="http://www.w3.org/1999/xlink" width="699.84px" height="699.84px" viewBox="0 0 699.84 699.84" xmlns="http://www.w3.org/2000/svg" version="1.1">
  <defs>
  <style type="text/css">*{stroke-linejoin: round; stroke-linecap: butt}</style>
 </defs>
 <g id="figure-predictioninterval">
  <g id="patch_1">
   <path d="M 0 699.84 
L 699.84 699.84 
L 699.84 0 
L 0 0 
z
" style="fill: #ffffff"/>
  </g>
  <g id="axis-predictioninterval1">
   <g id="patch_2">
    <path d="M 87.48 297.432 
L 664.848 297.432 
L 664.848 34.992 
L 87.48 34.992 
z
" style="fill: #ffffff"/>
   </g>
   <g id="LF-LOWER-MEDIAN">
    <path d="M 87.48 166.212 
L 376.164 297.432 
L 664.848 166.212 
" clip-path="url(#p0287ec4299)" style="fill: none; stroke: #00264c; stroke-opacity: 0; stroke-width: 1.5; stroke-linecap: square"/>
   </g>
   <g id="matplotlib.axis_1">
    <g id="xtick_1">
     <g id="line2d_1">
      <defs>
       <path id="mc15fc9341b" d="M 0 0 
L 0 3.5 
" style="stroke: #949494; stroke-width: 0.8"/>
      </defs>
      <g>
       <use xlink:href="#mc15fc9341b" x="87.48" y="297.432" style="fill: #949494; stroke: #949494; stroke-width: 0.8"/>
      </g>
     </g>
     <g id="text_1">
      <text style="font-weight: 300; font-size: 16px; font-family: 'Source Sans 3', sans-serif; text-anchor: middle; fill: #494949" x="87.48" y="315.9845" transform="rotate(-0 87.48 315.9845)">Lower</text>
     </g>
    </g>
    <g id="xtick_2">
     <g id="line2d_2">
      <g>
       <use xlink:href="#mc15fc9341b" x="376.164" y="297.432" style="fill: #949494; stroke: #949494; stroke-width: 0.8"/>
      </g>
     </g>
     <g id="text_2">
      <text style="font-weight: 300; font-size: 16px; font-family: 'Source Sans 3', sans-serif; text-anchor: middle; fill: #494949" x="376.164" y="315.9845" transform="rotate(-0 376.164 315.9845)">Median</text>
     </g>
    </g>
    <g id="xtick_3">
     <g id="line2d_3">
      <g>
       <use xlink:href="#mc15fc9341b" x="664.848" y="297.432" style="fill: #949494; stroke: #949494; stroke-width: 0.8"/>
      </g>
     </g>
     <g id="text_3">
      <text style="font-weight: 300; font-size: 16px; font-family: 'Source Sans 3', sans-serif; text-anchor: middle; fill: #494949" x="664.848" y="315.9845" transform="rotate(-0 664.848 315.9845)">Upper</text>
     </g>
    </g>
    <g id="text_4">
     <text style="font-weight: 600; font-size: 16px; font-family: 'Source Sans 3', sans-serif; text-anchor: middle; fill: #494949" x="376.164" y="335.0895" transform="rotate(-0 376.164 335.0895)">Estimate</text>
    </g>
   </g>
   <g id="matplotlib.axis_2">
    <g id="ytick_1">
     <g id="line2d_4">
      <defs>
       <path id="md7e0d66f83" d="M 0 0 
L -3.5 0 
" style="stroke: #949494; stroke-width: 0.8"/>
      </defs>
      <g>
       <use xlink:href="#md7e0d66f83" x="87.48" y="297.432" style="fill: #949494; stroke: #949494; stroke-width: 0.8"/>
      </g>
     </g>
     <g id="text_5">
      <text style="font-weight: 300; font-size: 16px; font-family: 'Source Sans 3', sans-serif; fill: #494949" transform="translate(52.6725 286.948)">Less</text>
      <text style="font-weight: 300; font-size: 16px; font-family: 'Source Sans 3', sans-serif; fill: #494949" transform="translate(32.6725 304.3635)">Penalty</text>
      <text style="font-weight: 300; font-size: 16px; font-family: 'Source Sans 3', sans-serif; fill: #494949" transform="translate(80.48 321.779)"/>
     </g>
    </g>
    <g id="ytick_2">
     <g id="line2d_5">
      <g>
       <use xlink:href="#md7e0d66f83" x="87.48" y="166.212" style="fill: #949494; stroke: #949494; stroke-width: 0.8"/>
      </g>
     </g>
    </g>
    <g id="ytick_3">
     <g id="line2d_6">
      <g>
       <use xlink:href="#md7e0d66f83" x="87.48" y="34.992" style="fill: #949494; stroke: #949494; stroke-width: 0.8"/>
      </g>
     </g>
     <g id="text_6">
      <text style="font-weight: 300; font-size: 16px; font-family: 'Source Sans 3', sans-serif; fill: #494949" transform="translate(48.2575 33.21575)">More</text>
      <text style="font-weight: 300; font-size: 16px; font-family: 'Source Sans 3', sans-serif; fill: #494949" transform="translate(32.6725 50.63125)">Penalty</text>
     </g>
    </g>
   </g>
   <g id="LF-LOWER-0">
    <path d="M 87.48 284.31 
L 376.164 297.432 
L 664.848 48.114 
" clip-path="url(#p0287ec4299)" style="fill: none; stroke: #b78935; stroke-opacity: 0; stroke-width: 1.5; stroke-linecap: square"/>
   </g>
   <g id="LF-UPPER-0">
    <path d="M 87.48 48.114 
L 376.164 297.432 
L 664.848 284.31 
" clip-path="url(#p0287ec4299)" style="fill: none; stroke: #406992; stroke-opacity: 0; stroke-width: 1.5; stroke-linecap: square"/>
   </g>
   <g id="LF-LOWER-1">
    <path d="M 87.48 264.627 
L 376.164 297.432 
L 664.848 67.797 
" clip-path="url(#p0287ec4299)" style="fill: none; stroke: #b78935; stroke-opacity: 0; stroke-width: 1.5; stroke-linecap: square"/>
   </g>
   <g id="LF-UPPER-1">
    <path d="M 87.48 67.797 
L 376.164 297.432 
L 664.848 264.627 
" clip-path="url(#p0287ec4299)" style="fill: none; stroke: #406992; stroke-opacity: 0; stroke-width: 1.5; stroke-linecap: square"/>
   </g>
   <g id="LF-LOWER-2">
    <path d="M 87.48 231.822 
L 376.164 297.432 
L 664.848 100.602 
" clip-path="url(#p0287ec4299)" style="fill: none; stroke: #b78935; stroke-opacity: 0; stroke-width: 1.5; stroke-linecap: square"/>
   </g>
   <g id="LF-UPPER-2">
    <path d="M 87.48 100.602 
L 376.164 297.432 
L 664.848 231.822 
" clip-path="url(#p0287ec4299)" style="fill: none; stroke: #406992; stroke-opacity: 0; stroke-width: 1.5; stroke-linecap: square"/>
   </g>
   <g id="patch_3">
    <path d="M 87.48 297.432 
L 87.48 34.992 
" style="fill: none; stroke: #949494; stroke-width: 0.8; stroke-linejoin: miter; stroke-linecap: square"/>
   </g>
   <g id="patch_4">
    <path d="M 87.48 297.432 
L 664.848 297.432 
" style="fill: none; stroke: #949494; stroke-width: 0.8; stroke-linejoin: miter; stroke-linecap: square"/>
   </g>
   <g id="text_7">
    <text style="font-weight: 800; font-size: 20px; font-family: 'Source Sans 3', sans-serif; text-anchor: start" x="87.48" y="28.992" transform="rotate(-0 87.48 28.992)">Loss function</text>
   </g>
  </g>
  <g id="axis-predictioninterval2">
   <g id="patch_5">
    <path d="M 87.48 647.352 
L 664.848 647.352 
L 664.848 384.912 
L 87.48 384.912 
z
" style="fill: #ffffff"/>
   </g>
   <g id="PI-PATCH-0">
    <path d="M 87.48 563.292862 
L 87.48 619.717987 
L 93.196515 609.929507 
L 98.91303 623.762979 
L 104.629545 621.466274 
L 110.346059 619.651672 
L 116.062574 625.262974 
L 121.779089 624.702762 
L 127.495604 621.27003 
L 133.212119 620.913969 
L 138.928634 625.153958 
L 144.645149 631.252938 
L 150.361663 626.715228 
L 156.078178 634.784026 
L 161.794693 627.811526 
L 167.511208 625.628806 
L 173.227723 632.107382 
L 178.944238 620.021249 
L 184.660752 620.921978 
L 190.377267 629.042995 
L 196.093782 628.583936 
L 201.810297 621.441419 
L 207.526812 621.520217 
L 213.243327 614.904381 
L 218.959842 617.135755 
L 224.676356 622.860381 
L 230.392871 620.526707 
L 236.109386 624.7564 
L 241.825901 628.191964 
L 247.542416 638.728553 
L 253.258931 637.924565 
L 258.975446 625.55413 
L 264.69196 626.278251 
L 270.408475 616.461697 
L 276.12499 611.887808 
L 281.841505 637.946077 
L 287.55802 647.352 
L 293.274535 647.352 
L 298.99105 647.352 
L 304.707564 647.352 
L 310.424079 647.352 
L 316.140594 639.592371 
L 321.857109 638.757038 
L 327.573624 647.352 
L 333.290139 644.082541 
L 339.006653 645.537223 
L 344.723168 647.352 
L 350.439683 643.907886 
L 356.156198 636.527934 
L 361.872713 639.734298 
L 367.589228 641.750004 
L 373.305743 646.623512 
L 379.022257 647.352 
L 384.738772 647.352 
L 390.455287 647.352 
L 396.171802 647.294976 
L 401.888317 647.352 
L 407.604832 645.852761 
L 413.321347 647.352 
L 419.037861 647.352 
L 424.754376 643.965881 
L 430.470891 647.352 
L 436.187406 644.585131 
L 441.903921 647.352 
L 447.620436 647.352 
L 453.33695 647.352 
L 459.053465 633.944593 
L 464.76998 632.487585 
L 470.486495 646.826733 
L 476.20301 647.352 
L 481.919525 645.830359 
L 487.63604 647.352 
L 493.352554 641.952999 
L 499.069069 619.214715 
L 504.785584 620.471582 
L 510.502099 622.182364 
L 516.218614 637.749439 
L 521.935129 644.262159 
L 527.651644 634.120573 
L 533.368158 618.329386 
L 539.084673 618.898378 
L 544.801188 637.446854 
L 550.517703 625.685808 
L 556.234218 644.518046 
L 561.950733 625.453321 
L 567.667248 644.891257 
L 573.383762 614.37826 
L 579.100277 619.525863 
L 584.816792 603.474121 
L 590.533307 613.495794 
L 596.249822 629.156808 
L 601.966337 610.764852 
L 607.682851 612.372963 
L 613.399366 616.235817 
L 619.115881 624.031915 
L 624.832396 620.297786 
L 630.548911 634.569393 
L 636.265426 647.352 
L 641.981941 647.352 
L 647.698455 647.352 
L 653.41497 642.98396 
L 659.131485 642.900003 
L 664.848 623.489263 
L 670.564515 633.582995 
L 676.28103 642.776334 
L 681.997545 647.052166 
L 5455.287446 621.101363 
L 5461.00396 616.193317 
L 5466.720475 622.905352 
L 5472.43699 621.451695 
L 5478.153505 619.828044 
L 5483.87002 617.420451 
L 5489.586535 621.813601 
L 5495.30305 616.02738 
L 5501.019564 620.874311 
L 5506.736079 631.45368 
L 5512.452594 619.366816 
L 5518.169109 621.574526 
L 5523.885624 635.688624 
L 5529.602139 629.274256 
L 5535.318653 619.213776 
L 5541.035168 618.360604 
L 5546.751683 632.618698 
L 5552.468198 629.820505 
L 5558.184713 634.585939 
L 5563.901228 632.107674 
L 5569.617743 636.394586 
L 5575.334257 624.565067 
L 5581.050772 619.483836 
L 5586.767287 613.765411 
L 5592.483802 613.908295 
L 5598.200317 622.081233 
L 5603.916832 618.06214 
L 5609.633347 621.987842 
L 5615.349861 625.482461 
L 5621.066376 617.313445 
L 5626.782891 621.033856 
L 5632.499406 627.801422 
L 5638.215921 611.683578 
L 5643.932436 621.570294 
L 5649.64895 619.59423 
L 5655.365465 606.272452 
L 5661.08198 607.725596 
L 5666.798495 611.720327 
L 5672.51501 613.343287 
L 5678.231525 612.990307 
L 5683.94804 619.696108 
L 5689.664554 622.912926 
L 5695.381069 620.670487 
L 5701.097584 615.320225 
L 5706.814099 617.204215 
L 5712.530614 621.01911 
L 5718.247129 622.815894 
L 5723.963644 615.695806 
L 5729.680158 610.998853 
L 5735.396673 614.352128 
L 5741.113188 620.530794 
L 5746.829703 610.665602 
L 5752.546218 622.06559 
L 5758.262733 628.882982 
L 5763.979248 619.934063 
L 5769.695762 623.127748 
L 5775.412277 625.499641 
L 5781.128792 613.955105 
L 5786.845307 619.576808 
L 5792.561822 619.222483 
L 5798.278337 625.530022 
L 5803.994851 625.853455 
L 5809.711366 620.795988 
L 5815.427881 629.958382 
L 5821.144396 625.564979 
L 5826.860911 628.093875 
L 5832.577426 597.642984 
L 5838.293941 605.998273 
L 5844.010455 604.589209 
L 5849.72697 603.69877 
L 5855.443485 604.726464 
L 5861.16 623.808481 
L 5866.876515 624.944152 
L 5872.59303 629.499417 
L 5878.309545 622.754399 
L 5884.026059 611.822963 
L 5889.742574 611.443722 
L 5895.459089 615.414023 
L 5901.175604 610.321722 
L 5901.175604 547.326804 
L 5901.175604 547.326804 
L 5895.459089 540.165437 
L 5889.742574 544.231493 
L 5884.026059 553.78666 
L 5878.309545 562.654782 
L 5872.59303 567.684144 
L 5866.876515 563.521244 
L 5861.16 563.486911 
L 5855.443485 545.575849 
L 5849.72697 544.868792 
L 5844.010455 546.019539 
L 5838.293941 544.741318 
L 5832.577426 537.427058 
L 5826.860911 560.548266 
L 5821.144396 565.768123 
L 5815.427881 558.340646 
L 5809.711366 549.262567 
L 5803.994851 565.305767 
L 5798.278337 556.693018 
L 5792.561822 553.383565 
L 5786.845307 552.854418 
L 5781.128792 553.187214 
L 5775.412277 556.600493 
L 5769.695762 556.326635 
L 5763.979248 554.978314 
L 5758.262733 559.242914 
L 5752.546218 556.671994 
L 5746.829703 553.366736 
L 5741.113188 564.269839 
L 5735.396673 552.500069 
L 5729.680158 556.98714 
L 5723.963644 558.886562 
L 5718.247129 558.638832 
L 5712.530614 559.582847 
L 5706.814099 559.15086 
L 5701.097584 558.374705 
L 5695.381069 559.485948 
L 5689.664554 558.110236 
L 5683.94804 555.564185 
L 5678.231525 556.530865 
L 5672.51501 557.204485 
L 5666.798495 554.658894 
L 5661.08198 552.148712 
L 5655.365465 556.449353 
L 5649.64895 566.958436 
L 5643.932436 556.788836 
L 5638.215921 552.457961 
L 5632.499406 571.338781 
L 5626.782891 552.994917 
L 5621.066376 549.460761 
L 5615.349861 544.204963 
L 5609.633347 541.785414 
L 5603.916832 551.462699 
L 5598.200317 567.244248 
L 5592.483802 560.660282 
L 5586.767287 558.757066 
L 5581.050772 555.935253 
L 5575.334257 560.669403 
L 5569.617743 560.443037 
L 5563.901228 557.087923 
L 5558.184713 561.577937 
L 5552.468198 554.528687 
L 5546.751683 559.937217 
L 5541.035168 550.90515 
L 5535.318653 551.594607 
L 5529.602139 558.470453 
L 5523.885624 559.004375 
L 5518.169109 552.573792 
L 5512.452594 548.190328 
L 5506.736079 561.735876 
L 5501.019564 556.58835 
L 5495.30305 551.397795 
L 5489.586535 557.417515 
L 5483.87002 557.557923 
L 5478.153505 566.797895 
L 5472.43699 569.372183 
L 5466.720475 571.15118 
L 5461.00396 563.831574 
L 5455.287446 567.622996 
L 681.997545 595.098214 
L 676.28103 592.397959 
L 670.564515 583.313688 
L 664.848 573.450078 
L 659.131485 592.311216 
L 653.41497 595.126836 
L 647.698455 603.947025 
L 641.981941 606.258957 
L 636.265426 599.551762 
L 630.548911 587.908175 
L 624.832396 576.829184 
L 619.115881 579.184661 
L 613.399366 571.052954 
L 607.682851 561.609393 
L 601.966337 558.81367 
L 596.249822 580.26588 
L 590.533307 562.984514 
L 584.816792 546.971123 
L 579.100277 570.962637 
L 573.383762 560.302599 
L 567.667248 588.886929 
L 561.950733 570.136145 
L 556.234218 587.578988 
L 550.517703 570.729149 
L 544.801188 579.857164 
L 539.084673 550.551801 
L 533.368158 559.660044 
L 527.651644 578.464493 
L 521.935129 590.394609 
L 516.218614 582.711869 
L 510.502099 567.829974 
L 504.785584 566.666957 
L 499.069069 565.221061 
L 493.352554 590.073387 
L 487.63604 596.585056 
L 481.919525 589.854955 
L 476.20301 590.752608 
L 470.486495 591.640765 
L 464.76998 579.616157 
L 459.053465 579.972099 
L 453.33695 597.526813 
L 447.620436 594.80179 
L 441.903921 598.517771 
L 436.187406 588.441812 
L 430.470891 592.915447 
L 424.754376 589.857433 
L 419.037861 595.91468 
L 413.321347 597.512717 
L 407.604832 592.502932 
L 401.888317 597.073237 
L 396.171802 593.954499 
L 390.455287 596.651746 
L 384.738772 599.74052 
L 379.022257 603.325709 
L 373.305743 595.055361 
L 367.589228 590.726759 
L 361.872713 590.802004 
L 356.156198 589.355702 
L 350.439683 596.095324 
L 344.723168 599.908289 
L 339.006653 597.330557 
L 333.290139 596.994723 
L 327.573624 600.744778 
L 321.857109 592.582101 
L 316.140594 590.410417 
L 310.424079 606.427898 
L 304.707564 601.183818 
L 298.99105 603.483352 
L 293.274535 598.786144 
L 287.55802 604.149883 
L 281.841505 588.577535 
L 276.12499 560.667811 
L 270.408475 569.070538 
L 264.69196 576.602719 
L 258.975446 569.880707 
L 253.258931 580.836989 
L 247.542416 581.210095 
L 241.825901 569.327703 
L 236.109386 554.647771 
L 230.392871 544.339625 
L 224.676356 568.437399 
L 218.959842 562.447688 
L 213.243327 557.800877 
L 207.526812 555.626215 
L 201.810297 551.807007 
L 196.093782 558.777279 
L 190.377267 555.519514 
L 184.660752 555.3388 
L 178.944238 554.892487 
L 173.227723 558.211841 
L 167.511208 551.600024 
L 161.794693 554.697077 
L 156.078178 556.903095 
L 150.361663 559.411304 
L 144.645149 557.886814 
L 138.928634 555.907242 
L 133.212119 552.071065 
L 127.495604 555.115449 
L 121.779089 561.734414 
L 116.062574 559.383853 
L 110.346059 553.72492 
L 104.629545 557.651989 
L 98.91303 557.69644 
L 93.196515 551.866524 
L 87.48 563.292862 
z
" clip-path="url(#pbb26fe7f4b)" style="fill: #e6e6e6; fill-opacity: 0.00001"/>
   </g>
   <g id="PI-PATCH-LOWER-0">
    <path d="M 87.48 619.717987 
L 93.196515 609.929507 
L 98.91303 623.762979 
L 104.629545 621.466274 
L 110.346059 619.651672 
L 116.062574 625.262974 
L 121.779089 624.702762 
L 127.495604 621.27003 
L 133.212119 620.913969 
L 138.928634 625.153958 
L 144.645149 631.252938 
L 150.361663 626.715228 
L 156.078178 634.784026 
L 161.794693 627.811526 
L 167.511208 625.628806 
L 173.227723 632.107382 
L 178.944238 620.021249 
L 184.660752 620.921978 
L 190.377267 629.042995 
L 196.093782 628.583936 
L 201.810297 621.441419 
L 207.526812 621.520217 
L 213.243327 614.904381 
L 218.959842 617.135755 
L 224.676356 622.860381 
L 230.392871 620.526707 
L 236.109386 624.7564 
L 241.825901 628.191964 
L 247.542416 638.728553 
L 253.258931 637.924565 
L 258.975446 625.55413 
L 264.69196 626.278251 
L 270.408475 616.461697 
L 276.12499 611.887808 
L 281.841505 637.946077 
L 287.55802 647.352 
L 310.424079 647.352 
L 316.140594 639.592371 
L 321.857109 638.757038 
L 327.573624 647.352 
L 333.290139 644.082541 
L 339.006653 645.537223 
L 344.723168 647.352 
L 350.439683 643.907886 
L 356.156198 636.527934 
L 361.872713 639.734298 
L 367.589228 641.750004 
L 373.305743 646.623512 
L 379.022257 647.352 
L 401.888317 647.352 
L 407.604832 645.852761 
L 413.321347 647.352 
L 419.037861 647.352 
L 424.754376 643.965881 
L 430.470891 647.352 
L 436.187406 644.585131 
L 441.903921 647.352 
L 453.33695 647.352 
L 459.053465 633.944593 
L 464.76998 632.487585 
L 470.486495 646.826733 
L 476.20301 647.352 
L 481.919525 645.830359 
L 487.63604 647.352 
L 493.352554 641.952999 
L 499.069069 619.214715 
L 504.785584 620.471582 
L 510.502099 622.182364 
L 516.218614 637.749439 
L 521.935129 644.262159 
L 527.651644 634.120573 
L 533.368158 618.329386 
L 539.084673 618.898378 
L 544.801188 637.446854 
L 550.517703 625.685808 
L 556.234218 644.518046 
L 561.950733 625.453321 
L 567.667248 644.891257 
L 573.383762 614.37826 
L 579.100277 619.525863 
L 584.816792 603.474121 
L 590.533307 613.495794 
L 596.249822 629.156808 
L 601.966337 610.764852 
L 607.682851 612.372963 
L 613.399366 616.235817 
L 619.115881 624.031915 
L 624.832396 620.297786 
L 630.548911 634.569393 
L 636.265426 647.352 
L 647.698455 647.352 
L 653.41497 642.98396 
L 659.131485 642.900003 
L 664.848 623.489263 
L 670.564515 633.582995 
L 676.28103 642.776334 
L 681.997545 647.052166 
L 700.84 646.949726 
L 700.84 646.949726 
" clip-path="url(#pbb26fe7f4b)" style="fill: none; stroke: #b78935; stroke-opacity: 0; stroke-width: 1.5; stroke-linecap: square"/>
   </g>
   <g id="PI-PATCH-UPPER-0">
    <path d="M 87.48 563.292862 
L 93.196515 551.866524 
L 98.91303 557.69644 
L 104.629545 557.651989 
L 110.346059 553.72492 
L 116.062574 559.383853 
L 121.779089 561.734414 
L 127.495604 555.115449 
L 133.212119 552.071065 
L 138.928634 555.907242 
L 144.645149 557.886814 
L 150.361663 559.411304 
L 156.078178 556.903095 
L 161.794693 554.697077 
L 167.511208 551.600024 
L 173.227723 558.211841 
L 178.944238 554.892487 
L 184.660752 555.3388 
L 190.377267 555.519514 
L 196.093782 558.777279 
L 201.810297 551.807007 
L 207.526812 555.626215 
L 213.243327 557.800877 
L 218.959842 562.447688 
L 224.676356 568.437399 
L 230.392871 544.339625 
L 236.109386 554.647771 
L 241.825901 569.327703 
L 247.542416 581.210095 
L 253.258931 580.836989 
L 258.975446 569.880707 
L 264.69196 576.602719 
L 270.408475 569.070538 
L 276.12499 560.667811 
L 281.841505 588.577535 
L 287.55802 604.149883 
L 293.274535 598.786144 
L 298.99105 603.483352 
L 304.707564 601.183818 
L 310.424079 606.427898 
L 316.140594 590.410417 
L 321.857109 592.582101 
L 327.573624 600.744778 
L 333.290139 596.994723 
L 339.006653 597.330557 
L 344.723168 599.908289 
L 350.439683 596.095324 
L 356.156198 589.355702 
L 361.872713 590.802004 
L 367.589228 590.726759 
L 373.305743 595.055361 
L 379.022257 603.325709 
L 384.738772 599.74052 
L 390.455287 596.651746 
L 396.171802 593.954499 
L 401.888317 597.073237 
L 407.604832 592.502932 
L 413.321347 597.512717 
L 419.037861 595.91468 
L 424.754376 589.857433 
L 430.470891 592.915447 
L 436.187406 588.441812 
L 441.903921 598.517771 
L 447.620436 594.80179 
L 453.33695 597.526813 
L 459.053465 579.972099 
L 464.76998 579.616157 
L 470.486495 591.640765 
L 481.919525 589.854955 
L 487.63604 596.585056 
L 493.352554 590.073387 
L 499.069069 565.221061 
L 504.785584 566.666957 
L 510.502099 567.829974 
L 516.218614 582.711869 
L 521.935129 590.394609 
L 527.651644 578.464493 
L 533.368158 559.660044 
L 539.084673 550.551801 
L 544.801188 579.857164 
L 550.517703 570.729149 
L 556.234218 587.578988 
L 561.950733 570.136145 
L 567.667248 588.886929 
L 573.383762 560.302599 
L 579.100277 570.962637 
L 584.816792 546.971123 
L 590.533307 562.984514 
L 596.249822 580.26588 
L 601.966337 558.81367 
L 607.682851 561.609393 
L 613.399366 571.052954 
L 619.115881 579.184661 
L 624.832396 576.829184 
L 630.548911 587.908175 
L 636.265426 599.551762 
L 641.981941 606.258957 
L 647.698455 603.947025 
L 653.41497 595.126836 
L 659.131485 592.311216 
L 664.848 573.450078 
L 670.564515 583.313688 
L 676.28103 592.397959 
L 681.997545 595.098214 
L 700.84 594.989756 
L 700.84 594.989756 
" clip-path="url(#pbb26fe7f4b)" style="fill: none; stroke: #406992; stroke-opacity: 0; stroke-width: 1.5; stroke-linecap: square"/>
   </g>
   <g id="PI-PATCH-1">
    <path d="M 87.48 572.665491 
L 87.48 610.496403 
L 93.196515 600.33451 
L 98.91303 613.996398 
L 104.629545 611.782989 
L 110.346059 609.521366 
L 116.062574 615.623138 
L 121.779089 615.900371 
L 127.495604 611.823946 
L 133.212119 610.799514 
L 138.928634 615.227944 
L 144.645149 620.871224 
L 150.361663 617.06988 
L 156.078178 624.051017 
L 161.794693 617.272378 
L 167.511208 614.759298 
L 173.227723 621.65419 
L 178.944238 610.280139 
L 184.660752 611.203703 
L 190.377267 618.653139 
L 196.093782 618.570907 
L 201.810297 611.157692 
L 207.526812 611.714109 
L 213.243327 606.291407 
L 218.959842 609.22074 
L 224.676356 615.726602 
L 230.392871 609.938546 
L 236.109386 614.664663 
L 241.825901 619.921272 
L 247.542416 633.248025 
L 253.258931 632.250507 
L 258.975446 617.535451 
L 264.69196 619.325903 
L 270.408475 609.543837 
L 276.12499 603.564023 
L 281.841505 633.183209 
L 287.55802 645.625559 
L 293.274535 644.396628 
L 298.99105 645.058637 
L 304.707564 644.013548 
L 310.424079 645.52533 
L 316.140594 633.983326 
L 321.857109 632.995725 
L 327.573624 643.237352 
L 333.290139 639.36771 
L 339.006653 641.205469 
L 344.723168 644.387453 
L 350.439683 639.412505 
L 356.156198 630.95999 
L 361.872713 634.724239 
L 367.589228 637.292808 
L 373.305743 642.606641 
L 379.022257 645.985855 
L 384.738772 643.876909 
L 390.455287 644.235086 
L 396.171802 643.458432 
L 401.888317 644.452274 
L 407.604832 641.810956 
L 413.321347 644.395844 
L 419.037861 643.8413 
L 424.754376 639.439544 
L 430.470891 643.152095 
L 436.187406 640.122674 
L 441.903921 645.772262 
L 447.620436 643.816638 
L 453.33695 644.562878 
L 459.053465 628.050497 
L 464.76998 626.330389 
L 470.486495 641.955783 
L 476.20301 642.955342 
L 481.919525 641.072635 
L 487.63604 644.253899 
L 493.352554 637.088704 
L 499.069069 611.378701 
L 504.785584 612.628048 
L 510.502099 615.032668 
L 516.218614 632.217332 
L 521.935129 639.477845 
L 527.651644 628.280684 
L 533.368158 609.216715 
L 539.084673 608.64784 
L 544.801188 630.64729 
L 550.517703 617.651243 
L 556.234218 638.500919 
L 561.950733 617.255553 
L 567.667248 639.416288 
L 573.383762 605.755734 
L 579.100277 611.583871 
L 584.816792 592.649534 
L 590.533307 604.192426 
L 596.249822 622.74277 
L 601.966337 601.103688 
L 607.682851 602.68242 
L 613.399366 608.436382 
L 619.115881 617.620601 
L 624.832396 613.523194 
L 630.548911 629.372615 
L 636.265426 643.988263 
L 641.981941 646.325251 
L 647.698455 645.178912 
L 653.41497 638.446157 
L 659.131485 638.449069 
L 664.848 616.329006 
L 670.564515 627.069965 
L 676.28103 638.031565 
L 681.997545 643.058624 
L 5455.287446 614.169837 
L 5461.00396 608.563831 
L 5466.720475 616.051097 
L 5472.43699 614.620971 
L 5478.153505 612.123671 
L 5483.87002 608.45928 
L 5489.586535 612.487354 
L 5495.30305 606.208965 
L 5501.019564 611.291552 
L 5506.736079 621.754837 
L 5512.452594 608.564696 
L 5518.169109 611.201434 
L 5523.885624 625.04852 
L 5529.602139 619.107195 
L 5535.318653 608.995396 
L 5541.035168 608.155661 
L 5546.751683 622.494473 
L 5552.468198 619.184718 
L 5558.184713 624.529275 
L 5563.901228 621.723463 
L 5569.617743 626.219828 
L 5575.334257 615.596924 
L 5581.050772 610.426292 
L 5586.767287 605.409326 
L 5592.483802 606.46803 
L 5598.200317 615.063671 
L 5603.916832 608.517533 
L 5609.633347 611.040409 
L 5615.349861 614.012503 
L 5621.066376 606.274307 
L 5626.782891 610.430564 
L 5632.499406 620.41847 
L 5638.215921 602.310332 
L 5643.932436 612.102598 
L 5649.64895 611.217094 
L 5655.365465 596.83497 
L 5661.08198 597.807283 
L 5666.798495 601.451063 
L 5672.51501 603.362953 
L 5678.231525 602.727371 
L 5683.94804 608.159526 
L 5689.664554 611.25724 
L 5695.381069 609.467247 
L 5701.097584 604.683038 
L 5706.814099 606.516966 
L 5712.530614 610.205264 
L 5718.247129 611.651269 
L 5723.963644 605.695685 
L 5729.680158 601.575806 
L 5735.396673 604.083972 
L 5741.113188 611.846983 
L 5746.829703 601.141234 
L 5752.546218 612.131552 
L 5758.262733 618.785689 
L 5763.979248 609.970501 
L 5769.695762 613.136351 
L 5775.412277 615.590751 
L 5781.128792 604.871354 
L 5786.845307 609.643177 
L 5792.561822 609.232487 
L 5798.278337 615.505052 
L 5803.994851 618.725603 
L 5809.711366 610.5215 
L 5815.427881 620.149228 
L 5821.144396 618.377052 
L 5826.860911 618.578964 
L 5832.577426 587.963612 
L 5838.293941 596.40077 
L 5844.010455 595.405352 
L 5849.72697 594.239406 
L 5855.443485 595.149119 
L 5861.16 616.486591 
L 5866.876515 617.558832 
L 5872.59303 622.531644 
L 5878.309545 614.950738 
L 5884.026059 602.81139 
L 5889.742574 601.043578 
L 5895.459089 603.925963 
L 5901.175604 599.99579 
L 5901.175604 557.747255 
L 5901.175604 557.747255 
L 5895.459089 553.813588 
L 5889.742574 556.224908 
L 5884.026059 564.09835 
L 5878.309545 575.50102 
L 5872.59303 582.39885 
L 5866.876515 577.487506 
L 5861.16 577.104884 
L 5855.443485 555.5284 
L 5849.72697 554.861109 
L 5844.010455 556.299086 
L 5838.293941 555.503469 
L 5832.577426 547.658808 
L 5826.860911 573.930084 
L 5821.144396 579.367323 
L 5815.427881 572.925533 
L 5809.711366 563.153806 
L 5803.994851 579.288972 
L 5798.278337 569.865196 
L 5792.561822 565.412296 
L 5786.845307 565.314675 
L 5781.128792 564.483526 
L 5775.412277 569.962066 
L 5769.695762 568.736275 
L 5763.979248 566.693094 
L 5758.262733 572.63207 
L 5752.546218 568.602892 
L 5746.829703 562.65755 
L 5741.113188 574.339992 
L 5735.396673 562.547689 
L 5729.680158 565.113593 
L 5723.963644 567.307662 
L 5718.247129 568.339987 
L 5712.530614 568.690922 
L 5706.814099 567.092323 
L 5701.097584 565.946331 
L 5695.381069 567.941481 
L 5689.664554 567.363763 
L 5683.94804 564.719741 
L 5678.231525 564.439951 
L 5672.51501 565.386858 
L 5666.798495 562.79856 
L 5661.08198 560.195454 
L 5655.365465 562.888512 
L 5649.64895 576.021023 
L 5643.932436 569.137665 
L 5638.215921 562.729881 
L 5632.499406 583.334514 
L 5626.782891 565.029139 
L 5621.066376 560.802601 
L 5615.349861 560.277937 
L 5609.633347 558.171797 
L 5603.916832 564.425876 
L 5598.200317 579.111386 
L 5592.483802 571.295485 
L 5586.767287 568.793647 
L 5581.050772 568.375289 
L 5575.334257 573.374375 
L 5569.617743 576.233896 
L 5563.901228 572.210866 
L 5558.184713 576.364963 
L 5552.468198 569.403025 
L 5546.751683 574.498469 
L 5541.035168 563.272255 
L 5535.318653 564.0078 
L 5529.602139 572.223737 
L 5523.885624 574.426694 
L 5518.169109 565.317299 
L 5512.452594 561.191061 
L 5506.736079 575.721184 
L 5501.019564 568.576779 
L 5495.30305 563.18868 
L 5489.586535 569.81364 
L 5483.87002 568.667839 
L 5478.153505 576.971753 
L 5472.43699 580.40705 
L 5466.720475 582.023201 
L 5461.00396 573.845676 
L 5455.287446 579.071532 
L 681.997545 610.107771 
L 676.28103 605.714885 
L 670.564515 594.078863 
L 664.848 583.205561 
L 659.131485 606.12869 
L 653.41497 607.734046 
L 647.698455 618.136989 
L 641.981941 621.155039 
L 636.265426 613.801794 
L 630.548911 599.104703 
L 624.832396 584.517051 
L 619.115881 587.936472 
L 613.399366 577.969212 
L 607.682851 568.063826 
L 601.966337 565.782378 
L 596.249822 590.622967 
L 590.533307 569.887775 
L 584.816792 554.100818 
L 579.100277 579.021854 
L 573.383762 569.59007 
L 567.667248 603.40683 
L 561.950733 580.520201 
L 556.234218 601.701782 
L 550.517703 581.201251 
L 544.801188 593.128952 
L 539.084673 563.208842 
L 533.368158 570.080234 
L 527.651644 592.328159 
L 521.935129 605.043923 
L 516.218614 596.766005 
L 510.502099 579.316835 
L 504.785584 576.951603 
L 499.069069 575.591598 
L 493.352554 603.818164 
L 487.63604 612.392475 
L 481.919525 605.380786 
L 476.20301 607.038935 
L 470.486495 606.691832 
L 464.76998 591.921585 
L 459.053465 593.088903 
L 453.33695 613.397768 
L 447.620436 610.698569 
L 441.903921 615.709943 
L 436.187406 604.453311 
L 430.470891 608.620197 
L 424.754376 604.96856 
L 419.037861 611.403579 
L 413.321347 613.152337 
L 407.604832 607.999503 
L 401.888317 612.967791 
L 396.171802 609.738519 
L 390.455287 612.405939 
L 384.738772 613.757478 
L 379.022257 618.9076 
L 373.305743 609.878299 
L 367.589228 604.708239 
L 361.872713 603.167153 
L 356.156198 600.22907 
L 350.439683 608.744977 
L 344.723168 614.582712 
L 339.006653 610.369151 
L 333.290139 609.044674 
L 327.573624 613.454864 
L 321.857109 602.784304 
L 316.140594 602.02523 
L 310.424079 620.122031 
L 304.707564 614.820257 
L 298.99105 617.687215 
L 293.274535 613.920128 
L 287.55802 618.892708 
L 281.841505 601.466935 
L 276.12499 569.242675 
L 270.408475 578.116116 
L 264.69196 586.508417 
L 258.975446 580.660573 
L 253.258931 595.505542 
L 247.542416 596.324643 
L 241.825901 581.019841 
L 236.109386 568.231268 
L 230.392871 559.637783 
L 224.676356 579.97493 
L 218.959842 572.982493 
L 213.243327 568.306799 
L 207.526812 567.937718 
L 201.810297 564.929448 
L 196.093782 572.35226 
L 190.377267 570.039023 
L 184.660752 567.65121 
L 178.944238 566.991673 
L 173.227723 572.789562 
L 167.511208 565.640206 
L 161.794693 568.84204 
L 156.078178 572.669831 
L 150.361663 572.511917 
L 144.645149 572.355254 
L 138.928634 569.382833 
L 133.212119 565.118652 
L 127.495604 568.041356 
L 121.779089 574.305496 
L 116.062574 571.925299 
L 110.346059 565.589568 
L 104.629545 569.310121 
L 98.91303 570.132673 
L 93.196515 561.361222 
L 87.48 572.665491 
z
" clip-path="url(#pbb26fe7f4b)" style="fill: #bfbfbf; fill-opacity: 0.00001"/>
   </g>
   <g id="PI-PATCH-LOWER-1">
    <path d="M 87.48 610.496403 
L 93.196515 600.33451 
L 98.91303 613.996398 
L 110.346059 609.521366 
L 116.062574 615.623138 
L 121.779089 615.900371 
L 127.495604 611.823946 
L 133.212119 610.799514 
L 138.928634 615.227944 
L 144.645149 620.871224 
L 150.361663 617.06988 
L 156.078178 624.051017 
L 161.794693 617.272378 
L 167.511208 614.759298 
L 173.227723 621.65419 
L 178.944238 610.280139 
L 184.660752 611.203703 
L 190.377267 618.653139 
L 196.093782 618.570907 
L 201.810297 611.157692 
L 207.526812 611.714109 
L 213.243327 606.291407 
L 218.959842 609.22074 
L 224.676356 615.726602 
L 230.392871 609.938546 
L 236.109386 614.664663 
L 241.825901 619.921272 
L 247.542416 633.248025 
L 253.258931 632.250507 
L 258.975446 617.535451 
L 264.69196 619.325903 
L 270.408475 609.543837 
L 276.12499 603.564023 
L 281.841505 633.183209 
L 287.55802 645.625559 
L 293.274535 644.396628 
L 298.99105 645.058637 
L 304.707564 644.013548 
L 310.424079 645.52533 
L 316.140594 633.983326 
L 321.857109 632.995725 
L 327.573624 643.237352 
L 333.290139 639.36771 
L 339.006653 641.205469 
L 344.723168 644.387453 
L 350.439683 639.412505 
L 356.156198 630.95999 
L 361.872713 634.724239 
L 367.589228 637.292808 
L 373.305743 642.606641 
L 379.022257 645.985855 
L 384.738772 643.876909 
L 390.455287 644.235086 
L 396.171802 643.458432 
L 401.888317 644.452274 
L 407.604832 641.810956 
L 413.321347 644.395844 
L 419.037861 643.8413 
L 424.754376 639.439544 
L 430.470891 643.152095 
L 436.187406 640.122674 
L 441.903921 645.772262 
L 447.620436 643.816638 
L 453.33695 644.562878 
L 459.053465 628.050497 
L 464.76998 626.330389 
L 470.486495 641.955783 
L 476.20301 642.955342 
L 481.919525 641.072635 
L 487.63604 644.253899 
L 493.352554 637.088704 
L 499.069069 611.378701 
L 504.785584 612.628048 
L 510.502099 615.032668 
L 516.218614 632.217332 
L 521.935129 639.477845 
L 527.651644 628.280684 
L 533.368158 609.216715 
L 539.084673 608.64784 
L 544.801188 630.64729 
L 550.517703 617.651243 
L 556.234218 638.500919 
L 561.950733 617.255553 
L 567.667248 639.416288 
L 573.383762 605.755734 
L 579.100277 611.583871 
L 584.816792 592.649534 
L 590.533307 604.192426 
L 596.249822 622.74277 
L 601.966337 601.103688 
L 607.682851 602.68242 
L 613.399366 608.436382 
L 619.115881 617.620601 
L 624.832396 613.523194 
L 630.548911 629.372615 
L 636.265426 643.988263 
L 641.981941 646.325251 
L 647.698455 645.178912 
L 653.41497 638.446157 
L 659.131485 638.449069 
L 664.848 616.329006 
L 676.28103 638.031565 
L 681.997545 643.058624 
L 700.84 642.944586 
L 700.84 642.944586 
" clip-path="url(#pbb26fe7f4b)" style="fill: none; stroke: #b78935; stroke-opacity: 0; stroke-width: 1.5; stroke-linecap: square"/>
   </g>
   <g id="PI-PATCH-UPPER-1">
    <path d="M 87.48 572.665491 
L 93.196515 561.361222 
L 98.91303 570.132673 
L 104.629545 569.310121 
L 110.346059 565.589568 
L 116.062574 571.925299 
L 121.779089 574.305496 
L 127.495604 568.041356 
L 133.212119 565.118652 
L 138.928634 569.382833 
L 144.645149 572.355254 
L 156.078178 572.669831 
L 161.794693 568.84204 
L 167.511208 565.640206 
L 173.227723 572.789562 
L 178.944238 566.991673 
L 184.660752 567.65121 
L 196.093782 572.35226 
L 201.810297 564.929448 
L 207.526812 567.937718 
L 213.243327 568.306799 
L 218.959842 572.982493 
L 224.676356 579.97493 
L 230.392871 559.637783 
L 236.109386 568.231268 
L 241.825901 581.019841 
L 247.542416 596.324643 
L 253.258931 595.505542 
L 258.975446 580.660573 
L 264.69196 586.508417 
L 270.408475 578.116116 
L 276.12499 569.242675 
L 281.841505 601.466935 
L 287.55802 618.892708 
L 293.274535 613.920128 
L 298.99105 617.687215 
L 304.707564 614.820257 
L 310.424079 620.122031 
L 316.140594 602.02523 
L 321.857109 602.784304 
L 327.573624 613.454864 
L 333.290139 609.044674 
L 339.006653 610.369151 
L 344.723168 614.582712 
L 350.439683 608.744977 
L 356.156198 600.22907 
L 361.872713 603.167153 
L 367.589228 604.708239 
L 373.305743 609.878299 
L 379.022257 618.9076 
L 384.738772 613.757478 
L 390.455287 612.405939 
L 396.171802 609.738519 
L 401.888317 612.967791 
L 407.604832 607.999503 
L 413.321347 613.152337 
L 419.037861 611.403579 
L 424.754376 604.96856 
L 430.470891 608.620197 
L 436.187406 604.453311 
L 441.903921 615.709943 
L 447.620436 610.698569 
L 453.33695 613.397768 
L 459.053465 593.088903 
L 464.76998 591.921585 
L 470.486495 606.691832 
L 476.20301 607.038935 
L 481.919525 605.380786 
L 487.63604 612.392475 
L 493.352554 603.818164 
L 499.069069 575.591598 
L 504.785584 576.951603 
L 510.502099 579.316835 
L 516.218614 596.766005 
L 521.935129 605.043923 
L 527.651644 592.328159 
L 533.368158 570.080234 
L 539.084673 563.208842 
L 544.801188 593.128952 
L 550.517703 581.201251 
L 556.234218 601.701782 
L 561.950733 580.520201 
L 567.667248 603.40683 
L 573.383762 569.59007 
L 579.100277 579.021854 
L 584.816792 554.100818 
L 590.533307 569.887775 
L 596.249822 590.622967 
L 601.966337 565.782378 
L 607.682851 568.063826 
L 619.115881 587.936472 
L 624.832396 584.517051 
L 636.265426 613.801794 
L 641.981941 621.155039 
L 647.698455 618.136989 
L 653.41497 607.734046 
L 659.131485 606.12869 
L 664.848 583.205561 
L 670.564515 594.078863 
L 676.28103 605.714885 
L 681.997545 610.107771 
L 700.84 609.985256 
L 700.84 609.985256 
" clip-path="url(#pbb26fe7f4b)" style="fill: none; stroke: #406992; stroke-opacity: 0; stroke-width: 1.5; stroke-linecap: square"/>
   </g>
   <g id="PI-PATCH-2">
    <path d="M 87.48 579.755611 
L 87.48 603.168196 
L 93.196515 592.70956 
L 98.91303 606.235093 
L 104.629545 604.087879 
L 110.346059 601.471016 
L 116.062574 607.962555 
L 121.779089 608.905289 
L 127.495604 604.317334 
L 133.212119 602.761761 
L 138.928634 607.339941 
L 144.645149 612.621085 
L 150.361663 609.404917 
L 156.078178 615.521711 
L 161.794693 608.897131 
L 167.511208 606.121519 
L 173.227723 613.347249 
L 178.944238 602.539075 
L 184.660752 603.480787 
L 190.377267 610.39653 
L 196.093782 610.613756 
L 201.810297 602.985422 
L 207.526812 603.921393 
L 213.243327 599.446851 
L 218.959842 602.930837 
L 224.676356 610.057531 
L 230.392871 601.524348 
L 236.109386 606.644964 
L 241.825901 613.34872 
L 247.542416 628.892761 
L 253.258931 627.741448 
L 258.975446 611.163168 
L 264.69196 613.801012 
L 270.408475 604.046353 
L 276.12499 596.949279 
L 281.841505 629.398255 
L 287.55802 644.253591 
L 293.274535 642.048053 
L 298.99105 643.236148 
L 304.707564 641.360548 
L 310.424079 644.073712 
L 316.140594 629.525931 
L 321.857109 628.417326 
L 327.573624 639.967525 
L 333.290139 635.620929 
L 339.006653 637.763111 
L 344.723168 642.031588 
L 350.439683 635.840115 
L 356.156198 626.535258 
L 361.872713 630.742847 
L 367.589228 633.750764 
L 373.305743 639.414515 
L 379.022257 644.900206 
L 384.738772 641.115325 
L 390.455287 641.758138 
L 396.171802 640.409609 
L 401.888317 642.147921 
L 407.604832 638.599016 
L 413.321347 642.046647 
L 419.037861 641.051417 
L 424.754376 635.842556 
L 430.470891 639.814516 
L 436.187406 636.576449 
L 441.903921 644.516876 
L 447.620436 641.007158 
L 453.33695 642.346419 
L 459.053465 623.366577 
L 464.76998 621.43739 
L 470.486495 638.084938 
L 476.20301 639.461406 
L 481.919525 637.291767 
L 487.63604 641.791902 
L 493.352554 633.223147 
L 499.069069 605.15158 
L 504.785584 606.394949 
L 510.502099 609.350949 
L 516.218614 627.821078 
L 521.935129 635.675848 
L 527.651644 623.639842 
L 533.368158 601.975059 
L 539.084673 600.501945 
L 544.801188 625.243813 
L 550.517703 611.266337 
L 556.234218 633.719229 
L 561.950733 610.740952 
L 567.667248 635.065441 
L 573.383762 598.903587 
L 579.100277 605.27253 
L 584.816792 584.047454 
L 590.533307 596.799228 
L 596.249822 617.645663 
L 601.966337 593.426157 
L 607.682851 594.981541 
L 613.399366 602.238328 
L 619.115881 612.525659 
L 624.832396 608.139563 
L 630.548911 625.24284 
L 636.265426 641.31517 
L 641.981941 645.509315 
L 647.698455 643.452003 
L 653.41497 634.840057 
L 659.131485 634.912001 
L 664.848 610.638895 
L 670.564515 621.894192 
L 676.28103 634.260993 
L 681.997545 639.885036 
L 5455.287446 608.661494 
L 5461.00396 602.500833 
L 5466.720475 610.604159 
L 5472.43699 609.192733 
L 5478.153505 606.001162 
L 5483.87002 601.338018 
L 5489.586535 605.075974 
L 5495.30305 598.40647 
L 5501.019564 603.676327 
L 5506.736079 614.047364 
L 5512.452594 599.980469 
L 5518.169109 602.958147 
L 5523.885624 616.593045 
L 5529.602139 611.027637 
L 5535.318653 600.875056 
L 5541.035168 600.045999 
L 5546.751683 614.448956 
L 5552.468198 610.732673 
L 5558.184713 616.537447 
L 5563.901228 613.471341 
L 5569.617743 618.134153 
L 5575.334257 608.470123 
L 5581.050772 603.228445 
L 5586.767287 598.768914 
L 5592.483802 600.555403 
L 5598.200317 609.486956 
L 5603.916832 600.932628 
L 5609.633347 602.340704 
L 5615.349861 604.897559 
L 5621.066376 597.501727 
L 5626.782891 602.004342 
L 5632.499406 614.551388 
L 5638.215921 594.861604 
L 5643.932436 604.578811 
L 5649.64895 604.559954 
L 5655.365465 589.335193 
L 5661.08198 589.925399 
L 5666.798495 593.290286 
L 5672.51501 595.431784 
L 5678.231525 594.571623 
L 5683.94804 598.991638 
L 5689.664554 601.994702 
L 5695.381069 600.564259 
L 5701.097584 596.22988 
L 5706.814099 598.024025 
L 5712.530614 601.611719 
L 5718.247129 602.778968 
L 5723.963644 597.748791 
L 5729.680158 594.087501 
L 5735.396673 595.924077 
L 5741.113188 604.946135 
L 5746.829703 593.57241 
L 5752.546218 604.237173 
L 5758.262733 610.761575 
L 5763.979248 602.052659 
L 5769.695762 605.196391 
L 5775.412277 607.716357 
L 5781.128792 597.652681 
L 5786.845307 601.749121 
L 5792.561822 601.293639 
L 5798.278337 607.538411 
L 5803.994851 613.061243 
L 5809.711366 602.356572 
L 5815.427881 612.354092 
L 5821.144396 612.664952 
L 5826.860911 611.017656 
L 5832.577426 580.27161 
L 5838.293941 588.773828 
L 5844.010455 588.107126 
L 5849.72697 586.722242 
L 5855.443485 587.538197 
L 5861.16 610.668034 
L 5866.876515 611.689868 
L 5872.59303 616.994495 
L 5878.309545 608.749327 
L 5884.026059 595.650075 
L 5889.742574 592.778794 
L 5895.459089 594.796634 
L 5901.175604 591.78998 
L 5901.175604 565.630022 
L 5901.175604 565.630022 
L 5895.459089 564.138016 
L 5889.742574 565.297577 
L 5884.026059 571.898843 
L 5878.309545 585.218823 
L 5872.59303 593.530095 
L 5866.876515 588.052575 
L 5861.16 587.406483 
L 5855.443485 563.057214 
L 5849.72697 562.420006 
L 5844.010455 564.075263 
L 5838.293941 563.644723 
L 5832.577426 555.398828 
L 5826.860911 584.053039 
L 5821.144396 589.65472 
L 5815.427881 583.958573 
L 5809.711366 573.662122 
L 5803.994851 589.866858 
L 5798.278337 579.829564 
L 5792.561822 574.51168 
L 5786.845307 574.740494 
L 5781.128792 573.028856 
L 5775.412277 580.069705 
L 5769.695762 578.123806 
L 5763.979248 575.554983 
L 5758.262733 582.760577 
L 5752.546218 577.628269 
L 5746.829703 569.68578 
L 5741.113188 581.957768 
L 5735.396673 570.14842 
L 5729.680158 571.261018 
L 5723.963644 573.677978 
L 5718.247129 575.678628 
L 5712.530614 575.580915 
L 5706.814099 573.099808 
L 5701.097584 571.674045 
L 5695.381069 574.337845 
L 5689.664554 574.363786 
L 5683.94804 571.645653 
L 5678.231525 570.422944 
L 5672.51501 571.576584 
L 5666.798495 568.955979 
L 5661.08198 566.282579 
L 5655.365465 567.759548 
L 5649.64895 582.876605 
L 5643.932436 578.479193 
L 5638.215921 570.500288 
L 5632.499406 592.408935 
L 5626.782891 574.132677 
L 5621.066376 569.382371 
L 5615.349861 572.436673 
L 5609.633347 570.567617 
L 5603.916832 574.23214 
L 5598.200317 588.08853 
L 5592.483802 579.340705 
L 5586.767287 576.386027 
L 5581.050772 577.785813 
L 5575.334257 582.985316 
L 5569.617743 588.17922 
L 5563.901228 583.650931 
L 5558.184713 587.550915 
L 5552.468198 580.655027 
L 5546.751683 585.513631 
L 5541.035168 572.627608 
L 5535.318653 573.398017 
L 5529.602139 582.627695 
L 5523.885624 586.093227 
L 5518.169109 574.95739 
L 5512.452594 571.025736 
L 5506.736079 586.300661 
L 5501.019564 577.645676 
L 5495.30305 572.10814 
L 5489.586535 579.190947 
L 5483.87002 577.072165 
L 5478.153505 584.667979 
L 5472.43699 588.754605 
L 5466.720475 590.247568 
L 5461.00396 581.421052 
L 5455.287446 587.732015 
L 681.997545 621.462062 
L 676.28103 615.788751 
L 670.564515 602.222404 
L 664.848 590.585299 
L 659.131485 616.581206 
L 653.41497 617.271033 
L 647.698455 628.871283 
L 641.981941 632.42349 
L 636.265426 624.581528 
L 630.548911 607.57455 
L 624.832396 590.332697 
L 619.115881 594.556961 
L 613.399366 583.201159 
L 607.682851 572.946416 
L 601.966337 571.054002 
L 596.249822 598.457801 
L 590.533307 575.10989 
L 584.816792 559.494224 
L 579.100277 585.118417 
L 573.383762 576.615771 
L 567.667248 614.390711 
L 561.950733 588.375436 
L 556.234218 612.385263 
L 550.517703 589.12309 
L 544.801188 603.168673 
L 539.084673 572.783523 
L 533.368158 577.962804 
L 527.651644 602.815617 
L 521.935129 616.1257 
L 516.218614 607.397549 
L 510.502099 588.006311 
L 504.785584 584.731638 
L 499.069069 583.436606 
L 493.352554 614.215686 
L 487.63604 624.350326 
L 481.919525 617.125623 
L 476.20301 619.359066 
L 470.486495 618.077525 
L 464.76998 601.230282 
L 459.053465 603.011382 
L 453.33695 625.403681 
L 447.620436 622.724019 
L 441.903921 628.715318 
L 436.187406 616.565542 
L 430.470891 620.500382 
L 424.754376 616.399686 
L 419.037861 623.120479 
L 413.321347 624.983253 
L 407.604832 619.722206 
L 401.888317 624.991558 
L 396.171802 621.678668 
L 390.455287 624.323526 
L 384.738772 624.360897 
L 379.022257 630.694845 
L 373.305743 621.091419 
L 367.589228 615.28482 
L 361.872713 612.521028 
L 356.156198 608.454455 
L 350.439683 618.31407 
L 344.723168 625.683485 
L 339.006653 620.232467 
L 333.290139 618.16011 
L 327.573624 623.069673 
L 321.857109 610.501972 
L 316.140594 610.811497 
L 310.424079 630.481243 
L 304.707564 625.135826 
L 298.99105 628.432023 
L 293.274535 625.368545 
L 287.55802 630.045225 
L 281.841505 611.21739 
L 276.12499 575.72931 
L 270.408475 584.958831 
L 264.69196 594.001788 
L 258.975446 588.815226 
L 253.258931 606.601875 
L 247.542416 607.758357 
L 241.825901 589.864601 
L 236.109386 578.506787 
L 230.392871 571.210394 
L 224.676356 588.702735 
L 218.959842 580.951765 
L 213.243327 576.254221 
L 207.526812 577.251011 
L 201.810297 574.856191 
L 196.093782 582.621337 
L 190.377267 581.022607 
L 184.660752 576.965189 
L 178.944238 576.144354 
L 173.227723 583.817183 
L 167.511208 576.261194 
L 161.794693 579.542291 
L 156.078178 584.596907 
L 150.361663 582.422148 
L 144.645149 583.300205 
L 138.928634 579.576724 
L 133.212119 574.988771 
L 127.495604 577.819428 
L 121.779089 583.815152 
L 116.062574 581.412536 
L 110.346059 574.564828 
L 104.629545 578.129156 
L 98.91303 579.54032 
L 93.196515 568.543683 
L 87.48 579.755611 
z
" clip-path="url(#pbb26fe7f4b)" style="fill: #808080; fill-opacity: 0.00001"/>
   </g>
   <g id="PI-PATCH-LOWER-2">
    <path d="M 87.48 603.168196 
L 93.196515 592.70956 
L 98.91303 606.235093 
L 104.629545 604.087879 
L 110.346059 601.471016 
L 116.062574 607.962555 
L 121.779089 608.905289 
L 127.495604 604.317334 
L 133.212119 602.761761 
L 138.928634 607.339941 
L 144.645149 612.621085 
L 150.361663 609.404917 
L 156.078178 615.521711 
L 161.794693 608.897131 
L 167.511208 606.121519 
L 173.227723 613.347249 
L 178.944238 602.539075 
L 184.660752 603.480787 
L 190.377267 610.39653 
L 196.093782 610.613756 
L 201.810297 602.985422 
L 207.526812 603.921393 
L 213.243327 599.446851 
L 218.959842 602.930837 
L 224.676356 610.057531 
L 230.392871 601.524348 
L 236.109386 606.644964 
L 241.825901 613.34872 
L 247.542416 628.892761 
L 253.258931 627.741448 
L 258.975446 611.163168 
L 264.69196 613.801012 
L 270.408475 604.046353 
L 276.12499 596.949279 
L 281.841505 629.398255 
L 287.55802 644.253591 
L 293.274535 642.048053 
L 298.99105 643.236148 
L 304.707564 641.360548 
L 310.424079 644.073712 
L 316.140594 629.525931 
L 321.857109 628.417326 
L 327.573624 639.967525 
L 333.290139 635.620929 
L 339.006653 637.763111 
L 344.723168 642.031588 
L 350.439683 635.840115 
L 356.156198 626.535258 
L 361.872713 630.742847 
L 367.589228 633.750764 
L 373.305743 639.414515 
L 379.022257 644.900206 
L 384.738772 641.115325 
L 390.455287 641.758138 
L 396.171802 640.409609 
L 401.888317 642.147921 
L 407.604832 638.599016 
L 413.321347 642.046647 
L 419.037861 641.051417 
L 424.754376 635.842556 
L 430.470891 639.814516 
L 436.187406 636.576449 
L 441.903921 644.516876 
L 447.620436 641.007158 
L 453.33695 642.346419 
L 459.053465 623.366577 
L 464.76998 621.43739 
L 470.486495 638.084938 
L 476.20301 639.461406 
L 481.919525 637.291767 
L 487.63604 641.791902 
L 493.352554 633.223147 
L 499.069069 605.15158 
L 504.785584 606.394949 
L 510.502099 609.350949 
L 516.218614 627.821078 
L 521.935129 635.675848 
L 527.651644 623.639842 
L 533.368158 601.975059 
L 539.084673 600.501945 
L 544.801188 625.243813 
L 550.517703 611.266337 
L 556.234218 633.719229 
L 561.950733 610.740952 
L 567.667248 635.065441 
L 573.383762 598.903587 
L 579.100277 605.27253 
L 584.816792 584.047454 
L 590.533307 596.799228 
L 596.249822 617.645663 
L 601.966337 593.426157 
L 607.682851 594.981541 
L 613.399366 602.238328 
L 619.115881 612.525659 
L 624.832396 608.139563 
L 630.548911 625.24284 
L 636.265426 641.31517 
L 641.981941 645.509315 
L 647.698455 643.452003 
L 653.41497 634.840057 
L 659.131485 634.912001 
L 664.848 610.638895 
L 670.564515 621.894192 
L 676.28103 634.260993 
L 681.997545 639.885036 
L 700.84 639.761782 
L 700.84 639.761782 
" clip-path="url(#pbb26fe7f4b)" style="fill: none; stroke: #b78935; stroke-opacity: 0; stroke-width: 1.5; stroke-linecap: square"/>
   </g>
   <g id="PI-PATCH-UPPER-2">
    <path d="M 87.48 579.755611 
L 93.196515 568.543683 
L 98.91303 579.54032 
L 104.629545 578.129156 
L 110.346059 574.564828 
L 116.062574 581.412536 
L 121.779089 583.815152 
L 127.495604 577.819428 
L 133.212119 574.988771 
L 138.928634 579.576724 
L 144.645149 583.300205 
L 150.361663 582.422148 
L 156.078178 584.596907 
L 161.794693 579.542291 
L 167.511208 576.261194 
L 173.227723 583.817183 
L 178.944238 576.144354 
L 184.660752 576.965189 
L 190.377267 581.022607 
L 196.093782 582.621337 
L 201.810297 574.856191 
L 207.526812 577.251011 
L 213.243327 576.254221 
L 218.959842 580.951765 
L 224.676356 588.702735 
L 230.392871 571.210394 
L 236.109386 578.506787 
L 241.825901 589.864601 
L 247.542416 607.758357 
L 253.258931 606.601875 
L 258.975446 588.815226 
L 264.69196 594.001788 
L 276.12499 575.72931 
L 281.841505 611.21739 
L 287.55802 630.045225 
L 293.274535 625.368545 
L 298.99105 628.432023 
L 304.707564 625.135826 
L 310.424079 630.481243 
L 316.140594 610.811497 
L 321.857109 610.501972 
L 327.573624 623.069673 
L 333.290139 618.16011 
L 339.006653 620.232467 
L 344.723168 625.683485 
L 350.439683 618.31407 
L 356.156198 608.454455 
L 361.872713 612.521028 
L 367.589228 615.28482 
L 373.305743 621.091419 
L 379.022257 630.694845 
L 384.738772 624.360897 
L 390.455287 624.323526 
L 396.171802 621.678668 
L 401.888317 624.991558 
L 407.604832 619.722206 
L 413.321347 624.983253 
L 419.037861 623.120479 
L 424.754376 616.399686 
L 430.470891 620.500382 
L 436.187406 616.565542 
L 441.903921 628.715318 
L 447.620436 622.724019 
L 453.33695 625.403681 
L 459.053465 603.011382 
L 464.76998 601.230282 
L 470.486495 618.077525 
L 476.20301 619.359066 
L 481.919525 617.125623 
L 487.63604 624.350326 
L 493.352554 614.215686 
L 499.069069 583.436606 
L 504.785584 584.731638 
L 510.502099 588.006311 
L 516.218614 607.397549 
L 521.935129 616.1257 
L 527.651644 602.815617 
L 533.368158 577.962804 
L 539.084673 572.783523 
L 544.801188 603.168673 
L 550.517703 589.12309 
L 556.234218 612.385263 
L 561.950733 588.375436 
L 567.667248 614.390711 
L 573.383762 576.615771 
L 579.100277 585.118417 
L 584.816792 559.494224 
L 590.533307 575.10989 
L 596.249822 598.457801 
L 601.966337 571.054002 
L 607.682851 572.946416 
L 613.399366 583.201159 
L 619.115881 594.556961 
L 624.832396 590.332697 
L 636.265426 624.581528 
L 641.981941 632.42349 
L 647.698455 628.871283 
L 653.41497 617.271033 
L 659.131485 616.581206 
L 664.848 590.585299 
L 670.564515 602.222404 
L 676.28103 615.788751 
L 681.997545 621.462062 
L 700.84 621.328913 
L 700.84 621.328913 
" clip-path="url(#pbb26fe7f4b)" style="fill: none; stroke: #406992; stroke-opacity: 0; stroke-width: 1.5; stroke-linecap: square"/>
   </g>
   <g id="matplotlib.axis_3">
    <g id="xtick_4">
     <g id="line2d_7">
      <g>
       <use xlink:href="#mc15fc9341b" x="106.262835" y="647.352" style="fill: #949494; stroke: #949494; stroke-width: 0.8"/>
      </g>
     </g>
     <g id="text_8">
      <text style="font-weight: 300; font-size: 16px; font-family: 'Source Sans 3', sans-serif; text-anchor: middle; fill: #494949" x="106.262835" y="665.9045" transform="rotate(-0 106.262835 665.9045)">2021</text>
     </g>
    </g>
    <g id="xtick_5">
     <g id="line2d_8">
      <g>
       <use xlink:href="#mc15fc9341b" x="404.338252" y="647.352" style="fill: #949494; stroke: #949494; stroke-width: 0.8"/>
      </g>
     </g>
     <g id="text_9">
      <text style="font-weight: 300; font-size: 16px; font-family: 'Source Sans 3', sans-serif; text-anchor: middle; fill: #494949" x="404.338252" y="665.9045" transform="rotate(-0 404.338252 665.9045)">2022</text>
     </g>
    </g>
    <g id="text_10">
     <text style="font-weight: 600; font-size: 16px; font-family: 'Source Sans 3', sans-serif; text-anchor: middle; fill: #494949" x="376.164" y="685.0095" transform="rotate(-0 376.164 685.0095)">Date</text>
    </g>
   </g>
   <g id="matplotlib.axis_4">
    <g id="ytick_4">
     <g id="line2d_9">
      <path d="M 87.48 647.352 
L 664.848 647.352 
" style="fill: none; stroke: #d1d1d1; stroke-width: 0.8; stroke-linecap: square"/>
     </g>
     <g id="line2d_10">
      <g>
       <use xlink:href="#md7e0d66f83" x="87.48" y="647.352" style="fill: #949494; stroke: #949494; stroke-width: 0.8"/>
      </g>
     </g>
     <g id="text_11">
      <text style="font-weight: 300; font-size: 16px; font-family: 'Source Sans 3', sans-serif; text-anchor: end; fill: #494949" x="80.48" y="653.12825" transform="rotate(-0 80.48 653.12825)">0</text>
     </g>
    </g>
    <g id="ytick_5">
     <g id="line2d_11">
      <path d="M 87.48 594.864 
L 664.848 594.864 
" style="fill: none; stroke: #d1d1d1; stroke-width: 0.8; stroke-linecap: square"/>
     </g>
     <g id="line2d_12">
      <g>
       <use xlink:href="#md7e0d66f83" x="87.48" y="594.864" style="fill: #949494; stroke: #949494; stroke-width: 0.8"/>
      </g>
     </g>
     <g id="text_12">
      <text style="font-weight: 300; font-size: 16px; font-family: 'Source Sans 3', sans-serif; text-anchor: end; fill: #494949" x="80.48" y="600.64025" transform="rotate(-0 80.48 600.64025)">20</text>
     </g>
    </g>
    <g id="ytick_6">
     <g id="line2d_13">
      <path d="M 87.48 542.376 
L 664.848 542.376 
" style="fill: none; stroke: #d1d1d1; stroke-width: 0.8; stroke-linecap: square"/>
     </g>
     <g id="line2d_14">
      <g>
       <use xlink:href="#md7e0d66f83" x="87.48" y="542.376" style="fill: #949494; stroke: #949494; stroke-width: 0.8"/>
      </g>
     </g>
     <g id="text_13">
      <text style="font-weight: 300; font-size: 16px; font-family: 'Source Sans 3', sans-serif; text-anchor: end; fill: #494949" x="80.48" y="548.15225" transform="rotate(-0 80.48 548.15225)">40</text>
     </g>
    </g>
    <g id="ytick_7">
     <g id="line2d_15">
      <path d="M 87.48 489.888 
L 664.848 489.888 
" style="fill: none; stroke: #d1d1d1; stroke-width: 0.8; stroke-linecap: square"/>
     </g>
     <g id="line2d_16">
      <g>
       <use xlink:href="#md7e0d66f83" x="87.48" y="489.888" style="fill: #949494; stroke: #949494; stroke-width: 0.8"/>
      </g>
     </g>
     <g id="text_14">
      <text style="font-weight: 300; font-size: 16px; font-family: 'Source Sans 3', sans-serif; text-anchor: end; fill: #494949" x="80.48" y="495.66425" transform="rotate(-0 80.48 495.66425)">60</text>
     </g>
    </g>
    <g id="ytick_8">
     <g id="line2d_17">
      <path d="M 87.48 437.4 
L 664.848 437.4 
" style="fill: none; stroke: #d1d1d1; stroke-width: 0.8; stroke-linecap: square"/>
     </g>
     <g id="line2d_18">
      <g>
       <use xlink:href="#md7e0d66f83" x="87.48" y="437.4" style="fill: #949494; stroke: #949494; stroke-width: 0.8"/>
      </g>
     </g>
     <g id="text_15">
      <text style="font-weight: 300; font-size: 16px; font-family: 'Source Sans 3', sans-serif; text-anchor: end; fill: #494949" x="80.48" y="443.17625" transform="rotate(-0 80.48 443.17625)">80</text>
     </g>
    </g>
    <g id="ytick_9">
     <g id="line2d_19">
      <path d="M 87.48 384.912 
L 664.848 384.912 
" style="fill: none; stroke: #d1d1d1; stroke-width: 0.8; stroke-linecap: square"/>
     </g>
     <g id="line2d_20">
      <g>
       <use xlink:href="#md7e0d66f83" x="87.48" y="384.912" style="fill: #949494; stroke: #949494; stroke-width: 0.8"/>
      </g>
     </g>
     <g id="text_16">
      <text style="font-weight: 300; font-size: 16px; font-family: 'Source Sans 3', sans-serif; text-anchor: end; fill: #494949" x="80.48" y="390.68825" transform="rotate(-0 80.48 390.68825)">100</text>
     </g>
    </g>
   </g>
   <g id="TAG-0-LABEL-BOLD">
    <g id="patch_6">
     <path d="M 464.2185 479.90425 
L 576.7935 479.90425 
L 576.7935 447.38375 
L 464.2185 447.38375 
z
" style="fill: #ffffff; opacity: 0"/>
    </g>
    <text style="font-weight: 700; font-size: 16px; font-family: 'Source Sans 3', sans-serif; fill: #af3331; opacity: 0" transform="translate(464.2185 458.93625)">PI contains 91.3%</text>
    <text style="font-weight: 700; font-size: 16px; font-family: 'Source Sans 3', sans-serif; fill: #af3331; opacity: 0" transform="translate(471.48225 476.35175)">of observations</text>
   </g>
   <g id="TAG-1-LABEL-BOLD">
    <g id="patch_7">
     <path d="M 464.2185 479.90425 
L 576.7935 479.90425 
L 576.7935 447.38375 
L 464.2185 447.38375 
z
" style="fill: #ffffff; opacity: 0"/>
    </g>
    <text style="font-weight: 700; font-size: 16px; font-family: 'Source Sans 3', sans-serif; fill: #af3331; opacity: 0" transform="translate(464.2185 458.93625)">PI contains 65.2%</text>
    <text style="font-weight: 700; font-size: 16px; font-family: 'Source Sans 3', sans-serif; fill: #af3331; opacity: 0" transform="translate(471.48225 476.35175)">of observations</text>
   </g>
   <g id="TAG-2-LABEL-BOLD">
    <g id="patch_8">
     <path d="M 464.2185 479.90425 
L 576.7935 479.90425 
L 576.7935 447.38375 
L 464.2185 447.38375 
z
" style="fill: #ffffff; opacity: 0"/>
    </g>
    <text style="font-weight: 700; font-size: 16px; font-family: 'Source Sans 3', sans-serif; fill: #af3331; opacity: 0" transform="translate(464.2185 458.93625)">PI contains 42.0%</text>
    <text style="font-weight: 700; font-size: 16px; font-family: 'Source Sans 3', sans-serif; fill: #af3331; opacity: 0" transform="translate(471.48225 476.35175)">of observations</text>
   </g>
   <g id="PI-PATCH-MEDIAN">
    <path d="M 87.48 586.845731 
L 93.196515 575.726145 
L 98.91303 588.947967 
L 104.629545 586.948192 
L 110.346059 583.540088 
L 116.062574 590.899774 
L 121.779089 593.324809 
L 127.495604 587.597499 
L 133.212119 584.85889 
L 138.928634 589.770615 
L 144.645149 594.245157 
L 150.361663 592.33238 
L 156.078178 596.523982 
L 161.794693 590.242543 
L 167.511208 586.882182 
L 173.227723 594.844803 
L 178.944238 585.297035 
L 184.660752 586.279167 
L 190.377267 592.006192 
L 196.093782 592.890414 
L 201.810297 584.782935 
L 207.526812 586.564304 
L 213.243327 584.201644 
L 218.959842 588.921037 
L 224.676356 597.43054 
L 230.392871 582.783004 
L 236.109386 588.782306 
L 241.825901 598.709362 
L 247.542416 619.192072 
L 253.258931 617.698207 
L 258.975446 596.96988 
L 264.69196 601.495159 
L 276.12499 582.215945 
L 281.841505 620.967844 
L 287.55802 641.197742 
L 293.274535 636.816962 
L 298.99105 639.176831 
L 304.707564 635.451394 
L 310.424079 640.840455 
L 316.140594 619.597764 
L 321.857109 618.21964 
L 327.573624 632.684482 
L 333.290139 627.275546 
L 339.006653 630.095783 
L 344.723168 636.784257 
L 350.439683 627.883163 
L 356.156198 616.679841 
L 361.872713 621.874902 
L 367.589228 625.861401 
L 373.305743 632.30454 
L 379.022257 642.48209 
L 384.738772 634.964316 
L 390.455287 636.241113 
L 396.171802 633.618818 
L 401.888317 637.015324 
L 407.604832 631.444909 
L 413.321347 636.814168 
L 419.037861 634.837379 
L 424.754376 627.830813 
L 430.470891 632.380567 
L 436.187406 628.677774 
L 441.903921 641.720694 
L 447.620436 634.749468 
L 453.33695 637.409595 
L 459.053465 612.933861 
L 464.76998 610.538979 
L 470.486495 629.463219 
L 476.20301 631.679197 
L 481.919525 628.87046 
L 487.63604 636.308176 
L 493.352554 624.613208 
L 499.069069 591.281615 
L 504.785584 592.511672 
L 510.502099 596.695786 
L 516.218614 618.029092 
L 521.935129 627.207478 
L 527.651644 613.303075 
L 533.368158 585.845373 
L 539.084673 582.358205 
L 544.801188 613.208393 
L 550.517703 597.04493 
L 556.234218 623.068744 
L 561.950733 596.230671 
L 567.667248 625.374592 
L 573.383762 583.641472 
L 579.100277 591.214979 
L 584.816792 564.88763 
L 590.533307 580.332005 
L 596.249822 606.292635 
L 601.966337 576.325626 
L 607.682851 577.829007 
L 613.399366 588.433107 
L 619.115881 601.177451 
L 624.832396 596.148344 
L 630.548911 616.044396 
L 636.265426 635.361261 
L 641.981941 643.691941 
L 647.698455 639.605577 
L 653.41497 626.808019 
L 659.131485 627.033722 
L 664.848 597.965038 
L 670.564515 610.365944 
L 676.28103 625.862618 
L 681.997545 632.816353 
L 700.84 632.672571 
L 700.84 632.672571 
" clip-path="url(#pbb26fe7f4b)" style="fill: none; stroke: #00264c; stroke-opacity: 0; stroke-width: 1.5; stroke-linecap: square"/>
   </g>
   <g id="OBSERVED-FORECAST-LINE">
    <path d="M 87.48 541.82617 
L 93.196515 508.201706 
L 98.91303 536.750775 
L 104.629545 528.503263 
L 110.346059 532.732754 
L 116.062574 553.034321 
L 121.779089 535.481924 
L 127.495604 522.581975 
L 133.212119 520.044283 
L 138.928634 504.183684 
L 144.645149 538.561848 
L 150.361663 481.999633 
L 156.078178 507.138396 
L 161.794693 498.03643 
L 167.511208 490.014883 
L 173.227723 541.82617 
L 178.944238 532.309807 
L 184.660752 498.262395 
L 190.377267 516.872165 
L 196.093782 519.409857 
L 201.810297 528.714742 
L 207.526812 560.647408 
L 213.243327 571.644086 
L 218.959842 589.9035 
L 224.676356 454.187654 
L 230.392871 491.163008 
L 236.109386 561.501181 
L 241.825901 625.039287 
L 247.542416 628.530759 
L 253.258931 583.909615 
L 258.975446 585.812886 
L 264.69196 588.985004 
L 270.408475 526.17704 
L 276.12499 625.781589 
L 281.841505 637.624168 
L 287.55802 647.140525 
L 293.274535 636.778269 
L 298.99105 643.545457 
L 304.707564 646.294627 
L 310.424079 632.337303 
L 316.140594 613.304586 
L 321.857109 635.93237 
L 327.573624 633.183201 
L 333.290139 634.663523 
L 339.006653 642.276609 
L 344.723168 627.261911 
L 350.439683 615.207858 
L 356.156198 623.878317 
L 361.872713 634.0291 
L 367.589228 639.10449 
L 373.305743 645.448729 
L 379.022257 633.394675 
L 384.738772 645.448729 
L 390.455287 638.681541 
L 396.171802 641.430711 
L 401.888317 642.699559 
L 407.604832 635.297947 
L 413.321347 639.950388 
L 419.037861 641.219236 
L 424.754376 634.874997 
L 430.470891 638.258591 
L 436.187406 642.065135 
L 441.903921 638.250035 
L 447.620436 634.999333 
L 453.33695 619.561598 
L 459.053465 605.309586 
L 464.76998 626.980935 
L 470.486495 639.315964 
L 476.20301 626.416013 
L 481.919525 639.10449 
L 487.63604 624.301267 
L 493.352554 576.508002 
L 499.069069 568.260495 
L 504.785584 589.830903 
L 510.502099 609.286569 
L 516.218614 617.697764 
L 521.935129 619.726737 
L 527.651644 548.326061 
L 533.368158 513.263224 
L 539.084673 598.264035 
L 544.801188 580.314545 
L 550.517703 631.491404 
L 556.234218 590.042377 
L 561.950733 635.509422 
L 567.667248 579.891598 
L 573.383762 577.565374 
L 579.100277 511.79677 
L 584.816792 521.736081 
L 590.533307 607.171822 
L 596.249822 536.11635 
L 601.966337 528.291795 
L 607.682851 579.468646 
L 613.399366 601.462007 
L 619.115881 594.483346 
L 624.832396 617.957029 
L 630.548911 643.968406 
L 636.265426 646.717576 
L 641.981941 642.488084 
L 647.698455 625.147166 
L 653.41497 635.297947 
L 659.131485 595.117771 
L 664.848 601.462007 
L 670.564515 621.975045 
L 676.28103 638.047117 
L 676.28103 638.047117 
" clip-path="url(#pbb26fe7f4b)" style="fill: none; stroke-dasharray: 1.5,2.475; stroke-dashoffset: 0; stroke: #af3331; stroke-width: 1.5"/>
   </g>
   <g id="PI-missed-dummy">
    <defs>
     <path id="m0874fa9ff1" d="M 0 3.9975 
C 1.060149 3.9975 2.077021 3.576298 2.826659 2.826659 
C 3.576298 2.077021 3.9975 1.060149 3.9975 0 
C 3.9975 -1.060149 3.576298 -2.077021 2.826659 -2.826659 
C 2.077021 -3.576298 1.060149 -3.9975 0 -3.9975 
C -1.060149 -3.9975 -2.077021 -3.576298 -2.826659 -2.826659 
C -3.576298 -2.077021 -3.9975 -1.060149 -3.9975 0 
C -3.9975 1.060149 -3.576298 2.077021 -2.826659 2.826659 
C -2.077021 3.576298 -1.060149 3.9975 0 3.9975 
z
" style="stroke: #595959"/>
    </defs>
    <g clip-path="url(#pbb26fe7f4b)"/>
   </g>
   <g id="patch_9">
    <path d="M 87.48 647.352 
L 87.48 384.912 
" style="fill: none; stroke: #949494; stroke-width: 0.8; stroke-linejoin: miter; stroke-linecap: square"/>
   </g>
   <g id="patch_10">
    <path d="M 87.48 647.352 
L 664.848 647.352 
" style="fill: none; stroke: #949494; stroke-width: 0.8; stroke-linejoin: miter; stroke-linecap: square"/>
   </g>
   <g id="PI-missed-0">
    <defs>
     <path id="m0b16a99639" d="M 0 4 
C 1.060812 4 2.078319 3.578535 2.828427 2.828427 
C 3.578535 2.078319 4 1.060812 4 0 
C 4 -1.060812 3.578535 -2.078319 2.828427 -2.828427 
C 2.078319 -3.578535 1.060812 -4 0 -4 
C -1.060812 -4 -2.078319 -3.578535 -2.828427 -2.828427 
C -3.578535 -2.078319 -4 -1.060812 -4 0 
C -4 1.060812 -3.578535 2.078319 -2.828427 2.828427 
C -2.078319 3.578535 -1.060812 4 0 4 
z
" style="stroke: #595959; stroke-opacity: 0"/>
    </defs>
    <g>
     <use xlink:href="#m0b16a99639" x="276.12499" y="625.781589" style="fill-opacity: 0; stroke: #595959; stroke-opacity: 0"/>
     <use xlink:href="#m0b16a99639" x="493.352554" y="576.508002" style="fill-opacity: 0; stroke: #595959; stroke-opacity: 0"/>
     <use xlink:href="#m0b16a99639" x="550.517703" y="631.491404" style="fill-opacity: 0; stroke: #595959; stroke-opacity: 0"/>
     <use xlink:href="#m0b16a99639" x="561.950733" y="635.509422" style="fill-opacity: 0; stroke: #595959; stroke-opacity: 0"/>
     <use xlink:href="#m0b16a99639" x="567.667248" y="579.891598" style="fill-opacity: 0; stroke: #595959; stroke-opacity: 0"/>
     <use xlink:href="#m0b16a99639" x="630.548911" y="643.968406" style="fill-opacity: 0; stroke: #595959; stroke-opacity: 0"/>
    </g>
   </g>
   <g id="PI-missed-1">
    <defs>
     <path id="m37d66bdb32" d="M 0 4.0025 
C 1.061475 4.0025 2.079618 3.580771 2.830195 2.830195 
C 3.580771 2.079618 4.0025 1.061475 4.0025 0 
C 4.0025 -1.061475 3.580771 -2.079618 2.830195 -2.830195 
C 2.079618 -3.580771 1.061475 -4.0025 0 -4.0025 
C -1.061475 -4.0025 -2.079618 -3.580771 -2.830195 -2.830195 
C -3.580771 -2.079618 -4.0025 -1.061475 -4.0025 0 
C -4.0025 1.061475 -3.580771 2.079618 -2.830195 2.830195 
C -2.079618 3.580771 -1.061475 4.0025 0 4.0025 
z
" style="stroke: #595959; stroke-opacity: 0"/>
    </defs>
    <g>
     <use xlink:href="#m37d66bdb32" x="241.825901" y="625.039287" style="fill-opacity: 0; stroke: #595959; stroke-opacity: 0"/>
     <use xlink:href="#m37d66bdb32" x="253.258931" y="583.909615" style="fill-opacity: 0; stroke: #595959; stroke-opacity: 0"/>
     <use xlink:href="#m37d66bdb32" x="276.12499" y="625.781589" style="fill-opacity: 0; stroke: #595959; stroke-opacity: 0"/>
     <use xlink:href="#m37d66bdb32" x="281.841505" y="637.624168" style="fill-opacity: 0; stroke: #595959; stroke-opacity: 0"/>
     <use xlink:href="#m37d66bdb32" x="287.55802" y="647.140525" style="fill-opacity: 0; stroke: #595959; stroke-opacity: 0"/>
     <use xlink:href="#m37d66bdb32" x="304.707564" y="646.294627" style="fill-opacity: 0; stroke: #595959; stroke-opacity: 0"/>
     <use xlink:href="#m37d66bdb32" x="321.857109" y="635.93237" style="fill-opacity: 0; stroke: #595959; stroke-opacity: 0"/>
     <use xlink:href="#m37d66bdb32" x="339.006653" y="642.276609" style="fill-opacity: 0; stroke: #595959; stroke-opacity: 0"/>
     <use xlink:href="#m37d66bdb32" x="367.589228" y="639.10449" style="fill-opacity: 0; stroke: #595959; stroke-opacity: 0"/>
     <use xlink:href="#m37d66bdb32" x="373.305743" y="645.448729" style="fill-opacity: 0; stroke: #595959; stroke-opacity: 0"/>
     <use xlink:href="#m37d66bdb32" x="384.738772" y="645.448729" style="fill-opacity: 0; stroke: #595959; stroke-opacity: 0"/>
     <use xlink:href="#m37d66bdb32" x="436.187406" y="642.065135" style="fill-opacity: 0; stroke: #595959; stroke-opacity: 0"/>
     <use xlink:href="#m37d66bdb32" x="464.76998" y="626.980935" style="fill-opacity: 0; stroke: #595959; stroke-opacity: 0"/>
     <use xlink:href="#m37d66bdb32" x="493.352554" y="576.508002" style="fill-opacity: 0; stroke: #595959; stroke-opacity: 0"/>
     <use xlink:href="#m37d66bdb32" x="544.801188" y="580.314545" style="fill-opacity: 0; stroke: #595959; stroke-opacity: 0"/>
     <use xlink:href="#m37d66bdb32" x="550.517703" y="631.491404" style="fill-opacity: 0; stroke: #595959; stroke-opacity: 0"/>
     <use xlink:href="#m37d66bdb32" x="556.234218" y="590.042377" style="fill-opacity: 0; stroke: #595959; stroke-opacity: 0"/>
     <use xlink:href="#m37d66bdb32" x="561.950733" y="635.509422" style="fill-opacity: 0; stroke: #595959; stroke-opacity: 0"/>
     <use xlink:href="#m37d66bdb32" x="567.667248" y="579.891598" style="fill-opacity: 0; stroke: #595959; stroke-opacity: 0"/>
     <use xlink:href="#m37d66bdb32" x="590.533307" y="607.171822" style="fill-opacity: 0; stroke: #595959; stroke-opacity: 0"/>
     <use xlink:href="#m37d66bdb32" x="624.832396" y="617.957029" style="fill-opacity: 0; stroke: #595959; stroke-opacity: 0"/>
     <use xlink:href="#m37d66bdb32" x="630.548911" y="643.968406" style="fill-opacity: 0; stroke: #595959; stroke-opacity: 0"/>
     <use xlink:href="#m37d66bdb32" x="636.265426" y="646.717576" style="fill-opacity: 0; stroke: #595959; stroke-opacity: 0"/>
     <use xlink:href="#m37d66bdb32" x="659.131485" y="595.117771" style="fill-opacity: 0; stroke: #595959; stroke-opacity: 0"/>
    </g>
   </g>
   <g id="PI-missed-2">
    <defs>
     <path id="m2839846d26" d="M 0 4.005 
C 1.062138 4.005 2.080917 3.583008 2.831963 2.831963 
C 3.583008 2.080917 4.005 1.062138 4.005 0 
C 4.005 -1.062138 3.583008 -2.080917 2.831963 -2.831963 
C 2.080917 -3.583008 1.062138 -4.005 0 -4.005 
C -1.062138 -4.005 -2.080917 -3.583008 -2.831963 -2.831963 
C -3.583008 -2.080917 -4.005 -1.062138 -4.005 0 
C -4.005 1.062138 -3.583008 2.080917 -2.831963 2.831963 
C -2.080917 3.583008 -1.062138 4.005 0 4.005 
z
" style="stroke: #595959; stroke-opacity: 0"/>
    </defs>
    <g>
     <use xlink:href="#m2839846d26" x="213.243327" y="571.644086" style="fill-opacity: 0; stroke: #595959; stroke-opacity: 0"/>
     <use xlink:href="#m2839846d26" x="241.825901" y="625.039287" style="fill-opacity: 0; stroke: #595959; stroke-opacity: 0"/>
     <use xlink:href="#m2839846d26" x="253.258931" y="583.909615" style="fill-opacity: 0; stroke: #595959; stroke-opacity: 0"/>
     <use xlink:href="#m2839846d26" x="258.975446" y="585.812886" style="fill-opacity: 0; stroke: #595959; stroke-opacity: 0"/>
     <use xlink:href="#m2839846d26" x="264.69196" y="588.985004" style="fill-opacity: 0; stroke: #595959; stroke-opacity: 0"/>
     <use xlink:href="#m2839846d26" x="276.12499" y="625.781589" style="fill-opacity: 0; stroke: #595959; stroke-opacity: 0"/>
     <use xlink:href="#m2839846d26" x="281.841505" y="637.624168" style="fill-opacity: 0; stroke: #595959; stroke-opacity: 0"/>
     <use xlink:href="#m2839846d26" x="287.55802" y="647.140525" style="fill-opacity: 0; stroke: #595959; stroke-opacity: 0"/>
     <use xlink:href="#m2839846d26" x="298.99105" y="643.545457" style="fill-opacity: 0; stroke: #595959; stroke-opacity: 0"/>
     <use xlink:href="#m2839846d26" x="304.707564" y="646.294627" style="fill-opacity: 0; stroke: #595959; stroke-opacity: 0"/>
     <use xlink:href="#m2839846d26" x="321.857109" y="635.93237" style="fill-opacity: 0; stroke: #595959; stroke-opacity: 0"/>
     <use xlink:href="#m2839846d26" x="339.006653" y="642.276609" style="fill-opacity: 0; stroke: #595959; stroke-opacity: 0"/>
     <use xlink:href="#m2839846d26" x="350.439683" y="615.207858" style="fill-opacity: 0; stroke: #595959; stroke-opacity: 0"/>
     <use xlink:href="#m2839846d26" x="361.872713" y="634.0291" style="fill-opacity: 0; stroke: #595959; stroke-opacity: 0"/>
     <use xlink:href="#m2839846d26" x="367.589228" y="639.10449" style="fill-opacity: 0; stroke: #595959; stroke-opacity: 0"/>
     <use xlink:href="#m2839846d26" x="373.305743" y="645.448729" style="fill-opacity: 0; stroke: #595959; stroke-opacity: 0"/>
     <use xlink:href="#m2839846d26" x="384.738772" y="645.448729" style="fill-opacity: 0; stroke: #595959; stroke-opacity: 0"/>
     <use xlink:href="#m2839846d26" x="396.171802" y="641.430711" style="fill-opacity: 0; stroke: #595959; stroke-opacity: 0"/>
     <use xlink:href="#m2839846d26" x="401.888317" y="642.699559" style="fill-opacity: 0; stroke: #595959; stroke-opacity: 0"/>
     <use xlink:href="#m2839846d26" x="419.037861" y="641.219236" style="fill-opacity: 0; stroke: #595959; stroke-opacity: 0"/>
     <use xlink:href="#m2839846d26" x="436.187406" y="642.065135" style="fill-opacity: 0; stroke: #595959; stroke-opacity: 0"/>
     <use xlink:href="#m2839846d26" x="453.33695" y="619.561598" style="fill-opacity: 0; stroke: #595959; stroke-opacity: 0"/>
     <use xlink:href="#m2839846d26" x="464.76998" y="626.980935" style="fill-opacity: 0; stroke: #595959; stroke-opacity: 0"/>
     <use xlink:href="#m2839846d26" x="470.486495" y="639.315964" style="fill-opacity: 0; stroke: #595959; stroke-opacity: 0"/>
     <use xlink:href="#m2839846d26" x="481.919525" y="639.10449" style="fill-opacity: 0; stroke: #595959; stroke-opacity: 0"/>
     <use xlink:href="#m2839846d26" x="487.63604" y="624.301267" style="fill-opacity: 0; stroke: #595959; stroke-opacity: 0"/>
     <use xlink:href="#m2839846d26" x="493.352554" y="576.508002" style="fill-opacity: 0; stroke: #595959; stroke-opacity: 0"/>
     <use xlink:href="#m2839846d26" x="544.801188" y="580.314545" style="fill-opacity: 0; stroke: #595959; stroke-opacity: 0"/>
     <use xlink:href="#m2839846d26" x="550.517703" y="631.491404" style="fill-opacity: 0; stroke: #595959; stroke-opacity: 0"/>
     <use xlink:href="#m2839846d26" x="556.234218" y="590.042377" style="fill-opacity: 0; stroke: #595959; stroke-opacity: 0"/>
     <use xlink:href="#m2839846d26" x="561.950733" y="635.509422" style="fill-opacity: 0; stroke: #595959; stroke-opacity: 0"/>
     <use xlink:href="#m2839846d26" x="567.667248" y="579.891598" style="fill-opacity: 0; stroke: #595959; stroke-opacity: 0"/>
     <use xlink:href="#m2839846d26" x="590.533307" y="607.171822" style="fill-opacity: 0; stroke: #595959; stroke-opacity: 0"/>
     <use xlink:href="#m2839846d26" x="619.115881" y="594.483346" style="fill-opacity: 0; stroke: #595959; stroke-opacity: 0"/>
     <use xlink:href="#m2839846d26" x="624.832396" y="617.957029" style="fill-opacity: 0; stroke: #595959; stroke-opacity: 0"/>
     <use xlink:href="#m2839846d26" x="630.548911" y="643.968406" style="fill-opacity: 0; stroke: #595959; stroke-opacity: 0"/>
     <use xlink:href="#m2839846d26" x="636.265426" y="646.717576" style="fill-opacity: 0; stroke: #595959; stroke-opacity: 0"/>
     <use xlink:href="#m2839846d26" x="647.698455" y="625.147166" style="fill-opacity: 0; stroke: #595959; stroke-opacity: 0"/>
     <use xlink:href="#m2839846d26" x="653.41497" y="635.297947" style="fill-opacity: 0; stroke: #595959; stroke-opacity: 0"/>
     <use xlink:href="#m2839846d26" x="659.131485" y="595.117771" style="fill-opacity: 0; stroke: #595959; stroke-opacity: 0"/>
    </g>
   </g>
   <g id="text_17">
    <text style="font-weight: 800; font-size: 20px; font-family: 'Source Sans 3', sans-serif; text-anchor: start" x="87.48" y="378.912" transform="rotate(-0 87.48 378.912)">Streamflow percentile</text>
   </g>
   <g id="legend-pi">
    <g id="patch_11">
     <path d="M 98.68 420.817 
L 423.7 420.817 
Q 426.9 420.817 426.9 417.617 
L 426.9 396.112 
Q 426.9 392.912 423.7 392.912 
L 98.68 392.912 
Q 95.48 392.912 95.48 396.112 
L 95.48 417.617 
Q 95.48 420.817 98.68 420.817 
L 98.68 420.817 
z
" style="fill: none; opacity: 0.8"/>
    </g>
    <g id="line2d_21">
     <path d="M 101.88 405.2645 
L 117.88 405.2645 
L 133.88 405.2645 
" style="fill: none; stroke-dasharray: 1.5,2.475; stroke-dashoffset: 0; stroke: #af3331; stroke-width: 1.5"/>
    </g>
    <g id="text_18">
     <text style="font-weight: 300; font-size: 16px; font-family: 'Source Sans 3', sans-serif; text-anchor: start; fill: #494949" x="146.68" y="410.8645" transform="rotate(-0 146.68 410.8645)">Observations</text>
    </g>
    <g id="line2d_22">
     <g>
      <use xlink:href="#m0874fa9ff1" x="278.8375" y="405.2645" style="fill-opacity: 0; stroke: #595959"/>
     </g>
    </g>
    <g id="text_19">
     <text style="font-weight: 300; font-size: 16px; font-family: 'Source Sans 3', sans-serif; text-anchor: start; fill: #494949" x="307.6375" y="410.8645" transform="rotate(-0 307.6375 410.8645)">Missed Prediction</text>
    </g>
   </g>
   <g id="legend-pi">
    <g id="patch_12">
     <path d="M 98.68 420.817 
L 423.7 420.817 
Q 426.9 420.817 426.9 417.617 
L 426.9 396.112 
Q 426.9 392.912 423.7 392.912 
L 98.68 392.912 
Q 95.48 392.912 95.48 396.112 
L 95.48 417.617 
Q 95.48 420.817 98.68 420.817 
L 98.68 420.817 
z
" style="fill: none; opacity: 0.8"/>
    </g>
    <g id="line2d_23">
     <path d="M 101.88 405.2645 
L 117.88 405.2645 
L 133.88 405.2645 
" style="fill: none; stroke-dasharray: 1.5,2.475; stroke-dashoffset: 0; stroke: #af3331; stroke-width: 1.5"/>
    </g>
    <g id="text_20">
     <text style="font-weight: 300; font-size: 16px; font-family: 'Source Sans 3', sans-serif; text-anchor: start; fill: #494949" x="146.68" y="410.8645" transform="rotate(-0 146.68 410.8645)">Observations</text>
    </g>
    <g id="line2d_24">
     <g>
      <use xlink:href="#m0874fa9ff1" x="278.8375" y="405.2645" style="fill-opacity: 0; stroke: #595959"/>
     </g>
    </g>
    <g id="text_21">
     <text style="font-weight: 300; font-size: 16px; font-family: 'Source Sans 3', sans-serif; text-anchor: start; fill: #494949" x="307.6375" y="410.8645" transform="rotate(-0 307.6375 410.8645)">Missed Prediction</text>
    </g>
   </g>
  </g>
 </g>
 <defs>
  <clipPath id="p0287ec4299">
   <rect x="87.48" y="34.992" width="577.368" height="262.44"/>
  </clipPath>
  <clipPath id="pbb26fe7f4b">
   <rect x="87.48" y="384.912" width="577.368" height="262.44"/>
  </clipPath>
 </defs>
</svg>
