<?xml version="1.0" encoding="utf-8" standalone="no"?>
<!DOCTYPE svg PUBLIC "-//W3C//DTD SVG 1.1//EN"
  "http://www.w3.org/Graphics/SVG/1.1/DTD/svg11.dtd">
<svg xmlns:xlink="http://www.w3.org/1999/xlink" width="1199.52px" height="399.6px" viewBox="0 0 1199.52 399.6" xmlns="http://www.w3.org/2000/svg" version="1.1">
  <defs>
  <style type="text/css">*{stroke-linejoin: round; stroke-linecap: butt}</style>
 </defs>
 <g id="figure-predictioninterval">
  <g id="patch_1">
   <path d="M 0 399.6 
L 1199.52 399.6 
L 1199.52 0 
L 0 0 
z
" style="fill: #ffffff"/>
  </g>
  <g id="axis-predictioninterval1">
   <g id="patch_2">
    <path d="M 74.97 339.66 
L 404.838 339.66 
L 404.838 39.96 
L 74.97 39.96 
z
" style="fill: #ffffff"/>
   </g>
   <g id="LF-LOWER-MEDIAN">
    <path d="M 74.97 189.81 
L 239.904 339.66 
L 404.838 189.81 
" clip-path="url(#pbd0facae40)" style="fill: none; stroke: #00264c; stroke-opacity: 0; stroke-width: 1.5; stroke-linecap: square"/>
   </g>
   <g id="matplotlib.axis_1">
    <g id="xtick_1">
     <g id="line2d_1">
      <defs>
       <path id="mca761a248c" d="M 0 0 
L 0 3.5 
" style="stroke: #949494; stroke-width: 0.8"/>
      </defs>
      <g>
       <use xlink:href="#mca761a248c" x="74.97" y="339.66" style="fill: #949494; stroke: #949494; stroke-width: 0.8"/>
      </g>
     </g>
     <g id="text_1">
      <text style="font-weight: 300; font-size: 16px; font-family: 'Source Sans 3', sans-serif; text-anchor: middle; fill: #494949" x="74.97" y="358.2125" transform="rotate(-0 74.97 358.2125)">Lower</text>
     </g>
    </g>
    <g id="xtick_2">
     <g id="line2d_2">
      <g>
       <use xlink:href="#mca761a248c" x="239.904" y="339.66" style="fill: #949494; stroke: #949494; stroke-width: 0.8"/>
      </g>
     </g>
     <g id="text_2">
      <text style="font-weight: 300; font-size: 16px; font-family: 'Source Sans 3', sans-serif; text-anchor: middle; fill: #494949" x="239.904" y="358.2125" transform="rotate(-0 239.904 358.2125)">Median</text>
     </g>
    </g>
    <g id="xtick_3">
     <g id="line2d_3">
      <g>
       <use xlink:href="#mca761a248c" x="404.838" y="339.66" style="fill: #949494; stroke: #949494; stroke-width: 0.8"/>
      </g>
     </g>
     <g id="text_3">
      <text style="font-weight: 300; font-size: 16px; font-family: 'Source Sans 3', sans-serif; text-anchor: middle; fill: #494949" x="404.838" y="358.2125" transform="rotate(-0 404.838 358.2125)">Upper</text>
     </g>
    </g>
    <g id="text_4">
     <text style="font-weight: 600; font-size: 16px; font-family: 'Source Sans 3', sans-serif; text-anchor: middle; fill: #494949" x="239.904" y="377.3175" transform="rotate(-0 239.904 377.3175)">Estimate</text>
    </g>
   </g>
   <g id="matplotlib.axis_2">
    <g id="ytick_1">
     <g id="line2d_4">
      <defs>
       <path id="m409c535ece" d="M 0 0 
L -3.5 0 
" style="stroke: #949494; stroke-width: 0.8"/>
      </defs>
      <g>
       <use xlink:href="#m409c535ece" x="74.97" y="339.66" style="fill: #949494; stroke: #949494; stroke-width: 0.8"/>
      </g>
     </g>
     <g id="text_5">
      <text style="font-weight: 300; font-size: 16px; font-family: 'Source Sans 3', sans-serif; fill: #494949" transform="translate(40.1625 329.176)">Less</text>
      <text style="font-weight: 300; font-size: 16px; font-family: 'Source Sans 3', sans-serif; fill: #494949" transform="translate(20.1625 346.5915)">Penalty</text>
      <text style="font-weight: 300; font-size: 16px; font-family: 'Source Sans 3', sans-serif; fill: #494949" transform="translate(67.97 364.007)"/>
     </g>
    </g>
    <g id="ytick_2">
     <g id="line2d_5">
      <g>
       <use xlink:href="#m409c535ece" x="74.97" y="189.81" style="fill: #949494; stroke: #949494; stroke-width: 0.8"/>
      </g>
     </g>
    </g>
    <g id="ytick_3">
     <g id="line2d_6">
      <g>
       <use xlink:href="#m409c535ece" x="74.97" y="39.96" style="fill: #949494; stroke: #949494; stroke-width: 0.8"/>
      </g>
     </g>
     <g id="text_6">
      <text style="font-weight: 300; font-size: 16px; font-family: 'Source Sans 3', sans-serif; fill: #494949" transform="translate(35.7475 38.18375)">More</text>
      <text style="font-weight: 300; font-size: 16px; font-family: 'Source Sans 3', sans-serif; fill: #494949" transform="translate(20.1625 55.59925)">Penalty</text>
     </g>
    </g>
   </g>
   <g id="LF-LOWER-0">
    <path d="M 74.97 324.675 
L 239.904 339.66 
L 404.838 54.945 
" clip-path="url(#pbd0facae40)" style="fill: none; stroke: #b78935; stroke-opacity: 0; stroke-width: 1.5; stroke-linecap: square"/>
   </g>
   <g id="LF-UPPER-0">
    <path d="M 74.97 54.945 
L 239.904 339.66 
L 404.838 324.675 
" clip-path="url(#pbd0facae40)" style="fill: none; stroke: #406992; stroke-opacity: 0; stroke-width: 1.5; stroke-linecap: square"/>
   </g>
   <g id="LF-LOWER-1">
    <path d="M 74.97 302.1975 
L 239.904 339.66 
L 404.838 77.4225 
" clip-path="url(#pbd0facae40)" style="fill: none; stroke: #b78935; stroke-opacity: 0; stroke-width: 1.5; stroke-linecap: square"/>
   </g>
   <g id="LF-UPPER-1">
    <path d="M 74.97 77.4225 
L 239.904 339.66 
L 404.838 302.1975 
" clip-path="url(#pbd0facae40)" style="fill: none; stroke: #406992; stroke-opacity: 0; stroke-width: 1.5; stroke-linecap: square"/>
   </g>
   <g id="LF-LOWER-2">
    <path d="M 74.97 264.735 
L 239.904 339.66 
L 404.838 114.885 
" clip-path="url(#pbd0facae40)" style="fill: none; stroke: #b78935; stroke-opacity: 0; stroke-width: 1.5; stroke-linecap: square"/>
   </g>
   <g id="LF-UPPER-2">
    <path d="M 74.97 114.885 
L 239.904 339.66 
L 404.838 264.735 
" clip-path="url(#pbd0facae40)" style="fill: none; stroke: #406992; stroke-opacity: 0; stroke-width: 1.5; stroke-linecap: square"/>
   </g>
   <g id="patch_3">
    <path d="M 74.97 339.66 
L 74.97 39.96 
" style="fill: none; stroke: #949494; stroke-width: 0.8; stroke-linejoin: miter; stroke-linecap: square"/>
   </g>
   <g id="patch_4">
    <path d="M 74.97 339.66 
L 404.838 339.66 
" style="fill: none; stroke: #949494; stroke-width: 0.8; stroke-linejoin: miter; stroke-linecap: square"/>
   </g>
   <g id="text_7">
    <text style="font-weight: 800; font-size: 20px; font-family: 'Source Sans 3', sans-serif; text-anchor: start" x="74.97" y="33.96" transform="rotate(-0 74.97 33.96)">Loss function</text>
   </g>
  </g>
  <g id="axis-predictioninterval2">
   <g id="patch_5">
    <path d="M 474.81 339.66 
L 1134.546 339.66 
L 1134.546 39.96 
L 474.81 39.96 
z
" style="fill: #ffffff"/>
   </g>
   <g id="PI-PATCH-0">
    <path d="M 474.81 208.299735 
L 474.81 278.886183 
L 481.34204 267.403654 
L 487.874079 265.660227 
L 494.406119 279.584014 
L 500.938158 267.13042 
L 507.470198 279.342294 
L 514.002238 289.130012 
L 520.534277 264.509885 
L 527.066317 252.782361 
L 533.598356 262.838335 
L 540.130396 265.250258 
L 546.662436 269.469025 
L 553.194475 266.854127 
L 559.726515 256.264803 
L 566.258554 247.739432 
L 572.790594 257.200216 
L 579.322634 266.48882 
L 585.854673 262.638835 
L 592.386713 254.996556 
L 598.918752 259.880172 
L 605.450792 249.983037 
L 611.982832 260.509099 
L 618.514871 277.008039 
L 625.046911 288.201115 
L 631.57895 301.191476 
L 638.11099 269.093011 
L 644.64303 278.143226 
L 651.175069 314.546552 
L 657.707109 317.334048 
L 664.239149 317.368262 
L 670.771188 306.093569 
L 677.303228 315.878664 
L 683.835267 290.140641 
L 690.367307 294.804833 
L 696.899347 321.192122 
L 703.431386 339.66 
L 709.963426 339.66 
L 716.495465 337.829497 
L 723.027505 337.287545 
L 729.559545 339.66 
L 736.091584 322.231872 
L 742.623624 328.468156 
L 749.155663 339.66 
L 755.687703 333.343174 
L 762.219743 334.38886 
L 768.751782 338.848987 
L 775.283822 335.310868 
L 781.815861 326.281926 
L 788.347901 328.528793 
L 794.879941 329.749869 
L 801.41198 336.324745 
L 807.94402 339.66 
L 814.476059 335.904345 
L 821.008099 336.731762 
L 827.540139 333.543563 
L 834.072178 338.809011 
L 840.604218 330.290859 
L 847.136257 339.025143 
L 853.668297 335.819451 
L 860.200337 329.39332 
L 866.732376 335.691871 
L 873.264416 335.293023 
L 879.796455 339.66 
L 886.328495 339.66 
L 892.860535 339.66 
L 899.392574 317.227645 
L 905.924614 317.800322 
L 912.456653 339.66 
L 918.988693 339.66 
L 925.520733 339.338077 
L 932.052772 339.66 
L 938.584812 328.112545 
L 945.116851 288.33362 
L 951.648891 294.446688 
L 958.180931 302.672083 
L 964.71297 326.332821 
L 971.24501 339.66 
L 977.77705 315.937882 
L 984.309089 277.925252 
L 990.841129 266.184986 
L 997.373168 333.067674 
L 1003.905208 313.987527 
L 1010.437248 327.707586 
L 1016.969287 310.248196 
L 1023.501327 322.912277 
L 1030.033366 275.558722 
L 1036.565406 293.787484 
L 1043.097446 260.978947 
L 1049.629485 296.541823 
L 1056.161525 295.627437 
L 1062.693564 267.094927 
L 1069.225604 272.641888 
L 1075.757644 298.508113 
L 1082.289683 310.606784 
L 1088.821723 308.855134 
L 1095.353762 326.714882 
L 1101.885802 339.66 
L 1108.417842 339.66 
L 1114.949881 339.66 
L 1121.481921 332.708316 
L 1128.01396 330.969168 
L 1134.546 304.401017 
L 1141.07804 320.830492 
L 1147.610079 336.13932 
L 1154.142119 333.745463 
L 6608.395188 307.025993 
L 6614.927228 297.918746 
L 6621.459267 307.030169 
L 6627.991307 304.822093 
L 6634.523347 298.173771 
L 6641.055386 274.869539 
L 6647.587426 282.640104 
L 6654.119465 260.112792 
L 6660.651505 265.474498 
L 6667.183545 283.196085 
L 6673.715584 254.012514 
L 6680.247624 253.976387 
L 6686.779663 271.35827 
L 6693.311703 266.12082 
L 6699.843743 254.4134 
L 6706.375782 256.710184 
L 6712.907822 260.328332 
L 6719.439861 259.213757 
L 6725.971901 261.774076 
L 6732.503941 258.720884 
L 6739.03598 261.961234 
L 6745.56802 269.662208 
L 6752.100059 267.613684 
L 6758.632099 272.569422 
L 6765.164139 281.634117 
L 6771.696178 293.860522 
L 6778.228218 262.681376 
L 6784.760257 257.743867 
L 6791.292297 269.990925 
L 6797.824337 267.673854 
L 6804.356376 269.964716 
L 6810.888416 299.155575 
L 6817.420455 254.590286 
L 6823.952495 281.356286 
L 6830.484535 286.34814 
L 6837.016574 259.628436 
L 6843.548614 263.670906 
L 6850.080653 253.384696 
L 6856.612693 269.245345 
L 6863.144733 252.839279 
L 6869.676772 253.638106 
L 6876.208812 253.692126 
L 6882.740851 257.357798 
L 6889.272891 256.578406 
L 6895.804931 258.878598 
L 6902.33697 261.411724 
L 6908.86901 259.077348 
L 6915.40105 264.975617 
L 6921.933089 265.001724 
L 6928.465129 253.420137 
L 6934.997168 287.420163 
L 6941.529208 266.471739 
L 6948.061248 265.172739 
L 6954.593287 267.389609 
L 6961.125327 263.491545 
L 6967.657366 263.057208 
L 6974.189406 262.87053 
L 6980.721446 266.981401 
L 6987.253485 255.031032 
L 6993.785525 258.76821 
L 7000.317564 267.87907 
L 7006.849604 303.534054 
L 7013.381644 265.031523 
L 7019.913683 279.149271 
L 7026.445723 306.550789 
L 7032.977762 281.765632 
L 7039.509802 250.621888 
L 7046.041842 273.517571 
L 7052.573881 276.146737 
L 7059.105921 262.038724 
L 7065.63796 264.132202 
L 7072.17 310.171 
L 7078.70204 304.905623 
L 7085.234079 313.050767 
L 7091.766119 298.10719 
L 7098.298158 280.96206 
L 7104.830198 259.594293 
L 7111.362238 265.648314 
L 7117.894277 273.223272 
L 7117.894277 195.902755 
L 7117.894277 195.902755 
L 7111.362238 186.145768 
L 7104.830198 178.401544 
L 7098.298158 198.506632 
L 7091.766119 210.253495 
L 7085.234079 220.830969 
L 7078.70204 210.373618 
L 7072.17 219.787889 
L 7065.63796 185.885035 
L 7059.105921 183.257218 
L 7052.573881 192.619013 
L 7046.041842 194.761788 
L 7039.509802 156.059681 
L 7032.977762 198.216529 
L 7026.445723 213.067344 
L 7019.913683 193.050344 
L 7013.381644 179.223688 
L 7006.849604 213.731546 
L 7000.317564 187.646509 
L 6993.785525 178.194819 
L 6987.253485 174.862773 
L 6980.721446 186.876634 
L 6974.189406 181.662421 
L 6967.657366 182.159272 
L 6961.125327 181.311187 
L 6954.593287 181.638801 
L 6948.061248 179.806296 
L 6941.529208 181.562625 
L 6934.997168 203.459209 
L 6928.465129 170.424585 
L 6921.933089 187.486749 
L 6915.40105 190.441471 
L 6908.86901 182.950091 
L 6902.33697 184.099678 
L 6895.804931 181.808679 
L 6889.272891 179.918119 
L 6882.740851 180.757664 
L 6876.208812 173.302789 
L 6869.676772 173.358489 
L 6863.144733 176.097865 
L 6856.612693 188.185924 
L 6850.080653 168.259196 
L 6843.548614 179.094179 
L 6837.016574 181.851631 
L 6830.484535 201.470969 
L 6823.952495 194.28427 
L 6817.420455 173.280038 
L 6810.888416 210.64424 
L 6804.356376 192.17777 
L 6797.824337 188.970146 
L 6791.292297 184.600645 
L 6784.760257 176.625322 
L 6778.228218 182.396854 
L 6771.696178 209.513757 
L 6765.164139 201.793667 
L 6758.632099 198.857775 
L 6752.100059 193.475707 
L 6745.56802 198.149739 
L 6739.03598 187.764837 
L 6732.503941 186.122308 
L 6725.971901 189.190168 
L 6719.439861 182.457093 
L 6712.907822 183.916825 
L 6706.375782 180.928113 
L 6699.843743 175.533858 
L 6693.311703 185.204735 
L 6686.779663 188.875667 
L 6680.247624 176.485386 
L 6673.715584 174.234549 
L 6667.183545 199.026943 
L 6660.651505 186.065934 
L 6654.119465 179.340141 
L 6647.587426 200.808813 
L 6641.055386 189.099141 
L 6634.523347 222.304249 
L 6627.991307 229.315548 
L 6621.459267 233.941804 
L 6614.927228 211.237994 
L 6608.395188 218.207451 
L 1154.142119 278.406886 
L 1147.610079 278.648201 
L 1141.07804 239.720573 
L 1134.546 209.172046 
L 1128.01396 256.102768 
L 1121.481921 276.056597 
L 1114.949881 297.296818 
L 1108.417842 298.624529 
L 1101.885802 278.670814 
L 1095.353762 262.73483 
L 1088.821723 244.267285 
L 1082.289683 243.717541 
L 1075.757644 230.221483 
L 1069.225604 200.844483 
L 1062.693564 194.983445 
L 1056.161525 217.533542 
L 1049.629485 213.522512 
L 1043.097446 177.392841 
L 1036.565406 206.758157 
L 1030.033366 188.171679 
L 1023.501327 223.097697 
L 1016.969287 219.036615 
L 1010.437248 227.910991 
L 1003.905208 225.171717 
L 997.373168 245.076305 
L 990.841129 184.437707 
L 984.309089 202.635236 
L 977.77705 220.66922 
L 971.24501 248.850514 
L 964.71297 239.317046 
L 958.180931 222.097786 
L 951.648891 218.48204 
L 945.116851 214.89954 
L 938.584812 265.029494 
L 932.052772 274.229305 
L 925.520733 253.409665 
L 918.988693 256.516658 
L 912.456653 283.188299 
L 905.924614 248.758967 
L 899.392574 236.361295 
L 892.860535 286.558238 
L 886.328495 257.676706 
L 879.796455 271.028953 
L 873.264416 240.727309 
L 866.732376 245.190494 
L 860.200337 258.963582 
L 853.668297 281.375619 
L 847.136257 279.931092 
L 840.604218 252.860703 
L 834.072178 280.87711 
L 827.540139 270.732744 
L 821.008099 276.514497 
L 814.476059 286.23151 
L 807.94402 291.718755 
L 801.41198 262.347932 
L 794.879941 257.426428 
L 788.347901 272.201616 
L 781.815861 273.148297 
L 775.283822 280.487285 
L 768.751782 280.617789 
L 762.219743 282.522679 
L 755.687703 286.304559 
L 749.155663 294.144031 
L 742.623624 269.252434 
L 736.091584 243.053247 
L 729.559545 299.074721 
L 723.027505 294.711294 
L 716.495465 293.423775 
L 709.963426 283.724977 
L 703.431386 285.665423 
L 696.899347 223.375213 
L 690.367307 217.889589 
L 683.835267 204.067655 
L 677.303228 237.702287 
L 670.771188 221.712358 
L 664.239149 220.82068 
L 657.707109 221.841947 
L 651.175069 228.993354 
L 644.64303 191.419877 
L 638.11099 178.393518 
L 631.57895 218.426752 
L 625.046911 208.98686 
L 618.514871 199.623728 
L 611.982832 187.298922 
L 605.450792 177.514256 
L 598.918752 186.060789 
L 592.386713 181.804677 
L 585.854673 187.456304 
L 579.322634 188.477708 
L 572.790594 180.801257 
L 566.258554 172.661623 
L 559.726515 177.805971 
L 553.194475 186.254195 
L 546.662436 186.762948 
L 540.130396 186.135421 
L 533.598356 182.557265 
L 527.066317 173.360581 
L 520.534277 186.322185 
L 514.002238 206.825312 
L 507.470198 195.681282 
L 500.938158 181.498785 
L 494.406119 189.524287 
L 487.874079 175.859026 
L 481.34204 183.204433 
L 474.81 208.299735 
z
" clip-path="url(#pf742476c88)" style="fill: #e6e6e6; fill-opacity: 0.00001"/>
   </g>
   <g id="PI-PATCH-LOWER-0">
    <path d="M 474.81 278.886183 
L 481.34204 267.403654 
L 487.874079 265.660227 
L 494.406119 279.584014 
L 500.938158 267.13042 
L 507.470198 279.342294 
L 514.002238 289.130012 
L 520.534277 264.509885 
L 527.066317 252.782361 
L 533.598356 262.838335 
L 540.130396 265.250258 
L 546.662436 269.469025 
L 553.194475 266.854127 
L 559.726515 256.264803 
L 566.258554 247.739432 
L 579.322634 266.48882 
L 585.854673 262.638835 
L 592.386713 254.996556 
L 598.918752 259.880172 
L 605.450792 249.983037 
L 611.982832 260.509099 
L 618.514871 277.008039 
L 625.046911 288.201115 
L 631.57895 301.191476 
L 638.11099 269.093011 
L 644.64303 278.143226 
L 651.175069 314.546552 
L 657.707109 317.334048 
L 664.239149 317.368262 
L 670.771188 306.093569 
L 677.303228 315.878664 
L 683.835267 290.140641 
L 690.367307 294.804833 
L 696.899347 321.192122 
L 703.431386 339.66 
L 709.963426 339.66 
L 716.495465 337.829497 
L 723.027505 337.287545 
L 729.559545 339.66 
L 736.091584 322.231872 
L 742.623624 328.468156 
L 749.155663 339.66 
L 755.687703 333.343174 
L 762.219743 334.38886 
L 768.751782 338.848987 
L 775.283822 335.310868 
L 781.815861 326.281926 
L 788.347901 328.528793 
L 794.879941 329.749869 
L 801.41198 336.324745 
L 807.94402 339.66 
L 814.476059 335.904345 
L 821.008099 336.731762 
L 827.540139 333.543563 
L 834.072178 338.809011 
L 840.604218 330.290859 
L 847.136257 339.025143 
L 853.668297 335.819451 
L 860.200337 329.39332 
L 866.732376 335.691871 
L 873.264416 335.293023 
L 879.796455 339.66 
L 892.860535 339.66 
L 899.392574 317.227645 
L 905.924614 317.800322 
L 912.456653 339.66 
L 918.988693 339.66 
L 925.520733 339.338077 
L 932.052772 339.66 
L 938.584812 328.112545 
L 945.116851 288.33362 
L 951.648891 294.446688 
L 958.180931 302.672083 
L 964.71297 326.332821 
L 971.24501 339.66 
L 977.77705 315.937882 
L 984.309089 277.925252 
L 990.841129 266.184986 
L 997.373168 333.067674 
L 1003.905208 313.987527 
L 1010.437248 327.707586 
L 1016.969287 310.248196 
L 1023.501327 322.912277 
L 1030.033366 275.558722 
L 1036.565406 293.787484 
L 1043.097446 260.978947 
L 1049.629485 296.541823 
L 1056.161525 295.627437 
L 1062.693564 267.094927 
L 1069.225604 272.641888 
L 1075.757644 298.508113 
L 1082.289683 310.606784 
L 1088.821723 308.855134 
L 1095.353762 326.714882 
L 1101.885802 339.66 
L 1114.949881 339.66 
L 1121.481921 332.708316 
L 1128.01396 330.969168 
L 1134.546 304.401017 
L 1141.07804 320.830492 
L 1147.610079 336.13932 
L 1154.142119 333.745463 
L 1200.52 333.518265 
L 1200.52 333.518265 
" clip-path="url(#pf742476c88)" style="fill: none; stroke: #b78935; stroke-opacity: 0; stroke-width: 1.5; stroke-linecap: square"/>
   </g>
   <g id="PI-PATCH-UPPER-0">
    <path d="M 474.81 208.299735 
L 481.34204 183.204433 
L 487.874079 175.859026 
L 494.406119 189.524287 
L 500.938158 181.498785 
L 507.470198 195.681282 
L 514.002238 206.825312 
L 520.534277 186.322185 
L 527.066317 173.360581 
L 533.598356 182.557265 
L 540.130396 186.135421 
L 546.662436 186.762948 
L 553.194475 186.254195 
L 559.726515 177.805971 
L 566.258554 172.661623 
L 572.790594 180.801257 
L 579.322634 188.477708 
L 585.854673 187.456304 
L 592.386713 181.804677 
L 598.918752 186.060789 
L 605.450792 177.514256 
L 611.982832 187.298922 
L 618.514871 199.623728 
L 631.57895 218.426752 
L 638.11099 178.393518 
L 644.64303 191.419877 
L 651.175069 228.993354 
L 657.707109 221.841947 
L 664.239149 220.82068 
L 670.771188 221.712358 
L 677.303228 237.702287 
L 683.835267 204.067655 
L 690.367307 217.889589 
L 696.899347 223.375213 
L 703.431386 285.665423 
L 709.963426 283.724977 
L 716.495465 293.423775 
L 723.027505 294.711294 
L 729.559545 299.074721 
L 736.091584 243.053247 
L 742.623624 269.252434 
L 749.155663 294.144031 
L 755.687703 286.304559 
L 762.219743 282.522679 
L 768.751782 280.617789 
L 775.283822 280.487285 
L 781.815861 273.148297 
L 788.347901 272.201616 
L 794.879941 257.426428 
L 801.41198 262.347932 
L 807.94402 291.718755 
L 814.476059 286.23151 
L 821.008099 276.514497 
L 827.540139 270.732744 
L 834.072178 280.87711 
L 840.604218 252.860703 
L 847.136257 279.931092 
L 853.668297 281.375619 
L 860.200337 258.963582 
L 866.732376 245.190494 
L 873.264416 240.727309 
L 879.796455 271.028953 
L 886.328495 257.676706 
L 892.860535 286.558238 
L 899.392574 236.361295 
L 905.924614 248.758967 
L 912.456653 283.188299 
L 918.988693 256.516658 
L 925.520733 253.409665 
L 932.052772 274.229305 
L 938.584812 265.029494 
L 945.116851 214.89954 
L 958.180931 222.097786 
L 964.71297 239.317046 
L 971.24501 248.850514 
L 977.77705 220.66922 
L 990.841129 184.437707 
L 997.373168 245.076305 
L 1003.905208 225.171717 
L 1010.437248 227.910991 
L 1016.969287 219.036615 
L 1023.501327 223.097697 
L 1030.033366 188.171679 
L 1036.565406 206.758157 
L 1043.097446 177.392841 
L 1049.629485 213.522512 
L 1056.161525 217.533542 
L 1062.693564 194.983445 
L 1069.225604 200.844483 
L 1075.757644 230.221483 
L 1082.289683 243.717541 
L 1088.821723 244.267285 
L 1095.353762 262.73483 
L 1101.885802 278.670814 
L 1108.417842 298.624529 
L 1114.949881 297.296818 
L 1121.481921 276.056597 
L 1128.01396 256.102768 
L 1134.546 209.172046 
L 1141.07804 239.720573 
L 1147.610079 278.648201 
L 1154.142119 278.406886 
L 1200.52 277.895006 
L 1200.52 277.895006 
" clip-path="url(#pf742476c88)" style="fill: none; stroke: #406992; stroke-opacity: 0; stroke-width: 1.5; stroke-linecap: square"/>
   </g>
   <g id="PI-PATCH-1">
    <path d="M 474.81 218.699386 
L 474.81 258.79044 
L 481.34204 235.6302 
L 487.874079 228.722034 
L 494.406119 248.73565 
L 500.938158 233.095685 
L 507.470198 254.600026 
L 514.002238 272.256996 
L 520.534277 244.77274 
L 527.066317 229.131997 
L 533.598356 240.565148 
L 540.130396 244.942337 
L 546.662436 250.408372 
L 553.194475 246.621753 
L 559.726515 243.350324 
L 566.258554 230.329361 
L 572.790594 237.246982 
L 579.322634 255.099799 
L 585.854673 247.809874 
L 592.386713 239.136067 
L 598.918752 245.21045 
L 605.450792 229.547917 
L 611.982832 243.490637 
L 618.514871 269.757236 
L 625.046911 282.762902 
L 631.57895 294.092776 
L 638.11099 250.321358 
L 644.64303 259.62775 
L 651.175069 311.731674 
L 657.707109 305.070416 
L 664.239149 298.778887 
L 670.771188 304.767605 
L 677.303228 312.780259 
L 683.835267 281.108809 
L 690.367307 293.546707 
L 696.899347 301.824438 
L 703.431386 339.66 
L 709.963426 339.66 
L 716.495465 337.799419 
L 723.027505 334.260233 
L 729.559545 339.66 
L 736.091584 322.263967 
L 742.623624 319.091997 
L 749.155663 339.66 
L 755.687703 331.401128 
L 762.219743 327.873389 
L 768.751782 333.503599 
L 775.283822 325.285831 
L 781.815861 314.831353 
L 788.347901 322.27018 
L 794.879941 327.259995 
L 801.41198 335.978 
L 807.94402 339.66 
L 814.476059 329.949597 
L 821.008099 332.38522 
L 827.540139 336.026727 
L 834.072178 339.191673 
L 840.604218 331.70937 
L 847.136257 337.657355 
L 853.668297 339.66 
L 860.200337 333.711659 
L 866.732376 332.800405 
L 873.264416 335.241679 
L 879.796455 339.66 
L 886.328495 337.472552 
L 892.860535 339.66 
L 899.392574 312.588056 
L 905.924614 314.920859 
L 912.456653 339.66 
L 918.988693 337.211152 
L 925.520733 334.130928 
L 932.052772 339.66 
L 938.584812 328.078456 
L 945.116851 285.556069 
L 951.648891 292.363702 
L 958.180931 294.975959 
L 964.71297 323.703859 
L 971.24501 339.102312 
L 977.77705 309.998667 
L 984.309089 271.185609 
L 990.841129 243.768113 
L 997.373168 308.490024 
L 1003.905208 330.539966 
L 1010.437248 325.825579 
L 1016.969287 310.571137 
L 1023.501327 310.778314 
L 1030.033366 270.120732 
L 1036.565406 297.8226 
L 1043.097446 258.553356 
L 1049.629485 296.24059 
L 1056.161525 285.238282 
L 1062.693564 249.136776 
L 1069.225604 263.951509 
L 1075.757644 294.522512 
L 1082.289683 307.074196 
L 1088.821723 302.44869 
L 1095.353762 329.182729 
L 1101.885802 339.66 
L 1108.417842 339.66 
L 1114.949881 339.66 
L 1121.481921 320.689045 
L 1128.01396 327.446893 
L 1134.546 292.476391 
L 1134.546 224.312816 
L 1134.546 224.312816 
L 1128.01396 280.581416 
L 1121.481921 288.118817 
L 1114.949881 314.926401 
L 1108.417842 322.197893 
L 1101.885802 310.706763 
L 1095.353762 294.834678 
L 1088.821723 264.994207 
L 1082.289683 265.027247 
L 1075.757644 248.853103 
L 1069.225604 212.831705 
L 1062.693564 189.013499 
L 1056.161525 223.10474 
L 1049.629485 235.836331 
L 1043.097446 185.376031 
L 1036.565406 228.228612 
L 1030.033366 196.540491 
L 1023.501327 239.60468 
L 1016.969287 242.825954 
L 1010.437248 250.959323 
L 1003.905208 266.294162 
L 997.373168 245.609638 
L 990.841129 168.23106 
L 984.309089 203.798976 
L 977.77705 243.862872 
L 971.24501 285.05397 
L 964.71297 266.641194 
L 958.180931 242.738837 
L 951.648891 240.362276 
L 945.116851 233.802806 
L 938.584812 287.825221 
L 932.052772 301.868786 
L 925.520733 289.670028 
L 918.988693 290.728971 
L 912.456653 303.488557 
L 905.924614 273.005726 
L 899.392574 265.234452 
L 892.860535 311.338513 
L 886.328495 296.761505 
L 879.796455 304.736185 
L 873.264416 290.645998 
L 866.732376 286.027735 
L 860.200337 296.535578 
L 853.668297 310.673728 
L 847.136257 306.663184 
L 840.604218 287.333629 
L 834.072178 308.560883 
L 827.540139 303.346035 
L 821.008099 302.555531 
L 814.476059 307.980651 
L 807.94402 319.160607 
L 801.41198 290.160408 
L 794.879941 280.88589 
L 788.347901 287.753824 
L 781.815861 282.70922 
L 775.283822 294.941904 
L 768.751782 296.537536 
L 762.219743 292.633067 
L 755.687703 298.852539 
L 749.155663 309.738489 
L 742.623624 284.45598 
L 736.091584 271.282289 
L 729.559545 316.762407 
L 723.027505 308.461959 
L 716.495465 317.300329 
L 709.963426 323.676027 
L 703.431386 328.483656 
L 696.899347 240.376029 
L 690.367307 240.04303 
L 683.835267 216.440569 
L 677.303228 247.9722 
L 670.771188 234.502586 
L 664.239149 215.569059 
L 657.707109 226.343975 
L 651.175069 246.035573 
L 644.64303 194.359656 
L 638.11099 179.134514 
L 631.57895 234.017191 
L 625.046911 225.497456 
L 618.514871 219.626688 
L 611.982832 198.795798 
L 605.450792 183.081498 
L 598.918752 197.830357 
L 592.386713 191.436969 
L 585.854673 197.232555 
L 579.322634 203.955341 
L 572.790594 188.208926 
L 566.258554 177.469737 
L 559.726515 186.885094 
L 553.194475 191.890136 
L 546.662436 197.228508 
L 540.130396 194.667378 
L 533.598356 189.28228 
L 527.066317 177.059923 
L 520.534277 187.899102 
L 514.002238 216.977275 
L 507.470198 203.145063 
L 500.938158 182.035731 
L 494.406119 200.460632 
L 487.874079 184.587887 
L 481.34204 191.061509 
L 474.81 218.699386 
z
" clip-path="url(#pf742476c88)" style="fill: #bfbfbf; fill-opacity: 0.00001"/>
   </g>
   <g id="PI-PATCH-LOWER-1">
    <path d="M 474.81 258.79044 
L 481.34204 235.6302 
L 487.874079 228.722034 
L 494.406119 248.73565 
L 500.938158 233.095685 
L 507.470198 254.600026 
L 514.002238 272.256996 
L 520.534277 244.77274 
L 527.066317 229.131997 
L 533.598356 240.565148 
L 540.130396 244.942337 
L 546.662436 250.408372 
L 553.194475 246.621753 
L 559.726515 243.350324 
L 566.258554 230.329361 
L 572.790594 237.246982 
L 579.322634 255.099799 
L 585.854673 247.809874 
L 592.386713 239.136067 
L 598.918752 245.21045 
L 605.450792 229.547917 
L 611.982832 243.490637 
L 618.514871 269.757236 
L 625.046911 282.762902 
L 631.57895 294.092776 
L 638.11099 250.321358 
L 644.64303 259.62775 
L 651.175069 311.731674 
L 657.707109 305.070416 
L 664.239149 298.778887 
L 670.771188 304.767605 
L 677.303228 312.780259 
L 683.835267 281.108809 
L 690.367307 293.546707 
L 696.899347 301.824438 
L 703.431386 339.66 
L 709.963426 339.66 
L 716.495465 337.799419 
L 723.027505 334.260233 
L 729.559545 339.66 
L 736.091584 322.263967 
L 742.623624 319.091997 
L 749.155663 339.66 
L 755.687703 331.401128 
L 762.219743 327.873389 
L 768.751782 333.503599 
L 775.283822 325.285831 
L 781.815861 314.831353 
L 788.347901 322.27018 
L 794.879941 327.259995 
L 801.41198 335.978 
L 807.94402 339.66 
L 814.476059 329.949597 
L 821.008099 332.38522 
L 827.540139 336.026727 
L 834.072178 339.191673 
L 840.604218 331.70937 
L 847.136257 337.657355 
L 853.668297 339.66 
L 860.200337 333.711659 
L 866.732376 332.800405 
L 873.264416 335.241679 
L 879.796455 339.66 
L 886.328495 337.472552 
L 892.860535 339.66 
L 899.392574 312.588056 
L 905.924614 314.920859 
L 912.456653 339.66 
L 918.988693 337.211152 
L 925.520733 334.130928 
L 932.052772 339.66 
L 938.584812 328.078456 
L 945.116851 285.556069 
L 951.648891 292.363702 
L 958.180931 294.975959 
L 964.71297 323.703859 
L 971.24501 339.102312 
L 977.77705 309.998667 
L 984.309089 271.185609 
L 990.841129 243.768113 
L 997.373168 308.490024 
L 1003.905208 330.539966 
L 1010.437248 325.825579 
L 1016.969287 310.571137 
L 1023.501327 310.778314 
L 1030.033366 270.120732 
L 1036.565406 297.8226 
L 1043.097446 258.553356 
L 1049.629485 296.24059 
L 1056.161525 285.238282 
L 1062.693564 249.136776 
L 1069.225604 263.951509 
L 1075.757644 294.522512 
L 1082.289683 307.074196 
L 1088.821723 302.44869 
L 1095.353762 329.182729 
L 1101.885802 339.66 
L 1108.417842 339.66 
L 1114.949881 339.66 
L 1121.481921 320.689045 
L 1128.01396 327.446893 
L 1134.546 292.476391 
" clip-path="url(#pf742476c88)" style="fill: none; stroke: #b78935; stroke-opacity: 0; stroke-width: 1.5; stroke-linecap: square"/>
   </g>
   <g id="PI-PATCH-UPPER-1">
    <path d="M 474.81 218.699386 
L 481.34204 191.061509 
L 487.874079 184.587887 
L 494.406119 200.460632 
L 500.938158 182.035731 
L 507.470198 203.145063 
L 514.002238 216.977275 
L 520.534277 187.899102 
L 527.066317 177.059923 
L 533.598356 189.28228 
L 540.130396 194.667378 
L 546.662436 197.228508 
L 553.194475 191.890136 
L 559.726515 186.885094 
L 566.258554 177.469737 
L 572.790594 188.208926 
L 579.322634 203.955341 
L 585.854673 197.232555 
L 592.386713 191.436969 
L 598.918752 197.830357 
L 605.450792 183.081498 
L 611.982832 198.795798 
L 618.514871 219.626688 
L 625.046911 225.497456 
L 631.57895 234.017191 
L 638.11099 179.134514 
L 644.64303 194.359656 
L 651.175069 246.035573 
L 657.707109 226.343975 
L 664.239149 215.569059 
L 670.771188 234.502586 
L 677.303228 247.9722 
L 683.835267 216.440569 
L 690.367307 240.04303 
L 696.899347 240.376029 
L 703.431386 328.483656 
L 709.963426 323.676027 
L 716.495465 317.300329 
L 723.027505 308.461959 
L 729.559545 316.762407 
L 736.091584 271.282289 
L 742.623624 284.45598 
L 749.155663 309.738489 
L 755.687703 298.852539 
L 762.219743 292.633067 
L 768.751782 296.537536 
L 775.283822 294.941904 
L 781.815861 282.70922 
L 788.347901 287.753824 
L 794.879941 280.88589 
L 801.41198 290.160408 
L 807.94402 319.160607 
L 814.476059 307.980651 
L 821.008099 302.555531 
L 827.540139 303.346035 
L 834.072178 308.560883 
L 840.604218 287.333629 
L 847.136257 306.663184 
L 853.668297 310.673728 
L 860.200337 296.535578 
L 866.732376 286.027735 
L 873.264416 290.645998 
L 879.796455 304.736185 
L 886.328495 296.761505 
L 892.860535 311.338513 
L 899.392574 265.234452 
L 905.924614 273.005726 
L 912.456653 303.488557 
L 918.988693 290.728971 
L 925.520733 289.670028 
L 932.052772 301.868786 
L 938.584812 287.825221 
L 945.116851 233.802806 
L 951.648891 240.362276 
L 958.180931 242.738837 
L 964.71297 266.641194 
L 971.24501 285.05397 
L 977.77705 243.862872 
L 984.309089 203.798976 
L 990.841129 168.23106 
L 997.373168 245.609638 
L 1003.905208 266.294162 
L 1010.437248 250.959323 
L 1016.969287 242.825954 
L 1023.501327 239.60468 
L 1030.033366 196.540491 
L 1036.565406 228.228612 
L 1043.097446 185.376031 
L 1049.629485 235.836331 
L 1056.161525 223.10474 
L 1062.693564 189.013499 
L 1069.225604 212.831705 
L 1075.757644 248.853103 
L 1082.289683 265.027247 
L 1088.821723 264.994207 
L 1095.353762 294.834678 
L 1101.885802 310.706763 
L 1108.417842 322.197893 
L 1114.949881 314.926401 
L 1121.481921 288.118817 
L 1128.01396 280.581416 
L 1134.546 224.312816 
" clip-path="url(#pf742476c88)" style="fill: none; stroke: #406992; stroke-opacity: 0; stroke-width: 1.5; stroke-linecap: square"/>
   </g>
   <g id="PI-PATCH-2">
    <path d="M 474.81 213.884892 
L 474.81 244.921924 
L 481.34204 226.408409 
L 487.874079 220.63259 
L 494.406119 241.048852 
L 500.938158 225.942003 
L 507.470198 243.163309 
L 514.002238 264.456661 
L 520.534277 228.903299 
L 527.066317 219.736819 
L 533.598356 228.059558 
L 540.130396 234.523291 
L 546.662436 237.865923 
L 553.194475 228.495313 
L 559.726515 220.311046 
L 566.258554 209.063928 
L 572.790594 219.203806 
L 579.322634 239.179694 
L 585.854673 234.033859 
L 592.386713 221.999774 
L 598.918752 232.452644 
L 605.450792 215.1561 
L 611.982832 236.350239 
L 618.514871 254.195705 
L 625.046911 273.466702 
L 631.57895 289.755807 
L 638.11099 234.48761 
L 644.64303 247.348675 
L 651.175069 303.569189 
L 657.707109 291.180778 
L 664.239149 303.584958 
L 670.771188 294.982719 
L 677.303228 298.37394 
L 683.835267 266.403664 
L 690.367307 258.818736 
L 696.899347 309.659606 
L 703.431386 339.66 
L 709.963426 332.288615 
L 716.495465 335.865757 
L 723.027505 328.98123 
L 729.559545 338.506816 
L 736.091584 319.659154 
L 742.623624 323.839827 
L 749.155663 330.154364 
L 755.687703 323.834909 
L 762.219743 327.553018 
L 768.751782 331.046101 
L 775.283822 323.841641 
L 781.815861 311.330491 
L 788.347901 314.600914 
L 794.879941 313.110242 
L 801.41198 321.689237 
L 807.94402 337.590993 
L 814.476059 330.097376 
L 821.008099 322.270194 
L 827.540139 322.560275 
L 834.072178 330.823372 
L 840.604218 324.965206 
L 847.136257 333.956826 
L 853.668297 333.934912 
L 860.200337 326.908263 
L 866.732376 339.66 
L 873.264416 332.443835 
L 879.796455 339.66 
L 886.328495 339.66 
L 892.860535 339.66 
L 899.392574 314.466114 
L 905.924614 307.341486 
L 912.456653 339.66 
L 918.988693 339.66 
L 925.520733 334.909181 
L 932.052772 338.571671 
L 938.584812 327.354981 
L 945.116851 276.039156 
L 951.648891 280.063385 
L 958.180931 290.792416 
L 964.71297 314.003155 
L 971.24501 337.334507 
L 977.77705 296.829292 
L 984.309089 259.005906 
L 990.841129 231.201272 
L 997.373168 316.731515 
L 1003.905208 299.515392 
L 1010.437248 316.139582 
L 1016.969287 295.58712 
L 1023.501327 309.636612 
L 1030.033366 254.697278 
L 1036.565406 268.045638 
L 1043.097446 231.026639 
L 1049.629485 264.193979 
L 1056.161525 271.206153 
L 1062.693564 241.240406 
L 1069.225604 247.545597 
L 1075.757644 287.34465 
L 1082.289683 295.914734 
L 1088.821723 293.400238 
L 1095.353762 312.010339 
L 1101.885802 328.507232 
L 1108.417842 339.390593 
L 1114.949881 333.548782 
L 1121.481921 319.783896 
L 1128.01396 315.270052 
L 1134.546 277.031116 
L 1134.546 246.632717 
L 1134.546 246.632717 
L 1128.01396 291.265837 
L 1121.481921 300.747975 
L 1114.949881 318.645139 
L 1108.417842 325.279298 
L 1101.885802 309.048483 
L 1095.353762 288.216281 
L 1088.821723 267.871284 
L 1082.289683 270.6573 
L 1075.757644 259.307956 
L 1069.225604 215.709612 
L 1062.693564 202.229605 
L 1056.161525 235.423063 
L 1049.629485 229.179054 
L 1043.097446 186.688601 
L 1036.565406 224.116609 
L 1030.033366 207.607454 
L 1023.501327 270.569132 
L 1016.969287 254.904746 
L 1010.437248 277.070118 
L 1003.905208 260.939755 
L 997.373168 280.186761 
L 990.841129 195.515394 
L 984.309089 223.415068 
L 977.77705 266.772572 
L 971.24501 313.071146 
L 964.71297 286.383845 
L 958.180931 263.398289 
L 951.648891 251.07677 
L 945.116851 245.599703 
L 938.584812 307.046898 
L 932.052772 322.434821 
L 925.520733 314.372604 
L 918.988693 318.206851 
L 912.456653 323.045459 
L 905.924614 286.1223 
L 899.392574 289.866298 
L 892.860535 332.789137 
L 886.328495 321.058899 
L 879.796455 339.66 
L 873.264416 304.840385 
L 866.732376 309.944085 
L 860.200337 303.293754 
L 853.668297 316.806041 
L 847.136257 317.365078 
L 840.604218 299.920897 
L 834.072178 311.922319 
L 827.540139 301.759901 
L 821.008099 301.572571 
L 814.476059 314.354717 
L 807.94402 321.574759 
L 801.41198 298.238794 
L 794.879941 288.094643 
L 788.347901 294.447394 
L 781.815861 291.439699 
L 775.283822 305.139369 
L 768.751782 311.128261 
L 762.219743 308.719954 
L 755.687703 305.172209 
L 749.155663 311.540151 
L 742.623624 302.621683 
L 736.091584 291.18235 
L 729.559545 320.130966 
L 723.027505 308.578575 
L 716.495465 314.078933 
L 709.963426 308.53628 
L 703.431386 320.787054 
L 696.899347 273.299191 
L 690.367307 221.964265 
L 683.835267 228.514017 
L 677.303228 265.800957 
L 670.771188 259.300668 
L 664.239149 271.405447 
L 657.707109 260.220928 
L 651.175069 271.124815 
L 644.64303 211.617844 
L 638.11099 196.278375 
L 631.57895 262.878555 
L 625.046911 246.540461 
L 618.514871 227.896688 
L 611.982832 210.905087 
L 605.450792 191.204429 
L 598.918752 207.695303 
L 592.386713 197.468022 
L 585.854673 208.261539 
L 579.322634 211.926114 
L 572.790594 194.914048 
L 566.258554 184.292227 
L 559.726515 192.880523 
L 553.194475 201.006506 
L 546.662436 210.585979 
L 540.130396 208.317902 
L 533.598356 201.686829 
L 527.066317 194.378749 
L 520.534277 201.487215 
L 514.002238 237.572973 
L 507.470198 216.65612 
L 500.938158 197.125591 
L 494.406119 212.82472 
L 487.874079 195.209205 
L 481.34204 197.728 
L 474.81 213.884892 
z
" clip-path="url(#pf742476c88)" style="fill: #808080; fill-opacity: 0.00001"/>
   </g>
   <g id="PI-PATCH-LOWER-2">
    <path d="M 474.81 244.921924 
L 481.34204 226.408409 
L 487.874079 220.63259 
L 494.406119 241.048852 
L 500.938158 225.942003 
L 507.470198 243.163309 
L 514.002238 264.456661 
L 520.534277 228.903299 
L 527.066317 219.736819 
L 533.598356 228.059558 
L 540.130396 234.523291 
L 546.662436 237.865923 
L 553.194475 228.495313 
L 559.726515 220.311046 
L 566.258554 209.063928 
L 572.790594 219.203806 
L 579.322634 239.179694 
L 585.854673 234.033859 
L 592.386713 221.999774 
L 598.918752 232.452644 
L 605.450792 215.1561 
L 611.982832 236.350239 
L 618.514871 254.195705 
L 625.046911 273.466702 
L 631.57895 289.755807 
L 638.11099 234.48761 
L 644.64303 247.348675 
L 651.175069 303.569189 
L 657.707109 291.180778 
L 664.239149 303.584958 
L 670.771188 294.982719 
L 677.303228 298.37394 
L 683.835267 266.403664 
L 690.367307 258.818736 
L 696.899347 309.659606 
L 703.431386 339.66 
L 709.963426 332.288615 
L 716.495465 335.865757 
L 723.027505 328.98123 
L 729.559545 338.506816 
L 736.091584 319.659154 
L 742.623624 323.839827 
L 749.155663 330.154364 
L 755.687703 323.834909 
L 762.219743 327.553018 
L 768.751782 331.046101 
L 775.283822 323.841641 
L 781.815861 311.330491 
L 788.347901 314.600914 
L 794.879941 313.110242 
L 801.41198 321.689237 
L 807.94402 337.590993 
L 814.476059 330.097376 
L 821.008099 322.270194 
L 827.540139 322.560275 
L 834.072178 330.823372 
L 840.604218 324.965206 
L 847.136257 333.956826 
L 853.668297 333.934912 
L 860.200337 326.908263 
L 866.732376 339.66 
L 873.264416 332.443835 
L 879.796455 339.66 
L 886.328495 339.66 
L 892.860535 339.66 
L 899.392574 314.466114 
L 905.924614 307.341486 
L 912.456653 339.66 
L 918.988693 339.66 
L 925.520733 334.909181 
L 932.052772 338.571671 
L 938.584812 327.354981 
L 945.116851 276.039156 
L 951.648891 280.063385 
L 958.180931 290.792416 
L 964.71297 314.003155 
L 971.24501 337.334507 
L 977.77705 296.829292 
L 984.309089 259.005906 
L 990.841129 231.201272 
L 997.373168 316.731515 
L 1003.905208 299.515392 
L 1010.437248 316.139582 
L 1016.969287 295.58712 
L 1023.501327 309.636612 
L 1030.033366 254.697278 
L 1036.565406 268.045638 
L 1043.097446 231.026639 
L 1049.629485 264.193979 
L 1056.161525 271.206153 
L 1062.693564 241.240406 
L 1069.225604 247.545597 
L 1075.757644 287.34465 
L 1082.289683 295.914734 
L 1088.821723 293.400238 
L 1095.353762 312.010339 
L 1101.885802 328.507232 
L 1108.417842 339.390593 
L 1114.949881 333.548782 
L 1121.481921 319.783896 
L 1128.01396 315.270052 
L 1134.546 277.031116 
" clip-path="url(#pf742476c88)" style="fill: none; stroke: #b78935; stroke-opacity: 0; stroke-width: 1.5; stroke-linecap: square"/>
   </g>
   <g id="PI-PATCH-UPPER-2">
    <path d="M 474.81 213.884892 
L 481.34204 197.728 
L 487.874079 195.209205 
L 494.406119 212.82472 
L 500.938158 197.125591 
L 507.470198 216.65612 
L 514.002238 237.572973 
L 520.534277 201.487215 
L 527.066317 194.378749 
L 533.598356 201.686829 
L 540.130396 208.317902 
L 546.662436 210.585979 
L 553.194475 201.006506 
L 559.726515 192.880523 
L 566.258554 184.292227 
L 572.790594 194.914048 
L 579.322634 211.926114 
L 585.854673 208.261539 
L 592.386713 197.468022 
L 598.918752 207.695303 
L 605.450792 191.204429 
L 611.982832 210.905087 
L 618.514871 227.896688 
L 625.046911 246.540461 
L 631.57895 262.878555 
L 638.11099 196.278375 
L 644.64303 211.617844 
L 651.175069 271.124815 
L 657.707109 260.220928 
L 664.239149 271.405447 
L 670.771188 259.300668 
L 677.303228 265.800957 
L 683.835267 228.514017 
L 690.367307 221.964265 
L 696.899347 273.299191 
L 703.431386 320.787054 
L 709.963426 308.53628 
L 716.495465 314.078933 
L 723.027505 308.578575 
L 729.559545 320.130966 
L 736.091584 291.18235 
L 742.623624 302.621683 
L 749.155663 311.540151 
L 755.687703 305.172209 
L 762.219743 308.719954 
L 768.751782 311.128261 
L 775.283822 305.139369 
L 781.815861 291.439699 
L 788.347901 294.447394 
L 794.879941 288.094643 
L 801.41198 298.238794 
L 807.94402 321.574759 
L 814.476059 314.354717 
L 821.008099 301.572571 
L 827.540139 301.759901 
L 834.072178 311.922319 
L 840.604218 299.920897 
L 847.136257 317.365078 
L 853.668297 316.806041 
L 860.200337 303.293754 
L 866.732376 309.944085 
L 873.264416 304.840385 
L 879.796455 339.66 
L 886.328495 321.058899 
L 892.860535 332.789137 
L 899.392574 289.866298 
L 905.924614 286.1223 
L 912.456653 323.045459 
L 918.988693 318.206851 
L 925.520733 314.372604 
L 932.052772 322.434821 
L 938.584812 307.046898 
L 945.116851 245.599703 
L 951.648891 251.07677 
L 958.180931 263.398289 
L 964.71297 286.383845 
L 971.24501 313.071146 
L 977.77705 266.772572 
L 984.309089 223.415068 
L 990.841129 195.515394 
L 997.373168 280.186761 
L 1003.905208 260.939755 
L 1010.437248 277.070118 
L 1016.969287 254.904746 
L 1023.501327 270.569132 
L 1030.033366 207.607454 
L 1036.565406 224.116609 
L 1043.097446 186.688601 
L 1049.629485 229.179054 
L 1056.161525 235.423063 
L 1062.693564 202.229605 
L 1069.225604 215.709612 
L 1075.757644 259.307956 
L 1082.289683 270.6573 
L 1088.821723 267.871284 
L 1095.353762 288.216281 
L 1101.885802 309.048483 
L 1108.417842 325.279298 
L 1114.949881 318.645139 
L 1121.481921 300.747975 
L 1128.01396 291.265837 
L 1134.546 246.632717 
" clip-path="url(#pf742476c88)" style="fill: none; stroke: #406992; stroke-opacity: 0; stroke-width: 1.5; stroke-linecap: square"/>
   </g>
   <g id="matplotlib.axis_3">
    <g id="xtick_4">
     <g id="line2d_7">
      <g>
       <use xlink:href="#mca761a248c" x="496.272416" y="339.66" style="fill: #949494; stroke: #949494; stroke-width: 0.8"/>
      </g>
     </g>
     <g id="text_8">
      <text style="font-weight: 300; font-size: 16px; font-family: 'Source Sans 3', sans-serif; text-anchor: middle; fill: #494949" x="496.272416" y="358.2125" transform="rotate(-0 496.272416 358.2125)">2021</text>
     </g>
    </g>
    <g id="xtick_5">
     <g id="line2d_8">
      <g>
       <use xlink:href="#mca761a248c" x="836.871624" y="339.66" style="fill: #949494; stroke: #949494; stroke-width: 0.8"/>
      </g>
     </g>
     <g id="text_9">
      <text style="font-weight: 300; font-size: 16px; font-family: 'Source Sans 3', sans-serif; text-anchor: middle; fill: #494949" x="836.871624" y="358.2125" transform="rotate(-0 836.871624 358.2125)">2022</text>
     </g>
    </g>
    <g id="text_10">
     <text style="font-weight: 600; font-size: 16px; font-family: 'Source Sans 3', sans-serif; text-anchor: middle; fill: #494949" x="804.678" y="377.3175" transform="rotate(-0 804.678 377.3175)">Date</text>
    </g>
   </g>
   <g id="matplotlib.axis_4">
    <g id="ytick_4">
     <g id="line2d_9">
      <path d="M 474.81 339.66 
L 1134.546 339.66 
" style="fill: none; stroke: #d1d1d1; stroke-width: 0.8; stroke-linecap: square"/>
     </g>
     <g id="line2d_10">
      <g>
       <use xlink:href="#m409c535ece" x="474.81" y="339.66" style="fill: #949494; stroke: #949494; stroke-width: 0.8"/>
      </g>
     </g>
     <g id="text_11">
      <text style="font-weight: 300; font-size: 16px; font-family: 'Source Sans 3', sans-serif; text-anchor: end; fill: #494949" x="467.81" y="345.43625" transform="rotate(-0 467.81 345.43625)">0ᵗʰ</text>
     </g>
    </g>
    <g id="ytick_5">
     <g id="line2d_11">
      <path d="M 474.81 279.72 
L 1134.546 279.72 
" style="fill: none; stroke: #d1d1d1; stroke-width: 0.8; stroke-linecap: square"/>
     </g>
     <g id="line2d_12">
      <g>
       <use xlink:href="#m409c535ece" x="474.81" y="279.72" style="fill: #949494; stroke: #949494; stroke-width: 0.8"/>
      </g>
     </g>
     <g id="text_12">
      <text style="font-weight: 300; font-size: 16px; font-family: 'Source Sans 3', sans-serif; text-anchor: end; fill: #494949" x="467.81" y="285.49625" transform="rotate(-0 467.81 285.49625)">20ᵗʰ</text>
     </g>
    </g>
    <g id="ytick_6">
     <g id="line2d_13">
      <path d="M 474.81 219.78 
L 1134.546 219.78 
" style="fill: none; stroke: #d1d1d1; stroke-width: 0.8; stroke-linecap: square"/>
     </g>
     <g id="line2d_14">
      <g>
       <use xlink:href="#m409c535ece" x="474.81" y="219.78" style="fill: #949494; stroke: #949494; stroke-width: 0.8"/>
      </g>
     </g>
     <g id="text_13">
      <text style="font-weight: 300; font-size: 16px; font-family: 'Source Sans 3', sans-serif; text-anchor: end; fill: #494949" x="467.81" y="225.55625" transform="rotate(-0 467.81 225.55625)">40ᵗʰ</text>
     </g>
    </g>
    <g id="ytick_7">
     <g id="line2d_15">
      <path d="M 474.81 159.84 
L 1134.546 159.84 
" style="fill: none; stroke: #d1d1d1; stroke-width: 0.8; stroke-linecap: square"/>
     </g>
     <g id="line2d_16">
      <g>
       <use xlink:href="#m409c535ece" x="474.81" y="159.84" style="fill: #949494; stroke: #949494; stroke-width: 0.8"/>
      </g>
     </g>
     <g id="text_14">
      <text style="font-weight: 300; font-size: 16px; font-family: 'Source Sans 3', sans-serif; text-anchor: end; fill: #494949" x="467.81" y="165.61625" transform="rotate(-0 467.81 165.61625)">60ᵗʰ</text>
     </g>
    </g>
    <g id="ytick_8">
     <g id="line2d_17">
      <path d="M 474.81 99.9 
L 1134.546 99.9 
" style="fill: none; stroke: #d1d1d1; stroke-width: 0.8; stroke-linecap: square"/>
     </g>
     <g id="line2d_18">
      <g>
       <use xlink:href="#m409c535ece" x="474.81" y="99.9" style="fill: #949494; stroke: #949494; stroke-width: 0.8"/>
      </g>
     </g>
     <g id="text_15">
      <text style="font-weight: 300; font-size: 16px; font-family: 'Source Sans 3', sans-serif; text-anchor: end; fill: #494949" x="467.81" y="105.67625" transform="rotate(-0 467.81 105.67625)">80ᵗʰ</text>
     </g>
    </g>
    <g id="ytick_9">
     <g id="line2d_19">
      <path d="M 474.81 39.96 
L 1134.546 39.96 
" style="fill: none; stroke: #d1d1d1; stroke-width: 0.8; stroke-linecap: square"/>
     </g>
     <g id="line2d_20">
      <g>
       <use xlink:href="#m409c535ece" x="474.81" y="39.96" style="fill: #949494; stroke: #949494; stroke-width: 0.8"/>
      </g>
     </g>
     <g id="text_16">
      <text style="font-weight: 300; font-size: 16px; font-family: 'Source Sans 3', sans-serif; text-anchor: end; fill: #494949" x="467.81" y="45.73625" transform="rotate(-0 467.81 45.73625)">100ᵗʰ</text>
     </g>
    </g>
   </g>
   <g id="TAG-0-LABEL-BOLD">
    <g id="patch_6">
     <path d="M 913.3245 146.13025 
L 1025.8995 146.13025 
L 1025.8995 113.60975 
L 913.3245 113.60975 
z
" style="fill: #ffffff; opacity: 0"/>
    </g>
    <text style="font-weight: 700; font-size: 16px; font-family: 'Source Sans 3', sans-serif; fill: #af3331; opacity: 0" transform="translate(913.3245 125.16225)">PI contains 84.6%</text>
    <text style="font-weight: 700; font-size: 16px; font-family: 'Source Sans 3', sans-serif; fill: #af3331; opacity: 0" transform="translate(920.58825 142.57775)">of observations</text>
   </g>
   <g id="TAG-1-LABEL-BOLD">
    <g id="patch_7">
     <path d="M 913.3245 146.13025 
L 1025.8995 146.13025 
L 1025.8995 113.60975 
L 913.3245 113.60975 
z
" style="fill: #ffffff; opacity: 0"/>
    </g>
    <text style="font-weight: 700; font-size: 16px; font-family: 'Source Sans 3', sans-serif; fill: #af3331; opacity: 0" transform="translate(913.3245 125.16225)">PI contains 69.2%</text>
    <text style="font-weight: 700; font-size: 16px; font-family: 'Source Sans 3', sans-serif; fill: #af3331; opacity: 0" transform="translate(920.58825 142.57775)">of observations</text>
   </g>
   <g id="TAG-2-LABEL-BOLD">
    <g id="patch_8">
     <path d="M 913.3245 146.13025 
L 1025.8995 146.13025 
L 1025.8995 113.60975 
L 913.3245 113.60975 
z
" style="fill: #ffffff; opacity: 0"/>
    </g>
    <text style="font-weight: 700; font-size: 16px; font-family: 'Source Sans 3', sans-serif; fill: #af3331; opacity: 0" transform="translate(913.3245 125.16225)">PI contains 38.5%</text>
    <text style="font-weight: 700; font-size: 16px; font-family: 'Source Sans 3', sans-serif; fill: #af3331; opacity: 0" transform="translate(920.58825 142.57775)">of observations</text>
   </g>
   <g id="PI-PATCH-MEDIAN">
    <path d="M 474.81 236.832503 
L 481.34204 213.329563 
L 487.874079 202.977483 
L 494.406119 223.660961 
L 500.938158 206.610161 
L 507.470198 224.882768 
L 514.002238 242.280845 
L 520.534277 211.700354 
L 527.066317 195.664556 
L 533.598356 207.818272 
L 540.130396 207.165388 
L 546.662436 218.463496 
L 553.194475 207.596822 
L 559.726515 200.225576 
L 566.258554 190.629195 
L 572.790594 201.014795 
L 579.322634 223.061742 
L 585.854673 215.007658 
L 592.386713 201.416653 
L 598.918752 211.056238 
L 605.450792 200.292286 
L 611.982832 214.862635 
L 618.514871 241.383806 
L 625.046911 252.41878 
L 631.57895 269.437162 
L 638.11099 205.730682 
L 644.64303 219.39121 
L 651.175069 278.225576 
L 657.707109 288.296687 
L 664.239149 289.144755 
L 670.771188 269.243533 
L 677.303228 283.213394 
L 683.835267 252.565101 
L 690.367307 248.575284 
L 696.899347 295.857777 
L 703.431386 330.148066 
L 709.963426 326.943855 
L 716.495465 325.442607 
L 723.027505 326.291975 
L 729.559545 331.867979 
L 736.091584 299.808385 
L 742.623624 309.882271 
L 749.155663 329.613305 
L 755.687703 321.212741 
L 762.219743 322.219839 
L 768.751782 328.059096 
L 775.283822 322.281561 
L 781.815861 309.189662 
L 788.347901 312.496555 
L 794.879941 314.426652 
L 801.41198 323.611727 
L 807.94402 338.784921 
L 814.476059 325.359761 
L 821.008099 326.0047 
L 827.540139 322.644369 
L 834.072178 327.399953 
L 840.604218 314.624548 
L 847.136257 326.640086 
L 853.668297 323.565642 
L 860.200337 314.387426 
L 866.732376 315.297296 
L 873.264416 314.256119 
L 879.796455 337.771151 
L 886.328495 322.380109 
L 892.860535 330.266853 
L 899.392574 291.954705 
L 905.924614 292.334769 
L 912.456653 327.066446 
L 918.988693 320.201192 
L 925.520733 316.877043 
L 932.052772 325.769333 
L 938.584812 308.123421 
L 945.116851 251.936568 
L 951.648891 259.458959 
L 958.180931 274.366954 
L 964.71297 299.608468 
L 971.24501 315.212449 
L 977.77705 286.920344 
L 984.309089 232.552497 
L 990.841129 210.559032 
L 997.373168 305.505517 
L 1003.905208 278.60167 
L 1010.437248 299.625886 
L 1016.969287 274.58338 
L 1023.501327 294.898821 
L 1030.033366 230.742903 
L 1036.565406 256.292944 
L 1043.097446 202.424589 
L 1049.629485 251.221645 
L 1056.161525 268.308737 
L 1062.693564 221.466956 
L 1069.225604 230.823458 
L 1075.757644 272.078944 
L 1082.289683 287.409885 
L 1088.821723 282.240784 
L 1095.353762 309.0094 
L 1101.885802 329.297238 
L 1108.417842 339.022131 
L 1114.949881 334.648506 
L 1121.481921 318.510785 
L 1128.01396 315.382027 
L 1134.546 268.412111 
L 1141.07804 295.702444 
L 1147.610079 321.264601 
L 1154.142119 320.855915 
L 1200.52 320.486454 
L 1200.52 320.486454 
" clip-path="url(#pf742476c88)" style="fill: none; stroke: #00264c; stroke-opacity: 0; stroke-width: 1.5; stroke-linecap: square"/>
   </g>
   <g id="OBSERVED-FORECAST-LINE">
    <path d="M 474.81 219.152108 
L 481.34204 180.7538 
L 487.874079 213.356132 
L 494.406119 203.937677 
L 500.938158 208.767651 
L 507.470198 231.95154 
L 514.002238 211.907136 
L 520.534277 197.175712 
L 527.066317 194.27773 
L 533.598356 176.165318 
L 540.130396 215.424333 
L 546.662436 150.83168 
L 553.194475 179.539527 
L 559.726515 169.145306 
L 566.258554 159.984897 
L 572.790594 219.152108 
L 579.322634 208.284656 
L 585.854673 169.403353 
L 592.386713 190.65525 
L 598.918752 193.553232 
L 605.450792 204.17918 
L 611.982832 240.645497 
L 618.514871 253.203431 
L 625.046911 274.055232 
L 631.57895 119.071087 
L 638.11099 161.296028 
L 644.64303 241.620484 
L 651.175069 314.179432 
L 657.707109 318.166608 
L 664.239149 267.210363 
L 670.771188 269.383852 
L 677.303228 273.006332 
L 683.835267 201.281187 
L 690.367307 315.027123 
L 696.899347 328.551056 
L 703.431386 339.418501 
L 709.963426 327.58506 
L 716.495465 335.313022 
L 723.027505 338.452506 
L 729.559545 322.513586 
L 736.091584 300.778694 
L 742.623624 326.619065 
L 749.155663 323.479581 
L 755.687703 325.170072 
L 762.219743 333.864029 
L 768.751782 316.717614 
L 775.283822 302.952183 
L 781.815861 312.853634 
L 788.347901 324.445577 
L 794.879941 330.241547 
L 801.41198 337.486511 
L 807.94402 323.72108 
L 814.476059 337.486511 
L 821.008099 329.75855 
L 827.540139 332.898034 
L 834.072178 334.347027 
L 840.604218 325.894569 
L 847.136257 331.207542 
L 853.668297 332.656535 
L 860.200337 325.411571 
L 866.732376 329.275552 
L 873.264416 333.62253 
L 879.796455 329.26578 
L 886.328495 325.553559 
L 892.860535 307.924047 
L 899.392574 291.648602 
L 905.924614 316.396747 
L 912.456653 330.483046 
L 918.988693 315.75162 
L 925.520733 330.241547 
L 932.052772 313.336632 
L 938.584812 258.757903 
L 945.116851 249.339454 
L 951.648891 273.972328 
L 958.180931 296.190218 
L 964.71297 305.795594 
L 971.24501 308.112632 
L 977.77705 226.574823 
L 984.309089 186.533929 
L 990.841129 283.602756 
L 997.373168 263.104882 
L 1003.905208 321.547591 
L 1010.437248 274.213825 
L 1016.969287 326.136068 
L 1023.501327 262.621887 
L 1030.033366 259.965397 
L 1036.565406 184.859275 
L 1043.097446 196.209722 
L 1049.629485 293.775228 
L 1056.161525 212.631634 
L 1062.693564 203.696185 
L 1069.225604 262.138886 
L 1075.757644 287.254761 
L 1082.289683 279.285302 
L 1088.821723 306.091668 
L 1095.353762 335.796019 
L 1101.885802 338.935504 
L 1108.417842 334.105528 
L 1114.949881 314.302627 
L 1121.481921 325.894569 
L 1128.01396 280.0098 
L 1134.546 287.254761 
L 1141.07804 310.680144 
L 1147.610079 329.034053 
L 1147.610079 329.034053 
" clip-path="url(#pf742476c88)" style="fill: none; stroke-dasharray: 1.5,2.475; stroke-dashoffset: 0; stroke: #af3331; stroke-width: 1.5"/>
   </g>
   <g id="PI-missed-dummy">
    <defs>
     <path id="m26b03c5746" d="M 0 3.9975 
C 1.060149 3.9975 2.077021 3.576298 2.826659 2.826659 
C 3.576298 2.077021 3.9975 1.060149 3.9975 0 
C 3.9975 -1.060149 3.576298 -2.077021 2.826659 -2.826659 
C 2.077021 -3.576298 1.060149 -3.9975 0 -3.9975 
C -1.060149 -3.9975 -2.077021 -3.576298 -2.826659 -2.826659 
C -3.576298 -2.077021 -3.9975 -1.060149 -3.9975 0 
C -3.9975 1.060149 -3.576298 2.077021 -2.826659 2.826659 
C -2.077021 3.576298 -1.060149 3.9975 0 3.9975 
z
" style="stroke: #595959"/>
    </defs>
    <g clip-path="url(#pf742476c88)"/>
   </g>
   <g id="patch_9">
    <path d="M 474.81 339.66 
L 474.81 39.96 
" style="fill: none; stroke: #949494; stroke-width: 0.8; stroke-linejoin: miter; stroke-linecap: square"/>
   </g>
   <g id="patch_10">
    <path d="M 474.81 339.66 
L 1134.546 339.66 
" style="fill: none; stroke: #949494; stroke-width: 0.8; stroke-linejoin: miter; stroke-linecap: square"/>
   </g>
   <g id="PI-missed-0">
    <defs>
     <path id="m09f1ff747a" d="M 0 4 
C 1.060812 4 2.078319 3.578535 2.828427 2.828427 
C 3.578535 2.078319 4 1.060812 4 0 
C 4 -1.060812 3.578535 -2.078319 2.828427 -2.828427 
C 2.078319 -3.578535 1.060812 -4 0 -4 
C -1.060812 -4 -2.078319 -3.578535 -2.828427 -2.828427 
C -3.578535 -2.078319 -4 -1.060812 -4 0 
C -4 1.060812 -3.578535 2.078319 -2.828427 2.828427 
C -2.078319 3.578535 -1.060812 4 0 4 
z
" style="stroke: #595959; stroke-opacity: 0"/>
    </defs>
    <g>
     <use xlink:href="#m09f1ff747a" x="657.707109" y="318.166608" style="fill-opacity: 0; stroke: #595959; stroke-opacity: 0"/>
     <use xlink:href="#m09f1ff747a" x="683.835267" y="201.281187" style="fill-opacity: 0; stroke: #595959; stroke-opacity: 0"/>
     <use xlink:href="#m09f1ff747a" x="690.367307" y="315.027123" style="fill-opacity: 0; stroke: #595959; stroke-opacity: 0"/>
     <use xlink:href="#m09f1ff747a" x="696.899347" y="328.551056" style="fill-opacity: 0; stroke: #595959; stroke-opacity: 0"/>
     <use xlink:href="#m09f1ff747a" x="723.027505" y="338.452506" style="fill-opacity: 0; stroke: #595959; stroke-opacity: 0"/>
     <use xlink:href="#m09f1ff747a" x="794.879941" y="330.241547" style="fill-opacity: 0; stroke: #595959; stroke-opacity: 0"/>
     <use xlink:href="#m09f1ff747a" x="801.41198" y="337.486511" style="fill-opacity: 0; stroke: #595959; stroke-opacity: 0"/>
     <use xlink:href="#m09f1ff747a" x="814.476059" y="337.486511" style="fill-opacity: 0; stroke: #595959; stroke-opacity: 0"/>
     <use xlink:href="#m09f1ff747a" x="938.584812" y="258.757903" style="fill-opacity: 0; stroke: #595959; stroke-opacity: 0"/>
     <use xlink:href="#m09f1ff747a" x="990.841129" y="283.602756" style="fill-opacity: 0; stroke: #595959; stroke-opacity: 0"/>
     <use xlink:href="#m09f1ff747a" x="1003.905208" y="321.547591" style="fill-opacity: 0; stroke: #595959; stroke-opacity: 0"/>
     <use xlink:href="#m09f1ff747a" x="1016.969287" y="326.136068" style="fill-opacity: 0; stroke: #595959; stroke-opacity: 0"/>
     <use xlink:href="#m09f1ff747a" x="1056.161525" y="212.631634" style="fill-opacity: 0; stroke: #595959; stroke-opacity: 0"/>
     <use xlink:href="#m09f1ff747a" x="1095.353762" y="335.796019" style="fill-opacity: 0; stroke: #595959; stroke-opacity: 0"/>
    </g>
   </g>
   <g id="PI-missed-1">
    <defs>
     <path id="mdef0157b80" d="M 0 4.0025 
C 1.061475 4.0025 2.079618 3.580771 2.830195 2.830195 
C 3.580771 2.079618 4.0025 1.061475 4.0025 0 
C 4.0025 -1.061475 3.580771 -2.079618 2.830195 -2.830195 
C 2.079618 -3.580771 1.061475 -4.0025 0 -4.0025 
C -1.061475 -4.0025 -2.079618 -3.580771 -2.830195 -2.830195 
C -3.580771 -2.079618 -4.0025 -1.061475 -4.0025 0 
C -4.0025 1.061475 -3.580771 2.079618 -2.830195 2.830195 
C -2.079618 3.580771 -1.061475 4.0025 0 4.0025 
z
" style="stroke: #595959; stroke-opacity: 0"/>
    </defs>
    <g>
     <use xlink:href="#mdef0157b80" x="514.002238" y="211.907136" style="fill-opacity: 0; stroke: #595959; stroke-opacity: 0"/>
     <use xlink:href="#mdef0157b80" x="592.386713" y="190.65525" style="fill-opacity: 0; stroke: #595959; stroke-opacity: 0"/>
     <use xlink:href="#mdef0157b80" x="598.918752" y="193.553232" style="fill-opacity: 0; stroke: #595959; stroke-opacity: 0"/>
     <use xlink:href="#mdef0157b80" x="651.175069" y="314.179432" style="fill-opacity: 0; stroke: #595959; stroke-opacity: 0"/>
     <use xlink:href="#mdef0157b80" x="657.707109" y="318.166608" style="fill-opacity: 0; stroke: #595959; stroke-opacity: 0"/>
     <use xlink:href="#mdef0157b80" x="683.835267" y="201.281187" style="fill-opacity: 0; stroke: #595959; stroke-opacity: 0"/>
     <use xlink:href="#mdef0157b80" x="690.367307" y="315.027123" style="fill-opacity: 0; stroke: #595959; stroke-opacity: 0"/>
     <use xlink:href="#mdef0157b80" x="696.899347" y="328.551056" style="fill-opacity: 0; stroke: #595959; stroke-opacity: 0"/>
     <use xlink:href="#mdef0157b80" x="723.027505" y="338.452506" style="fill-opacity: 0; stroke: #595959; stroke-opacity: 0"/>
     <use xlink:href="#mdef0157b80" x="742.623624" y="326.619065" style="fill-opacity: 0; stroke: #595959; stroke-opacity: 0"/>
     <use xlink:href="#mdef0157b80" x="762.219743" y="333.864029" style="fill-opacity: 0; stroke: #595959; stroke-opacity: 0"/>
     <use xlink:href="#mdef0157b80" x="788.347901" y="324.445577" style="fill-opacity: 0; stroke: #595959; stroke-opacity: 0"/>
     <use xlink:href="#mdef0157b80" x="794.879941" y="330.241547" style="fill-opacity: 0; stroke: #595959; stroke-opacity: 0"/>
     <use xlink:href="#mdef0157b80" x="801.41198" y="337.486511" style="fill-opacity: 0; stroke: #595959; stroke-opacity: 0"/>
     <use xlink:href="#mdef0157b80" x="814.476059" y="337.486511" style="fill-opacity: 0; stroke: #595959; stroke-opacity: 0"/>
     <use xlink:href="#mdef0157b80" x="892.860535" y="307.924047" style="fill-opacity: 0; stroke: #595959; stroke-opacity: 0"/>
     <use xlink:href="#mdef0157b80" x="905.924614" y="316.396747" style="fill-opacity: 0; stroke: #595959; stroke-opacity: 0"/>
     <use xlink:href="#mdef0157b80" x="938.584812" y="258.757903" style="fill-opacity: 0; stroke: #595959; stroke-opacity: 0"/>
     <use xlink:href="#mdef0157b80" x="958.180931" y="296.190218" style="fill-opacity: 0; stroke: #595959; stroke-opacity: 0"/>
     <use xlink:href="#mdef0157b80" x="977.77705" y="226.574823" style="fill-opacity: 0; stroke: #595959; stroke-opacity: 0"/>
     <use xlink:href="#mdef0157b80" x="990.841129" y="283.602756" style="fill-opacity: 0; stroke: #595959; stroke-opacity: 0"/>
     <use xlink:href="#mdef0157b80" x="1016.969287" y="326.136068" style="fill-opacity: 0; stroke: #595959; stroke-opacity: 0"/>
     <use xlink:href="#mdef0157b80" x="1056.161525" y="212.631634" style="fill-opacity: 0; stroke: #595959; stroke-opacity: 0"/>
     <use xlink:href="#mdef0157b80" x="1088.821723" y="306.091668" style="fill-opacity: 0; stroke: #595959; stroke-opacity: 0"/>
     <use xlink:href="#mdef0157b80" x="1095.353762" y="335.796019" style="fill-opacity: 0; stroke: #595959; stroke-opacity: 0"/>
     <use xlink:href="#mdef0157b80" x="1114.949881" y="314.302627" style="fill-opacity: 0; stroke: #595959; stroke-opacity: 0"/>
     <use xlink:href="#mdef0157b80" x="1121.481921" y="325.894569" style="fill-opacity: 0; stroke: #595959; stroke-opacity: 0"/>
     <use xlink:href="#mdef0157b80" x="1128.01396" y="280.0098" style="fill-opacity: 0; stroke: #595959; stroke-opacity: 0"/>
    </g>
   </g>
   <g id="PI-missed-2">
    <defs>
     <path id="mb297cc15a7" d="M 0 4.005 
C 1.062138 4.005 2.080917 3.583008 2.831963 2.831963 
C 3.583008 2.080917 4.005 1.062138 4.005 0 
C 4.005 -1.062138 3.583008 -2.080917 2.831963 -2.831963 
C 2.080917 -3.583008 1.062138 -4.005 0 -4.005 
C -1.062138 -4.005 -2.080917 -3.583008 -2.831963 -2.831963 
C -3.583008 -2.080917 -4.005 -1.062138 -4.005 0 
C -4.005 1.062138 -3.583008 2.080917 -2.831963 2.831963 
C -2.080917 3.583008 -1.062138 4.005 0 4.005 
z
" style="stroke: #595959; stroke-opacity: 0"/>
    </defs>
    <g>
     <use xlink:href="#mb297cc15a7" x="494.406119" y="203.937677" style="fill-opacity: 0; stroke: #595959; stroke-opacity: 0"/>
     <use xlink:href="#mb297cc15a7" x="514.002238" y="211.907136" style="fill-opacity: 0; stroke: #595959; stroke-opacity: 0"/>
     <use xlink:href="#mb297cc15a7" x="520.534277" y="197.175712" style="fill-opacity: 0; stroke: #595959; stroke-opacity: 0"/>
     <use xlink:href="#mb297cc15a7" x="527.066317" y="194.27773" style="fill-opacity: 0; stroke: #595959; stroke-opacity: 0"/>
     <use xlink:href="#mb297cc15a7" x="579.322634" y="208.284656" style="fill-opacity: 0; stroke: #595959; stroke-opacity: 0"/>
     <use xlink:href="#mb297cc15a7" x="592.386713" y="190.65525" style="fill-opacity: 0; stroke: #595959; stroke-opacity: 0"/>
     <use xlink:href="#mb297cc15a7" x="598.918752" y="193.553232" style="fill-opacity: 0; stroke: #595959; stroke-opacity: 0"/>
     <use xlink:href="#mb297cc15a7" x="611.982832" y="240.645497" style="fill-opacity: 0; stroke: #595959; stroke-opacity: 0"/>
     <use xlink:href="#mb297cc15a7" x="625.046911" y="274.055232" style="fill-opacity: 0; stroke: #595959; stroke-opacity: 0"/>
     <use xlink:href="#mb297cc15a7" x="651.175069" y="314.179432" style="fill-opacity: 0; stroke: #595959; stroke-opacity: 0"/>
     <use xlink:href="#mb297cc15a7" x="657.707109" y="318.166608" style="fill-opacity: 0; stroke: #595959; stroke-opacity: 0"/>
     <use xlink:href="#mb297cc15a7" x="664.239149" y="267.210363" style="fill-opacity: 0; stroke: #595959; stroke-opacity: 0"/>
     <use xlink:href="#mb297cc15a7" x="683.835267" y="201.281187" style="fill-opacity: 0; stroke: #595959; stroke-opacity: 0"/>
     <use xlink:href="#mb297cc15a7" x="690.367307" y="315.027123" style="fill-opacity: 0; stroke: #595959; stroke-opacity: 0"/>
     <use xlink:href="#mb297cc15a7" x="696.899347" y="328.551056" style="fill-opacity: 0; stroke: #595959; stroke-opacity: 0"/>
     <use xlink:href="#mb297cc15a7" x="723.027505" y="338.452506" style="fill-opacity: 0; stroke: #595959; stroke-opacity: 0"/>
     <use xlink:href="#mb297cc15a7" x="742.623624" y="326.619065" style="fill-opacity: 0; stroke: #595959; stroke-opacity: 0"/>
     <use xlink:href="#mb297cc15a7" x="755.687703" y="325.170072" style="fill-opacity: 0; stroke: #595959; stroke-opacity: 0"/>
     <use xlink:href="#mb297cc15a7" x="762.219743" y="333.864029" style="fill-opacity: 0; stroke: #595959; stroke-opacity: 0"/>
     <use xlink:href="#mb297cc15a7" x="775.283822" y="302.952183" style="fill-opacity: 0; stroke: #595959; stroke-opacity: 0"/>
     <use xlink:href="#mb297cc15a7" x="781.815861" y="312.853634" style="fill-opacity: 0; stroke: #595959; stroke-opacity: 0"/>
     <use xlink:href="#mb297cc15a7" x="788.347901" y="324.445577" style="fill-opacity: 0; stroke: #595959; stroke-opacity: 0"/>
     <use xlink:href="#mb297cc15a7" x="794.879941" y="330.241547" style="fill-opacity: 0; stroke: #595959; stroke-opacity: 0"/>
     <use xlink:href="#mb297cc15a7" x="801.41198" y="337.486511" style="fill-opacity: 0; stroke: #595959; stroke-opacity: 0"/>
     <use xlink:href="#mb297cc15a7" x="814.476059" y="337.486511" style="fill-opacity: 0; stroke: #595959; stroke-opacity: 0"/>
     <use xlink:href="#mb297cc15a7" x="821.008099" y="329.75855" style="fill-opacity: 0; stroke: #595959; stroke-opacity: 0"/>
     <use xlink:href="#mb297cc15a7" x="827.540139" y="332.898034" style="fill-opacity: 0; stroke: #595959; stroke-opacity: 0"/>
     <use xlink:href="#mb297cc15a7" x="834.072178" y="334.347027" style="fill-opacity: 0; stroke: #595959; stroke-opacity: 0"/>
     <use xlink:href="#mb297cc15a7" x="840.604218" y="325.894569" style="fill-opacity: 0; stroke: #595959; stroke-opacity: 0"/>
     <use xlink:href="#mb297cc15a7" x="873.264416" y="333.62253" style="fill-opacity: 0; stroke: #595959; stroke-opacity: 0"/>
     <use xlink:href="#mb297cc15a7" x="879.796455" y="329.26578" style="fill-opacity: 0; stroke: #595959; stroke-opacity: 0"/>
     <use xlink:href="#mb297cc15a7" x="892.860535" y="307.924047" style="fill-opacity: 0; stroke: #595959; stroke-opacity: 0"/>
     <use xlink:href="#mb297cc15a7" x="905.924614" y="316.396747" style="fill-opacity: 0; stroke: #595959; stroke-opacity: 0"/>
     <use xlink:href="#mb297cc15a7" x="918.988693" y="315.75162" style="fill-opacity: 0; stroke: #595959; stroke-opacity: 0"/>
     <use xlink:href="#mb297cc15a7" x="932.052772" y="313.336632" style="fill-opacity: 0; stroke: #595959; stroke-opacity: 0"/>
     <use xlink:href="#mb297cc15a7" x="938.584812" y="258.757903" style="fill-opacity: 0; stroke: #595959; stroke-opacity: 0"/>
     <use xlink:href="#mb297cc15a7" x="958.180931" y="296.190218" style="fill-opacity: 0; stroke: #595959; stroke-opacity: 0"/>
     <use xlink:href="#mb297cc15a7" x="971.24501" y="308.112632" style="fill-opacity: 0; stroke: #595959; stroke-opacity: 0"/>
     <use xlink:href="#mb297cc15a7" x="977.77705" y="226.574823" style="fill-opacity: 0; stroke: #595959; stroke-opacity: 0"/>
     <use xlink:href="#mb297cc15a7" x="990.841129" y="283.602756" style="fill-opacity: 0; stroke: #595959; stroke-opacity: 0"/>
     <use xlink:href="#mb297cc15a7" x="997.373168" y="263.104882" style="fill-opacity: 0; stroke: #595959; stroke-opacity: 0"/>
     <use xlink:href="#mb297cc15a7" x="1003.905208" y="321.547591" style="fill-opacity: 0; stroke: #595959; stroke-opacity: 0"/>
     <use xlink:href="#mb297cc15a7" x="1010.437248" y="274.213825" style="fill-opacity: 0; stroke: #595959; stroke-opacity: 0"/>
     <use xlink:href="#mb297cc15a7" x="1016.969287" y="326.136068" style="fill-opacity: 0; stroke: #595959; stroke-opacity: 0"/>
     <use xlink:href="#mb297cc15a7" x="1023.501327" y="262.621887" style="fill-opacity: 0; stroke: #595959; stroke-opacity: 0"/>
     <use xlink:href="#mb297cc15a7" x="1030.033366" y="259.965397" style="fill-opacity: 0; stroke: #595959; stroke-opacity: 0"/>
     <use xlink:href="#mb297cc15a7" x="1049.629485" y="293.775228" style="fill-opacity: 0; stroke: #595959; stroke-opacity: 0"/>
     <use xlink:href="#mb297cc15a7" x="1056.161525" y="212.631634" style="fill-opacity: 0; stroke: #595959; stroke-opacity: 0"/>
     <use xlink:href="#mb297cc15a7" x="1069.225604" y="262.138886" style="fill-opacity: 0; stroke: #595959; stroke-opacity: 0"/>
     <use xlink:href="#mb297cc15a7" x="1088.821723" y="306.091668" style="fill-opacity: 0; stroke: #595959; stroke-opacity: 0"/>
     <use xlink:href="#mb297cc15a7" x="1095.353762" y="335.796019" style="fill-opacity: 0; stroke: #595959; stroke-opacity: 0"/>
     <use xlink:href="#mb297cc15a7" x="1101.885802" y="338.935504" style="fill-opacity: 0; stroke: #595959; stroke-opacity: 0"/>
     <use xlink:href="#mb297cc15a7" x="1114.949881" y="314.302627" style="fill-opacity: 0; stroke: #595959; stroke-opacity: 0"/>
     <use xlink:href="#mb297cc15a7" x="1121.481921" y="325.894569" style="fill-opacity: 0; stroke: #595959; stroke-opacity: 0"/>
     <use xlink:href="#mb297cc15a7" x="1128.01396" y="280.0098" style="fill-opacity: 0; stroke: #595959; stroke-opacity: 0"/>
     <use xlink:href="#mb297cc15a7" x="1134.546" y="287.254761" style="fill-opacity: 0; stroke: #595959; stroke-opacity: 0"/>
    </g>
   </g>
   <g id="text_17">
    <text style="font-weight: 800; font-size: 20px; font-family: 'Source Sans 3', sans-serif; text-anchor: start" x="474.81" y="33.96" transform="rotate(-0 474.81 33.96)">Streamflow percentile</text>
   </g>
   <g id="legend-pi">
    <g id="patch_11">
     <path d="M 486.01 75.865 
L 811.03 75.865 
Q 814.23 75.865 814.23 72.665 
L 814.23 51.16 
Q 814.23 47.96 811.03 47.96 
L 486.01 47.96 
Q 482.81 47.96 482.81 51.16 
L 482.81 72.665 
Q 482.81 75.865 486.01 75.865 
L 486.01 75.865 
z
" style="fill: none; opacity: 0.8"/>
    </g>
    <g id="line2d_21">
     <path d="M 489.21 60.3125 
L 505.21 60.3125 
L 521.21 60.3125 
" style="fill: none; stroke-dasharray: 1.5,2.475; stroke-dashoffset: 0; stroke: #af3331; stroke-width: 1.5"/>
    </g>
    <g id="text_18">
     <text style="font-weight: 300; font-size: 16px; font-family: 'Source Sans 3', sans-serif; text-anchor: start; fill: #494949" x="534.01" y="65.9125" transform="rotate(-0 534.01 65.9125)">Observations</text>
    </g>
    <g id="line2d_22">
     <g>
      <use xlink:href="#m26b03c5746" x="666.1675" y="60.3125" style="fill-opacity: 0; stroke: #595959"/>
     </g>
    </g>
    <g id="text_19">
     <text style="font-weight: 300; font-size: 16px; font-family: 'Source Sans 3', sans-serif; text-anchor: start; fill: #494949" x="694.9675" y="65.9125" transform="rotate(-0 694.9675 65.9125)">Missed Prediction</text>
    </g>
   </g>
   <g id="legend-pi">
    <g id="patch_12">
     <path d="M 486.01 75.865 
L 811.03 75.865 
Q 814.23 75.865 814.23 72.665 
L 814.23 51.16 
Q 814.23 47.96 811.03 47.96 
L 486.01 47.96 
Q 482.81 47.96 482.81 51.16 
L 482.81 72.665 
Q 482.81 75.865 486.01 75.865 
L 486.01 75.865 
z
" style="fill: none; opacity: 0.8"/>
    </g>
    <g id="line2d_23">
     <path d="M 489.21 60.3125 
L 505.21 60.3125 
L 521.21 60.3125 
" style="fill: none; stroke-dasharray: 1.5,2.475; stroke-dashoffset: 0; stroke: #af3331; stroke-width: 1.5"/>
    </g>
    <g id="text_20">
     <text style="font-weight: 300; font-size: 16px; font-family: 'Source Sans 3', sans-serif; text-anchor: start; fill: #494949" x="534.01" y="65.9125" transform="rotate(-0 534.01 65.9125)">Observations</text>
    </g>
    <g id="line2d_24">
     <g>
      <use xlink:href="#m26b03c5746" x="666.1675" y="60.3125" style="fill-opacity: 0; stroke: #595959"/>
     </g>
    </g>
    <g id="text_21">
     <text style="font-weight: 300; font-size: 16px; font-family: 'Source Sans 3', sans-serif; text-anchor: start; fill: #494949" x="694.9675" y="65.9125" transform="rotate(-0 694.9675 65.9125)">Missed Prediction</text>
    </g>
   </g>
  </g>
 </g>
 <defs>
  <clipPath id="pbd0facae40">
   <rect x="74.97" y="39.96" width="329.868" height="299.7"/>
  </clipPath>
  <clipPath id="pf742476c88">
   <rect x="474.81" y="39.96" width="659.736" height="299.7"/>
  </clipPath>
 </defs>
</svg>
