<?xml version="1.0" encoding="utf-8" standalone="no"?>
<!DOCTYPE svg PUBLIC "-//W3C//DTD SVG 1.1//EN"
  "http://www.w3.org/Graphics/SVG/1.1/DTD/svg11.dtd">
<svg xmlns:xlink="http://www.w3.org/1999/xlink" width="699.84px" height="699.84px" viewBox="0 0 699.84 699.84" xmlns="http://www.w3.org/2000/svg" version="1.1">
  <defs>
  <style type="text/css">*{stroke-linejoin: round; stroke-linecap: butt}</style>
 </defs>
 <g id="figure-predictioninterval">
  <g id="patch_1">
   <path d="M 0 699.84 
L 699.84 699.84 
L 699.84 0 
L 0 0 
z
" style="fill: #ffffff"/>
  </g>
  <g id="axis-predictioninterval1">
   <g id="patch_2">
    <path d="M 87.48 297.432 
L 664.848 297.432 
L 664.848 34.992 
L 87.48 34.992 
z
" style="fill: #ffffff"/>
   </g>
   <g id="LF-LOWER-MEDIAN">
    <path d="M 87.48 166.212 
L 376.164 297.432 
L 664.848 166.212 
" clip-path="url(#p4c78d26f3f)" style="fill: none; stroke: #00264c; stroke-opacity: 0; stroke-linecap: square"/>
   </g>
   <g id="matplotlib.axis_1">
    <g id="xtick_1">
     <g id="line2d_1">
      <defs>
       <path id="m5b1ee8d5ea" d="M 0 0 
L 0 3.5 
" style="stroke: #949494; stroke-width: 0.8"/>
      </defs>
      <g>
       <use xlink:href="#m5b1ee8d5ea" x="87.48" y="297.432" style="fill: #949494; stroke: #949494; stroke-width: 0.8"/>
      </g>
     </g>
     <g id="text_1">
      <text style="font-weight: 300; font-size: 16px; font-family: 'Source Sans 3', sans-serif; text-anchor: middle; fill: #6e6e6e" x="87.48" y="315.9845" transform="rotate(-0 87.48 315.9845)">Lower</text>
     </g>
    </g>
    <g id="xtick_2">
     <g id="line2d_2">
      <g>
       <use xlink:href="#m5b1ee8d5ea" x="376.164" y="297.432" style="fill: #949494; stroke: #949494; stroke-width: 0.8"/>
      </g>
     </g>
     <g id="text_2">
      <text style="font-weight: 300; font-size: 16px; font-family: 'Source Sans 3', sans-serif; text-anchor: middle; fill: #6e6e6e" x="376.164" y="315.9845" transform="rotate(-0 376.164 315.9845)">Median</text>
     </g>
    </g>
    <g id="xtick_3">
     <g id="line2d_3">
      <g>
       <use xlink:href="#m5b1ee8d5ea" x="664.848" y="297.432" style="fill: #949494; stroke: #949494; stroke-width: 0.8"/>
      </g>
     </g>
     <g id="text_3">
      <text style="font-weight: 300; font-size: 16px; font-family: 'Source Sans 3', sans-serif; text-anchor: middle; fill: #6e6e6e" x="664.848" y="315.9845" transform="rotate(-0 664.848 315.9845)">Upper</text>
     </g>
    </g>
    <g id="text_4">
     <text style="font-weight: 600; font-size: 16px; font-family: 'Source Sans 3', sans-serif; text-anchor: middle; fill: #595959" x="376.164" y="335.0895" transform="rotate(-0 376.164 335.0895)">Estimate</text>
    </g>
   </g>
   <g id="matplotlib.axis_2">
    <g id="ytick_1">
     <g id="line2d_4">
      <defs>
       <path id="m51ee75ba2e" d="M 0 0 
L -3.5 0 
" style="stroke: #949494; stroke-width: 0.8"/>
      </defs>
      <g>
       <use xlink:href="#m51ee75ba2e" x="87.48" y="297.432" style="fill: #949494; stroke: #949494; stroke-width: 0.8"/>
      </g>
     </g>
     <g id="text_5">
      <text style="font-weight: 300; font-size: 16px; font-family: 'Source Sans 3', sans-serif; fill: #6e6e6e" transform="translate(52.6725 286.948)">Less</text>
      <text style="font-weight: 300; font-size: 16px; font-family: 'Source Sans 3', sans-serif; fill: #6e6e6e" transform="translate(32.6725 304.3635)">Penalty</text>
      <text style="font-weight: 300; font-size: 16px; font-family: 'Source Sans 3', sans-serif; fill: #6e6e6e" transform="translate(80.48 321.779)"/>
     </g>
    </g>
    <g id="ytick_2">
     <g id="line2d_5">
      <g>
       <use xlink:href="#m51ee75ba2e" x="87.48" y="166.212" style="fill: #949494; stroke: #949494; stroke-width: 0.8"/>
      </g>
     </g>
    </g>
    <g id="ytick_3">
     <g id="line2d_6">
      <g>
       <use xlink:href="#m51ee75ba2e" x="87.48" y="34.992" style="fill: #949494; stroke: #949494; stroke-width: 0.8"/>
      </g>
     </g>
     <g id="text_6">
      <text style="font-weight: 300; font-size: 16px; font-family: 'Source Sans 3', sans-serif; fill: #6e6e6e" transform="translate(48.2575 33.21575)">More</text>
      <text style="font-weight: 300; font-size: 16px; font-family: 'Source Sans 3', sans-serif; fill: #6e6e6e" transform="translate(32.6725 50.63125)">Penalty</text>
     </g>
    </g>
   </g>
   <g id="LF-LOWER-0">
    <path d="M 87.48 284.31 
L 376.164 297.432 
L 664.848 48.114 
" clip-path="url(#p4c78d26f3f)" style="fill: none; stroke: #b78935; stroke-opacity: 0; stroke-linecap: square"/>
   </g>
   <g id="LF-UPPER-0">
    <path d="M 87.48 48.114 
L 376.164 297.432 
L 664.848 284.31 
" clip-path="url(#p4c78d26f3f)" style="fill: none; stroke: #406992; stroke-opacity: 0; stroke-linecap: square"/>
   </g>
   <g id="LF-LOWER-1">
    <path d="M 87.48 264.627 
L 376.164 297.432 
L 664.848 67.797 
" clip-path="url(#p4c78d26f3f)" style="fill: none; stroke: #b78935; stroke-opacity: 0; stroke-linecap: square"/>
   </g>
   <g id="LF-UPPER-1">
    <path d="M 87.48 67.797 
L 376.164 297.432 
L 664.848 264.627 
" clip-path="url(#p4c78d26f3f)" style="fill: none; stroke: #406992; stroke-opacity: 0; stroke-linecap: square"/>
   </g>
   <g id="LF-LOWER-2">
    <path d="M 87.48 231.822 
L 376.164 297.432 
L 664.848 100.602 
" clip-path="url(#p4c78d26f3f)" style="fill: none; stroke: #b78935; stroke-opacity: 0; stroke-linecap: square"/>
   </g>
   <g id="LF-UPPER-2">
    <path d="M 87.48 100.602 
L 376.164 297.432 
L 664.848 231.822 
" clip-path="url(#p4c78d26f3f)" style="fill: none; stroke: #406992; stroke-opacity: 0; stroke-linecap: square"/>
   </g>
   <g id="patch_3">
    <path d="M 87.48 297.432 
L 87.48 34.992 
" style="fill: none; stroke: #949494; stroke-width: 0.8; stroke-linejoin: miter; stroke-linecap: square"/>
   </g>
   <g id="patch_4">
    <path d="M 87.48 297.432 
L 664.848 297.432 
" style="fill: none; stroke: #949494; stroke-width: 0.8; stroke-linejoin: miter; stroke-linecap: square"/>
   </g>
   <g id="text_7">
    <text style="font-weight: 800; font-size: 20px; font-family: 'Source Sans 3', sans-serif; text-anchor: start" x="87.48" y="28.992" transform="rotate(-0 87.48 28.992)">Loss function</text>
   </g>
  </g>
  <g id="axis-predictioninterval2">
   <g id="patch_5">
    <path d="M 87.48 647.352 
L 664.848 647.352 
L 664.848 384.912 
L 87.48 384.912 
z
" style="fill: #ffffff"/>
   </g>
   <g id="PI-PATCH-0">
    <path d="M 87.48 558.721396 
L 87.48 607.445408 
L 93.196515 602.237882 
L 98.91303 618.974802 
L 104.629545 612.658272 
L 110.346059 614.43164 
L 116.062574 627.648154 
L 121.779089 617.350167 
L 127.495604 618.296722 
L 133.212119 615.250461 
L 138.928634 630.530399 
L 144.645149 631.389156 
L 150.361663 621.507858 
L 156.078178 633.466199 
L 161.794693 628.096473 
L 167.511208 624.407524 
L 173.227723 637.186924 
L 178.944238 612.969976 
L 184.660752 615.839117 
L 190.377267 624.104007 
L 196.093782 624.549589 
L 201.810297 610.496962 
L 207.526812 617.338689 
L 213.243327 604.793134 
L 218.959842 613.343803 
L 224.676356 614.233154 
L 230.392871 610.270364 
L 236.109386 620.399408 
L 241.825901 622.34933 
L 247.542416 634.843932 
L 253.258931 632.014092 
L 258.975446 622.446727 
L 264.69196 620.745046 
L 270.408475 610.274021 
L 276.12499 609.539124 
L 281.841505 640.528401 
L 287.55802 647.352 
L 293.274535 647.352 
L 298.99105 647.352 
L 304.707564 647.352 
L 310.424079 647.352 
L 316.140594 637.446383 
L 321.857109 640.829348 
L 327.573624 646.520318 
L 333.290139 643.958298 
L 339.006653 646.90935 
L 344.723168 647.352 
L 350.439683 643.573448 
L 356.156198 636.449928 
L 361.872713 637.403363 
L 367.589228 638.157107 
L 373.305743 647.352 
L 379.022257 647.352 
L 384.738772 646.312783 
L 390.455287 646.297026 
L 396.171802 647.352 
L 401.888317 647.352 
L 407.604832 645.879932 
L 413.321347 645.640432 
L 419.037861 647.352 
L 424.754376 644.784672 
L 430.470891 647.352 
L 436.187406 647.352 
L 441.903921 647.352 
L 447.620436 647.352 
L 453.33695 647.352 
L 459.053465 634.160736 
L 464.76998 626.73818 
L 470.486495 647.352 
L 476.20301 646.378468 
L 481.919525 647.352 
L 487.63604 646.252387 
L 493.352554 639.212026 
L 499.069069 618.766767 
L 504.785584 622.02375 
L 510.502099 619.579306 
L 516.218614 635.593046 
L 521.935129 642.003756 
L 527.651644 632.004862 
L 533.368158 619.706577 
L 539.084673 618.147201 
L 544.801188 638.799625 
L 550.517703 623.86731 
L 556.234218 645.910577 
L 561.950733 622.243578 
L 567.667248 645.277636 
L 573.383762 610.018763 
L 579.100277 617.83185 
L 584.816792 603.615686 
L 590.533307 613.03743 
L 596.249822 619.797657 
L 601.966337 604.064577 
L 607.682851 615.185826 
L 613.399366 619.51208 
L 619.115881 625.221242 
L 624.832396 621.521639 
L 630.548911 634.165891 
L 636.265426 647.352 
L 641.981941 647.352 
L 647.698455 647.352 
L 653.41497 643.315721 
L 659.131485 641.262233 
L 664.848 629.24028 
L 670.564515 626.685308 
L 676.28103 640.434844 
L 5461.00396 612.066347 
L 5466.720475 618.311518 
L 5472.43699 617.151875 
L 5478.153505 610.52871 
L 5483.87002 609.659745 
L 5489.586535 616.966884 
L 5495.30305 605.919221 
L 5501.019564 610.988832 
L 5506.736079 629.705582 
L 5512.452594 608.070375 
L 5518.169109 609.329871 
L 5523.885624 628.59362 
L 5529.602139 626.104876 
L 5535.318653 603.369663 
L 5541.035168 607.020741 
L 5546.751683 613.937898 
L 5552.468198 618.825411 
L 5558.184713 616.895536 
L 5563.901228 616.780649 
L 5569.617743 618.956058 
L 5575.334257 607.675918 
L 5581.050772 609.744438 
L 5586.767287 608.748573 
L 5592.483802 605.552313 
L 5598.200317 612.645085 
L 5603.916832 608.595014 
L 5609.633347 605.056886 
L 5615.349861 608.627909 
L 5621.066376 602.597477 
L 5626.782891 604.788233 
L 5632.499406 618.905528 
L 5638.215921 604.683961 
L 5643.932436 607.671127 
L 5649.64895 614.321793 
L 5655.365465 598.650581 
L 5661.08198 603.257857 
L 5666.798495 601.95214 
L 5672.51501 614.941262 
L 5678.231525 613.973874 
L 5683.94804 619.426651 
L 5689.664554 623.208694 
L 5695.381069 621.170751 
L 5701.097584 615.552119 
L 5706.814099 617.12689 
L 5712.530614 620.34979 
L 5718.247129 620.766605 
L 5723.963644 612.504291 
L 5729.680158 604.70983 
L 5735.396673 605.721095 
L 5741.113188 615.842093 
L 5746.829703 607.97486 
L 5752.546218 617.330154 
L 5758.262733 620.950417 
L 5763.979248 612.15082 
L 5769.695762 612.797191 
L 5775.412277 626.455952 
L 5781.128792 603.295164 
L 5786.845307 611.826412 
L 5792.561822 609.276673 
L 5798.278337 621.722188 
L 5803.994851 617.571001 
L 5809.711366 612.012364 
L 5815.427881 625.175653 
L 5821.144396 623.042096 
L 5826.860911 620.224015 
L 5832.577426 596.478496 
L 5838.293941 598.721396 
L 5844.010455 600.641101 
L 5849.72697 598.678778 
L 5855.443485 598.934626 
L 5861.16 619.972787 
L 5866.876515 621.398295 
L 5872.59303 623.433473 
L 5878.309545 619.317438 
L 5884.026059 611.619463 
L 5889.742574 611.141374 
L 5895.459089 610.177647 
L 5895.459089 547.89928 
L 5895.459089 547.89928 
L 5889.742574 553.340857 
L 5884.026059 557.845127 
L 5878.309545 563.749487 
L 5872.59303 565.039021 
L 5866.876515 562.780314 
L 5861.16 561.32318 
L 5855.443485 548.17468 
L 5849.72697 547.93536 
L 5844.010455 548.471635 
L 5838.293941 544.670168 
L 5832.577426 539.572648 
L 5826.860911 560.256016 
L 5821.144396 568.858094 
L 5815.427881 562.299792 
L 5809.711366 548.802739 
L 5803.994851 559.679726 
L 5798.278337 561.90818 
L 5792.561822 556.14521 
L 5786.845307 559.344649 
L 5781.128792 552.300884 
L 5775.412277 567.252147 
L 5769.695762 553.64512 
L 5763.979248 557.000455 
L 5758.262733 558.585572 
L 5752.546218 559.112397 
L 5746.829703 553.481035 
L 5741.113188 565.883804 
L 5735.396673 549.55753 
L 5729.680158 557.495713 
L 5723.963644 564.627117 
L 5718.247129 564.647875 
L 5712.530614 563.772703 
L 5706.814099 561.818258 
L 5701.097584 560.800931 
L 5695.381069 564.371313 
L 5689.664554 561.237704 
L 5683.94804 557.167333 
L 5678.231525 560.423956 
L 5672.51501 562.650157 
L 5666.798495 549.276603 
L 5661.08198 550.908313 
L 5655.365465 552.676047 
L 5649.64895 564.279509 
L 5643.932436 551.846672 
L 5638.215921 553.838889 
L 5632.499406 565.389031 
L 5626.782891 552.100138 
L 5621.066376 550.041085 
L 5615.349861 546.235663 
L 5609.633347 543.765077 
L 5603.916832 551.190602 
L 5598.200317 562.250086 
L 5592.483802 556.186957 
L 5586.767287 560.913288 
L 5581.050772 557.708393 
L 5575.334257 552.408475 
L 5569.617743 556.417527 
L 5563.901228 554.937748 
L 5558.184713 554.199596 
L 5552.468198 555.394693 
L 5546.751683 551.316304 
L 5541.035168 552.249616 
L 5535.318653 546.422964 
L 5529.602139 563.663179 
L 5523.885624 562.193752 
L 5518.169109 549.637901 
L 5512.452594 543.945921 
L 5506.736079 570.882026 
L 5501.019564 554.688767 
L 5495.30305 552.427066 
L 5489.586535 567.806548 
L 5483.87002 558.168582 
L 5478.153505 565.948577 
L 5472.43699 573.977698 
L 5466.720475 576.653361 
L 5461.00396 563.056946 
L 676.28103 596.812428 
L 670.564515 580.309304 
L 664.848 577.773069 
L 659.131485 590.977652 
L 653.41497 597.406107 
L 647.698455 602.815633 
L 641.981941 605.660407 
L 636.265426 599.215723 
L 630.548911 583.326712 
L 624.832396 571.881143 
L 619.115881 573.77158 
L 613.399366 570.11795 
L 607.682851 562.961888 
L 601.966337 549.428594 
L 596.249822 567.061577 
L 590.533307 560.905549 
L 584.816792 548.090846 
L 579.100277 565.972714 
L 573.383762 556.307123 
L 567.667248 588.954219 
L 561.950733 568.506963 
L 556.234218 586.817439 
L 550.517703 570.5485 
L 544.801188 584.120868 
L 539.084673 552.540775 
L 533.368158 564.350635 
L 527.651644 578.901396 
L 521.935129 590.436236 
L 516.218614 582.376391 
L 510.502099 570.889204 
L 504.785584 572.767853 
L 499.069069 567.169394 
L 493.352554 594.415639 
L 487.63604 600.276725 
L 481.919525 599.760292 
L 476.20301 591.582184 
L 470.486495 603.994858 
L 464.76998 582.689659 
L 459.053465 587.236888 
L 453.33695 604.27949 
L 447.620436 599.911893 
L 441.903921 605.744782 
L 436.187406 595.269272 
L 430.470891 595.505479 
L 424.754376 595.789419 
L 419.037861 604.244835 
L 413.321347 601.501551 
L 407.604832 596.070296 
L 401.888317 602.189322 
L 396.171802 601.947374 
L 390.455287 597.601933 
L 384.738772 604.970944 
L 379.022257 611.985353 
L 373.305743 602.760697 
L 367.589228 589.92957 
L 361.872713 594.240787 
L 356.156198 594.389705 
L 350.439683 598.762938 
L 344.723168 602.061888 
L 339.006653 599.217856 
L 333.290139 596.087855 
L 327.573624 598.04686 
L 321.857109 592.607155 
L 316.140594 582.285012 
L 310.424079 601.690109 
L 304.707564 600.526587 
L 298.99105 601.659394 
L 293.274535 603.119226 
L 287.55802 599.774809 
L 281.841505 587.987784 
L 276.12499 561.311377 
L 270.408475 562.300322 
L 264.69196 573.723626 
L 258.975446 570.920014 
L 253.258931 576.372043 
L 247.542416 579.159723 
L 241.825901 569.458801 
L 236.109386 555.869679 
L 230.392871 544.676525 
L 224.676356 566.571139 
L 218.959842 567.256402 
L 213.243327 556.330819 
L 207.526812 560.849616 
L 201.810297 549.95635 
L 196.093782 560.564995 
L 190.377267 556.114856 
L 184.660752 558.325349 
L 178.944238 554.96589 
L 173.227723 565.429321 
L 167.511208 553.400444 
L 161.794693 563.325649 
L 156.078178 564.385119 
L 150.361663 558.174379 
L 144.645149 562.497575 
L 138.928634 566.693357 
L 133.212119 550.739223 
L 127.495604 562.163928 
L 121.779089 564.295042 
L 116.062574 569.885422 
L 110.346059 557.126387 
L 104.629545 557.822111 
L 98.91303 560.784953 
L 93.196515 548.940484 
L 87.48 558.721396 
z
" clip-path="url(#p888c11e9f4)" style="fill: #e6e6e6; fill-opacity: 0.00001"/>
   </g>
   <g id="PI-PATCH-LOWER-0">
    <path d="M 87.48 607.445408 
L 93.196515 602.237882 
L 98.91303 618.974802 
L 104.629545 612.658272 
L 110.346059 614.43164 
L 116.062574 627.648154 
L 121.779089 617.350167 
L 127.495604 618.296722 
L 133.212119 615.250461 
L 138.928634 630.530399 
L 144.645149 631.389156 
L 150.361663 621.507858 
L 156.078178 633.466199 
L 161.794693 628.096473 
L 167.511208 624.407524 
L 173.227723 637.186924 
L 178.944238 612.969976 
L 184.660752 615.839117 
L 190.377267 624.104007 
L 196.093782 624.549589 
L 201.810297 610.496962 
L 207.526812 617.338689 
L 213.243327 604.793134 
L 218.959842 613.343803 
L 224.676356 614.233154 
L 230.392871 610.270364 
L 236.109386 620.399408 
L 241.825901 622.34933 
L 247.542416 634.843932 
L 253.258931 632.014092 
L 258.975446 622.446727 
L 264.69196 620.745046 
L 270.408475 610.274021 
L 276.12499 609.539124 
L 281.841505 640.528401 
L 287.55802 647.352 
L 310.424079 647.352 
L 316.140594 637.446383 
L 321.857109 640.829348 
L 327.573624 646.520318 
L 333.290139 643.958298 
L 339.006653 646.90935 
L 344.723168 647.352 
L 350.439683 643.573448 
L 356.156198 636.449928 
L 361.872713 637.403363 
L 367.589228 638.157107 
L 373.305743 647.352 
L 379.022257 647.352 
L 384.738772 646.312783 
L 390.455287 646.297026 
L 396.171802 647.352 
L 401.888317 647.352 
L 407.604832 645.879932 
L 413.321347 645.640432 
L 419.037861 647.352 
L 424.754376 644.784672 
L 430.470891 647.352 
L 453.33695 647.352 
L 459.053465 634.160736 
L 464.76998 626.73818 
L 470.486495 647.352 
L 476.20301 646.378468 
L 481.919525 647.352 
L 487.63604 646.252387 
L 493.352554 639.212026 
L 499.069069 618.766767 
L 504.785584 622.02375 
L 510.502099 619.579306 
L 516.218614 635.593046 
L 521.935129 642.003756 
L 527.651644 632.004862 
L 533.368158 619.706577 
L 539.084673 618.147201 
L 544.801188 638.799625 
L 550.517703 623.86731 
L 556.234218 645.910577 
L 561.950733 622.243578 
L 567.667248 645.277636 
L 573.383762 610.018763 
L 579.100277 617.83185 
L 584.816792 603.615686 
L 590.533307 613.03743 
L 596.249822 619.797657 
L 601.966337 604.064577 
L 607.682851 615.185826 
L 613.399366 619.51208 
L 619.115881 625.221242 
L 624.832396 621.521639 
L 630.548911 634.165891 
L 636.265426 647.352 
L 647.698455 647.352 
L 653.41497 643.315721 
L 659.131485 641.262233 
L 664.848 629.24028 
L 670.564515 626.685308 
L 676.28103 640.434844 
L 700.84 640.289234 
L 700.84 640.289234 
" clip-path="url(#p888c11e9f4)" style="fill: none; stroke: #b78935; stroke-opacity: 0; stroke-linecap: square"/>
   </g>
   <g id="PI-PATCH-UPPER-0">
    <path d="M 87.48 558.721396 
L 93.196515 548.940484 
L 98.91303 560.784953 
L 104.629545 557.822111 
L 110.346059 557.126387 
L 116.062574 569.885422 
L 121.779089 564.295042 
L 127.495604 562.163928 
L 133.212119 550.739223 
L 138.928634 566.693357 
L 150.361663 558.174379 
L 156.078178 564.385119 
L 161.794693 563.325649 
L 167.511208 553.400444 
L 173.227723 565.429321 
L 178.944238 554.96589 
L 184.660752 558.325349 
L 190.377267 556.114856 
L 196.093782 560.564995 
L 201.810297 549.95635 
L 207.526812 560.849616 
L 213.243327 556.330819 
L 218.959842 567.256402 
L 224.676356 566.571139 
L 230.392871 544.676525 
L 236.109386 555.869679 
L 241.825901 569.458801 
L 247.542416 579.159723 
L 253.258931 576.372043 
L 258.975446 570.920014 
L 264.69196 573.723626 
L 270.408475 562.300322 
L 276.12499 561.311377 
L 281.841505 587.987784 
L 287.55802 599.774809 
L 293.274535 603.119226 
L 298.99105 601.659394 
L 304.707564 600.526587 
L 310.424079 601.690109 
L 316.140594 582.285012 
L 321.857109 592.607155 
L 327.573624 598.04686 
L 333.290139 596.087855 
L 339.006653 599.217856 
L 344.723168 602.061888 
L 350.439683 598.762938 
L 356.156198 594.389705 
L 361.872713 594.240787 
L 367.589228 589.92957 
L 373.305743 602.760697 
L 379.022257 611.985353 
L 384.738772 604.970944 
L 390.455287 597.601933 
L 396.171802 601.947374 
L 401.888317 602.189322 
L 407.604832 596.070296 
L 413.321347 601.501551 
L 419.037861 604.244835 
L 424.754376 595.789419 
L 436.187406 595.269272 
L 441.903921 605.744782 
L 447.620436 599.911893 
L 453.33695 604.27949 
L 459.053465 587.236888 
L 464.76998 582.689659 
L 470.486495 603.994858 
L 476.20301 591.582184 
L 481.919525 599.760292 
L 487.63604 600.276725 
L 493.352554 594.415639 
L 499.069069 567.169394 
L 504.785584 572.767853 
L 510.502099 570.889204 
L 516.218614 582.376391 
L 521.935129 590.436236 
L 527.651644 578.901396 
L 533.368158 564.350635 
L 539.084673 552.540775 
L 544.801188 584.120868 
L 550.517703 570.5485 
L 556.234218 586.817439 
L 561.950733 568.506963 
L 567.667248 588.954219 
L 573.383762 556.307123 
L 579.100277 565.972714 
L 584.816792 548.090846 
L 590.533307 560.905549 
L 596.249822 567.061577 
L 601.966337 549.428594 
L 607.682851 562.961888 
L 613.399366 570.11795 
L 619.115881 573.77158 
L 624.832396 571.881143 
L 630.548911 583.326712 
L 636.265426 599.215723 
L 641.981941 605.660407 
L 647.698455 602.815633 
L 653.41497 597.406107 
L 659.131485 590.977652 
L 664.848 577.773069 
L 670.564515 580.309304 
L 676.28103 596.812428 
L 700.84 596.639168 
L 700.84 596.639168 
" clip-path="url(#p888c11e9f4)" style="fill: none; stroke: #406992; stroke-opacity: 0; stroke-linecap: square"/>
   </g>
   <g id="PI-PATCH-1">
    <path d="M 87.48 567.958064 
L 87.48 600.288355 
L 93.196515 592.85276 
L 98.91303 609.101692 
L 104.629545 603.105097 
L 110.346059 604.23497 
L 116.062574 617.841854 
L 121.779089 608.37886 
L 127.495604 608.855948 
L 133.212119 603.959695 
L 138.928634 619.853248 
L 144.645149 619.742399 
L 150.361663 610.575078 
L 156.078178 621.863791 
L 161.794693 616.987735 
L 167.511208 612.056831 
L 173.227723 624.782333 
L 178.944238 602.874756 
L 184.660752 605.793212 
L 190.377267 612.131322 
L 196.093782 613.400437 
L 201.810297 599.605885 
L 207.526812 607.682654 
L 213.243327 596.761744 
L 218.959842 606.323171 
L 224.676356 607.711876 
L 230.392871 599.390526 
L 236.109386 609.588679 
L 241.825901 613.905345 
L 247.542416 629.27976 
L 253.258931 626.686287 
L 258.975446 615.773622 
L 264.69196 614.661104 
L 270.408475 603.627057 
L 276.12499 602.237942 
L 281.841505 635.40405 
L 287.55802 643.398758 
L 293.274535 645.320341 
L 298.99105 643.35182 
L 304.707564 643.33363 
L 310.424079 644.288958 
L 316.140594 631.151956 
L 321.857109 634.655349 
L 327.573624 641.588625 
L 333.290139 639.040558 
L 339.006653 642.35928 
L 344.723168 644.016324 
L 350.439683 639.086738 
L 356.156198 631.62568 
L 361.872713 633.065933 
L 367.589228 633.667082 
L 373.305743 644.231531 
L 379.022257 646.667813 
L 384.738772 642.78527 
L 390.455287 642.246234 
L 396.171802 643.741412 
L 401.888317 643.992314 
L 407.604832 641.714017 
L 413.321347 641.889324 
L 419.037861 644.078113 
L 424.754376 640.569543 
L 430.470891 642.944434 
L 436.187406 643.065271 
L 441.903921 645.94135 
L 447.620436 643.471387 
L 453.33695 643.934343 
L 459.053465 628.686631 
L 464.76998 620.758192 
L 470.486495 643.739376 
L 476.20301 641.626308 
L 481.919525 642.906109 
L 487.63604 642.270474 
L 493.352554 634.553127 
L 499.069069 610.858984 
L 504.785584 614.159685 
L 510.502099 612.591192 
L 516.218614 629.493507 
L 521.935129 636.663679 
L 527.651644 626.140651 
L 533.368158 611.085673 
L 539.084673 607.884005 
L 544.801188 631.630707 
L 550.517703 616.512253 
L 556.234218 640.526632 
L 561.950733 615.497137 
L 567.667248 640.195646 
L 573.383762 602.769252 
L 579.100277 610.477554 
L 584.816792 594.981916 
L 590.533307 604.937695 
L 596.249822 613.317653 
L 601.966337 595.180561 
L 607.682851 606.104036 
L 613.399366 611.468889 
L 619.115881 618.026408 
L 624.832396 613.940574 
L 630.548911 628.07447 
L 636.265426 643.882065 
L 641.981941 645.592742 
L 647.698455 644.351955 
L 653.41497 638.873783 
L 659.131485 636.769947 
L 664.848 622.635652 
L 670.564515 620.918961 
L 676.28103 636.144803 
L 5461.00396 604.963502 
L 5466.720475 612.464238 
L 5472.43699 611.472376 
L 5478.153505 603.730521 
L 5483.87002 601.471644 
L 5489.586535 609.13567 
L 5495.30305 596.893687 
L 5501.019564 601.691716 
L 5506.736079 620.269054 
L 5512.452594 597.573843 
L 5518.169109 599.137082 
L 5523.885624 617.356542 
L 5529.602139 616.0361 
L 5535.318653 593.629641 
L 5541.035168 597.889403 
L 5546.751683 603.02878 
L 5552.468198 608.098744 
L 5558.184713 605.982796 
L 5563.901228 606.668973 
L 5569.617743 608.612245 
L 5575.334257 599.281256 
L 5581.050772 601.67296 
L 5586.767287 601.02128 
L 5592.483802 598.821018 
L 5598.200317 606.490358 
L 5603.916832 599.738609 
L 5609.633347 595.330492 
L 5615.349861 598.980665 
L 5621.066376 594.744995 
L 5626.782891 597.242283 
L 5632.499406 613.524589 
L 5638.215921 597.627898 
L 5643.932436 600.0365 
L 5649.64895 607.751202 
L 5655.365465 591.939799 
L 5661.08198 596.260922 
L 5666.798495 594.63026 
L 5672.51501 606.684558 
L 5678.231525 604.79441 
L 5683.94804 608.607026 
L 5689.664554 612.050891 
L 5695.381069 610.678865 
L 5701.097584 605.417646 
L 5706.814099 606.75373 
L 5712.530614 609.652392 
L 5718.247129 610.258679 
L 5723.963644 603.665603 
L 5729.680158 596.291985 
L 5735.396673 595.981209 
L 5741.113188 607.318568 
L 5746.829703 598.841348 
L 5752.546218 607.715721 
L 5758.262733 611.080289 
L 5763.979248 603.320715 
L 5769.695762 603.098737 
L 5775.412277 617.262528 
L 5781.128792 595.202304 
L 5786.845307 603.257325 
L 5792.561822 600.573131 
L 5798.278337 612.101652 
L 5803.994851 610.671473 
L 5809.711366 601.866797 
L 5815.427881 614.987157 
L 5821.144396 616.538483 
L 5826.860911 610.642352 
L 5832.577426 587.643918 
L 5838.293941 589.780032 
L 5844.010455 592.466533 
L 5849.72697 590.358768 
L 5855.443485 590.595558 
L 5861.16 613.030197 
L 5866.876515 614.701759 
L 5872.59303 616.990582 
L 5878.309545 612.332452 
L 5884.026059 603.459709 
L 5889.742574 601.608587 
L 5895.459089 600.158634 
L 5895.459089 558.469963 
L 5895.459089 558.469963 
L 5889.742574 562.819356 
L 5884.026059 567.66915 
L 5878.309545 575.953716 
L 5872.59303 579.137012 
L 5866.876515 576.60745 
L 5861.16 574.813864 
L 5855.443485 556.544792 
L 5849.72697 556.32593 
L 5844.010455 557.636002 
L 5838.293941 553.495633 
L 5832.577426 549.68556 
L 5826.860911 570.527711 
L 5821.144396 581.194441 
L 5815.427881 572.867824 
L 5809.711366 559.564486 
L 5803.994851 572.929726 
L 5798.278337 572.063453 
L 5792.561822 564.942023 
L 5786.845307 568.07365 
L 5781.128792 561.113503 
L 5775.412277 577.77047 
L 5769.695762 563.426451 
L 5763.979248 566.421136 
L 5758.262733 569.401869 
L 5752.546218 568.641115 
L 5746.829703 562.210056 
L 5741.113188 573.673246 
L 5735.396673 558.090842 
L 5729.680158 564.34305 
L 5723.963644 571.141328 
L 5718.247129 572.07385 
L 5712.530614 571.112303 
L 5706.814099 569.113034 
L 5701.097584 568.212465 
L 5695.381069 572.090923 
L 5689.664554 570.070651 
L 5683.94804 566.594737 
L 5678.231525 568.712175 
L 5672.51501 571.746415 
L 5666.798495 559.851928 
L 5661.08198 561.814859 
L 5655.365465 561.451642 
L 5649.64895 574.87269 
L 5643.932436 563.231432 
L 5638.215921 564.06287 
L 5632.499406 579.052309 
L 5626.782891 562.362607 
L 5621.066376 559.816317 
L 5615.349861 557.379033 
L 5609.633347 554.358261 
L 5603.916832 561.470949 
L 5598.200317 573.573546 
L 5592.483802 566.282796 
L 5586.767287 568.987389 
L 5581.050772 566.965904 
L 5575.334257 562.493439 
L 5569.617743 566.630999 
L 5563.901228 565.203696 
L 5558.184713 563.668661 
L 5552.468198 565.42011 
L 5546.751683 560.760922 
L 5541.035168 561.092071 
L 5535.318653 555.267724 
L 5529.602139 574.228267 
L 5523.885624 572.676672 
L 5518.169109 558.932846 
L 5512.452594 554.573857 
L 5506.736079 580.904181 
L 5501.019564 563.904485 
L 5495.30305 560.910654 
L 5489.586535 576.260523 
L 5483.87002 567.043828 
L 5478.153505 574.045293 
L 5472.43699 583.101834 
L 5466.720475 584.936208 
L 5461.00396 572.484078 
L 676.28103 608.085938 
L 670.564515 590.584378 
L 664.848 588.885003 
L 659.131485 604.615411 
L 653.41497 609.374313 
L 647.698455 616.282752 
L 641.981941 619.755582 
L 636.265426 613.448832 
L 630.548911 594.916732 
L 624.832396 580.881039 
L 619.115881 584.039301 
L 613.399366 578.364262 
L 607.682851 570.861001 
L 601.966337 558.568106 
L 596.249822 578.855228 
L 590.533307 570.161114 
L 584.816792 557.939054 
L 579.100277 576.177176 
L 573.383762 567.397413 
L 567.667248 604.158555 
L 561.950733 580.320816 
L 556.234218 602.695623 
L 550.517703 581.332746 
L 544.801188 595.710337 
L 539.084673 564.089444 
L 533.368158 574.149883 
L 527.651644 591.714773 
L 521.935129 603.381903 
L 516.218614 594.900987 
L 510.502099 580.352025 
L 504.785584 581.213255 
L 499.069069 576.484547 
L 493.352554 605.63308 
L 487.63604 612.923777 
L 481.919525 612.392263 
L 476.20301 606.646689 
L 470.486495 616.123748 
L 464.76998 591.735476 
L 459.053465 598.144528 
L 453.33695 616.571682 
L 447.620436 613.285406 
L 441.903921 620.300895 
L 436.187406 609.914177 
L 430.470891 609.884975 
L 424.754376 609.307261 
L 419.037861 616.754762 
L 413.321347 613.745082 
L 407.604832 609.982026 
L 401.888317 615.39551 
L 396.171802 614.893928 
L 390.455287 611.233449 
L 384.738772 616.418598 
L 379.022257 625.088611 
L 373.305743 616.07885 
L 367.589228 602.751957 
L 361.872713 605.264086 
L 356.156198 604.283762 
L 350.439683 610.230255 
L 344.723168 615.352846 
L 339.006653 611.741753 
L 333.290139 608.161409 
L 327.573624 610.340585 
L 321.857109 603.03863 
L 316.140594 595.307033 
L 310.424079 615.515755 
L 304.707564 613.460074 
L 298.99105 614.167895 
L 293.274535 617.839227 
L 287.55802 613.099846 
L 281.841505 601.6267 
L 276.12499 570.146109 
L 270.408475 571.961993 
L 264.69196 583.805016 
L 258.975446 581.958488 
L 253.258931 590.956536 
L 247.542416 593.425697 
L 241.825901 578.527929 
L 236.109386 566.213189 
L 230.392871 555.345453 
L 224.676356 576.287068 
L 218.959842 575.637376 
L 213.243327 564.223066 
L 207.526812 569.631408 
L 201.810297 558.598454 
L 196.093782 570.211507 
L 190.377267 566.186728 
L 184.660752 566.96186 
L 178.944238 563.727563 
L 173.227723 576.388134 
L 167.511208 564.137051 
L 161.794693 573.342362 
L 156.078178 575.416766 
L 150.361663 567.868719 
L 144.645149 573.390902 
L 138.928634 576.950705 
L 133.212119 560.394423 
L 127.495604 571.109299 
L 121.779089 572.681642 
L 116.062574 578.960897 
L 110.346059 565.466056 
L 104.629545 566.092053 
L 98.91303 569.935622 
L 93.196515 556.836481 
L 87.48 567.958064 
z
" clip-path="url(#p888c11e9f4)" style="fill: #bfbfbf; fill-opacity: 0.00001"/>
   </g>
   <g id="PI-PATCH-LOWER-1">
    <path d="M 87.48 600.288355 
L 93.196515 592.85276 
L 98.91303 609.101692 
L 104.629545 603.105097 
L 110.346059 604.23497 
L 116.062574 617.841854 
L 121.779089 608.37886 
L 127.495604 608.855948 
L 133.212119 603.959695 
L 138.928634 619.853248 
L 144.645149 619.742399 
L 150.361663 610.575078 
L 156.078178 621.863791 
L 167.511208 612.056831 
L 173.227723 624.782333 
L 178.944238 602.874756 
L 184.660752 605.793212 
L 190.377267 612.131322 
L 196.093782 613.400437 
L 201.810297 599.605885 
L 207.526812 607.682654 
L 213.243327 596.761744 
L 218.959842 606.323171 
L 224.676356 607.711876 
L 230.392871 599.390526 
L 236.109386 609.588679 
L 241.825901 613.905345 
L 247.542416 629.27976 
L 253.258931 626.686287 
L 258.975446 615.773622 
L 264.69196 614.661104 
L 270.408475 603.627057 
L 276.12499 602.237942 
L 281.841505 635.40405 
L 287.55802 643.398758 
L 293.274535 645.320341 
L 298.99105 643.35182 
L 304.707564 643.33363 
L 310.424079 644.288958 
L 316.140594 631.151956 
L 321.857109 634.655349 
L 327.573624 641.588625 
L 333.290139 639.040558 
L 339.006653 642.35928 
L 344.723168 644.016324 
L 350.439683 639.086738 
L 356.156198 631.62568 
L 361.872713 633.065933 
L 367.589228 633.667082 
L 373.305743 644.231531 
L 379.022257 646.667813 
L 384.738772 642.78527 
L 390.455287 642.246234 
L 396.171802 643.741412 
L 401.888317 643.992314 
L 407.604832 641.714017 
L 413.321347 641.889324 
L 419.037861 644.078113 
L 424.754376 640.569543 
L 430.470891 642.944434 
L 436.187406 643.065271 
L 441.903921 645.94135 
L 447.620436 643.471387 
L 453.33695 643.934343 
L 459.053465 628.686631 
L 464.76998 620.758192 
L 470.486495 643.739376 
L 476.20301 641.626308 
L 481.919525 642.906109 
L 487.63604 642.270474 
L 493.352554 634.553127 
L 499.069069 610.858984 
L 504.785584 614.159685 
L 510.502099 612.591192 
L 516.218614 629.493507 
L 521.935129 636.663679 
L 527.651644 626.140651 
L 533.368158 611.085673 
L 539.084673 607.884005 
L 544.801188 631.630707 
L 550.517703 616.512253 
L 556.234218 640.526632 
L 561.950733 615.497137 
L 567.667248 640.195646 
L 573.383762 602.769252 
L 579.100277 610.477554 
L 584.816792 594.981916 
L 590.533307 604.937695 
L 596.249822 613.317653 
L 601.966337 595.180561 
L 607.682851 606.104036 
L 613.399366 611.468889 
L 619.115881 618.026408 
L 624.832396 613.940574 
L 630.548911 628.07447 
L 636.265426 643.882065 
L 641.981941 645.592742 
L 647.698455 644.351955 
L 653.41497 638.873783 
L 659.131485 636.769947 
L 664.848 622.635652 
L 670.564515 620.918961 
L 676.28103 636.144803 
L 700.84 635.984756 
L 700.84 635.984756 
" clip-path="url(#p888c11e9f4)" style="fill: none; stroke: #b78935; stroke-opacity: 0; stroke-linecap: square"/>
   </g>
   <g id="PI-PATCH-UPPER-1">
    <path d="M 87.48 567.958064 
L 93.196515 556.836481 
L 98.91303 569.935622 
L 104.629545 566.092053 
L 110.346059 565.466056 
L 116.062574 578.960897 
L 121.779089 572.681642 
L 127.495604 571.109299 
L 133.212119 560.394423 
L 138.928634 576.950705 
L 144.645149 573.390902 
L 150.361663 567.868719 
L 156.078178 575.416766 
L 161.794693 573.342362 
L 167.511208 564.137051 
L 173.227723 576.388134 
L 178.944238 563.727563 
L 184.660752 566.96186 
L 190.377267 566.186728 
L 196.093782 570.211507 
L 201.810297 558.598454 
L 207.526812 569.631408 
L 213.243327 564.223066 
L 218.959842 575.637376 
L 224.676356 576.287068 
L 230.392871 555.345453 
L 236.109386 566.213189 
L 241.825901 578.527929 
L 247.542416 593.425697 
L 253.258931 590.956536 
L 258.975446 581.958488 
L 264.69196 583.805016 
L 270.408475 571.961993 
L 276.12499 570.146109 
L 281.841505 601.6267 
L 287.55802 613.099846 
L 293.274535 617.839227 
L 298.99105 614.167895 
L 304.707564 613.460074 
L 310.424079 615.515755 
L 316.140594 595.307033 
L 321.857109 603.03863 
L 327.573624 610.340585 
L 333.290139 608.161409 
L 344.723168 615.352846 
L 350.439683 610.230255 
L 356.156198 604.283762 
L 361.872713 605.264086 
L 367.589228 602.751957 
L 373.305743 616.07885 
L 379.022257 625.088611 
L 384.738772 616.418598 
L 390.455287 611.233449 
L 396.171802 614.893928 
L 401.888317 615.39551 
L 407.604832 609.982026 
L 413.321347 613.745082 
L 419.037861 616.754762 
L 424.754376 609.307261 
L 430.470891 609.884975 
L 436.187406 609.914177 
L 441.903921 620.300895 
L 447.620436 613.285406 
L 453.33695 616.571682 
L 459.053465 598.144528 
L 464.76998 591.735476 
L 470.486495 616.123748 
L 476.20301 606.646689 
L 481.919525 612.392263 
L 487.63604 612.923777 
L 493.352554 605.63308 
L 499.069069 576.484547 
L 504.785584 581.213255 
L 510.502099 580.352025 
L 516.218614 594.900987 
L 521.935129 603.381903 
L 527.651644 591.714773 
L 533.368158 574.149883 
L 539.084673 564.089444 
L 544.801188 595.710337 
L 550.517703 581.332746 
L 556.234218 602.695623 
L 561.950733 580.320816 
L 567.667248 604.158555 
L 573.383762 567.397413 
L 579.100277 576.177176 
L 584.816792 557.939054 
L 590.533307 570.161114 
L 596.249822 578.855228 
L 601.966337 558.568106 
L 607.682851 570.861001 
L 613.399366 578.364262 
L 619.115881 584.039301 
L 624.832396 580.881039 
L 630.548911 594.916732 
L 636.265426 613.448832 
L 641.981941 619.755582 
L 647.698455 616.282752 
L 653.41497 609.374313 
L 659.131485 604.615411 
L 664.848 588.885003 
L 670.564515 590.584378 
L 676.28103 608.085938 
L 700.84 607.903201 
L 700.84 607.903201 
" clip-path="url(#p888c11e9f4)" style="fill: none; stroke: #406992; stroke-opacity: 0; stroke-linecap: square"/>
   </g>
   <g id="PI-PATCH-2">
    <path d="M 87.48 574.945335 
L 87.48 594.60079 
L 93.196515 585.394594 
L 98.91303 601.255731 
L 104.629545 595.513381 
L 110.346059 596.131882 
L 116.062574 610.048986 
L 121.779089 601.249543 
L 127.495604 601.353557 
L 133.212119 594.987152 
L 138.928634 611.368332 
L 144.645149 610.486957 
L 150.361663 601.887019 
L 156.078178 612.643593 
L 161.794693 608.159845 
L 167.511208 602.241985 
L 173.227723 614.924654 
L 178.944238 594.852288 
L 184.660752 597.809934 
L 190.377267 602.616872 
L 196.093782 604.54043 
L 201.810297 590.950967 
L 207.526812 600.009199 
L 213.243327 590.37936 
L 218.959842 600.744017 
L 224.676356 602.529548 
L 230.392871 590.744539 
L 236.109386 600.997611 
L 241.825901 607.195082 
L 247.542416 624.858025 
L 253.258931 622.452388 
L 258.975446 610.47064 
L 264.69196 609.826318 
L 270.408475 598.344849 
L 276.12499 596.43584 
L 281.841505 631.331831 
L 287.55802 640.257197 
L 293.274535 643.705822 
L 298.99105 640.172958 
L 304.707564 640.140313 
L 310.424079 641.854821 
L 316.140594 626.149903 
L 321.857109 629.748996 
L 327.573624 637.669508 
L 333.290139 635.13253 
L 339.006653 638.743432 
L 344.723168 641.365529 
L 350.439683 635.52124 
L 356.156198 627.791947 
L 361.872713 629.619066 
L 367.589228 630.09895 
L 373.305743 641.751757 
L 379.022257 646.124104 
L 384.738772 639.982026 
L 390.455287 639.027152 
L 396.171802 640.87215 
L 401.888317 641.32244 
L 407.604832 638.403448 
L 413.321347 638.908395 
L 419.037861 641.476422 
L 424.754376 637.219864 
L 430.470891 639.44183 
L 436.187406 639.658695 
L 441.903921 644.820334 
L 447.620436 640.387543 
L 453.33695 641.2184 
L 459.053465 624.33647 
L 464.76998 616.006017 
L 470.486495 640.868496 
L 476.20301 637.849863 
L 481.919525 639.37305 
L 487.63604 639.106127 
L 493.352554 630.850795 
L 499.069069 604.574829 
L 504.785584 607.910272 
L 510.502099 607.037879 
L 516.218614 624.646326 
L 521.935129 632.420027 
L 527.651644 621.480481 
L 533.368158 604.234816 
L 539.084673 599.728052 
L 544.801188 625.933713 
L 550.517703 610.667338 
L 556.234218 636.248121 
L 561.950733 610.135877 
L 567.667248 636.157091 
L 573.383762 597.008213 
L 579.100277 604.633243 
L 584.816792 588.120834 
L 590.533307 598.501 
L 596.249822 608.168124 
L 601.966337 588.120613 
L 607.682851 598.886921 
L 613.399366 605.077127 
L 619.115881 612.30882 
L 624.832396 607.916055 
L 630.548911 623.233741 
L 636.265426 641.124577 
L 641.981941 644.194695 
L 647.698455 641.96788 
L 653.41497 635.343864 
L 659.131485 633.200018 
L 664.848 617.387088 
L 670.564515 616.336561 
L 676.28103 632.735594 
L 5461.00396 599.319015 
L 5466.720475 607.817523 
L 5472.43699 606.958993 
L 5478.153505 598.328137 
L 5483.87002 594.964726 
L 5489.586535 602.912363 
L 5495.30305 589.721277 
L 5501.019564 594.303485 
L 5506.736079 612.770037 
L 5512.452594 589.232461 
L 5518.169109 591.037079 
L 5523.885624 608.426664 
L 5529.602139 608.034647 
L 5535.318653 585.889442 
L 5541.035168 590.632914 
L 5546.751683 594.359524 
L 5552.468198 599.57448 
L 5558.184713 597.310662 
L 5563.901228 598.633428 
L 5569.617743 600.392226 
L 5575.334257 592.610188 
L 5581.050772 595.25872 
L 5586.767287 594.880557 
L 5592.483802 593.471794 
L 5598.200317 601.59932 
L 5603.916832 592.700602 
L 5609.633347 587.601123 
L 5615.349861 591.314195 
L 5621.066376 588.504786 
L 5626.782891 591.245669 
L 5632.499406 609.248466 
L 5638.215921 592.020587 
L 5643.932436 593.969416 
L 5649.64895 602.529686 
L 5655.365465 586.606877 
L 5661.08198 590.700599 
L 5666.798495 588.81171 
L 5672.51501 600.123122 
L 5678.231525 597.499676 
L 5683.94804 600.008889 
L 5689.664554 603.18401 
L 5695.381069 602.341176 
L 5701.097584 597.363985 
L 5706.814099 598.51039 
L 5712.530614 601.151386 
L 5718.247129 601.908243 
L 5723.963644 596.641677 
L 5729.680158 589.602494 
L 5735.396673 588.241119 
L 5741.113188 600.545096 
L 5746.829703 591.58313 
L 5752.546218 600.075326 
L 5758.262733 603.236698 
L 5763.979248 596.30361 
L 5769.695762 595.391571 
L 5775.412277 609.956699 
L 5781.128792 588.771072 
L 5786.845307 596.447645 
L 5792.561822 593.656602 
L 5798.278337 604.456407 
L 5803.994851 605.188559 
L 5809.711366 593.80432 
L 5815.427881 606.890565 
L 5821.144396 611.370193 
L 5826.860911 603.027998 
L 5832.577426 580.623258 
L 5838.293941 582.674512 
L 5844.010455 585.97037 
L 5849.72697 583.747024 
L 5855.443485 583.968669 
L 5861.16 607.513061 
L 5866.876515 609.380157 
L 5872.59303 611.870547 
L 5878.309545 606.781624 
L 5884.026059 596.975317 
L 5889.742574 594.033074 
L 5895.459089 592.196726 
L 5895.459089 566.466377 
L 5895.459089 566.466377 
L 5889.742574 569.989564 
L 5884.026059 575.100735 
L 5878.309545 585.185859 
L 5872.59303 589.80173 
L 5866.876515 587.067274 
L 5861.16 585.019173 
L 5855.443485 562.876538 
L 5849.72697 562.673151 
L 5844.010455 564.568578 
L 5838.293941 560.17184 
L 5832.577426 557.335683 
L 5826.860911 578.297948 
L 5821.144396 590.526527 
L 5815.427881 580.862232 
L 5809.711366 567.705433 
L 5803.994851 582.952963 
L 5798.278337 579.74562 
L 5792.561822 571.596555 
L 5786.845307 574.676884 
L 5781.128792 567.779992 
L 5775.412277 585.727275 
L 5769.695762 570.825742 
L 5763.979248 573.547606 
L 5758.262733 577.584081 
L 5752.546218 575.849312 
L 5746.829703 568.813306 
L 5741.113188 579.565731 
L 5735.396673 564.546044 
L 5729.680158 569.52286 
L 5723.963644 576.069139 
L 5718.247129 577.691384 
L 5712.530614 576.664497 
L 5706.814099 574.631319 
L 5701.097584 573.819074 
L 5695.381069 577.930583 
L 5689.664554 576.752517 
L 5683.94804 573.726292 
L 5678.231525 574.981971 
L 5672.51501 578.627469 
L 5666.798495 567.851852 
L 5661.08198 570.065342 
L 5655.365465 568.090123 
L 5649.64895 582.886122 
L 5643.932436 571.843671 
L 5638.215921 571.797013 
L 5632.499406 589.38818 
L 5626.782891 570.125866 
L 5621.066376 567.210994 
L 5615.349861 565.808668 
L 5609.633347 562.371696 
L 5603.916832 569.247732 
L 5598.200317 582.139413 
L 5592.483802 573.920004 
L 5586.767287 575.09521 
L 5581.050772 573.96894 
L 5575.334257 570.122419 
L 5569.617743 574.357192 
L 5563.901228 572.969585 
L 5558.184713 570.831732 
L 5552.468198 573.004044 
L 5546.751683 567.9055 
L 5541.035168 567.78113 
L 5535.318653 561.958526 
L 5529.602139 582.220448 
L 5523.885624 580.606695 
L 5518.169109 565.9642 
L 5512.452594 562.61358 
L 5506.736079 588.485649 
L 5501.019564 570.875906 
L 5495.30305 567.32824 
L 5489.586535 582.655708 
L 5483.87002 573.757693 
L 5478.153505 580.170221 
L 5472.43699 590.003976 
L 5466.720475 591.20194 
L 5461.00396 579.615429 
L 676.28103 616.614019 
L 670.564515 598.357171 
L 664.848 597.290857 
L 659.131485 614.931978 
L 653.41497 618.427911 
L 647.698455 626.470234 
L 641.981941 630.41817 
L 636.265426 624.215763 
L 630.548911 603.684243 
L 624.832396 587.689198 
L 619.115881 591.806531 
L 613.399366 584.602357 
L 607.682851 576.836449 
L 601.966337 565.48188 
L 596.249822 587.776781 
L 590.533307 577.162678 
L 584.816792 565.388936 
L 579.100277 583.896554 
L 573.383762 575.786895 
L 567.667248 615.66019 
L 561.950733 589.257651 
L 556.234218 614.707006 
L 550.517703 589.490714 
L 544.801188 604.477431 
L 539.084673 572.825676 
L 533.368158 581.562728 
L 527.651644 601.407718 
L 521.935129 613.174921 
L 516.218614 604.375478 
L 510.502099 587.510372 
L 504.785584 587.601955 
L 499.069069 583.531189 
L 493.352554 614.118746 
L 487.63604 622.490902 
L 481.919525 621.94798 
L 476.20301 618.042547 
L 470.486495 625.298898 
L 464.76998 598.578373 
L 459.053465 606.395839 
L 453.33695 625.870366 
L 447.620436 623.402077 
L 441.903921 631.312169 
L 436.187406 620.992621 
L 430.470891 620.762644 
L 424.754376 619.533113 
L 419.037861 626.218156 
L 413.321347 623.006955 
L 407.604832 620.505843 
L 401.888317 625.385605 
L 396.171802 624.687617 
L 390.455287 621.545293 
L 384.738772 625.078414 
L 379.022257 635.000842 
L 373.305743 626.153645 
L 367.589228 612.451718 
L 361.872713 613.602889 
L 356.156198 611.768327 
L 350.439683 618.904946 
L 344.723168 625.407067 
L 339.006653 621.215716 
L 333.290139 617.2947 
L 327.573624 619.640429 
L 321.857109 610.929736 
L 316.140594 605.157812 
L 310.424079 625.974452 
L 304.707564 623.24388 
L 298.99105 623.630211 
L 293.274535 628.974477 
L 287.55802 623.179847 
L 281.841505 611.944142 
L 276.12499 576.829325 
L 270.408475 579.270764 
L 264.69196 591.431293 
L 258.975446 590.308772 
L 253.258931 601.989279 
L 247.542416 604.217491 
L 241.825901 585.38846 
L 236.109386 574.037752 
L 230.392871 563.416186 
L 224.676356 583.636885 
L 218.959842 581.977339 
L 213.243327 570.193319 
L 207.526812 576.274577 
L 201.810297 565.135954 
L 196.093782 577.508811 
L 190.377267 573.805805 
L 184.660752 573.495129 
L 178.944238 570.355513 
L 173.227723 584.678155 
L 167.511208 572.25898 
L 161.794693 580.919713 
L 156.078178 583.761886 
L 150.361663 575.202205 
L 144.645149 581.631386 
L 138.928634 584.71009 
L 133.212119 567.698301 
L 127.495604 577.876211 
L 121.779089 579.025859 
L 116.062574 585.826228 
L 110.346059 571.774772 
L 104.629545 572.348022 
L 98.91303 576.857835 
L 93.196515 562.809572 
L 87.48 574.945335 
z
" clip-path="url(#p888c11e9f4)" style="fill: #808080; fill-opacity: 0.00001"/>
   </g>
   <g id="PI-PATCH-LOWER-2">
    <path d="M 87.48 594.60079 
L 93.196515 585.394594 
L 98.91303 601.255731 
L 104.629545 595.513381 
L 110.346059 596.131882 
L 116.062574 610.048986 
L 121.779089 601.249543 
L 127.495604 601.353557 
L 133.212119 594.987152 
L 138.928634 611.368332 
L 144.645149 610.486957 
L 150.361663 601.887019 
L 156.078178 612.643593 
L 161.794693 608.159845 
L 167.511208 602.241985 
L 173.227723 614.924654 
L 178.944238 594.852288 
L 184.660752 597.809934 
L 190.377267 602.616872 
L 196.093782 604.54043 
L 201.810297 590.950967 
L 207.526812 600.009199 
L 213.243327 590.37936 
L 218.959842 600.744017 
L 224.676356 602.529548 
L 230.392871 590.744539 
L 236.109386 600.997611 
L 241.825901 607.195082 
L 247.542416 624.858025 
L 253.258931 622.452388 
L 258.975446 610.47064 
L 264.69196 609.826318 
L 270.408475 598.344849 
L 276.12499 596.43584 
L 281.841505 631.331831 
L 287.55802 640.257197 
L 293.274535 643.705822 
L 298.99105 640.172958 
L 304.707564 640.140313 
L 310.424079 641.854821 
L 316.140594 626.149903 
L 321.857109 629.748996 
L 327.573624 637.669508 
L 333.290139 635.13253 
L 339.006653 638.743432 
L 344.723168 641.365529 
L 350.439683 635.52124 
L 356.156198 627.791947 
L 361.872713 629.619066 
L 367.589228 630.09895 
L 373.305743 641.751757 
L 379.022257 646.124104 
L 384.738772 639.982026 
L 390.455287 639.027152 
L 396.171802 640.87215 
L 401.888317 641.32244 
L 407.604832 638.403448 
L 413.321347 638.908395 
L 419.037861 641.476422 
L 424.754376 637.219864 
L 430.470891 639.44183 
L 436.187406 639.658695 
L 441.903921 644.820334 
L 447.620436 640.387543 
L 453.33695 641.2184 
L 459.053465 624.33647 
L 464.76998 616.006017 
L 470.486495 640.868496 
L 476.20301 637.849863 
L 481.919525 639.37305 
L 487.63604 639.106127 
L 493.352554 630.850795 
L 499.069069 604.574829 
L 504.785584 607.910272 
L 510.502099 607.037879 
L 516.218614 624.646326 
L 521.935129 632.420027 
L 527.651644 621.480481 
L 533.368158 604.234816 
L 539.084673 599.728052 
L 544.801188 625.933713 
L 550.517703 610.667338 
L 556.234218 636.248121 
L 561.950733 610.135877 
L 567.667248 636.157091 
L 573.383762 597.008213 
L 579.100277 604.633243 
L 584.816792 588.120834 
L 590.533307 598.501 
L 596.249822 608.168124 
L 601.966337 588.120613 
L 607.682851 598.886921 
L 613.399366 605.077127 
L 619.115881 612.30882 
L 624.832396 607.916055 
L 630.548911 623.233741 
L 636.265426 641.124577 
L 641.981941 644.194695 
L 647.698455 641.96788 
L 653.41497 635.343864 
L 659.131485 633.200018 
L 664.848 617.387088 
L 670.564515 616.336561 
L 676.28103 632.735594 
L 700.84 632.564074 
L 700.84 632.564074 
" clip-path="url(#p888c11e9f4)" style="fill: none; stroke: #b78935; stroke-opacity: 0; stroke-linecap: square"/>
   </g>
   <g id="PI-PATCH-UPPER-2">
    <path d="M 87.48 574.945335 
L 93.196515 562.809572 
L 98.91303 576.857835 
L 104.629545 572.348022 
L 110.346059 571.774772 
L 116.062574 585.826228 
L 121.779089 579.025859 
L 127.495604 577.876211 
L 133.212119 567.698301 
L 138.928634 584.71009 
L 144.645149 581.631386 
L 150.361663 575.202205 
L 156.078178 583.761886 
L 161.794693 580.919713 
L 167.511208 572.25898 
L 173.227723 584.678155 
L 178.944238 570.355513 
L 184.660752 573.495129 
L 190.377267 573.805805 
L 196.093782 577.508811 
L 201.810297 565.135954 
L 207.526812 576.274577 
L 213.243327 570.193319 
L 218.959842 581.977339 
L 224.676356 583.636885 
L 230.392871 563.416186 
L 236.109386 574.037752 
L 241.825901 585.38846 
L 247.542416 604.217491 
L 253.258931 601.989279 
L 258.975446 590.308772 
L 264.69196 591.431293 
L 270.408475 579.270764 
L 276.12499 576.829325 
L 281.841505 611.944142 
L 287.55802 623.179847 
L 293.274535 628.974477 
L 298.99105 623.630211 
L 304.707564 623.24388 
L 310.424079 625.974452 
L 316.140594 605.157812 
L 321.857109 610.929736 
L 327.573624 619.640429 
L 333.290139 617.2947 
L 339.006653 621.215716 
L 344.723168 625.407067 
L 350.439683 618.904946 
L 356.156198 611.768327 
L 361.872713 613.602889 
L 367.589228 612.451718 
L 373.305743 626.153645 
L 379.022257 635.000842 
L 384.738772 625.078414 
L 390.455287 621.545293 
L 396.171802 624.687617 
L 401.888317 625.385605 
L 407.604832 620.505843 
L 413.321347 623.006955 
L 419.037861 626.218156 
L 424.754376 619.533113 
L 430.470891 620.762644 
L 436.187406 620.992621 
L 441.903921 631.312169 
L 447.620436 623.402077 
L 453.33695 625.870366 
L 459.053465 606.395839 
L 464.76998 598.578373 
L 470.486495 625.298898 
L 476.20301 618.042547 
L 481.919525 621.94798 
L 487.63604 622.490902 
L 493.352554 614.118746 
L 499.069069 583.531189 
L 504.785584 587.601955 
L 510.502099 587.510372 
L 516.218614 604.375478 
L 521.935129 613.174921 
L 527.651644 601.407718 
L 533.368158 581.562728 
L 539.084673 572.825676 
L 544.801188 604.477431 
L 550.517703 589.490714 
L 556.234218 614.707006 
L 561.950733 589.257651 
L 567.667248 615.66019 
L 573.383762 575.786895 
L 579.100277 583.896554 
L 584.816792 565.388936 
L 590.533307 577.162678 
L 596.249822 587.776781 
L 601.966337 565.48188 
L 607.682851 576.836449 
L 613.399366 584.602357 
L 619.115881 591.806531 
L 624.832396 587.689198 
L 630.548911 603.684243 
L 636.265426 624.215763 
L 641.981941 630.41817 
L 647.698455 626.470234 
L 653.41497 618.427911 
L 659.131485 614.931978 
L 664.848 597.290857 
L 670.564515 598.357171 
L 676.28103 616.614019 
L 700.84 616.424113 
L 700.84 616.424113 
" clip-path="url(#p888c11e9f4)" style="fill: none; stroke: #406992; stroke-opacity: 0; stroke-linecap: square"/>
   </g>
   <g id="matplotlib.axis_3">
    <g id="xtick_4">
     <g id="line2d_7">
      <g>
       <use xlink:href="#m5b1ee8d5ea" x="106.262835" y="647.352" style="fill: #949494; stroke: #949494; stroke-width: 0.8"/>
      </g>
     </g>
     <g id="text_8">
      <text style="font-weight: 300; font-size: 16px; font-family: 'Source Sans 3', sans-serif; text-anchor: middle; fill: #595959" x="106.262835" y="665.9045" transform="rotate(-0 106.262835 665.9045)">2021</text>
     </g>
    </g>
    <g id="xtick_5">
     <g id="line2d_8">
      <g>
       <use xlink:href="#m5b1ee8d5ea" x="404.338252" y="647.352" style="fill: #949494; stroke: #949494; stroke-width: 0.8"/>
      </g>
     </g>
     <g id="text_9">
      <text style="font-weight: 300; font-size: 16px; font-family: 'Source Sans 3', sans-serif; text-anchor: middle; fill: #595959" x="404.338252" y="665.9045" transform="rotate(-0 404.338252 665.9045)">2022</text>
     </g>
    </g>
    <g id="text_10">
     <text style="font-weight: 600; font-size: 16px; font-family: 'Source Sans 3', sans-serif; text-anchor: middle; fill: #595959" x="376.164" y="685.0095" transform="rotate(-0 376.164 685.0095)">Date</text>
    </g>
   </g>
   <g id="matplotlib.axis_4">
    <g id="ytick_4">
     <g id="line2d_9">
      <path d="M 87.48 647.352 
L 664.848 647.352 
" style="fill: none; stroke: #d1d1d1; stroke-width: 0.8; stroke-linecap: square"/>
     </g>
     <g id="line2d_10">
      <g>
       <use xlink:href="#m51ee75ba2e" x="87.48" y="647.352" style="fill: #949494; stroke: #949494; stroke-width: 0.8"/>
      </g>
     </g>
     <g id="text_11">
      <text style="font-weight: 300; font-size: 16px; font-family: 'Source Sans 3', sans-serif; text-anchor: end; fill: #595959" x="80.48" y="653.12825" transform="rotate(-0 80.48 653.12825)">0</text>
     </g>
    </g>
    <g id="ytick_5">
     <g id="line2d_11">
      <path d="M 87.48 594.864 
L 664.848 594.864 
" style="fill: none; stroke: #d1d1d1; stroke-width: 0.8; stroke-linecap: square"/>
     </g>
     <g id="line2d_12">
      <g>
       <use xlink:href="#m51ee75ba2e" x="87.48" y="594.864" style="fill: #949494; stroke: #949494; stroke-width: 0.8"/>
      </g>
     </g>
     <g id="text_12">
      <text style="font-weight: 300; font-size: 16px; font-family: 'Source Sans 3', sans-serif; text-anchor: end; fill: #595959" x="80.48" y="600.64025" transform="rotate(-0 80.48 600.64025)">20</text>
     </g>
    </g>
    <g id="ytick_6">
     <g id="line2d_13">
      <path d="M 87.48 542.376 
L 664.848 542.376 
" style="fill: none; stroke: #d1d1d1; stroke-width: 0.8; stroke-linecap: square"/>
     </g>
     <g id="line2d_14">
      <g>
       <use xlink:href="#m51ee75ba2e" x="87.48" y="542.376" style="fill: #949494; stroke: #949494; stroke-width: 0.8"/>
      </g>
     </g>
     <g id="text_13">
      <text style="font-weight: 300; font-size: 16px; font-family: 'Source Sans 3', sans-serif; text-anchor: end; fill: #595959" x="80.48" y="548.15225" transform="rotate(-0 80.48 548.15225)">40</text>
     </g>
    </g>
    <g id="ytick_7">
     <g id="line2d_15">
      <path d="M 87.48 489.888 
L 664.848 489.888 
" style="fill: none; stroke: #d1d1d1; stroke-width: 0.8; stroke-linecap: square"/>
     </g>
     <g id="line2d_16">
      <g>
       <use xlink:href="#m51ee75ba2e" x="87.48" y="489.888" style="fill: #949494; stroke: #949494; stroke-width: 0.8"/>
      </g>
     </g>
     <g id="text_14">
      <text style="font-weight: 300; font-size: 16px; font-family: 'Source Sans 3', sans-serif; text-anchor: end; fill: #595959" x="80.48" y="495.66425" transform="rotate(-0 80.48 495.66425)">60</text>
     </g>
    </g>
    <g id="ytick_8">
     <g id="line2d_17">
      <path d="M 87.48 437.4 
L 664.848 437.4 
" style="fill: none; stroke: #d1d1d1; stroke-width: 0.8; stroke-linecap: square"/>
     </g>
     <g id="line2d_18">
      <g>
       <use xlink:href="#m51ee75ba2e" x="87.48" y="437.4" style="fill: #949494; stroke: #949494; stroke-width: 0.8"/>
      </g>
     </g>
     <g id="text_15">
      <text style="font-weight: 300; font-size: 16px; font-family: 'Source Sans 3', sans-serif; text-anchor: end; fill: #595959" x="80.48" y="443.17625" transform="rotate(-0 80.48 443.17625)">80</text>
     </g>
    </g>
    <g id="ytick_9">
     <g id="line2d_19">
      <path d="M 87.48 384.912 
L 664.848 384.912 
" style="fill: none; stroke: #d1d1d1; stroke-width: 0.8; stroke-linecap: square"/>
     </g>
     <g id="line2d_20">
      <g>
       <use xlink:href="#m51ee75ba2e" x="87.48" y="384.912" style="fill: #949494; stroke: #949494; stroke-width: 0.8"/>
      </g>
     </g>
     <g id="text_16">
      <text style="font-weight: 300; font-size: 16px; font-family: 'Source Sans 3', sans-serif; text-anchor: end; fill: #595959" x="80.48" y="390.68825" transform="rotate(-0 80.48 390.68825)">100</text>
     </g>
    </g>
   </g>
   <g id="TAG-0-LABEL-BOLD">
    <g id="patch_6">
     <path d="M 464.2185 479.90425 
L 576.7935 479.90425 
L 576.7935 447.38375 
L 464.2185 447.38375 
z
" style="fill: #ffffff; opacity: 0"/>
    </g>
    <text style="font-weight: 700; font-size: 16px; font-family: 'Source Sans 3', sans-serif; fill: #883e3a; opacity: 0" transform="translate(464.2185 458.93625)">PI contains 85.5%</text>
    <text style="font-weight: 700; font-size: 16px; font-family: 'Source Sans 3', sans-serif; fill: #883e3a; opacity: 0" transform="translate(471.48225 476.35175)">of observations</text>
   </g>
   <g id="TAG-1-LABEL-BOLD">
    <g id="patch_7">
     <path d="M 464.2185 479.90425 
L 576.7935 479.90425 
L 576.7935 447.38375 
L 464.2185 447.38375 
z
" style="fill: #ffffff; opacity: 0"/>
    </g>
    <text style="font-weight: 700; font-size: 16px; font-family: 'Source Sans 3', sans-serif; fill: #883e3a; opacity: 0" transform="translate(464.2185 458.93625)">PI contains 65.2%</text>
    <text style="font-weight: 700; font-size: 16px; font-family: 'Source Sans 3', sans-serif; fill: #883e3a; opacity: 0" transform="translate(471.48225 476.35175)">of observations</text>
   </g>
   <g id="TAG-2-LABEL-BOLD">
    <g id="patch_8">
     <path d="M 464.2185 479.90425 
L 576.7935 479.90425 
L 576.7935 447.38375 
L 464.2185 447.38375 
z
" style="fill: #ffffff; opacity: 0"/>
    </g>
    <text style="font-weight: 700; font-size: 16px; font-family: 'Source Sans 3', sans-serif; fill: #883e3a; opacity: 0" transform="translate(464.2185 458.93625)">PI contains 44.9%</text>
    <text style="font-weight: 700; font-size: 16px; font-family: 'Source Sans 3', sans-serif; fill: #883e3a; opacity: 0" transform="translate(471.48225 476.35175)">of observations</text>
   </g>
   <g id="PI-PATCH-MEDIAN">
    <path d="M 87.48 581.932605 
L 93.196515 568.782663 
L 98.91303 583.780049 
L 104.629545 578.603991 
L 110.346059 578.083489 
L 116.062574 592.69156 
L 121.779089 585.370077 
L 127.495604 584.643122 
L 133.212119 575.002178 
L 138.928634 592.469474 
L 144.645149 589.871869 
L 150.361663 582.53569 
L 156.078178 592.107005 
L 161.794693 588.497064 
L 167.511208 580.38091 
L 173.227723 592.968177 
L 178.944238 576.983463 
L 184.660752 580.028397 
L 190.377267 581.424882 
L 196.093782 584.806116 
L 201.810297 571.673454 
L 207.526812 582.917746 
L 213.243327 576.163573 
L 218.959842 588.317301 
L 224.676356 590.986702 
L 230.392871 571.486919 
L 241.825901 592.248991 
L 247.542416 615.009284 
L 253.258931 613.022023 
L 258.975446 598.659055 
L 264.69196 599.05757 
L 270.408475 586.579536 
L 276.12499 583.512542 
L 281.841505 622.261584 
L 287.55802 633.259848 
L 293.274535 640.109728 
L 298.99105 633.092527 
L 304.707564 633.027685 
L 310.424079 636.43315 
L 316.140594 615.008591 
L 321.857109 618.820843 
L 327.573624 628.940273 
L 333.290139 626.427992 
L 339.006653 630.689679 
L 344.723168 635.461287 
L 350.439683 627.579637 
L 356.156198 619.252893 
L 361.872713 621.941693 
L 367.589228 622.151479 
L 373.305743 636.228439 
L 379.022257 644.913073 
L 384.738772 633.738229 
L 390.455287 631.857137 
L 396.171802 634.481307 
L 401.888317 635.375701 
L 407.604832 631.02966 
L 413.321347 632.268828 
L 419.037861 635.68155 
L 424.754376 629.758966 
L 430.470891 631.640313 
L 436.187406 632.071064 
L 441.903921 642.323444 
L 447.620436 633.518749 
L 453.33695 635.16905 
L 459.053465 614.64715 
L 464.76998 605.42127 
L 470.486495 634.474049 
L 476.20301 629.438406 
L 481.919525 631.503698 
L 487.63604 632.058028 
L 493.352554 622.604413 
L 499.069069 590.577831 
L 504.785584 593.990655 
L 510.502099 594.66872 
L 516.218614 613.849969 
L 521.935129 622.96794 
L 527.651644 611.100663 
L 533.368158 588.975574 
L 539.084673 581.561907 
L 544.801188 613.244526 
L 550.517703 597.648681 
L 556.234218 626.718388 
L 561.950733 598.194486 
L 567.667248 627.161825 
L 573.383762 584.176376 
L 579.100277 591.615932 
L 584.816792 572.838818 
L 590.533307 584.164242 
L 596.249822 596.698334 
L 601.966337 572.395653 
L 607.682851 582.811897 
L 613.399366 590.840452 
L 619.115881 599.573762 
L 624.832396 594.497356 
L 630.548911 612.451754 
L 636.265426 634.982694 
L 641.981941 641.080759 
L 647.698455 636.657716 
L 653.41497 627.481509 
L 659.131485 625.248545 
L 664.848 605.69671 
L 670.564515 606.129964 
L 676.28103 625.1421 
L 700.84 624.945025 
L 700.84 624.945025 
" clip-path="url(#p888c11e9f4)" style="fill: none; stroke: #00264c; stroke-opacity: 0; stroke-linecap: square"/>
   </g>
   <g id="OBSERVED-FORECAST-LINE">
    <path d="M 87.48 541.82617 
L 93.196515 508.201706 
L 98.91303 536.750775 
L 104.629545 528.503263 
L 110.346059 532.732754 
L 116.062574 553.034321 
L 121.779089 535.481924 
L 127.495604 522.581975 
L 133.212119 520.044283 
L 138.928634 504.183684 
L 144.645149 538.561848 
L 150.361663 481.999633 
L 156.078178 507.138396 
L 161.794693 498.03643 
L 167.511208 490.014883 
L 173.227723 541.82617 
L 178.944238 532.309807 
L 184.660752 498.262395 
L 190.377267 516.872165 
L 196.093782 519.409857 
L 201.810297 528.714742 
L 207.526812 560.647408 
L 213.243327 571.644086 
L 218.959842 589.9035 
L 224.676356 454.187654 
L 230.392871 491.163008 
L 236.109386 561.501181 
L 241.825901 625.039287 
L 247.542416 628.530759 
L 253.258931 583.909615 
L 258.975446 585.812886 
L 264.69196 588.985004 
L 270.408475 526.17704 
L 276.12499 625.781589 
L 281.841505 637.624168 
L 287.55802 647.140525 
L 293.274535 636.778269 
L 298.99105 643.545457 
L 304.707564 646.294627 
L 310.424079 632.337303 
L 316.140594 613.304586 
L 321.857109 635.93237 
L 327.573624 633.183201 
L 333.290139 634.663523 
L 339.006653 642.276609 
L 344.723168 627.261911 
L 350.439683 615.207858 
L 356.156198 623.878317 
L 361.872713 634.0291 
L 367.589228 639.10449 
L 373.305743 645.448729 
L 379.022257 633.394675 
L 384.738772 645.448729 
L 390.455287 638.681541 
L 396.171802 641.430711 
L 401.888317 642.699559 
L 407.604832 635.297947 
L 413.321347 639.950388 
L 419.037861 641.219236 
L 424.754376 634.874997 
L 430.470891 638.258591 
L 436.187406 642.065135 
L 441.903921 638.250035 
L 447.620436 634.999333 
L 453.33695 619.561598 
L 459.053465 605.309586 
L 464.76998 626.980935 
L 470.486495 639.315964 
L 476.20301 626.416013 
L 481.919525 639.10449 
L 487.63604 624.301267 
L 493.352554 576.508002 
L 499.069069 568.260495 
L 504.785584 589.830903 
L 510.502099 609.286569 
L 516.218614 617.697764 
L 521.935129 619.726737 
L 527.651644 548.326061 
L 533.368158 513.263224 
L 539.084673 598.264035 
L 544.801188 580.314545 
L 550.517703 631.491404 
L 556.234218 590.042377 
L 561.950733 635.509422 
L 567.667248 579.891598 
L 573.383762 577.565374 
L 579.100277 511.79677 
L 584.816792 521.736081 
L 590.533307 607.171822 
L 596.249822 536.11635 
L 601.966337 528.291795 
L 607.682851 579.468646 
L 613.399366 601.462007 
L 619.115881 594.483346 
L 624.832396 617.957029 
L 630.548911 643.968406 
L 636.265426 646.717576 
L 641.981941 642.488084 
L 647.698455 625.147166 
L 653.41497 635.297947 
L 659.131485 595.117771 
L 664.848 601.462007 
L 670.564515 621.975045 
L 676.28103 638.047117 
L 700.84 637.76707 
L 700.84 637.76707 
" clip-path="url(#p888c11e9f4)" style="fill: none; stroke-dasharray: 1,1.65; stroke-dashoffset: 0; stroke: #883e3a"/>
   </g>
   <g id="PI-missed-dummy">
    <defs>
     <path id="m6f110f4941" d="M 0 3.9975 
C 1.060149 3.9975 2.077021 3.576298 2.826659 2.826659 
C 3.576298 2.077021 3.9975 1.060149 3.9975 0 
C 3.9975 -1.060149 3.576298 -2.077021 2.826659 -2.826659 
C 2.077021 -3.576298 1.060149 -3.9975 0 -3.9975 
C -1.060149 -3.9975 -2.077021 -3.576298 -2.826659 -2.826659 
C -3.576298 -2.077021 -3.9975 -1.060149 -3.9975 0 
C -3.9975 1.060149 -3.576298 2.077021 -2.826659 2.826659 
C -2.077021 3.576298 -1.060149 3.9975 0 3.9975 
z
" style="stroke: #595959"/>
    </defs>
    <g clip-path="url(#p888c11e9f4)"/>
   </g>
   <g id="patch_9">
    <path d="M 87.48 647.352 
L 87.48 384.912 
" style="fill: none; stroke: #949494; stroke-width: 0.8; stroke-linejoin: miter; stroke-linecap: square"/>
   </g>
   <g id="patch_10">
    <path d="M 87.48 647.352 
L 664.848 647.352 
" style="fill: none; stroke: #949494; stroke-width: 0.8; stroke-linejoin: miter; stroke-linecap: square"/>
   </g>
   <g id="PI-missed-0">
    <defs>
     <path id="m5e9a243a1b" d="M 0 4 
C 1.060812 4 2.078319 3.578535 2.828427 2.828427 
C 3.578535 2.078319 4 1.060812 4 0 
C 4 -1.060812 3.578535 -2.078319 2.828427 -2.828427 
C 2.078319 -3.578535 1.060812 -4 0 -4 
C -1.060812 -4 -2.078319 -3.578535 -2.828427 -2.828427 
C -3.578535 -2.078319 -4 -1.060812 -4 0 
C -4 1.060812 -3.578535 2.078319 -2.828427 2.828427 
C -2.078319 3.578535 -1.060812 4 0 4 
z
" style="stroke: #595959; stroke-opacity: 0"/>
    </defs>
    <g>
     <use xlink:href="#m5e9a243a1b" x="241.825901" y="625.039287" style="fill-opacity: 0; stroke: #595959; stroke-opacity: 0"/>
     <use xlink:href="#m5e9a243a1b" x="276.12499" y="625.781589" style="fill-opacity: 0; stroke: #595959; stroke-opacity: 0"/>
     <use xlink:href="#m5e9a243a1b" x="367.589228" y="639.10449" style="fill-opacity: 0; stroke: #595959; stroke-opacity: 0"/>
     <use xlink:href="#m5e9a243a1b" x="464.76998" y="626.980935" style="fill-opacity: 0; stroke: #595959; stroke-opacity: 0"/>
     <use xlink:href="#m5e9a243a1b" x="493.352554" y="576.508002" style="fill-opacity: 0; stroke: #595959; stroke-opacity: 0"/>
     <use xlink:href="#m5e9a243a1b" x="544.801188" y="580.314545" style="fill-opacity: 0; stroke: #595959; stroke-opacity: 0"/>
     <use xlink:href="#m5e9a243a1b" x="550.517703" y="631.491404" style="fill-opacity: 0; stroke: #595959; stroke-opacity: 0"/>
     <use xlink:href="#m5e9a243a1b" x="561.950733" y="635.509422" style="fill-opacity: 0; stroke: #595959; stroke-opacity: 0"/>
     <use xlink:href="#m5e9a243a1b" x="567.667248" y="579.891598" style="fill-opacity: 0; stroke: #595959; stroke-opacity: 0"/>
     <use xlink:href="#m5e9a243a1b" x="630.548911" y="643.968406" style="fill-opacity: 0; stroke: #595959; stroke-opacity: 0"/>
    </g>
   </g>
   <g id="PI-missed-1">
    <defs>
     <path id="m2d8f871e28" d="M 0 4.0025 
C 1.061475 4.0025 2.079618 3.580771 2.830195 2.830195 
C 3.580771 2.079618 4.0025 1.061475 4.0025 0 
C 4.0025 -1.061475 3.580771 -2.079618 2.830195 -2.830195 
C 2.079618 -3.580771 1.061475 -4.0025 0 -4.0025 
C -1.061475 -4.0025 -2.079618 -3.580771 -2.830195 -2.830195 
C -3.580771 -2.079618 -4.0025 -1.061475 -4.0025 0 
C -4.0025 1.061475 -3.580771 2.079618 -2.830195 2.830195 
C -2.079618 3.580771 -1.061475 4.0025 0 4.0025 
z
" style="stroke: #595959; stroke-opacity: 0"/>
    </defs>
    <g>
     <use xlink:href="#m2d8f871e28" x="241.825901" y="625.039287" style="fill-opacity: 0; stroke: #595959; stroke-opacity: 0"/>
     <use xlink:href="#m2d8f871e28" x="253.258931" y="583.909615" style="fill-opacity: 0; stroke: #595959; stroke-opacity: 0"/>
     <use xlink:href="#m2d8f871e28" x="276.12499" y="625.781589" style="fill-opacity: 0; stroke: #595959; stroke-opacity: 0"/>
     <use xlink:href="#m2d8f871e28" x="281.841505" y="637.624168" style="fill-opacity: 0; stroke: #595959; stroke-opacity: 0"/>
     <use xlink:href="#m2d8f871e28" x="287.55802" y="647.140525" style="fill-opacity: 0; stroke: #595959; stroke-opacity: 0"/>
     <use xlink:href="#m2d8f871e28" x="298.99105" y="643.545457" style="fill-opacity: 0; stroke: #595959; stroke-opacity: 0"/>
     <use xlink:href="#m2d8f871e28" x="304.707564" y="646.294627" style="fill-opacity: 0; stroke: #595959; stroke-opacity: 0"/>
     <use xlink:href="#m2d8f871e28" x="321.857109" y="635.93237" style="fill-opacity: 0; stroke: #595959; stroke-opacity: 0"/>
     <use xlink:href="#m2d8f871e28" x="361.872713" y="634.0291" style="fill-opacity: 0; stroke: #595959; stroke-opacity: 0"/>
     <use xlink:href="#m2d8f871e28" x="367.589228" y="639.10449" style="fill-opacity: 0; stroke: #595959; stroke-opacity: 0"/>
     <use xlink:href="#m2d8f871e28" x="373.305743" y="645.448729" style="fill-opacity: 0; stroke: #595959; stroke-opacity: 0"/>
     <use xlink:href="#m2d8f871e28" x="384.738772" y="645.448729" style="fill-opacity: 0; stroke: #595959; stroke-opacity: 0"/>
     <use xlink:href="#m2d8f871e28" x="464.76998" y="626.980935" style="fill-opacity: 0; stroke: #595959; stroke-opacity: 0"/>
     <use xlink:href="#m2d8f871e28" x="493.352554" y="576.508002" style="fill-opacity: 0; stroke: #595959; stroke-opacity: 0"/>
     <use xlink:href="#m2d8f871e28" x="544.801188" y="580.314545" style="fill-opacity: 0; stroke: #595959; stroke-opacity: 0"/>
     <use xlink:href="#m2d8f871e28" x="550.517703" y="631.491404" style="fill-opacity: 0; stroke: #595959; stroke-opacity: 0"/>
     <use xlink:href="#m2d8f871e28" x="556.234218" y="590.042377" style="fill-opacity: 0; stroke: #595959; stroke-opacity: 0"/>
     <use xlink:href="#m2d8f871e28" x="561.950733" y="635.509422" style="fill-opacity: 0; stroke: #595959; stroke-opacity: 0"/>
     <use xlink:href="#m2d8f871e28" x="567.667248" y="579.891598" style="fill-opacity: 0; stroke: #595959; stroke-opacity: 0"/>
     <use xlink:href="#m2d8f871e28" x="590.533307" y="607.171822" style="fill-opacity: 0; stroke: #595959; stroke-opacity: 0"/>
     <use xlink:href="#m2d8f871e28" x="624.832396" y="617.957029" style="fill-opacity: 0; stroke: #595959; stroke-opacity: 0"/>
     <use xlink:href="#m2d8f871e28" x="630.548911" y="643.968406" style="fill-opacity: 0; stroke: #595959; stroke-opacity: 0"/>
     <use xlink:href="#m2d8f871e28" x="636.265426" y="646.717576" style="fill-opacity: 0; stroke: #595959; stroke-opacity: 0"/>
     <use xlink:href="#m2d8f871e28" x="659.131485" y="595.117771" style="fill-opacity: 0; stroke: #595959; stroke-opacity: 0"/>
    </g>
   </g>
   <g id="PI-missed-2">
    <defs>
     <path id="m528a186ead" d="M 0 4.005 
C 1.062138 4.005 2.080917 3.583008 2.831963 2.831963 
C 3.583008 2.080917 4.005 1.062138 4.005 0 
C 4.005 -1.062138 3.583008 -2.080917 2.831963 -2.831963 
C 2.080917 -3.583008 1.062138 -4.005 0 -4.005 
C -1.062138 -4.005 -2.080917 -3.583008 -2.831963 -2.831963 
C -3.583008 -2.080917 -4.005 -1.062138 -4.005 0 
C -4.005 1.062138 -3.583008 2.080917 -2.831963 2.831963 
C -2.080917 3.583008 -1.062138 4.005 0 4.005 
z
" style="stroke: #595959; stroke-opacity: 0"/>
    </defs>
    <g>
     <use xlink:href="#m528a186ead" x="241.825901" y="625.039287" style="fill-opacity: 0; stroke: #595959; stroke-opacity: 0"/>
     <use xlink:href="#m528a186ead" x="247.542416" y="628.530759" style="fill-opacity: 0; stroke: #595959; stroke-opacity: 0"/>
     <use xlink:href="#m528a186ead" x="253.258931" y="583.909615" style="fill-opacity: 0; stroke: #595959; stroke-opacity: 0"/>
     <use xlink:href="#m528a186ead" x="258.975446" y="585.812886" style="fill-opacity: 0; stroke: #595959; stroke-opacity: 0"/>
     <use xlink:href="#m528a186ead" x="264.69196" y="588.985004" style="fill-opacity: 0; stroke: #595959; stroke-opacity: 0"/>
     <use xlink:href="#m528a186ead" x="276.12499" y="625.781589" style="fill-opacity: 0; stroke: #595959; stroke-opacity: 0"/>
     <use xlink:href="#m528a186ead" x="281.841505" y="637.624168" style="fill-opacity: 0; stroke: #595959; stroke-opacity: 0"/>
     <use xlink:href="#m528a186ead" x="287.55802" y="647.140525" style="fill-opacity: 0; stroke: #595959; stroke-opacity: 0"/>
     <use xlink:href="#m528a186ead" x="298.99105" y="643.545457" style="fill-opacity: 0; stroke: #595959; stroke-opacity: 0"/>
     <use xlink:href="#m528a186ead" x="304.707564" y="646.294627" style="fill-opacity: 0; stroke: #595959; stroke-opacity: 0"/>
     <use xlink:href="#m528a186ead" x="321.857109" y="635.93237" style="fill-opacity: 0; stroke: #595959; stroke-opacity: 0"/>
     <use xlink:href="#m528a186ead" x="339.006653" y="642.276609" style="fill-opacity: 0; stroke: #595959; stroke-opacity: 0"/>
     <use xlink:href="#m528a186ead" x="350.439683" y="615.207858" style="fill-opacity: 0; stroke: #595959; stroke-opacity: 0"/>
     <use xlink:href="#m528a186ead" x="361.872713" y="634.0291" style="fill-opacity: 0; stroke: #595959; stroke-opacity: 0"/>
     <use xlink:href="#m528a186ead" x="367.589228" y="639.10449" style="fill-opacity: 0; stroke: #595959; stroke-opacity: 0"/>
     <use xlink:href="#m528a186ead" x="373.305743" y="645.448729" style="fill-opacity: 0; stroke: #595959; stroke-opacity: 0"/>
     <use xlink:href="#m528a186ead" x="379.022257" y="633.394675" style="fill-opacity: 0; stroke: #595959; stroke-opacity: 0"/>
     <use xlink:href="#m528a186ead" x="384.738772" y="645.448729" style="fill-opacity: 0; stroke: #595959; stroke-opacity: 0"/>
     <use xlink:href="#m528a186ead" x="396.171802" y="641.430711" style="fill-opacity: 0; stroke: #595959; stroke-opacity: 0"/>
     <use xlink:href="#m528a186ead" x="401.888317" y="642.699559" style="fill-opacity: 0; stroke: #595959; stroke-opacity: 0"/>
     <use xlink:href="#m528a186ead" x="413.321347" y="639.950388" style="fill-opacity: 0; stroke: #595959; stroke-opacity: 0"/>
     <use xlink:href="#m528a186ead" x="436.187406" y="642.065135" style="fill-opacity: 0; stroke: #595959; stroke-opacity: 0"/>
     <use xlink:href="#m528a186ead" x="453.33695" y="619.561598" style="fill-opacity: 0; stroke: #595959; stroke-opacity: 0"/>
     <use xlink:href="#m528a186ead" x="459.053465" y="605.309586" style="fill-opacity: 0; stroke: #595959; stroke-opacity: 0"/>
     <use xlink:href="#m528a186ead" x="464.76998" y="626.980935" style="fill-opacity: 0; stroke: #595959; stroke-opacity: 0"/>
     <use xlink:href="#m528a186ead" x="493.352554" y="576.508002" style="fill-opacity: 0; stroke: #595959; stroke-opacity: 0"/>
     <use xlink:href="#m528a186ead" x="510.502099" y="609.286569" style="fill-opacity: 0; stroke: #595959; stroke-opacity: 0"/>
     <use xlink:href="#m528a186ead" x="544.801188" y="580.314545" style="fill-opacity: 0; stroke: #595959; stroke-opacity: 0"/>
     <use xlink:href="#m528a186ead" x="550.517703" y="631.491404" style="fill-opacity: 0; stroke: #595959; stroke-opacity: 0"/>
     <use xlink:href="#m528a186ead" x="556.234218" y="590.042377" style="fill-opacity: 0; stroke: #595959; stroke-opacity: 0"/>
     <use xlink:href="#m528a186ead" x="561.950733" y="635.509422" style="fill-opacity: 0; stroke: #595959; stroke-opacity: 0"/>
     <use xlink:href="#m528a186ead" x="567.667248" y="579.891598" style="fill-opacity: 0; stroke: #595959; stroke-opacity: 0"/>
     <use xlink:href="#m528a186ead" x="590.533307" y="607.171822" style="fill-opacity: 0; stroke: #595959; stroke-opacity: 0"/>
     <use xlink:href="#m528a186ead" x="624.832396" y="617.957029" style="fill-opacity: 0; stroke: #595959; stroke-opacity: 0"/>
     <use xlink:href="#m528a186ead" x="630.548911" y="643.968406" style="fill-opacity: 0; stroke: #595959; stroke-opacity: 0"/>
     <use xlink:href="#m528a186ead" x="636.265426" y="646.717576" style="fill-opacity: 0; stroke: #595959; stroke-opacity: 0"/>
     <use xlink:href="#m528a186ead" x="647.698455" y="625.147166" style="fill-opacity: 0; stroke: #595959; stroke-opacity: 0"/>
     <use xlink:href="#m528a186ead" x="659.131485" y="595.117771" style="fill-opacity: 0; stroke: #595959; stroke-opacity: 0"/>
    </g>
   </g>
   <g id="text_17">
    <text style="font-weight: 800; font-size: 20px; font-family: 'Source Sans 3', sans-serif; text-anchor: start" x="87.48" y="378.912" transform="rotate(-0 87.48 378.912)">Streamflow percentile</text>
   </g>
   <g id="legend-pi">
    <g id="patch_11">
     <path d="M 98.68 420.817 
L 423.7 420.817 
Q 426.9 420.817 426.9 417.617 
L 426.9 396.112 
Q 426.9 392.912 423.7 392.912 
L 98.68 392.912 
Q 95.48 392.912 95.48 396.112 
L 95.48 417.617 
Q 95.48 420.817 98.68 420.817 
L 98.68 420.817 
z
" style="fill: none; opacity: 0.8"/>
    </g>
    <g id="line2d_21">
     <path d="M 101.88 405.2645 
L 117.88 405.2645 
L 133.88 405.2645 
" style="fill: none; stroke-dasharray: 1,1.65; stroke-dashoffset: 0; stroke: #883e3a"/>
    </g>
    <g id="text_18">
     <text style="font-weight: 300; font-size: 16px; font-family: 'Source Sans 3', sans-serif; text-anchor: start; fill: #595959" x="146.68" y="410.8645" transform="rotate(-0 146.68 410.8645)">Observations</text>
    </g>
    <g id="line2d_22">
     <g>
      <use xlink:href="#m6f110f4941" x="278.8375" y="405.2645" style="fill-opacity: 0; stroke: #595959"/>
     </g>
    </g>
    <g id="text_19">
     <text style="font-weight: 300; font-size: 16px; font-family: 'Source Sans 3', sans-serif; text-anchor: start; fill: #595959" x="307.6375" y="410.8645" transform="rotate(-0 307.6375 410.8645)">Missed Prediction</text>
    </g>
   </g>
   <g id="legend-pi">
    <g id="patch_12">
     <path d="M 98.68 420.817 
L 423.7 420.817 
Q 426.9 420.817 426.9 417.617 
L 426.9 396.112 
Q 426.9 392.912 423.7 392.912 
L 98.68 392.912 
Q 95.48 392.912 95.48 396.112 
L 95.48 417.617 
Q 95.48 420.817 98.68 420.817 
L 98.68 420.817 
z
" style="fill: none; opacity: 0.8"/>
    </g>
    <g id="line2d_23">
     <path d="M 101.88 405.2645 
L 117.88 405.2645 
L 133.88 405.2645 
" style="fill: none; stroke-dasharray: 1,1.65; stroke-dashoffset: 0; stroke: #883e3a"/>
    </g>
    <g id="text_20">
     <text style="font-weight: 300; font-size: 16px; font-family: 'Source Sans 3', sans-serif; text-anchor: start; fill: #595959" x="146.68" y="410.8645" transform="rotate(-0 146.68 410.8645)">Observations</text>
    </g>
    <g id="line2d_24">
     <g>
      <use xlink:href="#m6f110f4941" x="278.8375" y="405.2645" style="fill-opacity: 0; stroke: #595959"/>
     </g>
    </g>
    <g id="text_21">
     <text style="font-weight: 300; font-size: 16px; font-family: 'Source Sans 3', sans-serif; text-anchor: start; fill: #595959" x="307.6375" y="410.8645" transform="rotate(-0 307.6375 410.8645)">Missed Prediction</text>
    </g>
   </g>
  </g>
 </g>
 <defs>
  <clipPath id="p4c78d26f3f">
   <rect x="87.48" y="34.992" width="577.368" height="262.44"/>
  </clipPath>
  <clipPath id="p888c11e9f4">
   <rect x="87.48" y="384.912" width="577.368" height="262.44"/>
  </clipPath>
 </defs>
</svg>
