<?xml version="1.0" encoding="utf-8" standalone="no"?>
<!DOCTYPE svg PUBLIC "-//W3C//DTD SVG 1.1//EN"
  "http://www.w3.org/Graphics/SVG/1.1/DTD/svg11.dtd">
<svg xmlns:xlink="http://www.w3.org/1999/xlink" width="699.84px" height="699.84px" viewBox="0 0 699.84 699.84" xmlns="http://www.w3.org/2000/svg" version="1.1">
  <defs>
  <style type="text/css">*{stroke-linejoin: round; stroke-linecap: butt}</style>
 </defs>
 <g id="figure-predictioninterval">
  <g id="patch_1">
   <path d="M 0 699.84 
L 699.84 699.84 
L 699.84 0 
L 0 0 
z
" style="fill: #ffffff"/>
  </g>
  <g id="axis-predictioninterval1">
   <g id="patch_2">
    <path d="M 87.48 297.432 
L 664.848 297.432 
L 664.848 34.992 
L 87.48 34.992 
z
" style="fill: #ffffff"/>
   </g>
   <g id="LF-LOWER-MEDIAN">
    <path d="M 87.48 166.212 
L 376.164 297.432 
L 664.848 166.212 
" clip-path="url(#p4ae05da84a)" style="fill: none; stroke: #00264c; stroke-opacity: 0; stroke-linecap: square"/>
   </g>
   <g id="matplotlib.axis_1">
    <g id="xtick_1">
     <g id="line2d_1">
      <defs>
       <path id="m909e0eae94" d="M 0 0 
L 0 3.5 
" style="stroke: #949494; stroke-width: 0.8"/>
      </defs>
      <g>
       <use xlink:href="#m909e0eae94" x="87.48" y="297.432" style="fill: #949494; stroke: #949494; stroke-width: 0.8"/>
      </g>
     </g>
     <g id="text_1">
      <text style="font-weight: 300; font-size: 16px; font-family: 'Source Sans 3', sans-serif; text-anchor: middle; fill: #6e6e6e" x="87.48" y="315.9845" transform="rotate(-0 87.48 315.9845)">Lower</text>
     </g>
    </g>
    <g id="xtick_2">
     <g id="line2d_2">
      <g>
       <use xlink:href="#m909e0eae94" x="376.164" y="297.432" style="fill: #949494; stroke: #949494; stroke-width: 0.8"/>
      </g>
     </g>
     <g id="text_2">
      <text style="font-weight: 300; font-size: 16px; font-family: 'Source Sans 3', sans-serif; text-anchor: middle; fill: #6e6e6e" x="376.164" y="315.9845" transform="rotate(-0 376.164 315.9845)">Median</text>
     </g>
    </g>
    <g id="xtick_3">
     <g id="line2d_3">
      <g>
       <use xlink:href="#m909e0eae94" x="664.848" y="297.432" style="fill: #949494; stroke: #949494; stroke-width: 0.8"/>
      </g>
     </g>
     <g id="text_3">
      <text style="font-weight: 300; font-size: 16px; font-family: 'Source Sans 3', sans-serif; text-anchor: middle; fill: #6e6e6e" x="664.848" y="315.9845" transform="rotate(-0 664.848 315.9845)">Upper</text>
     </g>
    </g>
    <g id="text_4">
     <text style="font-weight: 600; font-size: 16px; font-family: 'Source Sans 3', sans-serif; text-anchor: middle; fill: #595959" x="376.164" y="335.0895" transform="rotate(-0 376.164 335.0895)">Estimate</text>
    </g>
   </g>
   <g id="matplotlib.axis_2">
    <g id="ytick_1">
     <g id="line2d_4">
      <defs>
       <path id="m2fb38a094a" d="M 0 0 
L -3.5 0 
" style="stroke: #949494; stroke-width: 0.8"/>
      </defs>
      <g>
       <use xlink:href="#m2fb38a094a" x="87.48" y="297.432" style="fill: #949494; stroke: #949494; stroke-width: 0.8"/>
      </g>
     </g>
     <g id="text_5">
      <text style="font-weight: 300; font-size: 16px; font-family: 'Source Sans 3', sans-serif; fill: #6e6e6e" transform="translate(52.6725 286.948)">Less</text>
      <text style="font-weight: 300; font-size: 16px; font-family: 'Source Sans 3', sans-serif; fill: #6e6e6e" transform="translate(32.6725 304.3635)">Penalty</text>
      <text style="font-weight: 300; font-size: 16px; font-family: 'Source Sans 3', sans-serif; fill: #6e6e6e" transform="translate(80.48 321.779)"/>
     </g>
    </g>
    <g id="ytick_2">
     <g id="line2d_5">
      <g>
       <use xlink:href="#m2fb38a094a" x="87.48" y="166.212" style="fill: #949494; stroke: #949494; stroke-width: 0.8"/>
      </g>
     </g>
    </g>
    <g id="ytick_3">
     <g id="line2d_6">
      <g>
       <use xlink:href="#m2fb38a094a" x="87.48" y="34.992" style="fill: #949494; stroke: #949494; stroke-width: 0.8"/>
      </g>
     </g>
     <g id="text_6">
      <text style="font-weight: 300; font-size: 16px; font-family: 'Source Sans 3', sans-serif; fill: #6e6e6e" transform="translate(48.2575 33.21575)">More</text>
      <text style="font-weight: 300; font-size: 16px; font-family: 'Source Sans 3', sans-serif; fill: #6e6e6e" transform="translate(32.6725 50.63125)">Penalty</text>
     </g>
    </g>
   </g>
   <g id="LF-LOWER-0">
    <path d="M 87.48 284.31 
L 376.164 297.432 
L 664.848 48.114 
" clip-path="url(#p4ae05da84a)" style="fill: none; stroke: #b78935; stroke-opacity: 0; stroke-linecap: square"/>
   </g>
   <g id="LF-UPPER-0">
    <path d="M 87.48 48.114 
L 376.164 297.432 
L 664.848 284.31 
" clip-path="url(#p4ae05da84a)" style="fill: none; stroke: #406992; stroke-opacity: 0; stroke-linecap: square"/>
   </g>
   <g id="LF-LOWER-1">
    <path d="M 87.48 264.627 
L 376.164 297.432 
L 664.848 67.797 
" clip-path="url(#p4ae05da84a)" style="fill: none; stroke: #b78935; stroke-opacity: 0; stroke-linecap: square"/>
   </g>
   <g id="LF-UPPER-1">
    <path d="M 87.48 67.797 
L 376.164 297.432 
L 664.848 264.627 
" clip-path="url(#p4ae05da84a)" style="fill: none; stroke: #406992; stroke-opacity: 0; stroke-linecap: square"/>
   </g>
   <g id="LF-LOWER-2">
    <path d="M 87.48 231.822 
L 376.164 297.432 
L 664.848 100.602 
" clip-path="url(#p4ae05da84a)" style="fill: none; stroke: #b78935; stroke-opacity: 0; stroke-linecap: square"/>
   </g>
   <g id="LF-UPPER-2">
    <path d="M 87.48 100.602 
L 376.164 297.432 
L 664.848 231.822 
" clip-path="url(#p4ae05da84a)" style="fill: none; stroke: #406992; stroke-opacity: 0; stroke-linecap: square"/>
   </g>
   <g id="patch_3">
    <path d="M 87.48 297.432 
L 87.48 34.992 
" style="fill: none; stroke: #949494; stroke-width: 0.8; stroke-linejoin: miter; stroke-linecap: square"/>
   </g>
   <g id="patch_4">
    <path d="M 87.48 297.432 
L 664.848 297.432 
" style="fill: none; stroke: #949494; stroke-width: 0.8; stroke-linejoin: miter; stroke-linecap: square"/>
   </g>
   <g id="text_7">
    <text style="font-weight: 800; font-size: 20px; font-family: 'Source Sans 3', sans-serif; text-anchor: start" x="87.48" y="28.992" transform="rotate(-0 87.48 28.992)">Loss function</text>
   </g>
  </g>
  <g id="axis-predictioninterval2">
   <g id="patch_5">
    <path d="M 87.48 647.352 
L 664.848 647.352 
L 664.848 384.912 
L 87.48 384.912 
z
" style="fill: #ffffff"/>
   </g>
   <g id="PI-PATCH-0">
    <path d="M 87.48 569.919275 
L 87.48 621.311725 
L 93.196515 629.26752 
L 98.91303 638.412151 
L 104.629545 633.383995 
L 110.346059 637.007506 
L 116.062574 639.614342 
L 121.779089 640.388085 
L 127.495604 620.966433 
L 133.212119 629.748751 
L 138.928634 621.558368 
L 144.645149 624.293498 
L 150.361663 620.541206 
L 156.078178 615.295539 
L 161.794693 624.908902 
L 167.511208 625.786887 
L 173.227723 624.018753 
L 178.944238 624.636915 
L 184.660752 621.634431 
L 190.377267 619.340714 
L 196.093782 618.447594 
L 201.810297 613.649147 
L 207.526812 615.846583 
L 213.243327 618.047088 
L 218.959842 623.099766 
L 224.676356 632.813153 
L 230.392871 621.241446 
L 236.109386 625.434154 
L 241.825901 624.56602 
L 247.542416 629.534303 
L 253.258931 621.071534 
L 258.975446 629.933562 
L 264.69196 626.670814 
L 270.408475 613.367059 
L 276.12499 623.122062 
L 281.841505 621.735703 
L 287.55802 604.281847 
L 293.274535 628.323014 
L 298.99105 628.20079 
L 304.707564 626.225942 
L 310.424079 623.19635 
L 316.140594 622.974665 
L 321.857109 617.505427 
L 327.573624 640.258701 
L 333.290139 629.48805 
L 339.006653 621.075446 
L 344.723168 630.304543 
L 350.439683 623.064862 
L 356.156198 627.95741 
L 361.872713 631.331404 
L 367.589228 638.957622 
L 373.305743 636.439915 
L 379.022257 631.867449 
L 384.738772 623.724116 
L 390.455287 619.987699 
L 396.171802 620.377393 
L 401.888317 622.569203 
L 407.604832 619.439941 
L 413.321347 616.432259 
L 419.037861 619.581566 
L 424.754376 625.218208 
L 430.470891 629.155769 
L 436.187406 647.352 
L 441.903921 647.352 
L 447.620436 647.352 
L 453.33695 647.352 
L 459.053465 647.352 
L 464.76998 643.372222 
L 470.486495 647.352 
L 476.20301 647.352 
L 481.919525 647.352 
L 487.63604 647.352 
L 493.352554 647.352 
L 499.069069 647.352 
L 504.785584 647.352 
L 510.502099 647.352 
L 516.218614 647.352 
L 521.935129 647.352 
L 527.651644 636.647996 
L 533.368158 631.385938 
L 539.084673 634.587324 
L 544.801188 640.987255 
L 550.517703 645.961371 
L 556.234218 645.684893 
L 561.950733 647.352 
L 567.667248 647.352 
L 573.383762 647.352 
L 579.100277 647.352 
L 584.816792 647.352 
L 590.533307 647.352 
L 596.249822 647.352 
L 601.966337 647.352 
L 607.682851 647.352 
L 613.399366 647.352 
L 619.115881 647.352 
L 624.832396 647.352 
L 630.548911 647.352 
L 636.265426 647.352 
L 641.981941 647.352 
L 647.698455 647.352 
L 653.41497 647.352 
L 659.131485 647.352 
L 664.848 647.352 
L 670.564515 647.352 
L 676.28103 647.352 
L 5461.00396 641.005192 
L 5466.720475 643.057975 
L 5472.43699 640.258103 
L 5478.153505 637.528149 
L 5483.87002 626.290698 
L 5489.586535 633.298665 
L 5495.30305 628.455715 
L 5501.019564 640.03528 
L 5506.736079 626.134624 
L 5512.452594 619.745175 
L 5518.169109 626.433758 
L 5523.885624 625.892636 
L 5529.602139 619.867541 
L 5535.318653 624.35509 
L 5541.035168 616.147077 
L 5546.751683 618.507932 
L 5552.468198 613.453572 
L 5558.184713 619.448826 
L 5563.901228 616.432729 
L 5569.617743 622.342577 
L 5575.334257 624.014566 
L 5581.050772 614.949048 
L 5586.767287 615.765549 
L 5592.483802 610.60555 
L 5598.200317 609.612642 
L 5603.916832 608.656386 
L 5609.633347 610.428242 
L 5615.349861 616.706671 
L 5621.066376 607.796081 
L 5626.782891 614.518563 
L 5632.499406 612.383948 
L 5638.215921 612.879334 
L 5643.932436 619.279217 
L 5649.64895 616.522661 
L 5655.365465 603.003365 
L 5661.08198 601.405778 
L 5666.798495 601.103838 
L 5672.51501 612.204012 
L 5678.231525 617.285449 
L 5683.94804 623.112433 
L 5689.664554 624.482846 
L 5695.381069 627.896404 
L 5701.097584 632.451915 
L 5706.814099 631.041554 
L 5712.530614 633.232785 
L 5718.247129 636.306682 
L 5723.963644 623.660299 
L 5729.680158 626.39866 
L 5735.396673 632.860323 
L 5741.113188 637.571148 
L 5746.829703 637.529394 
L 5752.546218 638.434569 
L 5758.262733 643.233546 
L 5763.979248 642.531415 
L 5769.695762 643.723674 
L 5775.412277 645.173603 
L 5781.128792 638.063745 
L 5786.845307 634.926239 
L 5792.561822 627.621386 
L 5798.278337 637.157995 
L 5803.994851 618.567973 
L 5809.711366 626.800368 
L 5815.427881 625.741967 
L 5821.144396 622.096472 
L 5826.860911 628.320007 
L 5832.577426 602.734632 
L 5838.293941 606.616758 
L 5844.010455 613.331824 
L 5849.72697 604.759311 
L 5855.443485 621.728157 
L 5861.16 612.032033 
L 5866.876515 609.476338 
L 5872.59303 610.841931 
L 5878.309545 608.109274 
L 5884.026059 607.212347 
L 5889.742574 614.233659 
L 5895.459089 618.597674 
L 5895.459089 562.66189 
L 5895.459089 562.66189 
L 5889.742574 554.745942 
L 5884.026059 555.251031 
L 5878.309545 558.420216 
L 5872.59303 561.414143 
L 5866.876515 558.012296 
L 5861.16 564.356631 
L 5855.443485 574.344346 
L 5849.72697 559.746342 
L 5844.010455 567.616844 
L 5838.293941 559.243524 
L 5832.577426 551.084042 
L 5826.860911 564.889377 
L 5821.144396 570.805485 
L 5815.427881 565.555554 
L 5809.711366 561.413292 
L 5803.994851 561.84595 
L 5798.278337 569.171042 
L 5792.561822 562.387531 
L 5786.845307 565.282215 
L 5781.128792 561.947324 
L 5775.412277 566.606619 
L 5769.695762 569.85223 
L 5763.979248 568.618879 
L 5758.262733 571.664444 
L 5752.546218 567.871496 
L 5746.829703 568.081553 
L 5741.113188 567.965312 
L 5735.396673 567.781214 
L 5729.680158 568.589976 
L 5723.963644 572.052867 
L 5718.247129 570.156123 
L 5712.530614 567.822395 
L 5706.814099 560.132277 
L 5701.097584 564.798585 
L 5695.381069 562.03249 
L 5689.664554 561.82808 
L 5683.94804 561.017265 
L 5678.231525 558.724849 
L 5672.51501 557.045575 
L 5666.798495 549.012705 
L 5661.08198 553.082846 
L 5655.365465 557.27084 
L 5649.64895 566.068267 
L 5643.932436 565.987441 
L 5638.215921 559.085266 
L 5632.499406 552.712829 
L 5626.782891 551.381597 
L 5621.066376 549.368567 
L 5615.349861 562.757668 
L 5609.633347 560.708587 
L 5603.916832 562.010535 
L 5598.200317 563.490359 
L 5592.483802 564.32867 
L 5586.767287 567.732794 
L 5581.050772 566.689297 
L 5575.334257 575.883452 
L 5569.617743 575.48658 
L 5563.901228 569.535968 
L 5558.184713 572.475539 
L 5552.468198 563.465011 
L 5546.751683 569.135156 
L 5541.035168 569.306614 
L 5535.318653 577.482901 
L 5529.602139 575.079961 
L 5523.885624 580.126693 
L 5518.169109 580.15499 
L 5512.452594 575.02563 
L 5506.736079 579.38797 
L 5501.019564 589.499329 
L 5495.30305 583.203819 
L 5489.586535 588.941035 
L 5483.87002 576.149678 
L 5478.153505 589.74809 
L 5472.43699 593.531953 
L 5466.720475 595.460503 
L 5461.00396 585.798515 
L 676.28103 608.48887 
L 670.564515 602.367203 
L 664.848 599.88663 
L 659.131485 605.092887 
L 653.41497 607.825071 
L 647.698455 598.695251 
L 641.981941 608.176337 
L 636.265426 591.843408 
L 630.548911 596.810746 
L 624.832396 600.899582 
L 619.115881 599.72302 
L 613.399366 597.841053 
L 607.682851 599.621155 
L 601.966337 605.745878 
L 596.249822 609.278713 
L 590.533307 608.432236 
L 584.816792 592.923051 
L 579.100277 605.712065 
L 573.383762 596.745717 
L 567.667248 608.545856 
L 561.950733 601.70029 
L 556.234218 591.730371 
L 550.517703 591.001233 
L 544.801188 572.05107 
L 539.084673 564.822462 
L 533.368158 583.110408 
L 527.651644 587.719106 
L 521.935129 599.115435 
L 516.218614 605.297838 
L 510.502099 606.267231 
L 504.785584 608.145608 
L 499.069069 605.775232 
L 493.352554 609.150113 
L 487.63604 609.903983 
L 481.919525 606.998126 
L 476.20301 604.502346 
L 470.486495 601.829441 
L 464.76998 599.639786 
L 459.053465 603.977093 
L 453.33695 605.720943 
L 447.620436 604.753414 
L 441.903921 602.069066 
L 436.187406 602.551415 
L 430.470891 581.638829 
L 424.754376 579.599529 
L 419.037861 574.555154 
L 413.321347 570.080908 
L 407.604832 567.332403 
L 401.888317 565.982861 
L 396.171802 569.103255 
L 390.455287 568.949932 
L 384.738772 568.321654 
L 379.022257 570.124006 
L 373.305743 568.489273 
L 367.589228 569.13899 
L 361.872713 566.502437 
L 356.156198 567.665248 
L 350.439683 571.556968 
L 344.723168 578.579253 
L 339.006653 565.476374 
L 333.290139 580.019667 
L 327.573624 590.18736 
L 321.857109 571.709605 
L 316.140594 574.855248 
L 310.424079 577.886542 
L 304.707564 578.049701 
L 298.99105 582.976607 
L 293.274535 583.186174 
L 287.55802 559.09749 
L 281.841505 570.892984 
L 276.12499 565.52082 
L 270.408475 556.822194 
L 264.69196 565.850286 
L 258.975446 567.378244 
L 253.258931 565.369143 
L 247.542416 577.451536 
L 241.825901 573.236312 
L 236.109386 573.614473 
L 230.392871 571.84762 
L 224.676356 585.527905 
L 218.959842 578.861696 
L 213.243327 574.093273 
L 207.526812 572.462173 
L 201.810297 568.551528 
L 196.093782 569.184642 
L 190.377267 571.52364 
L 184.660752 569.710375 
L 178.944238 578.392752 
L 173.227723 579.548786 
L 167.511208 580.433189 
L 161.794693 579.080288 
L 156.078178 569.080149 
L 150.361663 571.917179 
L 144.645149 574.521521 
L 138.928634 569.203563 
L 133.212119 568.259669 
L 127.495604 572.157094 
L 121.779089 586.699191 
L 116.062574 567.268886 
L 110.346059 568.410534 
L 104.629545 563.60173 
L 98.91303 571.051773 
L 93.196515 565.26846 
L 87.48 569.919275 
z
" clip-path="url(#pb5d2635b38)" style="fill: #e6e6e6; fill-opacity: 0.00001"/>
   </g>
   <g id="PI-PATCH-LOWER-0">
    <path d="M 87.48 621.311725 
L 93.196515 629.26752 
L 98.91303 638.412151 
L 104.629545 633.383995 
L 110.346059 637.007506 
L 116.062574 639.614342 
L 121.779089 640.388085 
L 127.495604 620.966433 
L 133.212119 629.748751 
L 138.928634 621.558368 
L 144.645149 624.293498 
L 150.361663 620.541206 
L 156.078178 615.295539 
L 161.794693 624.908902 
L 167.511208 625.786887 
L 173.227723 624.018753 
L 178.944238 624.636915 
L 184.660752 621.634431 
L 190.377267 619.340714 
L 196.093782 618.447594 
L 201.810297 613.649147 
L 213.243327 618.047088 
L 218.959842 623.099766 
L 224.676356 632.813153 
L 230.392871 621.241446 
L 236.109386 625.434154 
L 241.825901 624.56602 
L 247.542416 629.534303 
L 253.258931 621.071534 
L 258.975446 629.933562 
L 264.69196 626.670814 
L 270.408475 613.367059 
L 276.12499 623.122062 
L 281.841505 621.735703 
L 287.55802 604.281847 
L 293.274535 628.323014 
L 298.99105 628.20079 
L 304.707564 626.225942 
L 310.424079 623.19635 
L 316.140594 622.974665 
L 321.857109 617.505427 
L 327.573624 640.258701 
L 333.290139 629.48805 
L 339.006653 621.075446 
L 344.723168 630.304543 
L 350.439683 623.064862 
L 356.156198 627.95741 
L 361.872713 631.331404 
L 367.589228 638.957622 
L 373.305743 636.439915 
L 379.022257 631.867449 
L 384.738772 623.724116 
L 390.455287 619.987699 
L 396.171802 620.377393 
L 401.888317 622.569203 
L 413.321347 616.432259 
L 419.037861 619.581566 
L 424.754376 625.218208 
L 430.470891 629.155769 
L 436.187406 647.352 
L 459.053465 647.352 
L 464.76998 643.372222 
L 470.486495 647.352 
L 521.935129 647.352 
L 527.651644 636.647996 
L 533.368158 631.385938 
L 539.084673 634.587324 
L 544.801188 640.987255 
L 550.517703 645.961371 
L 556.234218 645.684893 
L 561.950733 647.352 
L 700.84 647.319423 
L 700.84 647.319423 
" clip-path="url(#pb5d2635b38)" style="fill: none; stroke: #b78935; stroke-opacity: 0; stroke-linecap: square"/>
   </g>
   <g id="PI-PATCH-UPPER-0">
    <path d="M 87.48 569.919275 
L 93.196515 565.26846 
L 98.91303 571.051773 
L 104.629545 563.60173 
L 110.346059 568.410534 
L 116.062574 567.268886 
L 121.779089 586.699191 
L 127.495604 572.157094 
L 133.212119 568.259669 
L 138.928634 569.203563 
L 144.645149 574.521521 
L 150.361663 571.917179 
L 156.078178 569.080149 
L 161.794693 579.080288 
L 167.511208 580.433189 
L 173.227723 579.548786 
L 178.944238 578.392752 
L 184.660752 569.710375 
L 190.377267 571.52364 
L 196.093782 569.184642 
L 201.810297 568.551528 
L 207.526812 572.462173 
L 213.243327 574.093273 
L 218.959842 578.861696 
L 224.676356 585.527905 
L 230.392871 571.84762 
L 236.109386 573.614473 
L 241.825901 573.236312 
L 247.542416 577.451536 
L 253.258931 565.369143 
L 258.975446 567.378244 
L 264.69196 565.850286 
L 270.408475 556.822194 
L 276.12499 565.52082 
L 281.841505 570.892984 
L 287.55802 559.09749 
L 293.274535 583.186174 
L 298.99105 582.976607 
L 304.707564 578.049701 
L 310.424079 577.886542 
L 321.857109 571.709605 
L 327.573624 590.18736 
L 333.290139 580.019667 
L 339.006653 565.476374 
L 344.723168 578.579253 
L 350.439683 571.556968 
L 356.156198 567.665248 
L 361.872713 566.502437 
L 367.589228 569.13899 
L 373.305743 568.489273 
L 379.022257 570.124006 
L 384.738772 568.321654 
L 390.455287 568.949932 
L 396.171802 569.103255 
L 401.888317 565.982861 
L 407.604832 567.332403 
L 413.321347 570.080908 
L 419.037861 574.555154 
L 424.754376 579.599529 
L 430.470891 581.638829 
L 436.187406 602.551415 
L 441.903921 602.069066 
L 447.620436 604.753414 
L 453.33695 605.720943 
L 459.053465 603.977093 
L 464.76998 599.639786 
L 470.486495 601.829441 
L 476.20301 604.502346 
L 481.919525 606.998126 
L 487.63604 609.903983 
L 493.352554 609.150113 
L 499.069069 605.775232 
L 504.785584 608.145608 
L 510.502099 606.267231 
L 516.218614 605.297838 
L 521.935129 599.115435 
L 527.651644 587.719106 
L 533.368158 583.110408 
L 539.084673 564.822462 
L 544.801188 572.05107 
L 550.517703 591.001233 
L 556.234218 591.730371 
L 561.950733 601.70029 
L 567.667248 608.545856 
L 573.383762 596.745717 
L 579.100277 605.712065 
L 584.816792 592.923051 
L 590.533307 608.432236 
L 596.249822 609.278713 
L 601.966337 605.745878 
L 607.682851 599.621155 
L 613.399366 597.841053 
L 619.115881 599.72302 
L 624.832396 600.899582 
L 630.548911 596.810746 
L 636.265426 591.843408 
L 641.981941 608.176337 
L 647.698455 598.695251 
L 653.41497 607.825071 
L 659.131485 605.092887 
L 664.848 599.88663 
L 670.564515 602.367203 
L 676.28103 608.48887 
L 700.84 608.372405 
L 700.84 608.372405 
" clip-path="url(#pb5d2635b38)" style="fill: none; stroke: #406992; stroke-opacity: 0; stroke-linecap: square"/>
   </g>
   <g id="PI-PATCH-1">
    <path d="M 87.48 579.225396 
L 87.48 613.455061 
L 93.196515 618.17368 
L 98.91303 626.486143 
L 104.629545 620.908755 
L 110.346059 624.569549 
L 116.062574 626.604975 
L 121.779089 633.405586 
L 127.495604 614.047171 
L 133.212119 619.329736 
L 138.928634 612.479999 
L 144.645149 615.740255 
L 150.361663 612.97545 
L 156.078178 607.44612 
L 161.794693 618.79769 
L 167.511208 620.102813 
L 173.227723 617.596516 
L 178.944238 618.853681 
L 184.660752 612.869272 
L 190.377267 611.444287 
L 196.093782 609.859959 
L 201.810297 606.221924 
L 207.526812 608.885653 
L 213.243327 612.03284 
L 218.959842 617.119827 
L 224.676356 627.949846 
L 230.392871 614.068043 
L 236.109386 617.617339 
L 241.825901 616.441933 
L 247.542416 622.852436 
L 253.258931 612.529794 
L 258.975446 619.732805 
L 264.69196 616.579382 
L 270.408475 604.114725 
L 276.12499 613.230983 
L 281.841505 613.596525 
L 287.55802 596.220141 
L 293.274535 622.26257 
L 298.99105 622.166968 
L 304.707564 620.337224 
L 310.424079 617.359191 
L 316.140594 616.820328 
L 321.857109 609.552198 
L 327.573624 634.482997 
L 333.290139 622.922414 
L 339.006653 612.159279 
L 344.723168 622.68579 
L 350.439683 614.38227 
L 356.156198 616.77462 
L 361.872713 619.420424 
L 367.589228 626.439708 
L 373.305743 624.175695 
L 379.022257 620.633901 
L 384.738772 613.740939 
L 390.455287 611.686506 
L 396.171802 611.402115 
L 401.888317 612.299779 
L 407.604832 609.783788 
L 413.321347 608.179359 
L 419.037861 612.420632 
L 424.754376 619.01266 
L 430.470891 623.002155 
L 436.187406 643.796568 
L 441.903921 643.535394 
L 447.620436 643.968979 
L 453.33695 644.367632 
L 459.053465 643.925131 
L 464.76998 638.921216 
L 470.486495 643.053877 
L 476.20301 644.43344 
L 481.919525 645.160489 
L 487.63604 646.026145 
L 493.352554 646.271488 
L 499.069069 645.323743 
L 504.785584 646.494425 
L 510.502099 646.094725 
L 516.218614 646.420194 
L 521.935129 642.861581 
L 527.651644 630.52471 
L 533.368158 624.661395 
L 539.084673 623.150187 
L 544.801188 629.145 
L 550.517703 638.189082 
L 556.234218 639.211154 
L 561.950733 643.85423 
L 567.667248 646.505041 
L 573.383762 644.197964 
L 579.100277 646.082696 
L 584.816792 642.194003 
L 590.533307 645.719883 
L 596.249822 646.250925 
L 601.966337 646.073782 
L 607.682851 644.50023 
L 613.399366 643.896439 
L 619.115881 644.303108 
L 624.832396 644.500086 
L 630.548911 643.405907 
L 636.265426 642.900641 
L 641.981941 645.904689 
L 647.698455 644.089426 
L 653.41497 646.413216 
L 659.131485 645.794897 
L 664.848 644.54475 
L 670.564515 644.890641 
L 676.28103 646.120927 
L 5461.00396 635.836121 
L 5466.720475 638.369169 
L 5472.43699 635.647252 
L 5478.153505 632.389883 
L 5483.87002 619.413847 
L 5489.586535 627.970427 
L 5495.30305 622.775529 
L 5501.019564 634.890708 
L 5506.736079 619.680097 
L 5512.452594 612.999234 
L 5518.169109 620.790225 
L 5523.885624 619.69817 
L 5529.602139 613.602933 
L 5535.318653 618.770908 
L 5541.035168 608.618148 
L 5546.751683 610.173684 
L 5552.468198 604.679279 
L 5558.184713 612.000755 
L 5563.901228 609.454526 
L 5569.617743 615.822919 
L 5575.334257 618.802103 
L 5581.050772 608.302616 
L 5586.767287 608.270827 
L 5592.483802 603.357209 
L 5598.200317 602.625896 
L 5603.916832 601.046104 
L 5609.633347 601.695857 
L 5615.349861 607.452447 
L 5621.066376 597.924109 
L 5626.782891 604.005674 
L 5632.499406 602.294596 
L 5638.215921 603.836466 
L 5643.932436 610.67772 
L 5649.64895 608.759474 
L 5655.365465 595.607354 
L 5661.08198 593.477728 
L 5666.798495 593.11367 
L 5672.51501 602.515343 
L 5678.231525 607.349599 
L 5683.94804 612.762534 
L 5689.664554 614.003651 
L 5695.381069 617.261656 
L 5701.097584 621.936795 
L 5706.814099 619.783716 
L 5712.530614 620.838363 
L 5718.247129 623.923755 
L 5723.963644 613.414586 
L 5729.680158 615.771665 
L 5735.396673 620.776501 
L 5741.113188 624.721446 
L 5746.829703 624.709488 
L 5752.546218 625.32339 
L 5758.262733 630.014194 
L 5763.979248 628.872319 
L 5769.695762 629.944425 
L 5775.412277 630.599461 
L 5781.128792 624.451682 
L 5786.845307 621.626653 
L 5792.561822 615.100012 
L 5798.278337 624.424217 
L 5803.994851 608.138531 
L 5809.711366 614.741279 
L 5815.427881 614.743441 
L 5821.144396 614.786536 
L 5826.860911 617.385695 
L 5832.577426 594.069944 
L 5838.293941 598.973523 
L 5844.010455 606.763603 
L 5849.72697 596.957181 
L 5855.443485 615.698819 
L 5861.16 604.425001 
L 5866.876515 600.128636 
L 5872.59303 601.694352 
L 5878.309545 598.789887 
L 5884.026059 596.768434 
L 5889.742574 602.093848 
L 5895.459089 607.274148 
L 5895.459089 568.858103 
L 5895.459089 568.858103 
L 5889.742574 561.197678 
L 5884.026059 561.11341 
L 5878.309545 564.973557 
L 5872.59303 568.107231 
L 5866.876515 565.231808 
L 5861.16 572.537702 
L 5855.443485 584.647404 
L 5849.72697 566.59117 
L 5844.010455 576.491379 
L 5838.293941 567.252995 
L 5832.577426 559.346672 
L 5826.860911 574.620204 
L 5821.144396 580.846785 
L 5815.427881 573.904288 
L 5809.711366 570.327126 
L 5803.994851 569.623332 
L 5798.278337 578.162398 
L 5792.561822 570.584622 
L 5786.845307 574.130365 
L 5781.128792 572.927839 
L 5775.412277 577.197563 
L 5769.695762 579.702219 
L 5763.979248 578.655661 
L 5758.262733 581.392474 
L 5752.546218 577.352634 
L 5746.829703 577.532079 
L 5741.113188 577.436443 
L 5735.396673 576.537411 
L 5729.680158 576.519547 
L 5723.963644 578.055576 
L 5718.247129 578.9144 
L 5712.530614 576.269823 
L 5706.814099 572.380223 
L 5701.097584 576.804434 
L 5695.381069 573.156562 
L 5689.664554 571.895761 
L 5683.94804 571.045671 
L 5678.231525 567.934055 
L 5672.51501 565.251559 
L 5666.798495 558.407479 
L 5661.08198 561.066218 
L 5655.365465 564.978104 
L 5649.64895 575.133698 
L 5643.932436 574.992803 
L 5638.215921 567.664409 
L 5632.499406 562.146206 
L 5626.782891 561.59337 
L 5621.066376 558.615426 
L 5615.349861 571.098648 
L 5609.633347 568.106791 
L 5603.916832 569.777297 
L 5598.200317 571.933283 
L 5592.483802 572.462031 
L 5586.767287 576.215386 
L 5581.050772 576.465553 
L 5575.334257 587.642662 
L 5569.617743 584.88406 
L 5563.901228 578.299205 
L 5558.184713 580.602703 
L 5552.468198 570.910774 
L 5546.751683 576.960094 
L 5541.035168 577.266222 
L 5535.318653 588.213835 
L 5529.602139 584.016135 
L 5523.885624 589.551695 
L 5518.169109 590.565586 
L 5512.452594 583.251939 
L 5506.736079 588.834329 
L 5501.019564 602.311825 
L 5495.30305 593.153788 
L 5489.586535 599.034392 
L 5483.87002 586.347708 
L 5478.153505 601.472851 
L 5472.43699 605.585481 
L 5466.720475 607.750183 
L 5461.00396 600.434927 
L 676.28103 622.207738 
L 670.564515 616.776917 
L 664.848 614.792804 
L 659.131485 619.700667 
L 653.41497 622.222715 
L 647.698455 613.429626 
L 641.981941 621.712832 
L 636.265426 607.618068 
L 630.548911 611.325443 
L 624.832396 615.339303 
L 619.115881 614.351521 
L 613.399366 612.641588 
L 607.682851 614.569818 
L 601.966337 620.489416 
L 596.249822 622.867678 
L 590.533307 621.604744 
L 584.816792 607.265683 
L 579.100277 620.481703 
L 573.383762 612.409855 
L 567.667248 622.786929 
L 561.950733 614.905206 
L 556.234218 604.017777 
L 550.517703 601.846769 
L 544.801188 582.684824 
L 539.084673 576.360656 
L 533.368158 592.78214 
L 527.651644 598.503743 
L 521.935129 611.940855 
L 516.218614 620.711068 
L 510.502099 620.83301 
L 504.785584 622.530895 
L 499.069069 619.443128 
L 493.352554 622.819423 
L 487.63604 622.925269 
L 481.919525 619.947801 
L 476.20301 617.413844 
L 470.486495 613.847629 
L 464.76998 610.728743 
L 459.053465 616.376553 
L 453.33695 618.054161 
L 447.620436 616.906145 
L 441.903921 614.67495 
L 436.187406 615.335839 
L 430.470891 591.818573 
L 424.754376 588.950208 
L 419.037861 582.314894 
L 413.321347 576.818897 
L 407.604832 574.370439 
L 401.888317 573.933242 
L 396.171802 576.775495 
L 390.455287 577.484328 
L 384.738772 576.206976 
L 379.022257 578.758956 
L 373.305743 578.132267 
L 367.589228 579.165456 
L 361.872713 575.404275 
L 356.156198 575.794678 
L 350.439683 579.737417 
L 344.723168 588.355311 
L 339.006653 574.953531 
L 333.290139 590.391499 
L 327.573624 601.919683 
L 321.857109 578.651623 
L 316.140594 585.273717 
L 310.424079 587.636884 
L 304.707564 588.867573 
L 298.99105 592.413901 
L 293.274535 592.550947 
L 287.55802 565.642302 
L 281.841505 579.579586 
L 276.12499 574.411768 
L 270.408475 566.198852 
L 264.69196 575.738108 
L 258.975446 577.801327 
L 253.258931 575.418554 
L 247.542416 588.698858 
L 241.825901 582.138114 
L 236.109386 583.147133 
L 230.392871 581.327641 
L 224.676356 597.445802 
L 218.959842 587.983012 
L 213.243327 583.052804 
L 207.526812 579.852208 
L 201.810297 575.961862 
L 196.093782 576.606438 
L 190.377267 579.35057 
L 184.660752 577.939306 
L 178.944238 588.591406 
L 173.227723 588.134965 
L 167.511208 590.418154 
L 161.794693 588.648329 
L 156.078178 576.336387 
L 150.361663 580.534298 
L 144.645149 582.194665 
L 138.928634 577.159606 
L 133.212119 577.948846 
L 127.495604 581.765034 
L 121.779089 598.159196 
L 116.062574 577.603731 
L 110.346059 578.064274 
L 104.629545 573.67426 
L 98.91303 580.939643 
L 93.196515 574.999191 
L 87.48 579.225396 
z
" clip-path="url(#pb5d2635b38)" style="fill: #bfbfbf; fill-opacity: 0.00001"/>
   </g>
   <g id="PI-PATCH-LOWER-1">
    <path d="M 87.48 613.455061 
L 93.196515 618.17368 
L 98.91303 626.486143 
L 104.629545 620.908755 
L 110.346059 624.569549 
L 116.062574 626.604975 
L 121.779089 633.405586 
L 127.495604 614.047171 
L 133.212119 619.329736 
L 138.928634 612.479999 
L 144.645149 615.740255 
L 150.361663 612.97545 
L 156.078178 607.44612 
L 161.794693 618.79769 
L 167.511208 620.102813 
L 173.227723 617.596516 
L 178.944238 618.853681 
L 184.660752 612.869272 
L 190.377267 611.444287 
L 196.093782 609.859959 
L 201.810297 606.221924 
L 207.526812 608.885653 
L 213.243327 612.03284 
L 218.959842 617.119827 
L 224.676356 627.949846 
L 230.392871 614.068043 
L 236.109386 617.617339 
L 241.825901 616.441933 
L 247.542416 622.852436 
L 253.258931 612.529794 
L 258.975446 619.732805 
L 264.69196 616.579382 
L 270.408475 604.114725 
L 276.12499 613.230983 
L 281.841505 613.596525 
L 287.55802 596.220141 
L 293.274535 622.26257 
L 298.99105 622.166968 
L 304.707564 620.337224 
L 310.424079 617.359191 
L 316.140594 616.820328 
L 321.857109 609.552198 
L 327.573624 634.482997 
L 333.290139 622.922414 
L 339.006653 612.159279 
L 344.723168 622.68579 
L 350.439683 614.38227 
L 356.156198 616.77462 
L 361.872713 619.420424 
L 367.589228 626.439708 
L 373.305743 624.175695 
L 379.022257 620.633901 
L 384.738772 613.740939 
L 390.455287 611.686506 
L 396.171802 611.402115 
L 401.888317 612.299779 
L 407.604832 609.783788 
L 413.321347 608.179359 
L 419.037861 612.420632 
L 424.754376 619.01266 
L 430.470891 623.002155 
L 436.187406 643.796568 
L 441.903921 643.535394 
L 453.33695 644.367632 
L 459.053465 643.925131 
L 464.76998 638.921216 
L 470.486495 643.053877 
L 476.20301 644.43344 
L 481.919525 645.160489 
L 487.63604 646.026145 
L 493.352554 646.271488 
L 499.069069 645.323743 
L 504.785584 646.494425 
L 510.502099 646.094725 
L 516.218614 646.420194 
L 521.935129 642.861581 
L 527.651644 630.52471 
L 533.368158 624.661395 
L 539.084673 623.150187 
L 544.801188 629.145 
L 550.517703 638.189082 
L 556.234218 639.211154 
L 561.950733 643.85423 
L 567.667248 646.505041 
L 573.383762 644.197964 
L 579.100277 646.082696 
L 584.816792 642.194003 
L 590.533307 645.719883 
L 596.249822 646.250925 
L 601.966337 646.073782 
L 607.682851 644.50023 
L 613.399366 643.896439 
L 619.115881 644.303108 
L 624.832396 644.500086 
L 630.548911 643.405907 
L 636.265426 642.900641 
L 641.981941 645.904689 
L 647.698455 644.089426 
L 653.41497 646.413216 
L 659.131485 645.794897 
L 664.848 644.54475 
L 670.564515 644.890641 
L 676.28103 646.120927 
L 700.84 646.068138 
L 700.84 646.068138 
" clip-path="url(#pb5d2635b38)" style="fill: none; stroke: #b78935; stroke-opacity: 0; stroke-linecap: square"/>
   </g>
   <g id="PI-PATCH-UPPER-1">
    <path d="M 87.48 579.225396 
L 93.196515 574.999191 
L 98.91303 580.939643 
L 104.629545 573.67426 
L 110.346059 578.064274 
L 116.062574 577.603731 
L 121.779089 598.159196 
L 127.495604 581.765034 
L 133.212119 577.948846 
L 138.928634 577.159606 
L 144.645149 582.194665 
L 150.361663 580.534298 
L 156.078178 576.336387 
L 161.794693 588.648329 
L 167.511208 590.418154 
L 173.227723 588.134965 
L 178.944238 588.591406 
L 184.660752 577.939306 
L 190.377267 579.35057 
L 196.093782 576.606438 
L 201.810297 575.961862 
L 207.526812 579.852208 
L 213.243327 583.052804 
L 218.959842 587.983012 
L 224.676356 597.445802 
L 230.392871 581.327641 
L 236.109386 583.147133 
L 241.825901 582.138114 
L 247.542416 588.698858 
L 253.258931 575.418554 
L 258.975446 577.801327 
L 264.69196 575.738108 
L 270.408475 566.198852 
L 276.12499 574.411768 
L 281.841505 579.579586 
L 287.55802 565.642302 
L 293.274535 592.550947 
L 298.99105 592.413901 
L 304.707564 588.867573 
L 310.424079 587.636884 
L 316.140594 585.273717 
L 321.857109 578.651623 
L 327.573624 601.919683 
L 333.290139 590.391499 
L 339.006653 574.953531 
L 344.723168 588.355311 
L 350.439683 579.737417 
L 356.156198 575.794678 
L 361.872713 575.404275 
L 367.589228 579.165456 
L 373.305743 578.132267 
L 379.022257 578.758956 
L 384.738772 576.206976 
L 390.455287 577.484328 
L 396.171802 576.775495 
L 401.888317 573.933242 
L 407.604832 574.370439 
L 413.321347 576.818897 
L 419.037861 582.314894 
L 424.754376 588.950208 
L 430.470891 591.818573 
L 436.187406 615.335839 
L 441.903921 614.67495 
L 447.620436 616.906145 
L 453.33695 618.054161 
L 459.053465 616.376553 
L 464.76998 610.728743 
L 470.486495 613.847629 
L 476.20301 617.413844 
L 481.919525 619.947801 
L 487.63604 622.925269 
L 493.352554 622.819423 
L 499.069069 619.443128 
L 504.785584 622.530895 
L 510.502099 620.83301 
L 516.218614 620.711068 
L 521.935129 611.940855 
L 527.651644 598.503743 
L 533.368158 592.78214 
L 539.084673 576.360656 
L 544.801188 582.684824 
L 550.517703 601.846769 
L 556.234218 604.017777 
L 561.950733 614.905206 
L 567.667248 622.786929 
L 573.383762 612.409855 
L 579.100277 620.481703 
L 584.816792 607.265683 
L 590.533307 621.604744 
L 596.249822 622.867678 
L 601.966337 620.489416 
L 607.682851 614.569818 
L 613.399366 612.641588 
L 619.115881 614.351521 
L 624.832396 615.339303 
L 630.548911 611.325443 
L 636.265426 607.618068 
L 641.981941 621.712832 
L 647.698455 613.429626 
L 653.41497 622.222715 
L 659.131485 619.700667 
L 664.848 614.792804 
L 670.564515 616.776917 
L 676.28103 622.207738 
L 700.84 622.095983 
L 700.84 622.095983 
" clip-path="url(#pb5d2635b38)" style="fill: none; stroke: #406992; stroke-opacity: 0; stroke-linecap: square"/>
   </g>
   <g id="PI-PATCH-2">
    <path d="M 87.48 586.265204 
L 87.48 607.211529 
L 93.196515 609.35763 
L 98.91303 617.008785 
L 104.629545 610.994934 
L 110.346059 614.685356 
L 116.062574 616.266694 
L 121.779089 627.856735 
L 127.495604 608.548574 
L 133.212119 611.049956 
L 138.928634 605.265602 
L 144.645149 608.943165 
L 150.361663 606.963098 
L 156.078178 601.208344 
L 161.794693 613.941234 
L 167.511208 615.585795 
L 173.227723 612.492893 
L 178.944238 614.257861 
L 184.660752 605.903777 
L 190.377267 605.169157 
L 196.093782 603.035539 
L 201.810297 600.31966 
L 207.526812 603.353942 
L 213.243327 607.25344 
L 218.959842 612.36769 
L 224.676356 624.085074 
L 230.392871 608.367485 
L 236.109386 611.405474 
L 241.825901 609.985885 
L 247.542416 617.542492 
L 253.258931 605.741846 
L 258.975446 611.626469 
L 264.69196 608.559925 
L 270.408475 596.762082 
L 276.12499 605.370742 
L 281.841505 607.128484 
L 287.55802 589.813667 
L 293.274535 617.446458 
L 298.99105 617.372011 
L 304.707564 615.657579 
L 310.424079 612.720519 
L 316.140594 611.929601 
L 321.857109 603.231929 
L 327.573624 629.893162 
L 333.290139 617.704836 
L 339.006653 605.073782 
L 344.723168 616.631322 
L 350.439683 607.48239 
L 356.156198 607.887883 
L 361.872713 609.955009 
L 367.589228 616.491975 
L 373.305743 614.429568 
L 379.022257 611.706827 
L 384.738772 605.807511 
L 390.455287 605.089716 
L 396.171802 604.269642 
L 401.888317 604.138875 
L 407.604832 602.110239 
L 413.321347 601.620946 
L 419.037861 606.729983 
L 424.754376 614.081236 
L 430.470891 618.112002 
L 436.187406 640.971138 
L 441.903921 640.502415 
L 447.620436 641.28056 
L 453.33695 641.996015 
L 459.053465 641.201867 
L 464.76998 635.384092 
L 470.486495 639.638245 
L 476.20301 642.11412 
L 481.919525 643.41894 
L 487.63604 644.972515 
L 493.352554 645.412827 
L 499.069069 643.711929 
L 504.785584 645.812927 
L 510.502099 645.095595 
L 516.218614 645.679707 
L 521.935129 639.293136 
L 527.651644 625.658658 
L 533.368158 619.317537 
L 539.084673 614.061325 
L 544.801188 619.734199 
L 550.517703 632.012601 
L 556.234218 634.066605 
L 561.950733 641.074623 
L 567.667248 645.83198 
L 573.383762 641.691515 
L 579.100277 645.074006 
L 584.816792 638.095047 
L 590.533307 644.422872 
L 596.249822 645.375923 
L 601.966337 645.058008 
L 607.682851 642.233986 
L 613.399366 641.150375 
L 619.115881 641.880215 
L 624.832396 642.233727 
L 630.548911 640.270027 
L 636.265426 639.363237 
L 641.981941 644.754539 
L 647.698455 641.496724 
L 653.41497 645.667183 
L 659.131485 644.557499 
L 664.848 642.313886 
L 670.564515 642.934648 
L 676.28103 645.142619 
L 5461.00396 631.728365 
L 5466.720475 634.643069 
L 5472.43699 631.983102 
L 5478.153505 628.306606 
L 5483.87002 613.948952 
L 5489.586535 623.736184 
L 5495.30305 618.2616 
L 5501.019564 630.802421 
L 5506.736079 614.550814 
L 5512.452594 607.638371 
L 5518.169109 616.305423 
L 5523.885624 614.775552 
L 5529.602139 608.624576 
L 5535.318653 614.333271 
L 5541.035168 602.635061 
L 5546.751683 603.550625 
L 5552.468198 597.706525 
L 5558.184713 606.081924 
L 5563.901228 603.909088 
L 5569.617743 610.641879 
L 5575.334257 614.659865 
L 5581.050772 603.02083 
L 5586.767287 602.314922 
L 5592.483802 597.597099 
L 5598.200317 597.073671 
L 5603.916832 594.998367 
L 5609.633347 594.756408 
L 5615.349861 600.098302 
L 5621.066376 590.079053 
L 5626.782891 595.651294 
L 5632.499406 594.276792 
L 5638.215921 596.650282 
L 5643.932436 603.842283 
L 5649.64895 602.590226 
L 5655.365465 589.729893 
L 5661.08198 587.177466 
L 5666.798495 586.764045 
L 5672.51501 594.815952 
L 5678.231525 599.45378 
L 5683.94804 604.537678 
L 5689.664554 605.676046 
L 5695.381069 608.810437 
L 5701.097584 613.580642 
L 5706.814099 610.837341 
L 5712.530614 610.988766 
L 5718.247129 614.083292 
L 5723.963644 605.272525 
L 5729.680158 607.326607 
L 5735.396673 611.173732 
L 5741.113188 614.510047 
L 5746.829703 614.521768 
L 5752.546218 614.9042 
L 5758.262733 619.509042 
L 5763.979248 618.017711 
L 5769.695762 618.994335 
L 5775.412277 619.017685 
L 5781.128792 613.634451 
L 5786.845307 611.057741 
L 5792.561822 605.149529 
L 5798.278337 614.304941 
L 5803.994851 599.850464 
L 5809.711366 605.158164 
L 5815.427881 606.003136 
L 5821.144396 608.977478 
L 5826.860911 608.696418 
L 5832.577426 587.184292 
L 5838.293941 592.899598 
L 5844.010455 601.543969 
L 5849.72697 590.756986 
L 5855.443485 610.907426 
L 5861.16 598.379846 
L 5866.876515 592.700205 
L 5872.59303 594.424956 
L 5878.309545 591.383958 
L 5884.026059 588.468868 
L 5889.742574 592.446586 
L 5895.459089 598.275571 
L 5895.459089 573.545358 
L 5895.459089 573.545358 
L 5889.742574 566.078228 
L 5884.026059 565.548129 
L 5878.309545 569.930969 
L 5872.59303 573.170357 
L 5866.876515 570.693158 
L 5861.16 578.726443 
L 5855.443485 592.441366 
L 5849.72697 571.769084 
L 5844.010455 583.204705 
L 5838.293941 573.311925 
L 5832.577426 565.597111 
L 5826.860911 581.981291 
L 5821.144396 588.442735 
L 5815.427881 580.219862 
L 5809.711366 577.070181 
L 5803.994851 575.506695 
L 5798.278337 584.964097 
L 5792.561822 576.785483 
L 5786.845307 580.823732 
L 5781.128792 581.234277 
L 5775.412277 585.209302 
L 5769.695762 587.153448 
L 5763.979248 586.248193 
L 5758.262733 588.751445 
L 5752.546218 584.524839 
L 5746.829703 584.681126 
L 5741.113188 584.601077 
L 5735.396673 583.161219 
L 5729.680158 582.518037 
L 5723.963644 582.596451 
L 5718.247129 585.53978 
L 5712.530614 582.660055 
L 5706.814099 581.645437 
L 5701.097584 585.886509 
L 5695.381069 581.571598 
L 5689.664554 579.511667 
L 5683.94804 578.631867 
L 5678.231525 574.900551 
L 5672.51501 571.459146 
L 5666.798495 565.514351 
L 5661.08198 567.105406 
L 5655.365465 570.808424 
L 5649.64895 581.991432 
L 5643.932436 581.805096 
L 5638.215921 574.15428 
L 5632.499406 569.282281 
L 5626.782891 569.318278 
L 5621.066376 565.610406 
L 5615.349861 577.408356 
L 5609.633347 573.703316 
L 5603.916832 575.652625 
L 5598.200317 578.320109 
L 5592.483802 578.614682 
L 5586.767287 582.632219 
L 5581.050772 583.861004 
L 5575.334257 596.53816 
L 5569.617743 591.99298 
L 5563.901228 584.928338 
L 5558.184713 586.750666 
L 5552.468198 576.543277 
L 5546.751683 582.879432 
L 5541.035168 583.287433 
L 5535.318653 596.331473 
L 5529.602139 590.776089 
L 5523.885624 596.681433 
L 5518.169109 598.440897 
L 5512.452594 589.474902 
L 5506.736079 595.980224 
L 5501.019564 612.004105 
L 5495.30305 600.680649 
L 5489.586535 606.669722 
L 5483.87002 594.06222 
L 5478.153505 610.34229 
L 5472.43699 614.703623 
L 5466.720475 617.046966 
L 5461.00396 611.506946 
L 676.28103 632.585662 
L 670.564515 627.677445 
L 664.848 626.06889 
L 659.131485 630.751025 
L 653.41497 633.114112 
L 647.698455 624.575751 
L 641.981941 631.952794 
L 636.265426 619.551137 
L 630.548911 622.305387 
L 624.832396 626.262531 
L 619.115881 625.417555 
L 613.399366 623.837761 
L 607.682851 625.878045 
L 601.966337 631.642471 
L 596.249822 633.147334 
L 590.533307 631.569362 
L 584.816792 618.115465 
L 579.100277 631.654503 
L 573.383762 624.259318 
L 567.667248 633.559884 
L 561.950733 624.894339 
L 556.234218 613.31284 
L 550.517703 610.051099 
L 544.801188 590.728949 
L 539.084673 585.088963 
L 533.368158 600.098523 
L 527.651644 606.662006 
L 521.935129 621.642911 
L 516.218614 632.370726 
L 510.502099 631.851597 
L 504.785584 633.412945 
L 499.069069 629.782493 
L 493.352554 633.159857 
L 487.63604 632.775492 
L 481.919525 629.743853 
L 476.20301 627.181016 
L 470.486495 622.939037 
L 464.76998 619.117214 
L 459.053465 625.756383 
L 453.33695 627.38388 
L 447.620436 626.099331 
L 441.903921 624.210932 
L 436.187406 625.006881 
L 430.470891 599.519252 
L 424.754376 596.023725 
L 419.037861 588.184911 
L 413.321347 581.915988 
L 407.604832 579.694507 
L 401.888317 579.947473 
L 396.171802 582.57932 
L 390.455287 583.94035 
L 384.738772 582.171992 
L 379.022257 585.291043 
L 373.305743 585.42691 
L 367.589228 586.750185 
L 361.872713 582.138256 
L 356.156198 581.944353 
L 350.439683 585.925687 
L 344.723168 595.750613 
L 339.006653 582.122723 
L 333.290139 598.237487 
L 327.573624 610.794843 
L 321.857109 583.903057 
L 316.140594 593.154984 
L 310.424079 595.012733 
L 304.707564 597.050977 
L 298.99105 599.552938 
L 293.274535 599.635124 
L 287.55802 570.593261 
L 281.841505 586.150748 
L 276.12499 581.137511 
L 270.408475 573.292021 
L 264.69196 583.217957 
L 258.975446 585.686084 
L 253.258931 583.02064 
L 247.542416 597.207128 
L 241.825901 588.872068 
L 236.109386 590.358312 
L 230.392871 588.499 
L 224.676356 606.461343 
L 218.959842 594.88302 
L 213.243327 589.830428 
L 207.526812 585.442554 
L 201.810297 581.567564 
L 196.093782 582.22081 
L 190.377267 585.271415 
L 184.660752 584.164252 
L 178.944238 596.30639 
L 173.227723 594.630159 
L 167.511208 597.971489 
L 161.794693 595.886273 
L 156.078178 581.825518 
L 150.361663 587.052898 
L 144.645149 587.999175 
L 138.928634 583.178119 
L 133.212119 585.278426 
L 127.495604 589.03316 
L 121.779089 606.828355 
L 116.062574 585.42174 
L 110.346059 585.367047 
L 104.629545 581.293834 
L 98.91303 588.419528 
L 93.196515 582.360205 
L 87.48 586.265204 
z
" clip-path="url(#pb5d2635b38)" style="fill: #808080; fill-opacity: 0.00001"/>
   </g>
   <g id="PI-PATCH-LOWER-2">
    <path d="M 87.48 607.211529 
L 93.196515 609.35763 
L 98.91303 617.008785 
L 104.629545 610.994934 
L 110.346059 614.685356 
L 116.062574 616.266694 
L 121.779089 627.856735 
L 127.495604 608.548574 
L 133.212119 611.049956 
L 138.928634 605.265602 
L 144.645149 608.943165 
L 150.361663 606.963098 
L 156.078178 601.208344 
L 161.794693 613.941234 
L 167.511208 615.585795 
L 173.227723 612.492893 
L 178.944238 614.257861 
L 184.660752 605.903777 
L 190.377267 605.169157 
L 196.093782 603.035539 
L 201.810297 600.31966 
L 207.526812 603.353942 
L 213.243327 607.25344 
L 218.959842 612.36769 
L 224.676356 624.085074 
L 230.392871 608.367485 
L 236.109386 611.405474 
L 241.825901 609.985885 
L 247.542416 617.542492 
L 253.258931 605.741846 
L 258.975446 611.626469 
L 264.69196 608.559925 
L 270.408475 596.762082 
L 276.12499 605.370742 
L 281.841505 607.128484 
L 287.55802 589.813667 
L 293.274535 617.446458 
L 298.99105 617.372011 
L 304.707564 615.657579 
L 310.424079 612.720519 
L 316.140594 611.929601 
L 321.857109 603.231929 
L 327.573624 629.893162 
L 333.290139 617.704836 
L 339.006653 605.073782 
L 344.723168 616.631322 
L 350.439683 607.48239 
L 356.156198 607.887883 
L 361.872713 609.955009 
L 367.589228 616.491975 
L 373.305743 614.429568 
L 379.022257 611.706827 
L 384.738772 605.807511 
L 396.171802 604.269642 
L 401.888317 604.138875 
L 407.604832 602.110239 
L 413.321347 601.620946 
L 419.037861 606.729983 
L 424.754376 614.081236 
L 430.470891 618.112002 
L 436.187406 640.971138 
L 441.903921 640.502415 
L 453.33695 641.996015 
L 459.053465 641.201867 
L 464.76998 635.384092 
L 470.486495 639.638245 
L 476.20301 642.11412 
L 481.919525 643.41894 
L 487.63604 644.972515 
L 493.352554 645.412827 
L 499.069069 643.711929 
L 504.785584 645.812927 
L 510.502099 645.095595 
L 516.218614 645.679707 
L 521.935129 639.293136 
L 527.651644 625.658658 
L 533.368158 619.317537 
L 539.084673 614.061325 
L 544.801188 619.734199 
L 550.517703 632.012601 
L 556.234218 634.066605 
L 561.950733 641.074623 
L 567.667248 645.83198 
L 573.383762 641.691515 
L 579.100277 645.074006 
L 584.816792 638.095047 
L 590.533307 644.422872 
L 596.249822 645.375923 
L 601.966337 645.058008 
L 607.682851 642.233986 
L 613.399366 641.150375 
L 619.115881 641.880215 
L 624.832396 642.233727 
L 630.548911 640.270027 
L 636.265426 639.363237 
L 641.981941 644.754539 
L 647.698455 641.496724 
L 653.41497 645.667183 
L 659.131485 644.557499 
L 664.848 642.313886 
L 670.564515 642.934648 
L 676.28103 645.142619 
L 700.84 645.073766 
L 700.84 645.073766 
" clip-path="url(#pb5d2635b38)" style="fill: none; stroke: #b78935; stroke-opacity: 0; stroke-linecap: square"/>
   </g>
   <g id="PI-PATCH-UPPER-2">
    <path d="M 87.48 586.265204 
L 93.196515 582.360205 
L 98.91303 588.419528 
L 104.629545 581.293834 
L 110.346059 585.367047 
L 116.062574 585.42174 
L 121.779089 606.828355 
L 127.495604 589.03316 
L 133.212119 585.278426 
L 138.928634 583.178119 
L 144.645149 587.999175 
L 150.361663 587.052898 
L 156.078178 581.825518 
L 161.794693 595.886273 
L 167.511208 597.971489 
L 173.227723 594.630159 
L 178.944238 596.30639 
L 184.660752 584.164252 
L 190.377267 585.271415 
L 196.093782 582.22081 
L 201.810297 581.567564 
L 207.526812 585.442554 
L 213.243327 589.830428 
L 218.959842 594.88302 
L 224.676356 606.461343 
L 230.392871 588.499 
L 236.109386 590.358312 
L 241.825901 588.872068 
L 247.542416 597.207128 
L 253.258931 583.02064 
L 258.975446 585.686084 
L 264.69196 583.217957 
L 270.408475 573.292021 
L 276.12499 581.137511 
L 281.841505 586.150748 
L 287.55802 570.593261 
L 293.274535 599.635124 
L 298.99105 599.552938 
L 304.707564 597.050977 
L 310.424079 595.012733 
L 316.140594 593.154984 
L 321.857109 583.903057 
L 327.573624 610.794843 
L 333.290139 598.237487 
L 339.006653 582.122723 
L 344.723168 595.750613 
L 350.439683 585.925687 
L 356.156198 581.944353 
L 361.872713 582.138256 
L 367.589228 586.750185 
L 373.305743 585.42691 
L 379.022257 585.291043 
L 384.738772 582.171992 
L 390.455287 583.94035 
L 396.171802 582.57932 
L 401.888317 579.947473 
L 407.604832 579.694507 
L 413.321347 581.915988 
L 419.037861 588.184911 
L 424.754376 596.023725 
L 430.470891 599.519252 
L 436.187406 625.006881 
L 441.903921 624.210932 
L 447.620436 626.099331 
L 453.33695 627.38388 
L 459.053465 625.756383 
L 464.76998 619.117214 
L 470.486495 622.939037 
L 476.20301 627.181016 
L 481.919525 629.743853 
L 487.63604 632.775492 
L 493.352554 633.159857 
L 499.069069 629.782493 
L 504.785584 633.412945 
L 510.502099 631.851597 
L 516.218614 632.370726 
L 521.935129 621.642911 
L 527.651644 606.662006 
L 533.368158 600.098523 
L 539.084673 585.088963 
L 544.801188 590.728949 
L 550.517703 610.051099 
L 556.234218 613.31284 
L 561.950733 624.894339 
L 567.667248 633.559884 
L 573.383762 624.259318 
L 579.100277 631.654503 
L 584.816792 618.115465 
L 590.533307 631.569362 
L 596.249822 633.147334 
L 601.966337 631.642471 
L 607.682851 625.878045 
L 613.399366 623.837761 
L 619.115881 625.417555 
L 624.832396 626.262531 
L 630.548911 622.305387 
L 636.265426 619.551137 
L 641.981941 631.952794 
L 647.698455 624.575751 
L 653.41497 633.114112 
L 659.131485 630.751025 
L 664.848 626.06889 
L 670.564515 627.677445 
L 676.28103 632.585662 
L 700.84 632.477469 
L 700.84 632.477469 
" clip-path="url(#pb5d2635b38)" style="fill: none; stroke: #406992; stroke-opacity: 0; stroke-linecap: square"/>
   </g>
   <g id="matplotlib.axis_3">
    <g id="xtick_4">
     <g id="line2d_7">
      <g>
       <use xlink:href="#m909e0eae94" x="156.078178" y="647.352" style="fill: #949494; stroke: #949494; stroke-width: 0.8"/>
      </g>
     </g>
     <g id="text_8">
      <text style="font-weight: 300; font-size: 16px; font-family: 'Source Sans 3', sans-serif; text-anchor: middle; fill: #595959" x="156.078178" y="665.9045" transform="rotate(-0 156.078178 665.9045)">2001</text>
     </g>
    </g>
    <g id="xtick_5">
     <g id="line2d_8">
      <g>
       <use xlink:href="#m909e0eae94" x="454.153595" y="647.352" style="fill: #949494; stroke: #949494; stroke-width: 0.8"/>
      </g>
     </g>
     <g id="text_9">
      <text style="font-weight: 300; font-size: 16px; font-family: 'Source Sans 3', sans-serif; text-anchor: middle; fill: #595959" x="454.153595" y="665.9045" transform="rotate(-0 454.153595 665.9045)">2002</text>
     </g>
    </g>
    <g id="text_10">
     <text style="font-weight: 600; font-size: 16px; font-family: 'Source Sans 3', sans-serif; text-anchor: middle; fill: #595959" x="376.164" y="685.0095" transform="rotate(-0 376.164 685.0095)">Date</text>
    </g>
   </g>
   <g id="matplotlib.axis_4">
    <g id="ytick_4">
     <g id="line2d_9">
      <path d="M 87.48 647.352 
L 664.848 647.352 
" style="fill: none; stroke: #d1d1d1; stroke-width: 0.8; stroke-linecap: square"/>
     </g>
     <g id="line2d_10">
      <g>
       <use xlink:href="#m2fb38a094a" x="87.48" y="647.352" style="fill: #949494; stroke: #949494; stroke-width: 0.8"/>
      </g>
     </g>
     <g id="text_11">
      <text style="font-weight: 300; font-size: 16px; font-family: 'Source Sans 3', sans-serif; text-anchor: end; fill: #595959" x="80.48" y="653.12825" transform="rotate(-0 80.48 653.12825)">0</text>
     </g>
    </g>
    <g id="ytick_5">
     <g id="line2d_11">
      <path d="M 87.48 594.864 
L 664.848 594.864 
" style="fill: none; stroke: #d1d1d1; stroke-width: 0.8; stroke-linecap: square"/>
     </g>
     <g id="line2d_12">
      <g>
       <use xlink:href="#m2fb38a094a" x="87.48" y="594.864" style="fill: #949494; stroke: #949494; stroke-width: 0.8"/>
      </g>
     </g>
     <g id="text_12">
      <text style="font-weight: 300; font-size: 16px; font-family: 'Source Sans 3', sans-serif; text-anchor: end; fill: #595959" x="80.48" y="600.64025" transform="rotate(-0 80.48 600.64025)">20</text>
     </g>
    </g>
    <g id="ytick_6">
     <g id="line2d_13">
      <path d="M 87.48 542.376 
L 664.848 542.376 
" style="fill: none; stroke: #d1d1d1; stroke-width: 0.8; stroke-linecap: square"/>
     </g>
     <g id="line2d_14">
      <g>
       <use xlink:href="#m2fb38a094a" x="87.48" y="542.376" style="fill: #949494; stroke: #949494; stroke-width: 0.8"/>
      </g>
     </g>
     <g id="text_13">
      <text style="font-weight: 300; font-size: 16px; font-family: 'Source Sans 3', sans-serif; text-anchor: end; fill: #595959" x="80.48" y="548.15225" transform="rotate(-0 80.48 548.15225)">40</text>
     </g>
    </g>
    <g id="ytick_7">
     <g id="line2d_15">
      <path d="M 87.48 489.888 
L 664.848 489.888 
" style="fill: none; stroke: #d1d1d1; stroke-width: 0.8; stroke-linecap: square"/>
     </g>
     <g id="line2d_16">
      <g>
       <use xlink:href="#m2fb38a094a" x="87.48" y="489.888" style="fill: #949494; stroke: #949494; stroke-width: 0.8"/>
      </g>
     </g>
     <g id="text_14">
      <text style="font-weight: 300; font-size: 16px; font-family: 'Source Sans 3', sans-serif; text-anchor: end; fill: #595959" x="80.48" y="495.66425" transform="rotate(-0 80.48 495.66425)">60</text>
     </g>
    </g>
    <g id="ytick_8">
     <g id="line2d_17">
      <path d="M 87.48 437.4 
L 664.848 437.4 
" style="fill: none; stroke: #d1d1d1; stroke-width: 0.8; stroke-linecap: square"/>
     </g>
     <g id="line2d_18">
      <g>
       <use xlink:href="#m2fb38a094a" x="87.48" y="437.4" style="fill: #949494; stroke: #949494; stroke-width: 0.8"/>
      </g>
     </g>
     <g id="text_15">
      <text style="font-weight: 300; font-size: 16px; font-family: 'Source Sans 3', sans-serif; text-anchor: end; fill: #595959" x="80.48" y="443.17625" transform="rotate(-0 80.48 443.17625)">80</text>
     </g>
    </g>
    <g id="ytick_9">
     <g id="line2d_19">
      <path d="M 87.48 384.912 
L 664.848 384.912 
" style="fill: none; stroke: #d1d1d1; stroke-width: 0.8; stroke-linecap: square"/>
     </g>
     <g id="line2d_20">
      <g>
       <use xlink:href="#m2fb38a094a" x="87.48" y="384.912" style="fill: #949494; stroke: #949494; stroke-width: 0.8"/>
      </g>
     </g>
     <g id="text_16">
      <text style="font-weight: 300; font-size: 16px; font-family: 'Source Sans 3', sans-serif; text-anchor: end; fill: #595959" x="80.48" y="390.68825" transform="rotate(-0 80.48 390.68825)">100</text>
     </g>
    </g>
   </g>
   <g id="TAG-0-LABEL-BOLD">
    <g id="patch_6">
     <path d="M 362.9733 479.90425 
L 504.8283 479.90425 
L 504.8283 447.38375 
L 362.9733 447.38375 
z
" style="fill: #ffffff; opacity: 0"/>
    </g>
    <text style="font-weight: 700; font-size: 16px; font-family: 'Source Sans 3', sans-serif; fill: #883e3a; opacity: 0" transform="translate(397.6608 458.93625)">PI Contains</text>
    <text style="font-weight: 700; font-size: 16px; font-family: 'Source Sans 3', sans-serif; fill: #883e3a; opacity: 0" transform="translate(362.9733 476.35175)">93.2% of Observations</text>
   </g>
   <g id="TAG-1-LABEL-BOLD">
    <g id="patch_7">
     <path d="M 362.9733 479.90425 
L 504.8283 479.90425 
L 504.8283 447.38375 
L 362.9733 447.38375 
z
" style="fill: #ffffff; opacity: 0"/>
    </g>
    <text style="font-weight: 700; font-size: 16px; font-family: 'Source Sans 3', sans-serif; fill: #883e3a; opacity: 0" transform="translate(397.6608 458.93625)">PI Contains</text>
    <text style="font-weight: 700; font-size: 16px; font-family: 'Source Sans 3', sans-serif; fill: #883e3a; opacity: 0" transform="translate(362.9733 476.35175)">71.2% of Observations</text>
   </g>
   <g id="TAG-2-LABEL-BOLD">
    <g id="patch_8">
     <path d="M 362.9733 479.90425 
L 504.8283 479.90425 
L 504.8283 447.38375 
L 362.9733 447.38375 
z
" style="fill: #ffffff; opacity: 0"/>
    </g>
    <text style="font-weight: 700; font-size: 16px; font-family: 'Source Sans 3', sans-serif; fill: #883e3a; opacity: 0" transform="translate(397.6608 458.93625)">PI Contains</text>
    <text style="font-weight: 700; font-size: 16px; font-family: 'Source Sans 3', sans-serif; fill: #883e3a; opacity: 0" transform="translate(362.9733 476.35175)">47.9% of Observations</text>
   </g>
   <g id="PI-PATCH-MEDIAN">
    <path d="M 87.48 593.305012 
L 93.196515 589.72122 
L 98.91303 595.899413 
L 104.629545 588.913408 
L 110.346059 592.66982 
L 116.062574 593.239748 
L 121.779089 615.497515 
L 127.495604 596.301286 
L 133.212119 592.608006 
L 138.928634 589.196633 
L 144.645149 593.803684 
L 150.361663 593.571497 
L 156.078178 587.31465 
L 161.794693 603.124217 
L 167.511208 605.524824 
L 173.227723 601.125352 
L 178.944238 604.021373 
L 184.660752 590.389198 
L 190.377267 591.192259 
L 196.093782 587.835182 
L 201.810297 587.173266 
L 207.526812 591.032899 
L 213.243327 596.608052 
L 218.959842 601.783029 
L 224.676356 615.476884 
L 230.392871 595.670359 
L 236.109386 597.569491 
L 241.825901 595.606022 
L 247.542416 605.715399 
L 253.258931 590.622726 
L 258.975446 593.570841 
L 264.69196 590.697806 
L 270.408475 580.38519 
L 276.12499 587.863254 
L 281.841505 592.721909 
L 287.55802 575.54422 
L 293.274535 606.719301 
L 298.99105 606.691975 
L 304.707564 605.234382 
L 310.424079 602.388582 
L 316.140594 601.036252 
L 321.857109 589.15449 
L 327.573624 619.670003 
L 333.290139 606.083474 
L 339.006653 589.291915 
L 344.723168 603.145916 
L 350.439683 592.113958 
L 356.156198 588.094029 
L 361.872713 588.872237 
L 367.589228 594.334913 
L 373.305743 592.721554 
L 379.022257 591.82313 
L 384.738772 588.137008 
L 390.455287 590.396371 
L 396.171802 588.383145 
L 401.888317 585.961704 
L 407.604832 585.018576 
L 413.321347 587.01308 
L 419.037861 594.054927 
L 424.754376 603.097241 
L 430.470891 607.219931 
L 436.187406 634.677924 
L 441.903921 633.746915 
L 447.620436 635.292517 
L 453.33695 636.713599 
L 459.053465 635.136212 
L 464.76998 627.505686 
L 470.486495 632.030445 
L 476.20301 636.948188 
L 481.919525 639.539904 
L 487.63604 642.625714 
L 493.352554 643.50029 
L 499.069069 640.121857 
L 504.785584 644.294996 
L 510.502099 642.870183 
L 516.218614 644.030385 
L 521.935129 631.344967 
L 527.651644 614.820268 
L 533.368158 607.414906 
L 539.084673 593.817269 
L 544.801188 598.773074 
L 550.517703 618.25543 
L 556.234218 622.607904 
L 561.950733 634.883472 
L 567.667248 644.332839 
L 573.383762 636.108782 
L 579.100277 642.827303 
L 584.816792 628.965247 
L 590.533307 641.533979 
L 596.249822 643.426989 
L 601.966337 642.795527 
L 607.682851 637.186272 
L 613.399366 635.033934 
L 619.115881 636.483589 
L 624.832396 637.185758 
L 630.548911 633.285332 
L 636.265426 631.484207 
L 641.981941 642.192757 
L 647.698455 635.721875 
L 653.41497 644.005509 
L 659.131485 641.801384 
L 664.848 637.344975 
L 670.564515 638.577973 
L 676.28103 642.963585 
L 700.84 642.858955 
L 700.84 642.858955 
" clip-path="url(#pb5d2635b38)" style="fill: none; stroke: #00264c; stroke-opacity: 0; stroke-linecap: square"/>
   </g>
   <g id="OBSERVED-FORECAST-LINE">
    <path d="M 87.48 503.549258 
L 93.196515 486.20834 
L 98.91303 497.205023 
L 104.629545 493.821426 
L 110.346059 491.072256 
L 116.062574 618.802928 
L 121.779089 598.289889 
L 127.495604 525.119667 
L 133.212119 567.626069 
L 138.928634 565.29985 
L 144.645149 588.189227 
L 150.361663 573.88614 
L 156.078178 602.709028 
L 161.794693 610.077284 
L 167.511208 594.060399 
L 173.227723 606.960348 
L 178.944238 553.2458 
L 184.660752 573.12441 
L 190.377267 553.668747 
L 196.093782 573.970309 
L 201.810297 574.181783 
L 207.526812 591.945648 
L 213.243327 593.003021 
L 218.959842 616.82586 
L 224.676356 578.28884 
L 230.392871 580.626367 
L 236.109386 570.001263 
L 241.825901 605.276599 
L 247.542416 557.052343 
L 253.258931 540.768797 
L 258.975446 548.381884 
L 264.69196 566.357223 
L 270.408475 512.431196 
L 276.12499 572.067038 
L 281.841505 559.378557 
L 287.55802 596.175144 
L 293.274535 602.307906 
L 298.99105 603.999704 
L 304.707564 593.84892 
L 310.424079 603.365278 
L 316.140594 574.393257 
L 321.857109 621.763572 
L 327.573624 610.132468 
L 333.290139 522.159028 
L 339.006653 593.425973 
L 344.723168 564.242478 
L 350.439683 465.483835 
L 356.156198 431.013457 
L 361.872713 435.454426 
L 367.589228 473.096922 
L 373.305743 522.581975 
L 379.022257 553.2458 
L 384.738772 587.293211 
L 390.455287 558.321184 
L 396.171802 548.381884 
L 401.888317 557.47529 
L 407.604832 572.278511 
L 413.321347 591.099749 
L 419.037861 607.806247 
L 424.754376 610.555415 
L 430.470891 645.660203 
L 436.187406 638.470066 
L 441.903921 639.333602 
L 447.620436 638.250035 
L 453.33695 637.939122 
L 459.053465 626.980935 
L 464.76998 629.364783 
L 470.486495 639.738914 
L 476.20301 639.527439 
L 481.919525 644.391355 
L 487.63604 645.871678 
L 493.352554 640.584812 
L 499.069069 642.065135 
L 504.785584 646.929051 
L 510.502099 642.065135 
L 516.218614 622.781347 
L 521.935129 602.514073 
L 527.651644 596.139013 
L 533.368158 505.613146 
L 539.084673 524.950837 
L 544.801188 595.329245 
L 550.517703 617.745553 
L 556.234218 629.799607 
L 561.950733 644.814305 
L 567.667248 641.007761 
L 573.383762 644.179881 
L 579.100277 635.509422 
L 584.816792 639.315964 
L 590.533307 644.179881 
L 596.249822 646.506102 
L 601.966337 642.065135 
L 607.682851 638.470066 
L 613.399366 642.065135 
L 619.115881 645.237254 
L 624.832396 641.007761 
L 630.548911 644.814305 
L 636.265426 642.911033 
L 641.981941 644.60283 
L 647.698455 643.756931 
L 653.41497 644.814305 
L 659.131485 646.929051 
L 664.848 641.430711 
L 670.564515 642.911033 
L 676.28103 646.506102 
L 700.84 646.402983 
L 700.84 646.402983 
" clip-path="url(#pb5d2635b38)" style="fill: none; stroke-dasharray: 1,1.65; stroke-dashoffset: 0; stroke: #883e3a"/>
   </g>
   <g id="PI-missed-dummy">
    <defs>
     <path id="mbb84cc44f8" d="M 0 3.9975 
C 1.060149 3.9975 2.077021 3.576298 2.826659 2.826659 
C 3.576298 2.077021 3.9975 1.060149 3.9975 0 
C 3.9975 -1.060149 3.576298 -2.077021 2.826659 -2.826659 
C 2.077021 -3.576298 1.060149 -3.9975 0 -3.9975 
C -1.060149 -3.9975 -2.077021 -3.576298 -2.826659 -2.826659 
C -3.576298 -2.077021 -3.9975 -1.060149 -3.9975 0 
C -3.9975 1.060149 -3.576298 2.077021 -2.826659 2.826659 
C -2.077021 3.576298 -1.060149 3.9975 0 3.9975 
z
" style="stroke: #595959"/>
    </defs>
    <g clip-path="url(#pb5d2635b38)"/>
   </g>
   <g id="patch_9">
    <path d="M 87.48 647.352 
L 87.48 384.912 
" style="fill: none; stroke: #949494; stroke-width: 0.8; stroke-linejoin: miter; stroke-linecap: square"/>
   </g>
   <g id="patch_10">
    <path d="M 87.48 647.352 
L 664.848 647.352 
" style="fill: none; stroke: #949494; stroke-width: 0.8; stroke-linejoin: miter; stroke-linecap: square"/>
   </g>
   <g id="PI-missed-0">
    <defs>
     <path id="mf62122b856" d="M 0 4 
C 1.060812 4 2.078319 3.578535 2.828427 2.828427 
C 3.578535 2.078319 4 1.060812 4 0 
C 4 -1.060812 3.578535 -2.078319 2.828427 -2.828427 
C 2.078319 -3.578535 1.060812 -4 0 -4 
C -1.060812 -4 -2.078319 -3.578535 -2.828427 -2.828427 
C -3.578535 -2.078319 -4 -1.060812 -4 0 
C -4 1.060812 -3.578535 2.078319 -2.828427 2.828427 
C -2.078319 3.578535 -1.060812 4 0 4 
z
" style="stroke: #595959; stroke-opacity: 0"/>
    </defs>
    <g>
     <use xlink:href="#mf62122b856" x="224.676356" y="578.28884" style="fill-opacity: 0; stroke: #595959; stroke-opacity: 0"/>
     <use xlink:href="#mf62122b856" x="236.109386" y="570.001263" style="fill-opacity: 0; stroke: #595959; stroke-opacity: 0"/>
     <use xlink:href="#mf62122b856" x="316.140594" y="574.393257" style="fill-opacity: 0; stroke: #595959; stroke-opacity: 0"/>
     <use xlink:href="#mf62122b856" x="321.857109" y="621.763572" style="fill-opacity: 0; stroke: #595959; stroke-opacity: 0"/>
     <use xlink:href="#mf62122b856" x="430.470891" y="645.660203" style="fill-opacity: 0; stroke: #595959; stroke-opacity: 0"/>
    </g>
   </g>
   <g id="PI-missed-1">
    <defs>
     <path id="m2ea081c263" d="M 0 4.0025 
C 1.061475 4.0025 2.079618 3.580771 2.830195 2.830195 
C 3.580771 2.079618 4.0025 1.061475 4.0025 0 
C 4.0025 -1.061475 3.580771 -2.079618 2.830195 -2.830195 
C 2.079618 -3.580771 1.061475 -4.0025 0 -4.0025 
C -1.061475 -4.0025 -2.079618 -3.580771 -2.830195 -2.830195 
C -3.580771 -2.079618 -4.0025 -1.061475 -4.0025 0 
C -4.0025 1.061475 -3.580771 2.079618 -2.830195 2.830195 
C -2.079618 3.580771 -1.061475 4.0025 0 4.0025 
z
" style="stroke: #595959; stroke-opacity: 0"/>
    </defs>
    <g>
     <use xlink:href="#m2ea081c263" x="150.361663" y="573.88614" style="fill-opacity: 0; stroke: #595959; stroke-opacity: 0"/>
     <use xlink:href="#m2ea081c263" x="184.660752" y="573.12441" style="fill-opacity: 0; stroke: #595959; stroke-opacity: 0"/>
     <use xlink:href="#m2ea081c263" x="196.093782" y="573.970309" style="fill-opacity: 0; stroke: #595959; stroke-opacity: 0"/>
     <use xlink:href="#m2ea081c263" x="201.810297" y="574.181783" style="fill-opacity: 0; stroke: #595959; stroke-opacity: 0"/>
     <use xlink:href="#m2ea081c263" x="224.676356" y="578.28884" style="fill-opacity: 0; stroke: #595959; stroke-opacity: 0"/>
     <use xlink:href="#m2ea081c263" x="230.392871" y="580.626367" style="fill-opacity: 0; stroke: #595959; stroke-opacity: 0"/>
     <use xlink:href="#m2ea081c263" x="236.109386" y="570.001263" style="fill-opacity: 0; stroke: #595959; stroke-opacity: 0"/>
     <use xlink:href="#m2ea081c263" x="276.12499" y="572.067038" style="fill-opacity: 0; stroke: #595959; stroke-opacity: 0"/>
     <use xlink:href="#m2ea081c263" x="316.140594" y="574.393257" style="fill-opacity: 0; stroke: #595959; stroke-opacity: 0"/>
     <use xlink:href="#m2ea081c263" x="321.857109" y="621.763572" style="fill-opacity: 0; stroke: #595959; stroke-opacity: 0"/>
     <use xlink:href="#m2ea081c263" x="407.604832" y="572.278511" style="fill-opacity: 0; stroke: #595959; stroke-opacity: 0"/>
     <use xlink:href="#m2ea081c263" x="430.470891" y="645.660203" style="fill-opacity: 0; stroke: #595959; stroke-opacity: 0"/>
     <use xlink:href="#m2ea081c263" x="504.785584" y="646.929051" style="fill-opacity: 0; stroke: #595959; stroke-opacity: 0"/>
     <use xlink:href="#m2ea081c263" x="521.935129" y="602.514073" style="fill-opacity: 0; stroke: #595959; stroke-opacity: 0"/>
     <use xlink:href="#m2ea081c263" x="527.651644" y="596.139013" style="fill-opacity: 0; stroke: #595959; stroke-opacity: 0"/>
     <use xlink:href="#m2ea081c263" x="561.950733" y="644.814305" style="fill-opacity: 0; stroke: #595959; stroke-opacity: 0"/>
     <use xlink:href="#m2ea081c263" x="596.249822" y="646.506102" style="fill-opacity: 0; stroke: #595959; stroke-opacity: 0"/>
     <use xlink:href="#m2ea081c263" x="619.115881" y="645.237254" style="fill-opacity: 0; stroke: #595959; stroke-opacity: 0"/>
     <use xlink:href="#m2ea081c263" x="630.548911" y="644.814305" style="fill-opacity: 0; stroke: #595959; stroke-opacity: 0"/>
     <use xlink:href="#m2ea081c263" x="636.265426" y="642.911033" style="fill-opacity: 0; stroke: #595959; stroke-opacity: 0"/>
     <use xlink:href="#m2ea081c263" x="659.131485" y="646.929051" style="fill-opacity: 0; stroke: #595959; stroke-opacity: 0"/>
    </g>
   </g>
   <g id="PI-missed-2">
    <defs>
     <path id="m4c02f22181" d="M 0 4.005 
C 1.062138 4.005 2.080917 3.583008 2.831963 2.831963 
C 3.583008 2.080917 4.005 1.062138 4.005 0 
C 4.005 -1.062138 3.583008 -2.080917 2.831963 -2.831963 
C 2.080917 -3.583008 1.062138 -4.005 0 -4.005 
C -1.062138 -4.005 -2.080917 -3.583008 -2.831963 -2.831963 
C -3.583008 -2.080917 -4.005 -1.062138 -4.005 0 
C -4.005 1.062138 -3.583008 2.080917 -2.831963 2.831963 
C -2.080917 3.583008 -1.062138 4.005 0 4.005 
z
" style="stroke: #595959; stroke-opacity: 0"/>
    </defs>
    <g>
     <use xlink:href="#m4c02f22181" x="116.062574" y="618.802928" style="fill-opacity: 0; stroke: #595959; stroke-opacity: 0"/>
     <use xlink:href="#m4c02f22181" x="121.779089" y="598.289889" style="fill-opacity: 0; stroke: #595959; stroke-opacity: 0"/>
     <use xlink:href="#m4c02f22181" x="150.361663" y="573.88614" style="fill-opacity: 0; stroke: #595959; stroke-opacity: 0"/>
     <use xlink:href="#m4c02f22181" x="156.078178" y="602.709028" style="fill-opacity: 0; stroke: #595959; stroke-opacity: 0"/>
     <use xlink:href="#m4c02f22181" x="167.511208" y="594.060399" style="fill-opacity: 0; stroke: #595959; stroke-opacity: 0"/>
     <use xlink:href="#m4c02f22181" x="184.660752" y="573.12441" style="fill-opacity: 0; stroke: #595959; stroke-opacity: 0"/>
     <use xlink:href="#m4c02f22181" x="196.093782" y="573.970309" style="fill-opacity: 0; stroke: #595959; stroke-opacity: 0"/>
     <use xlink:href="#m4c02f22181" x="201.810297" y="574.181783" style="fill-opacity: 0; stroke: #595959; stroke-opacity: 0"/>
     <use xlink:href="#m4c02f22181" x="218.959842" y="616.82586" style="fill-opacity: 0; stroke: #595959; stroke-opacity: 0"/>
     <use xlink:href="#m4c02f22181" x="224.676356" y="578.28884" style="fill-opacity: 0; stroke: #595959; stroke-opacity: 0"/>
     <use xlink:href="#m4c02f22181" x="230.392871" y="580.626367" style="fill-opacity: 0; stroke: #595959; stroke-opacity: 0"/>
     <use xlink:href="#m4c02f22181" x="236.109386" y="570.001263" style="fill-opacity: 0; stroke: #595959; stroke-opacity: 0"/>
     <use xlink:href="#m4c02f22181" x="276.12499" y="572.067038" style="fill-opacity: 0; stroke: #595959; stroke-opacity: 0"/>
     <use xlink:href="#m4c02f22181" x="287.55802" y="596.175144" style="fill-opacity: 0; stroke: #595959; stroke-opacity: 0"/>
     <use xlink:href="#m4c02f22181" x="304.707564" y="593.84892" style="fill-opacity: 0; stroke: #595959; stroke-opacity: 0"/>
     <use xlink:href="#m4c02f22181" x="316.140594" y="574.393257" style="fill-opacity: 0; stroke: #595959; stroke-opacity: 0"/>
     <use xlink:href="#m4c02f22181" x="321.857109" y="621.763572" style="fill-opacity: 0; stroke: #595959; stroke-opacity: 0"/>
     <use xlink:href="#m4c02f22181" x="327.573624" y="610.132468" style="fill-opacity: 0; stroke: #595959; stroke-opacity: 0"/>
     <use xlink:href="#m4c02f22181" x="407.604832" y="572.278511" style="fill-opacity: 0; stroke: #595959; stroke-opacity: 0"/>
     <use xlink:href="#m4c02f22181" x="419.037861" y="607.806247" style="fill-opacity: 0; stroke: #595959; stroke-opacity: 0"/>
     <use xlink:href="#m4c02f22181" x="430.470891" y="645.660203" style="fill-opacity: 0; stroke: #595959; stroke-opacity: 0"/>
     <use xlink:href="#m4c02f22181" x="470.486495" y="639.738914" style="fill-opacity: 0; stroke: #595959; stroke-opacity: 0"/>
     <use xlink:href="#m4c02f22181" x="481.919525" y="644.391355" style="fill-opacity: 0; stroke: #595959; stroke-opacity: 0"/>
     <use xlink:href="#m4c02f22181" x="487.63604" y="645.871678" style="fill-opacity: 0; stroke: #595959; stroke-opacity: 0"/>
     <use xlink:href="#m4c02f22181" x="504.785584" y="646.929051" style="fill-opacity: 0; stroke: #595959; stroke-opacity: 0"/>
     <use xlink:href="#m4c02f22181" x="516.218614" y="622.781347" style="fill-opacity: 0; stroke: #595959; stroke-opacity: 0"/>
     <use xlink:href="#m4c02f22181" x="521.935129" y="602.514073" style="fill-opacity: 0; stroke: #595959; stroke-opacity: 0"/>
     <use xlink:href="#m4c02f22181" x="527.651644" y="596.139013" style="fill-opacity: 0; stroke: #595959; stroke-opacity: 0"/>
     <use xlink:href="#m4c02f22181" x="561.950733" y="644.814305" style="fill-opacity: 0; stroke: #595959; stroke-opacity: 0"/>
     <use xlink:href="#m4c02f22181" x="573.383762" y="644.179881" style="fill-opacity: 0; stroke: #595959; stroke-opacity: 0"/>
     <use xlink:href="#m4c02f22181" x="584.816792" y="639.315964" style="fill-opacity: 0; stroke: #595959; stroke-opacity: 0"/>
     <use xlink:href="#m4c02f22181" x="596.249822" y="646.506102" style="fill-opacity: 0; stroke: #595959; stroke-opacity: 0"/>
     <use xlink:href="#m4c02f22181" x="613.399366" y="642.065135" style="fill-opacity: 0; stroke: #595959; stroke-opacity: 0"/>
     <use xlink:href="#m4c02f22181" x="619.115881" y="645.237254" style="fill-opacity: 0; stroke: #595959; stroke-opacity: 0"/>
     <use xlink:href="#m4c02f22181" x="630.548911" y="644.814305" style="fill-opacity: 0; stroke: #595959; stroke-opacity: 0"/>
     <use xlink:href="#m4c02f22181" x="636.265426" y="642.911033" style="fill-opacity: 0; stroke: #595959; stroke-opacity: 0"/>
     <use xlink:href="#m4c02f22181" x="647.698455" y="643.756931" style="fill-opacity: 0; stroke: #595959; stroke-opacity: 0"/>
     <use xlink:href="#m4c02f22181" x="659.131485" y="646.929051" style="fill-opacity: 0; stroke: #595959; stroke-opacity: 0"/>
    </g>
   </g>
   <g id="text_17">
    <text style="font-weight: 800; font-size: 20px; font-family: 'Source Sans 3', sans-serif; text-anchor: start" x="87.48" y="378.912" transform="rotate(-0 87.48 378.912)">Streamflow percentile</text>
   </g>
   <g id="legend-pi">
    <g id="patch_11">
     <path d="M 98.68 420.817 
L 423.7 420.817 
Q 426.9 420.817 426.9 417.617 
L 426.9 396.112 
Q 426.9 392.912 423.7 392.912 
L 98.68 392.912 
Q 95.48 392.912 95.48 396.112 
L 95.48 417.617 
Q 95.48 420.817 98.68 420.817 
L 98.68 420.817 
z
" style="fill: none; opacity: 0.8"/>
    </g>
    <g id="line2d_21">
     <path d="M 101.88 405.2645 
L 117.88 405.2645 
L 133.88 405.2645 
" style="fill: none; stroke-dasharray: 1,1.65; stroke-dashoffset: 0; stroke: #883e3a"/>
    </g>
    <g id="text_18">
     <text style="font-weight: 300; font-size: 16px; font-family: 'Source Sans 3', sans-serif; text-anchor: start; fill: #595959" x="146.68" y="410.8645" transform="rotate(-0 146.68 410.8645)">Observations</text>
    </g>
    <g id="line2d_22">
     <g>
      <use xlink:href="#mbb84cc44f8" x="278.8375" y="405.2645" style="fill-opacity: 0; stroke: #595959"/>
     </g>
    </g>
    <g id="text_19">
     <text style="font-weight: 300; font-size: 16px; font-family: 'Source Sans 3', sans-serif; text-anchor: start; fill: #595959" x="307.6375" y="410.8645" transform="rotate(-0 307.6375 410.8645)">Missed Prediction</text>
    </g>
   </g>
   <g id="legend-pi">
    <g id="patch_12">
     <path d="M 98.68 420.817 
L 423.7 420.817 
Q 426.9 420.817 426.9 417.617 
L 426.9 396.112 
Q 426.9 392.912 423.7 392.912 
L 98.68 392.912 
Q 95.48 392.912 95.48 396.112 
L 95.48 417.617 
Q 95.48 420.817 98.68 420.817 
L 98.68 420.817 
z
" style="fill: none; opacity: 0.8"/>
    </g>
    <g id="line2d_23">
     <path d="M 101.88 405.2645 
L 117.88 405.2645 
L 133.88 405.2645 
" style="fill: none; stroke-dasharray: 1,1.65; stroke-dashoffset: 0; stroke: #883e3a"/>
    </g>
    <g id="text_20">
     <text style="font-weight: 300; font-size: 16px; font-family: 'Source Sans 3', sans-serif; text-anchor: start; fill: #595959" x="146.68" y="410.8645" transform="rotate(-0 146.68 410.8645)">Observations</text>
    </g>
    <g id="line2d_24">
     <g>
      <use xlink:href="#mbb84cc44f8" x="278.8375" y="405.2645" style="fill-opacity: 0; stroke: #595959"/>
     </g>
    </g>
    <g id="text_21">
     <text style="font-weight: 300; font-size: 16px; font-family: 'Source Sans 3', sans-serif; text-anchor: start; fill: #595959" x="307.6375" y="410.8645" transform="rotate(-0 307.6375 410.8645)">Missed Prediction</text>
    </g>
   </g>
  </g>
 </g>
 <defs>
  <clipPath id="p4ae05da84a">
   <rect x="87.48" y="34.992" width="577.368" height="262.44"/>
  </clipPath>
  <clipPath id="pb5d2635b38">
   <rect x="87.48" y="384.912" width="577.368" height="262.44"/>
  </clipPath>
 </defs>
</svg>
