<?xml version="1.0" encoding="utf-8" standalone="no"?>
<!DOCTYPE svg PUBLIC "-//W3C//DTD SVG 1.1//EN"
  "http://www.w3.org/Graphics/SVG/1.1/DTD/svg11.dtd">
<svg xmlns:xlink="http://www.w3.org/1999/xlink" width="1199.52px" height="399.6px" viewBox="0 0 1199.52 399.6" xmlns="http://www.w3.org/2000/svg" version="1.1">
  <defs>
  <style type="text/css">*{stroke-linejoin: round; stroke-linecap: butt}</style>
 </defs>
 <g id="figure-predictioninterval">
  <g id="patch_1">
   <path d="M 0 399.6 
L 1199.52 399.6 
L 1199.52 0 
L 0 0 
z
" style="fill: #ffffff"/>
  </g>
  <g id="axis-predictioninterval1">
   <g id="patch_2">
    <path d="M 74.97 339.66 
L 404.838 339.66 
L 404.838 39.96 
L 74.97 39.96 
z
" style="fill: #ffffff"/>
   </g>
   <g id="LF-LOWER-MEDIAN">
    <path d="M 74.97 189.81 
L 239.904 339.66 
L 404.838 189.81 
" clip-path="url(#p9eda052676)" style="fill: none; stroke: #00264c; stroke-opacity: 0; stroke-linecap: square"/>
   </g>
   <g id="matplotlib.axis_1">
    <g id="xtick_1">
     <g id="line2d_1">
      <defs>
       <path id="m0a32182ce8" d="M 0 0 
L 0 3.5 
" style="stroke: #949494; stroke-width: 0.8"/>
      </defs>
      <g>
       <use xlink:href="#m0a32182ce8" x="74.97" y="339.66" style="fill: #949494; stroke: #949494; stroke-width: 0.8"/>
      </g>
     </g>
     <g id="text_1">
      <text style="font-weight: 300; font-size: 16px; font-family: 'Source Sans 3', sans-serif; text-anchor: middle; fill: #6e6e6e" x="74.97" y="358.2125" transform="rotate(-0 74.97 358.2125)">Lower</text>
     </g>
    </g>
    <g id="xtick_2">
     <g id="line2d_2">
      <g>
       <use xlink:href="#m0a32182ce8" x="239.904" y="339.66" style="fill: #949494; stroke: #949494; stroke-width: 0.8"/>
      </g>
     </g>
     <g id="text_2">
      <text style="font-weight: 300; font-size: 16px; font-family: 'Source Sans 3', sans-serif; text-anchor: middle; fill: #6e6e6e" x="239.904" y="358.2125" transform="rotate(-0 239.904 358.2125)">Median</text>
     </g>
    </g>
    <g id="xtick_3">
     <g id="line2d_3">
      <g>
       <use xlink:href="#m0a32182ce8" x="404.838" y="339.66" style="fill: #949494; stroke: #949494; stroke-width: 0.8"/>
      </g>
     </g>
     <g id="text_3">
      <text style="font-weight: 300; font-size: 16px; font-family: 'Source Sans 3', sans-serif; text-anchor: middle; fill: #6e6e6e" x="404.838" y="358.2125" transform="rotate(-0 404.838 358.2125)">Upper</text>
     </g>
    </g>
    <g id="text_4">
     <text style="font-weight: 600; font-size: 16px; font-family: 'Source Sans 3', sans-serif; text-anchor: middle; fill: #595959" x="239.904" y="377.3175" transform="rotate(-0 239.904 377.3175)">Estimate</text>
    </g>
   </g>
   <g id="matplotlib.axis_2">
    <g id="ytick_1">
     <g id="line2d_4">
      <defs>
       <path id="m0bf0c0a132" d="M 0 0 
L -3.5 0 
" style="stroke: #949494; stroke-width: 0.8"/>
      </defs>
      <g>
       <use xlink:href="#m0bf0c0a132" x="74.97" y="339.66" style="fill: #949494; stroke: #949494; stroke-width: 0.8"/>
      </g>
     </g>
     <g id="text_5">
      <text style="font-weight: 300; font-size: 16px; font-family: 'Source Sans 3', sans-serif; fill: #6e6e6e" transform="translate(40.1625 329.176)">Less</text>
      <text style="font-weight: 300; font-size: 16px; font-family: 'Source Sans 3', sans-serif; fill: #6e6e6e" transform="translate(20.1625 346.5915)">Penalty</text>
      <text style="font-weight: 300; font-size: 16px; font-family: 'Source Sans 3', sans-serif; fill: #6e6e6e" transform="translate(67.97 364.007)"/>
     </g>
    </g>
    <g id="ytick_2">
     <g id="line2d_5">
      <g>
       <use xlink:href="#m0bf0c0a132" x="74.97" y="189.81" style="fill: #949494; stroke: #949494; stroke-width: 0.8"/>
      </g>
     </g>
    </g>
    <g id="ytick_3">
     <g id="line2d_6">
      <g>
       <use xlink:href="#m0bf0c0a132" x="74.97" y="39.96" style="fill: #949494; stroke: #949494; stroke-width: 0.8"/>
      </g>
     </g>
     <g id="text_6">
      <text style="font-weight: 300; font-size: 16px; font-family: 'Source Sans 3', sans-serif; fill: #6e6e6e" transform="translate(35.7475 38.18375)">More</text>
      <text style="font-weight: 300; font-size: 16px; font-family: 'Source Sans 3', sans-serif; fill: #6e6e6e" transform="translate(20.1625 55.59925)">Penalty</text>
     </g>
    </g>
   </g>
   <g id="LF-LOWER-0">
    <path d="M 74.97 324.675 
L 239.904 339.66 
L 404.838 54.945 
" clip-path="url(#p9eda052676)" style="fill: none; stroke: #b78935; stroke-opacity: 0; stroke-linecap: square"/>
   </g>
   <g id="LF-UPPER-0">
    <path d="M 74.97 54.945 
L 239.904 339.66 
L 404.838 324.675 
" clip-path="url(#p9eda052676)" style="fill: none; stroke: #406992; stroke-opacity: 0; stroke-linecap: square"/>
   </g>
   <g id="LF-LOWER-1">
    <path d="M 74.97 302.1975 
L 239.904 339.66 
L 404.838 77.4225 
" clip-path="url(#p9eda052676)" style="fill: none; stroke: #b78935; stroke-opacity: 0; stroke-linecap: square"/>
   </g>
   <g id="LF-UPPER-1">
    <path d="M 74.97 77.4225 
L 239.904 339.66 
L 404.838 302.1975 
" clip-path="url(#p9eda052676)" style="fill: none; stroke: #406992; stroke-opacity: 0; stroke-linecap: square"/>
   </g>
   <g id="LF-LOWER-2">
    <path d="M 74.97 264.735 
L 239.904 339.66 
L 404.838 114.885 
" clip-path="url(#p9eda052676)" style="fill: none; stroke: #b78935; stroke-opacity: 0; stroke-linecap: square"/>
   </g>
   <g id="LF-UPPER-2">
    <path d="M 74.97 114.885 
L 239.904 339.66 
L 404.838 264.735 
" clip-path="url(#p9eda052676)" style="fill: none; stroke: #406992; stroke-opacity: 0; stroke-linecap: square"/>
   </g>
   <g id="patch_3">
    <path d="M 74.97 339.66 
L 74.97 39.96 
" style="fill: none; stroke: #949494; stroke-width: 0.8; stroke-linejoin: miter; stroke-linecap: square"/>
   </g>
   <g id="patch_4">
    <path d="M 74.97 339.66 
L 404.838 339.66 
" style="fill: none; stroke: #949494; stroke-width: 0.8; stroke-linejoin: miter; stroke-linecap: square"/>
   </g>
   <g id="text_7">
    <text style="font-weight: 800; font-size: 20px; font-family: 'Source Sans 3', sans-serif; text-anchor: start" x="74.97" y="33.96" transform="rotate(-0 74.97 33.96)">Loss function</text>
   </g>
  </g>
  <g id="axis-predictioninterval2">
   <g id="patch_5">
    <path d="M 474.81 339.66 
L 1134.546 339.66 
L 1134.546 39.96 
L 474.81 39.96 
z
" style="fill: #ffffff"/>
   </g>
   <g id="PI-PATCH-0">
    <path d="M 474.81 251.23374 
L 474.81 309.922649 
L 481.34204 319.007971 
L 487.874079 329.450914 
L 494.406119 323.708883 
L 500.938158 327.846844 
L 507.470198 330.823786 
L 514.002238 331.707381 
L 520.534277 309.528334 
L 527.066317 319.557524 
L 533.598356 310.204309 
L 540.130396 313.32776 
L 546.662436 309.042735 
L 553.194475 303.052313 
L 559.726515 314.030536 
L 566.258554 315.033174 
L 572.790594 313.014008 
L 579.322634 313.719934 
L 585.854673 310.291171 
L 592.386713 307.671803 
L 598.918752 306.651882 
L 605.450792 301.172174 
L 611.982832 303.681592 
L 618.514871 306.194514 
L 625.046911 311.964548 
L 631.57895 323.056996 
L 638.11099 309.842391 
L 644.64303 314.630361 
L 651.175069 313.638974 
L 657.707109 319.312629 
L 664.239149 309.648357 
L 670.771188 319.768573 
L 677.303228 316.042596 
L 683.835267 300.850037 
L 690.367307 311.990009 
L 696.899347 310.406821 
L 703.431386 290.474949 
L 709.963426 317.929368 
L 716.495465 317.789791 
L 723.027505 315.534564 
L 729.559545 312.074845 
L 736.091584 311.821686 
L 742.623624 305.57595 
L 749.155663 331.559628 
L 755.687703 319.259811 
L 762.219743 309.652824 
L 768.751782 320.192225 
L 775.283822 311.924688 
L 781.815861 317.511857 
L 788.347901 321.364875 
L 794.879941 330.073828 
L 801.41198 327.198668 
L 807.94402 321.977025 
L 814.476059 312.677539 
L 821.008099 308.410644 
L 827.540139 308.855665 
L 834.072178 311.358658 
L 840.604218 307.785118 
L 847.136257 304.350419 
L 853.668297 307.94685 
L 860.200337 314.383756 
L 866.732376 318.880354 
L 873.264416 339.66 
L 879.796455 339.66 
L 886.328495 339.66 
L 892.860535 339.66 
L 899.392574 339.66 
L 905.924614 335.115192 
L 912.456653 339.66 
L 918.988693 339.66 
L 925.520733 339.66 
L 932.052772 339.66 
L 938.584812 339.66 
L 945.116851 339.66 
L 951.648891 339.66 
L 958.180931 339.66 
L 964.71297 339.66 
L 971.24501 339.66 
L 977.77705 327.436292 
L 984.309089 321.427152 
L 990.841129 325.083055 
L 997.373168 332.391618 
L 1003.905208 338.071936 
L 1010.437248 337.756205 
L 1016.969287 339.66 
L 1023.501327 339.66 
L 1030.033366 339.66 
L 1036.565406 339.66 
L 1043.097446 339.66 
L 1049.629485 339.66 
L 1056.161525 339.66 
L 1062.693564 339.66 
L 1069.225604 339.66 
L 1075.757644 339.66 
L 1082.289683 339.66 
L 1088.821723 339.66 
L 1095.353762 339.66 
L 1101.885802 339.66 
L 1108.417842 339.66 
L 1114.949881 339.66 
L 1121.481921 339.66 
L 1128.01396 339.66 
L 1134.546 339.66 
L 1141.07804 339.66 
L 1147.610079 339.66 
L 6614.927228 332.412102 
L 6621.459267 334.756329 
L 6627.991307 331.558944 
L 6634.523347 328.441405 
L 6641.055386 315.608513 
L 6647.587426 323.611438 
L 6654.119465 318.080909 
L 6660.651505 331.304487 
L 6667.183545 315.430281 
L 6673.715584 308.133688 
L 6680.247624 315.771884 
L 6686.779663 315.153937 
L 6693.311703 308.273426 
L 6699.843743 313.398096 
L 6706.375782 304.024749 
L 6712.907822 306.720787 
L 6719.439861 300.948832 
L 6725.971901 307.795264 
L 6732.503941 304.350956 
L 6739.03598 311.099857 
L 6745.56802 313.009226 
L 6752.100059 302.656629 
L 6758.632099 303.589053 
L 6765.164139 297.696461 
L 6771.696178 296.562585 
L 6778.228218 295.470564 
L 6784.760257 297.49398 
L 6791.292297 304.663791 
L 6797.824337 294.488117 
L 6804.356376 302.165026 
L 6810.888416 299.727348 
L 6817.420455 300.293067 
L 6823.952495 307.601575 
L 6830.484535 304.453656 
L 6837.016574 289.014954 
L 6843.548614 287.190549 
L 6850.080653 286.845741 
L 6856.612693 299.521866 
L 6863.144733 305.324741 
L 6869.676772 311.979013 
L 6876.208812 313.543991 
L 6882.740851 317.44219 
L 6889.272891 322.64447 
L 6895.804931 321.033873 
L 6902.33697 323.536205 
L 6908.86901 327.04652 
L 6915.40105 312.604662 
L 6921.933089 315.731803 
L 6928.465129 323.110862 
L 6934.997168 328.490509 
L 6941.529208 328.442826 
L 6948.061248 329.476514 
L 6954.593287 334.956827 
L 6961.125327 334.155011 
L 6967.657366 335.516541 
L 6974.189406 337.172324 
L 6980.721446 329.053042 
L 6987.253485 325.470088 
L 6993.785525 317.128126 
L 7000.317564 328.018698 
L 7006.849604 306.789351 
L 7013.381644 316.190543 
L 7019.913683 314.981875 
L 7026.445723 310.818811 
L 7032.977762 317.925934 
L 7039.509802 288.708068 
L 7046.041842 293.14136 
L 7052.573881 300.8098 
L 7059.105921 291.0202 
L 7065.63796 310.398204 
L 7072.17 299.32547 
L 7078.70204 296.40693 
L 7085.234079 297.966403 
L 7091.766119 294.845776 
L 7098.298158 293.821508 
L 7104.830198 301.839672 
L 7111.362238 306.823269 
L 7111.362238 242.945985 
L 7111.362238 242.945985 
L 7104.830198 233.906168 
L 7098.298158 234.482968 
L 7091.766119 238.102098 
L 7085.234079 241.521089 
L 7078.70204 237.636264 
L 7072.17 244.881338 
L 7065.63796 256.287062 
L 7059.105921 239.616501 
L 7052.573881 248.60442 
L 7046.041842 239.042296 
L 7039.509802 229.724368 
L 7032.977762 245.489721 
L 7026.445723 252.24577 
L 7019.913683 246.250478 
L 7013.381644 241.520117 
L 7006.849604 242.014202 
L 7000.317564 250.379276 
L 6993.785525 242.632674 
L 6987.253485 245.938332 
L 6980.721446 242.129969 
L 6974.189406 247.450769 
L 6967.657366 251.157176 
L 6961.125327 249.74872 
L 6954.593287 253.22668 
L 6948.061248 248.895227 
L 6941.529208 249.135106 
L 6934.997168 249.002362 
L 6928.465129 248.792127 
L 6921.933089 249.715713 
L 6915.40105 253.670249 
L 6908.86901 251.504214 
L 6902.33697 248.839155 
L 6895.804931 240.05723 
L 6889.272891 245.386038 
L 6882.740851 242.227226 
L 6876.208812 241.993795 
L 6869.676772 241.067864 
L 6863.144733 238.449982 
L 6856.612693 236.532293 
L 6850.080653 227.358954 
L 6843.548614 232.006954 
L 6837.016574 236.789539 
L 6830.484535 246.835984 
L 6823.952495 246.743682 
L 6817.420455 238.861569 
L 6810.888416 231.584403 
L 6804.356376 230.06417 
L 6797.824337 227.765339 
L 6791.292297 243.055362 
L 6784.760257 240.715362 
L 6778.228218 242.202155 
L 6771.696178 243.892077 
L 6765.164139 244.849407 
L 6758.632099 248.736833 
L 6752.100059 247.545185 
L 6745.56802 258.044683 
L 6739.03598 257.591464 
L 6732.503941 250.796013 
L 6725.971901 254.15293 
L 6719.439861 243.86313 
L 6712.907822 250.338295 
L 6706.375782 250.534097 
L 6699.843743 259.871214 
L 6693.311703 257.127116 
L 6686.779663 262.890359 
L 6680.247624 262.922674 
L 6673.715584 257.065071 
L 6667.183545 262.046756 
L 6660.651505 273.593679 
L 6654.119465 266.404361 
L 6647.587426 272.95612 
L 6641.055386 258.348706 
L 6634.523347 273.877757 
L 6627.991307 278.198835 
L 6621.459267 280.401191 
L 6614.927228 269.36744 
L 1147.610079 295.279265 
L 1141.07804 288.288472 
L 1134.546 285.455719 
L 1128.01396 291.401136 
L 1121.481921 294.521223 
L 1114.949881 284.095194 
L 1108.417842 294.92236 
L 1101.885802 276.270559 
L 1095.353762 281.943136 
L 1088.821723 286.612486 
L 1082.289683 285.268881 
L 1075.757644 283.119721 
L 1069.225604 285.152554 
L 1062.693564 292.146836 
L 1056.161525 296.181246 
L 1049.629485 295.21459 
L 1043.097446 277.503484 
L 1036.565406 292.108223 
L 1030.033366 281.868875 
L 1023.501327 295.344342 
L 1016.969287 287.526875 
L 1010.437248 276.141473 
L 1003.905208 275.308816 
L 997.373168 253.668197 
L 990.841129 245.413305 
L 984.309089 266.297689 
L 977.77705 271.560708 
L 971.24501 284.575034 
L 964.71297 291.635185 
L 958.180931 292.742209 
L 951.648891 294.887268 
L 945.116851 292.180357 
L 938.584812 296.034388 
L 932.052772 296.89529 
L 925.520733 293.576872 
L 918.988693 290.726753 
L 912.456653 287.674362 
L 905.924614 285.17383 
L 899.392574 290.126928 
L 892.860535 292.118361 
L 886.328495 291.013467 
L 879.796455 287.948008 
L 873.264416 288.498839 
L 866.732376 264.617181 
L 860.200337 262.288351 
L 853.668297 256.527799 
L 847.136257 251.418321 
L 840.604218 248.279596 
L 834.072178 246.738452 
L 827.540139 250.301865 
L 821.008099 250.126774 
L 814.476059 249.409296 
L 807.94402 251.467538 
L 801.41198 249.600712 
L 794.879941 250.342674 
L 788.347901 247.331795 
L 781.815861 248.659697 
L 775.283822 253.103944 
L 768.751782 261.123221 
L 762.219743 246.160057 
L 755.687703 262.768139 
L 749.155663 274.379393 
L 742.623624 253.278252 
L 736.091584 256.870499 
L 729.559545 260.332162 
L 723.027505 260.518485 
L 716.495465 266.144891 
L 709.963426 266.384211 
L 703.431386 238.875528 
L 696.899347 252.345691 
L 690.367307 246.210812 
L 683.835267 236.277196 
L 677.303228 246.587055 
L 670.771188 248.331946 
L 664.239149 246.037602 
L 657.707109 259.835396 
L 651.175069 255.021714 
L 644.64303 255.453565 
L 638.11099 253.435863 
L 631.57895 269.05841 
L 625.046911 261.445764 
L 618.514871 256.000343 
L 611.982832 254.137667 
L 605.450792 249.671806 
L 598.918752 250.394807 
L 592.386713 253.065885 
L 585.854673 250.995181 
L 579.322634 260.910242 
L 572.790594 262.230404 
L 566.258554 263.24037 
L 559.726515 261.695391 
L 553.194475 250.275479 
L 546.662436 253.515297 
L 540.130396 256.489391 
L 533.598356 250.416415 
L 527.066317 249.33851 
L 520.534277 253.789274 
L 514.002238 270.39599 
L 507.470198 248.207061 
L 500.938158 249.510795 
L 494.406119 244.01926 
L 487.874079 252.527024 
L 481.34204 245.922624 
L 474.81 251.23374 
z
" clip-path="url(#p2f7be6dec7)" style="fill: #e6e6e6; fill-opacity: 0.00001"/>
   </g>
   <g id="PI-PATCH-LOWER-0">
    <path d="M 474.81 309.922649 
L 481.34204 319.007971 
L 487.874079 329.450914 
L 494.406119 323.708883 
L 500.938158 327.846844 
L 507.470198 330.823786 
L 514.002238 331.707381 
L 520.534277 309.528334 
L 527.066317 319.557524 
L 533.598356 310.204309 
L 540.130396 313.32776 
L 546.662436 309.042735 
L 553.194475 303.052313 
L 559.726515 314.030536 
L 566.258554 315.033174 
L 572.790594 313.014008 
L 579.322634 313.719934 
L 585.854673 310.291171 
L 592.386713 307.671803 
L 598.918752 306.651882 
L 605.450792 301.172174 
L 618.514871 306.194514 
L 625.046911 311.964548 
L 631.57895 323.056996 
L 638.11099 309.842391 
L 644.64303 314.630361 
L 651.175069 313.638974 
L 657.707109 319.312629 
L 664.239149 309.648357 
L 670.771188 319.768573 
L 677.303228 316.042596 
L 683.835267 300.850037 
L 690.367307 311.990009 
L 696.899347 310.406821 
L 703.431386 290.474949 
L 709.963426 317.929368 
L 716.495465 317.789791 
L 723.027505 315.534564 
L 729.559545 312.074845 
L 736.091584 311.821686 
L 742.623624 305.57595 
L 749.155663 331.559628 
L 755.687703 319.259811 
L 762.219743 309.652824 
L 768.751782 320.192225 
L 775.283822 311.924688 
L 781.815861 317.511857 
L 788.347901 321.364875 
L 794.879941 330.073828 
L 801.41198 327.198668 
L 807.94402 321.977025 
L 814.476059 312.677539 
L 821.008099 308.410644 
L 827.540139 308.855665 
L 834.072178 311.358658 
L 840.604218 307.785118 
L 847.136257 304.350419 
L 853.668297 307.94685 
L 860.200337 314.383756 
L 866.732376 318.880354 
L 873.264416 339.66 
L 899.392574 339.66 
L 905.924614 335.115192 
L 912.456653 339.66 
L 971.24501 339.66 
L 977.77705 327.436292 
L 984.309089 321.427152 
L 990.841129 325.083055 
L 997.373168 332.391618 
L 1003.905208 338.071936 
L 1010.437248 337.756205 
L 1016.969287 339.66 
L 1200.52 339.589859 
L 1200.52 339.589859 
" clip-path="url(#p2f7be6dec7)" style="fill: none; stroke: #b78935; stroke-opacity: 0; stroke-linecap: square"/>
   </g>
   <g id="PI-PATCH-UPPER-0">
    <path d="M 474.81 251.23374 
L 481.34204 245.922624 
L 487.874079 252.527024 
L 494.406119 244.01926 
L 500.938158 249.510795 
L 507.470198 248.207061 
L 514.002238 270.39599 
L 520.534277 253.789274 
L 527.066317 249.33851 
L 533.598356 250.416415 
L 540.130396 256.489391 
L 546.662436 253.515297 
L 553.194475 250.275479 
L 559.726515 261.695391 
L 566.258554 263.24037 
L 572.790594 262.230404 
L 579.322634 260.910242 
L 585.854673 250.995181 
L 592.386713 253.065885 
L 598.918752 250.394807 
L 605.450792 249.671806 
L 611.982832 254.137667 
L 618.514871 256.000343 
L 625.046911 261.445764 
L 631.57895 269.05841 
L 638.11099 253.435863 
L 644.64303 255.453565 
L 651.175069 255.021714 
L 657.707109 259.835396 
L 664.239149 246.037602 
L 670.771188 248.331946 
L 677.303228 246.587055 
L 683.835267 236.277196 
L 690.367307 246.210812 
L 696.899347 252.345691 
L 703.431386 238.875528 
L 709.963426 266.384211 
L 716.495465 266.144891 
L 723.027505 260.518485 
L 729.559545 260.332162 
L 736.091584 256.870499 
L 742.623624 253.278252 
L 749.155663 274.379393 
L 755.687703 262.768139 
L 762.219743 246.160057 
L 768.751782 261.123221 
L 775.283822 253.103944 
L 781.815861 248.659697 
L 788.347901 247.331795 
L 794.879941 250.342674 
L 801.41198 249.600712 
L 807.94402 251.467538 
L 814.476059 249.409296 
L 821.008099 250.126774 
L 827.540139 250.301865 
L 834.072178 246.738452 
L 840.604218 248.279596 
L 847.136257 251.418321 
L 853.668297 256.527799 
L 860.200337 262.288351 
L 866.732376 264.617181 
L 873.264416 288.498839 
L 879.796455 287.948008 
L 886.328495 291.013467 
L 892.860535 292.118361 
L 899.392574 290.126928 
L 905.924614 285.17383 
L 912.456653 287.674362 
L 918.988693 290.726753 
L 925.520733 293.576872 
L 932.052772 296.89529 
L 938.584812 296.034388 
L 945.116851 292.180357 
L 951.648891 294.887268 
L 958.180931 292.742209 
L 964.71297 291.635185 
L 971.24501 284.575034 
L 977.77705 271.560708 
L 984.309089 266.297689 
L 990.841129 245.413305 
L 997.373168 253.668197 
L 1003.905208 275.308816 
L 1010.437248 276.141473 
L 1016.969287 287.526875 
L 1023.501327 295.344342 
L 1030.033366 281.868875 
L 1036.565406 292.108223 
L 1043.097446 277.503484 
L 1049.629485 295.21459 
L 1056.161525 296.181246 
L 1062.693564 292.146836 
L 1069.225604 285.152554 
L 1075.757644 283.119721 
L 1082.289683 285.268881 
L 1088.821723 286.612486 
L 1095.353762 281.943136 
L 1101.885802 276.270559 
L 1108.417842 294.92236 
L 1114.949881 284.095194 
L 1121.481921 294.521223 
L 1128.01396 291.401136 
L 1134.546 285.455719 
L 1141.07804 288.288472 
L 1147.610079 295.279265 
L 1200.52 295.028503 
L 1200.52 295.028503 
" clip-path="url(#p2f7be6dec7)" style="fill: none; stroke: #406992; stroke-opacity: 0; stroke-linecap: square"/>
   </g>
   <g id="PI-PATCH-1">
    <path d="M 474.81 261.8611 
L 474.81 300.950532 
L 481.34204 306.339079 
L 487.874079 315.831706 
L 494.406119 309.462467 
L 500.938158 313.643003 
L 507.470198 315.96741 
L 514.002238 323.733539 
L 520.534277 301.626708 
L 527.066317 307.659266 
L 533.598356 299.837036 
L 540.130396 303.560168 
L 546.662436 300.402829 
L 553.194475 294.08847 
L 559.726515 307.051683 
L 566.258554 308.542102 
L 572.790594 305.679971 
L 579.322634 307.115623 
L 585.854673 300.281576 
L 592.386713 298.654279 
L 598.918752 296.845015 
L 605.450792 292.690469 
L 611.982832 295.732381 
L 618.514871 299.326392 
L 625.046911 305.135605 
L 631.57895 317.503219 
L 638.11099 301.650543 
L 644.64303 305.703752 
L 651.175069 304.361467 
L 657.707109 311.682103 
L 664.239149 299.893901 
L 670.771188 308.119561 
L 677.303228 304.51843 
L 683.835267 290.2841 
L 690.367307 300.694641 
L 696.899347 301.112081 
L 703.431386 281.26868 
L 709.963426 311.00849 
L 716.495465 310.899315 
L 723.027505 308.809793 
L 729.559545 305.408953 
L 736.091584 304.793585 
L 742.623624 296.49356 
L 749.155663 324.963916 
L 755.687703 311.762016 
L 762.219743 299.470782 
L 768.751782 311.491798 
L 775.283822 302.009383 
L 781.815861 304.741387 
L 788.347901 307.76283 
L 794.879941 315.778679 
L 801.41198 313.193232 
L 807.94402 309.148591 
L 814.476059 301.276999 
L 821.008099 298.930887 
L 827.540139 298.606119 
L 834.072178 299.631229 
L 840.604218 296.75803 
L 847.136257 294.925811 
L 853.668297 299.76924 
L 860.200337 307.297174 
L 866.732376 311.853078 
L 873.264416 335.599785 
L 879.796455 335.30153 
L 886.328495 335.796673 
L 892.860535 336.251925 
L 899.392574 335.7466 
L 905.924614 330.032253 
L 912.456653 334.751649 
L 918.988693 336.327077 
L 925.520733 337.157349 
L 932.052772 338.145906 
L 938.584812 338.426082 
L 945.116851 337.343781 
L 951.648891 338.680671 
L 958.180931 338.224223 
L 964.71297 338.595901 
L 971.24501 334.532052 
L 977.77705 320.44365 
L 984.309089 313.74789 
L 990.841129 312.022127 
L 997.373168 318.868056 
L 1003.905208 329.196174 
L 1010.437248 330.363355 
L 1016.969287 335.665633 
L 1023.501327 338.692794 
L 1030.033366 336.058168 
L 1036.565406 338.210487 
L 1043.097446 333.769695 
L 1049.629485 337.796163 
L 1056.161525 338.402599 
L 1062.693564 338.200307 
L 1069.225604 336.403349 
L 1075.757644 335.713835 
L 1082.289683 336.17824 
L 1088.821723 336.403184 
L 1095.353762 335.15366 
L 1101.885802 334.576658 
L 1108.417842 338.007206 
L 1114.949881 335.934221 
L 1121.481921 338.587932 
L 1128.01396 337.881827 
L 1134.546 336.45419 
L 1141.07804 336.849189 
L 1147.610079 338.254145 
L 6614.927228 326.509151 
L 6621.459267 329.401828 
L 6627.991307 326.293467 
L 6634.523347 322.573631 
L 6641.055386 307.755319 
L 6647.587426 317.526722 
L 6654.119465 311.594277 
L 6660.651505 325.429512 
L 6667.183545 308.05937 
L 6673.715584 300.42999 
L 6680.247624 309.327108 
L 6686.779663 308.080009 
L 6693.311703 301.119399 
L 6699.843743 307.021098 
L 6706.375782 295.426898 
L 6712.907822 297.203281 
L 6719.439861 290.928806 
L 6725.971901 299.289751 
L 6732.503941 296.38202 
L 6739.03598 303.654568 
L 6745.56802 307.056723 
L 6752.100059 295.066567 
L 6758.632099 295.030265 
L 6765.164139 289.419035 
L 6771.696178 288.583894 
L 6778.228218 286.77981 
L 6784.760257 287.521812 
L 6791.292297 294.095695 
L 6797.824337 283.214569 
L 6804.356376 290.159566 
L 6810.888416 288.205557 
L 6817.420455 289.966335 
L 6823.952495 297.778877 
L 6830.484535 295.588288 
L 6837.016574 280.568892 
L 6843.548614 278.136911 
L 6850.080653 277.721166 
L 6856.612693 288.457644 
L 6863.144733 293.978246 
L 6869.676772 300.159683 
L 6876.208812 301.577009 
L 6882.740851 305.29757 
L 6889.272891 310.636463 
L 6895.804931 308.177701 
L 6902.33697 309.382081 
L 6908.86901 312.905522 
L 6915.40105 300.904311 
L 6921.933089 303.596037 
L 6928.465129 309.311436 
L 6934.997168 313.816466 
L 6941.529208 313.80281 
L 6948.061248 314.503871 
L 6954.593287 319.860653 
L 6961.125327 318.55666 
L 6967.657366 319.78098 
L 6974.189406 320.529014 
L 6980.721446 313.508402 
L 6987.253485 310.282289 
L 6993.785525 302.829026 
L 7000.317564 313.477038 
L 7006.849604 294.879186 
L 7013.381644 302.419361 
L 7019.913683 302.421831 
L 7026.445723 302.471045 
L 7032.977762 305.439219 
L 7039.509802 278.813208 
L 7046.041842 284.412973 
L 7052.573881 293.309052 
L 7059.105921 282.110361 
L 7065.63796 303.512849 
L 7072.17 290.638427 
L 7078.70204 285.732084 
L 7085.234079 287.520093 
L 7091.766119 284.203266 
L 7098.298158 281.894817 
L 7104.830198 287.976308 
L 7111.362238 293.892083 
L 7111.362238 250.021908 
L 7111.362238 250.021908 
L 7104.830198 241.273891 
L 7098.298158 241.17766 
L 7091.766119 245.585852 
L 7085.234079 249.164431 
L 7078.70204 245.880768 
L 7072.17 254.223919 
L 7065.63796 268.0529 
L 7059.105921 247.433127 
L 7052.573881 258.73892 
L 7046.041842 248.188914 
L 7039.509802 239.160089 
L 7032.977762 256.602085 
L 7026.445723 263.712686 
L 7019.913683 255.784527 
L 7013.381644 251.699495 
L 7006.849604 250.895781 
L 7000.317564 260.647183 
L 6993.785525 251.99355 
L 6987.253485 256.042701 
L 6980.721446 254.669445 
L 6974.189406 259.545365 
L 6967.657366 262.405621 
L 6961.125327 261.210477 
L 6954.593287 264.33585 
L 6948.061248 259.722453 
L 6941.529208 259.927374 
L 6934.997168 259.81816 
L 6928.465129 258.791488 
L 6921.933089 258.771088 
L 6915.40105 260.525195 
L 6908.86901 261.50595 
L 6902.33697 258.485909 
L 6895.804931 254.044082 
L 6889.272891 259.096422 
L 6882.740851 254.930642 
L 6876.208812 253.490838 
L 6869.676772 252.520056 
L 6863.144733 248.966668 
L 6856.612693 245.903324 
L 6850.080653 238.087553 
L 6843.548614 241.123767 
L 6837.016574 245.591044 
L 6830.484535 257.188482 
L 6823.952495 257.027583 
L 6817.420455 248.658739 
L 6810.888416 242.357087 
L 6804.356376 241.725762 
L 6797.824337 238.325024 
L 6791.292297 252.580555 
L 6784.760257 249.163927 
L 6778.228218 251.071605 
L 6771.696178 253.533688 
L 6765.164139 254.137505 
L 6758.632099 258.423743 
L 6752.100059 258.709428 
L 6745.56802 271.47341 
L 6739.03598 268.323155 
L 6732.503941 260.803413 
L 6725.971901 263.433951 
L 6719.439861 252.366008 
L 6712.907822 259.274182 
L 6706.375782 259.623772 
L 6699.843743 272.125676 
L 6693.311703 267.332006 
L 6686.779663 273.653478 
L 6680.247624 274.811317 
L 6673.715584 266.459314 
L 6667.183545 272.834265 
L 6660.651505 288.225233 
L 6654.119465 277.76698 
L 6647.587426 284.482485 
L 6641.055386 269.994604 
L 6634.523347 287.267144 
L 6627.991307 291.963667 
L 6621.459267 294.435702 
L 6614.927228 286.081862 
L 1147.610079 310.945874 
L 1141.07804 304.74401 
L 1134.546 302.478202 
L 1128.01396 308.08286 
L 1121.481921 310.962977 
L 1114.949881 300.921487 
L 1108.417842 310.380703 
L 1101.885802 294.284831 
L 1095.353762 298.518561 
L 1088.821723 303.102291 
L 1082.289683 301.974268 
L 1075.757644 300.021567 
L 1069.225604 302.223558 
L 1062.693564 308.983592 
L 1056.161525 311.699509 
L 1049.629485 310.257269 
L 1043.097446 293.882415 
L 1036.565406 308.974785 
L 1030.033366 299.756934 
L 1023.501327 311.607295 
L 1016.969287 302.606562 
L 1010.437248 290.173387 
L 1003.905208 287.694149 
L 997.373168 265.811682 
L 990.841129 258.589638 
L 984.309089 277.342568 
L 977.77705 283.876497 
L 971.24501 299.221347 
L 964.71297 309.236713 
L 958.180931 309.375969 
L 951.648891 311.314911 
L 945.116851 307.788757 
L 938.584812 311.644403 
L 932.052772 311.765277 
L 925.520733 308.365082 
L 918.988693 305.471366 
L 912.456653 301.398836 
L 905.924614 297.837144 
L 899.392574 304.286805 
L 892.860535 306.202591 
L 886.328495 304.891585 
L 879.796455 302.343616 
L 873.264416 303.098334 
L 866.732376 276.242197 
L 860.200337 272.966596 
L 853.668297 265.389231 
L 847.136257 259.112937 
L 840.604218 256.316859 
L 834.072178 255.817591 
L 827.540139 259.063374 
L 821.008099 259.872844 
L 814.476059 258.414139 
L 807.94402 261.328437 
L 801.41198 260.612774 
L 794.879941 261.792651 
L 788.347901 257.497475 
L 781.815861 257.943305 
L 775.283822 262.445815 
L 768.751782 272.287238 
L 762.219743 256.982736 
L 755.687703 274.612514 
L 749.155663 287.777416 
L 742.623624 261.205865 
L 736.091584 268.768133 
L 729.559545 271.466812 
L 723.027505 272.872228 
L 716.495465 276.922048 
L 709.963426 277.07855 
L 703.431386 246.349542 
L 696.899347 262.265577 
L 690.367307 256.364056 
L 683.835267 246.985109 
L 677.303228 257.878704 
L 670.771188 260.234848 
L 664.239149 257.513781 
L 657.707109 272.67956 
L 651.175069 265.187353 
L 644.64303 266.339628 
L 638.11099 264.261813 
L 631.57895 282.668354 
L 625.046911 271.862081 
L 618.514871 266.231906 
L 611.982832 262.576904 
L 605.450792 258.134226 
L 598.918752 258.870315 
L 592.386713 262.004046 
L 585.854673 260.392417 
L 579.322634 272.556853 
L 572.790594 272.035608 
L 566.258554 274.642954 
L 559.726515 272.621857 
L 553.194475 258.561923 
L 546.662436 263.355835 
L 540.130396 265.251933 
L 533.598356 259.502019 
L 527.066317 260.403312 
L 520.534277 264.761305 
L 514.002238 283.483033 
L 507.470198 260.009199 
L 500.938158 260.535128 
L 494.406119 255.52184 
L 487.874079 263.818728 
L 481.34204 257.034879 
L 474.81 261.8611 
z
" clip-path="url(#p2f7be6dec7)" style="fill: #bfbfbf; fill-opacity: 0.00001"/>
   </g>
   <g id="PI-PATCH-LOWER-1">
    <path d="M 474.81 300.950532 
L 481.34204 306.339079 
L 487.874079 315.831706 
L 494.406119 309.462467 
L 500.938158 313.643003 
L 507.470198 315.96741 
L 514.002238 323.733539 
L 520.534277 301.626708 
L 527.066317 307.659266 
L 533.598356 299.837036 
L 540.130396 303.560168 
L 546.662436 300.402829 
L 553.194475 294.08847 
L 559.726515 307.051683 
L 566.258554 308.542102 
L 572.790594 305.679971 
L 579.322634 307.115623 
L 585.854673 300.281576 
L 592.386713 298.654279 
L 598.918752 296.845015 
L 605.450792 292.690469 
L 611.982832 295.732381 
L 618.514871 299.326392 
L 625.046911 305.135605 
L 631.57895 317.503219 
L 638.11099 301.650543 
L 644.64303 305.703752 
L 651.175069 304.361467 
L 657.707109 311.682103 
L 664.239149 299.893901 
L 670.771188 308.119561 
L 677.303228 304.51843 
L 683.835267 290.2841 
L 690.367307 300.694641 
L 696.899347 301.112081 
L 703.431386 281.26868 
L 709.963426 311.00849 
L 716.495465 310.899315 
L 723.027505 308.809793 
L 729.559545 305.408953 
L 736.091584 304.793585 
L 742.623624 296.49356 
L 749.155663 324.963916 
L 755.687703 311.762016 
L 762.219743 299.470782 
L 768.751782 311.491798 
L 775.283822 302.009383 
L 781.815861 304.741387 
L 788.347901 307.76283 
L 794.879941 315.778679 
L 801.41198 313.193232 
L 807.94402 309.148591 
L 814.476059 301.276999 
L 821.008099 298.930887 
L 827.540139 298.606119 
L 834.072178 299.631229 
L 840.604218 296.75803 
L 847.136257 294.925811 
L 853.668297 299.76924 
L 860.200337 307.297174 
L 866.732376 311.853078 
L 873.264416 335.599785 
L 879.796455 335.30153 
L 892.860535 336.251925 
L 899.392574 335.7466 
L 905.924614 330.032253 
L 912.456653 334.751649 
L 918.988693 336.327077 
L 925.520733 337.157349 
L 932.052772 338.145906 
L 938.584812 338.426082 
L 945.116851 337.343781 
L 951.648891 338.680671 
L 958.180931 338.224223 
L 964.71297 338.595901 
L 971.24501 334.532052 
L 977.77705 320.44365 
L 984.309089 313.74789 
L 990.841129 312.022127 
L 997.373168 318.868056 
L 1003.905208 329.196174 
L 1010.437248 330.363355 
L 1016.969287 335.665633 
L 1023.501327 338.692794 
L 1030.033366 336.058168 
L 1036.565406 338.210487 
L 1043.097446 333.769695 
L 1049.629485 337.796163 
L 1056.161525 338.402599 
L 1062.693564 338.200307 
L 1069.225604 336.403349 
L 1075.757644 335.713835 
L 1082.289683 336.17824 
L 1088.821723 336.403184 
L 1095.353762 335.15366 
L 1101.885802 334.576658 
L 1108.417842 338.007206 
L 1114.949881 335.934221 
L 1121.481921 338.587932 
L 1128.01396 337.881827 
L 1134.546 336.45419 
L 1141.07804 336.849189 
L 1147.610079 338.254145 
L 1200.52 338.140483 
L 1200.52 338.140483 
" clip-path="url(#p2f7be6dec7)" style="fill: none; stroke: #b78935; stroke-opacity: 0; stroke-linecap: square"/>
   </g>
   <g id="PI-PATCH-UPPER-1">
    <path d="M 474.81 261.8611 
L 481.34204 257.034879 
L 487.874079 263.818728 
L 494.406119 255.52184 
L 500.938158 260.535128 
L 507.470198 260.009199 
L 514.002238 283.483033 
L 520.534277 264.761305 
L 527.066317 260.403312 
L 533.598356 259.502019 
L 540.130396 265.251933 
L 546.662436 263.355835 
L 553.194475 258.561923 
L 559.726515 272.621857 
L 566.258554 274.642954 
L 572.790594 272.035608 
L 579.322634 272.556853 
L 585.854673 260.392417 
L 592.386713 262.004046 
L 598.918752 258.870315 
L 605.450792 258.134226 
L 611.982832 262.576904 
L 618.514871 266.231906 
L 625.046911 271.862081 
L 631.57895 282.668354 
L 638.11099 264.261813 
L 644.64303 266.339628 
L 651.175069 265.187353 
L 657.707109 272.67956 
L 664.239149 257.513781 
L 670.771188 260.234848 
L 677.303228 257.878704 
L 683.835267 246.985109 
L 690.367307 256.364056 
L 696.899347 262.265577 
L 703.431386 246.349542 
L 709.963426 277.07855 
L 716.495465 276.922048 
L 723.027505 272.872228 
L 729.559545 271.466812 
L 736.091584 268.768133 
L 742.623624 261.205865 
L 749.155663 287.777416 
L 755.687703 274.612514 
L 762.219743 256.982736 
L 768.751782 272.287238 
L 775.283822 262.445815 
L 781.815861 257.943305 
L 788.347901 257.497475 
L 794.879941 261.792651 
L 801.41198 260.612774 
L 807.94402 261.328437 
L 814.476059 258.414139 
L 821.008099 259.872844 
L 827.540139 259.063374 
L 834.072178 255.817591 
L 840.604218 256.316859 
L 847.136257 259.112937 
L 853.668297 265.389231 
L 860.200337 272.966596 
L 866.732376 276.242197 
L 873.264416 303.098334 
L 879.796455 302.343616 
L 886.328495 304.891585 
L 892.860535 306.202591 
L 899.392574 304.286805 
L 905.924614 297.837144 
L 912.456653 301.398836 
L 918.988693 305.471366 
L 925.520733 308.365082 
L 932.052772 311.765277 
L 938.584812 311.644403 
L 945.116851 307.788757 
L 951.648891 311.314911 
L 958.180931 309.375969 
L 964.71297 309.236713 
L 971.24501 299.221347 
L 977.77705 283.876497 
L 984.309089 277.342568 
L 990.841129 258.589638 
L 997.373168 265.811682 
L 1003.905208 287.694149 
L 1010.437248 290.173387 
L 1016.969287 302.606562 
L 1023.501327 311.607295 
L 1030.033366 299.756934 
L 1036.565406 308.974785 
L 1043.097446 293.882415 
L 1049.629485 310.257269 
L 1056.161525 311.699509 
L 1062.693564 308.983592 
L 1069.225604 302.223558 
L 1075.757644 300.021567 
L 1082.289683 301.974268 
L 1088.821723 303.102291 
L 1095.353762 298.518561 
L 1101.885802 294.284831 
L 1108.417842 310.380703 
L 1114.949881 300.921487 
L 1121.481921 310.962977 
L 1128.01396 308.08286 
L 1134.546 302.478202 
L 1141.07804 304.74401 
L 1147.610079 310.945874 
L 1200.52 310.705253 
L 1200.52 310.705253 
" clip-path="url(#p2f7be6dec7)" style="fill: none; stroke: #406992; stroke-opacity: 0; stroke-linecap: square"/>
   </g>
   <g id="PI-PATCH-2">
    <path d="M 474.81 269.900387 
L 474.81 293.820573 
L 481.34204 296.271367 
L 487.874079 305.008797 
L 494.406119 298.141129 
L 500.938158 302.355499 
L 507.470198 304.161349 
L 514.002238 317.396889 
L 520.534277 295.347446 
L 527.066317 298.203962 
L 533.598356 291.598373 
L 540.130396 295.798059 
L 546.662436 293.536871 
L 553.194475 286.965085 
L 559.726515 301.50573 
L 566.258554 303.383778 
L 572.790594 299.851761 
L 579.322634 301.867311 
L 585.854673 292.327153 
L 592.386713 291.488235 
L 598.918752 289.051696 
L 605.450792 285.950229 
L 611.982832 289.415304 
L 618.514871 293.868434 
L 625.046911 299.708782 
L 631.57895 313.089745 
L 638.11099 295.140646 
L 644.64303 298.609955 
L 651.175069 296.98882 
L 657.707109 305.618277 
L 664.239149 292.142232 
L 670.771188 298.862326 
L 677.303228 295.360408 
L 683.835267 281.887563 
L 690.367307 291.71844 
L 696.899347 293.725738 
L 703.431386 273.952644 
L 709.963426 305.508609 
L 716.495465 305.423593 
L 723.027505 303.465754 
L 729.559545 300.111703 
L 736.091584 299.208495 
L 742.623624 289.275968 
L 749.155663 319.722438 
L 755.687703 305.80367 
L 762.219743 291.379319 
L 768.751782 304.577744 
L 775.283822 294.12989 
L 781.815861 294.592953 
L 788.347901 296.953559 
L 794.879941 304.418613 
L 801.41198 302.063396 
L 807.94402 298.954093 
L 814.476059 292.21722 
L 821.008099 291.397515 
L 827.540139 290.461011 
L 834.072178 290.311678 
L 840.604218 287.995026 
L 847.136257 287.436265 
L 853.668297 293.270659 
L 860.200337 301.665609 
L 866.732376 306.268644 
L 873.264416 332.373214 
L 879.796455 331.837943 
L 886.328495 332.726566 
L 892.860535 333.543597 
L 899.392574 332.6367 
L 905.924614 325.992944 
L 912.456653 330.851082 
L 918.988693 333.678471 
L 925.520733 335.168542 
L 932.052772 336.942687 
L 938.584812 337.445512 
L 945.116851 335.503128 
L 951.648891 337.902417 
L 958.180931 337.083241 
L 964.71297 337.750283 
L 971.24501 330.456976 
L 977.77705 314.886739 
L 984.309089 307.645335 
L 990.841129 301.642871 
L 997.373168 308.121154 
L 1003.905208 322.142785 
L 1010.437248 324.488406 
L 1016.969287 332.491391 
L 1023.501327 337.924175 
L 1030.033366 333.195866 
L 1036.565406 337.058587 
L 1043.097446 329.088788 
L 1049.629485 336.315009 
L 1056.161525 337.403369 
L 1062.693564 337.040318 
L 1069.225604 333.815354 
L 1075.757644 332.577897 
L 1082.289683 333.411356 
L 1088.821723 333.815059 
L 1095.353762 331.572562 
L 1101.885802 330.53703 
L 1108.417842 336.693764 
L 1114.949881 332.973419 
L 1121.481921 337.735981 
L 1128.01396 336.468749 
L 1134.546 333.906598 
L 1141.07804 334.615494 
L 1147.610079 337.136941 
L 6614.927228 321.818195 
L 6621.459267 325.146715 
L 6627.991307 322.109098 
L 6634.523347 317.91063 
L 6641.055386 301.514544 
L 6647.587426 312.691321 
L 6654.119465 306.439481 
L 6660.651505 320.760789 
L 6667.183545 302.201856 
L 6673.715584 294.308017 
L 6680.247624 304.205575 
L 6686.779663 302.458501 
L 6693.311703 295.434238 
L 6699.843743 301.953427 
L 6706.375782 288.594359 
L 6712.907822 289.639911 
L 6719.439861 282.966094 
L 6725.971901 292.530592 
L 6732.503941 290.049267 
L 6739.03598 297.737948 
L 6745.56802 302.326389 
L 6752.100059 289.034898 
L 6758.632099 288.228769 
L 6765.164139 282.841132 
L 6771.696178 282.24339 
L 6778.228218 279.873444 
L 6784.760257 279.597132 
L 6791.292297 285.697443 
L 6797.824337 274.255709 
L 6804.356376 280.619071 
L 6810.888416 279.049424 
L 6817.420455 281.75989 
L 6823.952495 289.972978 
L 6830.484535 288.543159 
L 6837.016574 273.856977 
L 6843.548614 270.942168 
L 6850.080653 270.470052 
L 6856.612693 279.665131 
L 6863.144733 284.961416 
L 6869.676772 290.767101 
L 6876.208812 292.06709 
L 6882.740851 295.646487 
L 6889.272891 301.093943 
L 6895.804931 297.961161 
L 6902.33697 298.134084 
L 6908.86901 301.667957 
L 6915.40105 291.606279 
L 6921.933089 293.951989 
L 6928.465129 298.345311 
L 6934.997168 302.1553 
L 6941.529208 302.168686 
L 6948.061248 302.605414 
L 6954.593287 307.864029 
L 6961.125327 306.160967 
L 6967.657366 307.276247 
L 6974.189406 307.302912 
L 6980.721446 301.155391 
L 6987.253485 298.212852 
L 6993.785525 291.46582 
L 7000.317564 301.921075 
L 7006.849604 285.414419 
L 7013.381644 291.475681 
L 7019.913683 292.440618 
L 7026.445723 295.837243 
L 7032.977762 295.51628 
L 7039.509802 270.949963 
L 7046.041842 277.476701 
L 7052.573881 287.34836 
L 7059.105921 275.029892 
L 7065.63796 298.041197 
L 7072.17 283.735009 
L 7078.70204 277.249 
L 7085.234079 279.218622 
L 7091.766119 275.745878 
L 7098.298158 272.416917 
L 7104.830198 276.959373 
L 7111.362238 283.61593 
L 7111.362238 255.374637 
L 7111.362238 255.374637 
L 7104.830198 246.847359 
L 7098.298158 246.241999 
L 7091.766119 251.247094 
L 7085.234079 254.946395 
L 7078.70204 252.117495 
L 7072.17 261.291308 
L 7065.63796 276.953412 
L 7059.105921 253.346176 
L 7052.573881 266.405373 
L 7046.041842 255.108063 
L 7039.509802 246.297936 
L 7032.977762 265.008264 
L 7026.445723 272.387074 
L 7019.913683 262.996756 
L 7013.381644 259.399898 
L 7006.849604 257.614436 
L 7000.317564 268.414555 
L 6993.785525 259.07478 
L 6987.253485 263.68636 
L 6980.721446 264.155193 
L 6974.189406 268.694574 
L 6967.657366 270.91474 
L 6961.125327 269.880962 
L 6954.593287 272.739613 
L 6948.061248 267.912933 
L 6941.529208 268.091409 
L 6934.997168 267.999995 
L 6928.465129 266.355713 
L 6921.933089 265.621215 
L 6915.40105 265.710762 
L 6908.86901 269.071971 
L 6902.33697 265.783397 
L 6895.804931 264.624728 
L 6889.272891 269.467926 
L 6882.740851 264.540405 
L 6876.208812 262.188015 
L 6869.676772 261.183305 
L 6863.144733 256.922234 
L 6856.612693 252.992235 
L 6850.080653 246.203425 
L 6843.548614 248.02037 
L 6837.016574 252.249126 
L 6830.484535 265.019845 
L 6823.952495 264.807054 
L 6817.420455 256.070012 
L 6810.888416 250.506308 
L 6804.356376 250.547416 
L 6797.824337 246.313118 
L 6791.292297 259.786085 
L 6784.760257 255.555021 
L 6778.228218 257.781084 
L 6771.696178 260.827285 
L 6765.164139 261.16368 
L 6758.632099 265.751608 
L 6752.100059 267.154851 
L 6745.56802 281.63185 
L 6739.03598 276.441366 
L 6732.503941 268.373719 
L 6725.971901 270.454773 
L 6719.439861 258.798186 
L 6712.907822 266.033919 
L 6706.375782 266.499847 
L 6699.843743 281.395818 
L 6693.311703 275.051707 
L 6686.779663 281.795464 
L 6680.247624 283.804729 
L 6673.715584 273.565784 
L 6667.183545 280.9947 
L 6660.651505 299.293576 
L 6654.119465 286.362469 
L 6647.587426 293.201843 
L 6641.055386 278.804387 
L 6634.523347 297.395825 
L 6627.991307 302.37636 
L 6621.459267 305.0524 
L 6614.927228 298.725833 
L 1147.610079 322.797206 
L 1141.07804 317.192144 
L 1134.546 315.355214 
L 1128.01396 320.702097 
L 1121.481921 323.400683 
L 1114.949881 313.650086 
L 1108.417842 322.074488 
L 1101.885802 307.912101 
L 1095.353762 311.057387 
L 1088.821723 315.576347 
L 1082.289683 314.611406 
L 1075.757644 312.80732 
L 1069.225604 315.137274 
L 1062.693564 321.720106 
L 1056.161525 323.438622 
L 1049.629485 321.636617 
L 1043.097446 306.272599 
L 1036.565406 321.733846 
L 1030.033366 313.288728 
L 1023.501327 323.909744 
L 1016.969287 314.013906 
L 1010.437248 300.78812 
L 1003.905208 297.063293 
L 997.373168 274.997874 
L 990.841129 268.557149 
L 984.309089 285.697696 
L 977.77705 293.193031 
L 971.24501 310.300856 
L 964.71297 322.551755 
L 958.180931 321.958922 
L 951.648891 323.741944 
L 945.116851 319.596056 
L 938.584812 323.452923 
L 932.052772 323.013988 
L 925.520733 319.55193 
L 918.988693 316.625234 
L 912.456653 311.780999 
L 905.924614 307.416572 
L 899.392574 314.998338 
L 892.860535 316.8569 
L 886.328495 315.389977 
L 879.796455 313.233472 
L 873.264416 314.142426 
L 866.732376 285.036183 
L 860.200337 281.044377 
L 853.668297 272.092645 
L 847.136257 264.93369 
L 840.604218 262.396814 
L 834.072178 262.685695 
L 827.540139 265.691199 
L 821.008099 267.245461 
L 814.476059 265.22604 
L 807.94402 268.78792 
L 801.41198 268.943076 
L 794.879941 270.454223 
L 788.347901 265.187515 
L 781.815861 264.966083 
L 775.283822 269.512668 
L 768.751782 280.732491 
L 762.219743 265.169776 
L 755.687703 283.572438 
L 749.155663 297.91263 
L 742.623624 267.202873 
L 736.091584 277.768346 
L 729.559545 279.889849 
L 723.027505 282.217474 
L 716.495465 285.074652 
L 709.963426 285.168506 
L 703.431386 252.003415 
L 696.899347 269.769681 
L 690.367307 264.044689 
L 683.835267 255.085333 
L 677.303228 266.420507 
L 670.771188 269.239047 
L 664.239149 266.195176 
L 657.707109 282.395795 
L 651.175069 272.877362 
L 644.64303 274.574616 
L 638.11099 272.451328 
L 631.57895 292.963879 
L 625.046911 279.741721 
L 618.514871 273.971785 
L 611.982832 268.960941 
L 605.450792 264.535798 
L 598.918752 265.281789 
L 592.386713 268.765504 
L 585.854673 267.501152 
L 579.322634 281.367173 
L 572.790594 279.452959 
L 566.258554 283.268676 
L 559.726515 280.88741 
L 553.194475 264.830376 
L 546.662436 270.799914 
L 540.130396 271.880539 
L 533.598356 266.375013 
L 527.066317 268.773511 
L 520.534277 273.061325 
L 514.002238 293.382998 
L 507.470198 268.937172 
L 500.938158 268.874715 
L 494.406119 264.223206 
L 487.874079 272.360572 
L 481.34204 265.440975 
L 474.81 269.900387 
z
" clip-path="url(#p2f7be6dec7)" style="fill: #808080; fill-opacity: 0.00001"/>
   </g>
   <g id="PI-PATCH-LOWER-2">
    <path d="M 474.81 293.820573 
L 481.34204 296.271367 
L 487.874079 305.008797 
L 494.406119 298.141129 
L 500.938158 302.355499 
L 507.470198 304.161349 
L 514.002238 317.396889 
L 520.534277 295.347446 
L 527.066317 298.203962 
L 533.598356 291.598373 
L 540.130396 295.798059 
L 546.662436 293.536871 
L 553.194475 286.965085 
L 559.726515 301.50573 
L 566.258554 303.383778 
L 572.790594 299.851761 
L 579.322634 301.867311 
L 585.854673 292.327153 
L 592.386713 291.488235 
L 598.918752 289.051696 
L 605.450792 285.950229 
L 611.982832 289.415304 
L 618.514871 293.868434 
L 625.046911 299.708782 
L 631.57895 313.089745 
L 638.11099 295.140646 
L 644.64303 298.609955 
L 651.175069 296.98882 
L 657.707109 305.618277 
L 664.239149 292.142232 
L 670.771188 298.862326 
L 677.303228 295.360408 
L 683.835267 281.887563 
L 690.367307 291.71844 
L 696.899347 293.725738 
L 703.431386 273.952644 
L 709.963426 305.508609 
L 716.495465 305.423593 
L 723.027505 303.465754 
L 729.559545 300.111703 
L 736.091584 299.208495 
L 742.623624 289.275968 
L 749.155663 319.722438 
L 755.687703 305.80367 
L 762.219743 291.379319 
L 768.751782 304.577744 
L 775.283822 294.12989 
L 781.815861 294.592953 
L 788.347901 296.953559 
L 794.879941 304.418613 
L 801.41198 302.063396 
L 807.94402 298.954093 
L 814.476059 292.21722 
L 821.008099 291.397515 
L 827.540139 290.461011 
L 834.072178 290.311678 
L 840.604218 287.995026 
L 847.136257 287.436265 
L 853.668297 293.270659 
L 860.200337 301.665609 
L 866.732376 306.268644 
L 873.264416 332.373214 
L 879.796455 331.837943 
L 892.860535 333.543597 
L 899.392574 332.6367 
L 905.924614 325.992944 
L 912.456653 330.851082 
L 918.988693 333.678471 
L 925.520733 335.168542 
L 932.052772 336.942687 
L 938.584812 337.445512 
L 945.116851 335.503128 
L 951.648891 337.902417 
L 958.180931 337.083241 
L 964.71297 337.750283 
L 971.24501 330.456976 
L 977.77705 314.886739 
L 984.309089 307.645335 
L 990.841129 301.642871 
L 997.373168 308.121154 
L 1003.905208 322.142785 
L 1010.437248 324.488406 
L 1016.969287 332.491391 
L 1023.501327 337.924175 
L 1030.033366 333.195866 
L 1036.565406 337.058587 
L 1043.097446 329.088788 
L 1049.629485 336.315009 
L 1056.161525 337.403369 
L 1062.693564 337.040318 
L 1069.225604 333.815354 
L 1075.757644 332.577897 
L 1082.289683 333.411356 
L 1088.821723 333.815059 
L 1095.353762 331.572562 
L 1101.885802 330.53703 
L 1108.417842 336.693764 
L 1114.949881 332.973419 
L 1121.481921 337.735981 
L 1128.01396 336.468749 
L 1134.546 333.906598 
L 1141.07804 334.615494 
L 1147.610079 337.136941 
L 1200.52 336.988694 
L 1200.52 336.988694 
" clip-path="url(#p2f7be6dec7)" style="fill: none; stroke: #b78935; stroke-opacity: 0; stroke-linecap: square"/>
   </g>
   <g id="PI-PATCH-UPPER-2">
    <path d="M 474.81 269.900387 
L 481.34204 265.440975 
L 487.874079 272.360572 
L 494.406119 264.223206 
L 500.938158 268.874715 
L 507.470198 268.937172 
L 514.002238 293.382998 
L 520.534277 273.061325 
L 527.066317 268.773511 
L 533.598356 266.375013 
L 540.130396 271.880539 
L 546.662436 270.799914 
L 553.194475 264.830376 
L 559.726515 280.88741 
L 566.258554 283.268676 
L 572.790594 279.452959 
L 579.322634 281.367173 
L 585.854673 267.501152 
L 592.386713 268.765504 
L 598.918752 265.281789 
L 605.450792 264.535798 
L 611.982832 268.960941 
L 618.514871 273.971785 
L 625.046911 279.741721 
L 631.57895 292.963879 
L 638.11099 272.451328 
L 644.64303 274.574616 
L 651.175069 272.877362 
L 657.707109 282.395795 
L 664.239149 266.195176 
L 670.771188 269.239047 
L 677.303228 266.420507 
L 683.835267 255.085333 
L 690.367307 264.044689 
L 696.899347 269.769681 
L 703.431386 252.003415 
L 709.963426 285.168506 
L 716.495465 285.074652 
L 723.027505 282.217474 
L 729.559545 279.889849 
L 736.091584 277.768346 
L 742.623624 267.202873 
L 749.155663 297.91263 
L 755.687703 283.572438 
L 762.219743 265.169776 
L 768.751782 280.732491 
L 775.283822 269.512668 
L 781.815861 264.966083 
L 788.347901 265.187515 
L 794.879941 270.454223 
L 801.41198 268.943076 
L 807.94402 268.78792 
L 814.476059 265.22604 
L 821.008099 267.245461 
L 827.540139 265.691199 
L 834.072178 262.685695 
L 840.604218 262.396814 
L 847.136257 264.93369 
L 853.668297 272.092645 
L 860.200337 281.044377 
L 866.732376 285.036183 
L 873.264416 314.142426 
L 879.796455 313.233472 
L 886.328495 315.389977 
L 892.860535 316.8569 
L 899.392574 314.998338 
L 905.924614 307.416572 
L 912.456653 311.780999 
L 918.988693 316.625234 
L 925.520733 319.55193 
L 932.052772 323.013988 
L 938.584812 323.452923 
L 945.116851 319.596056 
L 951.648891 323.741944 
L 958.180931 321.958922 
L 964.71297 322.551755 
L 971.24501 310.300856 
L 977.77705 293.193031 
L 984.309089 285.697696 
L 990.841129 268.557149 
L 997.373168 274.997874 
L 1003.905208 297.063293 
L 1010.437248 300.78812 
L 1016.969287 314.013906 
L 1023.501327 323.909744 
L 1030.033366 313.288728 
L 1036.565406 321.733846 
L 1043.097446 306.272599 
L 1049.629485 321.636617 
L 1056.161525 323.438622 
L 1062.693564 321.720106 
L 1069.225604 315.137274 
L 1075.757644 312.80732 
L 1082.289683 314.611406 
L 1088.821723 315.576347 
L 1095.353762 311.057387 
L 1101.885802 307.912101 
L 1108.417842 322.074488 
L 1114.949881 313.650086 
L 1121.481921 323.400683 
L 1128.01396 320.702097 
L 1134.546 315.355214 
L 1141.07804 317.192144 
L 1147.610079 322.797206 
L 1200.52 322.564256 
L 1200.52 322.564256 
" clip-path="url(#p2f7be6dec7)" style="fill: none; stroke: #406992; stroke-opacity: 0; stroke-linecap: square"/>
   </g>
   <g id="matplotlib.axis_3">
    <g id="xtick_4">
     <g id="line2d_7">
      <g>
       <use xlink:href="#m0a32182ce8" x="553.194475" y="339.66" style="fill: #949494; stroke: #949494; stroke-width: 0.8"/>
      </g>
     </g>
     <g id="text_8">
      <text style="font-weight: 300; font-size: 16px; font-family: 'Source Sans 3', sans-serif; text-anchor: middle; fill: #595959" x="553.194475" y="358.2125" transform="rotate(-0 553.194475 358.2125)">2001</text>
     </g>
    </g>
    <g id="xtick_5">
     <g id="line2d_8">
      <g>
       <use xlink:href="#m0a32182ce8" x="893.793683" y="339.66" style="fill: #949494; stroke: #949494; stroke-width: 0.8"/>
      </g>
     </g>
     <g id="text_9">
      <text style="font-weight: 300; font-size: 16px; font-family: 'Source Sans 3', sans-serif; text-anchor: middle; fill: #595959" x="893.793683" y="358.2125" transform="rotate(-0 893.793683 358.2125)">2002</text>
     </g>
    </g>
    <g id="text_10">
     <text style="font-weight: 600; font-size: 16px; font-family: 'Source Sans 3', sans-serif; text-anchor: middle; fill: #595959" x="804.678" y="377.3175" transform="rotate(-0 804.678 377.3175)">Date</text>
    </g>
   </g>
   <g id="matplotlib.axis_4">
    <g id="ytick_4">
     <g id="line2d_9">
      <path d="M 474.81 339.66 
L 1134.546 339.66 
" style="fill: none; stroke: #d1d1d1; stroke-width: 0.8; stroke-linecap: square"/>
     </g>
     <g id="line2d_10">
      <g>
       <use xlink:href="#m0bf0c0a132" x="474.81" y="339.66" style="fill: #949494; stroke: #949494; stroke-width: 0.8"/>
      </g>
     </g>
     <g id="text_11">
      <text style="font-weight: 300; font-size: 16px; font-family: 'Source Sans 3', sans-serif; text-anchor: end; fill: #595959" x="467.81" y="345.43625" transform="rotate(-0 467.81 345.43625)">0</text>
     </g>
    </g>
    <g id="ytick_5">
     <g id="line2d_11">
      <path d="M 474.81 279.72 
L 1134.546 279.72 
" style="fill: none; stroke: #d1d1d1; stroke-width: 0.8; stroke-linecap: square"/>
     </g>
     <g id="line2d_12">
      <g>
       <use xlink:href="#m0bf0c0a132" x="474.81" y="279.72" style="fill: #949494; stroke: #949494; stroke-width: 0.8"/>
      </g>
     </g>
     <g id="text_12">
      <text style="font-weight: 300; font-size: 16px; font-family: 'Source Sans 3', sans-serif; text-anchor: end; fill: #595959" x="467.81" y="285.49625" transform="rotate(-0 467.81 285.49625)">20</text>
     </g>
    </g>
    <g id="ytick_6">
     <g id="line2d_13">
      <path d="M 474.81 219.78 
L 1134.546 219.78 
" style="fill: none; stroke: #d1d1d1; stroke-width: 0.8; stroke-linecap: square"/>
     </g>
     <g id="line2d_14">
      <g>
       <use xlink:href="#m0bf0c0a132" x="474.81" y="219.78" style="fill: #949494; stroke: #949494; stroke-width: 0.8"/>
      </g>
     </g>
     <g id="text_13">
      <text style="font-weight: 300; font-size: 16px; font-family: 'Source Sans 3', sans-serif; text-anchor: end; fill: #595959" x="467.81" y="225.55625" transform="rotate(-0 467.81 225.55625)">40</text>
     </g>
    </g>
    <g id="ytick_7">
     <g id="line2d_15">
      <path d="M 474.81 159.84 
L 1134.546 159.84 
" style="fill: none; stroke: #d1d1d1; stroke-width: 0.8; stroke-linecap: square"/>
     </g>
     <g id="line2d_16">
      <g>
       <use xlink:href="#m0bf0c0a132" x="474.81" y="159.84" style="fill: #949494; stroke: #949494; stroke-width: 0.8"/>
      </g>
     </g>
     <g id="text_14">
      <text style="font-weight: 300; font-size: 16px; font-family: 'Source Sans 3', sans-serif; text-anchor: end; fill: #595959" x="467.81" y="165.61625" transform="rotate(-0 467.81 165.61625)">60</text>
     </g>
    </g>
    <g id="ytick_8">
     <g id="line2d_17">
      <path d="M 474.81 99.9 
L 1134.546 99.9 
" style="fill: none; stroke: #d1d1d1; stroke-width: 0.8; stroke-linecap: square"/>
     </g>
     <g id="line2d_18">
      <g>
       <use xlink:href="#m0bf0c0a132" x="474.81" y="99.9" style="fill: #949494; stroke: #949494; stroke-width: 0.8"/>
      </g>
     </g>
     <g id="text_15">
      <text style="font-weight: 300; font-size: 16px; font-family: 'Source Sans 3', sans-serif; text-anchor: end; fill: #595959" x="467.81" y="105.67625" transform="rotate(-0 467.81 105.67625)">80</text>
     </g>
    </g>
    <g id="ytick_9">
     <g id="line2d_19">
      <path d="M 474.81 39.96 
L 1134.546 39.96 
" style="fill: none; stroke: #d1d1d1; stroke-width: 0.8; stroke-linecap: square"/>
     </g>
     <g id="line2d_20">
      <g>
       <use xlink:href="#m0bf0c0a132" x="474.81" y="39.96" style="fill: #949494; stroke: #949494; stroke-width: 0.8"/>
      </g>
     </g>
     <g id="text_16">
      <text style="font-weight: 300; font-size: 16px; font-family: 'Source Sans 3', sans-serif; text-anchor: end; fill: #595959" x="467.81" y="45.73625" transform="rotate(-0 467.81 45.73625)">100</text>
     </g>
    </g>
   </g>
   <g id="TAG-0-LABEL-BOLD">
    <g id="patch_6">
     <path d="M 913.3245 146.13025 
L 1025.8995 146.13025 
L 1025.8995 113.60975 
L 913.3245 113.60975 
z
" style="fill: #ffffff; opacity: 0"/>
    </g>
    <text style="font-weight: 700; font-size: 16px; font-family: 'Source Sans 3', sans-serif; fill: #883e3a; opacity: 0" transform="translate(913.3245 125.16225)">PI contains 93.2%</text>
    <text style="font-weight: 700; font-size: 16px; font-family: 'Source Sans 3', sans-serif; fill: #883e3a; opacity: 0" transform="translate(920.58825 142.57775)">of observations</text>
   </g>
   <g id="TAG-1-LABEL-BOLD">
    <g id="patch_7">
     <path d="M 913.3245 146.13025 
L 1025.8995 146.13025 
L 1025.8995 113.60975 
L 913.3245 113.60975 
z
" style="fill: #ffffff; opacity: 0"/>
    </g>
    <text style="font-weight: 700; font-size: 16px; font-family: 'Source Sans 3', sans-serif; fill: #883e3a; opacity: 0" transform="translate(913.3245 125.16225)">PI contains 71.2%</text>
    <text style="font-weight: 700; font-size: 16px; font-family: 'Source Sans 3', sans-serif; fill: #883e3a; opacity: 0" transform="translate(920.58825 142.57775)">of observations</text>
   </g>
   <g id="TAG-2-LABEL-BOLD">
    <g id="patch_8">
     <path d="M 913.3245 146.13025 
L 1025.8995 146.13025 
L 1025.8995 113.60975 
L 913.3245 113.60975 
z
" style="fill: #ffffff; opacity: 0"/>
    </g>
    <text style="font-weight: 700; font-size: 16px; font-family: 'Source Sans 3', sans-serif; fill: #883e3a; opacity: 0" transform="translate(913.3245 125.16225)">PI contains 47.9%</text>
    <text style="font-weight: 700; font-size: 16px; font-family: 'Source Sans 3', sans-serif; fill: #883e3a; opacity: 0" transform="translate(920.58825 142.57775)">of observations</text>
   </g>
   <g id="PI-PATCH-MEDIAN">
    <path d="M 474.81 277.939674 
L 481.34204 273.847072 
L 487.874079 280.902416 
L 494.406119 272.924571 
L 500.938158 277.214301 
L 507.470198 277.865144 
L 514.002238 303.282964 
L 520.534277 281.361345 
L 527.066317 277.14371 
L 533.598356 273.248007 
L 540.130396 278.509145 
L 546.662436 278.243994 
L 553.194475 271.098829 
L 559.726515 289.152963 
L 566.258554 291.894398 
L 572.790594 286.870309 
L 579.322634 290.177494 
L 585.854673 274.609887 
L 592.386713 275.526962 
L 598.918752 271.693264 
L 605.450792 270.937371 
L 611.982832 275.344977 
L 618.514871 281.711664 
L 625.046911 287.62136 
L 631.57895 303.259404 
L 638.11099 280.640843 
L 644.64303 282.809604 
L 651.175069 280.567371 
L 657.707109 292.11203 
L 664.239149 274.87657 
L 670.771188 278.243245 
L 677.303228 274.962309 
L 683.835267 263.185556 
L 690.367307 271.725321 
L 696.899347 277.273785 
L 703.431386 257.657288 
L 709.963426 293.258461 
L 716.495465 293.227256 
L 723.027505 291.56272 
L 729.559545 288.312887 
L 736.091584 286.768559 
L 742.623624 273.199881 
L 749.155663 308.047843 
L 755.687703 292.532362 
L 762.219743 273.356817 
L 768.751782 289.177744 
L 775.283822 276.57952 
L 781.815861 271.988861 
L 788.347901 272.877555 
L 794.879941 279.115796 
L 801.41198 277.273379 
L 807.94402 276.247402 
L 814.476059 272.037941 
L 821.008099 274.618078 
L 827.540139 272.319024 
L 834.072178 269.553798 
L 840.604218 268.476768 
L 847.136257 270.754443 
L 853.668297 278.796059 
L 860.200337 289.122158 
L 866.732376 293.830168 
L 873.264416 325.186518 
L 879.796455 324.123329 
L 886.328495 325.888368 
L 892.860535 327.511208 
L 899.392574 325.709872 
L 905.924614 316.995999 
L 912.456653 322.163163 
L 918.988693 327.779103 
L 925.520733 330.738779 
L 932.052772 334.262698 
L 938.584812 335.261443 
L 945.116851 331.403355 
L 951.648891 336.168976 
L 958.180931 334.541876 
L 964.71297 335.866797 
L 971.24501 321.380364 
L 977.77705 302.509566 
L 984.309089 294.052825 
L 990.841129 278.52466 
L 997.373168 284.184066 
L 1003.905208 306.432436 
L 1010.437248 311.402854 
L 1016.969287 325.421249 
L 1023.501327 336.212192 
L 1030.033366 326.820522 
L 1036.565406 334.492908 
L 1043.097446 318.662782 
L 1049.629485 333.015964 
L 1056.161525 335.177734 
L 1062.693564 334.45662 
L 1069.225604 328.05099 
L 1075.757644 325.593073 
L 1082.289683 327.248543 
L 1088.821723 328.050403 
L 1095.353762 323.596213 
L 1101.885802 321.539372 
L 1108.417842 333.768272 
L 1114.949881 326.378685 
L 1121.481921 335.83839 
L 1128.01396 333.321334 
L 1134.546 328.232225 
L 1141.07804 329.640278 
L 1147.610079 334.648539 
L 1200.52 334.423259 
L 1200.52 334.423259 
" clip-path="url(#p2f7be6dec7)" style="fill: none; stroke: #00264c; stroke-opacity: 0; stroke-linecap: square"/>
   </g>
   <g id="OBSERVED-FORECAST-LINE">
    <path d="M 474.81 175.44082 
L 481.34204 155.637919 
L 487.874079 168.195859 
L 494.406119 164.331876 
L 500.938158 161.192391 
L 507.470198 307.057664 
L 514.002238 283.632281 
L 520.534277 200.073694 
L 527.066317 248.614955 
L 533.598356 245.958471 
L 540.130396 272.097574 
L 546.662436 255.763801 
L 553.194475 288.678829 
L 559.726515 297.093194 
L 566.258554 278.802307 
L 572.790594 293.533731 
L 579.322634 232.193043 
L 585.854673 254.893925 
L 592.386713 232.676038 
L 598.918752 255.859921 
L 605.450792 256.101419 
L 611.982832 276.387315 
L 618.514871 277.594808 
L 625.046911 304.799902 
L 631.57895 260.791577 
L 638.11099 263.460974 
L 644.64303 251.327368 
L 651.175069 291.610931 
L 657.707109 236.540021 
L 664.239149 217.944614 
L 670.771188 226.638571 
L 677.303228 247.165964 
L 683.835267 185.583773 
L 690.367307 253.686432 
L 696.899347 239.1965 
L 703.431386 281.217294 
L 709.963426 288.220757 
L 716.495465 290.152748 
L 723.027505 278.560804 
L 729.559545 289.42825 
L 736.091584 256.342916 
L 742.623624 310.438647 
L 749.155663 297.156214 
L 755.687703 196.692717 
L 762.219743 278.077809 
L 768.751782 244.750978 
L 775.283822 131.971046 
L 781.815861 92.606725 
L 788.347901 97.678202 
L 794.879941 140.665003 
L 801.41198 197.175712 
L 807.94402 232.193043 
L 814.476059 271.074346 
L 821.008099 237.989007 
L 827.540139 226.638571 
L 834.072178 237.023017 
L 840.604218 253.92793 
L 847.136257 275.421319 
L 853.668297 294.499727 
L 860.200337 297.639209 
L 866.732376 337.72801 
L 873.264416 329.517051 
L 879.796455 330.503187 
L 886.328495 329.26578 
L 892.860535 328.910726 
L 899.392574 316.396747 
L 905.924614 319.119042 
L 912.456653 330.966044 
L 918.988693 330.724545 
L 925.520733 336.279017 
L 932.052772 337.969509 
L 938.584812 331.932039 
L 945.116851 333.62253 
L 951.648891 339.177002 
L 958.180931 333.62253 
L 964.71297 311.600921 
L 971.24501 288.456195 
L 977.77705 281.176033 
L 984.309089 177.797728 
L 990.841129 199.880894 
L 997.373168 280.251298 
L 1003.905208 305.850168 
L 1010.437248 319.6156 
L 1016.969287 336.762015 
L 1023.501327 332.415036 
L 1030.033366 336.037518 
L 1036.565406 326.136068 
L 1043.097446 330.483046 
L 1049.629485 336.037518 
L 1056.161525 338.694005 
L 1062.693564 333.62253 
L 1069.225604 329.517051 
L 1075.757644 333.62253 
L 1082.289683 337.245012 
L 1088.821723 332.415036 
L 1095.353762 336.762015 
L 1101.885802 334.588525 
L 1108.417842 336.520516 
L 1114.949881 335.55452 
L 1121.481921 336.762015 
L 1128.01396 339.177002 
L 1134.546 332.898034 
L 1141.07804 334.588525 
L 1147.610079 338.694005 
L 1200.52 338.47198 
L 1200.52 338.47198 
" clip-path="url(#p2f7be6dec7)" style="fill: none; stroke-dasharray: 1,1.65; stroke-dashoffset: 0; stroke: #883e3a"/>
   </g>
   <g id="PI-missed-dummy">
    <defs>
     <path id="mb99d635c52" d="M 0 3.9975 
C 1.060149 3.9975 2.077021 3.576298 2.826659 2.826659 
C 3.576298 2.077021 3.9975 1.060149 3.9975 0 
C 3.9975 -1.060149 3.576298 -2.077021 2.826659 -2.826659 
C 2.077021 -3.576298 1.060149 -3.9975 0 -3.9975 
C -1.060149 -3.9975 -2.077021 -3.576298 -2.826659 -2.826659 
C -3.576298 -2.077021 -3.9975 -1.060149 -3.9975 0 
C -3.9975 1.060149 -3.576298 2.077021 -2.826659 2.826659 
C -2.077021 3.576298 -1.060149 3.9975 0 3.9975 
z
" style="stroke: #595959"/>
    </defs>
    <g clip-path="url(#p2f7be6dec7)"/>
   </g>
   <g id="patch_9">
    <path d="M 474.81 339.66 
L 474.81 39.96 
" style="fill: none; stroke: #949494; stroke-width: 0.8; stroke-linejoin: miter; stroke-linecap: square"/>
   </g>
   <g id="patch_10">
    <path d="M 474.81 339.66 
L 1134.546 339.66 
" style="fill: none; stroke: #949494; stroke-width: 0.8; stroke-linejoin: miter; stroke-linecap: square"/>
   </g>
   <g id="PI-missed-0">
    <defs>
     <path id="mb9e50a8237" d="M 0 4 
C 1.060812 4 2.078319 3.578535 2.828427 2.828427 
C 3.578535 2.078319 4 1.060812 4 0 
C 4 -1.060812 3.578535 -2.078319 2.828427 -2.828427 
C 2.078319 -3.578535 1.060812 -4 0 -4 
C -1.060812 -4 -2.078319 -3.578535 -2.828427 -2.828427 
C -3.578535 -2.078319 -4 -1.060812 -4 0 
C -4 1.060812 -3.578535 2.078319 -2.828427 2.828427 
C -2.078319 3.578535 -1.060812 4 0 4 
z
" style="stroke: #595959; stroke-opacity: 0"/>
    </defs>
    <g>
     <use xlink:href="#mb9e50a8237" x="631.57895" y="260.791577" style="fill-opacity: 0; stroke: #595959; stroke-opacity: 0"/>
     <use xlink:href="#mb9e50a8237" x="644.64303" y="251.327368" style="fill-opacity: 0; stroke: #595959; stroke-opacity: 0"/>
     <use xlink:href="#mb9e50a8237" x="736.091584" y="256.342916" style="fill-opacity: 0; stroke: #595959; stroke-opacity: 0"/>
     <use xlink:href="#mb9e50a8237" x="742.623624" y="310.438647" style="fill-opacity: 0; stroke: #595959; stroke-opacity: 0"/>
     <use xlink:href="#mb9e50a8237" x="866.732376" y="337.72801" style="fill-opacity: 0; stroke: #595959; stroke-opacity: 0"/>
    </g>
   </g>
   <g id="PI-missed-1">
    <defs>
     <path id="m05bd0c900c" d="M 0 4.0025 
C 1.061475 4.0025 2.079618 3.580771 2.830195 2.830195 
C 3.580771 2.079618 4.0025 1.061475 4.0025 0 
C 4.0025 -1.061475 3.580771 -2.079618 2.830195 -2.830195 
C 2.079618 -3.580771 1.061475 -4.0025 0 -4.0025 
C -1.061475 -4.0025 -2.079618 -3.580771 -2.830195 -2.830195 
C -3.580771 -2.079618 -4.0025 -1.061475 -4.0025 0 
C -4.0025 1.061475 -3.580771 2.079618 -2.830195 2.830195 
C -2.079618 3.580771 -1.061475 4.0025 0 4.0025 
z
" style="stroke: #595959; stroke-opacity: 0"/>
    </defs>
    <g>
     <use xlink:href="#m05bd0c900c" x="546.662436" y="255.763801" style="fill-opacity: 0; stroke: #595959; stroke-opacity: 0"/>
     <use xlink:href="#m05bd0c900c" x="585.854673" y="254.893925" style="fill-opacity: 0; stroke: #595959; stroke-opacity: 0"/>
     <use xlink:href="#m05bd0c900c" x="598.918752" y="255.859921" style="fill-opacity: 0; stroke: #595959; stroke-opacity: 0"/>
     <use xlink:href="#m05bd0c900c" x="605.450792" y="256.101419" style="fill-opacity: 0; stroke: #595959; stroke-opacity: 0"/>
     <use xlink:href="#m05bd0c900c" x="631.57895" y="260.791577" style="fill-opacity: 0; stroke: #595959; stroke-opacity: 0"/>
     <use xlink:href="#m05bd0c900c" x="638.11099" y="263.460974" style="fill-opacity: 0; stroke: #595959; stroke-opacity: 0"/>
     <use xlink:href="#m05bd0c900c" x="644.64303" y="251.327368" style="fill-opacity: 0; stroke: #595959; stroke-opacity: 0"/>
     <use xlink:href="#m05bd0c900c" x="690.367307" y="253.686432" style="fill-opacity: 0; stroke: #595959; stroke-opacity: 0"/>
     <use xlink:href="#m05bd0c900c" x="736.091584" y="256.342916" style="fill-opacity: 0; stroke: #595959; stroke-opacity: 0"/>
     <use xlink:href="#m05bd0c900c" x="742.623624" y="310.438647" style="fill-opacity: 0; stroke: #595959; stroke-opacity: 0"/>
     <use xlink:href="#m05bd0c900c" x="840.604218" y="253.92793" style="fill-opacity: 0; stroke: #595959; stroke-opacity: 0"/>
     <use xlink:href="#m05bd0c900c" x="866.732376" y="337.72801" style="fill-opacity: 0; stroke: #595959; stroke-opacity: 0"/>
     <use xlink:href="#m05bd0c900c" x="951.648891" y="339.177002" style="fill-opacity: 0; stroke: #595959; stroke-opacity: 0"/>
     <use xlink:href="#m05bd0c900c" x="971.24501" y="288.456195" style="fill-opacity: 0; stroke: #595959; stroke-opacity: 0"/>
     <use xlink:href="#m05bd0c900c" x="977.77705" y="281.176033" style="fill-opacity: 0; stroke: #595959; stroke-opacity: 0"/>
     <use xlink:href="#m05bd0c900c" x="1016.969287" y="336.762015" style="fill-opacity: 0; stroke: #595959; stroke-opacity: 0"/>
     <use xlink:href="#m05bd0c900c" x="1056.161525" y="338.694005" style="fill-opacity: 0; stroke: #595959; stroke-opacity: 0"/>
     <use xlink:href="#m05bd0c900c" x="1082.289683" y="337.245012" style="fill-opacity: 0; stroke: #595959; stroke-opacity: 0"/>
     <use xlink:href="#m05bd0c900c" x="1095.353762" y="336.762015" style="fill-opacity: 0; stroke: #595959; stroke-opacity: 0"/>
     <use xlink:href="#m05bd0c900c" x="1101.885802" y="334.588525" style="fill-opacity: 0; stroke: #595959; stroke-opacity: 0"/>
     <use xlink:href="#m05bd0c900c" x="1128.01396" y="339.177002" style="fill-opacity: 0; stroke: #595959; stroke-opacity: 0"/>
    </g>
   </g>
   <g id="PI-missed-2">
    <defs>
     <path id="mc36260fcc0" d="M 0 4.005 
C 1.062138 4.005 2.080917 3.583008 2.831963 2.831963 
C 3.583008 2.080917 4.005 1.062138 4.005 0 
C 4.005 -1.062138 3.583008 -2.080917 2.831963 -2.831963 
C 2.080917 -3.583008 1.062138 -4.005 0 -4.005 
C -1.062138 -4.005 -2.080917 -3.583008 -2.831963 -2.831963 
C -3.583008 -2.080917 -4.005 -1.062138 -4.005 0 
C -4.005 1.062138 -3.583008 2.080917 -2.831963 2.831963 
C -2.080917 3.583008 -1.062138 4.005 0 4.005 
z
" style="stroke: #595959; stroke-opacity: 0"/>
    </defs>
    <g>
     <use xlink:href="#mc36260fcc0" x="507.470198" y="307.057664" style="fill-opacity: 0; stroke: #595959; stroke-opacity: 0"/>
     <use xlink:href="#mc36260fcc0" x="514.002238" y="283.632281" style="fill-opacity: 0; stroke: #595959; stroke-opacity: 0"/>
     <use xlink:href="#mc36260fcc0" x="546.662436" y="255.763801" style="fill-opacity: 0; stroke: #595959; stroke-opacity: 0"/>
     <use xlink:href="#mc36260fcc0" x="553.194475" y="288.678829" style="fill-opacity: 0; stroke: #595959; stroke-opacity: 0"/>
     <use xlink:href="#mc36260fcc0" x="566.258554" y="278.802307" style="fill-opacity: 0; stroke: #595959; stroke-opacity: 0"/>
     <use xlink:href="#mc36260fcc0" x="585.854673" y="254.893925" style="fill-opacity: 0; stroke: #595959; stroke-opacity: 0"/>
     <use xlink:href="#mc36260fcc0" x="598.918752" y="255.859921" style="fill-opacity: 0; stroke: #595959; stroke-opacity: 0"/>
     <use xlink:href="#mc36260fcc0" x="605.450792" y="256.101419" style="fill-opacity: 0; stroke: #595959; stroke-opacity: 0"/>
     <use xlink:href="#mc36260fcc0" x="625.046911" y="304.799902" style="fill-opacity: 0; stroke: #595959; stroke-opacity: 0"/>
     <use xlink:href="#mc36260fcc0" x="631.57895" y="260.791577" style="fill-opacity: 0; stroke: #595959; stroke-opacity: 0"/>
     <use xlink:href="#mc36260fcc0" x="638.11099" y="263.460974" style="fill-opacity: 0; stroke: #595959; stroke-opacity: 0"/>
     <use xlink:href="#mc36260fcc0" x="644.64303" y="251.327368" style="fill-opacity: 0; stroke: #595959; stroke-opacity: 0"/>
     <use xlink:href="#mc36260fcc0" x="690.367307" y="253.686432" style="fill-opacity: 0; stroke: #595959; stroke-opacity: 0"/>
     <use xlink:href="#mc36260fcc0" x="703.431386" y="281.217294" style="fill-opacity: 0; stroke: #595959; stroke-opacity: 0"/>
     <use xlink:href="#mc36260fcc0" x="723.027505" y="278.560804" style="fill-opacity: 0; stroke: #595959; stroke-opacity: 0"/>
     <use xlink:href="#mc36260fcc0" x="736.091584" y="256.342916" style="fill-opacity: 0; stroke: #595959; stroke-opacity: 0"/>
     <use xlink:href="#mc36260fcc0" x="742.623624" y="310.438647" style="fill-opacity: 0; stroke: #595959; stroke-opacity: 0"/>
     <use xlink:href="#mc36260fcc0" x="749.155663" y="297.156214" style="fill-opacity: 0; stroke: #595959; stroke-opacity: 0"/>
     <use xlink:href="#mc36260fcc0" x="840.604218" y="253.92793" style="fill-opacity: 0; stroke: #595959; stroke-opacity: 0"/>
     <use xlink:href="#mc36260fcc0" x="853.668297" y="294.499727" style="fill-opacity: 0; stroke: #595959; stroke-opacity: 0"/>
     <use xlink:href="#mc36260fcc0" x="866.732376" y="337.72801" style="fill-opacity: 0; stroke: #595959; stroke-opacity: 0"/>
     <use xlink:href="#mc36260fcc0" x="912.456653" y="330.966044" style="fill-opacity: 0; stroke: #595959; stroke-opacity: 0"/>
     <use xlink:href="#mc36260fcc0" x="925.520733" y="336.279017" style="fill-opacity: 0; stroke: #595959; stroke-opacity: 0"/>
     <use xlink:href="#mc36260fcc0" x="932.052772" y="337.969509" style="fill-opacity: 0; stroke: #595959; stroke-opacity: 0"/>
     <use xlink:href="#mc36260fcc0" x="951.648891" y="339.177002" style="fill-opacity: 0; stroke: #595959; stroke-opacity: 0"/>
     <use xlink:href="#mc36260fcc0" x="964.71297" y="311.600921" style="fill-opacity: 0; stroke: #595959; stroke-opacity: 0"/>
     <use xlink:href="#mc36260fcc0" x="971.24501" y="288.456195" style="fill-opacity: 0; stroke: #595959; stroke-opacity: 0"/>
     <use xlink:href="#mc36260fcc0" x="977.77705" y="281.176033" style="fill-opacity: 0; stroke: #595959; stroke-opacity: 0"/>
     <use xlink:href="#mc36260fcc0" x="1016.969287" y="336.762015" style="fill-opacity: 0; stroke: #595959; stroke-opacity: 0"/>
     <use xlink:href="#mc36260fcc0" x="1030.033366" y="336.037518" style="fill-opacity: 0; stroke: #595959; stroke-opacity: 0"/>
     <use xlink:href="#mc36260fcc0" x="1043.097446" y="330.483046" style="fill-opacity: 0; stroke: #595959; stroke-opacity: 0"/>
     <use xlink:href="#mc36260fcc0" x="1056.161525" y="338.694005" style="fill-opacity: 0; stroke: #595959; stroke-opacity: 0"/>
     <use xlink:href="#mc36260fcc0" x="1075.757644" y="333.62253" style="fill-opacity: 0; stroke: #595959; stroke-opacity: 0"/>
     <use xlink:href="#mc36260fcc0" x="1082.289683" y="337.245012" style="fill-opacity: 0; stroke: #595959; stroke-opacity: 0"/>
     <use xlink:href="#mc36260fcc0" x="1095.353762" y="336.762015" style="fill-opacity: 0; stroke: #595959; stroke-opacity: 0"/>
     <use xlink:href="#mc36260fcc0" x="1101.885802" y="334.588525" style="fill-opacity: 0; stroke: #595959; stroke-opacity: 0"/>
     <use xlink:href="#mc36260fcc0" x="1114.949881" y="335.55452" style="fill-opacity: 0; stroke: #595959; stroke-opacity: 0"/>
     <use xlink:href="#mc36260fcc0" x="1128.01396" y="339.177002" style="fill-opacity: 0; stroke: #595959; stroke-opacity: 0"/>
    </g>
   </g>
   <g id="text_17">
    <text style="font-weight: 800; font-size: 20px; font-family: 'Source Sans 3', sans-serif; text-anchor: start" x="474.81" y="33.96" transform="rotate(-0 474.81 33.96)">Streamflow percentile</text>
   </g>
   <g id="legend-pi">
    <g id="patch_11">
     <path d="M 486.01 75.865 
L 811.03 75.865 
Q 814.23 75.865 814.23 72.665 
L 814.23 51.16 
Q 814.23 47.96 811.03 47.96 
L 486.01 47.96 
Q 482.81 47.96 482.81 51.16 
L 482.81 72.665 
Q 482.81 75.865 486.01 75.865 
L 486.01 75.865 
z
" style="fill: none; opacity: 0.8"/>
    </g>
    <g id="line2d_21">
     <path d="M 489.21 60.3125 
L 505.21 60.3125 
L 521.21 60.3125 
" style="fill: none; stroke-dasharray: 1,1.65; stroke-dashoffset: 0; stroke: #883e3a"/>
    </g>
    <g id="text_18">
     <text style="font-weight: 300; font-size: 16px; font-family: 'Source Sans 3', sans-serif; text-anchor: start; fill: #595959" x="534.01" y="65.9125" transform="rotate(-0 534.01 65.9125)">Observations</text>
    </g>
    <g id="line2d_22">
     <g>
      <use xlink:href="#mb99d635c52" x="666.1675" y="60.3125" style="fill-opacity: 0; stroke: #595959"/>
     </g>
    </g>
    <g id="text_19">
     <text style="font-weight: 300; font-size: 16px; font-family: 'Source Sans 3', sans-serif; text-anchor: start; fill: #595959" x="694.9675" y="65.9125" transform="rotate(-0 694.9675 65.9125)">Missed Prediction</text>
    </g>
   </g>
   <g id="legend-pi">
    <g id="patch_12">
     <path d="M 486.01 75.865 
L 811.03 75.865 
Q 814.23 75.865 814.23 72.665 
L 814.23 51.16 
Q 814.23 47.96 811.03 47.96 
L 486.01 47.96 
Q 482.81 47.96 482.81 51.16 
L 482.81 72.665 
Q 482.81 75.865 486.01 75.865 
L 486.01 75.865 
z
" style="fill: none; opacity: 0.8"/>
    </g>
    <g id="line2d_23">
     <path d="M 489.21 60.3125 
L 505.21 60.3125 
L 521.21 60.3125 
" style="fill: none; stroke-dasharray: 1,1.65; stroke-dashoffset: 0; stroke: #883e3a"/>
    </g>
    <g id="text_20">
     <text style="font-weight: 300; font-size: 16px; font-family: 'Source Sans 3', sans-serif; text-anchor: start; fill: #595959" x="534.01" y="65.9125" transform="rotate(-0 534.01 65.9125)">Observations</text>
    </g>
    <g id="line2d_24">
     <g>
      <use xlink:href="#mb99d635c52" x="666.1675" y="60.3125" style="fill-opacity: 0; stroke: #595959"/>
     </g>
    </g>
    <g id="text_21">
     <text style="font-weight: 300; font-size: 16px; font-family: 'Source Sans 3', sans-serif; text-anchor: start; fill: #595959" x="694.9675" y="65.9125" transform="rotate(-0 694.9675 65.9125)">Missed Prediction</text>
    </g>
   </g>
  </g>
 </g>
 <defs>
  <clipPath id="p9eda052676">
   <rect x="74.97" y="39.96" width="329.868" height="299.7"/>
  </clipPath>
  <clipPath id="p2f7be6dec7">
   <rect x="474.81" y="39.96" width="659.736" height="299.7"/>
  </clipPath>
 </defs>
</svg>
