<?xml version="1.0" encoding="utf-8" standalone="no"?>
<!DOCTYPE svg PUBLIC "-//W3C//DTD SVG 1.1//EN"
  "http://www.w3.org/Graphics/SVG/1.1/DTD/svg11.dtd">
<svg xmlns:xlink="http://www.w3.org/1999/xlink" width="399.6px" height="499.68px" viewBox="0 0 399.6 499.68" xmlns="http://www.w3.org/2000/svg" version="1.1">
  <defs>
  <style type="text/css">*{stroke-linejoin: round; stroke-linecap: butt}</style>
 </defs>
 <g id="figure-predictioninterval">
  <g id="patch_1">
   <path d="M 0 499.68 
L 399.6 499.68 
L 399.6 0 
L 0 0 
z
" style="fill: #ffffff"/>
  </g>
  <g id="axis-predictioninterval1">
   <g id="patch_2">
    <path d="M 55.944 199.872 
L 375.624 199.872 
L 375.624 33.47856 
L 55.944 33.47856 
z
" style="fill: #ffffff"/>
   </g>
   <g id="LF-LOWER-MEDIAN">
    <path d="M 55.944 116.67528 
L 215.784 199.872 
L 375.624 116.67528 
" clip-path="url(#p5199a3efa6)" style="fill: none; stroke: #00264c; stroke-opacity: 0; stroke-width: 1.5; stroke-linecap: square"/>
   </g>
   <g id="matplotlib.axis_1">
    <g id="xtick_1">
     <g id="line2d_1">
      <defs>
       <path id="m1bd8379f57" d="M 0 0 
L 0 3.5 
" style="stroke: #949494; stroke-width: 0.8"/>
      </defs>
      <g>
       <use xlink:href="#m1bd8379f57" x="55.944" y="199.872" style="fill: #949494; stroke: #949494; stroke-width: 0.8"/>
      </g>
     </g>
     <g id="text_1">
      <text style="font-weight: 300; font-size: 16px; font-family: 'Source Sans 3', sans-serif; text-anchor: middle; fill: #494949" x="55.944" y="218.4245" transform="rotate(-0 55.944 218.4245)">Lower</text>
     </g>
    </g>
    <g id="xtick_2">
     <g id="line2d_2">
      <g>
       <use xlink:href="#m1bd8379f57" x="215.784" y="199.872" style="fill: #949494; stroke: #949494; stroke-width: 0.8"/>
      </g>
     </g>
     <g id="text_2">
      <text style="font-weight: 300; font-size: 16px; font-family: 'Source Sans 3', sans-serif; text-anchor: middle; fill: #494949" x="215.784" y="218.4245" transform="rotate(-0 215.784 218.4245)">Median</text>
     </g>
    </g>
    <g id="xtick_3">
     <g id="line2d_3">
      <g>
       <use xlink:href="#m1bd8379f57" x="375.624" y="199.872" style="fill: #949494; stroke: #949494; stroke-width: 0.8"/>
      </g>
     </g>
     <g id="text_3">
      <text style="font-weight: 300; font-size: 16px; font-family: 'Source Sans 3', sans-serif; text-anchor: middle; fill: #494949" x="375.624" y="218.4245" transform="rotate(-0 375.624 218.4245)">Upper</text>
     </g>
    </g>
    <g id="text_4">
     <text style="font-weight: 600; font-size: 16px; font-family: 'Source Sans 3', sans-serif; text-anchor: middle; fill: #494949" x="215.784" y="237.5295" transform="rotate(-0 215.784 237.5295)">Estimate</text>
    </g>
   </g>
   <g id="matplotlib.axis_2">
    <g id="ytick_1">
     <g id="line2d_4">
      <defs>
       <path id="m9953fa0b9b" d="M 0 0 
L -3.5 0 
" style="stroke: #949494; stroke-width: 0.8"/>
      </defs>
      <g>
       <use xlink:href="#m9953fa0b9b" x="55.944" y="199.872" style="fill: #949494; stroke: #949494; stroke-width: 0.8"/>
      </g>
     </g>
     <g id="text_5">
      <text style="font-weight: 300; font-size: 16px; font-family: 'Source Sans 3', sans-serif; fill: #494949" transform="translate(21.1365 189.388)">Less</text>
      <text style="font-weight: 300; font-size: 16px; font-family: 'Source Sans 3', sans-serif; fill: #494949" transform="translate(1.1365 206.8035)">Penalty</text>
      <text style="font-weight: 300; font-size: 16px; font-family: 'Source Sans 3', sans-serif; fill: #494949" transform="translate(48.944 224.219)"/>
     </g>
    </g>
    <g id="ytick_2">
     <g id="line2d_5">
      <g>
       <use xlink:href="#m9953fa0b9b" x="55.944" y="116.67528" style="fill: #949494; stroke: #949494; stroke-width: 0.8"/>
      </g>
     </g>
    </g>
    <g id="ytick_3">
     <g id="line2d_6">
      <g>
       <use xlink:href="#m9953fa0b9b" x="55.944" y="33.47856" style="fill: #949494; stroke: #949494; stroke-width: 0.8"/>
      </g>
     </g>
     <g id="text_6">
      <text style="font-weight: 300; font-size: 16px; font-family: 'Source Sans 3', sans-serif; fill: #494949" transform="translate(16.7215 31.70231)">More</text>
      <text style="font-weight: 300; font-size: 16px; font-family: 'Source Sans 3', sans-serif; fill: #494949" transform="translate(1.1365 49.11781)">Penalty</text>
     </g>
    </g>
   </g>
   <g id="LF-LOWER-0">
    <path d="M 55.944 191.552328 
L 215.784 199.872 
L 375.624 41.798232 
" clip-path="url(#p5199a3efa6)" style="fill: none; stroke: #b78935; stroke-opacity: 0; stroke-width: 1.5; stroke-linecap: square"/>
   </g>
   <g id="LF-UPPER-0">
    <path d="M 55.944 41.798232 
L 215.784 199.872 
L 375.624 191.552328 
" clip-path="url(#p5199a3efa6)" style="fill: none; stroke: #406992; stroke-opacity: 0; stroke-width: 1.5; stroke-linecap: square"/>
   </g>
   <g id="LF-LOWER-1">
    <path d="M 55.944 179.07282 
L 215.784 199.872 
L 375.624 54.27774 
" clip-path="url(#p5199a3efa6)" style="fill: none; stroke: #b78935; stroke-opacity: 0; stroke-width: 1.5; stroke-linecap: square"/>
   </g>
   <g id="LF-UPPER-1">
    <path d="M 55.944 54.27774 
L 215.784 199.872 
L 375.624 179.07282 
" clip-path="url(#p5199a3efa6)" style="fill: none; stroke: #406992; stroke-opacity: 0; stroke-width: 1.5; stroke-linecap: square"/>
   </g>
   <g id="LF-LOWER-2">
    <path d="M 55.944 158.27364 
L 215.784 199.872 
L 375.624 75.07692 
" clip-path="url(#p5199a3efa6)" style="fill: none; stroke: #b78935; stroke-opacity: 0; stroke-width: 1.5; stroke-linecap: square"/>
   </g>
   <g id="LF-UPPER-2">
    <path d="M 55.944 75.07692 
L 215.784 199.872 
L 375.624 158.27364 
" clip-path="url(#p5199a3efa6)" style="fill: none; stroke: #406992; stroke-opacity: 0; stroke-width: 1.5; stroke-linecap: square"/>
   </g>
   <g id="patch_3">
    <path d="M 55.944 199.872 
L 55.944 33.47856 
" style="fill: none; stroke: #949494; stroke-width: 0.8; stroke-linejoin: miter; stroke-linecap: square"/>
   </g>
   <g id="patch_4">
    <path d="M 55.944 199.872 
L 375.624 199.872 
" style="fill: none; stroke: #949494; stroke-width: 0.8; stroke-linejoin: miter; stroke-linecap: square"/>
   </g>
   <g id="text_7">
    <text style="font-weight: 800; font-size: 20px; font-family: 'Source Sans 3', sans-serif; text-anchor: start" x="55.944" y="27.47856" transform="rotate(-0 55.944 27.47856)">Loss function</text>
   </g>
  </g>
  <g id="axis-predictioninterval2">
   <g id="patch_5">
    <path d="M 55.944 449.712 
L 375.624 449.712 
L 375.624 283.31856 
L 55.944 283.31856 
z
" style="fill: #ffffff"/>
   </g>
   <g id="PI-PATCH-0">
    <path d="M 55.944 396.416431 
L 55.944 432.191354 
L 59.109149 425.985215 
L 62.274297 434.755979 
L 65.439446 433.299811 
L 68.604594 432.149308 
L 71.769743 435.707012 
L 74.934891 435.351824 
L 78.10004 433.175387 
L 81.265188 432.949635 
L 84.430337 435.637893 
L 87.595485 439.504797 
L 90.760634 436.627777 
L 93.925782 441.743594 
L 97.090931 437.322857 
L 100.256079 435.938959 
L 103.421228 440.046536 
L 106.586376 432.383629 
L 109.751525 432.954713 
L 112.916673 438.103639 
L 116.081822 437.812584 
L 119.24697 433.284052 
L 122.412119 433.334012 
L 125.577267 429.139408 
L 128.742416 430.554154 
L 131.907564 434.183709 
L 135.072713 432.704102 
L 138.237861 435.385832 
L 141.40301 437.564064 
L 144.568158 444.244522 
L 147.733307 443.734773 
L 150.898455 435.891612 
L 154.063604 436.350723 
L 157.228752 430.126785 
L 160.393901 427.226827 
L 163.55905 443.748413 
L 166.724198 449.712 
L 169.889347 449.712 
L 173.054495 449.712 
L 176.219644 449.712 
L 179.384792 449.712 
L 182.549941 444.792203 
L 185.715089 444.262582 
L 188.880238 449.712 
L 192.045386 447.639082 
L 195.210535 448.561387 
L 198.375683 449.712 
L 201.540832 447.528347 
L 204.70598 442.849275 
L 207.871129 444.882189 
L 211.036277 446.160196 
L 214.201426 449.250121 
L 217.366574 449.712 
L 220.531723 449.712 
L 223.696871 449.712 
L 226.86202 449.675846 
L 230.027168 449.712 
L 233.192317 448.761445 
L 236.357465 449.712 
L 239.522614 449.712 
L 242.687762 447.565117 
L 245.852911 449.712 
L 249.018059 447.957737 
L 252.183208 449.712 
L 255.348356 449.712 
L 258.513505 449.712 
L 261.678653 441.211373 
L 264.843802 440.287594 
L 268.00895 449.378968 
L 271.174099 449.712 
L 274.339248 448.747242 
L 277.504396 449.712 
L 280.669545 446.2889 
L 283.834693 431.872266 
L 286.999842 432.669151 
L 290.16499 433.753829 
L 293.330139 443.623739 
L 296.495287 447.752965 
L 299.660436 441.322948 
L 302.825584 431.310946 
L 305.990733 431.671701 
L 309.155881 443.431893 
L 312.32103 435.975099 
L 315.486178 447.915203 
L 318.651327 435.827697 
L 321.816475 448.151828 
L 324.981624 428.805834 
L 328.146772 432.069542 
L 331.311921 421.892341 
L 334.477069 428.24633 
L 337.642218 438.175799 
L 340.807366 426.514845 
L 343.972515 427.534427 
L 347.137663 429.983572 
L 350.302812 434.926491 
L 353.46796 432.55896 
L 356.633109 441.607511 
L 359.798257 449.712 
L 362.963406 449.712 
L 366.128554 449.712 
L 369.293703 446.942555 
L 372.458851 446.889324 
L 375.624 434.582436 
L 378.789149 440.982111 
L 381.954297 446.810915 
L 385.119446 449.521898 
L 3028.018455 433.068448 
L 3031.183604 429.956626 
L 3034.348752 434.212222 
L 3037.513901 433.290567 
L 3040.67905 432.261132 
L 3043.844198 430.734659 
L 3047.009347 433.520024 
L 3050.174495 429.851417 
L 3053.339644 432.924492 
L 3056.504792 439.632073 
L 3059.669941 431.968702 
L 3062.835089 433.368445 
L 3066.000238 442.317132 
L 3069.165386 438.250264 
L 3072.330535 431.871671 
L 3075.495683 431.330739 
L 3078.660832 440.370723 
L 3081.82598 438.5966 
L 3084.991129 441.618002 
L 3088.156277 440.046721 
L 3091.321426 442.764729 
L 3094.486574 435.264522 
L 3097.651723 432.042896 
L 3100.816871 428.417273 
L 3103.98202 428.507865 
L 3107.147168 433.68971 
L 3110.312317 431.141505 
L 3113.477465 433.630498 
L 3116.642614 435.846173 
L 3119.807762 430.666815 
L 3122.972911 433.025647 
L 3126.138059 437.316451 
L 3129.303208 427.09734 
L 3132.468356 433.365762 
L 3135.633505 432.112889 
L 3138.798653 423.666552 
L 3141.963802 424.587882 
L 3145.12895 427.120639 
L 3148.294099 428.149636 
L 3151.459248 427.925838 
L 3154.624396 432.177481 
L 3157.789545 434.217023 
L 3160.954693 432.795262 
L 3164.119842 429.403063 
L 3167.28499 430.59756 
L 3170.450139 433.016297 
L 3173.615287 434.155503 
L 3176.780436 429.641191 
L 3179.945584 426.663207 
L 3183.110733 428.789266 
L 3186.275881 432.706693 
L 3189.44103 426.451918 
L 3192.606178 433.679792 
L 3195.771327 438.002186 
L 3198.936475 432.328351 
L 3202.101624 434.353226 
L 3205.266772 435.857065 
L 3208.431921 428.537544 
L 3211.597069 432.101842 
L 3214.762218 431.877192 
L 3217.927366 435.876327 
L 3221.092515 436.081392 
L 3224.257663 432.874833 
L 3227.422812 438.684017 
L 3230.58796 435.898491 
L 3233.753109 437.501874 
L 3236.918257 418.195257 
L 3240.083406 423.492716 
L 3243.248554 422.599335 
L 3246.413703 422.034774 
L 3249.578851 422.686357 
L 3252.744 434.784828 
L 3255.909149 435.504871 
L 3259.074297 438.393022 
L 3262.239446 434.116514 
L 3265.404594 427.185713 
L 3268.569743 426.945265 
L 3271.734891 429.462534 
L 3274.90004 426.233889 
L 3274.90004 386.293556 
L 3274.90004 386.293556 
L 3271.734891 381.753072 
L 3268.569743 384.331052 
L 3265.404594 390.389264 
L 3262.239446 396.011872 
L 3259.074297 399.200612 
L 3255.909149 396.561231 
L 3252.744 396.539463 
L 3249.578851 385.183407 
L 3246.413703 384.735115 
L 3243.248554 385.464718 
L 3240.083406 384.654294 
L 3236.918257 380.016873 
L 3233.753109 394.676289 
L 3230.58796 397.985808 
L 3227.422812 393.276604 
L 3224.257663 387.520878 
L 3221.092515 397.692662 
L 3217.927366 392.231967 
L 3214.762218 390.133692 
L 3211.597069 389.7982 
L 3208.431921 390.0092 
L 3205.266772 392.173304 
L 3202.101624 391.999671 
L 3198.936475 391.144802 
L 3195.771327 393.848664 
L 3192.606178 392.218637 
L 3189.44103 390.123022 
L 3186.275881 397.035858 
L 3183.110733 389.573534 
L 3179.945584 392.418447 
L 3176.780436 393.622728 
L 3173.615287 393.465661 
L 3170.450139 394.06419 
L 3167.28499 393.790299 
L 3164.119842 393.298198 
L 3160.954693 394.002753 
L 3157.789545 393.130518 
L 3154.624396 391.516259 
L 3151.459248 392.129158 
L 3148.294099 392.556249 
L 3145.12895 390.942282 
L 3141.963802 389.350765 
L 3138.798653 392.077477 
L 3135.633505 398.740495 
L 3132.468356 392.292718 
L 3129.303208 389.546836 
L 3126.138059 401.517743 
L 3122.972911 389.887279 
L 3119.807762 387.646537 
L 3116.642614 384.314232 
L 3113.477465 382.780178 
L 3110.312317 388.915815 
L 3107.147168 398.921707 
L 3103.98202 394.747311 
L 3100.816871 393.540624 
L 3097.651723 391.751525 
L 3094.486574 394.753093 
L 3091.321426 394.609572 
L 3088.156277 392.482347 
L 3084.991129 395.329126 
L 3081.82598 390.859727 
L 3078.660832 394.288869 
L 3075.495683 388.562316 
L 3072.330535 388.999449 
L 3069.165386 393.358904 
L 3066.000238 393.697424 
L 3062.835089 389.620276 
L 3059.669941 386.841051 
L 3056.504792 395.429263 
L 3053.339644 392.165605 
L 3050.174495 388.874665 
L 3047.009347 392.691316 
L 3043.844198 392.780338 
L 3040.67905 398.638708 
L 3037.513901 400.270871 
L 3034.348752 401.398799 
L 3031.183604 396.757988 
L 3028.018455 399.161843 
L 385.119446 416.58181 
L 381.954297 414.869781 
L 378.789149 409.110129 
L 375.624 402.856357 
L 372.458851 414.814784 
L 369.293703 416.599957 
L 366.128554 422.192174 
L 362.963406 423.657996 
L 359.798257 419.405469 
L 356.633109 412.023147 
L 353.46796 404.998793 
L 350.302812 406.492224 
L 347.137663 401.336521 
L 343.972515 395.34907 
L 340.807366 393.576512 
L 337.642218 407.177744 
L 334.477069 396.220931 
L 331.311921 386.068045 
L 328.146772 401.279258 
L 324.981624 394.52053 
L 321.816475 412.643701 
L 318.651327 400.755241 
L 315.486178 411.814435 
L 312.32103 401.13122 
L 309.155881 406.918608 
L 305.990733 388.338284 
L 302.825584 394.113135 
L 299.660436 406.03562 
L 296.495287 413.599608 
L 293.330139 408.728561 
L 290.16499 399.293072 
L 286.999842 398.555691 
L 283.834693 397.638957 
L 280.669545 413.395945 
L 277.504396 417.524504 
L 274.339248 413.257454 
L 271.174099 413.826588 
L 268.00895 414.389701 
L 264.843802 406.765803 
L 261.678653 406.991479 
L 258.513505 418.121601 
L 255.348356 416.393869 
L 252.183208 418.749893 
L 249.018059 412.361486 
L 245.852911 415.197881 
L 242.687762 413.259025 
L 239.522614 417.099469 
L 236.357465 418.112664 
L 233.192317 414.936337 
L 230.027168 417.834023 
L 226.86202 415.856666 
L 223.696871 417.566787 
L 220.531723 419.525146 
L 217.366574 421.798244 
L 214.201426 416.554639 
L 211.036277 413.810199 
L 207.871129 413.857906 
L 204.70598 412.940915 
L 201.540832 417.214002 
L 198.375683 419.631516 
L 195.210535 417.99717 
L 192.045386 417.784243 
L 188.880238 420.16187 
L 185.715089 414.986532 
L 182.549941 413.60963 
L 179.384792 423.765109 
L 176.219644 420.440233 
L 173.054495 421.898194 
L 169.889347 418.920048 
L 166.724198 422.320791 
L 163.55905 412.447538 
L 160.393901 394.752084 
L 157.228752 400.07962 
L 154.063604 404.855209 
L 150.898455 400.593287 
L 147.733307 407.539841 
L 144.568158 407.776399 
L 141.40301 400.242669 
L 138.237861 390.93523 
L 135.072713 384.399611 
L 131.907564 399.678194 
L 128.742416 395.88057 
L 125.577267 392.934377 
L 122.412119 391.555587 
L 119.24697 389.134115 
L 116.081822 393.55344 
L 112.916673 391.487937 
L 109.751525 391.37336 
L 106.586376 391.090386 
L 103.421228 393.194938 
L 100.256079 389.002883 
L 97.090931 390.966491 
L 93.925782 392.365161 
L 90.760634 393.955427 
L 87.595485 392.988863 
L 84.430337 391.733765 
L 81.265188 389.301534 
L 78.10004 391.231749 
L 74.934891 395.428336 
L 71.769743 393.938023 
L 68.604594 390.35012 
L 65.439446 392.839978 
L 62.274297 392.868161 
L 59.109149 389.171851 
L 55.944 396.416431 
z
" clip-path="url(#pb45791bca3)" style="fill: #e6e6e6; fill-opacity: 0.00001"/>
   </g>
   <g id="PI-PATCH-LOWER-0">
    <path d="M 55.944 432.191354 
L 59.109149 425.985215 
L 62.274297 434.755979 
L 65.439446 433.299811 
L 68.604594 432.149308 
L 71.769743 435.707012 
L 74.934891 435.351824 
L 78.10004 433.175387 
L 81.265188 432.949635 
L 84.430337 435.637893 
L 87.595485 439.504797 
L 90.760634 436.627777 
L 93.925782 441.743594 
L 97.090931 437.322857 
L 100.256079 435.938959 
L 103.421228 440.046536 
L 106.586376 432.383629 
L 109.751525 432.954713 
L 112.916673 438.103639 
L 116.081822 437.812584 
L 119.24697 433.284052 
L 122.412119 433.334012 
L 125.577267 429.139408 
L 128.742416 430.554154 
L 131.907564 434.183709 
L 135.072713 432.704102 
L 138.237861 435.385832 
L 141.40301 437.564064 
L 144.568158 444.244522 
L 147.733307 443.734773 
L 150.898455 435.891612 
L 154.063604 436.350723 
L 157.228752 430.126785 
L 160.393901 427.226827 
L 163.55905 443.748413 
L 166.724198 449.712 
L 179.384792 449.712 
L 182.549941 444.792203 
L 185.715089 444.262582 
L 188.880238 449.712 
L 192.045386 447.639082 
L 195.210535 448.561387 
L 198.375683 449.712 
L 201.540832 447.528347 
L 204.70598 442.849275 
L 207.871129 444.882189 
L 211.036277 446.160196 
L 214.201426 449.250121 
L 217.366574 449.712 
L 230.027168 449.712 
L 233.192317 448.761445 
L 236.357465 449.712 
L 239.522614 449.712 
L 242.687762 447.565117 
L 245.852911 449.712 
L 249.018059 447.957737 
L 252.183208 449.712 
L 258.513505 449.712 
L 261.678653 441.211373 
L 264.843802 440.287594 
L 268.00895 449.378968 
L 271.174099 449.712 
L 274.339248 448.747242 
L 277.504396 449.712 
L 280.669545 446.2889 
L 283.834693 431.872266 
L 286.999842 432.669151 
L 290.16499 433.753829 
L 293.330139 443.623739 
L 296.495287 447.752965 
L 299.660436 441.322948 
L 302.825584 431.310946 
L 305.990733 431.671701 
L 309.155881 443.431893 
L 312.32103 435.975099 
L 315.486178 447.915203 
L 318.651327 435.827697 
L 321.816475 448.151828 
L 324.981624 428.805834 
L 328.146772 432.069542 
L 331.311921 421.892341 
L 334.477069 428.24633 
L 337.642218 438.175799 
L 340.807366 426.514845 
L 343.972515 427.534427 
L 347.137663 429.983572 
L 350.302812 434.926491 
L 353.46796 432.55896 
L 356.633109 441.607511 
L 359.798257 449.712 
L 366.128554 449.712 
L 369.293703 446.942555 
L 372.458851 446.889324 
L 375.624 434.582436 
L 378.789149 440.982111 
L 381.954297 446.810915 
L 385.119446 449.521898 
L 400.6 449.425523 
L 400.6 449.425523 
" clip-path="url(#pb45791bca3)" style="fill: none; stroke: #b78935; stroke-opacity: 0; stroke-width: 1.5; stroke-linecap: square"/>
   </g>
   <g id="PI-PATCH-UPPER-0">
    <path d="M 55.944 396.416431 
L 59.109149 389.171851 
L 62.274297 392.868161 
L 65.439446 392.839978 
L 68.604594 390.35012 
L 71.769743 393.938023 
L 74.934891 395.428336 
L 78.10004 391.231749 
L 81.265188 389.301534 
L 84.430337 391.733765 
L 87.595485 392.988863 
L 90.760634 393.955427 
L 93.925782 392.365161 
L 97.090931 390.966491 
L 100.256079 389.002883 
L 103.421228 393.194938 
L 106.586376 391.090386 
L 109.751525 391.37336 
L 112.916673 391.487937 
L 116.081822 393.55344 
L 119.24697 389.134115 
L 122.412119 391.555587 
L 125.577267 392.934377 
L 128.742416 395.88057 
L 131.907564 399.678194 
L 135.072713 384.399611 
L 138.237861 390.93523 
L 141.40301 400.242669 
L 144.568158 407.776399 
L 147.733307 407.539841 
L 150.898455 400.593287 
L 154.063604 404.855209 
L 157.228752 400.07962 
L 160.393901 394.752084 
L 163.55905 412.447538 
L 166.724198 422.320791 
L 169.889347 418.920048 
L 173.054495 421.898194 
L 176.219644 420.440233 
L 179.384792 423.765109 
L 182.549941 413.60963 
L 185.715089 414.986532 
L 188.880238 420.16187 
L 192.045386 417.784243 
L 195.210535 417.99717 
L 198.375683 419.631516 
L 201.540832 417.214002 
L 204.70598 412.940915 
L 207.871129 413.857906 
L 211.036277 413.810199 
L 214.201426 416.554639 
L 217.366574 421.798244 
L 220.531723 419.525146 
L 223.696871 417.566787 
L 226.86202 415.856666 
L 230.027168 417.834023 
L 233.192317 414.936337 
L 236.357465 418.112664 
L 239.522614 417.099469 
L 242.687762 413.259025 
L 245.852911 415.197881 
L 249.018059 412.361486 
L 252.183208 418.749893 
L 255.348356 416.393869 
L 258.513505 418.121601 
L 261.678653 406.991479 
L 264.843802 406.765803 
L 268.00895 414.389701 
L 274.339248 413.257454 
L 277.504396 417.524504 
L 280.669545 413.395945 
L 283.834693 397.638957 
L 286.999842 398.555691 
L 290.16499 399.293072 
L 293.330139 408.728561 
L 296.495287 413.599608 
L 299.660436 406.03562 
L 302.825584 394.113135 
L 305.990733 388.338284 
L 309.155881 406.918608 
L 312.32103 401.13122 
L 315.486178 411.814435 
L 318.651327 400.755241 
L 321.816475 412.643701 
L 324.981624 394.52053 
L 328.146772 401.279258 
L 331.311921 386.068045 
L 334.477069 396.220931 
L 337.642218 407.177744 
L 340.807366 393.576512 
L 343.972515 395.34907 
L 347.137663 401.336521 
L 350.302812 406.492224 
L 353.46796 404.998793 
L 356.633109 412.023147 
L 359.798257 419.405469 
L 362.963406 423.657996 
L 366.128554 422.192174 
L 369.293703 416.599957 
L 372.458851 414.814784 
L 375.624 402.856357 
L 378.789149 409.110129 
L 381.954297 414.869781 
L 385.119446 416.58181 
L 400.6 416.479774 
L 400.6 416.479774 
" clip-path="url(#pb45791bca3)" style="fill: none; stroke: #406992; stroke-opacity: 0; stroke-width: 1.5; stroke-linecap: square"/>
   </g>
   <g id="PI-PATCH-1">
    <path d="M 55.944 402.358909 
L 55.944 426.344641 
L 59.109149 419.90175 
L 62.274297 428.563725 
L 65.439446 427.160369 
L 68.604594 425.726444 
L 71.769743 429.595118 
L 74.934891 429.770891 
L 78.10004 427.186337 
L 81.265188 426.536821 
L 84.430337 429.344555 
L 87.595485 432.922534 
L 90.760634 430.512388 
L 93.925782 434.938601 
L 97.090931 430.640777 
L 100.256079 429.047422 
L 103.421228 433.418954 
L 106.586376 426.207525 
L 109.751525 426.793087 
L 112.916673 431.516213 
L 116.081822 431.464077 
L 119.24697 426.763915 
L 122.412119 427.116697 
L 125.577267 423.67857 
L 128.742416 425.535839 
L 131.907564 429.660717 
L 135.072713 425.990946 
L 138.237861 428.987421 
L 141.40301 432.320241 
L 144.568158 440.769732 
L 147.733307 440.137281 
L 150.898455 430.807571 
L 154.063604 431.942762 
L 157.228752 425.740691 
L 160.393901 421.949341 
L 163.55905 440.728637 
L 166.724198 448.617394 
L 169.889347 447.838221 
L 173.054495 448.257951 
L 176.219644 447.595339 
L 179.384792 448.553846 
L 182.549941 441.235931 
L 185.715089 440.609767 
L 188.880238 447.103212 
L 192.045386 444.649763 
L 195.210535 445.814947 
L 198.375683 447.832404 
L 201.540832 444.678164 
L 204.70598 439.319061 
L 207.871129 441.705688 
L 211.036277 443.334224 
L 214.201426 446.703325 
L 217.366574 448.84583 
L 220.531723 447.508707 
L 223.696871 447.7358 
L 226.86202 447.243382 
L 230.027168 447.873502 
L 233.192317 446.198842 
L 236.357465 447.837724 
L 239.522614 447.486129 
L 242.687762 444.695308 
L 245.852911 447.049157 
L 249.018059 445.128429 
L 252.183208 448.710407 
L 255.348356 447.470493 
L 258.513505 447.943628 
L 261.678653 437.47437 
L 264.843802 436.383779 
L 268.00895 446.290665 
L 271.174099 446.92441 
L 274.339248 445.730727 
L 277.504396 447.747728 
L 280.669545 443.204817 
L 283.834693 426.90404 
L 286.999842 427.696157 
L 290.16499 429.220746 
L 293.330139 440.116247 
L 296.495287 444.719592 
L 299.660436 437.620315 
L 302.825584 425.533287 
L 305.990733 425.172607 
L 309.155881 439.120801 
L 312.32103 430.880987 
L 315.486178 444.100196 
L 318.651327 430.630109 
L 321.816475 444.680563 
L 324.981624 423.33894 
L 328.146772 427.034123 
L 331.311921 415.029286 
L 334.477069 422.347765 
L 337.642218 434.10914 
L 340.807366 420.389429 
L 343.972515 421.390383 
L 347.137663 425.038537 
L 350.302812 430.861559 
L 353.46796 428.263702 
L 356.633109 438.312626 
L 359.798257 447.579308 
L 362.963406 449.061016 
L 366.128554 448.334209 
L 369.293703 444.065476 
L 372.458851 444.067322 
L 375.624 430.042656 
L 378.789149 436.852689 
L 381.954297 443.802614 
L 385.119446 446.989893 
L 3028.018455 428.673689 
L 3031.183604 425.119343 
L 3034.348752 429.866455 
L 3037.513901 428.95972 
L 3040.67905 427.37637 
L 3043.844198 425.053055 
L 3047.009347 427.606954 
L 3050.174495 423.6263 
L 3053.339644 426.848786 
L 3056.504792 433.482767 
L 3059.669941 425.119891 
L 3062.835089 426.791648 
L 3066.000238 435.571043 
L 3069.165386 431.804096 
L 3072.330535 425.392966 
L 3075.495683 424.860553 
L 3078.660832 433.951714 
L 3081.82598 431.853248 
L 3084.991129 435.241829 
L 3088.156277 433.462875 
L 3091.321426 436.313681 
L 3094.486574 429.578498 
L 3097.651723 426.300189 
L 3100.816871 423.119309 
L 3103.98202 423.790554 
L 3107.147168 429.240402 
L 3110.312317 425.089989 
L 3113.477465 426.689554 
L 3116.642614 428.573936 
L 3119.807762 423.667728 
L 3122.972911 426.302898 
L 3126.138059 432.635477 
L 3129.303208 421.154471 
L 3132.468356 427.363008 
L 3135.633505 426.801578 
L 3138.798653 417.682956 
L 3141.963802 418.299426 
L 3145.12895 420.609672 
L 3148.294099 421.821858 
L 3151.459248 421.418883 
L 3154.624396 424.863004 
L 3157.789545 426.827031 
L 3160.954693 425.692131 
L 3164.119842 422.658824 
L 3167.28499 423.82158 
L 3170.450139 426.160052 
L 3173.615287 427.076855 
L 3176.780436 423.300868 
L 3179.945584 420.688763 
L 3183.110733 422.279002 
L 3186.275881 427.200943 
L 3189.44103 420.413233 
L 3192.606178 427.381366 
L 3195.771327 431.600254 
L 3198.936475 426.011206 
L 3202.101624 428.018434 
L 3205.266772 429.574584 
L 3208.431921 422.778222 
L 3211.597069 425.803675 
L 3214.762218 425.543287 
L 3217.927366 429.520249 
L 3221.092515 431.562157 
L 3224.257663 426.360554 
L 3227.422812 432.464771 
L 3230.58796 431.341168 
L 3233.753109 431.469185 
L 3236.918257 412.058296 
L 3240.083406 417.407662 
L 3243.248554 416.776542 
L 3246.413703 416.037304 
L 3249.578851 416.614085 
L 3252.744 430.142569 
L 3255.909149 430.822396 
L 3259.074297 433.975281 
L 3262.239446 429.1688 
L 3265.404594 421.472153 
L 3268.569743 420.351317 
L 3271.734891 422.17882 
L 3274.90004 419.686993 
L 3274.90004 392.900379 
L 3274.90004 392.900379 
L 3271.734891 390.406337 
L 3268.569743 391.935174 
L 3265.404594 396.927131 
L 3262.239446 404.156704 
L 3259.074297 408.530099 
L 3255.909149 405.416186 
L 3252.744 405.173594 
L 3249.578851 391.49357 
L 3246.413703 391.070492 
L 3243.248554 391.982204 
L 3240.083406 391.477764 
L 3236.918257 386.504055 
L 3233.753109 403.160693 
L 3230.58796 406.608036 
L 3227.422812 402.523782 
L 3224.257663 396.328266 
L 3221.092515 406.55836 
L 3217.927366 400.583453 
L 3214.762218 397.760204 
L 3211.597069 397.69831 
L 3208.431921 397.171341 
L 3205.266772 400.644871 
L 3202.101624 399.867689 
L 3198.936475 398.572262 
L 3195.771327 402.33772 
L 3192.606178 399.783121 
L 3189.44103 396.013628 
L 3186.275881 403.420584 
L 3183.110733 395.943973 
L 3179.945584 397.570819 
L 3176.780436 398.961913 
L 3173.615287 399.616433 
L 3170.450139 399.838934 
L 3167.28499 398.825383 
L 3164.119842 398.098796 
L 3160.954693 399.36377 
L 3157.789545 398.997483 
L 3154.624396 397.321108 
L 3151.459248 397.143714 
L 3148.294099 397.744076 
L 3145.12895 396.103031 
L 3141.963802 394.452598 
L 3138.798653 396.160063 
L 3135.633505 404.486399 
L 3132.468356 400.12218 
L 3129.303208 396.059487 
L 3126.138059 409.123333 
L 3122.972911 397.517274 
L 3119.807762 394.837544 
L 3116.642614 394.504894 
L 3113.477465 393.169549 
L 3110.312317 397.13479 
L 3107.147168 406.445766 
L 3103.98202 401.490292 
L 3100.816871 399.904064 
L 3097.651723 399.638815 
L 3094.486574 402.808359 
L 3091.321426 404.621366 
L 3088.156277 402.070666 
L 3084.991129 404.704466 
L 3081.82598 400.290425 
L 3078.660832 403.521062 
L 3075.495683 396.403365 
L 3072.330535 396.869719 
L 3069.165386 402.078826 
L 3066.000238 403.475555 
L 3062.835089 397.699974 
L 3059.669941 395.083837 
L 3056.504792 404.296294 
L 3053.339644 399.766565 
L 3050.174495 396.350377 
L 3047.009347 400.550765 
L 3043.844198 399.824299 
L 3040.67905 405.089185 
L 3037.513901 407.267249 
L 3034.348752 408.291928 
L 3031.183604 403.107176 
L 3028.018455 406.420497 
L 385.119446 426.098239 
L 381.954297 423.313041 
L 378.789149 415.935516 
L 375.624 409.041574 
L 372.458851 423.575404 
L 369.293703 424.593239 
L 366.128554 431.188962 
L 362.963406 433.10248 
L 359.798257 428.440341 
L 356.633109 419.122022 
L 353.46796 409.873091 
L 350.302812 412.041088 
L 347.137663 405.721599 
L 343.972515 399.44134 
L 340.807366 397.994845 
L 337.642218 413.744392 
L 334.477069 400.597768 
L 331.311921 390.588448 
L 328.146772 406.389001 
L 324.981624 400.409017 
L 321.816475 421.849677 
L 318.651327 407.338989 
L 315.486178 420.768635 
L 312.32103 407.770792 
L 309.155881 415.333249 
L 305.990733 396.36316 
L 302.825584 400.719793 
L 299.660436 414.825526 
L 296.495287 422.887634 
L 293.330139 417.63923 
L 290.16499 406.576026 
L 286.999842 405.07641 
L 283.834693 404.214133 
L 280.669545 422.110473 
L 277.504396 427.546798 
L 274.339248 423.101214 
L 271.174099 424.152521 
L 268.00895 423.93245 
L 264.843802 414.567749 
L 261.678653 415.307856 
L 258.513505 428.184178 
L 255.348356 426.47282 
L 252.183208 429.650154 
L 249.018059 422.513172 
L 245.852911 425.155081 
L 242.687762 422.839853 
L 239.522614 426.919814 
L 236.357465 428.028569 
L 233.192317 424.761545 
L 230.027168 427.911563 
L 226.86202 425.864124 
L 223.696871 427.555335 
L 220.531723 428.412243 
L 217.366574 431.677548 
L 214.201426 425.952749 
L 211.036277 422.674802 
L 207.871129 421.697716 
L 204.70598 419.834899 
L 201.540832 425.234194 
L 198.375683 428.935462 
L 195.210535 426.263961 
L 192.045386 425.42421 
L 188.880238 428.220379 
L 185.715089 421.45498 
L 182.549941 420.973709 
L 179.384792 432.447527 
L 176.219644 429.086072 
L 173.054495 430.903794 
L 169.889347 428.515367 
L 166.724198 431.668106 
L 163.55905 420.619736 
L 160.393901 400.18876 
L 157.228752 405.81474 
L 154.063604 411.135666 
L 150.898455 407.427988 
L 147.733307 416.840066 
L 144.568158 417.359396 
L 141.40301 407.655773 
L 138.237861 399.547502 
L 135.072713 394.099021 
L 131.907564 406.993274 
L 128.742416 402.559896 
L 125.577267 399.595391 
L 122.412119 399.361384 
L 119.24697 397.454067 
L 116.081822 402.160313 
L 112.916673 400.693664 
L 109.751525 399.179731 
L 106.586376 398.761568 
L 103.421228 402.437573 
L 100.256079 397.904705 
L 97.090931 399.934747 
L 93.925782 402.361661 
L 90.760634 402.261539 
L 87.595485 402.162211 
L 84.430337 400.277623 
L 81.265188 397.574027 
L 78.10004 399.427093 
L 74.934891 403.398713 
L 71.769743 401.889609 
L 68.604594 397.872599 
L 65.439446 400.231521 
L 62.274297 400.75304 
L 59.109149 395.191723 
L 55.944 402.358909 
z
" clip-path="url(#pb45791bca3)" style="fill: #bfbfbf; fill-opacity: 0.00001"/>
   </g>
   <g id="PI-PATCH-LOWER-1">
    <path d="M 55.944 426.344641 
L 59.109149 419.90175 
L 62.274297 428.563725 
L 68.604594 425.726444 
L 71.769743 429.595118 
L 74.934891 429.770891 
L 78.10004 427.186337 
L 81.265188 426.536821 
L 84.430337 429.344555 
L 87.595485 432.922534 
L 90.760634 430.512388 
L 93.925782 434.938601 
L 97.090931 430.640777 
L 100.256079 429.047422 
L 103.421228 433.418954 
L 106.586376 426.207525 
L 109.751525 426.793087 
L 112.916673 431.516213 
L 116.081822 431.464077 
L 119.24697 426.763915 
L 122.412119 427.116697 
L 125.577267 423.67857 
L 128.742416 425.535839 
L 131.907564 429.660717 
L 135.072713 425.990946 
L 138.237861 428.987421 
L 141.40301 432.320241 
L 144.568158 440.769732 
L 147.733307 440.137281 
L 150.898455 430.807571 
L 154.063604 431.942762 
L 157.228752 425.740691 
L 160.393901 421.949341 
L 163.55905 440.728637 
L 166.724198 448.617394 
L 169.889347 447.838221 
L 173.054495 448.257951 
L 176.219644 447.595339 
L 179.384792 448.553846 
L 182.549941 441.235931 
L 185.715089 440.609767 
L 188.880238 447.103212 
L 192.045386 444.649763 
L 195.210535 445.814947 
L 198.375683 447.832404 
L 201.540832 444.678164 
L 204.70598 439.319061 
L 207.871129 441.705688 
L 211.036277 443.334224 
L 214.201426 446.703325 
L 217.366574 448.84583 
L 220.531723 447.508707 
L 223.696871 447.7358 
L 226.86202 447.243382 
L 230.027168 447.873502 
L 233.192317 446.198842 
L 236.357465 447.837724 
L 239.522614 447.486129 
L 242.687762 444.695308 
L 245.852911 447.049157 
L 249.018059 445.128429 
L 252.183208 448.710407 
L 255.348356 447.470493 
L 258.513505 447.943628 
L 261.678653 437.47437 
L 264.843802 436.383779 
L 268.00895 446.290665 
L 271.174099 446.92441 
L 274.339248 445.730727 
L 277.504396 447.747728 
L 280.669545 443.204817 
L 283.834693 426.90404 
L 286.999842 427.696157 
L 290.16499 429.220746 
L 293.330139 440.116247 
L 296.495287 444.719592 
L 299.660436 437.620315 
L 302.825584 425.533287 
L 305.990733 425.172607 
L 309.155881 439.120801 
L 312.32103 430.880987 
L 315.486178 444.100196 
L 318.651327 430.630109 
L 321.816475 444.680563 
L 324.981624 423.33894 
L 328.146772 427.034123 
L 331.311921 415.029286 
L 334.477069 422.347765 
L 337.642218 434.10914 
L 340.807366 420.389429 
L 343.972515 421.390383 
L 347.137663 425.038537 
L 350.302812 430.861559 
L 353.46796 428.263702 
L 356.633109 438.312626 
L 359.798257 447.579308 
L 362.963406 449.061016 
L 366.128554 448.334209 
L 369.293703 444.065476 
L 372.458851 444.067322 
L 375.624 430.042656 
L 381.954297 443.802614 
L 385.119446 446.989893 
L 400.6 446.882608 
L 400.6 446.882608 
" clip-path="url(#pb45791bca3)" style="fill: none; stroke: #b78935; stroke-opacity: 0; stroke-width: 1.5; stroke-linecap: square"/>
   </g>
   <g id="PI-PATCH-UPPER-1">
    <path d="M 55.944 402.358909 
L 59.109149 395.191723 
L 62.274297 400.75304 
L 65.439446 400.231521 
L 68.604594 397.872599 
L 71.769743 401.889609 
L 74.934891 403.398713 
L 78.10004 399.427093 
L 81.265188 397.574027 
L 84.430337 400.277623 
L 87.595485 402.162211 
L 93.925782 402.361661 
L 97.090931 399.934747 
L 100.256079 397.904705 
L 103.421228 402.437573 
L 106.586376 398.761568 
L 109.751525 399.179731 
L 116.081822 402.160313 
L 119.24697 397.454067 
L 122.412119 399.361384 
L 125.577267 399.595391 
L 128.742416 402.559896 
L 131.907564 406.993274 
L 135.072713 394.099021 
L 138.237861 399.547502 
L 141.40301 407.655773 
L 144.568158 417.359396 
L 147.733307 416.840066 
L 150.898455 407.427988 
L 154.063604 411.135666 
L 157.228752 405.81474 
L 160.393901 400.18876 
L 163.55905 420.619736 
L 166.724198 431.668106 
L 169.889347 428.515367 
L 173.054495 430.903794 
L 176.219644 429.086072 
L 179.384792 432.447527 
L 182.549941 420.973709 
L 185.715089 421.45498 
L 188.880238 428.220379 
L 192.045386 425.42421 
L 195.210535 426.263961 
L 198.375683 428.935462 
L 201.540832 425.234194 
L 204.70598 419.834899 
L 207.871129 421.697716 
L 211.036277 422.674802 
L 214.201426 425.952749 
L 217.366574 431.677548 
L 220.531723 428.412243 
L 223.696871 427.555335 
L 226.86202 425.864124 
L 230.027168 427.911563 
L 233.192317 424.761545 
L 236.357465 428.028569 
L 239.522614 426.919814 
L 242.687762 422.839853 
L 245.852911 425.155081 
L 249.018059 422.513172 
L 252.183208 429.650154 
L 255.348356 426.47282 
L 258.513505 428.184178 
L 261.678653 415.307856 
L 264.843802 414.567749 
L 268.00895 423.93245 
L 271.174099 424.152521 
L 274.339248 423.101214 
L 277.504396 427.546798 
L 280.669545 422.110473 
L 283.834693 404.214133 
L 286.999842 405.07641 
L 290.16499 406.576026 
L 293.330139 417.63923 
L 296.495287 422.887634 
L 299.660436 414.825526 
L 302.825584 400.719793 
L 305.990733 396.36316 
L 309.155881 415.333249 
L 312.32103 407.770792 
L 315.486178 420.768635 
L 318.651327 407.338989 
L 321.816475 421.849677 
L 324.981624 400.409017 
L 328.146772 406.389001 
L 331.311921 390.588448 
L 334.477069 400.597768 
L 337.642218 413.744392 
L 340.807366 397.994845 
L 343.972515 399.44134 
L 350.302812 412.041088 
L 353.46796 409.873091 
L 359.798257 428.440341 
L 362.963406 433.10248 
L 366.128554 431.188962 
L 369.293703 424.593239 
L 372.458851 423.575404 
L 375.624 409.041574 
L 378.789149 415.935516 
L 381.954297 423.313041 
L 385.119446 426.098239 
L 400.6 425.982978 
L 400.6 425.982978 
" clip-path="url(#pb45791bca3)" style="fill: none; stroke: #406992; stroke-opacity: 0; stroke-width: 1.5; stroke-linecap: square"/>
   </g>
   <g id="PI-PATCH-2">
    <path d="M 55.944 406.85422 
L 55.944 421.698377 
L 59.109149 415.067344 
L 62.274297 423.642865 
L 65.439446 422.281479 
L 68.604594 420.622323 
L 71.769743 424.738119 
L 74.934891 425.335836 
L 78.10004 422.426959 
L 81.265188 421.440687 
L 84.430337 424.343367 
L 87.595485 427.691742 
L 90.760634 425.652613 
L 93.925782 429.530811 
L 97.090931 425.330663 
L 100.256079 423.570857 
L 103.421228 428.152148 
L 106.586376 421.299499 
L 109.751525 421.896568 
L 112.916673 426.28132 
L 116.081822 426.419046 
L 119.24697 421.582494 
L 122.412119 422.175923 
L 125.577267 419.338952 
L 128.742416 421.547886 
L 131.907564 426.066386 
L 135.072713 420.656137 
L 138.237861 423.902734 
L 141.40301 428.153081 
L 144.568158 438.008386 
L 147.733307 437.278426 
L 150.898455 426.767387 
L 154.063604 428.439845 
L 157.228752 422.255151 
L 160.393901 417.75543 
L 163.55905 438.328882 
L 166.724198 447.747532 
L 169.889347 446.349167 
L 173.054495 447.102448 
L 176.219644 445.913271 
L 179.384792 447.633485 
L 182.549941 438.409832 
L 185.715089 437.706949 
L 188.880238 445.03006 
L 192.045386 442.274212 
L 195.210535 443.632408 
L 198.375683 446.338728 
L 201.540832 442.413181 
L 204.70598 436.513672 
L 207.871129 439.181387 
L 211.036277 441.088481 
L 214.201426 444.679438 
L 217.366574 448.157502 
L 220.531723 445.757794 
L 223.696871 446.165354 
L 226.86202 445.310353 
L 230.027168 446.412485 
L 233.192317 444.162392 
L 236.357465 446.348275 
L 239.522614 445.717275 
L 242.687762 442.414728 
L 245.852911 444.933049 
L 249.018059 442.880035 
L 252.183208 447.914461 
L 255.348356 445.689214 
L 258.513505 446.538338 
L 261.678653 434.50465 
L 264.843802 433.281497 
L 268.00895 443.836454 
L 271.174099 444.709169 
L 274.339248 443.333564 
L 277.504396 446.18676 
L 280.669545 440.753959 
L 283.834693 422.955891 
L 286.999842 423.744219 
L 290.16499 425.618396 
L 293.330139 437.328913 
L 296.495287 442.309031 
L 299.660436 434.677907 
L 302.825584 420.941899 
L 305.990733 420.007909 
L 309.155881 435.694864 
L 312.32103 426.832798 
L 315.486178 441.068487 
L 318.651327 426.499692 
L 321.816475 441.922018 
L 324.981624 418.99451 
L 328.146772 423.032577 
L 331.311921 409.575355 
L 334.477069 417.660294 
L 337.642218 430.877449 
L 340.807366 415.521684 
L 343.972515 416.507836 
L 347.137663 421.108818 
L 350.302812 427.63124 
L 353.46796 424.850347 
L 356.633109 435.694247 
L 359.798257 445.884501 
L 362.963406 448.543692 
L 366.128554 447.239306 
L 369.293703 441.779119 
L 372.458851 441.824734 
L 375.624 426.434985 
L 378.789149 433.571121 
L 381.954297 441.411978 
L 385.119446 444.977761 
L 3028.018455 425.181264 
L 3031.183604 421.275252 
L 3034.348752 426.412962 
L 3037.513901 425.518083 
L 3040.67905 423.494548 
L 3043.844198 420.537999 
L 3047.009347 422.907956 
L 3050.174495 418.679325 
L 3053.339644 422.020545 
L 3056.504792 428.596038 
L 3059.669941 419.67728 
L 3062.835089 421.565201 
L 3066.000238 430.210063 
L 3069.165386 426.681457 
L 3072.330535 420.24447 
L 3075.495683 419.718827 
L 3078.660832 428.850658 
L 3081.82598 426.494443 
L 3084.991129 430.174813 
L 3088.156277 428.230826 
L 3091.321426 431.187163 
L 3094.486574 425.05993 
L 3097.651723 421.736577 
L 3100.816871 418.909124 
L 3103.98202 420.041802 
L 3107.147168 425.704627 
L 3110.312317 420.280972 
L 3113.477465 421.173727 
L 3116.642614 422.794836 
L 3119.807762 418.105696 
L 3122.972911 420.960465 
L 3126.138059 428.915602 
L 3129.303208 416.431793 
L 3132.468356 422.592742 
L 3135.633505 422.580786 
L 3138.798653 412.927912 
L 3141.963802 413.302117 
L 3145.12895 415.435538 
L 3148.294099 416.793301 
L 3151.459248 416.247938 
L 3154.624396 419.050337 
L 3157.789545 420.954353 
L 3160.954693 420.047417 
L 3164.119842 417.299314 
L 3167.28499 418.436846 
L 3170.450139 420.711533 
L 3173.615287 421.451597 
L 3176.780436 418.262341 
L 3179.945584 415.940993 
L 3183.110733 417.105427 
L 3186.275881 422.825634 
L 3189.44103 415.614412 
L 3192.606178 422.376135 
L 3195.771327 426.512767 
L 3198.936475 420.991099 
L 3202.101624 422.984303 
L 3205.266772 424.582024 
L 3208.431921 418.201405 
L 3211.597069 420.798649 
L 3214.762218 420.509862 
L 3217.927366 424.469202 
L 3221.092515 427.970813 
L 3224.257663 421.183788 
L 3227.422812 427.522462 
L 3230.58796 427.719555 
L 3233.753109 426.675129 
L 3236.918257 407.181377 
L 3240.083406 412.571992 
L 3243.248554 412.149287 
L 3246.413703 411.271236 
L 3249.578851 411.788572 
L 3252.744 426.45346 
L 3255.909149 427.101328 
L 3259.074297 430.464592 
L 3262.239446 425.236952 
L 3265.404594 416.931703 
L 3268.569743 415.11124 
L 3271.734891 416.3906 
L 3274.90004 414.484307 
L 3274.90004 397.898248 
L 3274.90004 397.898248 
L 3271.734891 396.95228 
L 3268.569743 397.68747 
L 3265.404594 401.872836 
L 3262.239446 410.318032 
L 3259.074297 415.587583 
L 3255.909149 412.1147 
L 3252.744 411.705062 
L 3249.578851 396.267024 
L 3246.413703 395.863019 
L 3243.248554 396.912492 
L 3240.083406 396.639519 
L 3236.918257 391.411418 
L 3233.753109 409.578896 
L 3230.58796 413.1305 
L 3227.422812 409.519002 
L 3224.257663 402.990798 
L 3221.092515 413.265001 
L 3217.927366 406.901108 
L 3214.762218 403.529438 
L 3211.597069 403.674513 
L 3208.431921 402.589291 
L 3205.266772 407.053364 
L 3202.101624 405.819616 
L 3198.936475 404.190918 
L 3195.771327 408.759443 
L 3192.606178 405.505433 
L 3189.44103 400.469699 
L 3186.275881 408.250443 
L 3183.110733 400.763024 
L 3179.945584 401.468438 
L 3176.780436 403.000851 
L 3173.615287 404.269312 
L 3170.450139 404.20736 
L 3167.28499 402.634277 
L 3164.119842 401.730308 
L 3160.954693 403.419223 
L 3157.789545 403.43567 
L 3154.624396 401.712307 
L 3151.459248 400.937079 
L 3148.294099 401.668516 
L 3145.12895 400.006987 
L 3141.963802 398.311985 
L 3138.798653 399.24842 
L 3135.633505 408.833007 
L 3132.468356 406.04494 
L 3129.303208 400.986117 
L 3126.138059 414.87674 
L 3122.972911 403.289142 
L 3119.807762 400.27733 
L 3116.642614 402.213833 
L 3113.477465 401.028805 
L 3110.312317 403.352204 
L 3107.147168 412.137497 
L 3103.98202 406.59116 
L 3100.816871 404.717821 
L 3097.651723 405.60532 
L 3094.486574 408.901933 
L 3091.321426 412.194996 
L 3088.156277 409.32395 
L 3084.991129 411.796636 
L 3081.82598 407.424473 
L 3078.660832 410.504947 
L 3075.495683 402.334891 
L 3072.330535 402.823349 
L 3069.165386 408.675193 
L 3066.000238 410.872426 
L 3062.835089 403.81203 
L 3059.669941 401.319264 
L 3056.504792 411.003944 
L 3053.339644 405.51647 
L 3050.174495 402.005535 
L 3047.009347 406.49621 
L 3043.844198 405.15285 
L 3040.67905 409.968783 
L 3037.513901 412.559805 
L 3034.348752 413.50638 
L 3031.183604 407.910151 
L 3028.018455 411.911458 
L 385.119446 433.29714 
L 381.954297 429.700121 
L 378.789149 421.098722 
L 375.624 413.72051 
L 372.458851 430.202557 
L 369.293703 430.639924 
L 366.128554 437.994769 
L 362.963406 440.246956 
L 359.798257 435.274958 
L 356.633109 424.492114 
L 353.46796 413.560354 
L 350.302812 416.238642 
L 347.137663 409.038783 
L 343.972515 402.537023 
L 340.807366 401.337185 
L 337.642218 418.711871 
L 334.477069 403.908718 
L 331.311921 394.008001 
L 328.146772 410.254372 
L 324.981624 404.863485 
L 321.816475 428.813729 
L 318.651327 412.319402 
L 315.486178 427.542225 
L 312.32103 412.793434 
L 309.155881 421.698679 
L 305.990733 402.433745 
L 302.825584 405.717536 
L 299.660436 421.474833 
L 296.495287 429.913755 
L 293.330139 424.379891 
L 290.16499 412.085368 
L 286.999842 410.009144 
L 283.834693 409.188062 
L 280.669545 428.702759 
L 277.504396 435.128371 
L 274.339248 430.547731 
L 271.174099 431.963789 
L 268.00895 431.15126 
L 264.843802 420.469692 
L 261.678653 421.598953 
L 258.513505 435.796224 
L 255.348356 434.097252 
L 252.183208 437.895884 
L 249.018059 430.192626 
L 245.852911 432.687411 
L 242.687762 430.087469 
L 239.522614 434.348617 
L 236.357465 435.529662 
L 233.192317 432.194028 
L 230.027168 435.534927 
L 226.86202 433.434474 
L 223.696871 435.111379 
L 220.531723 435.135073 
L 217.366574 439.150952 
L 214.201426 433.062144 
L 211.036277 429.380616 
L 207.871129 427.628304 
L 204.70598 425.049996 
L 201.540832 431.301235 
L 198.375683 435.973626 
L 195.210535 432.517547 
L 192.045386 431.203621 
L 188.880238 434.316405 
L 185.715089 426.348172 
L 182.549941 426.544419 
L 179.384792 439.015524 
L 176.219644 435.626397 
L 173.054495 437.716268 
L 169.889347 435.773946 
L 166.724198 438.739077 
L 163.55905 426.801765 
L 160.393901 404.301446 
L 157.228752 410.15319 
L 154.063604 415.886648 
L 150.898455 412.59824 
L 147.733307 423.875414 
L 144.568158 424.608653 
L 141.40301 413.26357 
L 138.237861 406.062435 
L 135.072713 401.436342 
L 131.907564 412.526918 
L 128.742416 407.612612 
L 125.577267 404.634253 
L 122.412119 405.266242 
L 119.24697 403.747867 
L 116.081822 408.671161 
L 112.916673 407.657527 
L 109.751525 405.085024 
L 106.586376 404.564594 
L 103.421228 409.429357 
L 100.256079 404.638674 
L 97.090931 406.71897 
L 93.925782 409.923721 
L 90.760634 408.544871 
L 87.595485 409.101581 
L 84.430337 406.740802 
L 81.265188 403.831926 
L 78.10004 405.626632 
L 74.934891 409.42807 
L 71.769743 407.904752 
L 68.604594 403.563136 
L 65.439446 405.823008 
L 62.274297 406.717721 
L 59.109149 399.745581 
L 55.944 406.85422 
z
" clip-path="url(#pb45791bca3)" style="fill: #808080; fill-opacity: 0.00001"/>
   </g>
   <g id="PI-PATCH-LOWER-2">
    <path d="M 55.944 421.698377 
L 59.109149 415.067344 
L 62.274297 423.642865 
L 65.439446 422.281479 
L 68.604594 420.622323 
L 71.769743 424.738119 
L 74.934891 425.335836 
L 78.10004 422.426959 
L 81.265188 421.440687 
L 84.430337 424.343367 
L 87.595485 427.691742 
L 90.760634 425.652613 
L 93.925782 429.530811 
L 97.090931 425.330663 
L 100.256079 423.570857 
L 103.421228 428.152148 
L 106.586376 421.299499 
L 109.751525 421.896568 
L 112.916673 426.28132 
L 116.081822 426.419046 
L 119.24697 421.582494 
L 122.412119 422.175923 
L 125.577267 419.338952 
L 128.742416 421.547886 
L 131.907564 426.066386 
L 135.072713 420.656137 
L 138.237861 423.902734 
L 141.40301 428.153081 
L 144.568158 438.008386 
L 147.733307 437.278426 
L 150.898455 426.767387 
L 154.063604 428.439845 
L 157.228752 422.255151 
L 160.393901 417.75543 
L 163.55905 438.328882 
L 166.724198 447.747532 
L 169.889347 446.349167 
L 173.054495 447.102448 
L 176.219644 445.913271 
L 179.384792 447.633485 
L 182.549941 438.409832 
L 185.715089 437.706949 
L 188.880238 445.03006 
L 192.045386 442.274212 
L 195.210535 443.632408 
L 198.375683 446.338728 
L 201.540832 442.413181 
L 204.70598 436.513672 
L 207.871129 439.181387 
L 211.036277 441.088481 
L 217.366574 448.157502 
L 220.531723 445.757794 
L 223.696871 446.165354 
L 226.86202 445.310353 
L 230.027168 446.412485 
L 233.192317 444.162392 
L 236.357465 446.348275 
L 239.522614 445.717275 
L 242.687762 442.414728 
L 245.852911 444.933049 
L 249.018059 442.880035 
L 252.183208 447.914461 
L 255.348356 445.689214 
L 258.513505 446.538338 
L 261.678653 434.50465 
L 264.843802 433.281497 
L 268.00895 443.836454 
L 271.174099 444.709169 
L 274.339248 443.333564 
L 277.504396 446.18676 
L 280.669545 440.753959 
L 283.834693 422.955891 
L 286.999842 423.744219 
L 290.16499 425.618396 
L 293.330139 437.328913 
L 296.495287 442.309031 
L 299.660436 434.677907 
L 302.825584 420.941899 
L 305.990733 420.007909 
L 309.155881 435.694864 
L 312.32103 426.832798 
L 315.486178 441.068487 
L 318.651327 426.499692 
L 321.816475 441.922018 
L 324.981624 418.99451 
L 328.146772 423.032577 
L 331.311921 409.575355 
L 334.477069 417.660294 
L 337.642218 430.877449 
L 340.807366 415.521684 
L 343.972515 416.507836 
L 347.137663 421.108818 
L 350.302812 427.63124 
L 353.46796 424.850347 
L 356.633109 435.694247 
L 359.798257 445.884501 
L 362.963406 448.543692 
L 366.128554 447.239306 
L 369.293703 441.779119 
L 372.458851 441.824734 
L 375.624 426.434985 
L 378.789149 433.571121 
L 381.954297 441.411978 
L 385.119446 444.977761 
L 400.6 444.861804 
L 400.6 444.861804 
" clip-path="url(#pb45791bca3)" style="fill: none; stroke: #b78935; stroke-opacity: 0; stroke-width: 1.5; stroke-linecap: square"/>
   </g>
   <g id="PI-PATCH-UPPER-2">
    <path d="M 55.944 406.85422 
L 59.109149 399.745581 
L 62.274297 406.717721 
L 65.439446 405.823008 
L 68.604594 403.563136 
L 71.769743 407.904752 
L 74.934891 409.42807 
L 78.10004 405.626632 
L 81.265188 403.831926 
L 84.430337 406.740802 
L 87.595485 409.101581 
L 90.760634 408.544871 
L 93.925782 409.923721 
L 97.090931 406.71897 
L 100.256079 404.638674 
L 103.421228 409.429357 
L 106.586376 404.564594 
L 109.751525 405.085024 
L 112.916673 407.657527 
L 116.081822 408.671161 
L 119.24697 403.747867 
L 122.412119 405.266242 
L 125.577267 404.634253 
L 128.742416 407.612612 
L 131.907564 412.526918 
L 135.072713 401.436342 
L 138.237861 406.062435 
L 141.40301 413.26357 
L 144.568158 424.608653 
L 147.733307 423.875414 
L 150.898455 412.59824 
L 154.063604 415.886648 
L 160.393901 404.301446 
L 163.55905 426.801765 
L 166.724198 438.739077 
L 169.889347 435.773946 
L 173.054495 437.716268 
L 176.219644 435.626397 
L 179.384792 439.015524 
L 182.549941 426.544419 
L 185.715089 426.348172 
L 188.880238 434.316405 
L 192.045386 431.203621 
L 195.210535 432.517547 
L 198.375683 435.973626 
L 201.540832 431.301235 
L 204.70598 425.049996 
L 207.871129 427.628304 
L 211.036277 429.380616 
L 214.201426 433.062144 
L 217.366574 439.150952 
L 220.531723 435.135073 
L 223.696871 435.111379 
L 226.86202 433.434474 
L 230.027168 435.534927 
L 233.192317 432.194028 
L 236.357465 435.529662 
L 239.522614 434.348617 
L 242.687762 430.087469 
L 245.852911 432.687411 
L 249.018059 430.192626 
L 252.183208 437.895884 
L 255.348356 434.097252 
L 258.513505 435.796224 
L 261.678653 421.598953 
L 264.843802 420.469692 
L 268.00895 431.15126 
L 271.174099 431.963789 
L 274.339248 430.547731 
L 277.504396 435.128371 
L 280.669545 428.702759 
L 283.834693 409.188062 
L 286.999842 410.009144 
L 290.16499 412.085368 
L 293.330139 424.379891 
L 296.495287 429.913755 
L 299.660436 421.474833 
L 302.825584 405.717536 
L 305.990733 402.433745 
L 309.155881 421.698679 
L 312.32103 412.793434 
L 315.486178 427.542225 
L 318.651327 412.319402 
L 321.816475 428.813729 
L 324.981624 404.863485 
L 328.146772 410.254372 
L 331.311921 394.008001 
L 334.477069 403.908718 
L 337.642218 418.711871 
L 340.807366 401.337185 
L 343.972515 402.537023 
L 347.137663 409.038783 
L 350.302812 416.238642 
L 353.46796 413.560354 
L 359.798257 435.274958 
L 362.963406 440.246956 
L 366.128554 437.994769 
L 369.293703 430.639924 
L 372.458851 430.202557 
L 375.624 413.72051 
L 378.789149 421.098722 
L 381.954297 429.700121 
L 385.119446 433.29714 
L 400.6 433.171875 
L 400.6 433.171875 
" clip-path="url(#pb45791bca3)" style="fill: none; stroke: #406992; stroke-opacity: 0; stroke-width: 1.5; stroke-linecap: square"/>
   </g>
   <g id="matplotlib.axis_3">
    <g id="xtick_4">
     <g id="line2d_7">
      <g>
       <use xlink:href="#m1bd8379f57" x="66.343774" y="449.712" style="fill: #949494; stroke: #949494; stroke-width: 0.8"/>
      </g>
     </g>
     <g id="text_8">
      <text style="font-weight: 300; font-size: 16px; font-family: 'Source Sans 3', sans-serif; text-anchor: middle; fill: #494949" x="66.343774" y="468.2645" transform="rotate(-0 66.343774 468.2645)">2021</text>
     </g>
    </g>
    <g id="xtick_5">
     <g id="line2d_8">
      <g>
       <use xlink:href="#m1bd8379f57" x="231.383661" y="449.712" style="fill: #949494; stroke: #949494; stroke-width: 0.8"/>
      </g>
     </g>
     <g id="text_9">
      <text style="font-weight: 300; font-size: 16px; font-family: 'Source Sans 3', sans-serif; text-anchor: middle; fill: #494949" x="231.383661" y="468.2645" transform="rotate(-0 231.383661 468.2645)">2022</text>
     </g>
    </g>
    <g id="text_10">
     <text style="font-weight: 600; font-size: 16px; font-family: 'Source Sans 3', sans-serif; text-anchor: middle; fill: #494949" x="215.784" y="487.3695" transform="rotate(-0 215.784 487.3695)">Date</text>
    </g>
   </g>
   <g id="matplotlib.axis_4">
    <g id="ytick_4">
     <g id="line2d_9">
      <path d="M 55.944 449.712 
L 375.624 449.712 
" style="fill: none; stroke: #d1d1d1; stroke-width: 0.8; stroke-linecap: square"/>
     </g>
     <g id="line2d_10">
      <g>
       <use xlink:href="#m9953fa0b9b" x="55.944" y="449.712" style="fill: #949494; stroke: #949494; stroke-width: 0.8"/>
      </g>
     </g>
     <g id="text_11">
      <text style="font-weight: 300; font-size: 16px; font-family: 'Source Sans 3', sans-serif; text-anchor: end; fill: #494949" x="48.944" y="455.48825" transform="rotate(-0 48.944 455.48825)">0</text>
     </g>
    </g>
    <g id="ytick_5">
     <g id="line2d_11">
      <path d="M 55.944 416.433312 
L 375.624 416.433312 
" style="fill: none; stroke: #d1d1d1; stroke-width: 0.8; stroke-linecap: square"/>
     </g>
     <g id="line2d_12">
      <g>
       <use xlink:href="#m9953fa0b9b" x="55.944" y="416.433312" style="fill: #949494; stroke: #949494; stroke-width: 0.8"/>
      </g>
     </g>
     <g id="text_12">
      <text style="font-weight: 300; font-size: 16px; font-family: 'Source Sans 3', sans-serif; text-anchor: end; fill: #494949" x="48.944" y="422.209562" transform="rotate(-0 48.944 422.209562)">20</text>
     </g>
    </g>
    <g id="ytick_6">
     <g id="line2d_13">
      <path d="M 55.944 383.154624 
L 375.624 383.154624 
" style="fill: none; stroke: #d1d1d1; stroke-width: 0.8; stroke-linecap: square"/>
     </g>
     <g id="line2d_14">
      <g>
       <use xlink:href="#m9953fa0b9b" x="55.944" y="383.154624" style="fill: #949494; stroke: #949494; stroke-width: 0.8"/>
      </g>
     </g>
     <g id="text_13">
      <text style="font-weight: 300; font-size: 16px; font-family: 'Source Sans 3', sans-serif; text-anchor: end; fill: #494949" x="48.944" y="388.930874" transform="rotate(-0 48.944 388.930874)">40</text>
     </g>
    </g>
    <g id="ytick_7">
     <g id="line2d_15">
      <path d="M 55.944 349.875936 
L 375.624 349.875936 
" style="fill: none; stroke: #d1d1d1; stroke-width: 0.8; stroke-linecap: square"/>
     </g>
     <g id="line2d_16">
      <g>
       <use xlink:href="#m9953fa0b9b" x="55.944" y="349.875936" style="fill: #949494; stroke: #949494; stroke-width: 0.8"/>
      </g>
     </g>
     <g id="text_14">
      <text style="font-weight: 300; font-size: 16px; font-family: 'Source Sans 3', sans-serif; text-anchor: end; fill: #494949" x="48.944" y="355.652186" transform="rotate(-0 48.944 355.652186)">60</text>
     </g>
    </g>
    <g id="ytick_8">
     <g id="line2d_17">
      <path d="M 55.944 316.597248 
L 375.624 316.597248 
" style="fill: none; stroke: #d1d1d1; stroke-width: 0.8; stroke-linecap: square"/>
     </g>
     <g id="line2d_18">
      <g>
       <use xlink:href="#m9953fa0b9b" x="55.944" y="316.597248" style="fill: #949494; stroke: #949494; stroke-width: 0.8"/>
      </g>
     </g>
     <g id="text_15">
      <text style="font-weight: 300; font-size: 16px; font-family: 'Source Sans 3', sans-serif; text-anchor: end; fill: #494949" x="48.944" y="322.373498" transform="rotate(-0 48.944 322.373498)">80</text>
     </g>
    </g>
    <g id="ytick_9">
     <g id="line2d_19">
      <path d="M 55.944 283.31856 
L 375.624 283.31856 
" style="fill: none; stroke: #d1d1d1; stroke-width: 0.8; stroke-linecap: square"/>
     </g>
     <g id="line2d_20">
      <g>
       <use xlink:href="#m9953fa0b9b" x="55.944" y="283.31856" style="fill: #949494; stroke: #949494; stroke-width: 0.8"/>
      </g>
     </g>
     <g id="text_16">
      <text style="font-weight: 300; font-size: 16px; font-family: 'Source Sans 3', sans-serif; text-anchor: end; fill: #494949" x="48.944" y="289.09481" transform="rotate(-0 48.944 289.09481)">100</text>
     </g>
    </g>
   </g>
   <g id="TAG-0-LABEL-BOLD">
    <g id="patch_6">
     <path d="M 239.4165 349.496842 
L 351.9915 349.496842 
L 351.9915 316.976342 
L 239.4165 316.976342 
z
" style="fill: #ffffff; opacity: 0"/>
    </g>
    <text style="font-weight: 700; font-size: 16px; font-family: 'Source Sans 3', sans-serif; fill: #af3331; opacity: 0" transform="translate(239.4165 328.528842)">PI contains 91.3%</text>
    <text style="font-weight: 700; font-size: 16px; font-family: 'Source Sans 3', sans-serif; fill: #af3331; opacity: 0" transform="translate(246.68025 345.944342)">of observations</text>
   </g>
   <g id="TAG-1-LABEL-BOLD">
    <g id="patch_7">
     <path d="M 239.4165 349.496842 
L 351.9915 349.496842 
L 351.9915 316.976342 
L 239.4165 316.976342 
z
" style="fill: #ffffff; opacity: 0"/>
    </g>
    <text style="font-weight: 700; font-size: 16px; font-family: 'Source Sans 3', sans-serif; fill: #af3331; opacity: 0" transform="translate(239.4165 328.528842)">PI contains 65.2%</text>
    <text style="font-weight: 700; font-size: 16px; font-family: 'Source Sans 3', sans-serif; fill: #af3331; opacity: 0" transform="translate(246.68025 345.944342)">of observations</text>
   </g>
   <g id="TAG-2-LABEL-BOLD">
    <g id="patch_8">
     <path d="M 239.4165 349.496842 
L 351.9915 349.496842 
L 351.9915 316.976342 
L 239.4165 316.976342 
z
" style="fill: #ffffff; opacity: 0"/>
    </g>
    <text style="font-weight: 700; font-size: 16px; font-family: 'Source Sans 3', sans-serif; fill: #af3331; opacity: 0" transform="translate(239.4165 328.528842)">PI contains 42.0%</text>
    <text style="font-weight: 700; font-size: 16px; font-family: 'Source Sans 3', sans-serif; fill: #af3331; opacity: 0" transform="translate(246.68025 345.944342)">of observations</text>
   </g>
   <g id="PI-PATCH-MEDIAN">
    <path d="M 55.944 411.349532 
L 59.109149 404.299439 
L 62.274297 412.682401 
L 65.439446 411.414494 
L 68.604594 409.253672 
L 71.769743 413.919895 
L 74.934891 415.457427 
L 78.10004 411.826171 
L 81.265188 410.089826 
L 84.430337 413.20398 
L 87.595485 416.04095 
L 90.760634 414.828202 
L 93.925782 417.485782 
L 97.090931 413.503194 
L 100.256079 411.372643 
L 103.421228 416.421141 
L 106.586376 410.36762 
L 109.751525 410.990316 
L 112.916673 414.621391 
L 116.081822 415.18201 
L 119.24697 410.041668 
L 122.412119 411.1711 
L 125.577267 409.673115 
L 128.742416 412.665327 
L 131.907564 418.060562 
L 135.072713 408.773662 
L 138.237861 412.577368 
L 141.40301 418.871367 
L 144.568158 431.85791 
L 147.733307 430.910763 
L 150.898455 417.768492 
L 154.063604 420.637631 
L 160.393901 408.414133 
L 163.55905 432.983794 
L 166.724198 445.810048 
L 169.889347 443.032525 
L 173.054495 444.528741 
L 176.219644 442.166722 
L 179.384792 445.58352 
L 182.549941 432.115129 
L 185.715089 431.241364 
L 188.880238 440.412431 
L 192.045386 436.983033 
L 195.210535 438.771133 
L 198.375683 443.01179 
L 201.540832 437.368277 
L 204.70598 430.265094 
L 207.871129 433.558891 
L 211.036277 436.08643 
L 214.201426 440.171539 
L 217.366574 446.624357 
L 220.531723 441.857902 
L 223.696871 442.667423 
L 226.86202 441.004824 
L 230.027168 443.158292 
L 233.192317 439.626511 
L 236.357465 443.030755 
L 239.522614 441.777421 
L 242.687762 437.335085 
L 245.852911 440.219742 
L 249.018059 437.87208 
L 252.183208 446.141613 
L 255.348356 441.721684 
L 258.513505 443.40827 
L 261.678653 427.89005 
L 264.843802 426.371636 
L 268.00895 438.370071 
L 271.174099 439.775056 
L 274.339248 437.994247 
L 277.504396 442.709943 
L 280.669545 435.295045 
L 283.834693 414.161991 
L 286.999842 414.941878 
L 290.16499 417.59471 
L 293.330139 431.120553 
L 296.495287 436.939876 
L 299.660436 428.124141 
L 302.825584 410.71528 
L 305.990733 408.504329 
L 309.155881 428.06411 
L 312.32103 417.816075 
L 315.486178 434.315816 
L 318.651327 417.299815 
L 321.816475 435.777781 
L 324.981624 409.317952 
L 328.146772 414.119743 
L 331.311921 397.427553 
L 334.477069 407.219668 
L 337.642218 423.679349 
L 340.807366 404.679525 
L 343.972515 405.632706 
L 347.137663 412.355967 
L 350.302812 420.436196 
L 353.46796 417.247618 
L 359.798257 442.109575 
L 362.963406 447.391432 
L 366.128554 444.800576 
L 369.293703 436.686609 
L 372.458851 436.82971 
L 375.624 418.399446 
L 378.789149 426.261927 
L 381.954297 436.087201 
L 385.119446 440.496041 
L 400.6 440.360772 
L 400.6 440.360772 
" clip-path="url(#pb45791bca3)" style="fill: none; stroke: #00264c; stroke-opacity: 0; stroke-width: 1.5; stroke-linecap: square"/>
   </g>
   <g id="OBSERVED-FORECAST-LINE">
    <path d="M 55.944 382.806018 
L 59.109149 361.487278 
L 62.274297 379.588093 
L 65.439446 374.358966 
L 68.604594 377.040568 
L 71.769743 389.912263 
L 74.934891 378.78361 
L 78.10004 370.604723 
L 81.265188 368.995764 
L 84.430337 358.939752 
L 87.595485 380.736358 
L 90.760634 344.874516 
L 93.925782 360.813113 
L 97.090931 355.042242 
L 100.256079 349.956383 
L 103.421228 382.806018 
L 106.586376 376.772409 
L 109.751525 355.185509 
L 112.916673 366.984563 
L 116.081822 368.593522 
L 119.24697 374.493049 
L 122.412119 394.739148 
L 125.577267 401.711313 
L 128.742416 413.288233 
L 131.907564 327.241035 
L 135.072713 350.684323 
L 138.237861 395.280461 
L 141.40301 435.565189 
L 144.568158 437.778869 
L 147.733307 409.487961 
L 150.898455 410.694683 
L 154.063604 412.705884 
L 157.228752 372.884083 
L 160.393901 436.035827 
L 163.55905 443.544314 
L 166.724198 449.57792 
L 169.889347 443.007994 
L 173.054495 447.298558 
L 176.219644 449.041599 
L 179.384792 440.192311 
L 182.549941 428.125099 
L 185.715089 442.471673 
L 188.880238 440.728631 
L 192.045386 441.667192 
L 195.210535 446.494077 
L 198.375683 436.974387 
L 201.540832 429.33182 
L 204.70598 434.829105 
L 207.871129 441.264952 
L 211.036277 444.482875 
L 214.201426 448.505279 
L 217.366574 440.862712 
L 220.531723 448.505279 
L 223.696871 444.214715 
L 226.86202 445.957756 
L 230.027168 446.762237 
L 233.192317 442.069433 
L 236.357465 445.019195 
L 239.522614 445.823676 
L 242.687762 441.801272 
L 245.852911 443.946554 
L 249.018059 446.359997 
L 252.183208 443.941129 
L 255.348356 441.880104 
L 258.513505 432.092199 
L 261.678653 423.056072 
L 264.843802 436.796242 
L 268.00895 444.616955 
L 271.174099 436.438067 
L 274.339248 444.482875 
L 277.504396 435.097266 
L 280.669545 404.795156 
L 283.834693 399.566033 
L 286.999842 413.242204 
L 290.16499 425.577577 
L 293.330139 430.910482 
L 296.495287 432.196901 
L 299.660436 386.92711 
L 302.825584 364.696405 
L 305.990733 418.589018 
L 309.155881 407.208598 
L 312.32103 439.65599 
L 315.486178 413.376284 
L 318.651327 442.203513 
L 321.816475 406.940439 
L 324.981624 405.465556 
L 328.146772 363.766637 
L 331.311921 370.068406 
L 334.477069 424.236775 
L 337.642218 379.185851 
L 340.807366 374.22489 
L 343.972515 406.672277 
L 347.137663 420.616611 
L 350.302812 416.191968 
L 353.46796 431.074862 
L 356.633109 447.566718 
L 359.798257 449.30976 
L 362.963406 446.628157 
L 366.128554 435.633587 
L 369.293703 442.069433 
L 372.458851 416.594209 
L 375.624 420.616611 
L 378.789149 433.622384 
L 381.954297 443.812474 
L 381.954297 443.812474 
" clip-path="url(#pb45791bca3)" style="fill: none; stroke-dasharray: 1.5,2.475; stroke-dashoffset: 0; stroke: #af3331; stroke-width: 1.5"/>
   </g>
   <g id="PI-missed-dummy">
    <defs>
     <path id="mb277ce71c7" d="M 0 3.9975 
C 1.060149 3.9975 2.077021 3.576298 2.826659 2.826659 
C 3.576298 2.077021 3.9975 1.060149 3.9975 0 
C 3.9975 -1.060149 3.576298 -2.077021 2.826659 -2.826659 
C 2.077021 -3.576298 1.060149 -3.9975 0 -3.9975 
C -1.060149 -3.9975 -2.077021 -3.576298 -2.826659 -2.826659 
C -3.576298 -2.077021 -3.9975 -1.060149 -3.9975 0 
C -3.9975 1.060149 -3.576298 2.077021 -2.826659 2.826659 
C -2.077021 3.576298 -1.060149 3.9975 0 3.9975 
z
" style="stroke: #595959"/>
    </defs>
    <g clip-path="url(#pb45791bca3)"/>
   </g>
   <g id="patch_9">
    <path d="M 55.944 449.712 
L 55.944 283.31856 
" style="fill: none; stroke: #949494; stroke-width: 0.8; stroke-linejoin: miter; stroke-linecap: square"/>
   </g>
   <g id="patch_10">
    <path d="M 55.944 449.712 
L 375.624 449.712 
" style="fill: none; stroke: #949494; stroke-width: 0.8; stroke-linejoin: miter; stroke-linecap: square"/>
   </g>
   <g id="PI-missed-0">
    <defs>
     <path id="mc93d0498de" d="M 0 4 
C 1.060812 4 2.078319 3.578535 2.828427 2.828427 
C 3.578535 2.078319 4 1.060812 4 0 
C 4 -1.060812 3.578535 -2.078319 2.828427 -2.828427 
C 2.078319 -3.578535 1.060812 -4 0 -4 
C -1.060812 -4 -2.078319 -3.578535 -2.828427 -2.828427 
C -3.578535 -2.078319 -4 -1.060812 -4 0 
C -4 1.060812 -3.578535 2.078319 -2.828427 2.828427 
C -2.078319 3.578535 -1.060812 4 0 4 
z
" style="stroke: #595959; stroke-opacity: 0"/>
    </defs>
    <g>
     <use xlink:href="#mc93d0498de" x="160.393901" y="436.035827" style="fill-opacity: 0; stroke: #595959; stroke-opacity: 0"/>
     <use xlink:href="#mc93d0498de" x="280.669545" y="404.795156" style="fill-opacity: 0; stroke: #595959; stroke-opacity: 0"/>
     <use xlink:href="#mc93d0498de" x="312.32103" y="439.65599" style="fill-opacity: 0; stroke: #595959; stroke-opacity: 0"/>
     <use xlink:href="#mc93d0498de" x="318.651327" y="442.203513" style="fill-opacity: 0; stroke: #595959; stroke-opacity: 0"/>
     <use xlink:href="#mc93d0498de" x="321.816475" y="406.940439" style="fill-opacity: 0; stroke: #595959; stroke-opacity: 0"/>
     <use xlink:href="#mc93d0498de" x="356.633109" y="447.566718" style="fill-opacity: 0; stroke: #595959; stroke-opacity: 0"/>
    </g>
   </g>
   <g id="PI-missed-1">
    <defs>
     <path id="m5219ff8573" d="M 0 4.0025 
C 1.061475 4.0025 2.079618 3.580771 2.830195 2.830195 
C 3.580771 2.079618 4.0025 1.061475 4.0025 0 
C 4.0025 -1.061475 3.580771 -2.079618 2.830195 -2.830195 
C 2.079618 -3.580771 1.061475 -4.0025 0 -4.0025 
C -1.061475 -4.0025 -2.079618 -3.580771 -2.830195 -2.830195 
C -3.580771 -2.079618 -4.0025 -1.061475 -4.0025 0 
C -4.0025 1.061475 -3.580771 2.079618 -2.830195 2.830195 
C -2.079618 3.580771 -1.061475 4.0025 0 4.0025 
z
" style="stroke: #595959; stroke-opacity: 0"/>
    </defs>
    <g>
     <use xlink:href="#m5219ff8573" x="141.40301" y="435.565189" style="fill-opacity: 0; stroke: #595959; stroke-opacity: 0"/>
     <use xlink:href="#m5219ff8573" x="147.733307" y="409.487961" style="fill-opacity: 0; stroke: #595959; stroke-opacity: 0"/>
     <use xlink:href="#m5219ff8573" x="160.393901" y="436.035827" style="fill-opacity: 0; stroke: #595959; stroke-opacity: 0"/>
     <use xlink:href="#m5219ff8573" x="163.55905" y="443.544314" style="fill-opacity: 0; stroke: #595959; stroke-opacity: 0"/>
     <use xlink:href="#m5219ff8573" x="166.724198" y="449.57792" style="fill-opacity: 0; stroke: #595959; stroke-opacity: 0"/>
     <use xlink:href="#m5219ff8573" x="176.219644" y="449.041599" style="fill-opacity: 0; stroke: #595959; stroke-opacity: 0"/>
     <use xlink:href="#m5219ff8573" x="185.715089" y="442.471673" style="fill-opacity: 0; stroke: #595959; stroke-opacity: 0"/>
     <use xlink:href="#m5219ff8573" x="195.210535" y="446.494077" style="fill-opacity: 0; stroke: #595959; stroke-opacity: 0"/>
     <use xlink:href="#m5219ff8573" x="211.036277" y="444.482875" style="fill-opacity: 0; stroke: #595959; stroke-opacity: 0"/>
     <use xlink:href="#m5219ff8573" x="214.201426" y="448.505279" style="fill-opacity: 0; stroke: #595959; stroke-opacity: 0"/>
     <use xlink:href="#m5219ff8573" x="220.531723" y="448.505279" style="fill-opacity: 0; stroke: #595959; stroke-opacity: 0"/>
     <use xlink:href="#m5219ff8573" x="249.018059" y="446.359997" style="fill-opacity: 0; stroke: #595959; stroke-opacity: 0"/>
     <use xlink:href="#m5219ff8573" x="264.843802" y="436.796242" style="fill-opacity: 0; stroke: #595959; stroke-opacity: 0"/>
     <use xlink:href="#m5219ff8573" x="280.669545" y="404.795156" style="fill-opacity: 0; stroke: #595959; stroke-opacity: 0"/>
     <use xlink:href="#m5219ff8573" x="309.155881" y="407.208598" style="fill-opacity: 0; stroke: #595959; stroke-opacity: 0"/>
     <use xlink:href="#m5219ff8573" x="312.32103" y="439.65599" style="fill-opacity: 0; stroke: #595959; stroke-opacity: 0"/>
     <use xlink:href="#m5219ff8573" x="315.486178" y="413.376284" style="fill-opacity: 0; stroke: #595959; stroke-opacity: 0"/>
     <use xlink:href="#m5219ff8573" x="318.651327" y="442.203513" style="fill-opacity: 0; stroke: #595959; stroke-opacity: 0"/>
     <use xlink:href="#m5219ff8573" x="321.816475" y="406.940439" style="fill-opacity: 0; stroke: #595959; stroke-opacity: 0"/>
     <use xlink:href="#m5219ff8573" x="334.477069" y="424.236775" style="fill-opacity: 0; stroke: #595959; stroke-opacity: 0"/>
     <use xlink:href="#m5219ff8573" x="353.46796" y="431.074862" style="fill-opacity: 0; stroke: #595959; stroke-opacity: 0"/>
     <use xlink:href="#m5219ff8573" x="356.633109" y="447.566718" style="fill-opacity: 0; stroke: #595959; stroke-opacity: 0"/>
     <use xlink:href="#m5219ff8573" x="359.798257" y="449.30976" style="fill-opacity: 0; stroke: #595959; stroke-opacity: 0"/>
     <use xlink:href="#m5219ff8573" x="372.458851" y="416.594209" style="fill-opacity: 0; stroke: #595959; stroke-opacity: 0"/>
    </g>
   </g>
   <g id="PI-missed-2">
    <defs>
     <path id="m18db391d30" d="M 0 4.005 
C 1.062138 4.005 2.080917 3.583008 2.831963 2.831963 
C 3.583008 2.080917 4.005 1.062138 4.005 0 
C 4.005 -1.062138 3.583008 -2.080917 2.831963 -2.831963 
C 2.080917 -3.583008 1.062138 -4.005 0 -4.005 
C -1.062138 -4.005 -2.080917 -3.583008 -2.831963 -2.831963 
C -3.583008 -2.080917 -4.005 -1.062138 -4.005 0 
C -4.005 1.062138 -3.583008 2.080917 -2.831963 2.831963 
C -2.080917 3.583008 -1.062138 4.005 0 4.005 
z
" style="stroke: #595959; stroke-opacity: 0"/>
    </defs>
    <g>
     <use xlink:href="#m18db391d30" x="125.577267" y="401.711313" style="fill-opacity: 0; stroke: #595959; stroke-opacity: 0"/>
     <use xlink:href="#m18db391d30" x="141.40301" y="435.565189" style="fill-opacity: 0; stroke: #595959; stroke-opacity: 0"/>
     <use xlink:href="#m18db391d30" x="147.733307" y="409.487961" style="fill-opacity: 0; stroke: #595959; stroke-opacity: 0"/>
     <use xlink:href="#m18db391d30" x="150.898455" y="410.694683" style="fill-opacity: 0; stroke: #595959; stroke-opacity: 0"/>
     <use xlink:href="#m18db391d30" x="154.063604" y="412.705884" style="fill-opacity: 0; stroke: #595959; stroke-opacity: 0"/>
     <use xlink:href="#m18db391d30" x="160.393901" y="436.035827" style="fill-opacity: 0; stroke: #595959; stroke-opacity: 0"/>
     <use xlink:href="#m18db391d30" x="163.55905" y="443.544314" style="fill-opacity: 0; stroke: #595959; stroke-opacity: 0"/>
     <use xlink:href="#m18db391d30" x="166.724198" y="449.57792" style="fill-opacity: 0; stroke: #595959; stroke-opacity: 0"/>
     <use xlink:href="#m18db391d30" x="173.054495" y="447.298558" style="fill-opacity: 0; stroke: #595959; stroke-opacity: 0"/>
     <use xlink:href="#m18db391d30" x="176.219644" y="449.041599" style="fill-opacity: 0; stroke: #595959; stroke-opacity: 0"/>
     <use xlink:href="#m18db391d30" x="185.715089" y="442.471673" style="fill-opacity: 0; stroke: #595959; stroke-opacity: 0"/>
     <use xlink:href="#m18db391d30" x="195.210535" y="446.494077" style="fill-opacity: 0; stroke: #595959; stroke-opacity: 0"/>
     <use xlink:href="#m18db391d30" x="201.540832" y="429.33182" style="fill-opacity: 0; stroke: #595959; stroke-opacity: 0"/>
     <use xlink:href="#m18db391d30" x="207.871129" y="441.264952" style="fill-opacity: 0; stroke: #595959; stroke-opacity: 0"/>
     <use xlink:href="#m18db391d30" x="211.036277" y="444.482875" style="fill-opacity: 0; stroke: #595959; stroke-opacity: 0"/>
     <use xlink:href="#m18db391d30" x="214.201426" y="448.505279" style="fill-opacity: 0; stroke: #595959; stroke-opacity: 0"/>
     <use xlink:href="#m18db391d30" x="220.531723" y="448.505279" style="fill-opacity: 0; stroke: #595959; stroke-opacity: 0"/>
     <use xlink:href="#m18db391d30" x="226.86202" y="445.957756" style="fill-opacity: 0; stroke: #595959; stroke-opacity: 0"/>
     <use xlink:href="#m18db391d30" x="230.027168" y="446.762237" style="fill-opacity: 0; stroke: #595959; stroke-opacity: 0"/>
     <use xlink:href="#m18db391d30" x="239.522614" y="445.823676" style="fill-opacity: 0; stroke: #595959; stroke-opacity: 0"/>
     <use xlink:href="#m18db391d30" x="249.018059" y="446.359997" style="fill-opacity: 0; stroke: #595959; stroke-opacity: 0"/>
     <use xlink:href="#m18db391d30" x="258.513505" y="432.092199" style="fill-opacity: 0; stroke: #595959; stroke-opacity: 0"/>
     <use xlink:href="#m18db391d30" x="264.843802" y="436.796242" style="fill-opacity: 0; stroke: #595959; stroke-opacity: 0"/>
     <use xlink:href="#m18db391d30" x="268.00895" y="444.616955" style="fill-opacity: 0; stroke: #595959; stroke-opacity: 0"/>
     <use xlink:href="#m18db391d30" x="274.339248" y="444.482875" style="fill-opacity: 0; stroke: #595959; stroke-opacity: 0"/>
     <use xlink:href="#m18db391d30" x="277.504396" y="435.097266" style="fill-opacity: 0; stroke: #595959; stroke-opacity: 0"/>
     <use xlink:href="#m18db391d30" x="280.669545" y="404.795156" style="fill-opacity: 0; stroke: #595959; stroke-opacity: 0"/>
     <use xlink:href="#m18db391d30" x="309.155881" y="407.208598" style="fill-opacity: 0; stroke: #595959; stroke-opacity: 0"/>
     <use xlink:href="#m18db391d30" x="312.32103" y="439.65599" style="fill-opacity: 0; stroke: #595959; stroke-opacity: 0"/>
     <use xlink:href="#m18db391d30" x="315.486178" y="413.376284" style="fill-opacity: 0; stroke: #595959; stroke-opacity: 0"/>
     <use xlink:href="#m18db391d30" x="318.651327" y="442.203513" style="fill-opacity: 0; stroke: #595959; stroke-opacity: 0"/>
     <use xlink:href="#m18db391d30" x="321.816475" y="406.940439" style="fill-opacity: 0; stroke: #595959; stroke-opacity: 0"/>
     <use xlink:href="#m18db391d30" x="334.477069" y="424.236775" style="fill-opacity: 0; stroke: #595959; stroke-opacity: 0"/>
     <use xlink:href="#m18db391d30" x="350.302812" y="416.191968" style="fill-opacity: 0; stroke: #595959; stroke-opacity: 0"/>
     <use xlink:href="#m18db391d30" x="353.46796" y="431.074862" style="fill-opacity: 0; stroke: #595959; stroke-opacity: 0"/>
     <use xlink:href="#m18db391d30" x="356.633109" y="447.566718" style="fill-opacity: 0; stroke: #595959; stroke-opacity: 0"/>
     <use xlink:href="#m18db391d30" x="359.798257" y="449.30976" style="fill-opacity: 0; stroke: #595959; stroke-opacity: 0"/>
     <use xlink:href="#m18db391d30" x="366.128554" y="435.633587" style="fill-opacity: 0; stroke: #595959; stroke-opacity: 0"/>
     <use xlink:href="#m18db391d30" x="369.293703" y="442.069433" style="fill-opacity: 0; stroke: #595959; stroke-opacity: 0"/>
     <use xlink:href="#m18db391d30" x="372.458851" y="416.594209" style="fill-opacity: 0; stroke: #595959; stroke-opacity: 0"/>
    </g>
   </g>
   <g id="text_17">
    <text style="font-weight: 800; font-size: 20px; font-family: 'Source Sans 3', sans-serif; text-anchor: start" x="55.944" y="277.31856" transform="rotate(-0 55.944 277.31856)">Streamflow percentile</text>
   </g>
   <g id="legend-pi">
    <g id="patch_11">
     <path d="M 67.144 319.22356 
L 392.164 319.22356 
Q 395.364 319.22356 395.364 316.02356 
L 395.364 294.51856 
Q 395.364 291.31856 392.164 291.31856 
L 67.144 291.31856 
Q 63.944 291.31856 63.944 294.51856 
L 63.944 316.02356 
Q 63.944 319.22356 67.144 319.22356 
L 67.144 319.22356 
z
" style="fill: none; opacity: 0.8"/>
    </g>
    <g id="line2d_21">
     <path d="M 70.344 303.67106 
L 86.344 303.67106 
L 102.344 303.67106 
" style="fill: none; stroke-dasharray: 1.5,2.475; stroke-dashoffset: 0; stroke: #af3331; stroke-width: 1.5"/>
    </g>
    <g id="text_18">
     <text style="font-weight: 300; font-size: 16px; font-family: 'Source Sans 3', sans-serif; text-anchor: start; fill: #494949" x="115.144" y="309.27106" transform="rotate(-0 115.144 309.27106)">Observations</text>
    </g>
    <g id="line2d_22">
     <g>
      <use xlink:href="#mb277ce71c7" x="247.3015" y="303.67106" style="fill-opacity: 0; stroke: #595959"/>
     </g>
    </g>
    <g id="text_19">
     <text style="font-weight: 300; font-size: 16px; font-family: 'Source Sans 3', sans-serif; text-anchor: start; fill: #494949" x="276.1015" y="309.27106" transform="rotate(-0 276.1015 309.27106)">Missed Prediction</text>
    </g>
   </g>
   <g id="legend-pi">
    <g id="patch_12">
     <path d="M 67.144 319.22356 
L 392.164 319.22356 
Q 395.364 319.22356 395.364 316.02356 
L 395.364 294.51856 
Q 395.364 291.31856 392.164 291.31856 
L 67.144 291.31856 
Q 63.944 291.31856 63.944 294.51856 
L 63.944 316.02356 
Q 63.944 319.22356 67.144 319.22356 
L 67.144 319.22356 
z
" style="fill: none; opacity: 0.8"/>
    </g>
    <g id="line2d_23">
     <path d="M 70.344 303.67106 
L 86.344 303.67106 
L 102.344 303.67106 
" style="fill: none; stroke-dasharray: 1.5,2.475; stroke-dashoffset: 0; stroke: #af3331; stroke-width: 1.5"/>
    </g>
    <g id="text_20">
     <text style="font-weight: 300; font-size: 16px; font-family: 'Source Sans 3', sans-serif; text-anchor: start; fill: #494949" x="115.144" y="309.27106" transform="rotate(-0 115.144 309.27106)">Observations</text>
    </g>
    <g id="line2d_24">
     <g>
      <use xlink:href="#mb277ce71c7" x="247.3015" y="303.67106" style="fill-opacity: 0; stroke: #595959"/>
     </g>
    </g>
    <g id="text_21">
     <text style="font-weight: 300; font-size: 16px; font-family: 'Source Sans 3', sans-serif; text-anchor: start; fill: #494949" x="276.1015" y="309.27106" transform="rotate(-0 276.1015 309.27106)">Missed Prediction</text>
    </g>
   </g>
  </g>
 </g>
 <defs>
  <clipPath id="p5199a3efa6">
   <rect x="55.944" y="33.47856" width="319.68" height="166.39344"/>
  </clipPath>
  <clipPath id="pb45791bca3">
   <rect x="55.944" y="283.31856" width="319.68" height="166.39344"/>
  </clipPath>
 </defs>
</svg>
