<?xml version="1.0" encoding="utf-8" standalone="no"?>
<!DOCTYPE svg PUBLIC "-//W3C//DTD SVG 1.1//EN"
  "http://www.w3.org/Graphics/SVG/1.1/DTD/svg11.dtd">
<svg xmlns:xlink="http://www.w3.org/1999/xlink" width="1199.52px" height="399.6px" viewBox="0 0 1199.52 399.6" xmlns="http://www.w3.org/2000/svg" version="1.1">
  <defs>
  <style type="text/css">*{stroke-linejoin: round; stroke-linecap: butt}</style>
 </defs>
 <g id="figure-predictioninterval">
  <g id="patch_1">
   <path d="M 0 399.6 
L 1199.52 399.6 
L 1199.52 0 
L 0 0 
z
" style="fill: #ffffff"/>
  </g>
  <g id="axis-predictioninterval1">
   <g id="patch_2">
    <path d="M 74.97 339.66 
L 404.838 339.66 
L 404.838 39.96 
L 74.97 39.96 
z
" style="fill: #ffffff"/>
   </g>
   <g id="LF-LOWER-MEDIAN">
    <path d="M 74.97 189.81 
L 239.904 339.66 
L 404.838 189.81 
" clip-path="url(#p6752099d25)" style="fill: none; stroke: #00264c; stroke-opacity: 0; stroke-width: 1.5; stroke-linecap: square"/>
   </g>
   <g id="matplotlib.axis_1">
    <g id="xtick_1">
     <g id="line2d_1">
      <defs>
       <path id="m565ed22d14" d="M 0 0 
L 0 3.5 
" style="stroke: #949494; stroke-width: 0.8"/>
      </defs>
      <g>
       <use xlink:href="#m565ed22d14" x="74.97" y="339.66" style="fill: #949494; stroke: #949494; stroke-width: 0.8"/>
      </g>
     </g>
     <g id="text_1">
      <text style="font-weight: 300; font-size: 16px; font-family: 'Source Sans 3', sans-serif; text-anchor: middle; fill: #494949" x="74.97" y="358.2125" transform="rotate(-0 74.97 358.2125)">Lower</text>
     </g>
    </g>
    <g id="xtick_2">
     <g id="line2d_2">
      <g>
       <use xlink:href="#m565ed22d14" x="239.904" y="339.66" style="fill: #949494; stroke: #949494; stroke-width: 0.8"/>
      </g>
     </g>
     <g id="text_2">
      <text style="font-weight: 300; font-size: 16px; font-family: 'Source Sans 3', sans-serif; text-anchor: middle; fill: #494949" x="239.904" y="358.2125" transform="rotate(-0 239.904 358.2125)">Median</text>
     </g>
    </g>
    <g id="xtick_3">
     <g id="line2d_3">
      <g>
       <use xlink:href="#m565ed22d14" x="404.838" y="339.66" style="fill: #949494; stroke: #949494; stroke-width: 0.8"/>
      </g>
     </g>
     <g id="text_3">
      <text style="font-weight: 300; font-size: 16px; font-family: 'Source Sans 3', sans-serif; text-anchor: middle; fill: #494949" x="404.838" y="358.2125" transform="rotate(-0 404.838 358.2125)">Upper</text>
     </g>
    </g>
    <g id="text_4">
     <text style="font-weight: 600; font-size: 16px; font-family: 'Source Sans 3', sans-serif; text-anchor: middle; fill: #494949" x="239.904" y="377.3175" transform="rotate(-0 239.904 377.3175)">Estimate</text>
    </g>
   </g>
   <g id="matplotlib.axis_2">
    <g id="ytick_1">
     <g id="line2d_4">
      <defs>
       <path id="m0f836a7ab9" d="M 0 0 
L -3.5 0 
" style="stroke: #949494; stroke-width: 0.8"/>
      </defs>
      <g>
       <use xlink:href="#m0f836a7ab9" x="74.97" y="339.66" style="fill: #949494; stroke: #949494; stroke-width: 0.8"/>
      </g>
     </g>
     <g id="text_5">
      <text style="font-weight: 300; font-size: 16px; font-family: 'Source Sans 3', sans-serif; fill: #494949" transform="translate(40.1625 329.176)">Less</text>
      <text style="font-weight: 300; font-size: 16px; font-family: 'Source Sans 3', sans-serif; fill: #494949" transform="translate(20.1625 346.5915)">Penalty</text>
      <text style="font-weight: 300; font-size: 16px; font-family: 'Source Sans 3', sans-serif; fill: #494949" transform="translate(67.97 364.007)"/>
     </g>
    </g>
    <g id="ytick_2">
     <g id="line2d_5">
      <g>
       <use xlink:href="#m0f836a7ab9" x="74.97" y="189.81" style="fill: #949494; stroke: #949494; stroke-width: 0.8"/>
      </g>
     </g>
    </g>
    <g id="ytick_3">
     <g id="line2d_6">
      <g>
       <use xlink:href="#m0f836a7ab9" x="74.97" y="39.96" style="fill: #949494; stroke: #949494; stroke-width: 0.8"/>
      </g>
     </g>
     <g id="text_6">
      <text style="font-weight: 300; font-size: 16px; font-family: 'Source Sans 3', sans-serif; fill: #494949" transform="translate(35.7475 38.18375)">More</text>
      <text style="font-weight: 300; font-size: 16px; font-family: 'Source Sans 3', sans-serif; fill: #494949" transform="translate(20.1625 55.59925)">Penalty</text>
     </g>
    </g>
   </g>
   <g id="LF-LOWER-0">
    <path d="M 74.97 324.675 
L 239.904 339.66 
L 404.838 54.945 
" clip-path="url(#p6752099d25)" style="fill: none; stroke: #b78935; stroke-opacity: 0; stroke-width: 1.5; stroke-linecap: square"/>
   </g>
   <g id="LF-UPPER-0">
    <path d="M 74.97 54.945 
L 239.904 339.66 
L 404.838 324.675 
" clip-path="url(#p6752099d25)" style="fill: none; stroke: #406992; stroke-opacity: 0; stroke-width: 1.5; stroke-linecap: square"/>
   </g>
   <g id="LF-LOWER-1">
    <path d="M 74.97 302.1975 
L 239.904 339.66 
L 404.838 77.4225 
" clip-path="url(#p6752099d25)" style="fill: none; stroke: #b78935; stroke-opacity: 0; stroke-width: 1.5; stroke-linecap: square"/>
   </g>
   <g id="LF-UPPER-1">
    <path d="M 74.97 77.4225 
L 239.904 339.66 
L 404.838 302.1975 
" clip-path="url(#p6752099d25)" style="fill: none; stroke: #406992; stroke-opacity: 0; stroke-width: 1.5; stroke-linecap: square"/>
   </g>
   <g id="LF-LOWER-2">
    <path d="M 74.97 264.735 
L 239.904 339.66 
L 404.838 114.885 
" clip-path="url(#p6752099d25)" style="fill: none; stroke: #b78935; stroke-opacity: 0; stroke-width: 1.5; stroke-linecap: square"/>
   </g>
   <g id="LF-UPPER-2">
    <path d="M 74.97 114.885 
L 239.904 339.66 
L 404.838 264.735 
" clip-path="url(#p6752099d25)" style="fill: none; stroke: #406992; stroke-opacity: 0; stroke-width: 1.5; stroke-linecap: square"/>
   </g>
   <g id="patch_3">
    <path d="M 74.97 339.66 
L 74.97 39.96 
" style="fill: none; stroke: #949494; stroke-width: 0.8; stroke-linejoin: miter; stroke-linecap: square"/>
   </g>
   <g id="patch_4">
    <path d="M 74.97 339.66 
L 404.838 339.66 
" style="fill: none; stroke: #949494; stroke-width: 0.8; stroke-linejoin: miter; stroke-linecap: square"/>
   </g>
   <g id="text_7">
    <text style="font-weight: 800; font-size: 20px; font-family: 'Source Sans 3', sans-serif; text-anchor: start" x="74.97" y="33.96" transform="rotate(-0 74.97 33.96)">Loss function</text>
   </g>
  </g>
  <g id="axis-predictioninterval2">
   <g id="patch_5">
    <path d="M 474.81 339.66 
L 1134.546 339.66 
L 1134.546 39.96 
L 474.81 39.96 
z
" style="fill: #ffffff"/>
   </g>
   <g id="PI-PATCH-0">
    <path d="M 474.81 243.66654 
L 474.81 308.10264 
L 481.34204 296.924437 
L 487.874079 312.721921 
L 494.406119 310.09914 
L 500.938158 308.02691 
L 507.470198 314.434877 
L 514.002238 313.795129 
L 520.534277 309.875035 
L 527.066317 309.468421 
L 533.598356 314.310385 
L 540.130396 321.275269 
L 546.662436 316.093316 
L 553.194475 325.307684 
L 559.726515 317.345261 
L 566.258554 314.852649 
L 572.790594 322.251023 
L 579.322634 308.448958 
L 585.854673 309.477567 
L 592.386713 318.751568 
L 598.918752 318.227334 
L 605.450792 310.070756 
L 611.982832 310.160742 
L 618.514871 302.60562 
L 625.046911 305.153794 
L 631.57895 311.691176 
L 638.11099 309.026178 
L 644.64303 313.856383 
L 651.175069 317.779712 
L 657.707109 329.812237 
L 664.239149 328.894101 
L 670.771188 314.76737 
L 677.303228 315.594299 
L 683.835267 304.384037 
L 690.367307 299.160769 
L 696.899347 328.918668 
L 703.431386 339.66 
L 709.963426 339.66 
L 716.495465 339.66 
L 723.027505 339.66 
L 729.559545 339.66 
L 736.091584 330.798695 
L 742.623624 329.844766 
L 749.155663 339.66 
L 755.687703 335.926358 
L 762.219743 337.58757 
L 768.751782 339.66 
L 775.283822 335.726907 
L 781.815861 327.299184 
L 788.347901 330.960772 
L 794.879941 333.262659 
L 801.41198 338.828085 
L 807.94402 339.66 
L 814.476059 339.66 
L 821.008099 339.66 
L 827.540139 339.59488 
L 834.072178 339.66 
L 840.604218 337.947906 
L 847.136257 339.66 
L 853.668297 339.66 
L 860.200337 335.793135 
L 866.732376 339.66 
L 873.264416 336.500304 
L 879.796455 339.66 
L 886.328495 339.66 
L 892.860535 339.66 
L 899.392574 324.349072 
L 905.924614 322.685205 
L 912.456653 339.060158 
L 918.988693 339.66 
L 925.520733 337.922324 
L 932.052772 339.66 
L 938.584812 333.494474 
L 945.116851 307.527915 
L 951.648891 308.963227 
L 958.180931 310.916897 
L 964.71297 328.694112 
L 971.24501 336.131478 
L 977.77705 324.550037 
L 984.309089 306.516891 
L 990.841129 307.166666 
L 997.373168 328.348568 
L 1003.905208 314.917744 
L 1010.437248 336.423695 
L 1016.969287 314.652249 
L 1023.501327 336.849893 
L 1030.033366 302.004803 
L 1036.565406 307.883239 
L 1043.097446 289.552546 
L 1049.629485 300.997049 
L 1056.161525 318.88154 
L 1062.693564 297.87838 
L 1069.225604 299.714803 
L 1075.757644 304.126088 
L 1082.289683 313.029039 
L 1088.821723 308.764756 
L 1095.353762 325.062578 
L 1101.885802 339.66 
L 1108.417842 339.66 
L 1114.949881 339.66 
L 1121.481921 334.671806 
L 1128.01396 334.575929 
L 1134.546 312.409344 
L 1141.07804 323.936137 
L 1147.610079 334.434702 
L 1154.142119 339.317597 
L 6608.395188 309.68242 
L 6614.927228 304.077553 
L 6621.459267 311.742532 
L 6627.991307 310.082491 
L 6634.523347 308.228322 
L 6641.055386 305.47891 
L 6647.587426 310.495779 
L 6654.119465 303.888057 
L 6660.651505 309.423133 
L 6667.183545 321.504511 
L 6673.715584 307.701611 
L 6680.247624 310.222761 
L 6686.779663 326.340712 
L 6693.311703 319.015662 
L 6699.843743 307.526843 
L 6706.375782 306.552541 
L 6712.907822 322.834933 
L 6719.439861 319.639466 
L 6725.971901 325.081473 
L 6732.503941 322.251356 
L 6739.03598 327.146904 
L 6745.56802 313.637885 
L 6752.100059 307.835244 
L 6758.632099 301.304945 
L 6765.164139 301.468114 
L 6771.696178 310.801408 
L 6778.228218 306.211703 
L 6784.760257 310.694758 
L 6791.292297 314.685527 
L 6797.824337 305.356712 
L 6804.356376 309.60533 
L 6810.888416 317.333722 
L 6817.420455 298.927543 
L 6823.952495 310.217928 
L 6830.484535 307.961312 
L 6837.016574 292.748171 
L 6843.548614 294.407625 
L 6850.080653 298.969509 
L 6856.612693 300.82289 
L 6863.144733 300.419795 
L 6869.676772 308.077654 
L 6876.208812 311.751181 
L 6882.740851 309.19037 
L 6889.272891 303.080503 
L 6895.804931 305.231973 
L 6902.33697 309.58849 
L 6908.86901 311.640373 
L 6915.40105 303.509408 
L 6921.933089 298.145604 
L 6928.465129 301.974961 
L 6934.997168 309.030845 
L 6941.529208 297.76504 
L 6948.061248 310.783544 
L 6954.593287 318.568837 
L 6961.125327 308.349393 
L 6967.657366 311.996502 
L 6974.189406 314.705145 
L 6980.721446 301.52157 
L 6987.253485 307.941417 
L 6993.785525 307.536787 
L 7000.317564 314.739841 
L 7006.849604 315.109192 
L 7013.381644 309.33369 
L 7019.913683 319.796918 
L 7026.445723 314.77976 
L 7032.977762 317.667697 
L 7039.509802 282.893532 
L 7046.041842 292.435065 
L 7052.573881 290.825948 
L 7059.105921 289.809089 
L 7065.63796 290.98269 
L 7072.17 312.773882 
L 7078.70204 314.070791 
L 7085.234079 319.272791 
L 7091.766119 311.570148 
L 7098.298158 299.086717 
L 7104.830198 298.653634 
L 7111.362238 303.187619 
L 7117.894277 297.372337 
L 7117.894277 225.433696 
L 7117.894277 225.433696 
L 7111.362238 217.255591 
L 7104.830198 221.898927 
L 7098.298158 232.810692 
L 7091.766119 242.937868 
L 7085.234079 248.681276 
L 7078.70204 243.927347 
L 7072.17 243.888139 
L 7065.63796 223.434149 
L 7059.105921 222.626706 
L 7052.573881 223.940832 
L 7046.041842 222.481135 
L 7039.509802 214.128431 
L 7032.977762 240.532279 
L 7026.445723 246.493227 
L 7019.913683 238.011232 
L 7013.381644 227.64429 
L 7006.849604 245.965228 
L 7000.317564 236.129681 
L 6993.785525 232.350368 
L 6987.253485 231.746095 
L 6980.721446 232.126139 
L 6974.189406 236.02402 
L 6967.657366 235.71128 
L 6961.125327 234.171531 
L 6954.593287 239.041599 
L 6948.061248 236.105672 
L 6941.529208 232.331149 
L 6934.997168 244.782223 
L 6928.465129 231.341436 
L 6921.933089 236.465561 
L 6915.40105 238.634654 
L 6908.86901 238.351753 
L 6902.33697 239.429795 
L 6895.804931 238.936476 
L 6889.272891 238.050126 
L 6882.740851 239.319138 
L 6876.208812 237.748109 
L 6869.676772 234.840581 
L 6863.144733 235.944506 
L 6856.612693 236.713763 
L 6850.080653 233.806761 
L 6843.548614 230.940196 
L 6837.016574 235.851422 
L 6830.484535 247.852535 
L 6823.952495 236.239103 
L 6817.420455 231.293351 
L 6810.888416 252.854781 
L 6804.356376 231.906541 
L 6797.824337 227.870622 
L 6791.292297 221.86863 
L 6784.760257 219.105565 
L 6778.228218 230.156786 
L 6771.696178 248.178926 
L 6765.164139 240.660199 
L 6758.632099 238.486773 
L 6752.100059 235.264332 
L 6745.56802 240.670614 
L 6739.03598 240.412111 
L 6732.503941 236.580653 
L 6725.971901 241.708138 
L 6719.439861 233.658068 
L 6712.907822 239.834476 
L 6706.375782 229.520079 
L 6699.843743 230.307422 
L 6693.311703 238.159467 
L 6686.779663 238.769193 
L 6680.247624 231.425626 
L 6673.715584 226.419819 
L 6667.183545 241.8885 
L 6660.651505 236.010153 
L 6654.119465 230.082668 
L 6647.587426 236.957039 
L 6641.055386 237.117382 
L 6634.523347 247.669201 
L 6627.991307 250.608975 
L 6621.459267 252.640545 
L 6614.927228 244.281736 
L 6608.395188 248.611445 
L 1154.142119 279.987467 
L 1147.610079 276.903842 
L 1141.07804 266.529829 
L 1134.546 255.26583 
L 1128.01396 276.804783 
L 1121.481921 280.020153 
L 1114.949881 290.09259 
L 1108.417842 292.73276 
L 1101.885802 285.073309 
L 1095.353762 271.776619 
L 1088.821723 259.124685 
L 1082.289683 261.814582 
L 1075.757644 252.528373 
L 1069.225604 241.74406 
L 1062.693564 238.551413 
L 1056.161525 263.049308 
L 1049.629485 243.314414 
L 1043.097446 225.027517 
L 1036.565406 252.425234 
L 1030.033366 240.251733 
L 1023.501327 272.894332 
L 1016.969287 251.4814 
L 1010.437248 271.400697 
L 1003.905208 252.158596 
L 997.373168 262.582564 
L 990.841129 229.116563 
L 984.309089 239.517952 
L 977.77705 260.992168 
L 971.24501 274.616066 
L 964.71297 265.842566 
L 958.180931 248.84781 
L 951.648891 247.519673 
L 945.116851 245.868496 
L 938.584812 274.249238 
L 932.052772 281.685404 
L 925.520733 273.999795 
L 918.988693 275.024892 
L 912.456653 276.039145 
L 905.924614 262.30734 
L 899.392574 262.713816 
L 892.860535 282.760867 
L 886.328495 279.648958 
L 879.796455 283.892516 
L 873.264416 272.386019 
L 866.732376 277.494801 
L 860.200337 274.002624 
L 853.668297 280.919851 
L 847.136257 282.74477 
L 840.604218 277.023719 
L 834.072178 282.242894 
L 827.540139 278.681373 
L 821.008099 281.761562 
L 814.476059 285.288866 
L 807.94402 289.383062 
L 801.41198 279.938529 
L 794.879941 274.995373 
L 788.347901 275.0813 
L 781.815861 273.42966 
L 775.283822 281.126141 
L 768.751782 285.480454 
L 762.219743 282.536747 
L 755.687703 282.153233 
L 749.155663 286.435703 
L 742.623624 277.114128 
L 736.091584 274.634118 
L 729.559545 292.925686 
L 723.027505 286.937076 
L 716.495465 289.563087 
L 709.963426 284.198991 
L 703.431386 290.324249 
L 696.899347 272.541012 
L 690.367307 240.668796 
L 683.835267 250.264503 
L 677.303228 258.866067 
L 670.771188 251.189696 
L 664.239149 263.7015 
L 657.707109 264.127578 
L 651.175069 250.55818 
L 644.64303 233.79406 
L 638.11099 222.022411 
L 631.57895 249.541474 
L 625.046911 242.701373 
L 618.514871 237.394829 
L 611.982832 234.911418 
L 605.450792 230.549977 
L 598.918752 238.509855 
L 592.386713 234.789569 
L 585.854673 234.583198 
L 579.322634 234.073519 
L 572.790594 237.864139 
L 566.258554 230.313607 
L 559.726515 233.850365 
L 553.194475 236.369584 
L 546.662436 239.233896 
L 540.130396 237.492967 
L 533.598356 235.232344 
L 527.066317 230.851525 
L 520.534277 234.328136 
L 514.002238 241.886831 
L 507.470198 239.202548 
L 500.938158 232.740187 
L 494.406119 237.224803 
L 487.874079 237.275564 
L 481.34204 230.617944 
L 474.81 243.66654 
z
" clip-path="url(#pe31ec4ab8e)" style="fill: #e6e6e6; fill-opacity: 0.00001"/>
   </g>
   <g id="PI-PATCH-LOWER-0">
    <path d="M 474.81 308.10264 
L 481.34204 296.924437 
L 487.874079 312.721921 
L 494.406119 310.09914 
L 500.938158 308.02691 
L 507.470198 314.434877 
L 514.002238 313.795129 
L 520.534277 309.875035 
L 527.066317 309.468421 
L 533.598356 314.310385 
L 540.130396 321.275269 
L 546.662436 316.093316 
L 553.194475 325.307684 
L 559.726515 317.345261 
L 566.258554 314.852649 
L 572.790594 322.251023 
L 579.322634 308.448958 
L 585.854673 309.477567 
L 592.386713 318.751568 
L 598.918752 318.227334 
L 605.450792 310.070756 
L 611.982832 310.160742 
L 618.514871 302.60562 
L 625.046911 305.153794 
L 631.57895 311.691176 
L 638.11099 309.026178 
L 644.64303 313.856383 
L 651.175069 317.779712 
L 657.707109 329.812237 
L 664.239149 328.894101 
L 670.771188 314.76737 
L 677.303228 315.594299 
L 683.835267 304.384037 
L 690.367307 299.160769 
L 696.899347 328.918668 
L 703.431386 339.66 
L 729.559545 339.66 
L 736.091584 330.798695 
L 742.623624 329.844766 
L 749.155663 339.66 
L 755.687703 335.926358 
L 762.219743 337.58757 
L 768.751782 339.66 
L 775.283822 335.726907 
L 781.815861 327.299184 
L 788.347901 330.960772 
L 794.879941 333.262659 
L 801.41198 338.828085 
L 807.94402 339.66 
L 834.072178 339.66 
L 840.604218 337.947906 
L 847.136257 339.66 
L 853.668297 339.66 
L 860.200337 335.793135 
L 866.732376 339.66 
L 873.264416 336.500304 
L 879.796455 339.66 
L 892.860535 339.66 
L 899.392574 324.349072 
L 905.924614 322.685205 
L 912.456653 339.060158 
L 918.988693 339.66 
L 925.520733 337.922324 
L 932.052772 339.66 
L 938.584812 333.494474 
L 945.116851 307.527915 
L 951.648891 308.963227 
L 958.180931 310.916897 
L 964.71297 328.694112 
L 971.24501 336.131478 
L 977.77705 324.550037 
L 984.309089 306.516891 
L 990.841129 307.166666 
L 997.373168 328.348568 
L 1003.905208 314.917744 
L 1010.437248 336.423695 
L 1016.969287 314.652249 
L 1023.501327 336.849893 
L 1030.033366 302.004803 
L 1036.565406 307.883239 
L 1043.097446 289.552546 
L 1049.629485 300.997049 
L 1056.161525 318.88154 
L 1062.693564 297.87838 
L 1069.225604 299.714803 
L 1075.757644 304.126088 
L 1082.289683 313.029039 
L 1088.821723 308.764756 
L 1095.353762 325.062578 
L 1101.885802 339.66 
L 1114.949881 339.66 
L 1121.481921 334.671806 
L 1128.01396 334.575929 
L 1134.546 312.409344 
L 1141.07804 323.936137 
L 1147.610079 334.434702 
L 1154.142119 339.317597 
L 1200.52 339.065607 
L 1200.52 339.065607 
" clip-path="url(#pe31ec4ab8e)" style="fill: none; stroke: #b78935; stroke-opacity: 0; stroke-width: 1.5; stroke-linecap: square"/>
   </g>
   <g id="PI-PATCH-UPPER-0">
    <path d="M 474.81 243.66654 
L 481.34204 230.617944 
L 487.874079 237.275564 
L 494.406119 237.224803 
L 500.938158 232.740187 
L 507.470198 239.202548 
L 514.002238 241.886831 
L 520.534277 234.328136 
L 527.066317 230.851525 
L 533.598356 235.232344 
L 540.130396 237.492967 
L 546.662436 239.233896 
L 553.194475 236.369584 
L 559.726515 233.850365 
L 566.258554 230.313607 
L 572.790594 237.864139 
L 579.322634 234.073519 
L 585.854673 234.583198 
L 592.386713 234.789569 
L 598.918752 238.509855 
L 605.450792 230.549977 
L 611.982832 234.911418 
L 618.514871 237.394829 
L 625.046911 242.701373 
L 631.57895 249.541474 
L 638.11099 222.022411 
L 644.64303 233.79406 
L 651.175069 250.55818 
L 657.707109 264.127578 
L 664.239149 263.7015 
L 670.771188 251.189696 
L 677.303228 258.866067 
L 683.835267 250.264503 
L 690.367307 240.668796 
L 696.899347 272.541012 
L 703.431386 290.324249 
L 709.963426 284.198991 
L 716.495465 289.563087 
L 723.027505 286.937076 
L 729.559545 292.925686 
L 736.091584 274.634118 
L 742.623624 277.114128 
L 749.155663 286.435703 
L 755.687703 282.153233 
L 762.219743 282.536747 
L 768.751782 285.480454 
L 775.283822 281.126141 
L 781.815861 273.42966 
L 788.347901 275.0813 
L 794.879941 274.995373 
L 801.41198 279.938529 
L 807.94402 289.383062 
L 814.476059 285.288866 
L 821.008099 281.761562 
L 827.540139 278.681373 
L 834.072178 282.242894 
L 840.604218 277.023719 
L 847.136257 282.74477 
L 853.668297 280.919851 
L 860.200337 274.002624 
L 866.732376 277.494801 
L 873.264416 272.386019 
L 879.796455 283.892516 
L 886.328495 279.648958 
L 892.860535 282.760867 
L 899.392574 262.713816 
L 905.924614 262.30734 
L 912.456653 276.039145 
L 925.520733 273.999795 
L 932.052772 281.685404 
L 938.584812 274.249238 
L 945.116851 245.868496 
L 951.648891 247.519673 
L 958.180931 248.84781 
L 964.71297 265.842566 
L 971.24501 274.616066 
L 977.77705 260.992168 
L 984.309089 239.517952 
L 990.841129 229.116563 
L 997.373168 262.582564 
L 1003.905208 252.158596 
L 1010.437248 271.400697 
L 1016.969287 251.4814 
L 1023.501327 272.894332 
L 1030.033366 240.251733 
L 1036.565406 252.425234 
L 1043.097446 225.027517 
L 1049.629485 243.314414 
L 1056.161525 263.049308 
L 1062.693564 238.551413 
L 1069.225604 241.74406 
L 1075.757644 252.528373 
L 1082.289683 261.814582 
L 1088.821723 259.124685 
L 1095.353762 271.776619 
L 1101.885802 285.073309 
L 1108.417842 292.73276 
L 1114.949881 290.09259 
L 1121.481921 280.020153 
L 1128.01396 276.804783 
L 1134.546 255.26583 
L 1141.07804 266.529829 
L 1147.610079 276.903842 
L 1154.142119 279.987467 
L 1200.52 279.720674 
L 1200.52 279.720674 
" clip-path="url(#pe31ec4ab8e)" style="fill: none; stroke: #406992; stroke-opacity: 0; stroke-width: 1.5; stroke-linecap: square"/>
   </g>
   <g id="PI-PATCH-1">
    <path d="M 474.81 254.369851 
L 474.81 297.571818 
L 481.34204 285.967187 
L 487.874079 301.568726 
L 494.406119 299.041068 
L 500.938158 296.45835 
L 507.470198 303.426423 
L 514.002238 303.743016 
L 520.534277 299.08784 
L 527.066317 297.917963 
L 533.598356 302.975121 
L 540.130396 309.419607 
L 546.662436 305.078567 
L 553.194475 313.050853 
L 559.726515 305.309815 
L 566.258554 302.439939 
L 572.790594 310.313735 
L 579.322634 297.32485 
L 585.854673 298.379538 
L 592.386713 306.886609 
L 598.918752 306.792703 
L 605.450792 298.326993 
L 611.982832 298.962408 
L 618.514871 292.769816 
L 625.046911 296.115042 
L 631.57895 303.544576 
L 638.11099 296.934759 
L 644.64303 302.331869 
L 651.175069 308.334786 
L 657.707109 323.553609 
L 664.239149 322.414468 
L 670.771188 305.610237 
L 677.303228 307.654889 
L 683.835267 296.484011 
L 690.367307 289.655211 
L 696.899347 323.479591 
L 703.431386 337.688447 
L 709.963426 336.285038 
L 716.495465 337.041036 
L 723.027505 335.84757 
L 729.559545 337.573988 
L 736.091584 324.393304 
L 742.623624 323.265489 
L 749.155663 334.961174 
L 755.687703 330.542138 
L 762.219743 332.640813 
L 768.751782 336.274561 
L 775.283822 330.593292 
L 781.815861 320.94073 
L 788.347901 325.239409 
L 794.879941 328.172651 
L 801.41198 334.240917 
L 807.94402 338.099896 
L 814.476059 335.691532 
L 821.008099 336.100562 
L 827.540139 335.213642 
L 834.072178 336.348585 
L 840.604218 333.332265 
L 847.136257 336.284143 
L 853.668297 335.650867 
L 860.200337 330.624171 
L 866.732376 334.863813 
L 873.264416 331.404288 
L 879.796455 337.855978 
L 886.328495 335.622704 
L 892.860535 336.474892 
L 899.392574 317.61816 
L 905.924614 315.653839 
L 912.456653 333.497654 
L 918.988693 334.639125 
L 925.520733 332.48912 
L 932.052772 336.122046 
L 938.584812 327.939569 
L 945.116851 298.579381 
L 951.648891 300.006104 
L 958.180931 302.752121 
L 964.71297 322.376583 
L 971.24501 330.66791 
L 977.77705 317.881028 
L 984.309089 296.110446 
L 990.841129 295.460805 
L 997.373168 320.583633 
L 1003.905208 305.742469 
L 1010.437248 329.552284 
L 1016.969287 305.2906 
L 1023.501327 330.597613 
L 1030.033366 292.158091 
L 1036.565406 298.813679 
L 1043.097446 277.191135 
L 1049.629485 290.372833 
L 1056.161525 311.556867 
L 1062.693564 286.84557 
L 1069.225604 288.648442 
L 1075.757644 295.219325 
L 1082.289683 305.707476 
L 1088.821723 301.028339 
L 1095.353762 319.127986 
L 1101.885802 335.818696 
L 1108.417842 338.487479 
L 1114.949881 337.178387 
L 1121.481921 329.489747 
L 1128.01396 329.493072 
L 1134.546 304.232507 
L 1141.07804 316.498417 
L 1147.610079 329.016293 
L 1154.142119 334.75707 
L 6608.395188 301.766789 
L 6614.927228 295.364869 
L 6621.459267 303.915142 
L 6627.991307 302.281973 
L 6634.523347 299.430118 
L 6641.055386 295.245474 
L 6647.587426 299.845435 
L 6654.119465 292.67567 
L 6660.651505 298.479859 
L 6667.183545 310.428672 
L 6673.715584 295.365856 
L 6680.247624 298.376946 
L 6686.779663 314.189977 
L 6693.311703 307.40513 
L 6699.843743 295.857705 
L 6706.375782 294.898748 
L 6712.907822 311.273318 
L 6719.439861 307.49366 
L 6725.971901 313.597011 
L 6732.503941 310.392844 
L 6739.03598 315.527581 
L 6745.56802 303.396487 
L 6752.100059 297.491753 
L 6758.632099 291.762502 
L 6765.164139 292.971516 
L 6771.696178 302.787525 
L 6778.228218 295.311998 
L 6784.760257 298.193059 
L 6791.292297 301.587117 
L 6797.824337 292.750289 
L 6804.356376 297.496632 
L 6810.888416 308.902574 
L 6817.420455 288.223528 
L 6823.952495 299.406053 
L 6830.484535 298.39483 
L 6837.016574 281.970799 
L 6843.548614 283.081156 
L 6850.080653 287.242263 
L 6856.612693 289.425595 
L 6863.144733 288.699775 
L 6869.676772 294.903163 
L 6876.208812 298.440675 
L 6882.740851 296.396547 
L 6889.272891 290.933099 
L 6895.804931 293.027399 
L 6902.33697 297.239345 
L 6908.86901 298.890647 
L 6915.40105 292.089517 
L 6921.933089 287.384717 
L 6928.465129 290.24898 
L 6934.997168 299.114148 
L 6941.529208 286.888446 
L 6948.061248 299.439118 
L 6954.593287 307.037978 
L 6961.125327 296.971251 
L 6967.657366 300.586574 
L 6974.189406 303.389438 
L 6980.721446 291.148151 
L 6987.253485 296.597455 
L 6993.785525 296.128457 
L 7000.317564 303.291572 
L 7006.849604 306.969361 
L 7013.381644 297.600479 
L 7019.913683 308.595107 
L 7026.445723 306.571325 
L 7032.977762 306.801903 
L 7039.509802 271.839927 
L 7046.041842 281.474953 
L 7052.573881 280.33821 
L 7059.105921 279.00673 
L 7065.63796 280.045599 
L 7072.17 304.412465 
L 7078.70204 305.636938 
L 7085.234079 311.315766 
L 7091.766119 302.658559 
L 7098.298158 288.795723 
L 7104.830198 286.776926 
L 7111.362238 290.068538 
L 7117.894277 285.580377 
L 7117.894277 237.333593 
L 7117.894277 237.333593 
L 7111.362238 232.841443 
L 7104.830198 235.595111 
L 7098.298158 244.586388 
L 7091.766119 257.607955 
L 7085.234079 265.485107 
L 7078.70204 259.876473 
L 7072.17 259.439528 
L 7065.63796 234.799716 
L 7059.105921 234.037687 
L 7052.573881 235.67982 
L 7046.041842 234.771246 
L 7039.509802 225.812836 
L 7032.977762 255.813985 
L 7026.445723 262.023177 
L 7019.913683 254.666812 
L 7013.381644 243.507741 
L 7006.849604 261.933703 
L 7000.317564 251.171983 
L 6993.785525 246.086881 
L 6987.253485 245.9754 
L 6980.721446 245.026248 
L 6974.189406 251.282606 
L 6967.657366 249.882784 
L 6961.125327 247.549521 
L 6954.593287 254.331685 
L 6948.061248 249.730464 
L 6941.529208 242.941029 
L 6934.997168 256.282089 
L 6928.465129 242.815571 
L 6921.933089 245.74577 
L 6915.40105 248.251342 
L 6908.86901 249.430233 
L 6902.33697 249.830991 
L 6895.804931 248.005431 
L 6889.272891 246.696736 
L 6882.740851 248.975148 
L 6876.208812 248.315408 
L 6869.676772 245.296001 
L 6863.144733 244.976487 
L 6856.612693 246.057832 
L 6850.080653 243.102059 
L 6843.548614 240.129377 
L 6837.016574 243.204782 
L 6830.484535 258.201785 
L 6823.952495 250.34116 
L 6817.420455 243.023629 
L 6810.888416 266.553611 
L 6804.356376 245.649326 
L 6797.824337 240.822723 
L 6791.292297 240.22357 
L 6784.760257 237.81841 
L 6778.228218 244.960413 
L 6771.696178 261.730904 
L 6765.164139 252.805338 
L 6758.632099 249.9483 
L 6752.100059 249.470546 
L 6745.56802 255.179379 
L 6739.03598 258.444881 
L 6732.503941 253.850681 
L 6725.971901 258.594556 
L 6719.439861 250.644195 
L 6712.907822 256.463066 
L 6706.375782 243.643007 
L 6699.843743 244.482981 
L 6693.311703 253.865379 
L 6686.779663 256.381101 
L 6680.247624 245.978397 
L 6673.715584 241.266335 
L 6667.183545 257.859377 
L 6660.651505 249.700643 
L 6654.119465 243.547566 
L 6647.587426 251.113108 
L 6641.055386 249.804631 
L 6634.523347 259.287495 
L 6627.991307 263.21052 
L 6621.459267 265.056125 
L 6614.927228 255.717593 
L 6608.395188 261.685391 
L 1154.142119 297.12801 
L 1147.610079 292.111443 
L 1141.07804 278.823393 
L 1134.546 266.406351 
L 1128.01396 292.583998 
L 1121.481921 294.417275 
L 1114.949881 306.297179 
L 1108.417842 309.743718 
L 1101.885802 301.346494 
L 1095.353762 284.562778 
L 1088.821723 267.904039 
L 1082.289683 271.808934 
L 1075.757644 260.426569 
L 1069.225604 249.114863 
L 1062.693564 246.509505 
L 1056.161525 274.876845 
L 1049.629485 251.197767 
L 1043.097446 233.169453 
L 1036.565406 261.628661 
L 1030.033366 250.857797 
L 1023.501327 289.475701 
L 1016.969287 263.339736 
L 1010.437248 287.528578 
L 1003.905208 264.117478 
L 997.373168 277.738618 
L 990.841129 243.570591 
L 984.309089 251.417551 
L 977.77705 276.824132 
L 971.24501 291.34522 
L 964.71297 281.892043 
L 958.180931 261.965522 
L 951.648891 259.264485 
L 945.116851 257.711393 
L 938.584812 289.945434 
L 932.052772 299.737086 
L 925.520733 291.72991 
L 918.988693 293.623475 
L 912.456653 293.227092 
L 905.924614 276.359835 
L 899.392574 277.692883 
L 892.860535 300.885105 
L 886.328495 297.802687 
L 879.796455 303.525552 
L 873.264416 290.670756 
L 866.732376 295.429238 
L 860.200337 291.259158 
L 853.668297 298.607791 
L 847.136257 300.604829 
L 840.604218 294.72042 
L 834.072178 300.394083 
L 827.540139 296.706333 
L 821.008099 299.752462 
L 814.476059 301.295885 
L 807.94402 307.177197 
L 801.41198 296.865959 
L 794.879941 290.961877 
L 788.347901 289.201996 
L 781.815861 285.846778 
L 775.283822 295.571733 
L 768.751782 302.238283 
L 762.219743 297.4265 
L 755.687703 295.91398 
L 749.155663 300.950308 
L 742.623624 288.764791 
L 736.091584 287.897948 
L 729.559545 308.564048 
L 723.027505 302.509553 
L 716.495465 305.783548 
L 709.963426 301.481627 
L 703.431386 307.160192 
L 696.899347 287.260389 
L 690.367307 250.46108 
L 683.835267 260.59433 
L 677.303228 270.17813 
L 670.771188 263.500037 
L 664.239149 280.452626 
L 657.707109 281.388018 
L 651.175069 263.910312 
L 644.64303 249.306078 
L 638.11099 239.49253 
L 631.57895 262.717049 
L 625.046911 254.731859 
L 618.514871 249.392332 
L 611.982832 248.970851 
L 605.450792 245.535481 
L 598.918752 254.012149 
L 592.386713 251.370489 
L 585.854673 248.643666 
L 579.322634 247.890491 
L 572.790594 254.511537 
L 566.258554 246.347149 
L 559.726515 250.003564 
L 553.194475 254.374807 
L 546.662436 254.194473 
L 540.130396 254.015567 
L 533.598356 250.621136 
L 527.066317 245.751548 
L 520.534277 249.089203 
L 514.002238 256.242696 
L 507.470198 253.524569 
L 500.938158 246.289322 
L 494.406119 250.538101 
L 487.874079 251.477435 
L 481.34204 241.460655 
L 474.81 254.369851 
z
" clip-path="url(#pe31ec4ab8e)" style="fill: #bfbfbf; fill-opacity: 0.00001"/>
   </g>
   <g id="PI-PATCH-LOWER-1">
    <path d="M 474.81 297.571818 
L 481.34204 285.967187 
L 487.874079 301.568726 
L 500.938158 296.45835 
L 507.470198 303.426423 
L 514.002238 303.743016 
L 520.534277 299.08784 
L 527.066317 297.917963 
L 533.598356 302.975121 
L 540.130396 309.419607 
L 546.662436 305.078567 
L 553.194475 313.050853 
L 559.726515 305.309815 
L 566.258554 302.439939 
L 572.790594 310.313735 
L 579.322634 297.32485 
L 585.854673 298.379538 
L 592.386713 306.886609 
L 598.918752 306.792703 
L 605.450792 298.326993 
L 611.982832 298.962408 
L 618.514871 292.769816 
L 625.046911 296.115042 
L 631.57895 303.544576 
L 638.11099 296.934759 
L 644.64303 302.331869 
L 651.175069 308.334786 
L 657.707109 323.553609 
L 664.239149 322.414468 
L 670.771188 305.610237 
L 677.303228 307.654889 
L 683.835267 296.484011 
L 690.367307 289.655211 
L 696.899347 323.479591 
L 703.431386 337.688447 
L 709.963426 336.285038 
L 716.495465 337.041036 
L 723.027505 335.84757 
L 729.559545 337.573988 
L 736.091584 324.393304 
L 742.623624 323.265489 
L 749.155663 334.961174 
L 755.687703 330.542138 
L 762.219743 332.640813 
L 768.751782 336.274561 
L 775.283822 330.593292 
L 781.815861 320.94073 
L 788.347901 325.239409 
L 794.879941 328.172651 
L 801.41198 334.240917 
L 807.94402 338.099896 
L 814.476059 335.691532 
L 821.008099 336.100562 
L 827.540139 335.213642 
L 834.072178 336.348585 
L 840.604218 333.332265 
L 847.136257 336.284143 
L 853.668297 335.650867 
L 860.200337 330.624171 
L 866.732376 334.863813 
L 873.264416 331.404288 
L 879.796455 337.855978 
L 886.328495 335.622704 
L 892.860535 336.474892 
L 899.392574 317.61816 
L 905.924614 315.653839 
L 912.456653 333.497654 
L 918.988693 334.639125 
L 925.520733 332.48912 
L 932.052772 336.122046 
L 938.584812 327.939569 
L 945.116851 298.579381 
L 951.648891 300.006104 
L 958.180931 302.752121 
L 964.71297 322.376583 
L 971.24501 330.66791 
L 977.77705 317.881028 
L 984.309089 296.110446 
L 990.841129 295.460805 
L 997.373168 320.583633 
L 1003.905208 305.742469 
L 1010.437248 329.552284 
L 1016.969287 305.2906 
L 1023.501327 330.597613 
L 1030.033366 292.158091 
L 1036.565406 298.813679 
L 1043.097446 277.191135 
L 1049.629485 290.372833 
L 1056.161525 311.556867 
L 1062.693564 286.84557 
L 1069.225604 288.648442 
L 1075.757644 295.219325 
L 1082.289683 305.707476 
L 1088.821723 301.028339 
L 1095.353762 319.127986 
L 1101.885802 335.818696 
L 1108.417842 338.487479 
L 1114.949881 337.178387 
L 1121.481921 329.489747 
L 1128.01396 329.493072 
L 1134.546 304.232507 
L 1141.07804 316.498417 
L 1147.610079 329.016293 
L 1154.142119 334.75707 
L 1200.52 334.476552 
L 1200.52 334.476552 
" clip-path="url(#pe31ec4ab8e)" style="fill: none; stroke: #b78935; stroke-opacity: 0; stroke-width: 1.5; stroke-linecap: square"/>
   </g>
   <g id="PI-PATCH-UPPER-1">
    <path d="M 474.81 254.369851 
L 481.34204 241.460655 
L 487.874079 251.477435 
L 494.406119 250.538101 
L 500.938158 246.289322 
L 507.470198 253.524569 
L 514.002238 256.242696 
L 520.534277 249.089203 
L 527.066317 245.751548 
L 533.598356 250.621136 
L 540.130396 254.015567 
L 553.194475 254.374807 
L 559.726515 250.003564 
L 566.258554 246.347149 
L 572.790594 254.511537 
L 579.322634 247.890491 
L 585.854673 248.643666 
L 598.918752 254.012149 
L 605.450792 245.535481 
L 611.982832 248.970851 
L 618.514871 249.392332 
L 625.046911 254.731859 
L 631.57895 262.717049 
L 638.11099 239.49253 
L 644.64303 249.306078 
L 651.175069 263.910312 
L 657.707109 281.388018 
L 664.239149 280.452626 
L 670.771188 263.500037 
L 677.303228 270.17813 
L 683.835267 260.59433 
L 690.367307 250.46108 
L 696.899347 287.260389 
L 703.431386 307.160192 
L 709.963426 301.481627 
L 716.495465 305.783548 
L 723.027505 302.509553 
L 729.559545 308.564048 
L 736.091584 287.897948 
L 742.623624 288.764791 
L 749.155663 300.950308 
L 755.687703 295.91398 
L 762.219743 297.4265 
L 768.751782 302.238283 
L 775.283822 295.571733 
L 781.815861 285.846778 
L 788.347901 289.201996 
L 794.879941 290.961877 
L 801.41198 296.865959 
L 807.94402 307.177197 
L 814.476059 301.295885 
L 821.008099 299.752462 
L 827.540139 296.706333 
L 834.072178 300.394083 
L 840.604218 294.72042 
L 847.136257 300.604829 
L 853.668297 298.607791 
L 860.200337 291.259158 
L 866.732376 295.429238 
L 873.264416 290.670756 
L 879.796455 303.525552 
L 886.328495 297.802687 
L 892.860535 300.885105 
L 899.392574 277.692883 
L 905.924614 276.359835 
L 912.456653 293.227092 
L 918.988693 293.623475 
L 925.520733 291.72991 
L 932.052772 299.737086 
L 938.584812 289.945434 
L 945.116851 257.711393 
L 951.648891 259.264485 
L 958.180931 261.965522 
L 964.71297 281.892043 
L 971.24501 291.34522 
L 977.77705 276.824132 
L 984.309089 251.417551 
L 990.841129 243.570591 
L 997.373168 277.738618 
L 1003.905208 264.117478 
L 1010.437248 287.528578 
L 1016.969287 263.339736 
L 1023.501327 289.475701 
L 1030.033366 250.857797 
L 1036.565406 261.628661 
L 1043.097446 233.169453 
L 1049.629485 251.197767 
L 1056.161525 274.876845 
L 1062.693564 246.509505 
L 1069.225604 249.114863 
L 1082.289683 271.808934 
L 1088.821723 267.904039 
L 1101.885802 301.346494 
L 1108.417842 309.743718 
L 1114.949881 306.297179 
L 1121.481921 294.417275 
L 1128.01396 292.583998 
L 1134.546 266.406351 
L 1141.07804 278.823393 
L 1147.610079 292.111443 
L 1154.142119 297.12801 
L 1200.52 296.826639 
L 1200.52 296.826639 
" clip-path="url(#pe31ec4ab8e)" style="fill: none; stroke: #406992; stroke-opacity: 0; stroke-width: 1.5; stroke-linecap: square"/>
   </g>
   <g id="PI-PATCH-2">
    <path d="M 474.81 262.466593 
L 474.81 289.203187 
L 481.34204 277.259683 
L 487.874079 292.705507 
L 494.406119 290.253442 
L 500.938158 287.265049 
L 507.470198 294.678227 
L 514.002238 295.754805 
L 520.534277 290.515474 
L 527.066317 288.739048 
L 533.598356 293.967216 
L 540.130396 299.998153 
L 546.662436 296.325369 
L 553.194475 303.310596 
L 559.726515 295.745489 
L 566.258554 292.575809 
L 572.790594 300.827414 
L 579.322634 288.484746 
L 585.854673 289.560158 
L 592.386713 297.457766 
L 598.918752 297.705833 
L 605.450792 288.994463 
L 611.982832 290.063319 
L 618.514871 284.953502 
L 625.046911 288.932129 
L 631.57895 297.070637 
L 638.11099 287.325953 
L 644.64303 293.17357 
L 651.175069 300.829094 
L 657.707109 318.580004 
L 664.239149 317.265234 
L 670.771188 298.333248 
L 677.303228 301.3456 
L 683.835267 290.206021 
L 690.367307 282.101337 
L 696.899347 319.157266 
L 703.431386 336.121694 
L 709.963426 333.603024 
L 716.495465 334.959799 
L 723.027505 332.81791 
L 729.559545 335.916277 
L 736.091584 319.30307 
L 742.623624 318.03707 
L 749.155663 331.227111 
L 755.687703 326.263407 
L 762.219743 328.709725 
L 768.751782 333.584221 
L 775.283822 326.513712 
L 781.815861 315.887795 
L 788.347901 320.692757 
L 794.879941 324.127725 
L 801.41198 330.595588 
L 807.94402 336.860112 
L 814.476059 332.537871 
L 821.008099 333.271948 
L 827.540139 331.731961 
L 834.072178 333.71707 
L 840.604218 329.664309 
L 847.136257 333.601418 
L 853.668297 332.46489 
L 860.200337 326.516499 
L 866.732376 331.05238 
L 873.264416 327.354587 
L 879.796455 336.422358 
L 886.328495 332.414347 
L 892.860535 333.94375 
L 899.392574 312.26924 
L 905.924614 310.066155 
L 912.456653 329.077244 
L 918.988693 330.649137 
L 925.520733 328.171462 
L 932.052772 333.310505 
L 938.584812 323.525199 
L 945.116851 291.468162 
L 951.648891 292.888059 
L 958.180931 296.263739 
L 964.71297 317.356169 
L 971.24501 326.326123 
L 977.77705 312.581302 
L 984.309089 287.840653 
L 990.841129 286.158394 
L 997.373168 314.412997 
L 1003.905208 298.451063 
L 1010.437248 324.091713 
L 1016.969287 297.851087 
L 1023.501327 325.629053 
L 1030.033366 284.333108 
L 1036.565406 291.606284 
L 1043.097446 267.367772 
L 1049.629485 281.929983 
L 1056.161525 305.736097 
L 1062.693564 278.078019 
L 1069.225604 279.854229 
L 1075.757644 288.1413 
L 1082.289683 299.889178 
L 1088.821723 294.880365 
L 1095.353762 314.411885 
L 1101.885802 332.766089 
L 1108.417842 337.555699 
L 1114.949881 335.2063 
L 1121.481921 325.37167 
L 1128.01396 325.453829 
L 1134.546 297.73454 
L 1141.07804 310.587811 
L 1147.610079 324.710393 
L 1154.142119 331.132912 
L 6608.395188 295.476398 
L 6614.927228 288.441074 
L 6621.459267 297.694873 
L 6627.991307 296.08306 
L 6634.523347 292.438364 
L 6641.055386 287.113169 
L 6647.587426 291.381822 
L 6654.119465 283.765413 
L 6660.651505 289.78346 
L 6667.183545 301.626927 
L 6673.715584 285.562881 
L 6680.247624 288.963316 
L 6686.779663 304.534033 
L 6693.311703 298.178475 
L 6699.843743 286.584477 
L 6706.375782 285.637715 
L 6712.907822 302.085536 
L 6719.439861 297.841633 
L 6725.971901 304.470542 
L 6732.503941 300.969124 
L 6739.03598 306.29394 
L 6745.56802 295.257856 
L 6752.100059 289.271989 
L 6758.632099 284.179315 
L 6765.164139 286.219442 
L 6771.696178 296.419055 
L 6778.228218 286.650223 
L 6784.760257 288.258212 
L 6791.292297 291.178076 
L 6797.824337 282.73222 
L 6804.356376 287.874094 
L 6810.888416 302.202511 
L 6817.420455 279.717263 
L 6823.952495 290.814074 
L 6830.484535 290.79254 
L 6837.016574 273.406239 
L 6843.548614 274.08024 
L 6850.080653 277.922857 
L 6856.612693 280.368395 
L 6863.144733 279.386113 
L 6869.676772 284.433661 
L 6876.208812 287.863085 
L 6882.740851 286.229555 
L 6889.272891 281.279802 
L 6895.804931 283.328671 
L 6902.33697 287.425729 
L 6908.86901 288.758698 
L 6915.40105 283.01436 
L 6921.933089 278.833258 
L 6928.465129 280.930581 
L 6934.997168 291.233549 
L 6941.529208 278.245036 
L 6948.061248 290.423932 
L 6954.593287 297.874638 
L 6961.125327 287.929271 
L 6967.657366 291.519335 
L 6974.189406 294.397075 
L 6980.721446 282.904605 
L 6987.253485 287.582639 
L 6993.785525 287.062489 
L 7000.317564 294.193865 
L 7006.849604 300.500802 
L 7013.381644 288.276333 
L 7019.913683 299.693254 
L 7026.445723 300.048247 
L 7032.977762 298.167076 
L 7039.509802 263.055851 
L 7046.041842 272.765174 
L 7052.573881 272.003817 
L 7059.105921 270.422313 
L 7065.63796 271.354114 
L 7072.17 297.767816 
L 7078.70204 298.934726 
L 7085.234079 304.992479 
L 7091.766119 295.5767 
L 7098.298158 280.617678 
L 7104.830198 277.338746 
L 7111.362238 279.64307 
L 7117.894277 276.209545 
L 7117.894277 246.335519 
L 7117.894277 246.335519 
L 7111.362238 244.631685 
L 7104.830198 245.955875 
L 7098.298158 253.494358 
L 7091.766119 268.705446 
L 7085.234079 278.196714 
L 7078.70204 271.94152 
L 7072.17 271.2037 
L 7065.63796 243.397435 
L 7059.105921 242.66976 
L 7052.573881 244.560022 
L 7046.041842 244.068356 
L 7039.509802 234.651748 
L 7032.977762 267.37415 
L 7026.445723 273.771131 
L 7019.913683 267.266272 
L 7013.381644 255.507979 
L 7006.849604 274.013387 
L 7000.317564 262.551045 
L 6993.785525 256.478153 
L 6987.253485 256.739454 
L 6980.721446 254.784804 
L 6974.189406 262.82528 
L 6967.657366 260.603112 
L 6961.125327 257.669579 
L 6954.593287 265.898189 
L 6948.061248 260.03722 
L 6941.529208 250.967094 
L 6934.997168 264.981402 
L 6928.465129 251.495418 
L 6921.933089 252.765977 
L 6915.40105 255.526086 
L 6908.86901 257.810779 
L 6902.33697 257.699193 
L 6895.804931 254.86583 
L 6889.272891 253.237644 
L 6882.740851 256.279637 
L 6876.208812 256.309261 
L 6869.676772 253.205221 
L 6863.144733 251.808917 
L 6856.612693 253.126346 
L 6850.080653 250.13368 
L 6843.548614 247.080723 
L 6837.016574 248.767385 
L 6830.484535 266.030691 
L 6823.952495 261.008955 
L 6817.420455 251.897242 
L 6810.888416 276.916376 
L 6804.356376 256.045341 
L 6797.824337 250.620609 
L 6791.292297 254.108546 
L 6784.760257 251.974131 
L 6778.228218 256.158926 
L 6771.696178 271.98258 
L 6765.164139 261.992781 
L 6758.632099 258.618611 
L 6752.100059 260.217132 
L 6745.56802 266.154837 
L 6739.03598 272.086146 
L 6732.503941 266.914952 
L 6725.971901 271.368638 
L 6719.439861 263.493704 
L 6712.907822 269.042109 
L 6706.375782 254.32659 
L 6699.843743 255.206378 
L 6693.311703 265.746442 
L 6686.779663 269.703994 
L 6680.247624 256.987143 
L 6673.715584 252.497291 
L 6667.183545 269.940879 
L 6660.651505 260.0571 
L 6654.119465 253.733369 
L 6647.587426 261.821761 
L 6641.055386 259.402164 
L 6634.523347 268.076396 
L 6627.991307 272.743222 
L 6621.459267 274.448148 
L 6614.927228 264.368485 
L 6608.395188 271.57545 
L 1154.142119 310.09433 
L 1147.610079 303.61555 
L 1141.07804 288.123115 
L 1134.546 274.833829 
L 1128.01396 304.520513 
L 1121.481921 305.308278 
L 1114.949881 318.555477 
L 1108.417842 322.61201 
L 1101.885802 313.656683 
L 1095.353762 294.235134 
L 1088.821723 274.545364 
L 1082.289683 279.369369 
L 1075.757644 266.401324 
L 1069.225604 254.690661 
L 1062.693564 252.52957 
L 1056.161525 283.824032 
L 1049.629485 257.161294 
L 1043.097446 239.328589 
L 1036.565406 268.590785 
L 1030.033366 258.880974 
L 1023.501327 302.019022 
L 1016.969287 272.31022 
L 1010.437248 299.72885 
L 1003.905208 273.164023 
L 997.373168 289.203731 
L 990.841129 254.504641 
L 984.309089 260.419251 
L 977.77705 288.80055 
L 971.24501 304.000337 
L 964.71297 294.033003 
L 958.180931 271.888688 
L 951.648891 268.149092 
L 945.116851 266.670199 
L 938.584812 301.819148 
L 932.052772 313.392656 
L 925.520733 305.142224 
L 918.988693 307.69276 
L 912.456653 306.229273 
L 905.924614 286.990137 
L 899.392574 289.024109 
L 892.860535 314.595562 
L 886.328495 311.535454 
L 879.796455 318.37737 
L 873.264416 304.502626 
L 866.732376 308.996115 
L 860.200337 304.313222 
L 853.668297 311.988201 
L 847.136257 314.115443 
L 840.604218 308.107457 
L 834.072178 314.124927 
L 827.540139 310.341689 
L 821.008099 313.362052 
L 814.476059 313.404728 
L 807.94402 320.63794 
L 801.41198 309.671065 
L 794.879941 303.040072 
L 788.347901 299.88389 
L 781.815861 295.239964 
L 775.283822 306.499401 
L 768.751782 314.915091 
L 762.219743 308.690163 
L 755.687703 306.323583 
L 749.155663 311.930182 
L 742.623624 297.578178 
L 736.091584 297.931648 
L 729.559545 320.394012 
L 723.027505 314.289677 
L 716.495465 318.053854 
L 709.963426 314.555437 
L 703.431386 319.89609 
L 696.899347 298.395167 
L 690.367307 257.868656 
L 683.835267 268.408541 
L 677.303228 278.735375 
L 670.771188 272.81245 
L 664.239149 293.124363 
L 657.707109 294.445038 
L 651.175069 274.01081 
L 644.64303 261.040466 
L 638.11099 252.708166 
L 631.57895 272.683987 
L 625.046911 263.832571 
L 618.514871 258.468092 
L 611.982832 259.606402 
L 605.450792 256.871577 
L 598.918752 265.739181 
L 592.386713 263.913471 
L 585.854673 259.28 
L 579.322634 258.342626 
L 572.790594 267.104808 
L 566.258554 258.476055 
L 559.726515 262.222987 
L 553.194475 267.995233 
L 546.662436 265.511713 
L 540.130396 266.514432 
L 533.598356 262.262308 
L 527.066317 257.02298 
L 520.534277 260.255519 
L 514.002238 267.102489 
L 507.470198 264.358761 
L 500.938158 256.538847 
L 494.406119 260.609222 
L 487.874079 262.220736 
L 481.34204 249.662848 
L 474.81 262.466593 
z
" clip-path="url(#pe31ec4ab8e)" style="fill: #808080; fill-opacity: 0.00001"/>
   </g>
   <g id="PI-PATCH-LOWER-2">
    <path d="M 474.81 289.203187 
L 481.34204 277.259683 
L 487.874079 292.705507 
L 494.406119 290.253442 
L 500.938158 287.265049 
L 507.470198 294.678227 
L 514.002238 295.754805 
L 520.534277 290.515474 
L 527.066317 288.739048 
L 533.598356 293.967216 
L 540.130396 299.998153 
L 546.662436 296.325369 
L 553.194475 303.310596 
L 559.726515 295.745489 
L 566.258554 292.575809 
L 572.790594 300.827414 
L 579.322634 288.484746 
L 585.854673 289.560158 
L 592.386713 297.457766 
L 598.918752 297.705833 
L 605.450792 288.994463 
L 611.982832 290.063319 
L 618.514871 284.953502 
L 625.046911 288.932129 
L 631.57895 297.070637 
L 638.11099 287.325953 
L 644.64303 293.17357 
L 651.175069 300.829094 
L 657.707109 318.580004 
L 664.239149 317.265234 
L 670.771188 298.333248 
L 677.303228 301.3456 
L 683.835267 290.206021 
L 690.367307 282.101337 
L 696.899347 319.157266 
L 703.431386 336.121694 
L 709.963426 333.603024 
L 716.495465 334.959799 
L 723.027505 332.81791 
L 729.559545 335.916277 
L 736.091584 319.30307 
L 742.623624 318.03707 
L 749.155663 331.227111 
L 755.687703 326.263407 
L 762.219743 328.709725 
L 768.751782 333.584221 
L 775.283822 326.513712 
L 781.815861 315.887795 
L 788.347901 320.692757 
L 794.879941 324.127725 
L 801.41198 330.595588 
L 807.94402 336.860112 
L 814.476059 332.537871 
L 821.008099 333.271948 
L 827.540139 331.731961 
L 834.072178 333.71707 
L 840.604218 329.664309 
L 847.136257 333.601418 
L 853.668297 332.46489 
L 860.200337 326.516499 
L 866.732376 331.05238 
L 873.264416 327.354587 
L 879.796455 336.422358 
L 886.328495 332.414347 
L 892.860535 333.94375 
L 899.392574 312.26924 
L 905.924614 310.066155 
L 912.456653 329.077244 
L 918.988693 330.649137 
L 925.520733 328.171462 
L 932.052772 333.310505 
L 938.584812 323.525199 
L 945.116851 291.468162 
L 951.648891 292.888059 
L 958.180931 296.263739 
L 964.71297 317.356169 
L 971.24501 326.326123 
L 977.77705 312.581302 
L 984.309089 287.840653 
L 990.841129 286.158394 
L 997.373168 314.412997 
L 1003.905208 298.451063 
L 1010.437248 324.091713 
L 1016.969287 297.851087 
L 1023.501327 325.629053 
L 1030.033366 284.333108 
L 1036.565406 291.606284 
L 1043.097446 267.367772 
L 1049.629485 281.929983 
L 1056.161525 305.736097 
L 1062.693564 278.078019 
L 1069.225604 279.854229 
L 1075.757644 288.1413 
L 1082.289683 299.889178 
L 1088.821723 294.880365 
L 1095.353762 314.411885 
L 1101.885802 332.766089 
L 1108.417842 337.555699 
L 1114.949881 335.2063 
L 1121.481921 325.37167 
L 1128.01396 325.453829 
L 1134.546 297.73454 
L 1141.07804 310.587811 
L 1147.610079 324.710393 
L 1154.142119 331.132912 
L 1200.52 330.829722 
L 1200.52 330.829722 
" clip-path="url(#pe31ec4ab8e)" style="fill: none; stroke: #b78935; stroke-opacity: 0; stroke-width: 1.5; stroke-linecap: square"/>
   </g>
   <g id="PI-PATCH-UPPER-2">
    <path d="M 474.81 262.466593 
L 481.34204 249.662848 
L 487.874079 262.220736 
L 494.406119 260.609222 
L 500.938158 256.538847 
L 507.470198 264.358761 
L 514.002238 267.102489 
L 520.534277 260.255519 
L 527.066317 257.02298 
L 533.598356 262.262308 
L 540.130396 266.514432 
L 546.662436 265.511713 
L 553.194475 267.995233 
L 559.726515 262.222987 
L 566.258554 258.476055 
L 572.790594 267.104808 
L 579.322634 258.342626 
L 585.854673 259.28 
L 592.386713 263.913471 
L 598.918752 265.739181 
L 605.450792 256.871577 
L 611.982832 259.606402 
L 618.514871 258.468092 
L 625.046911 263.832571 
L 631.57895 272.683987 
L 638.11099 252.708166 
L 644.64303 261.040466 
L 651.175069 274.01081 
L 657.707109 294.445038 
L 664.239149 293.124363 
L 670.771188 272.81245 
L 677.303228 278.735375 
L 683.835267 268.408541 
L 690.367307 257.868656 
L 696.899347 298.395167 
L 703.431386 319.89609 
L 709.963426 314.555437 
L 716.495465 318.053854 
L 723.027505 314.289677 
L 729.559545 320.394012 
L 736.091584 297.931648 
L 742.623624 297.578178 
L 749.155663 311.930182 
L 755.687703 306.323583 
L 762.219743 308.690163 
L 768.751782 314.915091 
L 775.283822 306.499401 
L 781.815861 295.239964 
L 788.347901 299.88389 
L 794.879941 303.040072 
L 801.41198 309.671065 
L 807.94402 320.63794 
L 814.476059 313.404728 
L 821.008099 313.362052 
L 827.540139 310.341689 
L 834.072178 314.124927 
L 840.604218 308.107457 
L 847.136257 314.115443 
L 853.668297 311.988201 
L 860.200337 304.313222 
L 866.732376 308.996115 
L 873.264416 304.502626 
L 879.796455 318.37737 
L 886.328495 311.535454 
L 892.860535 314.595562 
L 899.392574 289.024109 
L 905.924614 286.990137 
L 912.456653 306.229273 
L 918.988693 307.69276 
L 925.520733 305.142224 
L 932.052772 313.392656 
L 938.584812 301.819148 
L 945.116851 266.670199 
L 951.648891 268.149092 
L 958.180931 271.888688 
L 964.71297 294.033003 
L 971.24501 304.000337 
L 977.77705 288.80055 
L 984.309089 260.419251 
L 990.841129 254.504641 
L 997.373168 289.203731 
L 1003.905208 273.164023 
L 1010.437248 299.72885 
L 1016.969287 272.31022 
L 1023.501327 302.019022 
L 1030.033366 258.880974 
L 1036.565406 268.590785 
L 1043.097446 239.328589 
L 1049.629485 257.161294 
L 1056.161525 283.824032 
L 1062.693564 252.52957 
L 1069.225604 254.690661 
L 1075.757644 266.401324 
L 1082.289683 279.369369 
L 1088.821723 274.545364 
L 1101.885802 313.656683 
L 1108.417842 322.61201 
L 1114.949881 318.555477 
L 1121.481921 305.308278 
L 1128.01396 304.520513 
L 1134.546 274.833829 
L 1141.07804 288.123115 
L 1147.610079 303.61555 
L 1154.142119 310.09433 
L 1200.52 309.766801 
L 1200.52 309.766801 
" clip-path="url(#pe31ec4ab8e)" style="fill: none; stroke: #406992; stroke-opacity: 0; stroke-width: 1.5; stroke-linecap: square"/>
   </g>
   <g id="matplotlib.axis_3">
    <g id="xtick_4">
     <g id="line2d_7">
      <g>
       <use xlink:href="#m565ed22d14" x="496.272416" y="339.66" style="fill: #949494; stroke: #949494; stroke-width: 0.8"/>
      </g>
     </g>
     <g id="text_8">
      <text style="font-weight: 300; font-size: 16px; font-family: 'Source Sans 3', sans-serif; text-anchor: middle; fill: #494949" x="496.272416" y="358.2125" transform="rotate(-0 496.272416 358.2125)">2021</text>
     </g>
    </g>
    <g id="xtick_5">
     <g id="line2d_8">
      <g>
       <use xlink:href="#m565ed22d14" x="836.871624" y="339.66" style="fill: #949494; stroke: #949494; stroke-width: 0.8"/>
      </g>
     </g>
     <g id="text_9">
      <text style="font-weight: 300; font-size: 16px; font-family: 'Source Sans 3', sans-serif; text-anchor: middle; fill: #494949" x="836.871624" y="358.2125" transform="rotate(-0 836.871624 358.2125)">2022</text>
     </g>
    </g>
    <g id="text_10">
     <text style="font-weight: 600; font-size: 16px; font-family: 'Source Sans 3', sans-serif; text-anchor: middle; fill: #494949" x="804.678" y="377.3175" transform="rotate(-0 804.678 377.3175)">Date</text>
    </g>
   </g>
   <g id="matplotlib.axis_4">
    <g id="ytick_4">
     <g id="line2d_9">
      <path d="M 474.81 339.66 
L 1134.546 339.66 
" style="fill: none; stroke: #d1d1d1; stroke-width: 0.8; stroke-linecap: square"/>
     </g>
     <g id="line2d_10">
      <g>
       <use xlink:href="#m0f836a7ab9" x="474.81" y="339.66" style="fill: #949494; stroke: #949494; stroke-width: 0.8"/>
      </g>
     </g>
     <g id="text_11">
      <text style="font-weight: 300; font-size: 16px; font-family: 'Source Sans 3', sans-serif; text-anchor: end; fill: #494949" x="467.81" y="345.43625" transform="rotate(-0 467.81 345.43625)">0</text>
     </g>
    </g>
    <g id="ytick_5">
     <g id="line2d_11">
      <path d="M 474.81 279.72 
L 1134.546 279.72 
" style="fill: none; stroke: #d1d1d1; stroke-width: 0.8; stroke-linecap: square"/>
     </g>
     <g id="line2d_12">
      <g>
       <use xlink:href="#m0f836a7ab9" x="474.81" y="279.72" style="fill: #949494; stroke: #949494; stroke-width: 0.8"/>
      </g>
     </g>
     <g id="text_12">
      <text style="font-weight: 300; font-size: 16px; font-family: 'Source Sans 3', sans-serif; text-anchor: end; fill: #494949" x="467.81" y="285.49625" transform="rotate(-0 467.81 285.49625)">20</text>
     </g>
    </g>
    <g id="ytick_6">
     <g id="line2d_13">
      <path d="M 474.81 219.78 
L 1134.546 219.78 
" style="fill: none; stroke: #d1d1d1; stroke-width: 0.8; stroke-linecap: square"/>
     </g>
     <g id="line2d_14">
      <g>
       <use xlink:href="#m0f836a7ab9" x="474.81" y="219.78" style="fill: #949494; stroke: #949494; stroke-width: 0.8"/>
      </g>
     </g>
     <g id="text_13">
      <text style="font-weight: 300; font-size: 16px; font-family: 'Source Sans 3', sans-serif; text-anchor: end; fill: #494949" x="467.81" y="225.55625" transform="rotate(-0 467.81 225.55625)">40</text>
     </g>
    </g>
    <g id="ytick_7">
     <g id="line2d_15">
      <path d="M 474.81 159.84 
L 1134.546 159.84 
" style="fill: none; stroke: #d1d1d1; stroke-width: 0.8; stroke-linecap: square"/>
     </g>
     <g id="line2d_16">
      <g>
       <use xlink:href="#m0f836a7ab9" x="474.81" y="159.84" style="fill: #949494; stroke: #949494; stroke-width: 0.8"/>
      </g>
     </g>
     <g id="text_14">
      <text style="font-weight: 300; font-size: 16px; font-family: 'Source Sans 3', sans-serif; text-anchor: end; fill: #494949" x="467.81" y="165.61625" transform="rotate(-0 467.81 165.61625)">60</text>
     </g>
    </g>
    <g id="ytick_8">
     <g id="line2d_17">
      <path d="M 474.81 99.9 
L 1134.546 99.9 
" style="fill: none; stroke: #d1d1d1; stroke-width: 0.8; stroke-linecap: square"/>
     </g>
     <g id="line2d_18">
      <g>
       <use xlink:href="#m0f836a7ab9" x="474.81" y="99.9" style="fill: #949494; stroke: #949494; stroke-width: 0.8"/>
      </g>
     </g>
     <g id="text_15">
      <text style="font-weight: 300; font-size: 16px; font-family: 'Source Sans 3', sans-serif; text-anchor: end; fill: #494949" x="467.81" y="105.67625" transform="rotate(-0 467.81 105.67625)">80</text>
     </g>
    </g>
    <g id="ytick_9">
     <g id="line2d_19">
      <path d="M 474.81 39.96 
L 1134.546 39.96 
" style="fill: none; stroke: #d1d1d1; stroke-width: 0.8; stroke-linecap: square"/>
     </g>
     <g id="line2d_20">
      <g>
       <use xlink:href="#m0f836a7ab9" x="474.81" y="39.96" style="fill: #949494; stroke: #949494; stroke-width: 0.8"/>
      </g>
     </g>
     <g id="text_16">
      <text style="font-weight: 300; font-size: 16px; font-family: 'Source Sans 3', sans-serif; text-anchor: end; fill: #494949" x="467.81" y="45.73625" transform="rotate(-0 467.81 45.73625)">100</text>
     </g>
    </g>
   </g>
   <g id="TAG-0-LABEL-BOLD">
    <g id="patch_6">
     <path d="M 913.3245 146.13025 
L 1025.8995 146.13025 
L 1025.8995 113.60975 
L 913.3245 113.60975 
z
" style="fill: #ffffff; opacity: 0"/>
    </g>
    <text style="font-weight: 700; font-size: 16px; font-family: 'Source Sans 3', sans-serif; fill: #af3331; opacity: 0" transform="translate(913.3245 125.16225)">PI contains 91.3%</text>
    <text style="font-weight: 700; font-size: 16px; font-family: 'Source Sans 3', sans-serif; fill: #af3331; opacity: 0" transform="translate(920.58825 142.57775)">of observations</text>
   </g>
   <g id="TAG-1-LABEL-BOLD">
    <g id="patch_7">
     <path d="M 913.3245 146.13025 
L 1025.8995 146.13025 
L 1025.8995 113.60975 
L 913.3245 113.60975 
z
" style="fill: #ffffff; opacity: 0"/>
    </g>
    <text style="font-weight: 700; font-size: 16px; font-family: 'Source Sans 3', sans-serif; fill: #af3331; opacity: 0" transform="translate(913.3245 125.16225)">PI contains 65.2%</text>
    <text style="font-weight: 700; font-size: 16px; font-family: 'Source Sans 3', sans-serif; fill: #af3331; opacity: 0" transform="translate(920.58825 142.57775)">of observations</text>
   </g>
   <g id="TAG-2-LABEL-BOLD">
    <g id="patch_8">
     <path d="M 913.3245 146.13025 
L 1025.8995 146.13025 
L 1025.8995 113.60975 
L 913.3245 113.60975 
z
" style="fill: #ffffff; opacity: 0"/>
    </g>
    <text style="font-weight: 700; font-size: 16px; font-family: 'Source Sans 3', sans-serif; fill: #af3331; opacity: 0" transform="translate(913.3245 125.16225)">PI contains 42.0%</text>
    <text style="font-weight: 700; font-size: 16px; font-family: 'Source Sans 3', sans-serif; fill: #af3331; opacity: 0" transform="translate(920.58825 142.57775)">of observations</text>
   </g>
   <g id="PI-PATCH-MEDIAN">
    <path d="M 474.81 270.563335 
L 481.34204 257.865042 
L 487.874079 272.964037 
L 494.406119 270.680343 
L 500.938158 266.788372 
L 507.470198 275.192952 
L 514.002238 277.962282 
L 520.534277 271.421836 
L 527.066317 268.294412 
L 533.598356 273.90348 
L 540.130396 279.013297 
L 546.662436 276.828952 
L 553.194475 281.615659 
L 559.726515 274.44241 
L 566.258554 270.604961 
L 572.790594 279.698078 
L 579.322634 268.794762 
L 585.854673 269.916333 
L 592.386713 276.456454 
L 598.918752 277.466214 
L 605.450792 268.207672 
L 611.982832 270.241952 
L 618.514871 267.543853 
L 625.046911 272.933283 
L 631.57895 282.650925 
L 638.11099 265.923801 
L 644.64303 272.774855 
L 651.175069 284.111309 
L 657.707109 307.502057 
L 664.239149 305.7961 
L 670.771188 282.124863 
L 677.303228 287.29262 
L 690.367307 265.276233 
L 696.899347 309.529946 
L 703.431386 332.631989 
L 709.963426 327.629246 
L 716.495465 330.324159 
L 723.027505 326.069802 
L 729.559545 332.223977 
L 736.091584 307.965348 
L 742.623624 306.391564 
L 749.155663 322.910056 
L 755.687703 316.733186 
L 762.219743 319.953827 
L 768.751782 327.591899 
L 775.283822 317.427069 
L 781.815861 304.633151 
L 788.347901 310.565784 
L 794.879941 315.118267 
L 801.41198 322.476172 
L 807.94402 334.098684 
L 814.476059 325.51357 
L 821.008099 326.971642 
L 827.540139 323.977045 
L 834.072178 327.855771 
L 840.604218 321.494495 
L 847.136257 327.626056 
L 853.668297 325.368612 
L 860.200337 317.367286 
L 866.732376 322.562993 
L 873.264416 318.334495 
L 879.796455 333.229188 
L 886.328495 325.26822 
L 892.860535 328.306019 
L 899.392574 300.355335 
L 905.924614 297.620439 
L 912.456653 319.231453 
L 918.988693 321.762046 
L 925.520733 318.554538 
L 932.052772 327.048226 
L 938.584812 313.692861 
L 945.116851 275.629004 
L 951.648891 277.033699 
L 958.180931 281.811854 
L 964.71297 306.173964 
L 971.24501 316.655454 
L 977.77705 300.776968 
L 984.309089 269.420951 
L 990.841129 265.438691 
L 997.373168 300.668844 
L 1003.905208 282.210568 
L 1010.437248 311.929121 
L 1016.969287 281.280705 
L 1023.501327 314.562343 
L 1030.033366 266.904151 
L 1036.565406 275.552909 
L 1043.097446 245.487726 
L 1049.629485 263.12482 
L 1056.161525 292.771219 
L 1062.693564 258.549635 
L 1069.225604 260.266458 
L 1075.757644 272.376079 
L 1082.289683 286.929805 
L 1088.821723 281.186689 
L 1095.353762 303.90749 
L 1101.885802 325.966872 
L 1108.417842 335.480303 
L 1114.949881 330.813776 
L 1121.481921 316.199281 
L 1128.01396 316.457028 
L 1134.546 283.261308 
L 1141.07804 297.422838 
L 1147.610079 315.119656 
L 1154.142119 323.06065 
L 1200.52 322.706964 
L 1200.52 322.706964 
" clip-path="url(#pe31ec4ab8e)" style="fill: none; stroke: #00264c; stroke-opacity: 0; stroke-width: 1.5; stroke-linecap: square"/>
   </g>
   <g id="OBSERVED-FORECAST-LINE">
    <path d="M 474.81 219.152108 
L 481.34204 180.7538 
L 487.874079 213.356132 
L 494.406119 203.937677 
L 500.938158 208.767651 
L 507.470198 231.95154 
L 514.002238 211.907136 
L 520.534277 197.175712 
L 527.066317 194.27773 
L 533.598356 176.165318 
L 540.130396 215.424333 
L 546.662436 150.83168 
L 553.194475 179.539527 
L 559.726515 169.145306 
L 566.258554 159.984897 
L 572.790594 219.152108 
L 579.322634 208.284656 
L 585.854673 169.403353 
L 592.386713 190.65525 
L 598.918752 193.553232 
L 605.450792 204.17918 
L 611.982832 240.645497 
L 618.514871 253.203431 
L 625.046911 274.055232 
L 631.57895 119.071087 
L 638.11099 161.296028 
L 644.64303 241.620484 
L 651.175069 314.179432 
L 657.707109 318.166608 
L 664.239149 267.210363 
L 670.771188 269.383852 
L 677.303228 273.006332 
L 683.835267 201.281187 
L 690.367307 315.027123 
L 696.899347 328.551056 
L 703.431386 339.418501 
L 709.963426 327.58506 
L 716.495465 335.313022 
L 723.027505 338.452506 
L 729.559545 322.513586 
L 736.091584 300.778694 
L 742.623624 326.619065 
L 749.155663 323.479581 
L 755.687703 325.170072 
L 762.219743 333.864029 
L 768.751782 316.717614 
L 775.283822 302.952183 
L 781.815861 312.853634 
L 788.347901 324.445577 
L 794.879941 330.241547 
L 801.41198 337.486511 
L 807.94402 323.72108 
L 814.476059 337.486511 
L 821.008099 329.75855 
L 827.540139 332.898034 
L 834.072178 334.347027 
L 840.604218 325.894569 
L 847.136257 331.207542 
L 853.668297 332.656535 
L 860.200337 325.411571 
L 866.732376 329.275552 
L 873.264416 333.62253 
L 879.796455 329.26578 
L 886.328495 325.553559 
L 892.860535 307.924047 
L 899.392574 291.648602 
L 905.924614 316.396747 
L 912.456653 330.483046 
L 918.988693 315.75162 
L 925.520733 330.241547 
L 932.052772 313.336632 
L 938.584812 258.757903 
L 945.116851 249.339454 
L 951.648891 273.972328 
L 958.180931 296.190218 
L 964.71297 305.795594 
L 971.24501 308.112632 
L 977.77705 226.574823 
L 984.309089 186.533929 
L 990.841129 283.602756 
L 997.373168 263.104882 
L 1003.905208 321.547591 
L 1010.437248 274.213825 
L 1016.969287 326.136068 
L 1023.501327 262.621887 
L 1030.033366 259.965397 
L 1036.565406 184.859275 
L 1043.097446 196.209722 
L 1049.629485 293.775228 
L 1056.161525 212.631634 
L 1062.693564 203.696185 
L 1069.225604 262.138886 
L 1075.757644 287.254761 
L 1082.289683 279.285302 
L 1088.821723 306.091668 
L 1095.353762 335.796019 
L 1101.885802 338.935504 
L 1108.417842 334.105528 
L 1114.949881 314.302627 
L 1121.481921 325.894569 
L 1128.01396 280.0098 
L 1134.546 287.254761 
L 1141.07804 310.680144 
L 1147.610079 329.034053 
L 1147.610079 329.034053 
" clip-path="url(#pe31ec4ab8e)" style="fill: none; stroke-dasharray: 1.5,2.475; stroke-dashoffset: 0; stroke: #af3331; stroke-width: 1.5"/>
   </g>
   <g id="PI-missed-dummy">
    <defs>
     <path id="md226024ab1" d="M 0 3.9975 
C 1.060149 3.9975 2.077021 3.576298 2.826659 2.826659 
C 3.576298 2.077021 3.9975 1.060149 3.9975 0 
C 3.9975 -1.060149 3.576298 -2.077021 2.826659 -2.826659 
C 2.077021 -3.576298 1.060149 -3.9975 0 -3.9975 
C -1.060149 -3.9975 -2.077021 -3.576298 -2.826659 -2.826659 
C -3.576298 -2.077021 -3.9975 -1.060149 -3.9975 0 
C -3.9975 1.060149 -3.576298 2.077021 -2.826659 2.826659 
C -2.077021 3.576298 -1.060149 3.9975 0 3.9975 
z
" style="stroke: #595959"/>
    </defs>
    <g clip-path="url(#pe31ec4ab8e)"/>
   </g>
   <g id="patch_9">
    <path d="M 474.81 339.66 
L 474.81 39.96 
" style="fill: none; stroke: #949494; stroke-width: 0.8; stroke-linejoin: miter; stroke-linecap: square"/>
   </g>
   <g id="patch_10">
    <path d="M 474.81 339.66 
L 1134.546 339.66 
" style="fill: none; stroke: #949494; stroke-width: 0.8; stroke-linejoin: miter; stroke-linecap: square"/>
   </g>
   <g id="PI-missed-0">
    <defs>
     <path id="m3e4b23bbb9" d="M 0 4 
C 1.060812 4 2.078319 3.578535 2.828427 2.828427 
C 3.578535 2.078319 4 1.060812 4 0 
C 4 -1.060812 3.578535 -2.078319 2.828427 -2.828427 
C 2.078319 -3.578535 1.060812 -4 0 -4 
C -1.060812 -4 -2.078319 -3.578535 -2.828427 -2.828427 
C -3.578535 -2.078319 -4 -1.060812 -4 0 
C -4 1.060812 -3.578535 2.078319 -2.828427 2.828427 
C -2.078319 3.578535 -1.060812 4 0 4 
z
" style="stroke: #595959; stroke-opacity: 0"/>
    </defs>
    <g>
     <use xlink:href="#m3e4b23bbb9" x="690.367307" y="315.027123" style="fill-opacity: 0; stroke: #595959; stroke-opacity: 0"/>
     <use xlink:href="#m3e4b23bbb9" x="938.584812" y="258.757903" style="fill-opacity: 0; stroke: #595959; stroke-opacity: 0"/>
     <use xlink:href="#m3e4b23bbb9" x="1003.905208" y="321.547591" style="fill-opacity: 0; stroke: #595959; stroke-opacity: 0"/>
     <use xlink:href="#m3e4b23bbb9" x="1016.969287" y="326.136068" style="fill-opacity: 0; stroke: #595959; stroke-opacity: 0"/>
     <use xlink:href="#m3e4b23bbb9" x="1023.501327" y="262.621887" style="fill-opacity: 0; stroke: #595959; stroke-opacity: 0"/>
     <use xlink:href="#m3e4b23bbb9" x="1095.353762" y="335.796019" style="fill-opacity: 0; stroke: #595959; stroke-opacity: 0"/>
    </g>
   </g>
   <g id="PI-missed-1">
    <defs>
     <path id="mfaa2f7d163" d="M 0 4.0025 
C 1.061475 4.0025 2.079618 3.580771 2.830195 2.830195 
C 3.580771 2.079618 4.0025 1.061475 4.0025 0 
C 4.0025 -1.061475 3.580771 -2.079618 2.830195 -2.830195 
C 2.079618 -3.580771 1.061475 -4.0025 0 -4.0025 
C -1.061475 -4.0025 -2.079618 -3.580771 -2.830195 -2.830195 
C -3.580771 -2.079618 -4.0025 -1.061475 -4.0025 0 
C -4.0025 1.061475 -3.580771 2.079618 -2.830195 2.830195 
C -2.079618 3.580771 -1.061475 4.0025 0 4.0025 
z
" style="stroke: #595959; stroke-opacity: 0"/>
    </defs>
    <g>
     <use xlink:href="#mfaa2f7d163" x="651.175069" y="314.179432" style="fill-opacity: 0; stroke: #595959; stroke-opacity: 0"/>
     <use xlink:href="#mfaa2f7d163" x="664.239149" y="267.210363" style="fill-opacity: 0; stroke: #595959; stroke-opacity: 0"/>
     <use xlink:href="#mfaa2f7d163" x="690.367307" y="315.027123" style="fill-opacity: 0; stroke: #595959; stroke-opacity: 0"/>
     <use xlink:href="#mfaa2f7d163" x="696.899347" y="328.551056" style="fill-opacity: 0; stroke: #595959; stroke-opacity: 0"/>
     <use xlink:href="#mfaa2f7d163" x="703.431386" y="339.418501" style="fill-opacity: 0; stroke: #595959; stroke-opacity: 0"/>
     <use xlink:href="#mfaa2f7d163" x="723.027505" y="338.452506" style="fill-opacity: 0; stroke: #595959; stroke-opacity: 0"/>
     <use xlink:href="#mfaa2f7d163" x="742.623624" y="326.619065" style="fill-opacity: 0; stroke: #595959; stroke-opacity: 0"/>
     <use xlink:href="#mfaa2f7d163" x="762.219743" y="333.864029" style="fill-opacity: 0; stroke: #595959; stroke-opacity: 0"/>
     <use xlink:href="#mfaa2f7d163" x="794.879941" y="330.241547" style="fill-opacity: 0; stroke: #595959; stroke-opacity: 0"/>
     <use xlink:href="#mfaa2f7d163" x="801.41198" y="337.486511" style="fill-opacity: 0; stroke: #595959; stroke-opacity: 0"/>
     <use xlink:href="#mfaa2f7d163" x="814.476059" y="337.486511" style="fill-opacity: 0; stroke: #595959; stroke-opacity: 0"/>
     <use xlink:href="#mfaa2f7d163" x="873.264416" y="333.62253" style="fill-opacity: 0; stroke: #595959; stroke-opacity: 0"/>
     <use xlink:href="#mfaa2f7d163" x="905.924614" y="316.396747" style="fill-opacity: 0; stroke: #595959; stroke-opacity: 0"/>
     <use xlink:href="#mfaa2f7d163" x="938.584812" y="258.757903" style="fill-opacity: 0; stroke: #595959; stroke-opacity: 0"/>
     <use xlink:href="#mfaa2f7d163" x="997.373168" y="263.104882" style="fill-opacity: 0; stroke: #595959; stroke-opacity: 0"/>
     <use xlink:href="#mfaa2f7d163" x="1003.905208" y="321.547591" style="fill-opacity: 0; stroke: #595959; stroke-opacity: 0"/>
     <use xlink:href="#mfaa2f7d163" x="1010.437248" y="274.213825" style="fill-opacity: 0; stroke: #595959; stroke-opacity: 0"/>
     <use xlink:href="#mfaa2f7d163" x="1016.969287" y="326.136068" style="fill-opacity: 0; stroke: #595959; stroke-opacity: 0"/>
     <use xlink:href="#mfaa2f7d163" x="1023.501327" y="262.621887" style="fill-opacity: 0; stroke: #595959; stroke-opacity: 0"/>
     <use xlink:href="#mfaa2f7d163" x="1049.629485" y="293.775228" style="fill-opacity: 0; stroke: #595959; stroke-opacity: 0"/>
     <use xlink:href="#mfaa2f7d163" x="1088.821723" y="306.091668" style="fill-opacity: 0; stroke: #595959; stroke-opacity: 0"/>
     <use xlink:href="#mfaa2f7d163" x="1095.353762" y="335.796019" style="fill-opacity: 0; stroke: #595959; stroke-opacity: 0"/>
     <use xlink:href="#mfaa2f7d163" x="1101.885802" y="338.935504" style="fill-opacity: 0; stroke: #595959; stroke-opacity: 0"/>
     <use xlink:href="#mfaa2f7d163" x="1128.01396" y="280.0098" style="fill-opacity: 0; stroke: #595959; stroke-opacity: 0"/>
    </g>
   </g>
   <g id="PI-missed-2">
    <defs>
     <path id="m76f4ee81b3" d="M 0 4.005 
C 1.062138 4.005 2.080917 3.583008 2.831963 2.831963 
C 3.583008 2.080917 4.005 1.062138 4.005 0 
C 4.005 -1.062138 3.583008 -2.080917 2.831963 -2.831963 
C 2.080917 -3.583008 1.062138 -4.005 0 -4.005 
C -1.062138 -4.005 -2.080917 -3.583008 -2.831963 -2.831963 
C -3.583008 -2.080917 -4.005 -1.062138 -4.005 0 
C -4.005 1.062138 -3.583008 2.080917 -2.831963 2.831963 
C -2.080917 3.583008 -1.062138 4.005 0 4.005 
z
" style="stroke: #595959; stroke-opacity: 0"/>
    </defs>
    <g>
     <use xlink:href="#m76f4ee81b3" x="618.514871" y="253.203431" style="fill-opacity: 0; stroke: #595959; stroke-opacity: 0"/>
     <use xlink:href="#m76f4ee81b3" x="651.175069" y="314.179432" style="fill-opacity: 0; stroke: #595959; stroke-opacity: 0"/>
     <use xlink:href="#m76f4ee81b3" x="664.239149" y="267.210363" style="fill-opacity: 0; stroke: #595959; stroke-opacity: 0"/>
     <use xlink:href="#m76f4ee81b3" x="670.771188" y="269.383852" style="fill-opacity: 0; stroke: #595959; stroke-opacity: 0"/>
     <use xlink:href="#m76f4ee81b3" x="677.303228" y="273.006332" style="fill-opacity: 0; stroke: #595959; stroke-opacity: 0"/>
     <use xlink:href="#m76f4ee81b3" x="690.367307" y="315.027123" style="fill-opacity: 0; stroke: #595959; stroke-opacity: 0"/>
     <use xlink:href="#m76f4ee81b3" x="696.899347" y="328.551056" style="fill-opacity: 0; stroke: #595959; stroke-opacity: 0"/>
     <use xlink:href="#m76f4ee81b3" x="703.431386" y="339.418501" style="fill-opacity: 0; stroke: #595959; stroke-opacity: 0"/>
     <use xlink:href="#m76f4ee81b3" x="716.495465" y="335.313022" style="fill-opacity: 0; stroke: #595959; stroke-opacity: 0"/>
     <use xlink:href="#m76f4ee81b3" x="723.027505" y="338.452506" style="fill-opacity: 0; stroke: #595959; stroke-opacity: 0"/>
     <use xlink:href="#m76f4ee81b3" x="742.623624" y="326.619065" style="fill-opacity: 0; stroke: #595959; stroke-opacity: 0"/>
     <use xlink:href="#m76f4ee81b3" x="762.219743" y="333.864029" style="fill-opacity: 0; stroke: #595959; stroke-opacity: 0"/>
     <use xlink:href="#m76f4ee81b3" x="775.283822" y="302.952183" style="fill-opacity: 0; stroke: #595959; stroke-opacity: 0"/>
     <use xlink:href="#m76f4ee81b3" x="788.347901" y="324.445577" style="fill-opacity: 0; stroke: #595959; stroke-opacity: 0"/>
     <use xlink:href="#m76f4ee81b3" x="794.879941" y="330.241547" style="fill-opacity: 0; stroke: #595959; stroke-opacity: 0"/>
     <use xlink:href="#m76f4ee81b3" x="801.41198" y="337.486511" style="fill-opacity: 0; stroke: #595959; stroke-opacity: 0"/>
     <use xlink:href="#m76f4ee81b3" x="814.476059" y="337.486511" style="fill-opacity: 0; stroke: #595959; stroke-opacity: 0"/>
     <use xlink:href="#m76f4ee81b3" x="827.540139" y="332.898034" style="fill-opacity: 0; stroke: #595959; stroke-opacity: 0"/>
     <use xlink:href="#m76f4ee81b3" x="834.072178" y="334.347027" style="fill-opacity: 0; stroke: #595959; stroke-opacity: 0"/>
     <use xlink:href="#m76f4ee81b3" x="853.668297" y="332.656535" style="fill-opacity: 0; stroke: #595959; stroke-opacity: 0"/>
     <use xlink:href="#m76f4ee81b3" x="873.264416" y="333.62253" style="fill-opacity: 0; stroke: #595959; stroke-opacity: 0"/>
     <use xlink:href="#m76f4ee81b3" x="892.860535" y="307.924047" style="fill-opacity: 0; stroke: #595959; stroke-opacity: 0"/>
     <use xlink:href="#m76f4ee81b3" x="905.924614" y="316.396747" style="fill-opacity: 0; stroke: #595959; stroke-opacity: 0"/>
     <use xlink:href="#m76f4ee81b3" x="912.456653" y="330.483046" style="fill-opacity: 0; stroke: #595959; stroke-opacity: 0"/>
     <use xlink:href="#m76f4ee81b3" x="925.520733" y="330.241547" style="fill-opacity: 0; stroke: #595959; stroke-opacity: 0"/>
     <use xlink:href="#m76f4ee81b3" x="932.052772" y="313.336632" style="fill-opacity: 0; stroke: #595959; stroke-opacity: 0"/>
     <use xlink:href="#m76f4ee81b3" x="938.584812" y="258.757903" style="fill-opacity: 0; stroke: #595959; stroke-opacity: 0"/>
     <use xlink:href="#m76f4ee81b3" x="997.373168" y="263.104882" style="fill-opacity: 0; stroke: #595959; stroke-opacity: 0"/>
     <use xlink:href="#m76f4ee81b3" x="1003.905208" y="321.547591" style="fill-opacity: 0; stroke: #595959; stroke-opacity: 0"/>
     <use xlink:href="#m76f4ee81b3" x="1010.437248" y="274.213825" style="fill-opacity: 0; stroke: #595959; stroke-opacity: 0"/>
     <use xlink:href="#m76f4ee81b3" x="1016.969287" y="326.136068" style="fill-opacity: 0; stroke: #595959; stroke-opacity: 0"/>
     <use xlink:href="#m76f4ee81b3" x="1023.501327" y="262.621887" style="fill-opacity: 0; stroke: #595959; stroke-opacity: 0"/>
     <use xlink:href="#m76f4ee81b3" x="1049.629485" y="293.775228" style="fill-opacity: 0; stroke: #595959; stroke-opacity: 0"/>
     <use xlink:href="#m76f4ee81b3" x="1082.289683" y="279.285302" style="fill-opacity: 0; stroke: #595959; stroke-opacity: 0"/>
     <use xlink:href="#m76f4ee81b3" x="1088.821723" y="306.091668" style="fill-opacity: 0; stroke: #595959; stroke-opacity: 0"/>
     <use xlink:href="#m76f4ee81b3" x="1095.353762" y="335.796019" style="fill-opacity: 0; stroke: #595959; stroke-opacity: 0"/>
     <use xlink:href="#m76f4ee81b3" x="1101.885802" y="338.935504" style="fill-opacity: 0; stroke: #595959; stroke-opacity: 0"/>
     <use xlink:href="#m76f4ee81b3" x="1114.949881" y="314.302627" style="fill-opacity: 0; stroke: #595959; stroke-opacity: 0"/>
     <use xlink:href="#m76f4ee81b3" x="1121.481921" y="325.894569" style="fill-opacity: 0; stroke: #595959; stroke-opacity: 0"/>
     <use xlink:href="#m76f4ee81b3" x="1128.01396" y="280.0098" style="fill-opacity: 0; stroke: #595959; stroke-opacity: 0"/>
    </g>
   </g>
   <g id="text_17">
    <text style="font-weight: 800; font-size: 20px; font-family: 'Source Sans 3', sans-serif; text-anchor: start" x="474.81" y="33.96" transform="rotate(-0 474.81 33.96)">Streamflow percentile</text>
   </g>
   <g id="legend-pi">
    <g id="patch_11">
     <path d="M 486.01 75.865 
L 811.03 75.865 
Q 814.23 75.865 814.23 72.665 
L 814.23 51.16 
Q 814.23 47.96 811.03 47.96 
L 486.01 47.96 
Q 482.81 47.96 482.81 51.16 
L 482.81 72.665 
Q 482.81 75.865 486.01 75.865 
L 486.01 75.865 
z
" style="fill: none; opacity: 0.8"/>
    </g>
    <g id="line2d_21">
     <path d="M 489.21 60.3125 
L 505.21 60.3125 
L 521.21 60.3125 
" style="fill: none; stroke-dasharray: 1.5,2.475; stroke-dashoffset: 0; stroke: #af3331; stroke-width: 1.5"/>
    </g>
    <g id="text_18">
     <text style="font-weight: 300; font-size: 16px; font-family: 'Source Sans 3', sans-serif; text-anchor: start; fill: #494949" x="534.01" y="65.9125" transform="rotate(-0 534.01 65.9125)">Observations</text>
    </g>
    <g id="line2d_22">
     <g>
      <use xlink:href="#md226024ab1" x="666.1675" y="60.3125" style="fill-opacity: 0; stroke: #595959"/>
     </g>
    </g>
    <g id="text_19">
     <text style="font-weight: 300; font-size: 16px; font-family: 'Source Sans 3', sans-serif; text-anchor: start; fill: #494949" x="694.9675" y="65.9125" transform="rotate(-0 694.9675 65.9125)">Missed Prediction</text>
    </g>
   </g>
   <g id="legend-pi">
    <g id="patch_12">
     <path d="M 486.01 75.865 
L 811.03 75.865 
Q 814.23 75.865 814.23 72.665 
L 814.23 51.16 
Q 814.23 47.96 811.03 47.96 
L 486.01 47.96 
Q 482.81 47.96 482.81 51.16 
L 482.81 72.665 
Q 482.81 75.865 486.01 75.865 
L 486.01 75.865 
z
" style="fill: none; opacity: 0.8"/>
    </g>
    <g id="line2d_23">
     <path d="M 489.21 60.3125 
L 505.21 60.3125 
L 521.21 60.3125 
" style="fill: none; stroke-dasharray: 1.5,2.475; stroke-dashoffset: 0; stroke: #af3331; stroke-width: 1.5"/>
    </g>
    <g id="text_20">
     <text style="font-weight: 300; font-size: 16px; font-family: 'Source Sans 3', sans-serif; text-anchor: start; fill: #494949" x="534.01" y="65.9125" transform="rotate(-0 534.01 65.9125)">Observations</text>
    </g>
    <g id="line2d_24">
     <g>
      <use xlink:href="#md226024ab1" x="666.1675" y="60.3125" style="fill-opacity: 0; stroke: #595959"/>
     </g>
    </g>
    <g id="text_21">
     <text style="font-weight: 300; font-size: 16px; font-family: 'Source Sans 3', sans-serif; text-anchor: start; fill: #494949" x="694.9675" y="65.9125" transform="rotate(-0 694.9675 65.9125)">Missed Prediction</text>
    </g>
   </g>
  </g>
 </g>
 <defs>
  <clipPath id="p6752099d25">
   <rect x="74.97" y="39.96" width="329.868" height="299.7"/>
  </clipPath>
  <clipPath id="pe31ec4ab8e">
   <rect x="474.81" y="39.96" width="659.736" height="299.7"/>
  </clipPath>
 </defs>
</svg>
