<?xml version="1.0" encoding="utf-8" standalone="no"?>
<!DOCTYPE svg PUBLIC "-//W3C//DTD SVG 1.1//EN"
  "http://www.w3.org/Graphics/SVG/1.1/DTD/svg11.dtd">
<svg xmlns:xlink="http://www.w3.org/1999/xlink" width="399.6px" height="499.68px" viewBox="0 0 399.6 499.68" xmlns="http://www.w3.org/2000/svg" version="1.1">
  <defs>
  <style type="text/css">*{stroke-linejoin: round; stroke-linecap: butt}</style>
 </defs>
 <g id="figure-predictioninterval">
  <g id="patch_1">
   <path d="M 0 499.68 
L 399.6 499.68 
L 399.6 0 
L 0 0 
z
" style="fill: #ffffff"/>
  </g>
  <g id="axis-predictioninterval1">
   <g id="patch_2">
    <path d="M 55.944 199.872 
L 375.624 199.872 
L 375.624 33.47856 
L 55.944 33.47856 
z
" style="fill: #ffffff"/>
   </g>
   <g id="LF-LOWER-MEDIAN">
    <path d="M 55.944 116.67528 
L 215.784 199.872 
L 375.624 116.67528 
" clip-path="url(#p65f78bd6cc)" style="fill: none; stroke: #00264c; stroke-opacity: 0; stroke-linecap: square"/>
   </g>
   <g id="matplotlib.axis_1">
    <g id="xtick_1">
     <g id="line2d_1">
      <defs>
       <path id="ma6c8516311" d="M 0 0 
L 0 3.5 
" style="stroke: #949494; stroke-width: 0.8"/>
      </defs>
      <g>
       <use xlink:href="#ma6c8516311" x="55.944" y="199.872" style="fill: #949494; stroke: #949494; stroke-width: 0.8"/>
      </g>
     </g>
     <g id="text_1">
      <text style="font-weight: 300; font-size: 16px; font-family: 'Source Sans 3', sans-serif; text-anchor: middle; fill: #494949" x="55.944" y="218.4245" transform="rotate(-0 55.944 218.4245)">Lower</text>
     </g>
    </g>
    <g id="xtick_2">
     <g id="line2d_2">
      <g>
       <use xlink:href="#ma6c8516311" x="215.784" y="199.872" style="fill: #949494; stroke: #949494; stroke-width: 0.8"/>
      </g>
     </g>
     <g id="text_2">
      <text style="font-weight: 300; font-size: 16px; font-family: 'Source Sans 3', sans-serif; text-anchor: middle; fill: #494949" x="215.784" y="218.4245" transform="rotate(-0 215.784 218.4245)">Median</text>
     </g>
    </g>
    <g id="xtick_3">
     <g id="line2d_3">
      <g>
       <use xlink:href="#ma6c8516311" x="375.624" y="199.872" style="fill: #949494; stroke: #949494; stroke-width: 0.8"/>
      </g>
     </g>
     <g id="text_3">
      <text style="font-weight: 300; font-size: 16px; font-family: 'Source Sans 3', sans-serif; text-anchor: middle; fill: #494949" x="375.624" y="218.4245" transform="rotate(-0 375.624 218.4245)">Upper</text>
     </g>
    </g>
    <g id="text_4">
     <text style="font-weight: 600; font-size: 16px; font-family: 'Source Sans 3', sans-serif; text-anchor: middle; fill: #494949" x="215.784" y="237.5295" transform="rotate(-0 215.784 237.5295)">Estimate</text>
    </g>
   </g>
   <g id="matplotlib.axis_2">
    <g id="ytick_1">
     <g id="line2d_4">
      <defs>
       <path id="md8d2f2622e" d="M 0 0 
L -3.5 0 
" style="stroke: #949494; stroke-width: 0.8"/>
      </defs>
      <g>
       <use xlink:href="#md8d2f2622e" x="55.944" y="199.872" style="fill: #949494; stroke: #949494; stroke-width: 0.8"/>
      </g>
     </g>
     <g id="text_5">
      <text style="font-weight: 300; font-size: 16px; font-family: 'Source Sans 3', sans-serif; fill: #494949" transform="translate(21.1365 189.388)">Less</text>
      <text style="font-weight: 300; font-size: 16px; font-family: 'Source Sans 3', sans-serif; fill: #494949" transform="translate(1.1365 206.8035)">Penalty</text>
      <text style="font-weight: 300; font-size: 16px; font-family: 'Source Sans 3', sans-serif; fill: #494949" transform="translate(48.944 224.219)"/>
     </g>
    </g>
    <g id="ytick_2">
     <g id="line2d_5">
      <g>
       <use xlink:href="#md8d2f2622e" x="55.944" y="116.67528" style="fill: #949494; stroke: #949494; stroke-width: 0.8"/>
      </g>
     </g>
    </g>
    <g id="ytick_3">
     <g id="line2d_6">
      <g>
       <use xlink:href="#md8d2f2622e" x="55.944" y="33.47856" style="fill: #949494; stroke: #949494; stroke-width: 0.8"/>
      </g>
     </g>
     <g id="text_6">
      <text style="font-weight: 300; font-size: 16px; font-family: 'Source Sans 3', sans-serif; fill: #494949" transform="translate(16.7215 31.70231)">More</text>
      <text style="font-weight: 300; font-size: 16px; font-family: 'Source Sans 3', sans-serif; fill: #494949" transform="translate(1.1365 49.11781)">Penalty</text>
     </g>
    </g>
   </g>
   <g id="LF-LOWER-0">
    <path d="M 55.944 191.552328 
L 215.784 199.872 
L 375.624 41.798232 
" clip-path="url(#p65f78bd6cc)" style="fill: none; stroke: #b78935; stroke-opacity: 0; stroke-linecap: square"/>
   </g>
   <g id="LF-UPPER-0">
    <path d="M 55.944 41.798232 
L 215.784 199.872 
L 375.624 191.552328 
" clip-path="url(#p65f78bd6cc)" style="fill: none; stroke: #406992; stroke-opacity: 0; stroke-linecap: square"/>
   </g>
   <g id="LF-LOWER-1">
    <path d="M 55.944 179.07282 
L 215.784 199.872 
L 375.624 54.27774 
" clip-path="url(#p65f78bd6cc)" style="fill: none; stroke: #b78935; stroke-opacity: 0; stroke-linecap: square"/>
   </g>
   <g id="LF-UPPER-1">
    <path d="M 55.944 54.27774 
L 215.784 199.872 
L 375.624 179.07282 
" clip-path="url(#p65f78bd6cc)" style="fill: none; stroke: #406992; stroke-opacity: 0; stroke-linecap: square"/>
   </g>
   <g id="LF-LOWER-2">
    <path d="M 55.944 158.27364 
L 215.784 199.872 
L 375.624 75.07692 
" clip-path="url(#p65f78bd6cc)" style="fill: none; stroke: #b78935; stroke-opacity: 0; stroke-linecap: square"/>
   </g>
   <g id="LF-UPPER-2">
    <path d="M 55.944 75.07692 
L 215.784 199.872 
L 375.624 158.27364 
" clip-path="url(#p65f78bd6cc)" style="fill: none; stroke: #406992; stroke-opacity: 0; stroke-linecap: square"/>
   </g>
   <g id="patch_3">
    <path d="M 55.944 199.872 
L 55.944 33.47856 
" style="fill: none; stroke: #949494; stroke-width: 0.8; stroke-linejoin: miter; stroke-linecap: square"/>
   </g>
   <g id="patch_4">
    <path d="M 55.944 199.872 
L 375.624 199.872 
" style="fill: none; stroke: #949494; stroke-width: 0.8; stroke-linejoin: miter; stroke-linecap: square"/>
   </g>
   <g id="text_7">
    <text style="font-weight: 800; font-size: 20px; font-family: 'Source Sans 3', sans-serif; text-anchor: start" x="55.944" y="27.47856" transform="rotate(-0 55.944 27.47856)">Loss function</text>
   </g>
  </g>
  <g id="axis-predictioninterval2">
   <g id="patch_5">
    <path d="M 55.944 449.712 
L 375.624 449.712 
L 375.624 283.31856 
L 55.944 283.31856 
z
" style="fill: #ffffff"/>
   </g>
   <g id="PI-PATCH-0">
    <path d="M 55.944 393.518008 
L 55.944 424.410235 
L 59.109149 421.108535 
L 62.274297 431.720155 
L 65.439446 427.71532 
L 68.604594 428.839679 
L 71.769743 437.219275 
L 74.934891 430.690097 
L 78.10004 431.290236 
L 81.265188 429.358832 
L 84.430337 439.046689 
L 87.595485 439.591163 
L 90.760634 433.326176 
L 93.925782 440.908059 
L 97.090931 437.503521 
L 100.256079 435.164636 
L 103.421228 443.267091 
L 106.586376 427.912948 
L 109.751525 429.732054 
L 112.916673 434.972198 
L 116.081822 435.254709 
L 119.24697 426.344996 
L 122.412119 430.68282 
L 125.577267 422.728628 
L 128.742416 428.149963 
L 131.907564 428.713834 
L 135.072713 426.201327 
L 138.237861 432.623391 
L 141.40301 433.85969 
L 144.568158 441.781576 
L 147.733307 439.987388 
L 150.898455 433.921442 
L 154.063604 432.842534 
L 157.228752 426.203646 
L 160.393901 425.737703 
L 163.55905 445.38567 
L 166.724198 449.712 
L 169.889347 449.712 
L 173.054495 449.712 
L 176.219644 449.712 
L 179.384792 449.712 
L 182.549941 443.431594 
L 185.715089 445.576478 
L 188.880238 449.184693 
L 192.045386 447.560309 
L 195.210535 449.431349 
L 198.375683 449.712 
L 201.540832 447.316305 
L 204.70598 442.799817 
L 207.871129 443.404318 
L 211.036277 443.882211 
L 214.201426 449.712 
L 217.366574 449.712 
L 220.531723 449.05311 
L 223.696871 449.04312 
L 226.86202 449.712 
L 230.027168 449.712 
L 233.192317 448.778673 
L 236.357465 448.626824 
L 239.522614 449.712 
L 242.687762 448.084251 
L 245.852911 449.712 
L 249.018059 449.712 
L 252.183208 449.712 
L 255.348356 449.712 
L 258.513505 449.712 
L 261.678653 441.348413 
L 264.843802 436.642329 
L 268.00895 449.712 
L 271.174099 449.094757 
L 274.339248 449.712 
L 277.504396 449.014818 
L 280.669545 444.551055 
L 283.834693 431.588256 
L 286.999842 433.653264 
L 290.16499 432.103426 
L 293.330139 442.256533 
L 296.495287 446.321081 
L 299.660436 439.981535 
L 302.825584 432.184119 
L 305.990733 431.195436 
L 309.155881 444.289583 
L 312.32103 434.822126 
L 315.486178 448.798102 
L 318.651327 433.792641 
L 321.816475 448.396802 
L 324.981624 426.041806 
L 328.146772 430.995496 
L 331.311921 421.982097 
L 334.477069 427.955715 
L 337.642218 432.241866 
L 340.807366 422.266705 
L 343.972515 429.317851 
L 347.137663 432.060803 
L 350.302812 435.680553 
L 353.46796 433.334913 
L 356.633109 441.351682 
L 359.798257 449.712 
L 362.963406 449.712 
L 366.128554 449.712 
L 369.293703 447.152899 
L 372.458851 445.850937 
L 375.624 438.228722 
L 378.789149 436.608807 
L 381.954297 445.326352 
L 3031.183604 427.340025 
L 3034.348752 431.299618 
L 3037.513901 430.564375 
L 3040.67905 426.365125 
L 3043.844198 425.81418 
L 3047.009347 430.447086 
L 3050.174495 423.442595 
L 3053.339644 426.656854 
L 3056.504792 438.523735 
L 3059.669941 424.80648 
L 3062.835089 425.605031 
L 3066.000238 437.818724 
L 3069.165386 436.240799 
L 3072.330535 421.826113 
L 3075.495683 424.140986 
L 3078.660832 428.526634 
L 3081.82598 431.625438 
L 3084.991129 430.40185 
L 3088.156277 430.329009 
L 3091.321426 431.708272 
L 3094.486574 424.556384 
L 3097.651723 425.867877 
L 3100.816871 425.236474 
L 3103.98202 423.209966 
L 3107.147168 427.706959 
L 3110.312317 425.139114 
L 3113.477465 422.895854 
L 3116.642614 425.15997 
L 3119.807762 421.336528 
L 3122.972911 422.725521 
L 3126.138059 431.676235 
L 3129.303208 422.65941 
L 3132.468356 424.553347 
L 3135.633505 428.770034 
L 3138.798653 418.834098 
L 3141.963802 421.755225 
L 3145.12895 420.927367 
L 3148.294099 429.162792 
L 3151.459248 428.549444 
L 3154.624396 432.006639 
L 3157.789545 434.404548 
L 3160.954693 433.112442 
L 3164.119842 429.55009 
L 3167.28499 430.548534 
L 3170.450139 432.591932 
L 3173.615287 432.856203 
L 3176.780436 427.617692 
L 3179.945584 422.675811 
L 3183.110733 423.316979 
L 3186.275881 429.733941 
L 3189.44103 424.745921 
L 3192.606178 430.677408 
L 3195.771327 432.972745 
L 3198.936475 427.393583 
L 3202.101624 427.803398 
L 3205.266772 436.46339 
L 3208.431921 421.778878 
L 3211.597069 427.1879 
L 3214.762218 425.571303 
L 3217.927366 433.462066 
L 3221.092515 430.830111 
L 3224.257663 427.305798 
L 3227.422812 435.651648 
L 3230.58796 434.298921 
L 3233.753109 432.512188 
L 3236.918257 417.456942 
L 3240.083406 418.878996 
L 3243.248554 420.096137 
L 3246.413703 418.851975 
L 3249.578851 419.014189 
L 3252.744 432.352903 
L 3255.909149 433.25671 
L 3259.074297 434.547063 
L 3262.239446 431.937395 
L 3265.404594 427.056689 
L 3268.569743 426.753569 
L 3271.734891 426.142542 
L 3271.734891 386.65652 
L 3271.734891 386.65652 
L 3268.569743 390.106614 
L 3265.404594 392.962433 
L 3262.239446 396.705942 
L 3259.074297 397.523539 
L 3255.909149 396.091463 
L 3252.744 395.167604 
L 3249.578851 386.83113 
L 3246.413703 386.679396 
L 3243.248554 387.019407 
L 3240.083406 384.609183 
L 3236.918257 381.37723 
L 3233.753109 394.490996 
L 3230.58796 399.944925 
L 3227.422812 395.7868 
L 3224.257663 387.229335 
L 3221.092515 394.125614 
L 3217.927366 395.538508 
L 3214.762218 391.884643 
L 3211.597069 393.913166 
L 3208.431921 389.447246 
L 3205.266772 398.926716 
L 3202.101624 390.299524 
L 3198.936475 392.426889 
L 3195.771327 393.431893 
L 3192.606178 393.765913 
L 3189.44103 390.19549 
L 3186.275881 398.059152 
L 3183.110733 387.707891 
L 3179.945584 392.740895 
L 3176.780436 397.262381 
L 3173.615287 397.275543 
L 3170.450139 396.720662 
L 3167.28499 395.481496 
L 3164.119842 394.836485 
L 3160.954693 397.100196 
L 3157.789545 395.11341 
L 3154.624396 392.532694 
L 3151.459248 394.597474 
L 3148.294099 396.00894 
L 3145.12895 387.529777 
L 3141.963802 388.564321 
L 3138.798653 389.685108 
L 3135.633505 397.04199 
L 3132.468356 389.159264 
L 3129.303208 390.422378 
L 3126.138059 397.745454 
L 3122.972911 389.319967 
L 3119.807762 388.014477 
L 3116.642614 385.601746 
L 3113.477465 384.035333 
L 3110.312317 388.743299 
L 3107.147168 395.755285 
L 3103.98202 391.911112 
L 3100.816871 394.907722 
L 3097.651723 392.87574 
L 3094.486574 389.515461 
L 3091.321426 392.057299 
L 3088.156277 391.119082 
L 3084.991129 390.651076 
L 3081.82598 391.408797 
L 3078.660832 388.822997 
L 3075.495683 389.41474 
L 3072.330535 385.720499 
L 3069.165386 396.651221 
L 3066.000238 395.719568 
L 3062.835089 387.758848 
L 3059.669941 384.149992 
L 3056.504792 401.228149 
L 3053.339644 390.961222 
L 3050.174495 389.527248 
L 3047.009347 399.278219 
L 3043.844198 393.167511 
L 3040.67905 398.10022 
L 3037.513901 403.190881 
L 3034.348752 404.887317 
L 3031.183604 396.266854 
L 381.954297 417.668663 
L 378.789149 407.205275 
L 375.624 405.597239 
L 372.458851 413.969271 
L 369.293703 418.045071 
L 366.128554 421.474844 
L 362.963406 423.278501 
L 359.798257 419.192412 
L 356.633109 409.118387 
L 353.46796 401.861613 
L 350.302812 403.060197 
L 347.137663 400.743705 
L 343.972515 396.206586 
L 340.807366 387.626143 
L 337.642218 398.80589 
L 334.477069 394.902816 
L 331.311921 386.777977 
L 328.146772 398.115523 
L 324.981624 391.9873 
L 321.816475 412.686365 
L 318.651327 399.722299 
L 315.486178 411.331594 
L 312.32103 401.016685 
L 309.155881 409.621901 
L 305.990733 389.599342 
L 302.825584 397.087085 
L 299.660436 406.312627 
L 296.495287 413.626 
L 293.330139 408.515859 
L 290.16499 401.2327 
L 286.999842 402.423809 
L 283.834693 398.874248 
L 280.669545 416.14904 
L 277.504396 419.865113 
L 274.339248 419.537682 
L 271.174099 414.352559 
L 268.00895 422.222502 
L 264.843802 408.714479 
L 261.678653 411.597534 
L 258.513505 422.402965 
L 255.348356 419.633801 
L 252.183208 423.331997 
L 249.018059 416.690265 
L 245.852911 416.840025 
L 242.687762 417.02005 
L 239.522614 422.380993 
L 236.357465 420.641683 
L 233.192317 417.198133 
L 230.027168 421.077747 
L 226.86202 420.924346 
L 223.696871 418.169229 
L 220.531723 422.841364 
L 217.366574 427.288673 
L 214.201426 421.440013 
L 211.036277 413.304761 
L 207.871129 416.03818 
L 204.70598 416.132597 
L 201.540832 418.905335 
L 198.375683 420.996951 
L 195.210535 419.193764 
L 192.045386 417.209267 
L 188.880238 418.451324 
L 185.715089 415.002416 
L 182.549941 408.457923 
L 179.384792 420.761234 
L 176.219644 420.023532 
L 173.054495 420.74176 
L 169.889347 421.667329 
L 166.724198 419.546886 
L 163.55905 412.073622 
L 160.393901 395.16012 
L 157.228752 395.787136 
L 154.063604 403.029793 
L 150.898455 401.252234 
L 147.733307 404.708955 
L 144.568158 406.476412 
L 141.40301 400.325789 
L 138.237861 391.70995 
L 135.072713 384.613213 
L 131.907564 398.49494 
L 128.742416 398.929413 
L 125.577267 392.002324 
L 122.412119 394.867353 
L 119.24697 387.960753 
L 116.081822 394.686896 
L 112.916673 391.865398 
L 109.751525 393.266905 
L 106.586376 391.136925 
L 103.421228 397.770999 
L 100.256079 390.144394 
L 97.090931 396.437219 
L 93.925782 397.108949 
L 90.760634 393.171186 
L 87.595485 395.912199 
L 84.430337 398.572429 
L 81.265188 388.457114 
L 78.10004 395.700659 
L 74.934891 397.051838 
L 71.769743 400.596277 
L 68.604594 392.506733 
L 65.439446 392.94784 
L 62.274297 394.826355 
L 59.109149 387.316669 
L 55.944 393.518008 
z
" clip-path="url(#p4ef68d1709)" style="fill: #e6e6e6; fill-opacity: 0.00001"/>
   </g>
   <g id="PI-PATCH-LOWER-0">
    <path d="M 55.944 424.410235 
L 59.109149 421.108535 
L 62.274297 431.720155 
L 65.439446 427.71532 
L 68.604594 428.839679 
L 71.769743 437.219275 
L 74.934891 430.690097 
L 78.10004 431.290236 
L 81.265188 429.358832 
L 84.430337 439.046689 
L 87.595485 439.591163 
L 90.760634 433.326176 
L 93.925782 440.908059 
L 97.090931 437.503521 
L 100.256079 435.164636 
L 103.421228 443.267091 
L 106.586376 427.912948 
L 109.751525 429.732054 
L 112.916673 434.972198 
L 116.081822 435.254709 
L 119.24697 426.344996 
L 122.412119 430.68282 
L 125.577267 422.728628 
L 128.742416 428.149963 
L 131.907564 428.713834 
L 135.072713 426.201327 
L 138.237861 432.623391 
L 141.40301 433.85969 
L 144.568158 441.781576 
L 147.733307 439.987388 
L 150.898455 433.921442 
L 154.063604 432.842534 
L 157.228752 426.203646 
L 160.393901 425.737703 
L 163.55905 445.38567 
L 166.724198 449.712 
L 179.384792 449.712 
L 182.549941 443.431594 
L 185.715089 445.576478 
L 188.880238 449.184693 
L 192.045386 447.560309 
L 195.210535 449.431349 
L 198.375683 449.712 
L 201.540832 447.316305 
L 204.70598 442.799817 
L 207.871129 443.404318 
L 211.036277 443.882211 
L 214.201426 449.712 
L 217.366574 449.712 
L 220.531723 449.05311 
L 223.696871 449.04312 
L 226.86202 449.712 
L 230.027168 449.712 
L 233.192317 448.778673 
L 236.357465 448.626824 
L 239.522614 449.712 
L 242.687762 448.084251 
L 245.852911 449.712 
L 258.513505 449.712 
L 261.678653 441.348413 
L 264.843802 436.642329 
L 268.00895 449.712 
L 271.174099 449.094757 
L 274.339248 449.712 
L 277.504396 449.014818 
L 280.669545 444.551055 
L 283.834693 431.588256 
L 286.999842 433.653264 
L 290.16499 432.103426 
L 293.330139 442.256533 
L 296.495287 446.321081 
L 299.660436 439.981535 
L 302.825584 432.184119 
L 305.990733 431.195436 
L 309.155881 444.289583 
L 312.32103 434.822126 
L 315.486178 448.798102 
L 318.651327 433.792641 
L 321.816475 448.396802 
L 324.981624 426.041806 
L 328.146772 430.995496 
L 331.311921 421.982097 
L 334.477069 427.955715 
L 337.642218 432.241866 
L 340.807366 422.266705 
L 343.972515 429.317851 
L 347.137663 432.060803 
L 350.302812 435.680553 
L 353.46796 433.334913 
L 356.633109 441.351682 
L 359.798257 449.712 
L 366.128554 449.712 
L 369.293703 447.152899 
L 372.458851 445.850937 
L 375.624 438.228722 
L 378.789149 436.608807 
L 381.954297 445.326352 
L 400.6 445.199762 
L 400.6 445.199762 
" clip-path="url(#p4ef68d1709)" style="fill: none; stroke: #b78935; stroke-opacity: 0; stroke-linecap: square"/>
   </g>
   <g id="PI-PATCH-UPPER-0">
    <path d="M 55.944 393.518008 
L 59.109149 387.316669 
L 62.274297 394.826355 
L 65.439446 392.94784 
L 68.604594 392.506733 
L 71.769743 400.596277 
L 74.934891 397.051838 
L 78.10004 395.700659 
L 81.265188 388.457114 
L 84.430337 398.572429 
L 90.760634 393.171186 
L 93.925782 397.108949 
L 97.090931 396.437219 
L 100.256079 390.144394 
L 103.421228 397.770999 
L 106.586376 391.136925 
L 109.751525 393.266905 
L 112.916673 391.865398 
L 116.081822 394.686896 
L 119.24697 387.960753 
L 122.412119 394.867353 
L 125.577267 392.002324 
L 128.742416 398.929413 
L 131.907564 398.49494 
L 135.072713 384.613213 
L 138.237861 391.70995 
L 141.40301 400.325789 
L 144.568158 406.476412 
L 147.733307 404.708955 
L 150.898455 401.252234 
L 154.063604 403.029793 
L 157.228752 395.787136 
L 160.393901 395.16012 
L 163.55905 412.073622 
L 166.724198 419.546886 
L 169.889347 421.667329 
L 173.054495 420.74176 
L 176.219644 420.023532 
L 179.384792 420.761234 
L 182.549941 408.457923 
L 185.715089 415.002416 
L 188.880238 418.451324 
L 192.045386 417.209267 
L 195.210535 419.193764 
L 198.375683 420.996951 
L 201.540832 418.905335 
L 204.70598 416.132597 
L 207.871129 416.03818 
L 211.036277 413.304761 
L 214.201426 421.440013 
L 217.366574 427.288673 
L 220.531723 422.841364 
L 223.696871 418.169229 
L 226.86202 420.924346 
L 230.027168 421.077747 
L 233.192317 417.198133 
L 236.357465 420.641683 
L 239.522614 422.380993 
L 242.687762 417.02005 
L 249.018059 416.690265 
L 252.183208 423.331997 
L 255.348356 419.633801 
L 258.513505 422.402965 
L 261.678653 411.597534 
L 264.843802 408.714479 
L 268.00895 422.222502 
L 271.174099 414.352559 
L 274.339248 419.537682 
L 277.504396 419.865113 
L 280.669545 416.14904 
L 283.834693 398.874248 
L 286.999842 402.423809 
L 290.16499 401.2327 
L 293.330139 408.515859 
L 296.495287 413.626 
L 299.660436 406.312627 
L 302.825584 397.087085 
L 305.990733 389.599342 
L 309.155881 409.621901 
L 312.32103 401.016685 
L 315.486178 411.331594 
L 318.651327 399.722299 
L 321.816475 412.686365 
L 324.981624 391.9873 
L 328.146772 398.115523 
L 331.311921 386.777977 
L 334.477069 394.902816 
L 337.642218 398.80589 
L 340.807366 387.626143 
L 343.972515 396.206586 
L 347.137663 400.743705 
L 350.302812 403.060197 
L 353.46796 401.861613 
L 356.633109 409.118387 
L 359.798257 419.192412 
L 362.963406 423.278501 
L 366.128554 421.474844 
L 369.293703 418.045071 
L 372.458851 413.969271 
L 375.624 405.597239 
L 378.789149 407.205275 
L 381.954297 417.668663 
L 400.6 417.518034 
L 400.6 417.518034 
" clip-path="url(#p4ef68d1709)" style="fill: none; stroke: #406992; stroke-opacity: 0; stroke-linecap: square"/>
   </g>
   <g id="PI-PATCH-1">
    <path d="M 55.944 399.374285 
L 55.944 419.872487 
L 59.109149 415.158136 
L 62.274297 425.46036 
L 65.439446 421.658371 
L 68.604594 422.374738 
L 71.769743 431.001839 
L 74.934891 425.002067 
L 78.10004 425.304553 
L 81.265188 422.200207 
L 84.430337 432.277112 
L 87.595485 432.206831 
L 90.760634 426.394524 
L 93.925782 433.551846 
L 97.090931 430.460306 
L 100.256079 427.333991 
L 103.421228 435.402274 
L 106.586376 421.512329 
L 109.751525 423.362702 
L 112.916673 427.381221 
L 116.081822 428.18587 
L 119.24697 419.439784 
L 122.412119 424.560655 
L 125.577267 417.636528 
L 128.742416 423.69871 
L 131.907564 424.579182 
L 135.072713 419.303241 
L 138.237861 425.769122 
L 141.40301 428.505995 
L 144.568158 438.253754 
L 147.733307 436.609428 
L 150.898455 429.690529 
L 154.063604 428.985165 
L 157.228752 421.989306 
L 160.393901 421.108573 
L 163.55905 442.136704 
L 166.724198 447.205547 
L 169.889347 448.423878 
L 173.054495 447.175787 
L 176.219644 447.164254 
L 179.384792 447.769956 
L 182.549941 439.440772 
L 185.715089 441.66201 
L 188.880238 446.057878 
L 192.045386 444.44234 
L 195.210535 446.546492 
L 198.375683 447.597099 
L 201.540832 444.47162 
L 204.70598 439.741125 
L 207.871129 440.654281 
L 211.036277 441.035424 
L 214.201426 447.733546 
L 217.366574 449.278209 
L 220.531723 446.81658 
L 223.696871 446.474818 
L 226.86202 447.422798 
L 230.027168 447.581876 
L 233.192317 446.137379 
L 236.357465 446.248529 
L 239.522614 447.636275 
L 242.687762 445.411755 
L 245.852911 446.917494 
L 249.018059 446.994108 
L 252.183208 448.817613 
L 255.348356 447.251596 
L 258.513505 447.545121 
L 261.678653 437.877695 
L 264.843802 432.850869 
L 268.00895 447.421507 
L 271.174099 446.08177 
L 274.339248 446.893195 
L 277.504396 446.490187 
L 280.669545 441.597199 
L 283.834693 426.574527 
L 286.999842 428.667253 
L 290.16499 427.672789 
L 293.330139 438.389274 
L 296.495287 442.93534 
L 299.660436 436.263481 
L 302.825584 426.718253 
L 305.990733 424.688317 
L 309.155881 439.744312 
L 312.32103 430.158839 
L 315.486178 445.384548 
L 318.651327 429.515231 
L 321.816475 445.174695 
L 324.981624 421.445437 
L 328.146772 426.332691 
L 331.311921 416.508074 
L 334.477069 422.820284 
L 337.642218 428.133383 
L 340.807366 416.634019 
L 343.972515 423.559772 
L 347.137663 426.961221 
L 350.302812 431.118851 
L 353.46796 428.528331 
L 356.633109 437.48957 
L 359.798257 447.511975 
L 362.963406 448.596587 
L 366.128554 447.809897 
L 369.293703 444.336601 
L 372.458851 443.002717 
L 375.624 434.041225 
L 378.789149 432.9528 
L 381.954297 442.60636 
L 3031.183604 422.836646 
L 3034.348752 427.592298 
L 3037.513901 426.963432 
L 3040.67905 422.054905 
L 3043.844198 420.622722 
L 3047.009347 425.481903 
L 3050.174495 417.720184 
L 3053.339644 420.762252 
L 3056.504792 432.540744 
L 3059.669941 418.151419 
L 3062.835089 419.142551 
L 3066.000238 430.694139 
L 3069.165386 429.856946 
L 3072.330535 415.650698 
L 3075.495683 418.351492 
L 3078.660832 421.609984 
L 3081.82598 424.824467 
L 3084.991129 423.482903 
L 3088.156277 423.917956 
L 3091.321426 425.150039 
L 3094.486574 419.233961 
L 3097.651723 420.750361 
L 3100.816871 420.33718 
L 3103.98202 418.942159 
L 3107.147168 423.80471 
L 3110.312317 419.523934 
L 3113.477465 416.729079 
L 3116.642614 419.043379 
L 3119.807762 416.35786 
L 3122.972911 417.941202 
L 3126.138059 428.264586 
L 3129.303208 418.185691 
L 3132.468356 419.712805 
L 3135.633505 424.604116 
L 3138.798653 414.579297 
L 3141.963802 417.318995 
L 3145.12895 416.285115 
L 3148.294099 423.927838 
L 3151.459248 422.729437 
L 3154.624396 425.14673 
L 3157.789545 427.330225 
L 3160.954693 426.460327 
L 3164.119842 423.124584 
L 3167.28499 423.971694 
L 3170.450139 425.809518 
L 3173.615287 426.193919 
L 3176.780436 422.013746 
L 3179.945584 417.33869 
L 3183.110733 417.14165 
L 3186.275881 424.329816 
L 3189.44103 418.955049 
L 3192.606178 424.581621 
L 3195.771327 426.71484 
L 3198.936475 421.795078 
L 3202.101624 421.654339 
L 3205.266772 430.634532 
L 3208.431921 416.647805 
L 3211.597069 421.754887 
L 3214.762218 420.053042 
L 3217.927366 427.362409 
L 3221.092515 426.45564 
L 3224.257663 420.873258 
L 3227.422812 429.19189 
L 3230.58796 430.175469 
L 3233.753109 426.437177 
L 3236.918257 411.855602 
L 3240.083406 413.209951 
L 3243.248554 414.913259 
L 3246.413703 413.576883 
L 3249.578851 413.727014 
L 3252.744 427.95113 
L 3255.909149 429.010941 
L 3259.074297 430.462111 
L 3262.239446 427.508742 
L 3265.404594 421.883204 
L 3268.569743 420.709547 
L 3271.734891 419.79024 
L 3271.734891 393.358594 
L 3271.734891 393.358594 
L 3268.569743 396.116217 
L 3265.404594 399.191105 
L 3262.239446 404.443725 
L 3259.074297 406.462013 
L 3255.909149 404.858208 
L 3252.744 403.721031 
L 3249.578851 392.137988 
L 3246.413703 391.999224 
L 3243.248554 392.829842 
L 3240.083406 390.204746 
L 3236.918257 387.789066 
L 3233.753109 401.003504 
L 3230.58796 407.766474 
L 3227.422812 402.487193 
L 3224.257663 394.052548 
L 3221.092515 402.526441 
L 3217.927366 401.977202 
L 3214.762218 397.46204 
L 3211.597069 399.447569 
L 3208.431921 395.034664 
L 3205.266772 405.595592 
L 3202.101624 396.50113 
L 3198.936475 398.399834 
L 3195.771327 400.289692 
L 3192.606178 399.807355 
L 3189.44103 395.729905 
L 3186.275881 402.997851 
L 3183.110733 393.118222 
L 3179.945584 397.082276 
L 3176.780436 401.392552 
L 3173.615287 401.983794 
L 3170.450139 401.37415 
L 3167.28499 400.106564 
L 3164.119842 399.535581 
L 3160.954693 401.994619 
L 3157.789545 400.713716 
L 3154.624396 398.509901 
L 3151.459248 399.852409 
L 3148.294099 401.776192 
L 3145.12895 394.234794 
L 3141.963802 395.479341 
L 3138.798653 395.249052 
L 3135.633505 403.758328 
L 3132.468356 396.377483 
L 3129.303208 396.904635 
L 3126.138059 406.40831 
L 3122.972911 395.826626 
L 3119.807762 394.212215 
L 3116.642614 392.666918 
L 3113.477465 390.751674 
L 3110.312317 395.261293 
L 3107.147168 402.934638 
L 3103.98202 398.312123 
L 3100.816871 400.026902 
L 3097.651723 398.74523 
L 3094.486574 395.909577 
L 3091.321426 398.532892 
L 3088.156277 397.627947 
L 3084.991129 396.654697 
L 3081.82598 397.765158 
L 3078.660832 394.811118 
L 3075.495683 395.021075 
L 3072.330535 391.328295 
L 3069.165386 403.349748 
L 3066.000238 402.365998 
L 3062.835089 393.652073 
L 3059.669941 390.888366 
L 3056.504792 407.582442 
L 3053.339644 396.804215 
L 3050.174495 394.906052 
L 3047.009347 404.638248 
L 3043.844198 398.794636 
L 3040.67905 403.233737 
L 3037.513901 408.975808 
L 3034.348752 410.138847 
L 3031.183604 402.243889 
L 381.954297 424.816347 
L 378.789149 413.719926 
L 375.624 412.64248 
L 372.458851 422.615948 
L 369.293703 425.633209 
L 366.128554 430.01333 
L 362.963406 432.21519 
L 359.798257 428.216554 
L 356.633109 416.466745 
L 353.46796 407.56777 
L 350.302812 409.570185 
L 347.137663 405.972071 
L 343.972515 401.214818 
L 340.807366 393.420819 
L 337.642218 406.283356 
L 334.477069 400.771072 
L 331.311921 393.021985 
L 328.146772 404.585404 
L 324.981624 399.018818 
L 321.816475 422.326289 
L 318.651327 407.212574 
L 315.486178 421.398754 
L 312.32103 407.854163 
L 309.155881 416.96991 
L 305.990733 396.921484 
L 302.825584 403.30005 
L 299.660436 414.436624 
L 296.495287 421.833873 
L 293.330139 416.456762 
L 290.16499 407.232361 
L 286.999842 407.778403 
L 283.834693 404.780285 
L 280.669545 423.261175 
L 277.504396 427.883656 
L 274.339248 427.546664 
L 271.174099 423.903828 
L 268.00895 429.912517 
L 264.843802 414.449751 
L 261.678653 418.513248 
L 258.513505 430.196518 
L 255.348356 428.112938 
L 252.183208 432.560932 
L 249.018059 425.975496 
L 245.852911 425.956981 
L 242.687762 425.590696 
L 239.522614 430.312595 
L 236.357465 428.404384 
L 233.192317 426.018513 
L 230.027168 429.450796 
L 226.86202 429.132781 
L 223.696871 426.811947 
L 220.531723 430.099459 
L 217.366574 435.596461 
L 214.201426 429.884051 
L 211.036277 421.434471 
L 207.871129 423.027223 
L 204.70598 422.405674 
L 201.540832 426.175897 
L 198.375683 429.423746 
L 195.210535 427.134224 
L 192.045386 424.864198 
L 188.880238 426.245849 
L 185.715089 421.616229 
L 182.549941 416.714206 
L 179.384792 429.527035 
L 176.219644 428.223682 
L 173.054495 428.672458 
L 169.889347 431.000173 
L 166.724198 427.995288 
L 163.55905 420.721031 
L 160.393901 400.761559 
L 157.228752 401.912874 
L 154.063604 409.421643 
L 150.898455 408.250899 
L 147.733307 413.955884 
L 144.568158 415.521393 
L 141.40301 406.07584 
L 138.237861 398.267991 
L 135.072713 391.377577 
L 131.907564 404.655079 
L 128.742416 404.243158 
L 125.577267 397.006203 
L 122.412119 400.435226 
L 119.24697 393.440061 
L 116.081822 400.803023 
L 112.916673 398.251213 
L 109.751525 398.742666 
L 106.586376 396.692042 
L 103.421228 404.719157 
L 100.256079 396.951668 
L 97.090931 402.788062 
L 93.925782 404.103286 
L 90.760634 399.317637 
L 87.595485 402.818838 
L 84.430337 405.075841 
L 81.265188 394.578749 
L 78.10004 401.372245 
L 74.934891 402.369149 
L 71.769743 406.350352 
L 68.604594 397.79429 
L 65.439446 398.191187 
L 62.274297 400.628105 
L 59.109149 392.322926 
L 55.944 399.374285 
z
" clip-path="url(#p4ef68d1709)" style="fill: #bfbfbf; fill-opacity: 0.00001"/>
   </g>
   <g id="PI-PATCH-LOWER-1">
    <path d="M 55.944 419.872487 
L 59.109149 415.158136 
L 62.274297 425.46036 
L 65.439446 421.658371 
L 68.604594 422.374738 
L 71.769743 431.001839 
L 74.934891 425.002067 
L 78.10004 425.304553 
L 81.265188 422.200207 
L 84.430337 432.277112 
L 87.595485 432.206831 
L 90.760634 426.394524 
L 93.925782 433.551846 
L 100.256079 427.333991 
L 103.421228 435.402274 
L 106.586376 421.512329 
L 109.751525 423.362702 
L 112.916673 427.381221 
L 116.081822 428.18587 
L 119.24697 419.439784 
L 122.412119 424.560655 
L 125.577267 417.636528 
L 128.742416 423.69871 
L 131.907564 424.579182 
L 135.072713 419.303241 
L 138.237861 425.769122 
L 141.40301 428.505995 
L 144.568158 438.253754 
L 147.733307 436.609428 
L 150.898455 429.690529 
L 154.063604 428.985165 
L 157.228752 421.989306 
L 160.393901 421.108573 
L 163.55905 442.136704 
L 166.724198 447.205547 
L 169.889347 448.423878 
L 173.054495 447.175787 
L 176.219644 447.164254 
L 179.384792 447.769956 
L 182.549941 439.440772 
L 185.715089 441.66201 
L 188.880238 446.057878 
L 192.045386 444.44234 
L 195.210535 446.546492 
L 198.375683 447.597099 
L 201.540832 444.47162 
L 204.70598 439.741125 
L 207.871129 440.654281 
L 211.036277 441.035424 
L 214.201426 447.733546 
L 217.366574 449.278209 
L 220.531723 446.81658 
L 223.696871 446.474818 
L 226.86202 447.422798 
L 230.027168 447.581876 
L 233.192317 446.137379 
L 236.357465 446.248529 
L 239.522614 447.636275 
L 242.687762 445.411755 
L 245.852911 446.917494 
L 249.018059 446.994108 
L 252.183208 448.817613 
L 255.348356 447.251596 
L 258.513505 447.545121 
L 261.678653 437.877695 
L 264.843802 432.850869 
L 268.00895 447.421507 
L 271.174099 446.08177 
L 274.339248 446.893195 
L 277.504396 446.490187 
L 280.669545 441.597199 
L 283.834693 426.574527 
L 286.999842 428.667253 
L 290.16499 427.672789 
L 293.330139 438.389274 
L 296.495287 442.93534 
L 299.660436 436.263481 
L 302.825584 426.718253 
L 305.990733 424.688317 
L 309.155881 439.744312 
L 312.32103 430.158839 
L 315.486178 445.384548 
L 318.651327 429.515231 
L 321.816475 445.174695 
L 324.981624 421.445437 
L 328.146772 426.332691 
L 331.311921 416.508074 
L 334.477069 422.820284 
L 337.642218 428.133383 
L 340.807366 416.634019 
L 343.972515 423.559772 
L 347.137663 426.961221 
L 350.302812 431.118851 
L 353.46796 428.528331 
L 356.633109 437.48957 
L 359.798257 447.511975 
L 362.963406 448.596587 
L 366.128554 447.809897 
L 369.293703 444.336601 
L 372.458851 443.002717 
L 375.624 434.041225 
L 378.789149 432.9528 
L 381.954297 442.60636 
L 400.6 442.467218 
L 400.6 442.467218 
" clip-path="url(#p4ef68d1709)" style="fill: none; stroke: #b78935; stroke-opacity: 0; stroke-linecap: square"/>
   </g>
   <g id="PI-PATCH-UPPER-1">
    <path d="M 55.944 399.374285 
L 59.109149 392.322926 
L 62.274297 400.628105 
L 65.439446 398.191187 
L 68.604594 397.79429 
L 71.769743 406.350352 
L 74.934891 402.369149 
L 78.10004 401.372245 
L 81.265188 394.578749 
L 84.430337 405.075841 
L 87.595485 402.818838 
L 90.760634 399.317637 
L 93.925782 404.103286 
L 97.090931 402.788062 
L 100.256079 396.951668 
L 103.421228 404.719157 
L 106.586376 396.692042 
L 109.751525 398.742666 
L 112.916673 398.251213 
L 116.081822 400.803023 
L 119.24697 393.440061 
L 122.412119 400.435226 
L 125.577267 397.006203 
L 128.742416 404.243158 
L 131.907564 404.655079 
L 135.072713 391.377577 
L 138.237861 398.267991 
L 141.40301 406.07584 
L 144.568158 415.521393 
L 147.733307 413.955884 
L 150.898455 408.250899 
L 154.063604 409.421643 
L 157.228752 401.912874 
L 160.393901 400.761559 
L 163.55905 420.721031 
L 166.724198 427.995288 
L 169.889347 431.000173 
L 173.054495 428.672458 
L 176.219644 428.223682 
L 179.384792 429.527035 
L 182.549941 416.714206 
L 185.715089 421.616229 
L 188.880238 426.245849 
L 192.045386 424.864198 
L 198.375683 429.423746 
L 201.540832 426.175897 
L 204.70598 422.405674 
L 207.871129 423.027223 
L 211.036277 421.434471 
L 214.201426 429.884051 
L 217.366574 435.596461 
L 220.531723 430.099459 
L 223.696871 426.811947 
L 226.86202 429.132781 
L 230.027168 429.450796 
L 233.192317 426.018513 
L 236.357465 428.404384 
L 239.522614 430.312595 
L 242.687762 425.590696 
L 245.852911 425.956981 
L 249.018059 425.975496 
L 252.183208 432.560932 
L 255.348356 428.112938 
L 258.513505 430.196518 
L 261.678653 418.513248 
L 264.843802 414.449751 
L 268.00895 429.912517 
L 271.174099 423.903828 
L 274.339248 427.546664 
L 277.504396 427.883656 
L 280.669545 423.261175 
L 283.834693 404.780285 
L 286.999842 407.778403 
L 290.16499 407.232361 
L 293.330139 416.456762 
L 296.495287 421.833873 
L 299.660436 414.436624 
L 302.825584 403.30005 
L 305.990733 396.921484 
L 309.155881 416.96991 
L 312.32103 407.854163 
L 315.486178 421.398754 
L 318.651327 407.212574 
L 321.816475 422.326289 
L 324.981624 399.018818 
L 328.146772 404.585404 
L 331.311921 393.021985 
L 334.477069 400.771072 
L 337.642218 406.283356 
L 340.807366 393.420819 
L 343.972515 401.214818 
L 347.137663 405.972071 
L 350.302812 409.570185 
L 353.46796 407.56777 
L 356.633109 416.466745 
L 359.798257 428.216554 
L 362.963406 432.21519 
L 366.128554 430.01333 
L 369.293703 425.633209 
L 372.458851 422.615948 
L 375.624 412.64248 
L 378.789149 413.719926 
L 381.954297 424.816347 
L 400.6 424.657478 
L 400.6 424.657478 
" clip-path="url(#p4ef68d1709)" style="fill: none; stroke: #406992; stroke-opacity: 0; stroke-linecap: square"/>
   </g>
   <g id="PI-PATCH-2">
    <path d="M 55.944 403.804386 
L 55.944 416.26643 
L 59.109149 410.429475 
L 62.274297 420.485827 
L 65.439446 416.845036 
L 68.604594 417.237181 
L 71.769743 426.060968 
L 74.934891 420.481904 
L 78.10004 420.547851 
L 81.265188 416.511393 
L 84.430337 426.897466 
L 87.595485 426.338653 
L 90.760634 420.88608 
L 93.925782 427.706013 
L 97.090931 424.863206 
L 100.256079 421.111137 
L 103.421228 429.152262 
L 106.586376 416.425886 
L 109.751525 418.301107 
L 112.916673 421.348824 
L 116.081822 422.568408 
L 119.24697 413.952352 
L 122.412119 419.695495 
L 125.577267 413.58994 
L 128.742416 420.161388 
L 131.907564 421.293459 
L 135.072713 413.821472 
L 138.237861 420.322173 
L 141.40301 424.251522 
L 144.568158 435.450265 
L 147.733307 433.925031 
L 150.898455 426.328307 
L 154.063604 425.919791 
L 157.228752 418.640256 
L 160.393901 417.429898 
L 163.55905 439.554817 
L 166.724198 445.21372 
L 169.889347 447.400233 
L 173.054495 445.16031 
L 176.219644 445.139612 
L 179.384792 446.226652 
L 182.549941 436.269347 
L 185.715089 438.551261 
L 188.880238 443.573061 
L 192.045386 441.964554 
L 195.210535 444.253955 
L 198.375683 445.91643 
L 201.540832 442.211006 
L 204.70598 437.310444 
L 207.871129 438.468882 
L 211.036277 438.77314 
L 214.201426 446.161308 
L 217.366574 448.933483 
L 220.531723 445.039255 
L 223.696871 444.433841 
L 226.86202 445.603615 
L 230.027168 445.88911 
L 233.192317 444.038397 
L 236.357465 444.358546 
L 239.522614 445.986738 
L 242.687762 443.287976 
L 245.852911 444.696757 
L 249.018059 444.834254 
L 252.183208 448.106862 
L 255.348356 445.296362 
L 258.513505 445.823146 
L 261.678653 435.119586 
L 264.843802 429.837873 
L 268.00895 445.601298 
L 271.174099 443.68741 
L 274.339248 444.653148 
L 277.504396 444.483913 
L 280.669545 439.249828 
L 283.834693 422.590217 
L 286.999842 424.70497 
L 290.16499 424.151852 
L 293.330139 435.316042 
L 296.495287 440.244761 
L 299.660436 433.308818 
L 302.825584 422.374641 
L 305.990733 419.517241 
L 309.155881 436.132277 
L 312.32103 426.453019 
L 315.486178 442.671866 
L 318.651327 426.116059 
L 321.816475 442.614151 
L 324.981624 417.792796 
L 328.146772 422.627253 
L 331.311921 412.157978 
L 334.477069 418.73926 
L 337.642218 424.868455 
L 340.807366 412.157838 
L 343.972515 418.983943 
L 347.137663 422.908687 
L 350.302812 427.493759 
L 353.46796 424.708637 
L 356.633109 434.420428 
L 359.798257 445.76366 
L 362.963406 447.710191 
L 366.128554 446.298335 
L 369.293703 442.098545 
L 372.458851 440.739294 
L 375.624 430.713506 
L 378.789149 430.047446 
L 381.954297 440.444838 
L 3031.183604 419.257902 
L 3034.348752 424.646165 
L 3037.513901 424.101836 
L 3040.67905 418.629661 
L 3043.844198 416.497175 
L 3047.009347 421.536173 
L 3050.174495 413.172699 
L 3053.339644 416.077932 
L 3056.504792 427.786181 
L 3059.669941 412.862777 
L 3062.835089 414.006949 
L 3066.000238 425.032376 
L 3069.165386 424.783827 
L 3072.330535 410.743221 
L 3075.495683 413.750699 
L 3078.660832 416.113462 
L 3081.82598 419.419873 
L 3084.991129 417.984556 
L 3088.156277 418.823222 
L 3091.321426 419.938344 
L 3094.486574 415.004339 
L 3097.651723 416.683574 
L 3100.816871 416.44381 
L 3103.98202 415.550619 
L 3107.147168 420.703671 
L 3110.312317 415.061664 
L 3113.477465 411.828469 
L 3116.642614 414.182648 
L 3119.807762 412.401413 
L 3122.972911 414.139201 
L 3126.138059 425.553418 
L 3129.303208 414.630518 
L 3132.468356 415.866123 
L 3135.633505 421.293546 
L 3138.798653 411.198092 
L 3141.963802 413.793613 
L 3145.12895 412.596011 
L 3148.294099 419.767725 
L 3151.459248 418.104396 
L 3154.624396 419.695299 
L 3157.789545 421.708404 
L 3160.954693 421.174026 
L 3164.119842 418.018364 
L 3167.28499 418.745213 
L 3170.450139 420.41967 
L 3173.615287 420.899536 
L 3176.780436 417.560403 
L 3179.945584 413.097387 
L 3183.110733 412.234242 
L 3186.275881 420.035267 
L 3189.44103 414.353159 
L 3192.606178 419.737421 
L 3195.771327 421.74181 
L 3198.936475 417.34606 
L 3202.101624 416.767805 
L 3205.266772 426.002456 
L 3208.431921 412.570245 
L 3211.597069 417.437382 
L 3214.762218 415.667792 
L 3217.927366 422.515135 
L 3221.092515 422.979337 
L 3224.257663 415.761449 
L 3227.422812 424.058451 
L 3230.58796 426.898646 
L 3233.753109 421.609489 
L 3236.918257 407.40433 
L 3240.083406 408.704875 
L 3243.248554 410.794531 
L 3246.413703 409.384875 
L 3249.578851 409.525403 
L 3252.744 424.453129 
L 3255.909149 425.636914 
L 3259.074297 427.215883 
L 3262.239446 423.98938 
L 3265.404594 417.771939 
L 3268.569743 415.906484 
L 3271.734891 414.742195 
L 3271.734891 398.428518 
L 3271.734891 398.428518 
L 3268.569743 400.662305 
L 3265.404594 403.902914 
L 3262.239446 410.297132 
L 3259.074297 413.223708 
L 3255.909149 411.489995 
L 3252.744 410.191449 
L 3249.578851 396.152471 
L 3246.413703 396.023519 
L 3243.248554 397.225267 
L 3240.083406 394.437626 
L 3236.918257 392.639433 
L 3233.753109 405.930026 
L 3230.58796 413.683247 
L 3227.422812 407.555845 
L 3224.257663 399.21411 
L 3221.092515 408.881421 
L 3217.927366 406.847886 
L 3214.762218 401.681178 
L 3211.597069 403.634182 
L 3208.431921 399.261382 
L 3205.266772 410.640403 
L 3202.101624 401.192463 
L 3198.936475 402.918192 
L 3195.771327 405.477417 
L 3192.606178 404.37753 
L 3189.44103 399.916529 
L 3186.275881 406.733832 
L 3183.110733 397.210979 
L 3179.945584 400.366404 
L 3176.780436 404.516906 
L 3173.615287 405.545449 
L 3170.450139 404.894378 
L 3167.28499 403.605293 
L 3164.119842 403.090309 
L 3160.954693 405.697107 
L 3157.789545 404.950185 
L 3154.624396 403.031483 
L 3151.459248 403.827615 
L 3148.294099 406.138951 
L 3145.12895 399.306943 
L 3141.963802 400.710351 
L 3138.798653 399.458013 
L 3135.633505 408.839041 
L 3132.468356 401.837855 
L 3129.303208 401.808273 
L 3126.138059 412.961507 
L 3122.972911 400.748724 
L 3119.807762 398.900623 
L 3116.642614 398.011514 
L 3113.477465 395.832389 
L 3110.312317 400.191965 
L 3107.147168 408.365609 
L 3103.98202 403.154301 
L 3100.816871 403.899411 
L 3097.651723 403.185328 
L 3094.486574 400.746539 
L 3091.321426 403.431489 
L 3088.156277 402.551712 
L 3084.991129 401.196261 
L 3081.82598 402.57356 
L 3078.660832 399.340957 
L 3075.495683 399.262103 
L 3072.330535 395.570429 
L 3069.165386 408.416988 
L 3066.000238 407.393829 
L 3062.835089 398.110126 
L 3059.669941 395.985749 
L 3056.504792 412.38928 
L 3053.339644 401.224268 
L 3050.174495 398.97496 
L 3047.009347 408.692954 
L 3043.844198 403.051392 
L 3040.67905 407.117094 
L 3037.513901 413.351937 
L 3034.348752 414.111475 
L 3031.183604 406.765342 
L 381.954297 430.223361 
L 378.789149 418.648069 
L 375.624 417.971999 
L 372.458851 429.156906 
L 369.293703 431.373413 
L 366.128554 436.472445 
L 362.963406 438.975534 
L 359.798257 435.043054 
L 356.633109 422.025564 
L 353.46796 411.88431 
L 350.302812 414.494801 
L 347.137663 409.927177 
L 343.972515 405.003399 
L 340.807366 397.804322 
L 337.642218 411.93984 
L 334.477069 405.210237 
L 331.311921 397.745394 
L 328.146772 409.47968 
L 324.981624 404.337956 
L 321.816475 429.61861 
L 318.651327 412.878748 
L 315.486178 429.014267 
L 312.32103 413.026516 
L 309.155881 422.528465 
L 305.990733 402.46047 
L 302.825584 407.999977 
L 299.660436 420.582191 
L 296.495287 428.042888 
L 293.330139 422.463824 
L 290.16499 411.77093 
L 286.999842 411.828996 
L 283.834693 409.24803 
L 280.669545 428.641297 
L 277.504396 433.94945 
L 274.339248 433.605224 
L 271.174099 431.129083 
L 268.00895 435.729789 
L 264.843802 418.788316 
L 261.678653 423.744783 
L 258.513505 436.092114 
L 255.348356 434.527158 
L 252.183208 439.542351 
L 249.018059 432.999503 
L 245.852911 432.853692 
L 242.687762 432.074139 
L 239.522614 436.312621 
L 236.357465 434.27664 
L 233.192317 432.690874 
L 230.027168 435.784763 
L 226.86202 435.342222 
L 223.696871 433.349911 
L 220.531723 435.589996 
L 217.366574 441.881061 
L 214.201426 436.271719 
L 211.036277 427.584359 
L 207.871129 428.31423 
L 204.70598 427.151073 
L 201.540832 431.675865 
L 198.375683 435.79837 
L 195.210535 433.140951 
L 192.045386 430.65493 
L 188.880238 432.14218 
L 185.715089 426.619386 
L 182.549941 422.959843 
L 179.384792 436.158107 
L 176.219644 434.426856 
L 173.054495 434.6718 
L 169.889347 438.060197 
L 166.724198 434.386258 
L 163.55905 427.262544 
L 160.393901 404.998883 
L 157.228752 406.546816 
L 154.063604 414.256891 
L 150.898455 413.545185 
L 147.733307 420.950915 
L 144.568158 422.363656 
L 141.40301 410.425586 
L 138.237861 403.228957 
L 135.072713 396.494621 
L 131.907564 409.315044 
L 128.742416 408.262851 
L 125.577267 400.791491 
L 122.412119 404.647159 
L 119.24697 397.584997 
L 116.081822 405.429694 
L 112.916673 403.081897 
L 109.751525 402.88492 
L 106.586376 400.894326 
L 103.421228 409.975235 
L 100.256079 402.101171 
L 97.090931 407.59229 
L 93.925782 409.394298 
L 90.760634 403.967248 
L 87.595485 408.043508 
L 84.430337 409.995482 
L 81.265188 399.209588 
L 78.10004 405.662634 
L 74.934891 406.39154 
L 71.769743 410.703142 
L 68.604594 401.794172 
L 65.439446 402.157626 
L 62.274297 405.016959 
L 59.109149 396.110013 
L 55.944 403.804386 
z
" clip-path="url(#p4ef68d1709)" style="fill: #808080; fill-opacity: 0.00001"/>
   </g>
   <g id="PI-PATCH-LOWER-2">
    <path d="M 55.944 416.26643 
L 59.109149 410.429475 
L 62.274297 420.485827 
L 65.439446 416.845036 
L 68.604594 417.237181 
L 71.769743 426.060968 
L 74.934891 420.481904 
L 78.10004 420.547851 
L 81.265188 416.511393 
L 84.430337 426.897466 
L 87.595485 426.338653 
L 90.760634 420.88608 
L 93.925782 427.706013 
L 97.090931 424.863206 
L 100.256079 421.111137 
L 103.421228 429.152262 
L 106.586376 416.425886 
L 109.751525 418.301107 
L 112.916673 421.348824 
L 116.081822 422.568408 
L 119.24697 413.952352 
L 122.412119 419.695495 
L 125.577267 413.58994 
L 128.742416 420.161388 
L 131.907564 421.293459 
L 135.072713 413.821472 
L 138.237861 420.322173 
L 141.40301 424.251522 
L 144.568158 435.450265 
L 147.733307 433.925031 
L 150.898455 426.328307 
L 154.063604 425.919791 
L 157.228752 418.640256 
L 160.393901 417.429898 
L 163.55905 439.554817 
L 166.724198 445.21372 
L 169.889347 447.400233 
L 173.054495 445.16031 
L 176.219644 445.139612 
L 179.384792 446.226652 
L 182.549941 436.269347 
L 185.715089 438.551261 
L 188.880238 443.573061 
L 192.045386 441.964554 
L 195.210535 444.253955 
L 198.375683 445.91643 
L 201.540832 442.211006 
L 204.70598 437.310444 
L 207.871129 438.468882 
L 211.036277 438.77314 
L 214.201426 446.161308 
L 217.366574 448.933483 
L 220.531723 445.039255 
L 223.696871 444.433841 
L 226.86202 445.603615 
L 230.027168 445.88911 
L 233.192317 444.038397 
L 236.357465 444.358546 
L 239.522614 445.986738 
L 242.687762 443.287976 
L 245.852911 444.696757 
L 249.018059 444.834254 
L 252.183208 448.106862 
L 255.348356 445.296362 
L 258.513505 445.823146 
L 261.678653 435.119586 
L 264.843802 429.837873 
L 268.00895 445.601298 
L 271.174099 443.68741 
L 274.339248 444.653148 
L 277.504396 444.483913 
L 280.669545 439.249828 
L 283.834693 422.590217 
L 286.999842 424.70497 
L 290.16499 424.151852 
L 293.330139 435.316042 
L 296.495287 440.244761 
L 299.660436 433.308818 
L 302.825584 422.374641 
L 305.990733 419.517241 
L 309.155881 436.132277 
L 312.32103 426.453019 
L 315.486178 442.671866 
L 318.651327 426.116059 
L 321.816475 442.614151 
L 324.981624 417.792796 
L 328.146772 422.627253 
L 331.311921 412.157978 
L 334.477069 418.73926 
L 337.642218 424.868455 
L 340.807366 412.157838 
L 343.972515 418.983943 
L 347.137663 422.908687 
L 350.302812 427.493759 
L 353.46796 424.708637 
L 356.633109 434.420428 
L 359.798257 445.76366 
L 362.963406 447.710191 
L 366.128554 446.298335 
L 369.293703 442.098545 
L 372.458851 440.739294 
L 375.624 430.713506 
L 378.789149 430.047446 
L 381.954297 440.444838 
L 400.6 440.295721 
L 400.6 440.295721 
" clip-path="url(#p4ef68d1709)" style="fill: none; stroke: #b78935; stroke-opacity: 0; stroke-linecap: square"/>
   </g>
   <g id="PI-PATCH-UPPER-2">
    <path d="M 55.944 403.804386 
L 59.109149 396.110013 
L 62.274297 405.016959 
L 65.439446 402.157626 
L 68.604594 401.794172 
L 71.769743 410.703142 
L 74.934891 406.39154 
L 78.10004 405.662634 
L 81.265188 399.209588 
L 84.430337 409.995482 
L 87.595485 408.043508 
L 90.760634 403.967248 
L 93.925782 409.394298 
L 97.090931 407.59229 
L 100.256079 402.101171 
L 103.421228 409.975235 
L 106.586376 400.894326 
L 109.751525 402.88492 
L 112.916673 403.081897 
L 116.081822 405.429694 
L 119.24697 397.584997 
L 122.412119 404.647159 
L 125.577267 400.791491 
L 128.742416 408.262851 
L 131.907564 409.315044 
L 135.072713 396.494621 
L 138.237861 403.228957 
L 141.40301 410.425586 
L 144.568158 422.363656 
L 147.733307 420.950915 
L 150.898455 413.545185 
L 154.063604 414.256891 
L 157.228752 406.546816 
L 160.393901 404.998883 
L 163.55905 427.262544 
L 166.724198 434.386258 
L 169.889347 438.060197 
L 173.054495 434.6718 
L 176.219644 434.426856 
L 179.384792 436.158107 
L 182.549941 422.959843 
L 185.715089 426.619386 
L 188.880238 432.14218 
L 192.045386 430.65493 
L 195.210535 433.140951 
L 198.375683 435.79837 
L 201.540832 431.675865 
L 204.70598 427.151073 
L 207.871129 428.31423 
L 211.036277 427.584359 
L 214.201426 436.271719 
L 217.366574 441.881061 
L 220.531723 435.589996 
L 223.696871 433.349911 
L 226.86202 435.342222 
L 230.027168 435.784763 
L 233.192317 432.690874 
L 236.357465 434.27664 
L 239.522614 436.312621 
L 242.687762 432.074139 
L 245.852911 432.853692 
L 249.018059 432.999503 
L 252.183208 439.542351 
L 255.348356 434.527158 
L 258.513505 436.092114 
L 261.678653 423.744783 
L 264.843802 418.788316 
L 268.00895 435.729789 
L 271.174099 431.129083 
L 274.339248 433.605224 
L 277.504396 433.94945 
L 280.669545 428.641297 
L 283.834693 409.24803 
L 286.999842 411.828996 
L 290.16499 411.77093 
L 293.330139 422.463824 
L 296.495287 428.042888 
L 299.660436 420.582191 
L 302.825584 407.999977 
L 305.990733 402.46047 
L 309.155881 422.528465 
L 312.32103 413.026516 
L 315.486178 429.014267 
L 318.651327 412.878748 
L 321.816475 429.61861 
L 324.981624 404.337956 
L 328.146772 409.47968 
L 331.311921 397.745394 
L 334.477069 405.210237 
L 337.642218 411.93984 
L 340.807366 397.804322 
L 343.972515 405.003399 
L 347.137663 409.927177 
L 350.302812 414.494801 
L 353.46796 411.88431 
L 356.633109 422.025564 
L 359.798257 435.043054 
L 362.963406 438.975534 
L 366.128554 436.472445 
L 369.293703 431.373413 
L 372.458851 429.156906 
L 375.624 417.971999 
L 378.789149 418.648069 
L 381.954297 430.223361 
L 400.6 430.05826 
L 400.6 430.05826 
" clip-path="url(#p4ef68d1709)" style="fill: none; stroke: #406992; stroke-opacity: 0; stroke-linecap: square"/>
   </g>
   <g id="matplotlib.axis_3">
    <g id="xtick_4">
     <g id="line2d_7">
      <g>
       <use xlink:href="#ma6c8516311" x="66.343774" y="449.712" style="fill: #949494; stroke: #949494; stroke-width: 0.8"/>
      </g>
     </g>
     <g id="text_8">
      <text style="font-weight: 300; font-size: 16px; font-family: 'Source Sans 3', sans-serif; text-anchor: middle; fill: #494949" x="66.343774" y="468.2645" transform="rotate(-0 66.343774 468.2645)">2021</text>
     </g>
    </g>
    <g id="xtick_5">
     <g id="line2d_8">
      <g>
       <use xlink:href="#ma6c8516311" x="231.383661" y="449.712" style="fill: #949494; stroke: #949494; stroke-width: 0.8"/>
      </g>
     </g>
     <g id="text_9">
      <text style="font-weight: 300; font-size: 16px; font-family: 'Source Sans 3', sans-serif; text-anchor: middle; fill: #494949" x="231.383661" y="468.2645" transform="rotate(-0 231.383661 468.2645)">2022</text>
     </g>
    </g>
    <g id="text_10">
     <text style="font-weight: 600; font-size: 16px; font-family: 'Source Sans 3', sans-serif; text-anchor: middle; fill: #494949" x="215.784" y="487.3695" transform="rotate(-0 215.784 487.3695)">Date</text>
    </g>
   </g>
   <g id="matplotlib.axis_4">
    <g id="ytick_4">
     <g id="line2d_9">
      <path d="M 55.944 449.712 
L 375.624 449.712 
" style="fill: none; stroke: #d1d1d1; stroke-width: 0.8; stroke-linecap: square"/>
     </g>
     <g id="line2d_10">
      <g>
       <use xlink:href="#md8d2f2622e" x="55.944" y="449.712" style="fill: #949494; stroke: #949494; stroke-width: 0.8"/>
      </g>
     </g>
     <g id="text_11">
      <text style="font-weight: 300; font-size: 16px; font-family: 'Source Sans 3', sans-serif; text-anchor: end; fill: #494949" x="48.944" y="455.48825" transform="rotate(-0 48.944 455.48825)">0</text>
     </g>
    </g>
    <g id="ytick_5">
     <g id="line2d_11">
      <path d="M 55.944 416.433312 
L 375.624 416.433312 
" style="fill: none; stroke: #d1d1d1; stroke-width: 0.8; stroke-linecap: square"/>
     </g>
     <g id="line2d_12">
      <g>
       <use xlink:href="#md8d2f2622e" x="55.944" y="416.433312" style="fill: #949494; stroke: #949494; stroke-width: 0.8"/>
      </g>
     </g>
     <g id="text_12">
      <text style="font-weight: 300; font-size: 16px; font-family: 'Source Sans 3', sans-serif; text-anchor: end; fill: #494949" x="48.944" y="422.209562" transform="rotate(-0 48.944 422.209562)">20</text>
     </g>
    </g>
    <g id="ytick_6">
     <g id="line2d_13">
      <path d="M 55.944 383.154624 
L 375.624 383.154624 
" style="fill: none; stroke: #d1d1d1; stroke-width: 0.8; stroke-linecap: square"/>
     </g>
     <g id="line2d_14">
      <g>
       <use xlink:href="#md8d2f2622e" x="55.944" y="383.154624" style="fill: #949494; stroke: #949494; stroke-width: 0.8"/>
      </g>
     </g>
     <g id="text_13">
      <text style="font-weight: 300; font-size: 16px; font-family: 'Source Sans 3', sans-serif; text-anchor: end; fill: #494949" x="48.944" y="388.930874" transform="rotate(-0 48.944 388.930874)">40</text>
     </g>
    </g>
    <g id="ytick_7">
     <g id="line2d_15">
      <path d="M 55.944 349.875936 
L 375.624 349.875936 
" style="fill: none; stroke: #d1d1d1; stroke-width: 0.8; stroke-linecap: square"/>
     </g>
     <g id="line2d_16">
      <g>
       <use xlink:href="#md8d2f2622e" x="55.944" y="349.875936" style="fill: #949494; stroke: #949494; stroke-width: 0.8"/>
      </g>
     </g>
     <g id="text_14">
      <text style="font-weight: 300; font-size: 16px; font-family: 'Source Sans 3', sans-serif; text-anchor: end; fill: #494949" x="48.944" y="355.652186" transform="rotate(-0 48.944 355.652186)">60</text>
     </g>
    </g>
    <g id="ytick_8">
     <g id="line2d_17">
      <path d="M 55.944 316.597248 
L 375.624 316.597248 
" style="fill: none; stroke: #d1d1d1; stroke-width: 0.8; stroke-linecap: square"/>
     </g>
     <g id="line2d_18">
      <g>
       <use xlink:href="#md8d2f2622e" x="55.944" y="316.597248" style="fill: #949494; stroke: #949494; stroke-width: 0.8"/>
      </g>
     </g>
     <g id="text_15">
      <text style="font-weight: 300; font-size: 16px; font-family: 'Source Sans 3', sans-serif; text-anchor: end; fill: #494949" x="48.944" y="322.373498" transform="rotate(-0 48.944 322.373498)">80</text>
     </g>
    </g>
    <g id="ytick_9">
     <g id="line2d_19">
      <path d="M 55.944 283.31856 
L 375.624 283.31856 
" style="fill: none; stroke: #d1d1d1; stroke-width: 0.8; stroke-linecap: square"/>
     </g>
     <g id="line2d_20">
      <g>
       <use xlink:href="#md8d2f2622e" x="55.944" y="283.31856" style="fill: #949494; stroke: #949494; stroke-width: 0.8"/>
      </g>
     </g>
     <g id="text_16">
      <text style="font-weight: 300; font-size: 16px; font-family: 'Source Sans 3', sans-serif; text-anchor: end; fill: #494949" x="48.944" y="289.09481" transform="rotate(-0 48.944 289.09481)">100</text>
     </g>
    </g>
   </g>
   <g id="TAG-0-LABEL-BOLD">
    <g id="patch_6">
     <path d="M 239.4165 349.496842 
L 351.9915 349.496842 
L 351.9915 316.976342 
L 239.4165 316.976342 
z
" style="fill: #ffffff; opacity: 0"/>
    </g>
    <text style="font-weight: 700; font-size: 16px; font-family: 'Source Sans 3', sans-serif; fill: #883e3a; opacity: 0" transform="translate(239.4165 328.528842)">PI contains 85.5%</text>
    <text style="font-weight: 700; font-size: 16px; font-family: 'Source Sans 3', sans-serif; fill: #883e3a; opacity: 0" transform="translate(246.68025 345.944342)">of observations</text>
   </g>
   <g id="TAG-1-LABEL-BOLD">
    <g id="patch_7">
     <path d="M 239.4165 349.496842 
L 351.9915 349.496842 
L 351.9915 316.976342 
L 239.4165 316.976342 
z
" style="fill: #ffffff; opacity: 0"/>
    </g>
    <text style="font-weight: 700; font-size: 16px; font-family: 'Source Sans 3', sans-serif; fill: #883e3a; opacity: 0" transform="translate(239.4165 328.528842)">PI contains 65.2%</text>
    <text style="font-weight: 700; font-size: 16px; font-family: 'Source Sans 3', sans-serif; fill: #883e3a; opacity: 0" transform="translate(246.68025 345.944342)">of observations</text>
   </g>
   <g id="TAG-2-LABEL-BOLD">
    <g id="patch_8">
     <path d="M 239.4165 349.496842 
L 351.9915 349.496842 
L 351.9915 316.976342 
L 239.4165 316.976342 
z
" style="fill: #ffffff; opacity: 0"/>
    </g>
    <text style="font-weight: 700; font-size: 16px; font-family: 'Source Sans 3', sans-serif; fill: #883e3a; opacity: 0" transform="translate(239.4165 328.528842)">PI contains 44.9%</text>
    <text style="font-weight: 700; font-size: 16px; font-family: 'Source Sans 3', sans-serif; fill: #883e3a; opacity: 0" transform="translate(246.68025 345.944342)">of observations</text>
   </g>
   <g id="PI-PATCH-MEDIAN">
    <path d="M 55.944 408.234488 
L 59.109149 399.897101 
L 62.274297 409.405813 
L 65.439446 406.124065 
L 68.604594 405.794053 
L 71.769743 415.055931 
L 74.934891 410.41393 
L 78.10004 409.953023 
L 81.265188 403.840427 
L 84.430337 414.915124 
L 87.595485 413.268178 
L 90.760634 408.616859 
L 93.925782 414.685309 
L 97.090931 412.396517 
L 100.256079 407.250675 
L 103.421228 415.231313 
L 106.586376 405.09661 
L 109.751525 407.027174 
L 112.916673 407.91258 
L 116.081822 410.056365 
L 119.24697 401.729933 
L 122.412119 408.859092 
L 125.577267 404.57678 
L 128.742416 412.282543 
L 131.907564 413.975009 
L 135.072713 401.611665 
L 141.40301 414.775331 
L 144.568158 429.205919 
L 147.733307 427.945947 
L 150.898455 418.839471 
L 154.063604 419.092139 
L 157.228752 411.180757 
L 160.393901 409.236207 
L 163.55905 433.804056 
L 166.724198 440.777228 
L 169.889347 445.120221 
L 173.054495 440.671142 
L 176.219644 440.630031 
L 179.384792 442.789179 
L 182.549941 429.20548 
L 185.715089 431.622542 
L 188.880238 438.03851 
L 192.045386 436.445662 
L 195.210535 439.147677 
L 198.375683 442.172995 
L 201.540832 437.175833 
L 204.70598 431.896472 
L 207.871129 433.601238 
L 211.036277 433.734248 
L 214.201426 442.659388 
L 217.366574 448.16566 
L 220.531723 441.080533 
L 223.696871 439.887875 
L 226.86202 441.551663 
L 230.027168 442.118731 
L 233.192317 439.363234 
L 236.357465 440.148897 
L 239.522614 442.312646 
L 242.687762 438.557582 
L 245.852911 439.750402 
L 249.018059 440.023509 
L 252.183208 446.523771 
L 255.348356 440.941377 
L 258.513505 441.987709 
L 261.678653 428.976318 
L 264.843802 423.126882 
L 268.00895 441.547061 
L 271.174099 438.354339 
L 274.339248 439.663785 
L 277.504396 440.015244 
L 280.669545 434.021419 
L 283.834693 413.715775 
L 286.999842 415.87959 
L 290.16499 416.309499 
L 293.330139 428.470885 
L 296.495287 434.251904 
L 299.660436 426.727757 
L 302.825584 412.699904 
L 305.990733 407.999457 
L 309.155881 428.087019 
L 312.32103 418.198868 
L 315.486178 436.62978 
L 318.651327 418.544923 
L 321.816475 436.910931 
L 324.981624 409.657094 
L 328.146772 414.373956 
L 331.311921 402.468803 
L 334.477069 409.649401 
L 337.642218 417.596325 
L 340.807366 402.187826 
L 343.972515 408.791981 
L 347.137663 413.882283 
L 350.302812 419.419417 
L 353.46796 416.200851 
L 356.633109 427.584383 
L 359.798257 441.869555 
L 362.963406 445.735878 
L 366.128554 442.93156 
L 369.293703 437.113618 
L 372.458851 435.697864 
L 375.624 423.301518 
L 378.789149 423.576211 
L 381.954297 435.630375 
L 400.6 435.459041 
L 400.6 435.459041 
" clip-path="url(#p4ef68d1709)" style="fill: none; stroke: #00264c; stroke-opacity: 0; stroke-linecap: square"/>
   </g>
   <g id="OBSERVED-FORECAST-LINE">
    <path d="M 55.944 382.806018 
L 59.109149 361.487278 
L 62.274297 379.588093 
L 65.439446 374.358966 
L 68.604594 377.040568 
L 71.769743 389.912263 
L 74.934891 378.78361 
L 78.10004 370.604723 
L 81.265188 368.995764 
L 84.430337 358.939752 
L 87.595485 380.736358 
L 90.760634 344.874516 
L 93.925782 360.813113 
L 97.090931 355.042242 
L 100.256079 349.956383 
L 103.421228 382.806018 
L 106.586376 376.772409 
L 109.751525 355.185509 
L 112.916673 366.984563 
L 116.081822 368.593522 
L 119.24697 374.493049 
L 122.412119 394.739148 
L 125.577267 401.711313 
L 128.742416 413.288233 
L 131.907564 327.241035 
L 135.072713 350.684323 
L 138.237861 395.280461 
L 141.40301 435.565189 
L 144.568158 437.778869 
L 147.733307 409.487961 
L 150.898455 410.694683 
L 154.063604 412.705884 
L 157.228752 372.884083 
L 160.393901 436.035827 
L 163.55905 443.544314 
L 166.724198 449.57792 
L 169.889347 443.007994 
L 173.054495 447.298558 
L 176.219644 449.041599 
L 179.384792 440.192311 
L 182.549941 428.125099 
L 185.715089 442.471673 
L 188.880238 440.728631 
L 192.045386 441.667192 
L 195.210535 446.494077 
L 198.375683 436.974387 
L 201.540832 429.33182 
L 204.70598 434.829105 
L 207.871129 441.264952 
L 211.036277 444.482875 
L 214.201426 448.505279 
L 217.366574 440.862712 
L 220.531723 448.505279 
L 223.696871 444.214715 
L 226.86202 445.957756 
L 230.027168 446.762237 
L 233.192317 442.069433 
L 236.357465 445.019195 
L 239.522614 445.823676 
L 242.687762 441.801272 
L 245.852911 443.946554 
L 249.018059 446.359997 
L 252.183208 443.941129 
L 255.348356 441.880104 
L 258.513505 432.092199 
L 261.678653 423.056072 
L 264.843802 436.796242 
L 268.00895 444.616955 
L 271.174099 436.438067 
L 274.339248 444.482875 
L 277.504396 435.097266 
L 280.669545 404.795156 
L 283.834693 399.566033 
L 286.999842 413.242204 
L 290.16499 425.577577 
L 293.330139 430.910482 
L 296.495287 432.196901 
L 299.660436 386.92711 
L 302.825584 364.696405 
L 305.990733 418.589018 
L 309.155881 407.208598 
L 312.32103 439.65599 
L 315.486178 413.376284 
L 318.651327 442.203513 
L 321.816475 406.940439 
L 324.981624 405.465556 
L 328.146772 363.766637 
L 331.311921 370.068406 
L 334.477069 424.236775 
L 337.642218 379.185851 
L 340.807366 374.22489 
L 343.972515 406.672277 
L 347.137663 420.616611 
L 350.302812 416.191968 
L 353.46796 431.074862 
L 356.633109 447.566718 
L 359.798257 449.30976 
L 362.963406 446.628157 
L 366.128554 435.633587 
L 369.293703 442.069433 
L 372.458851 416.594209 
L 375.624 420.616611 
L 378.789149 433.622384 
L 381.954297 443.812474 
L 400.6 443.569006 
L 400.6 443.569006 
" clip-path="url(#p4ef68d1709)" style="fill: none; stroke-dasharray: 1,1.65; stroke-dashoffset: 0; stroke: #883e3a"/>
   </g>
   <g id="PI-missed-dummy">
    <defs>
     <path id="m8f710aeffb" d="M 0 3.9975 
C 1.060149 3.9975 2.077021 3.576298 2.826659 2.826659 
C 3.576298 2.077021 3.9975 1.060149 3.9975 0 
C 3.9975 -1.060149 3.576298 -2.077021 2.826659 -2.826659 
C 2.077021 -3.576298 1.060149 -3.9975 0 -3.9975 
C -1.060149 -3.9975 -2.077021 -3.576298 -2.826659 -2.826659 
C -3.576298 -2.077021 -3.9975 -1.060149 -3.9975 0 
C -3.9975 1.060149 -3.576298 2.077021 -2.826659 2.826659 
C -2.077021 3.576298 -1.060149 3.9975 0 3.9975 
z
" style="stroke: #595959"/>
    </defs>
    <g clip-path="url(#p4ef68d1709)"/>
   </g>
   <g id="patch_9">
    <path d="M 55.944 449.712 
L 55.944 283.31856 
" style="fill: none; stroke: #949494; stroke-width: 0.8; stroke-linejoin: miter; stroke-linecap: square"/>
   </g>
   <g id="patch_10">
    <path d="M 55.944 449.712 
L 375.624 449.712 
" style="fill: none; stroke: #949494; stroke-width: 0.8; stroke-linejoin: miter; stroke-linecap: square"/>
   </g>
   <g id="PI-missed-0">
    <defs>
     <path id="me40b7a809d" d="M 0 4 
C 1.060812 4 2.078319 3.578535 2.828427 2.828427 
C 3.578535 2.078319 4 1.060812 4 0 
C 4 -1.060812 3.578535 -2.078319 2.828427 -2.828427 
C 2.078319 -3.578535 1.060812 -4 0 -4 
C -1.060812 -4 -2.078319 -3.578535 -2.828427 -2.828427 
C -3.578535 -2.078319 -4 -1.060812 -4 0 
C -4 1.060812 -3.578535 2.078319 -2.828427 2.828427 
C -2.078319 3.578535 -1.060812 4 0 4 
z
" style="stroke: #595959; stroke-opacity: 0"/>
    </defs>
    <g>
     <use xlink:href="#me40b7a809d" x="141.40301" y="435.565189" style="fill-opacity: 0; stroke: #595959; stroke-opacity: 0"/>
     <use xlink:href="#me40b7a809d" x="160.393901" y="436.035827" style="fill-opacity: 0; stroke: #595959; stroke-opacity: 0"/>
     <use xlink:href="#me40b7a809d" x="211.036277" y="444.482875" style="fill-opacity: 0; stroke: #595959; stroke-opacity: 0"/>
     <use xlink:href="#me40b7a809d" x="264.843802" y="436.796242" style="fill-opacity: 0; stroke: #595959; stroke-opacity: 0"/>
     <use xlink:href="#me40b7a809d" x="280.669545" y="404.795156" style="fill-opacity: 0; stroke: #595959; stroke-opacity: 0"/>
     <use xlink:href="#me40b7a809d" x="309.155881" y="407.208598" style="fill-opacity: 0; stroke: #595959; stroke-opacity: 0"/>
     <use xlink:href="#me40b7a809d" x="312.32103" y="439.65599" style="fill-opacity: 0; stroke: #595959; stroke-opacity: 0"/>
     <use xlink:href="#me40b7a809d" x="318.651327" y="442.203513" style="fill-opacity: 0; stroke: #595959; stroke-opacity: 0"/>
     <use xlink:href="#me40b7a809d" x="321.816475" y="406.940439" style="fill-opacity: 0; stroke: #595959; stroke-opacity: 0"/>
     <use xlink:href="#me40b7a809d" x="356.633109" y="447.566718" style="fill-opacity: 0; stroke: #595959; stroke-opacity: 0"/>
    </g>
   </g>
   <g id="PI-missed-1">
    <defs>
     <path id="mb5dede000d" d="M 0 4.0025 
C 1.061475 4.0025 2.079618 3.580771 2.830195 2.830195 
C 3.580771 2.079618 4.0025 1.061475 4.0025 0 
C 4.0025 -1.061475 3.580771 -2.079618 2.830195 -2.830195 
C 2.079618 -3.580771 1.061475 -4.0025 0 -4.0025 
C -1.061475 -4.0025 -2.079618 -3.580771 -2.830195 -2.830195 
C -3.580771 -2.079618 -4.0025 -1.061475 -4.0025 0 
C -4.0025 1.061475 -3.580771 2.079618 -2.830195 2.830195 
C -2.079618 3.580771 -1.061475 4.0025 0 4.0025 
z
" style="stroke: #595959; stroke-opacity: 0"/>
    </defs>
    <g>
     <use xlink:href="#mb5dede000d" x="141.40301" y="435.565189" style="fill-opacity: 0; stroke: #595959; stroke-opacity: 0"/>
     <use xlink:href="#mb5dede000d" x="147.733307" y="409.487961" style="fill-opacity: 0; stroke: #595959; stroke-opacity: 0"/>
     <use xlink:href="#mb5dede000d" x="160.393901" y="436.035827" style="fill-opacity: 0; stroke: #595959; stroke-opacity: 0"/>
     <use xlink:href="#mb5dede000d" x="163.55905" y="443.544314" style="fill-opacity: 0; stroke: #595959; stroke-opacity: 0"/>
     <use xlink:href="#mb5dede000d" x="166.724198" y="449.57792" style="fill-opacity: 0; stroke: #595959; stroke-opacity: 0"/>
     <use xlink:href="#mb5dede000d" x="173.054495" y="447.298558" style="fill-opacity: 0; stroke: #595959; stroke-opacity: 0"/>
     <use xlink:href="#mb5dede000d" x="176.219644" y="449.041599" style="fill-opacity: 0; stroke: #595959; stroke-opacity: 0"/>
     <use xlink:href="#mb5dede000d" x="185.715089" y="442.471673" style="fill-opacity: 0; stroke: #595959; stroke-opacity: 0"/>
     <use xlink:href="#mb5dede000d" x="207.871129" y="441.264952" style="fill-opacity: 0; stroke: #595959; stroke-opacity: 0"/>
     <use xlink:href="#mb5dede000d" x="211.036277" y="444.482875" style="fill-opacity: 0; stroke: #595959; stroke-opacity: 0"/>
     <use xlink:href="#mb5dede000d" x="214.201426" y="448.505279" style="fill-opacity: 0; stroke: #595959; stroke-opacity: 0"/>
     <use xlink:href="#mb5dede000d" x="220.531723" y="448.505279" style="fill-opacity: 0; stroke: #595959; stroke-opacity: 0"/>
     <use xlink:href="#mb5dede000d" x="264.843802" y="436.796242" style="fill-opacity: 0; stroke: #595959; stroke-opacity: 0"/>
     <use xlink:href="#mb5dede000d" x="280.669545" y="404.795156" style="fill-opacity: 0; stroke: #595959; stroke-opacity: 0"/>
     <use xlink:href="#mb5dede000d" x="309.155881" y="407.208598" style="fill-opacity: 0; stroke: #595959; stroke-opacity: 0"/>
     <use xlink:href="#mb5dede000d" x="312.32103" y="439.65599" style="fill-opacity: 0; stroke: #595959; stroke-opacity: 0"/>
     <use xlink:href="#mb5dede000d" x="315.486178" y="413.376284" style="fill-opacity: 0; stroke: #595959; stroke-opacity: 0"/>
     <use xlink:href="#mb5dede000d" x="318.651327" y="442.203513" style="fill-opacity: 0; stroke: #595959; stroke-opacity: 0"/>
     <use xlink:href="#mb5dede000d" x="321.816475" y="406.940439" style="fill-opacity: 0; stroke: #595959; stroke-opacity: 0"/>
     <use xlink:href="#mb5dede000d" x="334.477069" y="424.236775" style="fill-opacity: 0; stroke: #595959; stroke-opacity: 0"/>
     <use xlink:href="#mb5dede000d" x="353.46796" y="431.074862" style="fill-opacity: 0; stroke: #595959; stroke-opacity: 0"/>
     <use xlink:href="#mb5dede000d" x="356.633109" y="447.566718" style="fill-opacity: 0; stroke: #595959; stroke-opacity: 0"/>
     <use xlink:href="#mb5dede000d" x="359.798257" y="449.30976" style="fill-opacity: 0; stroke: #595959; stroke-opacity: 0"/>
     <use xlink:href="#mb5dede000d" x="372.458851" y="416.594209" style="fill-opacity: 0; stroke: #595959; stroke-opacity: 0"/>
    </g>
   </g>
   <g id="PI-missed-2">
    <defs>
     <path id="mfbc64bef9f" d="M 0 4.005 
C 1.062138 4.005 2.080917 3.583008 2.831963 2.831963 
C 3.583008 2.080917 4.005 1.062138 4.005 0 
C 4.005 -1.062138 3.583008 -2.080917 2.831963 -2.831963 
C 2.080917 -3.583008 1.062138 -4.005 0 -4.005 
C -1.062138 -4.005 -2.080917 -3.583008 -2.831963 -2.831963 
C -3.583008 -2.080917 -4.005 -1.062138 -4.005 0 
C -4.005 1.062138 -3.583008 2.080917 -2.831963 2.831963 
C -2.080917 3.583008 -1.062138 4.005 0 4.005 
z
" style="stroke: #595959; stroke-opacity: 0"/>
    </defs>
    <g>
     <use xlink:href="#mfbc64bef9f" x="141.40301" y="435.565189" style="fill-opacity: 0; stroke: #595959; stroke-opacity: 0"/>
     <use xlink:href="#mfbc64bef9f" x="144.568158" y="437.778869" style="fill-opacity: 0; stroke: #595959; stroke-opacity: 0"/>
     <use xlink:href="#mfbc64bef9f" x="147.733307" y="409.487961" style="fill-opacity: 0; stroke: #595959; stroke-opacity: 0"/>
     <use xlink:href="#mfbc64bef9f" x="150.898455" y="410.694683" style="fill-opacity: 0; stroke: #595959; stroke-opacity: 0"/>
     <use xlink:href="#mfbc64bef9f" x="154.063604" y="412.705884" style="fill-opacity: 0; stroke: #595959; stroke-opacity: 0"/>
     <use xlink:href="#mfbc64bef9f" x="160.393901" y="436.035827" style="fill-opacity: 0; stroke: #595959; stroke-opacity: 0"/>
     <use xlink:href="#mfbc64bef9f" x="163.55905" y="443.544314" style="fill-opacity: 0; stroke: #595959; stroke-opacity: 0"/>
     <use xlink:href="#mfbc64bef9f" x="166.724198" y="449.57792" style="fill-opacity: 0; stroke: #595959; stroke-opacity: 0"/>
     <use xlink:href="#mfbc64bef9f" x="173.054495" y="447.298558" style="fill-opacity: 0; stroke: #595959; stroke-opacity: 0"/>
     <use xlink:href="#mfbc64bef9f" x="176.219644" y="449.041599" style="fill-opacity: 0; stroke: #595959; stroke-opacity: 0"/>
     <use xlink:href="#mfbc64bef9f" x="185.715089" y="442.471673" style="fill-opacity: 0; stroke: #595959; stroke-opacity: 0"/>
     <use xlink:href="#mfbc64bef9f" x="195.210535" y="446.494077" style="fill-opacity: 0; stroke: #595959; stroke-opacity: 0"/>
     <use xlink:href="#mfbc64bef9f" x="201.540832" y="429.33182" style="fill-opacity: 0; stroke: #595959; stroke-opacity: 0"/>
     <use xlink:href="#mfbc64bef9f" x="207.871129" y="441.264952" style="fill-opacity: 0; stroke: #595959; stroke-opacity: 0"/>
     <use xlink:href="#mfbc64bef9f" x="211.036277" y="444.482875" style="fill-opacity: 0; stroke: #595959; stroke-opacity: 0"/>
     <use xlink:href="#mfbc64bef9f" x="214.201426" y="448.505279" style="fill-opacity: 0; stroke: #595959; stroke-opacity: 0"/>
     <use xlink:href="#mfbc64bef9f" x="217.366574" y="440.862712" style="fill-opacity: 0; stroke: #595959; stroke-opacity: 0"/>
     <use xlink:href="#mfbc64bef9f" x="220.531723" y="448.505279" style="fill-opacity: 0; stroke: #595959; stroke-opacity: 0"/>
     <use xlink:href="#mfbc64bef9f" x="226.86202" y="445.957756" style="fill-opacity: 0; stroke: #595959; stroke-opacity: 0"/>
     <use xlink:href="#mfbc64bef9f" x="230.027168" y="446.762237" style="fill-opacity: 0; stroke: #595959; stroke-opacity: 0"/>
     <use xlink:href="#mfbc64bef9f" x="236.357465" y="445.019195" style="fill-opacity: 0; stroke: #595959; stroke-opacity: 0"/>
     <use xlink:href="#mfbc64bef9f" x="249.018059" y="446.359997" style="fill-opacity: 0; stroke: #595959; stroke-opacity: 0"/>
     <use xlink:href="#mfbc64bef9f" x="258.513505" y="432.092199" style="fill-opacity: 0; stroke: #595959; stroke-opacity: 0"/>
     <use xlink:href="#mfbc64bef9f" x="261.678653" y="423.056072" style="fill-opacity: 0; stroke: #595959; stroke-opacity: 0"/>
     <use xlink:href="#mfbc64bef9f" x="264.843802" y="436.796242" style="fill-opacity: 0; stroke: #595959; stroke-opacity: 0"/>
     <use xlink:href="#mfbc64bef9f" x="280.669545" y="404.795156" style="fill-opacity: 0; stroke: #595959; stroke-opacity: 0"/>
     <use xlink:href="#mfbc64bef9f" x="290.16499" y="425.577577" style="fill-opacity: 0; stroke: #595959; stroke-opacity: 0"/>
     <use xlink:href="#mfbc64bef9f" x="309.155881" y="407.208598" style="fill-opacity: 0; stroke: #595959; stroke-opacity: 0"/>
     <use xlink:href="#mfbc64bef9f" x="312.32103" y="439.65599" style="fill-opacity: 0; stroke: #595959; stroke-opacity: 0"/>
     <use xlink:href="#mfbc64bef9f" x="315.486178" y="413.376284" style="fill-opacity: 0; stroke: #595959; stroke-opacity: 0"/>
     <use xlink:href="#mfbc64bef9f" x="318.651327" y="442.203513" style="fill-opacity: 0; stroke: #595959; stroke-opacity: 0"/>
     <use xlink:href="#mfbc64bef9f" x="321.816475" y="406.940439" style="fill-opacity: 0; stroke: #595959; stroke-opacity: 0"/>
     <use xlink:href="#mfbc64bef9f" x="334.477069" y="424.236775" style="fill-opacity: 0; stroke: #595959; stroke-opacity: 0"/>
     <use xlink:href="#mfbc64bef9f" x="353.46796" y="431.074862" style="fill-opacity: 0; stroke: #595959; stroke-opacity: 0"/>
     <use xlink:href="#mfbc64bef9f" x="356.633109" y="447.566718" style="fill-opacity: 0; stroke: #595959; stroke-opacity: 0"/>
     <use xlink:href="#mfbc64bef9f" x="359.798257" y="449.30976" style="fill-opacity: 0; stroke: #595959; stroke-opacity: 0"/>
     <use xlink:href="#mfbc64bef9f" x="366.128554" y="435.633587" style="fill-opacity: 0; stroke: #595959; stroke-opacity: 0"/>
     <use xlink:href="#mfbc64bef9f" x="372.458851" y="416.594209" style="fill-opacity: 0; stroke: #595959; stroke-opacity: 0"/>
    </g>
   </g>
   <g id="text_17">
    <text style="font-weight: 800; font-size: 20px; font-family: 'Source Sans 3', sans-serif; text-anchor: start" x="55.944" y="277.31856" transform="rotate(-0 55.944 277.31856)">Streamflow percentile</text>
   </g>
   <g id="legend-pi">
    <g id="patch_11">
     <path d="M 67.144 319.22356 
L 392.164 319.22356 
Q 395.364 319.22356 395.364 316.02356 
L 395.364 294.51856 
Q 395.364 291.31856 392.164 291.31856 
L 67.144 291.31856 
Q 63.944 291.31856 63.944 294.51856 
L 63.944 316.02356 
Q 63.944 319.22356 67.144 319.22356 
L 67.144 319.22356 
z
" style="fill: none; opacity: 0.8"/>
    </g>
    <g id="line2d_21">
     <path d="M 70.344 303.67106 
L 86.344 303.67106 
L 102.344 303.67106 
" style="fill: none; stroke-dasharray: 1,1.65; stroke-dashoffset: 0; stroke: #883e3a"/>
    </g>
    <g id="text_18">
     <text style="font-weight: 300; font-size: 16px; font-family: 'Source Sans 3', sans-serif; text-anchor: start; fill: #494949" x="115.144" y="309.27106" transform="rotate(-0 115.144 309.27106)">Observations</text>
    </g>
    <g id="line2d_22">
     <g>
      <use xlink:href="#m8f710aeffb" x="247.3015" y="303.67106" style="fill-opacity: 0; stroke: #595959"/>
     </g>
    </g>
    <g id="text_19">
     <text style="font-weight: 300; font-size: 16px; font-family: 'Source Sans 3', sans-serif; text-anchor: start; fill: #494949" x="276.1015" y="309.27106" transform="rotate(-0 276.1015 309.27106)">Missed Prediction</text>
    </g>
   </g>
   <g id="legend-pi">
    <g id="patch_12">
     <path d="M 67.144 319.22356 
L 392.164 319.22356 
Q 395.364 319.22356 395.364 316.02356 
L 395.364 294.51856 
Q 395.364 291.31856 392.164 291.31856 
L 67.144 291.31856 
Q 63.944 291.31856 63.944 294.51856 
L 63.944 316.02356 
Q 63.944 319.22356 67.144 319.22356 
L 67.144 319.22356 
z
" style="fill: none; opacity: 0.8"/>
    </g>
    <g id="line2d_23">
     <path d="M 70.344 303.67106 
L 86.344 303.67106 
L 102.344 303.67106 
" style="fill: none; stroke-dasharray: 1,1.65; stroke-dashoffset: 0; stroke: #883e3a"/>
    </g>
    <g id="text_20">
     <text style="font-weight: 300; font-size: 16px; font-family: 'Source Sans 3', sans-serif; text-anchor: start; fill: #494949" x="115.144" y="309.27106" transform="rotate(-0 115.144 309.27106)">Observations</text>
    </g>
    <g id="line2d_24">
     <g>
      <use xlink:href="#m8f710aeffb" x="247.3015" y="303.67106" style="fill-opacity: 0; stroke: #595959"/>
     </g>
    </g>
    <g id="text_21">
     <text style="font-weight: 300; font-size: 16px; font-family: 'Source Sans 3', sans-serif; text-anchor: start; fill: #494949" x="276.1015" y="309.27106" transform="rotate(-0 276.1015 309.27106)">Missed Prediction</text>
    </g>
   </g>
  </g>
 </g>
 <defs>
  <clipPath id="p65f78bd6cc">
   <rect x="55.944" y="33.47856" width="319.68" height="166.39344"/>
  </clipPath>
  <clipPath id="p4ef68d1709">
   <rect x="55.944" y="283.31856" width="319.68" height="166.39344"/>
  </clipPath>
 </defs>
</svg>
