<?xml version="1.0" encoding="utf-8" standalone="no"?>
<!DOCTYPE svg PUBLIC "-//W3C//DTD SVG 1.1//EN"
  "http://www.w3.org/Graphics/SVG/1.1/DTD/svg11.dtd">
<svg xmlns:xlink="http://www.w3.org/1999/xlink" width="699.84px" height="699.84px" viewBox="0 0 699.84 699.84" xmlns="http://www.w3.org/2000/svg" version="1.1">
  <defs>
  <style type="text/css">*{stroke-linejoin: round; stroke-linecap: butt}</style>
 </defs>
 <g id="figure-predictioninterval">
  <g id="patch_1">
   <path d="M 0 699.84 
L 699.84 699.84 
L 699.84 0 
L 0 0 
z
" style="fill: #ffffff"/>
  </g>
  <g id="axis-predictioninterval1">
   <g id="patch_2">
    <path d="M 87.48 297.432 
L 664.848 297.432 
L 664.848 34.992 
L 87.48 34.992 
z
" style="fill: #ffffff"/>
   </g>
   <g id="LF-LOWER-MEDIAN">
    <path d="M 87.48 166.212 
L 376.164 297.432 
L 664.848 166.212 
" clip-path="url(#p99c6277df9)" style="fill: none; stroke: #00264c; stroke-opacity: 0; stroke-width: 1.5; stroke-linecap: square"/>
   </g>
   <g id="matplotlib.axis_1">
    <g id="xtick_1">
     <g id="line2d_1">
      <defs>
       <path id="m0b7b1f6033" d="M 0 0 
L 0 3.5 
" style="stroke: #949494; stroke-width: 0.8"/>
      </defs>
      <g>
       <use xlink:href="#m0b7b1f6033" x="87.48" y="297.432" style="fill: #949494; stroke: #949494; stroke-width: 0.8"/>
      </g>
     </g>
     <g id="text_1">
      <text style="font-weight: 300; font-size: 16px; font-family: 'Source Sans 3', sans-serif; text-anchor: middle; fill: #494949" x="87.48" y="315.9845" transform="rotate(-0 87.48 315.9845)">Lower</text>
     </g>
    </g>
    <g id="xtick_2">
     <g id="line2d_2">
      <g>
       <use xlink:href="#m0b7b1f6033" x="376.164" y="297.432" style="fill: #949494; stroke: #949494; stroke-width: 0.8"/>
      </g>
     </g>
     <g id="text_2">
      <text style="font-weight: 300; font-size: 16px; font-family: 'Source Sans 3', sans-serif; text-anchor: middle; fill: #494949" x="376.164" y="315.9845" transform="rotate(-0 376.164 315.9845)">Median</text>
     </g>
    </g>
    <g id="xtick_3">
     <g id="line2d_3">
      <g>
       <use xlink:href="#m0b7b1f6033" x="664.848" y="297.432" style="fill: #949494; stroke: #949494; stroke-width: 0.8"/>
      </g>
     </g>
     <g id="text_3">
      <text style="font-weight: 300; font-size: 16px; font-family: 'Source Sans 3', sans-serif; text-anchor: middle; fill: #494949" x="664.848" y="315.9845" transform="rotate(-0 664.848 315.9845)">Upper</text>
     </g>
    </g>
    <g id="text_4">
     <text style="font-weight: 600; font-size: 16px; font-family: 'Source Sans 3', sans-serif; text-anchor: middle; fill: #494949" x="376.164" y="335.0895" transform="rotate(-0 376.164 335.0895)">Estimate</text>
    </g>
   </g>
   <g id="matplotlib.axis_2">
    <g id="ytick_1">
     <g id="line2d_4">
      <defs>
       <path id="mf462da89bd" d="M 0 0 
L -3.5 0 
" style="stroke: #949494; stroke-width: 0.8"/>
      </defs>
      <g>
       <use xlink:href="#mf462da89bd" x="87.48" y="297.432" style="fill: #949494; stroke: #949494; stroke-width: 0.8"/>
      </g>
     </g>
     <g id="text_5">
      <text style="font-weight: 300; font-size: 16px; font-family: 'Source Sans 3', sans-serif; fill: #494949" transform="translate(52.6725 286.948)">Less</text>
      <text style="font-weight: 300; font-size: 16px; font-family: 'Source Sans 3', sans-serif; fill: #494949" transform="translate(32.6725 304.3635)">Penalty</text>
      <text style="font-weight: 300; font-size: 16px; font-family: 'Source Sans 3', sans-serif; fill: #494949" transform="translate(80.48 321.779)"/>
     </g>
    </g>
    <g id="ytick_2">
     <g id="line2d_5">
      <g>
       <use xlink:href="#mf462da89bd" x="87.48" y="166.212" style="fill: #949494; stroke: #949494; stroke-width: 0.8"/>
      </g>
     </g>
    </g>
    <g id="ytick_3">
     <g id="line2d_6">
      <g>
       <use xlink:href="#mf462da89bd" x="87.48" y="34.992" style="fill: #949494; stroke: #949494; stroke-width: 0.8"/>
      </g>
     </g>
     <g id="text_6">
      <text style="font-weight: 300; font-size: 16px; font-family: 'Source Sans 3', sans-serif; fill: #494949" transform="translate(48.2575 33.21575)">More</text>
      <text style="font-weight: 300; font-size: 16px; font-family: 'Source Sans 3', sans-serif; fill: #494949" transform="translate(32.6725 50.63125)">Penalty</text>
     </g>
    </g>
   </g>
   <g id="LF-LOWER-0">
    <path d="M 87.48 284.31 
L 376.164 297.432 
L 664.848 48.114 
" clip-path="url(#p99c6277df9)" style="fill: none; stroke: #b78935; stroke-opacity: 0; stroke-width: 1.5; stroke-linecap: square"/>
   </g>
   <g id="LF-UPPER-0">
    <path d="M 87.48 48.114 
L 376.164 297.432 
L 664.848 284.31 
" clip-path="url(#p99c6277df9)" style="fill: none; stroke: #406992; stroke-opacity: 0; stroke-width: 1.5; stroke-linecap: square"/>
   </g>
   <g id="LF-LOWER-1">
    <path d="M 87.48 264.627 
L 376.164 297.432 
L 664.848 67.797 
" clip-path="url(#p99c6277df9)" style="fill: none; stroke: #b78935; stroke-opacity: 0; stroke-width: 1.5; stroke-linecap: square"/>
   </g>
   <g id="LF-UPPER-1">
    <path d="M 87.48 67.797 
L 376.164 297.432 
L 664.848 264.627 
" clip-path="url(#p99c6277df9)" style="fill: none; stroke: #406992; stroke-opacity: 0; stroke-width: 1.5; stroke-linecap: square"/>
   </g>
   <g id="LF-LOWER-2">
    <path d="M 87.48 231.822 
L 376.164 297.432 
L 664.848 100.602 
" clip-path="url(#p99c6277df9)" style="fill: none; stroke: #b78935; stroke-opacity: 0; stroke-width: 1.5; stroke-linecap: square"/>
   </g>
   <g id="LF-UPPER-2">
    <path d="M 87.48 100.602 
L 376.164 297.432 
L 664.848 231.822 
" clip-path="url(#p99c6277df9)" style="fill: none; stroke: #406992; stroke-opacity: 0; stroke-width: 1.5; stroke-linecap: square"/>
   </g>
   <g id="patch_3">
    <path d="M 87.48 297.432 
L 87.48 34.992 
" style="fill: none; stroke: #949494; stroke-width: 0.8; stroke-linejoin: miter; stroke-linecap: square"/>
   </g>
   <g id="patch_4">
    <path d="M 87.48 297.432 
L 664.848 297.432 
" style="fill: none; stroke: #949494; stroke-width: 0.8; stroke-linejoin: miter; stroke-linecap: square"/>
   </g>
   <g id="text_7">
    <text style="font-weight: 800; font-size: 20px; font-family: 'Source Sans 3', sans-serif; text-anchor: start" x="87.48" y="28.992" transform="rotate(-0 87.48 28.992)">Loss function</text>
   </g>
  </g>
  <g id="axis-predictioninterval2">
   <g id="patch_5">
    <path d="M 87.48 647.352 
L 664.848 647.352 
L 664.848 384.912 
L 87.48 384.912 
z
" style="fill: #ffffff"/>
   </g>
   <g id="PI-PATCH-0">
    <path d="M 87.48 532.323011 
L 87.48 594.133846 
L 93.196515 584.078876 
L 98.91303 582.552199 
L 104.629545 594.744921 
L 110.346059 583.839611 
L 116.062574 594.533252 
L 121.779089 603.104119 
L 127.495604 581.544873 
L 133.212119 571.275365 
L 138.928634 580.081137 
L 144.645149 582.193199 
L 150.361663 585.887471 
L 156.078178 583.597668 
L 161.794693 574.324854 
L 167.511208 566.859394 
L 173.227723 575.143973 
L 178.944238 583.277777 
L 184.660752 579.90644 
L 190.377267 573.214282 
L 196.093782 577.490745 
L 201.810297 568.824065 
L 207.526812 578.041481 
L 213.243327 592.489202 
L 218.959842 602.290706 
L 224.676356 613.666049 
L 230.392871 585.558204 
L 236.109386 593.483258 
L 241.825901 625.360764 
L 247.542416 627.801707 
L 253.258931 627.831667 
L 258.975446 617.958693 
L 264.69196 626.527262 
L 270.408475 603.989102 
L 276.12499 608.073421 
L 281.841505 631.180129 
L 287.55802 647.352 
L 293.274535 647.352 
L 298.99105 645.749073 
L 304.707564 645.274499 
L 310.424079 647.352 
L 316.140594 632.090612 
L 321.857109 637.551574 
L 327.573624 647.352 
L 333.290139 641.820509 
L 339.006653 642.73619 
L 344.723168 646.641815 
L 350.439683 643.543571 
L 356.156198 635.637146 
L 361.872713 637.604673 
L 367.589228 638.67394 
L 373.305743 644.431398 
L 379.022257 647.352 
L 384.738772 644.063264 
L 390.455287 644.787813 
L 396.171802 641.995985 
L 401.888317 646.60681 
L 407.604832 639.147672 
L 413.321347 646.796071 
L 419.037861 643.988925 
L 424.754376 638.361718 
L 430.470891 643.877206 
L 436.187406 643.527945 
L 441.903921 647.352 
L 447.620436 647.352 
L 453.33695 647.352 
L 459.053465 627.708532 
L 464.76998 628.210011 
L 470.486495 647.352 
L 476.20301 647.352 
L 481.919525 647.0701 
L 487.63604 647.352 
L 493.352554 637.240174 
L 499.069069 602.406737 
L 504.785584 607.759802 
L 510.502099 614.962581 
L 516.218614 635.681714 
L 521.935129 647.352 
L 527.651644 626.579118 
L 533.368158 593.292382 
L 539.084673 583.011717 
L 544.801188 641.57926 
L 550.517703 624.871239 
L 556.234218 636.885561 
L 561.950733 621.596799 
L 567.667248 632.686427 
L 573.383762 591.22007 
L 579.100277 607.182554 
L 584.816792 578.452915 
L 590.533307 609.594462 
L 596.249822 608.793756 
L 601.966337 583.808531 
L 607.682851 588.665869 
L 613.399366 611.316294 
L 619.115881 621.910805 
L 624.832396 620.376928 
L 630.548911 636.016275 
L 636.265426 647.352 
L 641.981941 647.352 
L 647.698455 647.352 
L 653.41497 641.264579 
L 659.131485 639.74165 
L 664.848 616.476566 
L 670.564515 630.863458 
L 676.28103 644.269027 
L 681.997545 642.172783 
L 5455.287446 618.775194 
L 5461.00396 610.800199 
L 5466.720475 618.778851 
L 5472.43699 616.845292 
L 5478.153505 611.023518 
L 5483.87002 590.616569 
L 5489.586535 597.421064 
L 5495.30305 577.694445 
L 5501.019564 582.38956 
L 5506.736079 597.907923 
L 5512.452594 572.35258 
L 5518.169109 572.320944 
L 5523.885624 587.541837 
L 5529.602139 582.955529 
L 5535.318653 572.703626 
L 5541.035168 574.714864 
L 5546.751683 577.883188 
L 5552.468198 576.907182 
L 5558.184713 579.149191 
L 5563.901228 576.475585 
L 5569.617743 579.31308 
L 5575.334257 586.056636 
L 5581.050772 584.262793 
L 5586.767287 588.602413 
L 5592.483802 596.540145 
L 5598.200317 607.246511 
L 5603.916832 579.943692 
L 5609.633347 575.620035 
L 5615.349861 586.344486 
L 5621.066376 584.315483 
L 5626.782891 586.321535 
L 5632.499406 611.883261 
L 5638.215921 572.858521 
L 5643.932436 596.296856 
L 5649.64895 600.668101 
L 5655.365465 577.270306 
L 5661.08198 580.810199 
L 5666.798495 571.802815 
L 5672.51501 585.6916 
L 5678.231525 571.325206 
L 5683.94804 572.02472 
L 5689.664554 572.072023 
L 5695.381069 575.281964 
L 5701.097584 574.599469 
L 5706.814099 576.613691 
L 5712.530614 578.831888 
L 5718.247129 576.787732 
L 5723.963644 581.952703 
L 5729.680158 581.975563 
L 5735.396673 571.83385 
L 5741.113188 601.606845 
L 5746.829703 583.26282 
L 5752.546218 582.125317 
L 5758.262733 584.066577 
L 5763.979248 580.653137 
L 5769.695762 580.272798 
L 5775.412277 580.109329 
L 5781.128792 583.709119 
L 5786.845307 573.244471 
L 5792.561822 576.517027 
L 5798.278337 584.495185 
L 5803.994851 615.717388 
L 5809.711366 582.001658 
L 5815.427881 594.364226 
L 5821.144396 618.35907 
L 5826.860911 596.65531 
L 5832.577426 569.383491 
L 5838.293941 589.432684 
L 5844.010455 591.734981 
L 5849.72697 579.380937 
L 5855.443485 581.214145 
L 5861.16 621.5292 
L 5866.876515 616.918437 
L 5872.59303 624.050942 
L 5878.309545 610.965215 
L 5884.026059 595.951642 
L 5889.742574 577.240408 
L 5895.459089 582.541767 
L 5901.175604 589.174973 
L 5901.175604 521.467278 
L 5901.175604 521.467278 
L 5895.459089 512.923321 
L 5889.742574 506.141892 
L 5884.026059 523.747429 
L 5878.309545 534.033871 
L 5872.59303 543.296308 
L 5866.876515 534.13906 
L 5861.16 542.382908 
L 5855.443485 512.695003 
L 5849.72697 510.393888 
L 5844.010455 518.591784 
L 5838.293941 520.468161 
L 5832.577426 486.577666 
L 5826.860911 523.493393 
L 5821.144396 536.49789 
L 5815.427881 518.96949 
L 5809.711366 506.861824 
L 5803.994851 537.079516 
L 5798.278337 514.237483 
L 5792.561822 505.960868 
L 5786.845307 503.043077 
L 5781.128792 513.563323 
L 5775.412277 508.997363 
L 5769.695762 509.432444 
L 5763.979248 508.689796 
L 5758.262733 508.97668 
L 5752.546218 507.372 
L 5746.829703 508.909974 
L 5741.113188 528.084281 
L 5735.396673 499.156664 
L 5729.680158 514.097585 
L 5723.963644 516.684964 
L 5718.247129 510.124945 
L 5712.530614 511.13161 
L 5706.814099 509.125437 
L 5701.097584 507.46992 
L 5695.381069 508.205089 
L 5689.664554 501.677037 
L 5683.94804 501.725812 
L 5678.231525 504.124617 
L 5672.51501 514.709836 
L 5666.798495 497.260485 
L 5661.08198 506.748416 
L 5655.365465 509.16305 
L 5649.64895 526.343227 
L 5643.932436 520.050009 
L 5638.215921 501.657114 
L 5632.499406 534.376037 
L 5626.782891 518.205399 
L 5621.066376 515.396561 
L 5615.349861 511.570295 
L 5609.633347 504.586498 
L 5603.916832 509.640488 
L 5598.200317 533.386101 
L 5592.483802 526.625806 
L 5586.767287 524.054916 
L 5581.050772 519.34197 
L 5575.334257 523.434907 
L 5569.617743 514.3411 
L 5563.901228 512.902778 
L 5558.184713 515.589228 
L 5552.468198 509.693238 
L 5546.751683 510.97149 
L 5541.035168 508.354348 
L 5535.318653 503.63073 
L 5529.602139 512.099282 
L 5523.885624 515.313827 
L 5518.169109 504.46396 
L 5512.452594 502.492957 
L 5506.736079 524.203053 
L 5501.019564 512.853412 
L 5495.30305 506.963799 
L 5489.586535 525.763393 
L 5483.87002 515.509518 
L 5478.153505 544.586423 
L 5472.43699 550.726048 
L 5466.720475 554.777147 
L 5461.00396 534.895973 
L 5455.287446 540.998957 
L 681.997545 593.714138 
L 676.28103 593.925451 
L 670.564515 559.837474 
L 664.848 533.086873 
L 659.131485 574.182964 
L 653.41497 591.656047 
L 647.698455 610.255592 
L 641.981941 611.418236 
L 636.265426 593.945254 
L 630.548911 579.9905 
L 624.832396 563.81892 
L 619.115881 563.337522 
L 613.399366 551.519353 
L 607.682851 525.794628 
L 601.966337 520.66226 
L 596.249822 540.408831 
L 590.533307 536.89647 
L 584.816792 505.258596 
L 579.100277 530.973089 
L 573.383762 514.697362 
L 567.667248 545.281227 
L 561.950733 541.725036 
L 556.234218 549.496111 
L 550.517703 547.097395 
L 544.801188 564.527359 
L 539.084673 511.427614 
L 533.368158 527.362747 
L 527.651644 543.154668 
L 521.935129 567.832342 
L 516.218614 559.484116 
L 510.502099 544.405629 
L 504.785584 541.239408 
L 499.069069 538.1023 
L 493.352554 581.999881 
L 487.63604 590.055932 
L 481.919525 571.824679 
L 476.20301 574.545398 
L 470.486495 597.901105 
L 464.76998 567.752176 
L 459.053465 556.895837 
L 453.33695 600.852079 
L 447.620436 575.561224 
L 441.903921 587.253461 
L 436.187406 560.719049 
L 430.470891 564.627352 
L 424.754376 576.68811 
L 419.037861 596.313785 
L 413.321347 595.048848 
L 407.604832 571.343967 
L 401.888317 595.877253 
L 396.171802 586.994079 
L 390.455287 592.057019 
L 384.738772 600.565971 
L 379.022257 605.371018 
L 373.305743 579.651702 
L 367.589228 575.342062 
L 361.872713 588.280334 
L 356.156198 589.109319 
L 350.439683 595.535893 
L 344.723168 595.650172 
L 339.006653 597.318238 
L 333.290139 600.629938 
L 327.573624 607.494773 
L 321.857109 585.697807 
L 316.140594 562.755816 
L 310.424079 611.812458 
L 304.707564 607.991511 
L 298.99105 606.864062 
L 293.274535 598.371061 
L 287.55802 600.070262 
L 281.841505 545.524241 
L 276.12499 540.720613 
L 270.408475 528.617082 
L 264.69196 558.070111 
L 258.975446 544.068119 
L 253.258931 543.287298 
L 247.542416 544.181596 
L 241.825901 550.44391 
L 236.109386 517.54173 
L 230.392871 506.134864 
L 224.676356 541.190993 
L 218.959842 532.92471 
L 213.243327 524.725643 
L 207.526812 513.93311 
L 201.810297 505.364916 
L 196.093782 512.848907 
L 190.377267 509.121934 
L 184.660752 514.070925 
L 178.944238 514.965344 
L 173.227723 508.243262 
L 167.511208 501.115583 
L 161.794693 505.620364 
L 156.078178 513.018268 
L 150.361663 513.463771 
L 144.645149 512.914261 
L 138.928634 509.780957 
L 133.212119 501.727644 
L 127.495604 513.077805 
L 121.779089 531.031895 
L 116.062574 521.273339 
L 110.346059 508.854071 
L 104.629545 515.881808 
L 98.91303 503.915471 
L 93.196515 510.347666 
L 87.48 532.323011 
z
" clip-path="url(#p0cbc5394bb)" style="fill: #e6e6e6; fill-opacity: 0.00001"/>
   </g>
   <g id="PI-PATCH-LOWER-0">
    <path d="M 87.48 594.133846 
L 93.196515 584.078876 
L 98.91303 582.552199 
L 104.629545 594.744921 
L 110.346059 583.839611 
L 116.062574 594.533252 
L 121.779089 603.104119 
L 127.495604 581.544873 
L 133.212119 571.275365 
L 138.928634 580.081137 
L 144.645149 582.193199 
L 150.361663 585.887471 
L 156.078178 583.597668 
L 161.794693 574.324854 
L 167.511208 566.859394 
L 178.944238 583.277777 
L 184.660752 579.90644 
L 190.377267 573.214282 
L 196.093782 577.490745 
L 201.810297 568.824065 
L 207.526812 578.041481 
L 213.243327 592.489202 
L 218.959842 602.290706 
L 224.676356 613.666049 
L 230.392871 585.558204 
L 236.109386 593.483258 
L 241.825901 625.360764 
L 247.542416 627.801707 
L 253.258931 627.831667 
L 258.975446 617.958693 
L 264.69196 626.527262 
L 270.408475 603.989102 
L 276.12499 608.073421 
L 281.841505 631.180129 
L 287.55802 647.352 
L 293.274535 647.352 
L 298.99105 645.749073 
L 304.707564 645.274499 
L 310.424079 647.352 
L 316.140594 632.090612 
L 321.857109 637.551574 
L 327.573624 647.352 
L 333.290139 641.820509 
L 339.006653 642.73619 
L 344.723168 646.641815 
L 350.439683 643.543571 
L 356.156198 635.637146 
L 361.872713 637.604673 
L 367.589228 638.67394 
L 373.305743 644.431398 
L 379.022257 647.352 
L 384.738772 644.063264 
L 390.455287 644.787813 
L 396.171802 641.995985 
L 401.888317 646.60681 
L 407.604832 639.147672 
L 413.321347 646.796071 
L 419.037861 643.988925 
L 424.754376 638.361718 
L 430.470891 643.877206 
L 436.187406 643.527945 
L 441.903921 647.352 
L 453.33695 647.352 
L 459.053465 627.708532 
L 464.76998 628.210011 
L 470.486495 647.352 
L 476.20301 647.352 
L 481.919525 647.0701 
L 487.63604 647.352 
L 493.352554 637.240174 
L 499.069069 602.406737 
L 504.785584 607.759802 
L 510.502099 614.962581 
L 516.218614 635.681714 
L 521.935129 647.352 
L 527.651644 626.579118 
L 533.368158 593.292382 
L 539.084673 583.011717 
L 544.801188 641.57926 
L 550.517703 624.871239 
L 556.234218 636.885561 
L 561.950733 621.596799 
L 567.667248 632.686427 
L 573.383762 591.22007 
L 579.100277 607.182554 
L 584.816792 578.452915 
L 590.533307 609.594462 
L 596.249822 608.793756 
L 601.966337 583.808531 
L 607.682851 588.665869 
L 613.399366 611.316294 
L 619.115881 621.910805 
L 624.832396 620.376928 
L 630.548911 636.016275 
L 636.265426 647.352 
L 647.698455 647.352 
L 653.41497 641.264579 
L 659.131485 639.74165 
L 664.848 616.476566 
L 670.564515 630.863458 
L 676.28103 644.269027 
L 681.997545 642.172783 
L 700.84 642.080422 
L 700.84 642.080422 
" clip-path="url(#p0cbc5394bb)" style="fill: none; stroke: #b78935; stroke-opacity: 0; stroke-width: 1.5; stroke-linecap: square"/>
   </g>
   <g id="PI-PATCH-UPPER-0">
    <path d="M 87.48 532.323011 
L 93.196515 510.347666 
L 98.91303 503.915471 
L 104.629545 515.881808 
L 110.346059 508.854071 
L 116.062574 521.273339 
L 121.779089 531.031895 
L 127.495604 513.077805 
L 133.212119 501.727644 
L 138.928634 509.780957 
L 144.645149 512.914261 
L 150.361663 513.463771 
L 156.078178 513.018268 
L 161.794693 505.620364 
L 167.511208 501.115583 
L 173.227723 508.243262 
L 178.944238 514.965344 
L 184.660752 514.070925 
L 190.377267 509.121934 
L 196.093782 512.848907 
L 201.810297 505.364916 
L 207.526812 513.93311 
L 213.243327 524.725643 
L 224.676356 541.190993 
L 230.392871 506.134864 
L 236.109386 517.54173 
L 241.825901 550.44391 
L 247.542416 544.181596 
L 253.258931 543.287298 
L 258.975446 544.068119 
L 264.69196 558.070111 
L 270.408475 528.617082 
L 276.12499 540.720613 
L 281.841505 545.524241 
L 287.55802 600.070262 
L 293.274535 598.371061 
L 298.99105 606.864062 
L 304.707564 607.991511 
L 310.424079 611.812458 
L 316.140594 562.755816 
L 321.857109 585.697807 
L 327.573624 607.494773 
L 333.290139 600.629938 
L 339.006653 597.318238 
L 344.723168 595.650172 
L 350.439683 595.535893 
L 356.156198 589.109319 
L 361.872713 588.280334 
L 367.589228 575.342062 
L 373.305743 579.651702 
L 379.022257 605.371018 
L 384.738772 600.565971 
L 390.455287 592.057019 
L 396.171802 586.994079 
L 401.888317 595.877253 
L 407.604832 571.343967 
L 413.321347 595.048848 
L 419.037861 596.313785 
L 424.754376 576.68811 
L 430.470891 564.627352 
L 436.187406 560.719049 
L 441.903921 587.253461 
L 447.620436 575.561224 
L 453.33695 600.852079 
L 459.053465 556.895837 
L 464.76998 567.752176 
L 470.486495 597.901105 
L 476.20301 574.545398 
L 481.919525 571.824679 
L 487.63604 590.055932 
L 493.352554 581.999881 
L 499.069069 538.1023 
L 510.502099 544.405629 
L 516.218614 559.484116 
L 521.935129 567.832342 
L 527.651644 543.154668 
L 539.084673 511.427614 
L 544.801188 564.527359 
L 550.517703 547.097395 
L 556.234218 549.496111 
L 561.950733 541.725036 
L 567.667248 545.281227 
L 573.383762 514.697362 
L 579.100277 530.973089 
L 584.816792 505.258596 
L 590.533307 536.89647 
L 596.249822 540.408831 
L 601.966337 520.66226 
L 607.682851 525.794628 
L 613.399366 551.519353 
L 619.115881 563.337522 
L 624.832396 563.81892 
L 630.548911 579.9905 
L 636.265426 593.945254 
L 641.981941 611.418236 
L 647.698455 610.255592 
L 653.41497 591.656047 
L 659.131485 574.182964 
L 664.848 533.086873 
L 670.564515 559.837474 
L 676.28103 593.925451 
L 681.997545 593.714138 
L 700.84 593.506046 
L 700.84 593.506046 
" clip-path="url(#p0cbc5394bb)" style="fill: none; stroke: #406992; stroke-opacity: 0; stroke-width: 1.5; stroke-linecap: square"/>
   </g>
   <g id="PI-PATCH-1">
    <path d="M 87.48 541.429733 
L 87.48 576.536494 
L 93.196515 556.255635 
L 98.91303 550.206322 
L 104.629545 567.731758 
L 110.346059 554.036221 
L 116.062574 572.86705 
L 121.779089 588.328829 
L 127.495604 564.261534 
L 133.212119 550.565317 
L 138.928634 560.577049 
L 144.645149 564.410047 
L 150.361663 569.19652 
L 156.078178 565.88067 
L 161.794693 563.015959 
L 167.511208 551.613819 
L 173.227723 557.671411 
L 178.944238 573.304689 
L 184.660752 566.921079 
L 190.377267 559.325637 
L 196.093782 564.644826 
L 201.810297 550.929527 
L 207.526812 563.138828 
L 213.243327 586.13985 
L 218.959842 597.528595 
L 224.676356 607.44989 
L 230.392871 569.120324 
L 236.109386 577.269706 
L 241.825901 622.895844 
L 247.542416 617.062742 
L 253.258931 611.553404 
L 258.975446 616.797578 
L 264.69196 623.814065 
L 270.408475 596.080147 
L 276.12499 606.971711 
L 281.841505 614.220319 
L 287.55802 647.352 
L 293.274535 647.352 
L 298.99105 645.722734 
L 304.707564 642.623556 
L 310.424079 647.352 
L 316.140594 632.118717 
L 321.857109 629.3411 
L 327.573624 647.352 
L 333.290139 640.119907 
L 339.006653 637.030751 
L 344.723168 641.96099 
L 350.439683 634.76489 
L 356.156198 625.610158 
L 361.872713 632.124157 
L 367.589228 636.493617 
L 373.305743 644.127763 
L 379.022257 647.352 
L 384.738772 638.848836 
L 390.455287 640.981653 
L 396.171802 644.170431 
L 401.888317 646.941898 
L 407.604832 640.389826 
L 413.321347 645.598333 
L 419.037861 647.352 
L 424.754376 642.143183 
L 430.470891 641.345219 
L 436.187406 643.482983 
L 441.903921 647.352 
L 447.620436 645.436505 
L 453.33695 647.352 
L 459.053465 623.645757 
L 464.76998 625.688536 
L 470.486495 647.352 
L 476.20301 645.207603 
L 481.919525 642.510326 
L 487.63604 647.352 
L 493.352554 637.210323 
L 499.069069 599.974504 
L 504.785584 605.935783 
L 510.502099 608.223273 
L 516.218614 633.379596 
L 521.935129 646.863646 
L 527.651644 621.378292 
L 533.368158 587.390641 
L 539.084673 563.381807 
L 544.801188 620.05721 
L 550.517703 639.365808 
L 556.234218 635.237534 
L 561.950733 621.87959 
L 567.667248 622.06101 
L 573.383762 586.458154 
L 579.100277 610.716007 
L 584.816792 576.328885 
L 590.533307 609.330679 
L 596.249822 599.696225 
L 601.966337 568.083014 
L 607.682851 581.055916 
L 613.399366 607.8262 
L 619.115881 618.817404 
L 624.832396 614.766961 
L 630.548911 638.177308 
L 636.265426 647.352 
L 641.981941 647.352 
L 647.698455 647.352 
L 653.41497 630.739596 
L 659.131485 636.657279 
L 664.848 606.034461 
L 664.848 546.345277 
L 664.848 546.345277 
L 659.131485 595.618321 
L 653.41497 602.21864 
L 647.698455 625.693389 
L 641.981941 632.060857 
L 636.265426 621.998354 
L 630.548911 608.099556 
L 624.832396 581.968981 
L 619.115881 581.997914 
L 613.399366 567.834609 
L 607.682851 536.291547 
L 601.966337 515.434523 
L 596.249822 545.287394 
L 590.533307 556.436138 
L 584.816792 512.249281 
L 579.100277 549.774244 
L 573.383762 522.025727 
L 567.667248 559.73599 
L 561.950733 562.556781 
L 556.234218 569.678974 
L 550.517703 583.10732 
L 544.801188 564.994386 
L 539.084673 497.235847 
L 533.368158 528.381806 
L 527.651644 563.464786 
L 521.935129 599.534828 
L 516.218614 583.411208 
L 510.502099 562.480495 
L 504.785584 560.399398 
L 499.069069 554.65543 
L 493.352554 601.961545 
L 487.63604 614.259153 
L 481.919525 603.576997 
L 476.20301 604.504288 
L 470.486495 615.677548 
L 464.76998 588.984474 
L 459.053465 582.179358 
L 453.33695 622.551563 
L 447.620436 609.786831 
L 441.903921 616.770065 
L 436.187406 604.431631 
L 430.470891 600.38753 
L 424.754376 609.588993 
L 419.037861 621.969427 
L 413.321347 618.457491 
L 407.604832 601.53107 
L 401.888317 620.11926 
L 396.171802 615.552744 
L 390.455287 614.860519 
L 384.738772 619.611164 
L 379.022257 629.40118 
L 373.305743 604.006412 
L 367.589228 595.884941 
L 361.872713 601.899025 
L 356.156198 597.481587 
L 350.439683 608.193451 
L 344.723168 609.590707 
L 339.006653 606.171659 
L 333.290139 611.617899 
L 327.573624 621.15046 
L 321.857109 599.011183 
L 316.140594 587.475301 
L 310.424079 627.301135 
L 304.707564 620.032635 
L 298.99105 627.77218 
L 293.274535 633.355223 
L 287.55802 637.565147 
L 281.841505 560.411442 
L 276.12499 560.119843 
L 270.408475 539.451742 
L 264.69196 567.063224 
L 258.975446 555.268211 
L 253.258931 538.688581 
L 247.542416 548.123913 
L 241.825901 565.367366 
L 236.109386 520.116023 
L 230.392871 506.783736 
L 224.676356 554.843161 
L 218.959842 547.382637 
L 213.243327 542.241749 
L 207.526812 524.000645 
L 201.810297 510.240015 
L 196.093782 523.155231 
L 190.377267 517.556697 
L 184.660752 522.631751 
L 178.944238 528.518731 
L 173.227723 514.729979 
L 167.511208 505.325932 
L 161.794693 513.570731 
L 156.078178 517.953524 
L 150.361663 522.628207 
L 144.645149 520.385487 
L 138.928634 515.669889 
L 133.212119 504.967067 
L 127.495604 514.458673 
L 121.779089 539.921722 
L 116.062574 527.80919 
L 110.346059 509.324262 
L 104.629545 525.458499 
L 98.91303 511.559122 
L 93.196515 517.227916 
L 87.48 541.429733 
z
" clip-path="url(#p0cbc5394bb)" style="fill: #bfbfbf; fill-opacity: 0.00001"/>
   </g>
   <g id="PI-PATCH-LOWER-1">
    <path d="M 87.48 576.536494 
L 93.196515 556.255635 
L 98.91303 550.206322 
L 104.629545 567.731758 
L 110.346059 554.036221 
L 116.062574 572.86705 
L 121.779089 588.328829 
L 127.495604 564.261534 
L 133.212119 550.565317 
L 138.928634 560.577049 
L 144.645149 564.410047 
L 150.361663 569.19652 
L 156.078178 565.88067 
L 161.794693 563.015959 
L 167.511208 551.613819 
L 173.227723 557.671411 
L 178.944238 573.304689 
L 184.660752 566.921079 
L 190.377267 559.325637 
L 196.093782 564.644826 
L 201.810297 550.929527 
L 207.526812 563.138828 
L 213.243327 586.13985 
L 218.959842 597.528595 
L 224.676356 607.44989 
L 230.392871 569.120324 
L 236.109386 577.269706 
L 241.825901 622.895844 
L 247.542416 617.062742 
L 253.258931 611.553404 
L 258.975446 616.797578 
L 264.69196 623.814065 
L 270.408475 596.080147 
L 276.12499 606.971711 
L 281.841505 614.220319 
L 287.55802 647.352 
L 293.274535 647.352 
L 298.99105 645.722734 
L 304.707564 642.623556 
L 310.424079 647.352 
L 316.140594 632.118717 
L 321.857109 629.3411 
L 327.573624 647.352 
L 333.290139 640.119907 
L 339.006653 637.030751 
L 344.723168 641.96099 
L 350.439683 634.76489 
L 356.156198 625.610158 
L 361.872713 632.124157 
L 367.589228 636.493617 
L 373.305743 644.127763 
L 379.022257 647.352 
L 384.738772 638.848836 
L 390.455287 640.981653 
L 396.171802 644.170431 
L 401.888317 646.941898 
L 407.604832 640.389826 
L 413.321347 645.598333 
L 419.037861 647.352 
L 424.754376 642.143183 
L 430.470891 641.345219 
L 436.187406 643.482983 
L 441.903921 647.352 
L 447.620436 645.436505 
L 453.33695 647.352 
L 459.053465 623.645757 
L 464.76998 625.688536 
L 470.486495 647.352 
L 476.20301 645.207603 
L 481.919525 642.510326 
L 487.63604 647.352 
L 493.352554 637.210323 
L 499.069069 599.974504 
L 504.785584 605.935783 
L 510.502099 608.223273 
L 516.218614 633.379596 
L 521.935129 646.863646 
L 527.651644 621.378292 
L 533.368158 587.390641 
L 539.084673 563.381807 
L 544.801188 620.05721 
L 550.517703 639.365808 
L 556.234218 635.237534 
L 561.950733 621.87959 
L 567.667248 622.06101 
L 573.383762 586.458154 
L 579.100277 610.716007 
L 584.816792 576.328885 
L 590.533307 609.330679 
L 596.249822 599.696225 
L 601.966337 568.083014 
L 607.682851 581.055916 
L 613.399366 607.8262 
L 619.115881 618.817404 
L 624.832396 614.766961 
L 630.548911 638.177308 
L 636.265426 647.352 
L 641.981941 647.352 
L 647.698455 647.352 
L 653.41497 630.739596 
L 659.131485 636.657279 
L 664.848 606.034461 
" clip-path="url(#p0cbc5394bb)" style="fill: none; stroke: #b78935; stroke-opacity: 0; stroke-width: 1.5; stroke-linecap: square"/>
   </g>
   <g id="PI-PATCH-UPPER-1">
    <path d="M 87.48 541.429733 
L 93.196515 517.227916 
L 98.91303 511.559122 
L 104.629545 525.458499 
L 110.346059 509.324262 
L 116.062574 527.80919 
L 121.779089 539.921722 
L 127.495604 514.458673 
L 133.212119 504.967067 
L 138.928634 515.669889 
L 144.645149 520.385487 
L 150.361663 522.628207 
L 156.078178 517.953524 
L 161.794693 513.570731 
L 167.511208 505.325932 
L 173.227723 514.729979 
L 178.944238 528.518731 
L 184.660752 522.631751 
L 190.377267 517.556697 
L 196.093782 523.155231 
L 201.810297 510.240015 
L 207.526812 524.000645 
L 213.243327 542.241749 
L 218.959842 547.382637 
L 224.676356 554.843161 
L 230.392871 506.783736 
L 236.109386 520.116023 
L 241.825901 565.367366 
L 247.542416 548.123913 
L 253.258931 538.688581 
L 258.975446 555.268211 
L 264.69196 567.063224 
L 270.408475 539.451742 
L 276.12499 560.119843 
L 281.841505 560.411442 
L 287.55802 637.565147 
L 293.274535 633.355223 
L 298.99105 627.77218 
L 304.707564 620.032635 
L 310.424079 627.301135 
L 316.140594 587.475301 
L 321.857109 599.011183 
L 327.573624 621.15046 
L 333.290139 611.617899 
L 339.006653 606.171659 
L 344.723168 609.590707 
L 350.439683 608.193451 
L 356.156198 597.481587 
L 361.872713 601.899025 
L 367.589228 595.884941 
L 373.305743 604.006412 
L 379.022257 629.40118 
L 384.738772 619.611164 
L 390.455287 614.860519 
L 396.171802 615.552744 
L 401.888317 620.11926 
L 407.604832 601.53107 
L 413.321347 618.457491 
L 419.037861 621.969427 
L 424.754376 609.588993 
L 430.470891 600.38753 
L 436.187406 604.431631 
L 441.903921 616.770065 
L 447.620436 609.786831 
L 453.33695 622.551563 
L 459.053465 582.179358 
L 464.76998 588.984474 
L 470.486495 615.677548 
L 476.20301 604.504288 
L 481.919525 603.576997 
L 487.63604 614.259153 
L 493.352554 601.961545 
L 499.069069 554.65543 
L 504.785584 560.399398 
L 510.502099 562.480495 
L 516.218614 583.411208 
L 521.935129 599.534828 
L 527.651644 563.464786 
L 533.368158 528.381806 
L 539.084673 497.235847 
L 544.801188 564.994386 
L 550.517703 583.10732 
L 556.234218 569.678974 
L 561.950733 562.556781 
L 567.667248 559.73599 
L 573.383762 522.025727 
L 579.100277 549.774244 
L 584.816792 512.249281 
L 590.533307 556.436138 
L 596.249822 545.287394 
L 601.966337 515.434523 
L 607.682851 536.291547 
L 613.399366 567.834609 
L 619.115881 581.997914 
L 624.832396 581.968981 
L 630.548911 608.099556 
L 636.265426 621.998354 
L 641.981941 632.060857 
L 647.698455 625.693389 
L 653.41497 602.21864 
L 659.131485 595.618321 
L 664.848 546.345277 
" clip-path="url(#p0cbc5394bb)" style="fill: none; stroke: #406992; stroke-opacity: 0; stroke-width: 1.5; stroke-linecap: square"/>
   </g>
   <g id="PI-PATCH-2">
    <path d="M 87.48 537.213798 
L 87.48 564.392172 
L 93.196515 548.180337 
L 98.91303 543.122592 
L 104.629545 561.000616 
L 110.346059 547.771916 
L 116.062574 562.852195 
L 121.779089 581.498265 
L 127.495604 550.365051 
L 133.212119 542.338187 
L 138.928634 549.626207 
L 144.645149 555.286341 
L 150.361663 558.213403 
L 156.078178 550.007788 
L 161.794693 542.841024 
L 167.511208 532.992196 
L 173.227723 541.871441 
L 178.944238 559.36384 
L 184.660752 554.857758 
L 190.377267 544.319802 
L 196.093782 553.473126 
L 201.810297 538.326963 
L 207.526812 556.886156 
L 213.243327 572.512996 
L 218.959842 589.388139 
L 224.676356 603.652112 
L 230.392871 555.255096 
L 236.109386 566.517218 
L 241.825901 615.748155 
L 247.542416 604.899924 
L 253.258931 615.761963 
L 258.975446 608.229192 
L 264.69196 611.198801 
L 270.408475 583.203208 
L 276.12499 576.561272 
L 281.841505 621.081385 
L 287.55802 647.352 
L 293.274535 640.897057 
L 298.99105 644.029474 
L 304.707564 638.000861 
L 310.424079 646.342185 
L 316.140594 629.837746 
L 321.857109 633.498659 
L 327.573624 639.028146 
L 333.290139 633.494353 
L 339.006653 636.75021 
L 344.723168 639.809018 
L 350.439683 633.500248 
L 356.156198 622.544538 
L 361.872713 625.408368 
L 367.589228 624.103023 
L 373.305743 631.61544 
L 379.022257 645.540221 
L 384.738772 638.978243 
L 390.455287 632.12417 
L 396.171802 632.378186 
L 401.888317 639.61398 
L 407.604832 634.484127 
L 413.321347 642.357869 
L 419.037861 642.33868 
L 424.754376 636.185614 
L 430.470891 647.352 
L 436.187406 641.03298 
L 441.903921 647.352 
L 447.620436 647.352 
L 453.33695 647.352 
L 459.053465 625.290327 
L 464.76998 619.051463 
L 470.486495 647.352 
L 476.20301 647.352 
L 481.919525 643.191823 
L 487.63604 646.398977 
L 493.352554 636.576794 
L 499.069069 591.640775 
L 504.785584 595.164694 
L 510.502099 604.559846 
L 516.218614 624.884925 
L 521.935129 645.315623 
L 527.651644 609.846191 
L 533.368158 576.725172 
L 539.084673 552.37733 
L 544.801188 627.274083 
L 550.517703 612.198344 
L 556.234218 626.755742 
L 561.950733 608.758451 
L 567.667248 621.06125 
L 573.383762 572.952211 
L 579.100277 584.641045 
L 584.816792 552.224408 
L 590.533307 581.268241 
L 596.249822 587.408631 
L 601.966337 561.168355 
L 607.682851 566.689658 
L 613.399366 601.540721 
L 619.115881 609.045335 
L 624.832396 606.843451 
L 630.548911 623.139864 
L 636.265426 637.585792 
L 641.981941 647.116086 
L 647.698455 642.000555 
L 653.41497 629.946979 
L 659.131485 625.994316 
L 664.848 592.509409 
L 664.848 565.890271 
L 664.848 565.890271 
L 659.131485 604.974408 
L 653.41497 613.277686 
L 647.698455 628.949797 
L 641.981941 634.759169 
L 636.265426 620.546239 
L 630.548911 602.303986 
L 624.832396 584.488368 
L 619.115881 586.928014 
L 613.399366 576.98967 
L 607.682851 538.81166 
L 601.966337 527.007546 
L 596.249822 556.07425 
L 590.533307 550.606523 
L 584.816792 513.398667 
L 579.100277 546.173463 
L 573.383762 531.716798 
L 567.667248 586.850807 
L 561.950733 573.133886 
L 556.234218 592.543563 
L 550.517703 578.418597 
L 544.801188 595.272731 
L 539.084673 521.128075 
L 533.368158 545.55914 
L 527.651644 583.526252 
L 521.935129 624.068787 
L 516.218614 600.699367 
L 510.502099 580.571475 
L 504.785584 569.78182 
L 499.069069 564.985686 
L 493.352554 618.7935 
L 487.63604 632.26833 
L 481.919525 625.208442 
L 476.20301 628.565999 
L 470.486495 632.803051 
L 464.76998 600.470338 
L 459.053465 603.748866 
L 453.33695 641.335353 
L 447.620436 631.063469 
L 441.903921 647.352 
L 436.187406 616.86131 
L 430.470891 621.330496 
L 424.754376 615.506963 
L 419.037861 627.339344 
L 413.321347 627.828879 
L 407.604832 612.553434 
L 401.888317 623.062787 
L 396.171802 614.163805 
L 390.455287 613.999765 
L 384.738772 625.19278 
L 379.022257 631.515194 
L 373.305743 611.080458 
L 367.589228 602.197471 
L 361.872713 607.760421 
L 356.156198 605.126655 
L 350.439683 617.123123 
L 344.723168 622.367451 
L 339.006653 620.258554 
L 333.290139 617.15188 
L 327.573624 622.728132 
L 321.857109 614.918446 
L 316.140594 604.901301 
L 310.424079 630.2509 
L 304.707564 620.134752 
L 298.99105 624.951282 
L 293.274535 620.097716 
L 287.55802 630.82542 
L 281.841505 589.241453 
L 276.12499 544.288707 
L 270.408475 550.024166 
L 264.69196 582.675433 
L 258.975446 576.983288 
L 253.258931 587.583148 
L 247.542416 577.789137 
L 241.825901 587.337406 
L 236.109386 535.228599 
L 230.392871 521.796199 
L 224.676356 580.116356 
L 218.959842 565.809485 
L 213.243327 549.483586 
L 207.526812 534.604455 
L 201.810297 517.353067 
L 196.093782 531.793724 
L 190.377267 522.837943 
L 184.660752 532.289564 
L 178.944238 535.498543 
L 173.227723 520.601491 
L 167.511208 511.30022 
L 161.794693 518.820783 
L 156.078178 525.936508 
L 150.361663 534.325019 
L 144.645149 532.338919 
L 138.928634 526.53225 
L 133.212119 520.132742 
L 127.495604 526.357453 
L 121.779089 557.956873 
L 116.062574 539.640495 
L 110.346059 522.538085 
L 104.629545 536.285431 
L 98.91303 520.859953 
L 93.196515 523.0656 
L 87.48 537.213798 
z
" clip-path="url(#p0cbc5394bb)" style="fill: #808080; fill-opacity: 0.00001"/>
   </g>
   <g id="PI-PATCH-LOWER-2">
    <path d="M 87.48 564.392172 
L 93.196515 548.180337 
L 98.91303 543.122592 
L 104.629545 561.000616 
L 110.346059 547.771916 
L 116.062574 562.852195 
L 121.779089 581.498265 
L 127.495604 550.365051 
L 133.212119 542.338187 
L 138.928634 549.626207 
L 144.645149 555.286341 
L 150.361663 558.213403 
L 156.078178 550.007788 
L 161.794693 542.841024 
L 167.511208 532.992196 
L 173.227723 541.871441 
L 178.944238 559.36384 
L 184.660752 554.857758 
L 190.377267 544.319802 
L 196.093782 553.473126 
L 201.810297 538.326963 
L 207.526812 556.886156 
L 213.243327 572.512996 
L 218.959842 589.388139 
L 224.676356 603.652112 
L 230.392871 555.255096 
L 236.109386 566.517218 
L 241.825901 615.748155 
L 247.542416 604.899924 
L 253.258931 615.761963 
L 258.975446 608.229192 
L 264.69196 611.198801 
L 270.408475 583.203208 
L 276.12499 576.561272 
L 281.841505 621.081385 
L 287.55802 647.352 
L 293.274535 640.897057 
L 298.99105 644.029474 
L 304.707564 638.000861 
L 310.424079 646.342185 
L 316.140594 629.837746 
L 321.857109 633.498659 
L 327.573624 639.028146 
L 333.290139 633.494353 
L 339.006653 636.75021 
L 344.723168 639.809018 
L 350.439683 633.500248 
L 356.156198 622.544538 
L 361.872713 625.408368 
L 367.589228 624.103023 
L 373.305743 631.61544 
L 379.022257 645.540221 
L 384.738772 638.978243 
L 390.455287 632.12417 
L 396.171802 632.378186 
L 401.888317 639.61398 
L 407.604832 634.484127 
L 413.321347 642.357869 
L 419.037861 642.33868 
L 424.754376 636.185614 
L 430.470891 647.352 
L 436.187406 641.03298 
L 441.903921 647.352 
L 447.620436 647.352 
L 453.33695 647.352 
L 459.053465 625.290327 
L 464.76998 619.051463 
L 470.486495 647.352 
L 476.20301 647.352 
L 481.919525 643.191823 
L 487.63604 646.398977 
L 493.352554 636.576794 
L 499.069069 591.640775 
L 504.785584 595.164694 
L 510.502099 604.559846 
L 516.218614 624.884925 
L 521.935129 645.315623 
L 527.651644 609.846191 
L 533.368158 576.725172 
L 539.084673 552.37733 
L 544.801188 627.274083 
L 550.517703 612.198344 
L 556.234218 626.755742 
L 561.950733 608.758451 
L 567.667248 621.06125 
L 573.383762 572.952211 
L 579.100277 584.641045 
L 584.816792 552.224408 
L 590.533307 581.268241 
L 596.249822 587.408631 
L 601.966337 561.168355 
L 607.682851 566.689658 
L 613.399366 601.540721 
L 619.115881 609.045335 
L 624.832396 606.843451 
L 630.548911 623.139864 
L 636.265426 637.585792 
L 641.981941 647.116086 
L 647.698455 642.000555 
L 653.41497 629.946979 
L 659.131485 625.994316 
L 664.848 592.509409 
" clip-path="url(#p0cbc5394bb)" style="fill: none; stroke: #b78935; stroke-opacity: 0; stroke-width: 1.5; stroke-linecap: square"/>
   </g>
   <g id="PI-PATCH-UPPER-2">
    <path d="M 87.48 537.213798 
L 93.196515 523.0656 
L 98.91303 520.859953 
L 104.629545 536.285431 
L 110.346059 522.538085 
L 116.062574 539.640495 
L 121.779089 557.956873 
L 127.495604 526.357453 
L 133.212119 520.132742 
L 138.928634 526.53225 
L 144.645149 532.338919 
L 150.361663 534.325019 
L 156.078178 525.936508 
L 161.794693 518.820783 
L 167.511208 511.30022 
L 173.227723 520.601491 
L 178.944238 535.498543 
L 184.660752 532.289564 
L 190.377267 522.837943 
L 196.093782 531.793724 
L 201.810297 517.353067 
L 207.526812 534.604455 
L 213.243327 549.483586 
L 218.959842 565.809485 
L 224.676356 580.116356 
L 230.392871 521.796199 
L 236.109386 535.228599 
L 241.825901 587.337406 
L 247.542416 577.789137 
L 253.258931 587.583148 
L 258.975446 576.983288 
L 264.69196 582.675433 
L 270.408475 550.024166 
L 276.12499 544.288707 
L 281.841505 589.241453 
L 287.55802 630.82542 
L 293.274535 620.097716 
L 298.99105 624.951282 
L 304.707564 620.134752 
L 310.424079 630.2509 
L 316.140594 604.901301 
L 321.857109 614.918446 
L 327.573624 622.728132 
L 333.290139 617.15188 
L 339.006653 620.258554 
L 344.723168 622.367451 
L 350.439683 617.123123 
L 356.156198 605.126655 
L 361.872713 607.760421 
L 367.589228 602.197471 
L 373.305743 611.080458 
L 379.022257 631.515194 
L 384.738772 625.19278 
L 390.455287 613.999765 
L 396.171802 614.163805 
L 401.888317 623.062787 
L 407.604832 612.553434 
L 413.321347 627.828879 
L 419.037861 627.339344 
L 424.754376 615.506963 
L 430.470891 621.330496 
L 436.187406 616.86131 
L 441.903921 647.352 
L 447.620436 631.063469 
L 453.33695 641.335353 
L 459.053465 603.748866 
L 464.76998 600.470338 
L 470.486495 632.803051 
L 476.20301 628.565999 
L 481.919525 625.208442 
L 487.63604 632.26833 
L 493.352554 618.7935 
L 499.069069 564.985686 
L 504.785584 569.78182 
L 510.502099 580.571475 
L 516.218614 600.699367 
L 521.935129 624.068787 
L 527.651644 583.526252 
L 533.368158 545.55914 
L 539.084673 521.128075 
L 544.801188 595.272731 
L 550.517703 578.418597 
L 556.234218 592.543563 
L 561.950733 573.133886 
L 567.667248 586.850807 
L 573.383762 531.716798 
L 579.100277 546.173463 
L 584.816792 513.398667 
L 590.533307 550.606523 
L 596.249822 556.07425 
L 601.966337 527.007546 
L 607.682851 538.81166 
L 613.399366 576.98967 
L 619.115881 586.928014 
L 624.832396 584.488368 
L 630.548911 602.303986 
L 636.265426 620.546239 
L 641.981941 634.759169 
L 647.698455 628.949797 
L 653.41497 613.277686 
L 659.131485 604.974408 
L 664.848 565.890271 
" clip-path="url(#p0cbc5394bb)" style="fill: none; stroke: #406992; stroke-opacity: 0; stroke-width: 1.5; stroke-linecap: square"/>
   </g>
   <g id="matplotlib.axis_3">
    <g id="xtick_4">
     <g id="line2d_7">
      <g>
       <use xlink:href="#m0b7b1f6033" x="106.262835" y="647.352" style="fill: #949494; stroke: #949494; stroke-width: 0.8"/>
      </g>
     </g>
     <g id="text_8">
      <text style="font-weight: 300; font-size: 16px; font-family: 'Source Sans 3', sans-serif; text-anchor: middle; fill: #494949" x="106.262835" y="665.9045" transform="rotate(-0 106.262835 665.9045)">2021</text>
     </g>
    </g>
    <g id="xtick_5">
     <g id="line2d_8">
      <g>
       <use xlink:href="#m0b7b1f6033" x="404.338252" y="647.352" style="fill: #949494; stroke: #949494; stroke-width: 0.8"/>
      </g>
     </g>
     <g id="text_9">
      <text style="font-weight: 300; font-size: 16px; font-family: 'Source Sans 3', sans-serif; text-anchor: middle; fill: #494949" x="404.338252" y="665.9045" transform="rotate(-0 404.338252 665.9045)">2022</text>
     </g>
    </g>
    <g id="text_10">
     <text style="font-weight: 600; font-size: 16px; font-family: 'Source Sans 3', sans-serif; text-anchor: middle; fill: #494949" x="376.164" y="685.0095" transform="rotate(-0 376.164 685.0095)">Date</text>
    </g>
   </g>
   <g id="matplotlib.axis_4">
    <g id="ytick_4">
     <g id="line2d_9">
      <path d="M 87.48 647.352 
L 664.848 647.352 
" style="fill: none; stroke: #d1d1d1; stroke-width: 0.8; stroke-linecap: square"/>
     </g>
     <g id="line2d_10">
      <g>
       <use xlink:href="#mf462da89bd" x="87.48" y="647.352" style="fill: #949494; stroke: #949494; stroke-width: 0.8"/>
      </g>
     </g>
     <g id="text_11">
      <text style="font-weight: 300; font-size: 16px; font-family: 'Source Sans 3', sans-serif; text-anchor: end; fill: #494949" x="80.48" y="653.12825" transform="rotate(-0 80.48 653.12825)">0ᵗʰ</text>
     </g>
    </g>
    <g id="ytick_5">
     <g id="line2d_11">
      <path d="M 87.48 594.864 
L 664.848 594.864 
" style="fill: none; stroke: #d1d1d1; stroke-width: 0.8; stroke-linecap: square"/>
     </g>
     <g id="line2d_12">
      <g>
       <use xlink:href="#mf462da89bd" x="87.48" y="594.864" style="fill: #949494; stroke: #949494; stroke-width: 0.8"/>
      </g>
     </g>
     <g id="text_12">
      <text style="font-weight: 300; font-size: 16px; font-family: 'Source Sans 3', sans-serif; text-anchor: end; fill: #494949" x="80.48" y="600.64025" transform="rotate(-0 80.48 600.64025)">20ᵗʰ</text>
     </g>
    </g>
    <g id="ytick_6">
     <g id="line2d_13">
      <path d="M 87.48 542.376 
L 664.848 542.376 
" style="fill: none; stroke: #d1d1d1; stroke-width: 0.8; stroke-linecap: square"/>
     </g>
     <g id="line2d_14">
      <g>
       <use xlink:href="#mf462da89bd" x="87.48" y="542.376" style="fill: #949494; stroke: #949494; stroke-width: 0.8"/>
      </g>
     </g>
     <g id="text_13">
      <text style="font-weight: 300; font-size: 16px; font-family: 'Source Sans 3', sans-serif; text-anchor: end; fill: #494949" x="80.48" y="548.15225" transform="rotate(-0 80.48 548.15225)">40ᵗʰ</text>
     </g>
    </g>
    <g id="ytick_7">
     <g id="line2d_15">
      <path d="M 87.48 489.888 
L 664.848 489.888 
" style="fill: none; stroke: #d1d1d1; stroke-width: 0.8; stroke-linecap: square"/>
     </g>
     <g id="line2d_16">
      <g>
       <use xlink:href="#mf462da89bd" x="87.48" y="489.888" style="fill: #949494; stroke: #949494; stroke-width: 0.8"/>
      </g>
     </g>
     <g id="text_14">
      <text style="font-weight: 300; font-size: 16px; font-family: 'Source Sans 3', sans-serif; text-anchor: end; fill: #494949" x="80.48" y="495.66425" transform="rotate(-0 80.48 495.66425)">60ᵗʰ</text>
     </g>
    </g>
    <g id="ytick_8">
     <g id="line2d_17">
      <path d="M 87.48 437.4 
L 664.848 437.4 
" style="fill: none; stroke: #d1d1d1; stroke-width: 0.8; stroke-linecap: square"/>
     </g>
     <g id="line2d_18">
      <g>
       <use xlink:href="#mf462da89bd" x="87.48" y="437.4" style="fill: #949494; stroke: #949494; stroke-width: 0.8"/>
      </g>
     </g>
     <g id="text_15">
      <text style="font-weight: 300; font-size: 16px; font-family: 'Source Sans 3', sans-serif; text-anchor: end; fill: #494949" x="80.48" y="443.17625" transform="rotate(-0 80.48 443.17625)">80ᵗʰ</text>
     </g>
    </g>
    <g id="ytick_9">
     <g id="line2d_19">
      <path d="M 87.48 384.912 
L 664.848 384.912 
" style="fill: none; stroke: #d1d1d1; stroke-width: 0.8; stroke-linecap: square"/>
     </g>
     <g id="line2d_20">
      <g>
       <use xlink:href="#mf462da89bd" x="87.48" y="384.912" style="fill: #949494; stroke: #949494; stroke-width: 0.8"/>
      </g>
     </g>
     <g id="text_16">
      <text style="font-weight: 300; font-size: 16px; font-family: 'Source Sans 3', sans-serif; text-anchor: end; fill: #494949" x="80.48" y="390.68825" transform="rotate(-0 80.48 390.68825)">100ᵗʰ</text>
     </g>
    </g>
   </g>
   <g id="TAG-0-LABEL-BOLD">
    <g id="patch_6">
     <path d="M 464.2185 479.90425 
L 576.7935 479.90425 
L 576.7935 447.38375 
L 464.2185 447.38375 
z
" style="fill: #ffffff; opacity: 0"/>
    </g>
    <text style="font-weight: 700; font-size: 16px; font-family: 'Source Sans 3', sans-serif; fill: #af3331; opacity: 0" transform="translate(464.2185 458.93625)">PI contains 84.6%</text>
    <text style="font-weight: 700; font-size: 16px; font-family: 'Source Sans 3', sans-serif; fill: #af3331; opacity: 0" transform="translate(471.48225 476.35175)">of observations</text>
   </g>
   <g id="TAG-1-LABEL-BOLD">
    <g id="patch_7">
     <path d="M 464.2185 479.90425 
L 576.7935 479.90425 
L 576.7935 447.38375 
L 464.2185 447.38375 
z
" style="fill: #ffffff; opacity: 0"/>
    </g>
    <text style="font-weight: 700; font-size: 16px; font-family: 'Source Sans 3', sans-serif; fill: #af3331; opacity: 0" transform="translate(464.2185 458.93625)">PI contains 69.2%</text>
    <text style="font-weight: 700; font-size: 16px; font-family: 'Source Sans 3', sans-serif; fill: #af3331; opacity: 0" transform="translate(471.48225 476.35175)">of observations</text>
   </g>
   <g id="TAG-2-LABEL-BOLD">
    <g id="patch_8">
     <path d="M 464.2185 479.90425 
L 576.7935 479.90425 
L 576.7935 447.38375 
L 464.2185 447.38375 
z
" style="fill: #ffffff; opacity: 0"/>
    </g>
    <text style="font-weight: 700; font-size: 16px; font-family: 'Source Sans 3', sans-serif; fill: #af3331; opacity: 0" transform="translate(464.2185 458.93625)">PI contains 38.5%</text>
    <text style="font-weight: 700; font-size: 16px; font-family: 'Source Sans 3', sans-serif; fill: #af3331; opacity: 0" transform="translate(471.48225 476.35175)">of observations</text>
   </g>
   <g id="PI-PATCH-MEDIAN">
    <path d="M 87.48 557.308462 
L 93.196515 536.727509 
L 98.91303 527.662445 
L 104.629545 545.774463 
L 110.346059 530.843493 
L 116.062574 546.84437 
L 121.779089 562.079443 
L 127.495604 535.30085 
L 133.212119 521.258692 
L 138.928634 531.901406 
L 144.645149 531.329691 
L 150.361663 541.22317 
L 156.078178 531.707487 
L 161.794693 525.252667 
L 167.511208 516.849349 
L 173.227723 525.943766 
L 178.944238 545.249741 
L 184.660752 538.196977 
L 190.377267 526.295663 
L 196.093782 534.736814 
L 201.810297 525.311083 
L 207.526812 538.069983 
L 213.243327 561.293927 
L 218.959842 570.956986 
L 224.676356 585.859569 
L 230.392871 530.073354 
L 236.109386 542.035546 
L 241.825901 593.555369 
L 247.542416 602.374396 
L 253.258931 603.117028 
L 258.975446 585.690013 
L 264.69196 597.92308 
L 270.408475 571.085115 
L 276.12499 567.59133 
L 281.841505 608.995459 
L 287.55802 639.022631 
L 293.274535 636.216781 
L 298.99105 634.902174 
L 304.707564 635.645946 
L 310.424079 640.528717 
L 316.140594 612.45491 
L 321.857109 621.276367 
L 327.573624 638.554354 
L 333.290139 631.198184 
L 339.006653 632.080075 
L 344.723168 637.19337 
L 350.439683 632.134124 
L 356.156198 620.669866 
L 361.872713 623.565632 
L 367.589228 625.255771 
L 373.305743 633.298917 
L 379.022257 646.585715 
L 384.738772 634.829629 
L 390.455287 635.394386 
L 396.171802 632.451826 
L 401.888317 636.616175 
L 407.604832 625.429064 
L 413.321347 635.950778 
L 419.037861 633.258562 
L 424.754376 625.221422 
L 430.470891 626.018173 
L 436.187406 625.10644 
L 441.903921 645.697981 
L 447.620436 632.22042 
L 453.33695 639.12665 
L 459.053465 605.577634 
L 464.76998 605.910447 
L 470.486495 636.324131 
L 476.20301 630.312395 
L 481.919525 627.401518 
L 487.63604 635.188281 
L 493.352554 619.736185 
L 499.069069 570.534725 
L 504.785584 577.121899 
L 510.502099 590.176468 
L 516.218614 612.279848 
L 521.935129 625.943874 
L 527.651644 601.169166 
L 533.368158 553.560565 
L 539.084673 534.301423 
L 544.801188 617.44375 
L 550.517703 593.884705 
L 556.234218 612.2951 
L 561.950733 590.365987 
L 567.667248 608.155724 
L 573.383762 551.975948 
L 579.100277 574.349497 
L 584.816792 527.178289 
L 590.533307 569.908683 
L 596.249822 584.871435 
L 601.966337 543.853226 
L 607.682851 552.046487 
L 613.399366 588.172913 
L 619.115881 601.597845 
L 624.832396 597.07139 
L 630.548911 620.512015 
L 636.265426 638.277581 
L 641.981941 646.793433 
L 647.698455 642.963556 
L 653.41497 628.832147 
L 659.131485 626.092369 
L 664.848 584.961957 
L 670.564515 608.859438 
L 676.28103 631.243597 
L 681.997545 630.885721 
L 700.84 630.735525 
L 700.84 630.735525 
" clip-path="url(#p0cbc5394bb)" style="fill: none; stroke: #00264c; stroke-opacity: 0; stroke-width: 1.5; stroke-linecap: square"/>
   </g>
   <g id="OBSERVED-FORECAST-LINE">
    <path d="M 87.48 541.82617 
L 93.196515 508.201706 
L 98.91303 536.750775 
L 104.629545 528.503263 
L 110.346059 532.732754 
L 116.062574 553.034321 
L 121.779089 535.481924 
L 127.495604 522.581975 
L 133.212119 520.044283 
L 138.928634 504.183684 
L 144.645149 538.561848 
L 150.361663 481.999633 
L 156.078178 507.138396 
L 161.794693 498.03643 
L 167.511208 490.014883 
L 173.227723 541.82617 
L 178.944238 532.309807 
L 184.660752 498.262395 
L 190.377267 516.872165 
L 196.093782 519.409857 
L 201.810297 528.714742 
L 207.526812 560.647408 
L 213.243327 571.644086 
L 218.959842 589.9035 
L 224.676356 454.187654 
L 230.392871 491.163008 
L 236.109386 561.501181 
L 241.825901 625.039287 
L 247.542416 628.530759 
L 253.258931 583.909615 
L 258.975446 585.812886 
L 264.69196 588.985004 
L 270.408475 526.17704 
L 276.12499 625.781589 
L 281.841505 637.624168 
L 287.55802 647.140525 
L 293.274535 636.778269 
L 298.99105 643.545457 
L 304.707564 646.294627 
L 310.424079 632.337303 
L 316.140594 613.304586 
L 321.857109 635.93237 
L 327.573624 633.183201 
L 333.290139 634.663523 
L 339.006653 642.276609 
L 344.723168 627.261911 
L 350.439683 615.207858 
L 356.156198 623.878317 
L 361.872713 634.0291 
L 367.589228 639.10449 
L 373.305743 645.448729 
L 379.022257 633.394675 
L 384.738772 645.448729 
L 390.455287 638.681541 
L 396.171802 641.430711 
L 401.888317 642.699559 
L 407.604832 635.297947 
L 413.321347 639.950388 
L 419.037861 641.219236 
L 424.754376 634.874997 
L 430.470891 638.258591 
L 436.187406 642.065135 
L 441.903921 638.250035 
L 447.620436 634.999333 
L 453.33695 619.561598 
L 459.053465 605.309586 
L 464.76998 626.980935 
L 470.486495 639.315964 
L 476.20301 626.416013 
L 481.919525 639.10449 
L 487.63604 624.301267 
L 493.352554 576.508002 
L 499.069069 568.260495 
L 504.785584 589.830903 
L 510.502099 609.286569 
L 516.218614 617.697764 
L 521.935129 619.726737 
L 527.651644 548.326061 
L 533.368158 513.263224 
L 539.084673 598.264035 
L 544.801188 580.314545 
L 550.517703 631.491404 
L 556.234218 590.042377 
L 561.950733 635.509422 
L 567.667248 579.891598 
L 573.383762 577.565374 
L 579.100277 511.79677 
L 584.816792 521.736081 
L 590.533307 607.171822 
L 596.249822 536.11635 
L 601.966337 528.291795 
L 607.682851 579.468646 
L 613.399366 601.462007 
L 619.115881 594.483346 
L 624.832396 617.957029 
L 630.548911 643.968406 
L 636.265426 646.717576 
L 641.981941 642.488084 
L 647.698455 625.147166 
L 653.41497 635.297947 
L 659.131485 595.117771 
L 664.848 601.462007 
L 670.564515 621.975045 
L 676.28103 638.047117 
L 676.28103 638.047117 
" clip-path="url(#p0cbc5394bb)" style="fill: none; stroke-dasharray: 1.5,2.475; stroke-dashoffset: 0; stroke: #af3331; stroke-width: 1.5"/>
   </g>
   <g id="PI-missed-dummy">
    <defs>
     <path id="m334a0ab3ac" d="M 0 3.9975 
C 1.060149 3.9975 2.077021 3.576298 2.826659 2.826659 
C 3.576298 2.077021 3.9975 1.060149 3.9975 0 
C 3.9975 -1.060149 3.576298 -2.077021 2.826659 -2.826659 
C 2.077021 -3.576298 1.060149 -3.9975 0 -3.9975 
C -1.060149 -3.9975 -2.077021 -3.576298 -2.826659 -2.826659 
C -3.576298 -2.077021 -3.9975 -1.060149 -3.9975 0 
C -3.9975 1.060149 -3.576298 2.077021 -2.826659 2.826659 
C -2.077021 3.576298 -1.060149 3.9975 0 3.9975 
z
" style="stroke: #595959"/>
    </defs>
    <g clip-path="url(#p0cbc5394bb)"/>
   </g>
   <g id="patch_9">
    <path d="M 87.48 647.352 
L 87.48 384.912 
" style="fill: none; stroke: #949494; stroke-width: 0.8; stroke-linejoin: miter; stroke-linecap: square"/>
   </g>
   <g id="patch_10">
    <path d="M 87.48 647.352 
L 664.848 647.352 
" style="fill: none; stroke: #949494; stroke-width: 0.8; stroke-linejoin: miter; stroke-linecap: square"/>
   </g>
   <g id="PI-missed-0">
    <defs>
     <path id="ma146855ea9" d="M 0 4 
C 1.060812 4 2.078319 3.578535 2.828427 2.828427 
C 3.578535 2.078319 4 1.060812 4 0 
C 4 -1.060812 3.578535 -2.078319 2.828427 -2.828427 
C 2.078319 -3.578535 1.060812 -4 0 -4 
C -1.060812 -4 -2.078319 -3.578535 -2.828427 -2.828427 
C -3.578535 -2.078319 -4 -1.060812 -4 0 
C -4 1.060812 -3.578535 2.078319 -2.828427 2.828427 
C -2.078319 3.578535 -1.060812 4 0 4 
z
" style="stroke: #595959; stroke-opacity: 0"/>
    </defs>
    <g>
     <use xlink:href="#ma146855ea9" x="247.542416" y="628.530759" style="fill-opacity: 0; stroke: #595959; stroke-opacity: 0"/>
     <use xlink:href="#ma146855ea9" x="270.408475" y="526.17704" style="fill-opacity: 0; stroke: #595959; stroke-opacity: 0"/>
     <use xlink:href="#ma146855ea9" x="276.12499" y="625.781589" style="fill-opacity: 0; stroke: #595959; stroke-opacity: 0"/>
     <use xlink:href="#ma146855ea9" x="281.841505" y="637.624168" style="fill-opacity: 0; stroke: #595959; stroke-opacity: 0"/>
     <use xlink:href="#ma146855ea9" x="304.707564" y="646.294627" style="fill-opacity: 0; stroke: #595959; stroke-opacity: 0"/>
     <use xlink:href="#ma146855ea9" x="367.589228" y="639.10449" style="fill-opacity: 0; stroke: #595959; stroke-opacity: 0"/>
     <use xlink:href="#ma146855ea9" x="373.305743" y="645.448729" style="fill-opacity: 0; stroke: #595959; stroke-opacity: 0"/>
     <use xlink:href="#ma146855ea9" x="384.738772" y="645.448729" style="fill-opacity: 0; stroke: #595959; stroke-opacity: 0"/>
     <use xlink:href="#ma146855ea9" x="493.352554" y="576.508002" style="fill-opacity: 0; stroke: #595959; stroke-opacity: 0"/>
     <use xlink:href="#ma146855ea9" x="539.084673" y="598.264035" style="fill-opacity: 0; stroke: #595959; stroke-opacity: 0"/>
     <use xlink:href="#ma146855ea9" x="550.517703" y="631.491404" style="fill-opacity: 0; stroke: #595959; stroke-opacity: 0"/>
     <use xlink:href="#ma146855ea9" x="561.950733" y="635.509422" style="fill-opacity: 0; stroke: #595959; stroke-opacity: 0"/>
     <use xlink:href="#ma146855ea9" x="596.249822" y="536.11635" style="fill-opacity: 0; stroke: #595959; stroke-opacity: 0"/>
     <use xlink:href="#ma146855ea9" x="630.548911" y="643.968406" style="fill-opacity: 0; stroke: #595959; stroke-opacity: 0"/>
    </g>
   </g>
   <g id="PI-missed-1">
    <defs>
     <path id="m6eae71512d" d="M 0 4.0025 
C 1.061475 4.0025 2.079618 3.580771 2.830195 2.830195 
C 3.580771 2.079618 4.0025 1.061475 4.0025 0 
C 4.0025 -1.061475 3.580771 -2.079618 2.830195 -2.830195 
C 2.079618 -3.580771 1.061475 -4.0025 0 -4.0025 
C -1.061475 -4.0025 -2.079618 -3.580771 -2.830195 -2.830195 
C -3.580771 -2.079618 -4.0025 -1.061475 -4.0025 0 
C -4.0025 1.061475 -3.580771 2.079618 -2.830195 2.830195 
C -2.079618 3.580771 -1.061475 4.0025 0 4.0025 
z
" style="stroke: #595959; stroke-opacity: 0"/>
    </defs>
    <g>
     <use xlink:href="#m6eae71512d" x="121.779089" y="535.481924" style="fill-opacity: 0; stroke: #595959; stroke-opacity: 0"/>
     <use xlink:href="#m6eae71512d" x="190.377267" y="516.872165" style="fill-opacity: 0; stroke: #595959; stroke-opacity: 0"/>
     <use xlink:href="#m6eae71512d" x="196.093782" y="519.409857" style="fill-opacity: 0; stroke: #595959; stroke-opacity: 0"/>
     <use xlink:href="#m6eae71512d" x="241.825901" y="625.039287" style="fill-opacity: 0; stroke: #595959; stroke-opacity: 0"/>
     <use xlink:href="#m6eae71512d" x="247.542416" y="628.530759" style="fill-opacity: 0; stroke: #595959; stroke-opacity: 0"/>
     <use xlink:href="#m6eae71512d" x="270.408475" y="526.17704" style="fill-opacity: 0; stroke: #595959; stroke-opacity: 0"/>
     <use xlink:href="#m6eae71512d" x="276.12499" y="625.781589" style="fill-opacity: 0; stroke: #595959; stroke-opacity: 0"/>
     <use xlink:href="#m6eae71512d" x="281.841505" y="637.624168" style="fill-opacity: 0; stroke: #595959; stroke-opacity: 0"/>
     <use xlink:href="#m6eae71512d" x="304.707564" y="646.294627" style="fill-opacity: 0; stroke: #595959; stroke-opacity: 0"/>
     <use xlink:href="#m6eae71512d" x="321.857109" y="635.93237" style="fill-opacity: 0; stroke: #595959; stroke-opacity: 0"/>
     <use xlink:href="#m6eae71512d" x="339.006653" y="642.276609" style="fill-opacity: 0; stroke: #595959; stroke-opacity: 0"/>
     <use xlink:href="#m6eae71512d" x="361.872713" y="634.0291" style="fill-opacity: 0; stroke: #595959; stroke-opacity: 0"/>
     <use xlink:href="#m6eae71512d" x="367.589228" y="639.10449" style="fill-opacity: 0; stroke: #595959; stroke-opacity: 0"/>
     <use xlink:href="#m6eae71512d" x="373.305743" y="645.448729" style="fill-opacity: 0; stroke: #595959; stroke-opacity: 0"/>
     <use xlink:href="#m6eae71512d" x="384.738772" y="645.448729" style="fill-opacity: 0; stroke: #595959; stroke-opacity: 0"/>
     <use xlink:href="#m6eae71512d" x="453.33695" y="619.561598" style="fill-opacity: 0; stroke: #595959; stroke-opacity: 0"/>
     <use xlink:href="#m6eae71512d" x="464.76998" y="626.980935" style="fill-opacity: 0; stroke: #595959; stroke-opacity: 0"/>
     <use xlink:href="#m6eae71512d" x="493.352554" y="576.508002" style="fill-opacity: 0; stroke: #595959; stroke-opacity: 0"/>
     <use xlink:href="#m6eae71512d" x="510.502099" y="609.286569" style="fill-opacity: 0; stroke: #595959; stroke-opacity: 0"/>
     <use xlink:href="#m6eae71512d" x="527.651644" y="548.326061" style="fill-opacity: 0; stroke: #595959; stroke-opacity: 0"/>
     <use xlink:href="#m6eae71512d" x="539.084673" y="598.264035" style="fill-opacity: 0; stroke: #595959; stroke-opacity: 0"/>
     <use xlink:href="#m6eae71512d" x="561.950733" y="635.509422" style="fill-opacity: 0; stroke: #595959; stroke-opacity: 0"/>
     <use xlink:href="#m6eae71512d" x="596.249822" y="536.11635" style="fill-opacity: 0; stroke: #595959; stroke-opacity: 0"/>
     <use xlink:href="#m6eae71512d" x="624.832396" y="617.957029" style="fill-opacity: 0; stroke: #595959; stroke-opacity: 0"/>
     <use xlink:href="#m6eae71512d" x="630.548911" y="643.968406" style="fill-opacity: 0; stroke: #595959; stroke-opacity: 0"/>
     <use xlink:href="#m6eae71512d" x="647.698455" y="625.147166" style="fill-opacity: 0; stroke: #595959; stroke-opacity: 0"/>
     <use xlink:href="#m6eae71512d" x="653.41497" y="635.297947" style="fill-opacity: 0; stroke: #595959; stroke-opacity: 0"/>
     <use xlink:href="#m6eae71512d" x="659.131485" y="595.117771" style="fill-opacity: 0; stroke: #595959; stroke-opacity: 0"/>
    </g>
   </g>
   <g id="PI-missed-2">
    <defs>
     <path id="m60eb978c77" d="M 0 4.005 
C 1.062138 4.005 2.080917 3.583008 2.831963 2.831963 
C 3.583008 2.080917 4.005 1.062138 4.005 0 
C 4.005 -1.062138 3.583008 -2.080917 2.831963 -2.831963 
C 2.080917 -3.583008 1.062138 -4.005 0 -4.005 
C -1.062138 -4.005 -2.080917 -3.583008 -2.831963 -2.831963 
C -3.583008 -2.080917 -4.005 -1.062138 -4.005 0 
C -4.005 1.062138 -3.583008 2.080917 -2.831963 2.831963 
C -2.080917 3.583008 -1.062138 4.005 0 4.005 
z
" style="stroke: #595959; stroke-opacity: 0"/>
    </defs>
    <g>
     <use xlink:href="#m60eb978c77" x="104.629545" y="528.503263" style="fill-opacity: 0; stroke: #595959; stroke-opacity: 0"/>
     <use xlink:href="#m60eb978c77" x="121.779089" y="535.481924" style="fill-opacity: 0; stroke: #595959; stroke-opacity: 0"/>
     <use xlink:href="#m60eb978c77" x="127.495604" y="522.581975" style="fill-opacity: 0; stroke: #595959; stroke-opacity: 0"/>
     <use xlink:href="#m60eb978c77" x="133.212119" y="520.044283" style="fill-opacity: 0; stroke: #595959; stroke-opacity: 0"/>
     <use xlink:href="#m60eb978c77" x="178.944238" y="532.309807" style="fill-opacity: 0; stroke: #595959; stroke-opacity: 0"/>
     <use xlink:href="#m60eb978c77" x="190.377267" y="516.872165" style="fill-opacity: 0; stroke: #595959; stroke-opacity: 0"/>
     <use xlink:href="#m60eb978c77" x="196.093782" y="519.409857" style="fill-opacity: 0; stroke: #595959; stroke-opacity: 0"/>
     <use xlink:href="#m60eb978c77" x="207.526812" y="560.647408" style="fill-opacity: 0; stroke: #595959; stroke-opacity: 0"/>
     <use xlink:href="#m60eb978c77" x="218.959842" y="589.9035" style="fill-opacity: 0; stroke: #595959; stroke-opacity: 0"/>
     <use xlink:href="#m60eb978c77" x="241.825901" y="625.039287" style="fill-opacity: 0; stroke: #595959; stroke-opacity: 0"/>
     <use xlink:href="#m60eb978c77" x="247.542416" y="628.530759" style="fill-opacity: 0; stroke: #595959; stroke-opacity: 0"/>
     <use xlink:href="#m60eb978c77" x="253.258931" y="583.909615" style="fill-opacity: 0; stroke: #595959; stroke-opacity: 0"/>
     <use xlink:href="#m60eb978c77" x="270.408475" y="526.17704" style="fill-opacity: 0; stroke: #595959; stroke-opacity: 0"/>
     <use xlink:href="#m60eb978c77" x="276.12499" y="625.781589" style="fill-opacity: 0; stroke: #595959; stroke-opacity: 0"/>
     <use xlink:href="#m60eb978c77" x="281.841505" y="637.624168" style="fill-opacity: 0; stroke: #595959; stroke-opacity: 0"/>
     <use xlink:href="#m60eb978c77" x="304.707564" y="646.294627" style="fill-opacity: 0; stroke: #595959; stroke-opacity: 0"/>
     <use xlink:href="#m60eb978c77" x="321.857109" y="635.93237" style="fill-opacity: 0; stroke: #595959; stroke-opacity: 0"/>
     <use xlink:href="#m60eb978c77" x="333.290139" y="634.663523" style="fill-opacity: 0; stroke: #595959; stroke-opacity: 0"/>
     <use xlink:href="#m60eb978c77" x="339.006653" y="642.276609" style="fill-opacity: 0; stroke: #595959; stroke-opacity: 0"/>
     <use xlink:href="#m60eb978c77" x="350.439683" y="615.207858" style="fill-opacity: 0; stroke: #595959; stroke-opacity: 0"/>
     <use xlink:href="#m60eb978c77" x="356.156198" y="623.878317" style="fill-opacity: 0; stroke: #595959; stroke-opacity: 0"/>
     <use xlink:href="#m60eb978c77" x="361.872713" y="634.0291" style="fill-opacity: 0; stroke: #595959; stroke-opacity: 0"/>
     <use xlink:href="#m60eb978c77" x="367.589228" y="639.10449" style="fill-opacity: 0; stroke: #595959; stroke-opacity: 0"/>
     <use xlink:href="#m60eb978c77" x="373.305743" y="645.448729" style="fill-opacity: 0; stroke: #595959; stroke-opacity: 0"/>
     <use xlink:href="#m60eb978c77" x="384.738772" y="645.448729" style="fill-opacity: 0; stroke: #595959; stroke-opacity: 0"/>
     <use xlink:href="#m60eb978c77" x="390.455287" y="638.681541" style="fill-opacity: 0; stroke: #595959; stroke-opacity: 0"/>
     <use xlink:href="#m60eb978c77" x="396.171802" y="641.430711" style="fill-opacity: 0; stroke: #595959; stroke-opacity: 0"/>
     <use xlink:href="#m60eb978c77" x="401.888317" y="642.699559" style="fill-opacity: 0; stroke: #595959; stroke-opacity: 0"/>
     <use xlink:href="#m60eb978c77" x="407.604832" y="635.297947" style="fill-opacity: 0; stroke: #595959; stroke-opacity: 0"/>
     <use xlink:href="#m60eb978c77" x="436.187406" y="642.065135" style="fill-opacity: 0; stroke: #595959; stroke-opacity: 0"/>
     <use xlink:href="#m60eb978c77" x="441.903921" y="638.250035" style="fill-opacity: 0; stroke: #595959; stroke-opacity: 0"/>
     <use xlink:href="#m60eb978c77" x="453.33695" y="619.561598" style="fill-opacity: 0; stroke: #595959; stroke-opacity: 0"/>
     <use xlink:href="#m60eb978c77" x="464.76998" y="626.980935" style="fill-opacity: 0; stroke: #595959; stroke-opacity: 0"/>
     <use xlink:href="#m60eb978c77" x="476.20301" y="626.416013" style="fill-opacity: 0; stroke: #595959; stroke-opacity: 0"/>
     <use xlink:href="#m60eb978c77" x="487.63604" y="624.301267" style="fill-opacity: 0; stroke: #595959; stroke-opacity: 0"/>
     <use xlink:href="#m60eb978c77" x="493.352554" y="576.508002" style="fill-opacity: 0; stroke: #595959; stroke-opacity: 0"/>
     <use xlink:href="#m60eb978c77" x="510.502099" y="609.286569" style="fill-opacity: 0; stroke: #595959; stroke-opacity: 0"/>
     <use xlink:href="#m60eb978c77" x="521.935129" y="619.726737" style="fill-opacity: 0; stroke: #595959; stroke-opacity: 0"/>
     <use xlink:href="#m60eb978c77" x="527.651644" y="548.326061" style="fill-opacity: 0; stroke: #595959; stroke-opacity: 0"/>
     <use xlink:href="#m60eb978c77" x="539.084673" y="598.264035" style="fill-opacity: 0; stroke: #595959; stroke-opacity: 0"/>
     <use xlink:href="#m60eb978c77" x="544.801188" y="580.314545" style="fill-opacity: 0; stroke: #595959; stroke-opacity: 0"/>
     <use xlink:href="#m60eb978c77" x="550.517703" y="631.491404" style="fill-opacity: 0; stroke: #595959; stroke-opacity: 0"/>
     <use xlink:href="#m60eb978c77" x="556.234218" y="590.042377" style="fill-opacity: 0; stroke: #595959; stroke-opacity: 0"/>
     <use xlink:href="#m60eb978c77" x="561.950733" y="635.509422" style="fill-opacity: 0; stroke: #595959; stroke-opacity: 0"/>
     <use xlink:href="#m60eb978c77" x="567.667248" y="579.891598" style="fill-opacity: 0; stroke: #595959; stroke-opacity: 0"/>
     <use xlink:href="#m60eb978c77" x="573.383762" y="577.565374" style="fill-opacity: 0; stroke: #595959; stroke-opacity: 0"/>
     <use xlink:href="#m60eb978c77" x="590.533307" y="607.171822" style="fill-opacity: 0; stroke: #595959; stroke-opacity: 0"/>
     <use xlink:href="#m60eb978c77" x="596.249822" y="536.11635" style="fill-opacity: 0; stroke: #595959; stroke-opacity: 0"/>
     <use xlink:href="#m60eb978c77" x="607.682851" y="579.468646" style="fill-opacity: 0; stroke: #595959; stroke-opacity: 0"/>
     <use xlink:href="#m60eb978c77" x="624.832396" y="617.957029" style="fill-opacity: 0; stroke: #595959; stroke-opacity: 0"/>
     <use xlink:href="#m60eb978c77" x="630.548911" y="643.968406" style="fill-opacity: 0; stroke: #595959; stroke-opacity: 0"/>
     <use xlink:href="#m60eb978c77" x="636.265426" y="646.717576" style="fill-opacity: 0; stroke: #595959; stroke-opacity: 0"/>
     <use xlink:href="#m60eb978c77" x="647.698455" y="625.147166" style="fill-opacity: 0; stroke: #595959; stroke-opacity: 0"/>
     <use xlink:href="#m60eb978c77" x="653.41497" y="635.297947" style="fill-opacity: 0; stroke: #595959; stroke-opacity: 0"/>
     <use xlink:href="#m60eb978c77" x="659.131485" y="595.117771" style="fill-opacity: 0; stroke: #595959; stroke-opacity: 0"/>
     <use xlink:href="#m60eb978c77" x="664.848" y="601.462007" style="fill-opacity: 0; stroke: #595959; stroke-opacity: 0"/>
    </g>
   </g>
   <g id="text_17">
    <text style="font-weight: 800; font-size: 20px; font-family: 'Source Sans 3', sans-serif; text-anchor: start" x="87.48" y="378.912" transform="rotate(-0 87.48 378.912)">Streamflow percentile</text>
   </g>
   <g id="legend-pi">
    <g id="patch_11">
     <path d="M 98.68 420.817 
L 423.7 420.817 
Q 426.9 420.817 426.9 417.617 
L 426.9 396.112 
Q 426.9 392.912 423.7 392.912 
L 98.68 392.912 
Q 95.48 392.912 95.48 396.112 
L 95.48 417.617 
Q 95.48 420.817 98.68 420.817 
L 98.68 420.817 
z
" style="fill: none; opacity: 0.8"/>
    </g>
    <g id="line2d_21">
     <path d="M 101.88 405.2645 
L 117.88 405.2645 
L 133.88 405.2645 
" style="fill: none; stroke-dasharray: 1.5,2.475; stroke-dashoffset: 0; stroke: #af3331; stroke-width: 1.5"/>
    </g>
    <g id="text_18">
     <text style="font-weight: 300; font-size: 16px; font-family: 'Source Sans 3', sans-serif; text-anchor: start; fill: #494949" x="146.68" y="410.8645" transform="rotate(-0 146.68 410.8645)">Observations</text>
    </g>
    <g id="line2d_22">
     <g>
      <use xlink:href="#m334a0ab3ac" x="278.8375" y="405.2645" style="fill-opacity: 0; stroke: #595959"/>
     </g>
    </g>
    <g id="text_19">
     <text style="font-weight: 300; font-size: 16px; font-family: 'Source Sans 3', sans-serif; text-anchor: start; fill: #494949" x="307.6375" y="410.8645" transform="rotate(-0 307.6375 410.8645)">Missed Prediction</text>
    </g>
   </g>
   <g id="legend-pi">
    <g id="patch_12">
     <path d="M 98.68 420.817 
L 423.7 420.817 
Q 426.9 420.817 426.9 417.617 
L 426.9 396.112 
Q 426.9 392.912 423.7 392.912 
L 98.68 392.912 
Q 95.48 392.912 95.48 396.112 
L 95.48 417.617 
Q 95.48 420.817 98.68 420.817 
L 98.68 420.817 
z
" style="fill: none; opacity: 0.8"/>
    </g>
    <g id="line2d_23">
     <path d="M 101.88 405.2645 
L 117.88 405.2645 
L 133.88 405.2645 
" style="fill: none; stroke-dasharray: 1.5,2.475; stroke-dashoffset: 0; stroke: #af3331; stroke-width: 1.5"/>
    </g>
    <g id="text_20">
     <text style="font-weight: 300; font-size: 16px; font-family: 'Source Sans 3', sans-serif; text-anchor: start; fill: #494949" x="146.68" y="410.8645" transform="rotate(-0 146.68 410.8645)">Observations</text>
    </g>
    <g id="line2d_24">
     <g>
      <use xlink:href="#m334a0ab3ac" x="278.8375" y="405.2645" style="fill-opacity: 0; stroke: #595959"/>
     </g>
    </g>
    <g id="text_21">
     <text style="font-weight: 300; font-size: 16px; font-family: 'Source Sans 3', sans-serif; text-anchor: start; fill: #494949" x="307.6375" y="410.8645" transform="rotate(-0 307.6375 410.8645)">Missed Prediction</text>
    </g>
   </g>
  </g>
 </g>
 <defs>
  <clipPath id="p99c6277df9">
   <rect x="87.48" y="34.992" width="577.368" height="262.44"/>
  </clipPath>
  <clipPath id="p0cbc5394bb">
   <rect x="87.48" y="384.912" width="577.368" height="262.44"/>
  </clipPath>
 </defs>
</svg>
