<?xml version="1.0" encoding="utf-8" standalone="no"?>
<!DOCTYPE svg PUBLIC "-//W3C//DTD SVG 1.1//EN"
  "http://www.w3.org/Graphics/SVG/1.1/DTD/svg11.dtd">
<svg xmlns:xlink="http://www.w3.org/1999/xlink" width="1199.52px" height="399.6px" viewBox="0 0 1199.52 399.6" xmlns="http://www.w3.org/2000/svg" version="1.1">
  <defs>
  <style type="text/css">*{stroke-linejoin: round; stroke-linecap: butt}</style>
 </defs>
 <g id="figure-predictioninterval">
  <g id="patch_1">
   <path d="M 0 399.6 
L 1199.52 399.6 
L 1199.52 0 
L 0 0 
z
" style="fill: #ffffff"/>
  </g>
  <g id="axis-predictioninterval1">
   <g id="patch_2">
    <path d="M 74.97 339.66 
L 404.838 339.66 
L 404.838 39.96 
L 74.97 39.96 
z
" style="fill: #ffffff"/>
   </g>
   <g id="LF-LOWER-MEDIAN">
    <path d="M 74.97 189.81 
L 239.904 339.66 
L 404.838 189.81 
" clip-path="url(#p9c5749cade)" style="fill: none; stroke: #00264c; stroke-opacity: 0; stroke-linecap: square"/>
   </g>
   <g id="matplotlib.axis_1">
    <g id="xtick_1">
     <g id="line2d_1">
      <defs>
       <path id="m745d5d369f" d="M 0 0 
L 0 3.5 
" style="stroke: #949494; stroke-width: 0.8"/>
      </defs>
      <g>
       <use xlink:href="#m745d5d369f" x="74.97" y="339.66" style="fill: #949494; stroke: #949494; stroke-width: 0.8"/>
      </g>
     </g>
     <g id="text_1">
      <text style="font-weight: 300; font-size: 16px; font-family: 'Source Sans 3', sans-serif; text-anchor: middle; fill: #494949" x="74.97" y="358.2125" transform="rotate(-0 74.97 358.2125)">Lower</text>
     </g>
    </g>
    <g id="xtick_2">
     <g id="line2d_2">
      <g>
       <use xlink:href="#m745d5d369f" x="239.904" y="339.66" style="fill: #949494; stroke: #949494; stroke-width: 0.8"/>
      </g>
     </g>
     <g id="text_2">
      <text style="font-weight: 300; font-size: 16px; font-family: 'Source Sans 3', sans-serif; text-anchor: middle; fill: #494949" x="239.904" y="358.2125" transform="rotate(-0 239.904 358.2125)">Median</text>
     </g>
    </g>
    <g id="xtick_3">
     <g id="line2d_3">
      <g>
       <use xlink:href="#m745d5d369f" x="404.838" y="339.66" style="fill: #949494; stroke: #949494; stroke-width: 0.8"/>
      </g>
     </g>
     <g id="text_3">
      <text style="font-weight: 300; font-size: 16px; font-family: 'Source Sans 3', sans-serif; text-anchor: middle; fill: #494949" x="404.838" y="358.2125" transform="rotate(-0 404.838 358.2125)">Upper</text>
     </g>
    </g>
    <g id="text_4">
     <text style="font-weight: 600; font-size: 16px; font-family: 'Source Sans 3', sans-serif; text-anchor: middle; fill: #494949" x="239.904" y="377.3175" transform="rotate(-0 239.904 377.3175)">Estimate</text>
    </g>
   </g>
   <g id="matplotlib.axis_2">
    <g id="ytick_1">
     <g id="line2d_4">
      <defs>
       <path id="m6bfe72fb06" d="M 0 0 
L -3.5 0 
" style="stroke: #949494; stroke-width: 0.8"/>
      </defs>
      <g>
       <use xlink:href="#m6bfe72fb06" x="74.97" y="339.66" style="fill: #949494; stroke: #949494; stroke-width: 0.8"/>
      </g>
     </g>
     <g id="text_5">
      <text style="font-weight: 300; font-size: 16px; font-family: 'Source Sans 3', sans-serif; fill: #494949" transform="translate(40.1625 329.176)">Less</text>
      <text style="font-weight: 300; font-size: 16px; font-family: 'Source Sans 3', sans-serif; fill: #494949" transform="translate(20.1625 346.5915)">Penalty</text>
      <text style="font-weight: 300; font-size: 16px; font-family: 'Source Sans 3', sans-serif; fill: #494949" transform="translate(67.97 364.007)"/>
     </g>
    </g>
    <g id="ytick_2">
     <g id="line2d_5">
      <g>
       <use xlink:href="#m6bfe72fb06" x="74.97" y="189.81" style="fill: #949494; stroke: #949494; stroke-width: 0.8"/>
      </g>
     </g>
    </g>
    <g id="ytick_3">
     <g id="line2d_6">
      <g>
       <use xlink:href="#m6bfe72fb06" x="74.97" y="39.96" style="fill: #949494; stroke: #949494; stroke-width: 0.8"/>
      </g>
     </g>
     <g id="text_6">
      <text style="font-weight: 300; font-size: 16px; font-family: 'Source Sans 3', sans-serif; fill: #494949" transform="translate(35.7475 38.18375)">More</text>
      <text style="font-weight: 300; font-size: 16px; font-family: 'Source Sans 3', sans-serif; fill: #494949" transform="translate(20.1625 55.59925)">Penalty</text>
     </g>
    </g>
   </g>
   <g id="LF-LOWER-0">
    <path d="M 74.97 324.675 
L 239.904 339.66 
L 404.838 54.945 
" clip-path="url(#p9c5749cade)" style="fill: none; stroke: #b78935; stroke-opacity: 0; stroke-linecap: square"/>
   </g>
   <g id="LF-UPPER-0">
    <path d="M 74.97 54.945 
L 239.904 339.66 
L 404.838 324.675 
" clip-path="url(#p9c5749cade)" style="fill: none; stroke: #406992; stroke-opacity: 0; stroke-linecap: square"/>
   </g>
   <g id="LF-LOWER-1">
    <path d="M 74.97 302.1975 
L 239.904 339.66 
L 404.838 77.4225 
" clip-path="url(#p9c5749cade)" style="fill: none; stroke: #b78935; stroke-opacity: 0; stroke-linecap: square"/>
   </g>
   <g id="LF-UPPER-1">
    <path d="M 74.97 77.4225 
L 239.904 339.66 
L 404.838 302.1975 
" clip-path="url(#p9c5749cade)" style="fill: none; stroke: #406992; stroke-opacity: 0; stroke-linecap: square"/>
   </g>
   <g id="LF-LOWER-2">
    <path d="M 74.97 264.735 
L 239.904 339.66 
L 404.838 114.885 
" clip-path="url(#p9c5749cade)" style="fill: none; stroke: #b78935; stroke-opacity: 0; stroke-linecap: square"/>
   </g>
   <g id="LF-UPPER-2">
    <path d="M 74.97 114.885 
L 239.904 339.66 
L 404.838 264.735 
" clip-path="url(#p9c5749cade)" style="fill: none; stroke: #406992; stroke-opacity: 0; stroke-linecap: square"/>
   </g>
   <g id="patch_3">
    <path d="M 74.97 339.66 
L 74.97 39.96 
" style="fill: none; stroke: #949494; stroke-width: 0.8; stroke-linejoin: miter; stroke-linecap: square"/>
   </g>
   <g id="patch_4">
    <path d="M 74.97 339.66 
L 404.838 339.66 
" style="fill: none; stroke: #949494; stroke-width: 0.8; stroke-linejoin: miter; stroke-linecap: square"/>
   </g>
   <g id="text_7">
    <text style="font-weight: 800; font-size: 20px; font-family: 'Source Sans 3', sans-serif; text-anchor: start" x="74.97" y="33.96" transform="rotate(-0 74.97 33.96)">Loss function</text>
   </g>
  </g>
  <g id="axis-predictioninterval2">
   <g id="patch_5">
    <path d="M 474.81 339.66 
L 1134.546 339.66 
L 1134.546 39.96 
L 474.81 39.96 
z
" style="fill: #ffffff"/>
   </g>
   <g id="PI-PATCH-0">
    <path d="M 474.81 238.446038 
L 474.81 294.087657 
L 481.34204 288.140791 
L 487.874079 307.25394 
L 494.406119 300.04062 
L 500.938158 302.065762 
L 507.470198 317.158694 
L 514.002238 305.398647 
L 520.534277 306.47959 
L 527.066317 303.000835 
L 533.598356 320.450146 
L 540.130396 321.430826 
L 546.662436 310.146629 
L 553.194475 323.802758 
L 559.726515 317.670664 
L 566.258554 313.457975 
L 572.790594 328.051735 
L 579.322634 300.396578 
L 585.854673 303.673066 
L 592.386713 313.111366 
L 598.918752 313.62021 
L 605.450792 297.572457 
L 611.982832 305.38554 
L 618.514871 291.058826 
L 625.046911 300.823479 
L 631.57895 301.839095 
L 638.11099 297.313687 
L 644.64303 308.880806 
L 651.175069 311.107568 
L 657.707109 325.376096 
L 664.239149 322.144488 
L 670.771188 311.218794 
L 677.303228 309.275515 
L 683.835267 297.317863 
L 690.367307 296.47863 
L 696.899347 331.867619 
L 703.431386 339.66 
L 709.963426 339.66 
L 716.495465 339.66 
L 723.027505 339.66 
L 729.559545 339.66 
L 736.091584 328.34803 
L 742.623624 332.211293 
L 749.155663 338.71024 
L 755.687703 335.784476 
L 762.219743 339.154505 
L 768.751782 339.66 
L 775.283822 335.344987 
L 781.815861 327.210102 
L 788.347901 328.298902 
L 794.879941 329.159659 
L 801.41198 339.66 
L 807.94402 339.66 
L 814.476059 338.473239 
L 821.008099 338.455245 
L 827.540139 339.66 
L 834.072178 339.66 
L 840.604218 337.978935 
L 847.136257 337.705431 
L 853.668297 339.66 
L 860.200337 336.728175 
L 866.732376 339.66 
L 873.264416 339.66 
L 879.796455 339.66 
L 886.328495 339.66 
L 892.860535 339.66 
L 899.392574 324.595902 
L 905.924614 316.119527 
L 912.456653 339.66 
L 918.988693 338.548251 
L 925.520733 339.66 
L 932.052772 338.40427 
L 938.584812 330.364351 
L 945.116851 307.01637 
L 951.648891 310.735764 
L 958.180931 307.944269 
L 964.71297 326.231565 
L 971.24501 333.552437 
L 977.77705 322.133947 
L 984.309089 308.089609 
L 990.841129 306.30884 
L 997.373168 329.893399 
L 1003.905208 312.841064 
L 1010.437248 338.01393 
L 1016.969287 310.986802 
L 1023.501327 337.291127 
L 1030.033366 297.026365 
L 1036.565406 305.948717 
L 1043.097446 289.714209 
L 1049.629485 300.473608 
L 1056.161525 308.193621 
L 1062.693564 290.226832 
L 1069.225604 302.927023 
L 1075.757644 307.867499 
L 1082.289683 314.38722 
L 1088.821723 310.162366 
L 1095.353762 324.60179 
L 1101.885802 339.66 
L 1108.417842 339.66 
L 1114.949881 339.66 
L 1121.481921 335.050669 
L 1128.01396 332.705636 
L 1134.546 318.976863 
L 1141.07804 316.059148 
L 1147.610079 331.760779 
L 6614.927228 299.364656 
L 6621.459267 306.496487 
L 6627.991307 305.172203 
L 6634.523347 297.608712 
L 6641.055386 296.616376 
L 6647.587426 304.960948 
L 6654.119465 292.34479 
L 6660.651505 298.13416 
L 6667.183545 319.508226 
L 6673.715584 294.801354 
L 6680.247624 296.239667 
L 6686.779663 318.238394 
L 6693.311703 315.396309 
L 6699.843743 289.433258 
L 6706.375782 293.602698 
L 6712.907822 301.501921 
L 6719.439861 307.083339 
L 6725.971901 304.879471 
L 6732.503941 304.748272 
L 6739.03598 307.232535 
L 6745.56802 294.350894 
L 6752.100059 296.713093 
L 6758.632099 295.575839 
L 6765.164139 291.925789 
L 6771.696178 300.02556 
L 6778.228218 295.400479 
L 6784.760257 291.360025 
L 6791.292297 295.438044 
L 6797.824337 288.55144 
L 6804.356376 291.053229 
L 6810.888416 307.174832 
L 6817.420455 290.934153 
L 6823.952495 294.345423 
L 6830.484535 301.94032 
L 6837.016574 284.044182 
L 6843.548614 289.305578 
L 6850.080653 287.81448 
L 6856.612693 302.647738 
L 6863.144733 301.543004 
L 6869.676772 307.769941 
L 6876.208812 312.088941 
L 6882.740851 309.76166 
L 6889.272891 303.345321 
L 6895.804931 305.14367 
L 6902.33697 308.824143 
L 6908.86901 309.300135 
L 6915.40105 299.864777 
L 6921.933089 290.963695 
L 6928.465129 292.118535 
L 6934.997168 303.676464 
L 6941.529208 294.692278 
L 6948.061248 305.375793 
L 6954.593287 309.510044 
L 6961.125327 299.461121 
L 6967.657366 300.199262 
L 6974.189406 315.797229 
L 6980.721446 289.348181 
L 6987.253485 299.090655 
L 6993.785525 296.178917 
L 7000.317564 310.391387 
L 7006.849604 305.650834 
L 7013.381644 299.303008 
L 7019.913683 314.335159 
L 7026.445723 311.89869 
L 7032.977762 308.680511 
L 7039.509802 281.563715 
L 7046.041842 284.125051 
L 7052.573881 286.317307 
L 7059.105921 284.076382 
L 7065.63796 284.368555 
L 7072.17 308.393615 
L 7078.70204 310.02151 
L 7085.234079 312.345633 
L 7091.766119 307.645222 
L 7098.298158 298.854325 
L 7104.830198 298.308359 
L 7111.362238 297.207807 
L 7111.362238 226.087449 
L 7111.362238 226.087449 
L 7104.830198 232.301596 
L 7098.298158 237.445361 
L 7091.766119 244.187994 
L 7085.234079 245.660611 
L 7078.70204 243.081222 
L 7072.17 241.417212 
L 7065.63796 226.40195 
L 7059.105921 226.128652 
L 7052.573881 226.741065 
L 7046.041842 222.399883 
L 7039.509802 216.578641 
L 7032.977762 240.198537 
L 7026.445723 250.021897 
L 7019.913683 242.532478 
L 7013.381644 227.119177 
L 7006.849604 239.540428 
L 7000.317564 242.085267 
L 6993.785525 235.504098 
L 6987.253485 239.157778 
L 6980.721446 231.113973 
L 6974.189406 248.187946 
L 6967.657366 232.649057 
L 6961.125327 236.480766 
L 6954.593287 238.290931 
L 6948.061248 238.892552 
L 6941.529208 232.461676 
L 6934.997168 246.625332 
L 6928.465129 227.98113 
L 6921.933089 237.046339 
L 6915.40105 245.190226 
L 6908.86901 245.213931 
L 6902.33697 244.214506 
L 6895.804931 241.982579 
L 6889.272891 240.820816 
L 6882.740851 244.898104 
L 6876.208812 241.3196 
L 6869.676772 236.671337 
L 6863.144733 240.39032 
L 6856.612693 242.932586 
L 6850.080653 227.660318 
L 6843.548614 229.523691 
L 6837.016574 231.5424 
L 6830.484535 244.793267 
L 6823.952495 230.595273 
L 6817.420455 232.870336 
L 6810.888416 246.060313 
L 6804.356376 230.884725 
L 6797.824337 228.533338 
L 6791.292297 224.18764 
L 6784.760257 221.366291 
L 6778.228218 229.846058 
L 6771.696178 242.475715 
L 6765.164139 235.551772 
L 6758.632099 240.949125 
L 6752.100059 237.289214 
L 6745.56802 231.236839 
L 6739.03598 235.815077 
L 6732.503941 234.125206 
L 6725.971901 233.282254 
L 6719.439861 234.647027 
L 6712.907822 229.989606 
L 6706.375782 231.055426 
L 6699.843743 224.401534 
L 6693.311703 244.089433 
L 6686.779663 242.411383 
L 6680.247624 228.072911 
L 6673.715584 221.572811 
L 6667.183545 252.333178 
L 6660.651505 233.840876 
L 6654.119465 231.25807 
L 6647.587426 248.821057 
L 6641.055386 237.814739 
L 6634.523347 246.699301 
L 6627.991307 255.868359 
L 6621.459267 258.923899 
L 6614.927228 243.397129 
L 1147.610079 281.945056 
L 1141.07804 263.098897 
L 1134.546 260.202578 
L 1128.01396 275.281886 
L 1121.481921 282.623024 
L 1114.949881 288.800569 
L 1108.417842 292.04923 
L 1101.885802 284.68956 
L 1095.353762 266.544702 
L 1088.821723 253.474145 
L 1082.289683 255.632978 
L 1075.757644 251.460621 
L 1069.225604 243.288576 
L 1062.693564 227.833889 
L 1056.161525 247.97032 
L 1049.629485 240.940287 
L 1043.097446 226.306213 
L 1036.565406 246.726865 
L 1030.033366 235.688998 
L 1023.501327 272.971177 
L 1016.969287 249.620914 
L 1010.437248 270.531027 
L 1003.905208 251.9523 
L 997.373168 267.451609 
L 990.841129 231.387922 
L 984.309089 244.87449 
L 977.77705 261.491101 
L 971.24501 274.663603 
L 964.71297 265.459458 
L 958.180931 252.341375 
L 951.648891 254.486746 
L 945.116851 248.093444 
L 938.584812 279.207983 
L 932.052772 285.901198 
L 925.520733 285.311445 
L 918.988693 275.972247 
L 912.456653 290.147215 
L 905.924614 265.817203 
L 899.392574 271.010026 
L 892.860535 290.472257 
L 886.328495 285.48457 
L 879.796455 292.145585 
L 873.264416 280.182811 
L 866.732376 280.452553 
L 860.200337 280.776805 
L 853.668297 290.432682 
L 847.136257 287.29992 
L 840.604218 281.09756 
L 834.072178 288.085337 
L 827.540139 287.809038 
L 821.008099 282.846652 
L 814.476059 291.261881 
L 807.94402 299.272163 
L 801.41198 288.737832 
L 794.879941 274.085002 
L 788.347901 279.008306 
L 781.815861 279.178367 
L 775.283822 284.17249 
L 768.751782 287.939811 
L 762.219743 284.691996 
L 755.687703 281.117613 
L 749.155663 283.354747 
L 742.623624 277.142738 
L 736.091584 265.355107 
L 729.559545 287.515248 
L 723.027505 286.186534 
L 716.495465 287.480173 
L 709.963426 289.147264 
L 703.431386 285.328022 
L 696.899347 271.867532 
L 690.367307 241.403733 
L 683.835267 242.533084 
L 677.303228 255.578215 
L 670.771188 252.376559 
L 664.239149 258.602642 
L 657.707109 261.786103 
L 651.175069 250.70789 
L 644.64303 235.189448 
L 638.11099 222.407142 
L 631.57895 247.410251 
L 625.046911 248.192805 
L 618.514871 235.716059 
L 611.982832 240.876413 
L 605.450792 228.436572 
L 598.918752 240.551383 
L 592.386713 235.469434 
L 585.854673 237.993763 
L 579.322634 234.157343 
L 572.790594 246.106324 
L 566.258554 232.369643 
L 559.726515 243.703981 
L 553.194475 244.91387 
L 546.662436 237.821358 
L 540.130396 242.758341 
L 533.598356 247.549821 
L 527.066317 229.330594 
L 520.534277 242.377326 
L 514.002238 244.811005 
L 507.470198 251.195081 
L 500.938158 236.624577 
L 494.406119 237.419078 
L 487.874079 240.80257 
L 481.34204 227.276479 
L 474.81 238.446038 
z
" clip-path="url(#p1e1f92b4b1)" style="fill: #e6e6e6; fill-opacity: 0.00001"/>
   </g>
   <g id="PI-PATCH-LOWER-0">
    <path d="M 474.81 294.087657 
L 481.34204 288.140791 
L 487.874079 307.25394 
L 494.406119 300.04062 
L 500.938158 302.065762 
L 507.470198 317.158694 
L 514.002238 305.398647 
L 520.534277 306.47959 
L 527.066317 303.000835 
L 533.598356 320.450146 
L 540.130396 321.430826 
L 546.662436 310.146629 
L 553.194475 323.802758 
L 559.726515 317.670664 
L 566.258554 313.457975 
L 572.790594 328.051735 
L 579.322634 300.396578 
L 585.854673 303.673066 
L 592.386713 313.111366 
L 598.918752 313.62021 
L 605.450792 297.572457 
L 611.982832 305.38554 
L 618.514871 291.058826 
L 625.046911 300.823479 
L 631.57895 301.839095 
L 638.11099 297.313687 
L 644.64303 308.880806 
L 651.175069 311.107568 
L 657.707109 325.376096 
L 664.239149 322.144488 
L 670.771188 311.218794 
L 677.303228 309.275515 
L 683.835267 297.317863 
L 690.367307 296.47863 
L 696.899347 331.867619 
L 703.431386 339.66 
L 729.559545 339.66 
L 736.091584 328.34803 
L 742.623624 332.211293 
L 749.155663 338.71024 
L 755.687703 335.784476 
L 762.219743 339.154505 
L 768.751782 339.66 
L 775.283822 335.344987 
L 781.815861 327.210102 
L 788.347901 328.298902 
L 794.879941 329.159659 
L 801.41198 339.66 
L 807.94402 339.66 
L 814.476059 338.473239 
L 821.008099 338.455245 
L 827.540139 339.66 
L 834.072178 339.66 
L 840.604218 337.978935 
L 847.136257 337.705431 
L 853.668297 339.66 
L 860.200337 336.728175 
L 866.732376 339.66 
L 892.860535 339.66 
L 899.392574 324.595902 
L 905.924614 316.119527 
L 912.456653 339.66 
L 918.988693 338.548251 
L 925.520733 339.66 
L 932.052772 338.40427 
L 938.584812 330.364351 
L 945.116851 307.01637 
L 951.648891 310.735764 
L 958.180931 307.944269 
L 964.71297 326.231565 
L 971.24501 333.552437 
L 977.77705 322.133947 
L 984.309089 308.089609 
L 990.841129 306.30884 
L 997.373168 329.893399 
L 1003.905208 312.841064 
L 1010.437248 338.01393 
L 1016.969287 310.986802 
L 1023.501327 337.291127 
L 1030.033366 297.026365 
L 1036.565406 305.948717 
L 1043.097446 289.714209 
L 1049.629485 300.473608 
L 1056.161525 308.193621 
L 1062.693564 290.226832 
L 1069.225604 302.927023 
L 1075.757644 307.867499 
L 1082.289683 314.38722 
L 1088.821723 310.162366 
L 1095.353762 324.60179 
L 1101.885802 339.66 
L 1114.949881 339.66 
L 1121.481921 335.050669 
L 1128.01396 332.705636 
L 1134.546 318.976863 
L 1141.07804 316.059148 
L 1147.610079 331.760779 
L 1200.52 331.447265 
L 1200.52 331.447265 
" clip-path="url(#p1e1f92b4b1)" style="fill: none; stroke: #b78935; stroke-opacity: 0; stroke-linecap: square"/>
   </g>
   <g id="PI-PATCH-UPPER-0">
    <path d="M 474.81 238.446038 
L 481.34204 227.276479 
L 487.874079 240.80257 
L 494.406119 237.419078 
L 500.938158 236.624577 
L 507.470198 251.195081 
L 514.002238 244.811005 
L 520.534277 242.377326 
L 527.066317 229.330594 
L 533.598356 247.549821 
L 540.130396 242.758341 
L 546.662436 237.821358 
L 553.194475 244.91387 
L 559.726515 243.703981 
L 566.258554 232.369643 
L 572.790594 246.106324 
L 579.322634 234.157343 
L 585.854673 237.993763 
L 592.386713 235.469434 
L 598.918752 240.551383 
L 605.450792 228.436572 
L 611.982832 240.876413 
L 618.514871 235.716059 
L 625.046911 248.192805 
L 631.57895 247.410251 
L 638.11099 222.407142 
L 644.64303 235.189448 
L 651.175069 250.70789 
L 657.707109 261.786103 
L 664.239149 258.602642 
L 670.771188 252.376559 
L 677.303228 255.578215 
L 683.835267 242.533084 
L 690.367307 241.403733 
L 696.899347 271.867532 
L 703.431386 285.328022 
L 709.963426 289.147264 
L 716.495465 287.480173 
L 723.027505 286.186534 
L 729.559545 287.515248 
L 736.091584 265.355107 
L 742.623624 277.142738 
L 749.155663 283.354747 
L 755.687703 281.117613 
L 762.219743 284.691996 
L 768.751782 287.939811 
L 775.283822 284.17249 
L 781.815861 279.178367 
L 788.347901 279.008306 
L 794.879941 274.085002 
L 801.41198 288.737832 
L 807.94402 299.272163 
L 814.476059 291.261881 
L 821.008099 282.846652 
L 827.540139 287.809038 
L 834.072178 288.085337 
L 840.604218 281.09756 
L 847.136257 287.29992 
L 853.668297 290.432682 
L 860.200337 280.776805 
L 873.264416 280.182811 
L 879.796455 292.145585 
L 886.328495 285.48457 
L 892.860535 290.472257 
L 899.392574 271.010026 
L 905.924614 265.817203 
L 912.456653 290.147215 
L 918.988693 275.972247 
L 925.520733 285.311445 
L 932.052772 285.901198 
L 938.584812 279.207983 
L 945.116851 248.093444 
L 951.648891 254.486746 
L 958.180931 252.341375 
L 964.71297 265.459458 
L 971.24501 274.663603 
L 977.77705 261.491101 
L 984.309089 244.87449 
L 990.841129 231.387922 
L 997.373168 267.451609 
L 1003.905208 251.9523 
L 1010.437248 270.531027 
L 1016.969287 249.620914 
L 1023.501327 272.971177 
L 1030.033366 235.688998 
L 1036.565406 246.726865 
L 1043.097446 226.306213 
L 1049.629485 240.940287 
L 1056.161525 247.97032 
L 1062.693564 227.833889 
L 1069.225604 243.288576 
L 1075.757644 251.460621 
L 1082.289683 255.632978 
L 1088.821723 253.474145 
L 1095.353762 266.544702 
L 1101.885802 284.68956 
L 1108.417842 292.04923 
L 1114.949881 288.800569 
L 1121.481921 282.623024 
L 1128.01396 275.281886 
L 1134.546 260.202578 
L 1141.07804 263.098897 
L 1147.610079 281.945056 
L 1200.52 281.572009 
L 1200.52 281.572009 
" clip-path="url(#p1e1f92b4b1)" style="fill: none; stroke: #406992; stroke-opacity: 0; stroke-linecap: square"/>
   </g>
   <g id="PI-PATCH-1">
    <path d="M 474.81 248.994086 
L 474.81 285.91448 
L 481.34204 277.423214 
L 487.874079 295.979093 
L 494.406119 289.131129 
L 500.938158 290.421416 
L 507.470198 305.960142 
L 514.002238 295.153636 
L 520.534277 295.69846 
L 527.066317 290.107059 
L 533.598356 308.257104 
L 540.130396 308.130518 
L 546.662436 297.661664 
L 553.194475 310.553095 
L 559.726515 304.984759 
L 566.258554 299.353788 
L 572.790594 313.885997 
L 579.322634 288.868085 
L 585.854673 292.20089 
L 592.386713 299.438855 
L 598.918752 300.888153 
L 605.450792 285.135116 
L 611.982832 294.358587 
L 618.514871 281.887176 
L 625.046911 292.806091 
L 631.57895 294.391957 
L 638.11099 284.889181 
L 644.64303 296.53522 
L 651.175069 301.464746 
L 657.707109 319.021949 
L 664.239149 316.060266 
L 670.771188 303.598272 
L 677.303228 302.327804 
L 683.835267 289.727195 
L 690.367307 288.14086 
L 696.899347 326.015736 
L 703.431386 335.145496 
L 709.963426 337.339895 
L 716.495465 335.091893 
L 723.027505 335.071121 
L 729.559545 336.162082 
L 736.091584 321.15995 
L 742.623624 325.160738 
L 749.155663 333.078368 
L 755.687703 330.168538 
L 762.219743 333.958437 
L 768.751782 335.85074 
L 775.283822 330.221275 
L 781.815861 321.70093 
L 788.347901 323.345665 
L 794.879941 324.032161 
L 801.41198 336.096501 
L 807.94402 338.878675 
L 814.476059 334.444907 
L 821.008099 333.829342 
L 827.540139 335.536797 
L 834.072178 335.823322 
L 840.604218 333.221562 
L 847.136257 333.421759 
L 853.668297 335.921302 
L 860.200337 331.914601 
L 866.732376 334.626668 
L 873.264416 334.764662 
L 879.796455 338.049072 
L 886.328495 335.228436 
L 892.860535 335.75712 
L 899.392574 318.344609 
L 905.924614 309.290528 
L 912.456653 335.534472 
L 918.988693 333.121402 
L 925.520733 334.582902 
L 932.052772 333.857022 
L 938.584812 325.044003 
L 945.116851 297.985877 
L 951.648891 301.755196 
L 958.180931 299.964015 
L 964.71297 319.266041 
L 971.24501 327.454201 
L 977.77705 315.437163 
L 984.309089 298.244751 
L 990.841129 294.588525 
L 997.373168 321.706672 
L 1003.905208 304.44177 
L 1010.437248 331.865599 
L 1016.969287 303.282533 
L 1023.501327 331.48762 
L 1030.033366 288.747603 
L 1036.565406 297.550293 
L 1043.097446 279.854657 
L 1049.629485 291.223911 
L 1056.161525 300.793616 
L 1062.693564 280.081505 
L 1069.225604 292.555843 
L 1075.757644 298.682373 
L 1082.289683 306.170898 
L 1088.821723 301.504977 
L 1095.353762 317.645537 
L 1101.885802 335.69742 
L 1108.417842 337.650971 
L 1114.949881 336.234023 
L 1121.481921 329.978085 
L 1128.01396 327.575556 
L 1134.546 311.434541 
L 1141.07804 309.474122 
L 1147.610079 326.861657 
L 6614.927228 291.253382 
L 6621.459267 299.819037 
L 6627.991307 298.686355 
L 6634.523347 289.845348 
L 6641.055386 287.265767 
L 6647.587426 296.017895 
L 6654.119465 282.037852 
L 6660.651505 287.517083 
L 6667.183545 308.731945 
L 6673.715584 282.814574 
L 6680.247624 284.599754 
L 6686.779663 305.405928 
L 6693.311703 303.898015 
L 6699.843743 278.310393 
L 6706.375782 283.174936 
L 6712.907822 289.043977 
L 6719.439861 294.833751 
L 6725.971901 292.41739 
L 6732.503941 293.200987 
L 6739.03598 295.420156 
L 6745.56802 284.764397 
L 6752.100059 287.495665 
L 6758.632099 286.751462 
L 6765.164139 284.238816 
L 6771.696178 292.997013 
L 6778.228218 285.286683 
L 6784.760257 280.252722 
L 6791.292297 284.42113 
L 6797.824337 279.584099 
L 6804.356376 282.435941 
L 6810.888416 301.029932 
L 6817.420455 282.876303 
L 6823.952495 285.626867 
L 6830.484535 294.436866 
L 6837.016574 276.380635 
L 6843.548614 281.31525 
L 6850.080653 279.453075 
L 6856.612693 293.218785 
L 6863.144733 291.060283 
L 6869.676772 295.414197 
L 6876.208812 299.347005 
L 6882.740851 297.780186 
L 6889.272891 291.772003 
L 6895.804931 293.297778 
L 6902.33697 296.607978 
L 6908.86901 297.300343 
L 6915.40105 289.771213 
L 6921.933089 281.350723 
L 6928.465129 280.995825 
L 6934.997168 293.94281 
L 6941.529208 284.262033 
L 6948.061248 294.396348 
L 6954.593287 298.238602 
L 6961.125327 289.37736 
L 6967.657366 289.123866 
L 6974.189406 305.298565 
L 6980.721446 280.106335 
L 6987.253485 289.304969 
L 6993.785525 286.239687 
L 7000.317564 299.404973 
L 7006.849604 297.771744 
L 7013.381644 287.717021 
L 7019.913683 302.700148 
L 7026.445723 304.471724 
L 7032.977762 297.738489 
L 7039.509802 271.474845 
L 7046.041842 273.914234 
L 7052.573881 276.982152 
L 7059.105921 274.575136 
L 7065.63796 274.845545 
L 7072.17 300.465349 
L 7078.70204 302.374231 
L 7085.234079 304.98801 
L 7091.766119 299.668541 
L 7098.298158 289.536087 
L 7104.830198 287.422152 
L 7111.362238 285.766341 
L 7111.362238 238.158909 
L 7111.362238 238.158909 
L 7104.830198 243.125808 
L 7098.298158 248.664152 
L 7091.766119 258.124922 
L 7085.234079 261.760168 
L 7078.70204 258.87147 
L 7072.17 256.82324 
L 7065.63796 235.960411 
L 7059.105921 235.710475 
L 7052.573881 237.206546 
L 7046.041842 232.478346 
L 7039.509802 228.127338 
L 7032.977762 251.928559 
L 7026.445723 264.109701 
L 7019.913683 254.60091 
L 7013.381644 239.408826 
L 7006.849604 254.6716 
L 7000.317564 253.682338 
L 6993.785525 245.549841 
L 6987.253485 249.126082 
L 6980.721446 241.177766 
L 6974.189406 260.199611 
L 6967.657366 243.819095 
L 6961.125327 247.238951 
L 6954.593287 250.642875 
L 6948.061248 249.774112 
L 6941.529208 242.430003 
L 6934.997168 255.520682 
L 6928.465129 237.725962 
L 6921.933089 244.865829 
L 6915.40105 252.629294 
L 6908.86901 253.694212 
L 6902.33697 252.596149 
L 6895.804931 250.313033 
L 6889.272891 249.284605 
L 6882.740851 253.713709 
L 6876.208812 251.406607 
L 6869.676772 247.437199 
L 6863.144733 249.855262 
L 6856.612693 253.320289 
L 6850.080653 239.737078 
L 6843.548614 241.978697 
L 6837.016574 241.563912 
L 6830.484535 256.890418 
L 6823.952495 243.596388 
L 6817.420455 244.54587 
L 6810.888416 261.66344 
L 6804.356376 242.604212 
L 6797.824337 239.696411 
L 6791.292297 236.913094 
L 6784.760257 233.463447 
L 6778.228218 241.58596 
L 6771.696178 255.406827 
L 6765.164139 247.080971 
L 6758.632099 250.169549 
L 6752.100059 247.861063 
L 6745.56802 242.753618 
L 6739.03598 247.47861 
L 6732.503941 245.848665 
L 6725.971901 244.095693 
L 6719.439861 246.095804 
L 6712.907822 240.775127 
L 6706.375782 241.153291 
L 6699.843743 234.50203 
L 6693.311703 256.154503 
L 6686.779663 254.38262 
L 6680.247624 238.687509 
L 6673.715584 233.709651 
L 6667.183545 263.778232 
L 6660.651505 244.364998 
L 6654.119465 240.946117 
L 6647.587426 258.475288 
L 6641.055386 247.950051 
L 6634.523347 255.94555 
L 6627.991307 266.287896 
L 6621.459267 268.382706 
L 6614.927228 254.162682 
L 1147.610079 294.819126 
L 1141.07804 274.832777 
L 1134.546 272.892133 
L 1128.01396 290.855871 
L 1121.481921 296.290419 
L 1114.949881 304.179686 
L 1108.417842 308.145572 
L 1101.885802 300.943419 
L 1095.353762 279.780218 
L 1088.821723 263.751804 
L 1082.289683 267.358461 
L 1075.757644 260.877707 
L 1069.225604 252.309168 
L 1062.693564 238.270985 
L 1056.161525 261.438378 
L 1049.629485 251.509914 
L 1043.097446 237.552624 
L 1036.565406 258.380109 
L 1030.033366 248.353836 
L 1023.501327 290.334152 
L 1016.969287 263.112043 
L 1010.437248 288.66352 
L 1003.905208 264.267642 
L 997.373168 280.686496 
L 990.841129 244.576217 
L 984.309089 256.06499 
L 977.77705 276.12366 
L 971.24501 289.447235 
L 964.71297 279.762238 
L 958.180931 263.147683 
L 951.648891 264.131186 
L 945.116851 258.731119 
L 938.584812 292.018024 
L 932.052772 300.343819 
L 925.520733 299.736844 
L 918.988693 293.17554 
L 912.456653 303.998107 
L 905.924614 276.147303 
L 899.392574 283.466282 
L 892.860535 304.509636 
L 886.328495 300.756791 
L 879.796455 308.768306 
L 873.264416 296.906931 
L 866.732376 296.873582 
L 860.200337 296.213847 
L 853.668297 304.718709 
L 847.136257 301.281729 
L 840.604218 296.984412 
L 834.072178 303.166477 
L 827.540139 302.593683 
L 821.008099 298.413507 
L 814.476059 304.334819 
L 807.94402 314.235759 
L 801.41198 303.946835 
L 794.879941 288.727852 
L 788.347901 291.596641 
L 781.815861 290.477136 
L 775.283822 297.267884 
L 768.751782 303.117756 
L 762.219743 298.993978 
L 755.687703 294.905313 
L 749.155663 297.393878 
L 742.623624 289.055226 
L 736.091584 280.225933 
L 729.559545 303.303794 
L 723.027505 300.956257 
L 716.495465 301.764572 
L 709.963426 305.957141 
L 703.431386 300.544886 
L 696.899347 287.442837 
L 690.367307 251.492778 
L 683.835267 253.566473 
L 677.303228 267.090913 
L 670.771188 264.982224 
L 664.239149 275.257773 
L 657.707109 278.077494 
L 651.175069 261.064611 
L 644.64303 247.001481 
L 638.11099 234.590795 
L 631.57895 258.505603 
L 625.046911 257.763671 
L 618.514871 244.728809 
L 611.982832 250.905003 
L 605.450792 238.305642 
L 598.918752 251.567462 
L 592.386713 246.971263 
L 585.854673 247.856445 
L 579.322634 244.162958 
L 572.790594 258.621017 
L 566.258554 244.630583 
L 559.726515 255.142821 
L 553.194475 257.511739 
L 546.662436 248.892056 
L 540.130396 255.198252 
L 533.598356 259.26346 
L 527.066317 240.356595 
L 520.534277 252.592718 
L 514.002238 254.388294 
L 507.470198 261.559049 
L 500.938158 246.148274 
L 494.406119 246.863146 
L 487.874079 251.252407 
L 481.34204 236.293512 
L 474.81 248.994086 
z
" clip-path="url(#p1e1f92b4b1)" style="fill: #bfbfbf; fill-opacity: 0.00001"/>
   </g>
   <g id="PI-PATCH-LOWER-1">
    <path d="M 474.81 285.91448 
L 481.34204 277.423214 
L 487.874079 295.979093 
L 494.406119 289.131129 
L 500.938158 290.421416 
L 507.470198 305.960142 
L 514.002238 295.153636 
L 520.534277 295.69846 
L 527.066317 290.107059 
L 533.598356 308.257104 
L 540.130396 308.130518 
L 546.662436 297.661664 
L 553.194475 310.553095 
L 566.258554 299.353788 
L 572.790594 313.885997 
L 579.322634 288.868085 
L 585.854673 292.20089 
L 592.386713 299.438855 
L 598.918752 300.888153 
L 605.450792 285.135116 
L 611.982832 294.358587 
L 618.514871 281.887176 
L 625.046911 292.806091 
L 631.57895 294.391957 
L 638.11099 284.889181 
L 644.64303 296.53522 
L 651.175069 301.464746 
L 657.707109 319.021949 
L 664.239149 316.060266 
L 670.771188 303.598272 
L 677.303228 302.327804 
L 683.835267 289.727195 
L 690.367307 288.14086 
L 696.899347 326.015736 
L 703.431386 335.145496 
L 709.963426 337.339895 
L 716.495465 335.091893 
L 723.027505 335.071121 
L 729.559545 336.162082 
L 736.091584 321.15995 
L 742.623624 325.160738 
L 749.155663 333.078368 
L 755.687703 330.168538 
L 762.219743 333.958437 
L 768.751782 335.85074 
L 775.283822 330.221275 
L 781.815861 321.70093 
L 788.347901 323.345665 
L 794.879941 324.032161 
L 801.41198 336.096501 
L 807.94402 338.878675 
L 814.476059 334.444907 
L 821.008099 333.829342 
L 827.540139 335.536797 
L 834.072178 335.823322 
L 840.604218 333.221562 
L 847.136257 333.421759 
L 853.668297 335.921302 
L 860.200337 331.914601 
L 866.732376 334.626668 
L 873.264416 334.764662 
L 879.796455 338.049072 
L 886.328495 335.228436 
L 892.860535 335.75712 
L 899.392574 318.344609 
L 905.924614 309.290528 
L 912.456653 335.534472 
L 918.988693 333.121402 
L 925.520733 334.582902 
L 932.052772 333.857022 
L 938.584812 325.044003 
L 945.116851 297.985877 
L 951.648891 301.755196 
L 958.180931 299.964015 
L 964.71297 319.266041 
L 971.24501 327.454201 
L 977.77705 315.437163 
L 984.309089 298.244751 
L 990.841129 294.588525 
L 997.373168 321.706672 
L 1003.905208 304.44177 
L 1010.437248 331.865599 
L 1016.969287 303.282533 
L 1023.501327 331.48762 
L 1030.033366 288.747603 
L 1036.565406 297.550293 
L 1043.097446 279.854657 
L 1049.629485 291.223911 
L 1056.161525 300.793616 
L 1062.693564 280.081505 
L 1069.225604 292.555843 
L 1075.757644 298.682373 
L 1082.289683 306.170898 
L 1088.821723 301.504977 
L 1095.353762 317.645537 
L 1101.885802 335.69742 
L 1108.417842 337.650971 
L 1114.949881 336.234023 
L 1121.481921 329.978085 
L 1128.01396 327.575556 
L 1134.546 311.434541 
L 1141.07804 309.474122 
L 1147.610079 326.861657 
L 1200.52 326.517059 
L 1200.52 326.517059 
" clip-path="url(#p1e1f92b4b1)" style="fill: none; stroke: #b78935; stroke-opacity: 0; stroke-linecap: square"/>
   </g>
   <g id="PI-PATCH-UPPER-1">
    <path d="M 474.81 248.994086 
L 481.34204 236.293512 
L 487.874079 251.252407 
L 494.406119 246.863146 
L 500.938158 246.148274 
L 507.470198 261.559049 
L 514.002238 254.388294 
L 520.534277 252.592718 
L 527.066317 240.356595 
L 533.598356 259.26346 
L 540.130396 255.198252 
L 546.662436 248.892056 
L 553.194475 257.511739 
L 559.726515 255.142821 
L 566.258554 244.630583 
L 572.790594 258.621017 
L 579.322634 244.162958 
L 585.854673 247.856445 
L 592.386713 246.971263 
L 598.918752 251.567462 
L 605.450792 238.305642 
L 611.982832 250.905003 
L 618.514871 244.728809 
L 625.046911 257.763671 
L 631.57895 258.505603 
L 638.11099 234.590795 
L 644.64303 247.001481 
L 651.175069 261.064611 
L 657.707109 278.077494 
L 664.239149 275.257773 
L 670.771188 264.982224 
L 677.303228 267.090913 
L 683.835267 253.566473 
L 690.367307 251.492778 
L 696.899347 287.442837 
L 703.431386 300.544886 
L 709.963426 305.957141 
L 716.495465 301.764572 
L 723.027505 300.956257 
L 729.559545 303.303794 
L 736.091584 280.225933 
L 742.623624 289.055226 
L 749.155663 297.393878 
L 755.687703 294.905313 
L 768.751782 303.117756 
L 775.283822 297.267884 
L 781.815861 290.477136 
L 788.347901 291.596641 
L 794.879941 288.727852 
L 801.41198 303.946835 
L 807.94402 314.235759 
L 814.476059 304.334819 
L 821.008099 298.413507 
L 827.540139 302.593683 
L 834.072178 303.166477 
L 840.604218 296.984412 
L 847.136257 301.281729 
L 853.668297 304.718709 
L 860.200337 296.213847 
L 866.732376 296.873582 
L 873.264416 296.906931 
L 879.796455 308.768306 
L 886.328495 300.756791 
L 892.860535 304.509636 
L 899.392574 283.466282 
L 905.924614 276.147303 
L 912.456653 303.998107 
L 918.988693 293.17554 
L 925.520733 299.736844 
L 932.052772 300.343819 
L 938.584812 292.018024 
L 945.116851 258.731119 
L 951.648891 264.131186 
L 958.180931 263.147683 
L 964.71297 279.762238 
L 971.24501 289.447235 
L 977.77705 276.12366 
L 984.309089 256.06499 
L 990.841129 244.576217 
L 997.373168 280.686496 
L 1003.905208 264.267642 
L 1010.437248 288.66352 
L 1016.969287 263.112043 
L 1023.501327 290.334152 
L 1030.033366 248.353836 
L 1036.565406 258.380109 
L 1043.097446 237.552624 
L 1049.629485 251.509914 
L 1056.161525 261.438378 
L 1062.693564 238.270985 
L 1069.225604 252.309168 
L 1075.757644 260.877707 
L 1082.289683 267.358461 
L 1088.821723 263.751804 
L 1095.353762 279.780218 
L 1101.885802 300.943419 
L 1108.417842 308.145572 
L 1114.949881 304.179686 
L 1121.481921 296.290419 
L 1128.01396 290.855871 
L 1134.546 272.892133 
L 1141.07804 274.832777 
L 1147.610079 294.819126 
L 1200.52 294.425674 
L 1200.52 294.425674 
" clip-path="url(#p1e1f92b4b1)" style="fill: none; stroke: #406992; stroke-opacity: 0; stroke-linecap: square"/>
   </g>
   <g id="PI-PATCH-2">
    <path d="M 474.81 256.973376 
L 474.81 279.419421 
L 481.34204 268.906172 
L 487.874079 287.019199 
L 494.406119 280.461577 
L 500.938158 281.16789 
L 507.470198 297.06088 
L 514.002238 287.012133 
L 520.534277 287.130914 
L 527.066317 279.860637 
L 533.598356 298.56754 
L 540.130396 297.561031 
L 546.662436 287.740115 
L 553.194475 300.023856 
L 559.726515 294.903526 
L 566.258554 288.145477 
L 572.790594 302.628772 
L 579.322634 279.706625 
L 585.854673 283.084183 
L 592.386713 288.573588 
L 598.918752 290.770245 
L 605.450792 275.251413 
L 611.982832 285.59569 
L 618.514871 274.598652 
L 625.046911 286.434834 
L 631.57895 288.473866 
L 638.11099 275.015677 
L 644.64303 286.724433 
L 651.175069 293.801791 
L 657.707109 313.972436 
L 664.239149 311.225258 
L 670.771188 297.542398 
L 677.303228 296.806598 
L 683.835267 283.695044 
L 690.367307 281.515003 
L 696.899347 321.365362 
L 703.431386 331.557911 
L 709.963426 335.496155 
L 716.495465 331.461711 
L 723.027505 331.424432 
L 729.559545 333.382357 
L 736.091584 315.447729 
L 742.623624 319.557804 
L 749.155663 328.602834 
L 755.687703 325.705666 
L 762.219743 329.829227 
L 768.751782 332.823598 
L 775.283822 326.149564 
L 781.815861 317.322903 
L 788.347901 319.409427 
L 794.879941 319.957443 
L 801.41198 333.264661 
L 807.94402 338.257773 
L 814.476059 331.243672 
L 821.008099 330.15323 
L 827.540139 332.260172 
L 834.072178 332.774391 
L 840.604218 329.440975 
L 847.136257 330.017611 
L 853.668297 332.950235 
L 860.200337 328.089351 
L 866.732376 330.626781 
L 873.264416 330.874435 
L 879.796455 336.7689 
L 886.328495 331.706762 
L 892.860535 332.65558 
L 899.392574 313.376833 
L 905.924614 303.863661 
L 912.456653 332.255999 
L 918.988693 328.808794 
L 925.520733 330.548236 
L 932.052772 330.243417 
L 938.584812 320.816031 
L 945.116851 290.809527 
L 951.648891 294.61852 
L 958.180931 293.622269 
L 964.71297 313.730681 
L 971.24501 322.608056 
L 977.77705 310.115364 
L 984.309089 290.42124 
L 990.841129 285.274627 
L 997.373168 315.200845 
L 1003.905208 297.767022 
L 1010.437248 326.979644 
L 1016.969287 297.160107 
L 1023.501327 326.87569 
L 1030.033366 282.168639 
L 1036.565406 290.876235 
L 1043.097446 272.019471 
L 1049.629485 283.873365 
L 1056.161525 294.912981 
L 1062.693564 272.019218 
L 1069.225604 284.314076 
L 1075.757644 291.383139 
L 1082.289683 299.641554 
L 1088.821723 294.625125 
L 1095.353762 312.117544 
L 1101.885802 332.548437 
L 1108.417842 336.054436 
L 1114.949881 333.511468 
L 1121.481921 325.947005 
L 1128.01396 323.498786 
L 1134.546 305.44081 
L 1141.07804 304.241135 
L 1147.610079 322.968425 
L 6614.927228 284.807517 
L 6621.459267 294.512603 
L 6627.991307 293.532183 
L 6634.523347 283.675959 
L 6641.055386 279.835027 
L 6647.587426 288.911032 
L 6654.119465 273.847137 
L 6660.651505 279.079906 
L 6667.183545 300.168252 
L 6673.715584 273.288922 
L 6680.247624 275.34975 
L 6686.779663 295.208227 
L 6693.311703 294.760553 
L 6699.843743 269.471277 
L 6706.375782 274.888204 
L 6712.907822 279.143901 
L 6719.439861 285.099252 
L 6725.971901 282.514027 
L 6732.503941 284.024593 
L 6739.03598 286.033097 
L 6745.56802 277.146202 
L 6752.100059 280.170761 
L 6758.632099 279.738908 
L 6765.164139 278.130135 
L 6771.696178 287.411569 
L 6778.228218 277.249453 
L 6784.760257 271.425974 
L 6791.292297 275.666211 
L 6797.824337 272.457935 
L 6804.356376 275.587955 
L 6810.888416 296.146705 
L 6817.420455 276.472893 
L 6823.952495 278.698407 
L 6830.484535 288.474024 
L 6837.016574 270.29057 
L 6843.548614 274.965499 
L 6850.080653 272.808434 
L 6856.612693 285.725788 
L 6863.144733 282.729877 
L 6869.676772 285.595336 
L 6876.208812 289.221246 
L 6882.740851 288.25875 
L 6889.272891 282.574921 
L 6895.804931 283.884087 
L 6902.33697 286.90004 
L 6908.86901 287.764351 
L 6915.40105 281.750063 
L 6921.933089 273.71149 
L 6928.465129 272.156833 
L 6934.997168 286.207671 
L 6941.529208 275.973328 
L 6948.061248 285.671206 
L 6954.593287 289.281415 
L 6961.125327 281.363999 
L 6967.657366 280.322473 
L 6974.189406 296.95549 
L 6980.721446 272.762027 
L 6987.253485 281.528483 
L 6993.785525 278.341182 
L 7000.317564 290.674292 
L 7006.849604 291.510391 
L 7013.381644 278.509872 
L 7019.913683 293.45404 
L 7026.445723 298.569664 
L 7032.977762 289.043085 
L 7039.509802 263.457424 
L 7046.041842 265.799905 
L 7052.573881 269.563694 
L 7059.105921 267.024688 
L 7065.63796 267.277801 
L 7072.17 294.164916 
L 7078.70204 296.297093 
L 7085.234079 299.141057 
L 7091.766119 293.329633 
L 7098.298158 282.131072 
L 7104.830198 278.771103 
L 7111.362238 276.674039 
L 7111.362238 247.290615 
L 7111.362238 247.290615 
L 7104.830198 251.314008 
L 7098.298158 257.15084 
L 7091.766119 268.667802 
L 7085.234079 273.939013 
L 7078.70204 270.816332 
L 7072.17 268.477451 
L 7065.63796 243.191108 
L 7059.105921 242.958845 
L 7052.573881 245.123377 
L 7046.041842 240.102409 
L 7039.509802 236.863589 
L 7032.977762 260.801977 
L 7026.445723 274.766713 
L 7019.913683 263.730326 
L 7013.381644 248.705587 
L 7006.849604 266.11789 
L 7000.317564 262.455184 
L 6993.785525 253.149153 
L 6987.253485 256.666813 
L 6980.721446 248.790732 
L 6974.189406 269.286085 
L 6967.657366 252.268903 
L 6961.125327 255.377204 
L 6954.593287 259.98676 
L 6948.061248 258.005695 
L 6941.529208 249.970751 
L 6934.997168 262.249755 
L 6928.465129 245.097643 
L 6921.933089 250.781044 
L 6915.40105 258.256733 
L 6908.86901 260.109296 
L 6902.33697 258.936617 
L 6895.804931 256.614778 
L 6889.272891 255.687214 
L 6882.740851 260.382456 
L 6876.208812 259.037134 
L 6869.676772 255.58126 
L 6863.144733 257.015214 
L 6856.612693 261.178283 
L 6850.080653 248.872794 
L 6843.548614 251.400545 
L 6837.016574 249.144894 
L 6830.484535 266.041559 
L 6823.952495 253.431352 
L 6817.420455 253.378071 
L 6810.888416 273.466749 
L 6804.356376 251.469662 
L 6797.824337 248.14095 
L 6791.292297 246.539528 
L 6784.760257 242.614591 
L 6778.228218 250.466854 
L 6771.696178 265.188835 
L 6765.164139 255.802474 
L 6758.632099 257.14453 
L 6752.100059 255.858358 
L 6745.56802 251.465725 
L 6739.03598 256.301732 
L 6732.503941 254.717119 
L 6725.971901 252.275744 
L 6719.439861 254.75647 
L 6712.907822 248.934058 
L 6706.375782 248.792031 
L 6699.843743 242.142761 
L 6693.311703 265.281376 
L 6686.779663 263.43851 
L 6680.247624 246.717142 
L 6673.715584 242.890817 
L 6667.183545 272.436081 
L 6660.651505 252.326189 
L 6654.119465 248.274842 
L 6647.587426 265.778432 
L 6641.055386 255.617118 
L 6634.523347 262.940068 
L 6627.991307 274.169973 
L 6621.459267 275.538018 
L 6614.927228 262.306509 
L 1147.610079 304.557984 
L 1141.07804 283.709115 
L 1134.546 282.49141 
L 1128.01396 302.637136 
L 1121.481921 306.629404 
L 1114.949881 315.813539 
L 1108.417842 320.321985 
L 1101.885802 313.238988 
L 1095.353762 289.7925 
L 1088.821723 271.526553 
L 1082.289683 276.228446 
L 1075.757644 268.001457 
L 1069.225604 259.132982 
L 1062.693564 246.166344 
L 1056.161525 271.626571 
L 1049.629485 259.505527 
L 1043.097446 246.060205 
L 1036.565406 267.195447 
L 1030.033366 257.934417 
L 1023.501327 303.468736 
L 1016.969287 273.317688 
L 1010.437248 302.380222 
L 1003.905208 273.58384 
L 997.373168 290.698301 
L 990.841129 254.552778 
L 984.309089 264.530276 
L 977.77705 287.192764 
L 971.24501 300.63062 
L 964.71297 290.581873 
L 958.180931 271.322339 
L 951.648891 271.426924 
L 945.116851 266.77821 
L 938.584812 301.708445 
L 932.052772 311.26924 
L 925.520733 310.649237 
L 918.988693 306.189329 
L 912.456653 314.475903 
L 905.924614 283.961722 
L 899.392574 292.889076 
L 892.860535 315.128504 
L 886.328495 312.30978 
L 879.796455 321.342909 
L 873.264416 309.55824 
L 866.732376 309.295612 
L 860.200337 307.891518 
L 853.668297 315.525672 
L 847.136257 311.85856 
L 840.604218 309.002352 
L 834.072178 314.57492 
L 827.540139 313.777835 
L 821.008099 310.189378 
L 814.476059 314.224114 
L 807.94402 325.555282 
L 801.41198 315.452002 
L 794.879941 299.80474 
L 788.347901 301.119349 
L 781.815861 299.024325 
L 775.283822 307.174167 
L 768.751782 314.599428 
L 762.219743 309.81301 
L 755.687703 305.335306 
L 749.155663 308.01407 
L 742.623624 298.066674 
L 736.091584 291.475279 
L 729.559545 315.247369 
L 723.027505 312.129122 
L 716.495465 312.570303 
L 709.963426 318.673323 
L 703.431386 312.055998 
L 696.899347 299.2251 
L 690.367307 259.124847 
L 683.835267 261.91291 
L 677.303228 275.799933 
L 670.771188 274.518042 
L 664.239149 287.856893 
L 657.707109 290.401455 
L 651.175069 268.899167 
L 644.64303 255.93694 
L 638.11099 243.807373 
L 631.57895 266.898912 
L 625.046911 265.003751 
L 618.514871 251.546692 
L 611.982832 258.491338 
L 605.450792 245.771306 
L 598.918752 259.900803 
L 592.386713 255.672061 
L 585.854673 255.317277 
L 579.322634 251.731913 
L 572.790594 268.088017 
L 566.258554 253.905626 
L 559.726515 263.795968 
L 553.194475 267.04166 
L 546.662436 257.266715 
L 540.130396 264.608681 
L 533.598356 268.124485 
L 527.066317 248.697442 
L 520.534277 260.320364 
L 514.002238 261.633234 
L 507.470198 269.399088 
L 500.938158 253.352672 
L 494.406119 254.007309 
L 487.874079 259.157404 
L 481.34204 243.114635 
L 474.81 256.973376 
z
" clip-path="url(#p1e1f92b4b1)" style="fill: #808080; fill-opacity: 0.00001"/>
   </g>
   <g id="PI-PATCH-LOWER-2">
    <path d="M 474.81 279.419421 
L 481.34204 268.906172 
L 487.874079 287.019199 
L 494.406119 280.461577 
L 500.938158 281.16789 
L 507.470198 297.06088 
L 514.002238 287.012133 
L 520.534277 287.130914 
L 527.066317 279.860637 
L 533.598356 298.56754 
L 540.130396 297.561031 
L 546.662436 287.740115 
L 553.194475 300.023856 
L 559.726515 294.903526 
L 566.258554 288.145477 
L 572.790594 302.628772 
L 579.322634 279.706625 
L 585.854673 283.084183 
L 592.386713 288.573588 
L 598.918752 290.770245 
L 605.450792 275.251413 
L 611.982832 285.59569 
L 618.514871 274.598652 
L 625.046911 286.434834 
L 631.57895 288.473866 
L 638.11099 275.015677 
L 644.64303 286.724433 
L 651.175069 293.801791 
L 657.707109 313.972436 
L 664.239149 311.225258 
L 670.771188 297.542398 
L 677.303228 296.806598 
L 683.835267 283.695044 
L 690.367307 281.515003 
L 696.899347 321.365362 
L 703.431386 331.557911 
L 709.963426 335.496155 
L 716.495465 331.461711 
L 723.027505 331.424432 
L 729.559545 333.382357 
L 736.091584 315.447729 
L 742.623624 319.557804 
L 749.155663 328.602834 
L 755.687703 325.705666 
L 762.219743 329.829227 
L 768.751782 332.823598 
L 775.283822 326.149564 
L 781.815861 317.322903 
L 788.347901 319.409427 
L 794.879941 319.957443 
L 801.41198 333.264661 
L 807.94402 338.257773 
L 814.476059 331.243672 
L 821.008099 330.15323 
L 827.540139 332.260172 
L 834.072178 332.774391 
L 840.604218 329.440975 
L 847.136257 330.017611 
L 853.668297 332.950235 
L 860.200337 328.089351 
L 866.732376 330.626781 
L 873.264416 330.874435 
L 879.796455 336.7689 
L 886.328495 331.706762 
L 892.860535 332.65558 
L 899.392574 313.376833 
L 905.924614 303.863661 
L 912.456653 332.255999 
L 918.988693 328.808794 
L 925.520733 330.548236 
L 932.052772 330.243417 
L 938.584812 320.816031 
L 945.116851 290.809527 
L 951.648891 294.61852 
L 958.180931 293.622269 
L 964.71297 313.730681 
L 971.24501 322.608056 
L 977.77705 310.115364 
L 984.309089 290.42124 
L 990.841129 285.274627 
L 997.373168 315.200845 
L 1003.905208 297.767022 
L 1010.437248 326.979644 
L 1016.969287 297.160107 
L 1023.501327 326.87569 
L 1030.033366 282.168639 
L 1036.565406 290.876235 
L 1043.097446 272.019471 
L 1049.629485 283.873365 
L 1056.161525 294.912981 
L 1062.693564 272.019218 
L 1069.225604 284.314076 
L 1075.757644 291.383139 
L 1082.289683 299.641554 
L 1088.821723 294.625125 
L 1095.353762 312.117544 
L 1101.885802 332.548437 
L 1108.417842 336.054436 
L 1114.949881 333.511468 
L 1121.481921 325.947005 
L 1128.01396 323.498786 
L 1134.546 305.44081 
L 1141.07804 304.241135 
L 1147.610079 322.968425 
L 1200.52 322.599123 
L 1200.52 322.599123 
" clip-path="url(#p1e1f92b4b1)" style="fill: none; stroke: #b78935; stroke-opacity: 0; stroke-linecap: square"/>
   </g>
   <g id="PI-PATCH-UPPER-2">
    <path d="M 474.81 256.973376 
L 481.34204 243.114635 
L 487.874079 259.157404 
L 494.406119 254.007309 
L 500.938158 253.352672 
L 507.470198 269.399088 
L 514.002238 261.633234 
L 520.534277 260.320364 
L 527.066317 248.697442 
L 533.598356 268.124485 
L 540.130396 264.608681 
L 546.662436 257.266715 
L 553.194475 267.04166 
L 559.726515 263.795968 
L 566.258554 253.905626 
L 572.790594 268.088017 
L 579.322634 251.731913 
L 585.854673 255.317277 
L 592.386713 255.672061 
L 598.918752 259.900803 
L 605.450792 245.771306 
L 611.982832 258.491338 
L 618.514871 251.546692 
L 625.046911 265.003751 
L 631.57895 266.898912 
L 638.11099 243.807373 
L 644.64303 255.93694 
L 651.175069 268.899167 
L 657.707109 290.401455 
L 664.239149 287.856893 
L 670.771188 274.518042 
L 677.303228 275.799933 
L 683.835267 261.91291 
L 690.367307 259.124847 
L 696.899347 299.2251 
L 703.431386 312.055998 
L 709.963426 318.673323 
L 716.495465 312.570303 
L 723.027505 312.129122 
L 729.559545 315.247369 
L 736.091584 291.475279 
L 742.623624 298.066674 
L 749.155663 308.01407 
L 755.687703 305.335306 
L 762.219743 309.81301 
L 768.751782 314.599428 
L 775.283822 307.174167 
L 781.815861 299.024325 
L 788.347901 301.119349 
L 794.879941 299.80474 
L 801.41198 315.452002 
L 807.94402 325.555282 
L 814.476059 314.224114 
L 821.008099 310.189378 
L 827.540139 313.777835 
L 834.072178 314.57492 
L 840.604218 309.002352 
L 847.136257 311.85856 
L 853.668297 315.525672 
L 860.200337 307.891518 
L 866.732376 309.295612 
L 873.264416 309.55824 
L 879.796455 321.342909 
L 886.328495 312.30978 
L 892.860535 315.128504 
L 899.392574 292.889076 
L 905.924614 283.961722 
L 912.456653 314.475903 
L 918.988693 306.189329 
L 925.520733 310.649237 
L 932.052772 311.26924 
L 938.584812 301.708445 
L 945.116851 266.77821 
L 951.648891 271.426924 
L 958.180931 271.322339 
L 964.71297 290.581873 
L 971.24501 300.63062 
L 977.77705 287.192764 
L 984.309089 264.530276 
L 990.841129 254.552778 
L 997.373168 290.698301 
L 1003.905208 273.58384 
L 1010.437248 302.380222 
L 1016.969287 273.317688 
L 1023.501327 303.468736 
L 1030.033366 257.934417 
L 1036.565406 267.195447 
L 1043.097446 246.060205 
L 1049.629485 259.505527 
L 1056.161525 271.626571 
L 1062.693564 246.166344 
L 1069.225604 259.132982 
L 1075.757644 268.001457 
L 1082.289683 276.228446 
L 1088.821723 271.526553 
L 1095.353762 289.7925 
L 1101.885802 313.238988 
L 1108.417842 320.321985 
L 1114.949881 315.813539 
L 1121.481921 306.629404 
L 1128.01396 302.637136 
L 1134.546 282.49141 
L 1141.07804 283.709115 
L 1147.610079 304.557984 
L 1200.52 304.149096 
L 1200.52 304.149096 
" clip-path="url(#p1e1f92b4b1)" style="fill: none; stroke: #406992; stroke-opacity: 0; stroke-linecap: square"/>
   </g>
   <g id="matplotlib.axis_3">
    <g id="xtick_4">
     <g id="line2d_7">
      <g>
       <use xlink:href="#m745d5d369f" x="496.272416" y="339.66" style="fill: #949494; stroke: #949494; stroke-width: 0.8"/>
      </g>
     </g>
     <g id="text_8">
      <text style="font-weight: 300; font-size: 16px; font-family: 'Source Sans 3', sans-serif; text-anchor: middle; fill: #494949" x="496.272416" y="358.2125" transform="rotate(-0 496.272416 358.2125)">2021</text>
     </g>
    </g>
    <g id="xtick_5">
     <g id="line2d_8">
      <g>
       <use xlink:href="#m745d5d369f" x="836.871624" y="339.66" style="fill: #949494; stroke: #949494; stroke-width: 0.8"/>
      </g>
     </g>
     <g id="text_9">
      <text style="font-weight: 300; font-size: 16px; font-family: 'Source Sans 3', sans-serif; text-anchor: middle; fill: #494949" x="836.871624" y="358.2125" transform="rotate(-0 836.871624 358.2125)">2022</text>
     </g>
    </g>
    <g id="text_10">
     <text style="font-weight: 600; font-size: 16px; font-family: 'Source Sans 3', sans-serif; text-anchor: middle; fill: #494949" x="804.678" y="377.3175" transform="rotate(-0 804.678 377.3175)">Date</text>
    </g>
   </g>
   <g id="matplotlib.axis_4">
    <g id="ytick_4">
     <g id="line2d_9">
      <path d="M 474.81 339.66 
L 1134.546 339.66 
" style="fill: none; stroke: #d1d1d1; stroke-width: 0.8; stroke-linecap: square"/>
     </g>
     <g id="line2d_10">
      <g>
       <use xlink:href="#m6bfe72fb06" x="474.81" y="339.66" style="fill: #949494; stroke: #949494; stroke-width: 0.8"/>
      </g>
     </g>
     <g id="text_11">
      <text style="font-weight: 300; font-size: 16px; font-family: 'Source Sans 3', sans-serif; text-anchor: end; fill: #494949" x="467.81" y="345.43625" transform="rotate(-0 467.81 345.43625)">0</text>
     </g>
    </g>
    <g id="ytick_5">
     <g id="line2d_11">
      <path d="M 474.81 279.72 
L 1134.546 279.72 
" style="fill: none; stroke: #d1d1d1; stroke-width: 0.8; stroke-linecap: square"/>
     </g>
     <g id="line2d_12">
      <g>
       <use xlink:href="#m6bfe72fb06" x="474.81" y="279.72" style="fill: #949494; stroke: #949494; stroke-width: 0.8"/>
      </g>
     </g>
     <g id="text_12">
      <text style="font-weight: 300; font-size: 16px; font-family: 'Source Sans 3', sans-serif; text-anchor: end; fill: #494949" x="467.81" y="285.49625" transform="rotate(-0 467.81 285.49625)">20</text>
     </g>
    </g>
    <g id="ytick_6">
     <g id="line2d_13">
      <path d="M 474.81 219.78 
L 1134.546 219.78 
" style="fill: none; stroke: #d1d1d1; stroke-width: 0.8; stroke-linecap: square"/>
     </g>
     <g id="line2d_14">
      <g>
       <use xlink:href="#m6bfe72fb06" x="474.81" y="219.78" style="fill: #949494; stroke: #949494; stroke-width: 0.8"/>
      </g>
     </g>
     <g id="text_13">
      <text style="font-weight: 300; font-size: 16px; font-family: 'Source Sans 3', sans-serif; text-anchor: end; fill: #494949" x="467.81" y="225.55625" transform="rotate(-0 467.81 225.55625)">40</text>
     </g>
    </g>
    <g id="ytick_7">
     <g id="line2d_15">
      <path d="M 474.81 159.84 
L 1134.546 159.84 
" style="fill: none; stroke: #d1d1d1; stroke-width: 0.8; stroke-linecap: square"/>
     </g>
     <g id="line2d_16">
      <g>
       <use xlink:href="#m6bfe72fb06" x="474.81" y="159.84" style="fill: #949494; stroke: #949494; stroke-width: 0.8"/>
      </g>
     </g>
     <g id="text_14">
      <text style="font-weight: 300; font-size: 16px; font-family: 'Source Sans 3', sans-serif; text-anchor: end; fill: #494949" x="467.81" y="165.61625" transform="rotate(-0 467.81 165.61625)">60</text>
     </g>
    </g>
    <g id="ytick_8">
     <g id="line2d_17">
      <path d="M 474.81 99.9 
L 1134.546 99.9 
" style="fill: none; stroke: #d1d1d1; stroke-width: 0.8; stroke-linecap: square"/>
     </g>
     <g id="line2d_18">
      <g>
       <use xlink:href="#m6bfe72fb06" x="474.81" y="99.9" style="fill: #949494; stroke: #949494; stroke-width: 0.8"/>
      </g>
     </g>
     <g id="text_15">
      <text style="font-weight: 300; font-size: 16px; font-family: 'Source Sans 3', sans-serif; text-anchor: end; fill: #494949" x="467.81" y="105.67625" transform="rotate(-0 467.81 105.67625)">80</text>
     </g>
    </g>
    <g id="ytick_9">
     <g id="line2d_19">
      <path d="M 474.81 39.96 
L 1134.546 39.96 
" style="fill: none; stroke: #d1d1d1; stroke-width: 0.8; stroke-linecap: square"/>
     </g>
     <g id="line2d_20">
      <g>
       <use xlink:href="#m6bfe72fb06" x="474.81" y="39.96" style="fill: #949494; stroke: #949494; stroke-width: 0.8"/>
      </g>
     </g>
     <g id="text_16">
      <text style="font-weight: 300; font-size: 16px; font-family: 'Source Sans 3', sans-serif; text-anchor: end; fill: #494949" x="467.81" y="45.73625" transform="rotate(-0 467.81 45.73625)">100</text>
     </g>
    </g>
   </g>
   <g id="TAG-0-LABEL-BOLD">
    <g id="patch_6">
     <path d="M 913.3245 146.13025 
L 1025.8995 146.13025 
L 1025.8995 113.60975 
L 913.3245 113.60975 
z
" style="fill: #ffffff; opacity: 0"/>
    </g>
    <text style="font-weight: 700; font-size: 16px; font-family: 'Source Sans 3', sans-serif; fill: #883e3a; opacity: 0" transform="translate(913.3245 125.16225)">PI contains 85.5%</text>
    <text style="font-weight: 700; font-size: 16px; font-family: 'Source Sans 3', sans-serif; fill: #883e3a; opacity: 0" transform="translate(920.58825 142.57775)">of observations</text>
   </g>
   <g id="TAG-1-LABEL-BOLD">
    <g id="patch_7">
     <path d="M 913.3245 146.13025 
L 1025.8995 146.13025 
L 1025.8995 113.60975 
L 913.3245 113.60975 
z
" style="fill: #ffffff; opacity: 0"/>
    </g>
    <text style="font-weight: 700; font-size: 16px; font-family: 'Source Sans 3', sans-serif; fill: #883e3a; opacity: 0" transform="translate(913.3245 125.16225)">PI contains 65.2%</text>
    <text style="font-weight: 700; font-size: 16px; font-family: 'Source Sans 3', sans-serif; fill: #883e3a; opacity: 0" transform="translate(920.58825 142.57775)">of observations</text>
   </g>
   <g id="TAG-2-LABEL-BOLD">
    <g id="patch_8">
     <path d="M 913.3245 146.13025 
L 1025.8995 146.13025 
L 1025.8995 113.60975 
L 913.3245 113.60975 
z
" style="fill: #ffffff; opacity: 0"/>
    </g>
    <text style="font-weight: 700; font-size: 16px; font-family: 'Source Sans 3', sans-serif; fill: #883e3a; opacity: 0" transform="translate(913.3245 125.16225)">PI contains 44.9%</text>
    <text style="font-weight: 700; font-size: 16px; font-family: 'Source Sans 3', sans-serif; fill: #883e3a; opacity: 0" transform="translate(920.58825 142.57775)">of observations</text>
   </g>
   <g id="PI-PATCH-MEDIAN">
    <path d="M 474.81 264.952666 
L 481.34204 249.935758 
L 487.874079 267.062401 
L 494.406119 261.151471 
L 500.938158 260.55707 
L 507.470198 277.239127 
L 514.002238 268.878174 
L 520.534277 268.04801 
L 527.066317 257.03829 
L 533.598356 276.985511 
L 540.130396 274.01911 
L 546.662436 265.641375 
L 553.194475 276.57158 
L 559.726515 272.449116 
L 566.258554 263.180669 
L 572.790594 277.555017 
L 579.322634 259.300868 
L 585.854673 262.778108 
L 592.386713 264.372859 
L 598.918752 268.234145 
L 605.450792 253.236969 
L 611.982832 266.077673 
L 618.514871 258.364574 
L 625.046911 272.243832 
L 631.57895 275.292221 
L 638.11099 253.02395 
L 651.175069 276.733724 
L 657.707109 302.725417 
L 664.239149 300.456013 
L 670.771188 284.05386 
L 677.303228 284.508953 
L 683.835267 270.259347 
L 690.367307 266.756915 
L 696.899347 311.007364 
L 703.431386 323.567111 
L 709.963426 331.389504 
L 716.495465 323.376034 
L 723.027505 323.301986 
L 729.559545 327.190943 
L 736.091584 302.724625 
L 742.623624 307.078123 
L 749.155663 318.634262 
L 755.687703 315.765299 
L 762.219743 320.632041 
L 768.751782 326.0811 
L 775.283822 317.080449 
L 781.815861 307.571513 
L 788.347901 310.642057 
L 794.879941 310.881628 
L 801.41198 326.957168 
L 807.94402 336.874806 
L 814.476059 324.11341 
L 821.008099 321.96525 
L 827.540139 324.961987 
L 834.072178 325.983362 
L 840.604218 321.020291 
L 847.136257 322.43539 
L 853.668297 326.332634 
L 860.200337 319.56919 
L 866.732376 321.717641 
L 873.264416 322.209548 
L 879.796455 333.917513 
L 886.328495 323.862769 
L 892.860535 325.747372 
L 899.392574 302.311869 
L 905.924614 291.776141 
L 912.456653 324.953698 
L 918.988693 319.203118 
L 925.520733 321.56163 
L 932.052772 322.194661 
L 938.584812 311.398866 
L 945.116851 274.825301 
L 951.648891 278.722662 
L 958.180931 279.496995 
L 964.71297 301.401508 
L 971.24501 311.814006 
L 977.77705 298.261868 
L 984.309089 272.995562 
L 990.841129 264.529338 
L 997.373168 300.710107 
L 1003.905208 282.900037 
L 1010.437248 316.096924 
L 1016.969287 283.523333 
L 1023.501327 316.603319 
L 1030.033366 267.514997 
L 1036.565406 276.010786 
L 1043.097446 254.567786 
L 1049.629485 267.501141 
L 1056.161525 281.814764 
L 1062.693564 254.061703 
L 1069.225604 265.956796 
L 1075.757644 275.125207 
L 1082.289683 285.098432 
L 1088.821723 279.301302 
L 1095.353762 299.804781 
L 1101.885802 325.534558 
L 1108.417842 332.498397 
L 1114.949881 327.447391 
L 1121.481921 316.968389 
L 1128.01396 314.4184 
L 1134.546 292.090688 
L 1141.07804 292.585453 
L 1147.610079 314.296843 
L 1200.52 313.872518 
L 1200.52 313.872518 
" clip-path="url(#p1e1f92b4b1)" style="fill: none; stroke: #00264c; stroke-opacity: 0; stroke-linecap: square"/>
   </g>
   <g id="OBSERVED-FORECAST-LINE">
    <path d="M 474.81 219.152108 
L 481.34204 180.7538 
L 487.874079 213.356132 
L 494.406119 203.937677 
L 500.938158 208.767651 
L 507.470198 231.95154 
L 514.002238 211.907136 
L 520.534277 197.175712 
L 527.066317 194.27773 
L 533.598356 176.165318 
L 540.130396 215.424333 
L 546.662436 150.83168 
L 553.194475 179.539527 
L 559.726515 169.145306 
L 566.258554 159.984897 
L 572.790594 219.152108 
L 579.322634 208.284656 
L 585.854673 169.403353 
L 592.386713 190.65525 
L 598.918752 193.553232 
L 605.450792 204.17918 
L 611.982832 240.645497 
L 618.514871 253.203431 
L 625.046911 274.055232 
L 631.57895 119.071087 
L 638.11099 161.296028 
L 644.64303 241.620484 
L 651.175069 314.179432 
L 657.707109 318.166608 
L 664.239149 267.210363 
L 670.771188 269.383852 
L 677.303228 273.006332 
L 683.835267 201.281187 
L 690.367307 315.027123 
L 696.899347 328.551056 
L 703.431386 339.418501 
L 709.963426 327.58506 
L 716.495465 335.313022 
L 723.027505 338.452506 
L 729.559545 322.513586 
L 736.091584 300.778694 
L 742.623624 326.619065 
L 749.155663 323.479581 
L 755.687703 325.170072 
L 762.219743 333.864029 
L 768.751782 316.717614 
L 775.283822 302.952183 
L 781.815861 312.853634 
L 788.347901 324.445577 
L 794.879941 330.241547 
L 801.41198 337.486511 
L 807.94402 323.72108 
L 814.476059 337.486511 
L 821.008099 329.75855 
L 827.540139 332.898034 
L 834.072178 334.347027 
L 840.604218 325.894569 
L 847.136257 331.207542 
L 853.668297 332.656535 
L 860.200337 325.411571 
L 866.732376 329.275552 
L 873.264416 333.62253 
L 879.796455 329.26578 
L 886.328495 325.553559 
L 892.860535 307.924047 
L 899.392574 291.648602 
L 905.924614 316.396747 
L 912.456653 330.483046 
L 918.988693 315.75162 
L 925.520733 330.241547 
L 932.052772 313.336632 
L 938.584812 258.757903 
L 945.116851 249.339454 
L 951.648891 273.972328 
L 958.180931 296.190218 
L 964.71297 305.795594 
L 971.24501 308.112632 
L 977.77705 226.574823 
L 984.309089 186.533929 
L 990.841129 283.602756 
L 997.373168 263.104882 
L 1003.905208 321.547591 
L 1010.437248 274.213825 
L 1016.969287 326.136068 
L 1023.501327 262.621887 
L 1030.033366 259.965397 
L 1036.565406 184.859275 
L 1043.097446 196.209722 
L 1049.629485 293.775228 
L 1056.161525 212.631634 
L 1062.693564 203.696185 
L 1069.225604 262.138886 
L 1075.757644 287.254761 
L 1082.289683 279.285302 
L 1088.821723 306.091668 
L 1095.353762 335.796019 
L 1101.885802 338.935504 
L 1108.417842 334.105528 
L 1114.949881 314.302627 
L 1121.481921 325.894569 
L 1128.01396 280.0098 
L 1134.546 287.254761 
L 1141.07804 310.680144 
L 1147.610079 329.034053 
L 1200.52 328.431081 
L 1200.52 328.431081 
" clip-path="url(#p1e1f92b4b1)" style="fill: none; stroke-dasharray: 1,1.65; stroke-dashoffset: 0; stroke: #883e3a"/>
   </g>
   <g id="PI-missed-dummy">
    <defs>
     <path id="m149d93ce49" d="M 0 3.9975 
C 1.060149 3.9975 2.077021 3.576298 2.826659 2.826659 
C 3.576298 2.077021 3.9975 1.060149 3.9975 0 
C 3.9975 -1.060149 3.576298 -2.077021 2.826659 -2.826659 
C 2.077021 -3.576298 1.060149 -3.9975 0 -3.9975 
C -1.060149 -3.9975 -2.077021 -3.576298 -2.826659 -2.826659 
C -3.576298 -2.077021 -3.9975 -1.060149 -3.9975 0 
C -3.9975 1.060149 -3.576298 2.077021 -2.826659 2.826659 
C -2.077021 3.576298 -1.060149 3.9975 0 3.9975 
z
" style="stroke: #595959"/>
    </defs>
    <g clip-path="url(#p1e1f92b4b1)"/>
   </g>
   <g id="patch_9">
    <path d="M 474.81 339.66 
L 474.81 39.96 
" style="fill: none; stroke: #949494; stroke-width: 0.8; stroke-linejoin: miter; stroke-linecap: square"/>
   </g>
   <g id="patch_10">
    <path d="M 474.81 339.66 
L 1134.546 339.66 
" style="fill: none; stroke: #949494; stroke-width: 0.8; stroke-linejoin: miter; stroke-linecap: square"/>
   </g>
   <g id="PI-missed-0">
    <defs>
     <path id="mbb32b5f395" d="M 0 4 
C 1.060812 4 2.078319 3.578535 2.828427 2.828427 
C 3.578535 2.078319 4 1.060812 4 0 
C 4 -1.060812 3.578535 -2.078319 2.828427 -2.828427 
C 2.078319 -3.578535 1.060812 -4 0 -4 
C -1.060812 -4 -2.078319 -3.578535 -2.828427 -2.828427 
C -3.578535 -2.078319 -4 -1.060812 -4 0 
C -4 1.060812 -3.578535 2.078319 -2.828427 2.828427 
C -2.078319 3.578535 -1.060812 4 0 4 
z
" style="stroke: #595959; stroke-opacity: 0"/>
    </defs>
    <g>
     <use xlink:href="#mbb32b5f395" x="651.175069" y="314.179432" style="fill-opacity: 0; stroke: #595959; stroke-opacity: 0"/>
     <use xlink:href="#mbb32b5f395" x="690.367307" y="315.027123" style="fill-opacity: 0; stroke: #595959; stroke-opacity: 0"/>
     <use xlink:href="#mbb32b5f395" x="794.879941" y="330.241547" style="fill-opacity: 0; stroke: #595959; stroke-opacity: 0"/>
     <use xlink:href="#mbb32b5f395" x="905.924614" y="316.396747" style="fill-opacity: 0; stroke: #595959; stroke-opacity: 0"/>
     <use xlink:href="#mbb32b5f395" x="938.584812" y="258.757903" style="fill-opacity: 0; stroke: #595959; stroke-opacity: 0"/>
     <use xlink:href="#mbb32b5f395" x="997.373168" y="263.104882" style="fill-opacity: 0; stroke: #595959; stroke-opacity: 0"/>
     <use xlink:href="#mbb32b5f395" x="1003.905208" y="321.547591" style="fill-opacity: 0; stroke: #595959; stroke-opacity: 0"/>
     <use xlink:href="#mbb32b5f395" x="1016.969287" y="326.136068" style="fill-opacity: 0; stroke: #595959; stroke-opacity: 0"/>
     <use xlink:href="#mbb32b5f395" x="1023.501327" y="262.621887" style="fill-opacity: 0; stroke: #595959; stroke-opacity: 0"/>
     <use xlink:href="#mbb32b5f395" x="1095.353762" y="335.796019" style="fill-opacity: 0; stroke: #595959; stroke-opacity: 0"/>
    </g>
   </g>
   <g id="PI-missed-1">
    <defs>
     <path id="m84a5f7de52" d="M 0 4.0025 
C 1.061475 4.0025 2.079618 3.580771 2.830195 2.830195 
C 3.580771 2.079618 4.0025 1.061475 4.0025 0 
C 4.0025 -1.061475 3.580771 -2.079618 2.830195 -2.830195 
C 2.079618 -3.580771 1.061475 -4.0025 0 -4.0025 
C -1.061475 -4.0025 -2.079618 -3.580771 -2.830195 -2.830195 
C -3.580771 -2.079618 -4.0025 -1.061475 -4.0025 0 
C -4.0025 1.061475 -3.580771 2.079618 -2.830195 2.830195 
C -2.079618 3.580771 -1.061475 4.0025 0 4.0025 
z
" style="stroke: #595959; stroke-opacity: 0"/>
    </defs>
    <g>
     <use xlink:href="#m84a5f7de52" x="651.175069" y="314.179432" style="fill-opacity: 0; stroke: #595959; stroke-opacity: 0"/>
     <use xlink:href="#m84a5f7de52" x="664.239149" y="267.210363" style="fill-opacity: 0; stroke: #595959; stroke-opacity: 0"/>
     <use xlink:href="#m84a5f7de52" x="690.367307" y="315.027123" style="fill-opacity: 0; stroke: #595959; stroke-opacity: 0"/>
     <use xlink:href="#m84a5f7de52" x="696.899347" y="328.551056" style="fill-opacity: 0; stroke: #595959; stroke-opacity: 0"/>
     <use xlink:href="#m84a5f7de52" x="703.431386" y="339.418501" style="fill-opacity: 0; stroke: #595959; stroke-opacity: 0"/>
     <use xlink:href="#m84a5f7de52" x="716.495465" y="335.313022" style="fill-opacity: 0; stroke: #595959; stroke-opacity: 0"/>
     <use xlink:href="#m84a5f7de52" x="723.027505" y="338.452506" style="fill-opacity: 0; stroke: #595959; stroke-opacity: 0"/>
     <use xlink:href="#m84a5f7de52" x="742.623624" y="326.619065" style="fill-opacity: 0; stroke: #595959; stroke-opacity: 0"/>
     <use xlink:href="#m84a5f7de52" x="788.347901" y="324.445577" style="fill-opacity: 0; stroke: #595959; stroke-opacity: 0"/>
     <use xlink:href="#m84a5f7de52" x="794.879941" y="330.241547" style="fill-opacity: 0; stroke: #595959; stroke-opacity: 0"/>
     <use xlink:href="#m84a5f7de52" x="801.41198" y="337.486511" style="fill-opacity: 0; stroke: #595959; stroke-opacity: 0"/>
     <use xlink:href="#m84a5f7de52" x="814.476059" y="337.486511" style="fill-opacity: 0; stroke: #595959; stroke-opacity: 0"/>
     <use xlink:href="#m84a5f7de52" x="905.924614" y="316.396747" style="fill-opacity: 0; stroke: #595959; stroke-opacity: 0"/>
     <use xlink:href="#m84a5f7de52" x="938.584812" y="258.757903" style="fill-opacity: 0; stroke: #595959; stroke-opacity: 0"/>
     <use xlink:href="#m84a5f7de52" x="997.373168" y="263.104882" style="fill-opacity: 0; stroke: #595959; stroke-opacity: 0"/>
     <use xlink:href="#m84a5f7de52" x="1003.905208" y="321.547591" style="fill-opacity: 0; stroke: #595959; stroke-opacity: 0"/>
     <use xlink:href="#m84a5f7de52" x="1010.437248" y="274.213825" style="fill-opacity: 0; stroke: #595959; stroke-opacity: 0"/>
     <use xlink:href="#m84a5f7de52" x="1016.969287" y="326.136068" style="fill-opacity: 0; stroke: #595959; stroke-opacity: 0"/>
     <use xlink:href="#m84a5f7de52" x="1023.501327" y="262.621887" style="fill-opacity: 0; stroke: #595959; stroke-opacity: 0"/>
     <use xlink:href="#m84a5f7de52" x="1049.629485" y="293.775228" style="fill-opacity: 0; stroke: #595959; stroke-opacity: 0"/>
     <use xlink:href="#m84a5f7de52" x="1088.821723" y="306.091668" style="fill-opacity: 0; stroke: #595959; stroke-opacity: 0"/>
     <use xlink:href="#m84a5f7de52" x="1095.353762" y="335.796019" style="fill-opacity: 0; stroke: #595959; stroke-opacity: 0"/>
     <use xlink:href="#m84a5f7de52" x="1101.885802" y="338.935504" style="fill-opacity: 0; stroke: #595959; stroke-opacity: 0"/>
     <use xlink:href="#m84a5f7de52" x="1128.01396" y="280.0098" style="fill-opacity: 0; stroke: #595959; stroke-opacity: 0"/>
    </g>
   </g>
   <g id="PI-missed-2">
    <defs>
     <path id="m62844a1774" d="M 0 4.005 
C 1.062138 4.005 2.080917 3.583008 2.831963 2.831963 
C 3.583008 2.080917 4.005 1.062138 4.005 0 
C 4.005 -1.062138 3.583008 -2.080917 2.831963 -2.831963 
C 2.080917 -3.583008 1.062138 -4.005 0 -4.005 
C -1.062138 -4.005 -2.080917 -3.583008 -2.831963 -2.831963 
C -3.583008 -2.080917 -4.005 -1.062138 -4.005 0 
C -4.005 1.062138 -3.583008 2.080917 -2.831963 2.831963 
C -2.080917 3.583008 -1.062138 4.005 0 4.005 
z
" style="stroke: #595959; stroke-opacity: 0"/>
    </defs>
    <g>
     <use xlink:href="#m62844a1774" x="651.175069" y="314.179432" style="fill-opacity: 0; stroke: #595959; stroke-opacity: 0"/>
     <use xlink:href="#m62844a1774" x="657.707109" y="318.166608" style="fill-opacity: 0; stroke: #595959; stroke-opacity: 0"/>
     <use xlink:href="#m62844a1774" x="664.239149" y="267.210363" style="fill-opacity: 0; stroke: #595959; stroke-opacity: 0"/>
     <use xlink:href="#m62844a1774" x="670.771188" y="269.383852" style="fill-opacity: 0; stroke: #595959; stroke-opacity: 0"/>
     <use xlink:href="#m62844a1774" x="677.303228" y="273.006332" style="fill-opacity: 0; stroke: #595959; stroke-opacity: 0"/>
     <use xlink:href="#m62844a1774" x="690.367307" y="315.027123" style="fill-opacity: 0; stroke: #595959; stroke-opacity: 0"/>
     <use xlink:href="#m62844a1774" x="696.899347" y="328.551056" style="fill-opacity: 0; stroke: #595959; stroke-opacity: 0"/>
     <use xlink:href="#m62844a1774" x="703.431386" y="339.418501" style="fill-opacity: 0; stroke: #595959; stroke-opacity: 0"/>
     <use xlink:href="#m62844a1774" x="716.495465" y="335.313022" style="fill-opacity: 0; stroke: #595959; stroke-opacity: 0"/>
     <use xlink:href="#m62844a1774" x="723.027505" y="338.452506" style="fill-opacity: 0; stroke: #595959; stroke-opacity: 0"/>
     <use xlink:href="#m62844a1774" x="742.623624" y="326.619065" style="fill-opacity: 0; stroke: #595959; stroke-opacity: 0"/>
     <use xlink:href="#m62844a1774" x="762.219743" y="333.864029" style="fill-opacity: 0; stroke: #595959; stroke-opacity: 0"/>
     <use xlink:href="#m62844a1774" x="775.283822" y="302.952183" style="fill-opacity: 0; stroke: #595959; stroke-opacity: 0"/>
     <use xlink:href="#m62844a1774" x="788.347901" y="324.445577" style="fill-opacity: 0; stroke: #595959; stroke-opacity: 0"/>
     <use xlink:href="#m62844a1774" x="794.879941" y="330.241547" style="fill-opacity: 0; stroke: #595959; stroke-opacity: 0"/>
     <use xlink:href="#m62844a1774" x="801.41198" y="337.486511" style="fill-opacity: 0; stroke: #595959; stroke-opacity: 0"/>
     <use xlink:href="#m62844a1774" x="807.94402" y="323.72108" style="fill-opacity: 0; stroke: #595959; stroke-opacity: 0"/>
     <use xlink:href="#m62844a1774" x="814.476059" y="337.486511" style="fill-opacity: 0; stroke: #595959; stroke-opacity: 0"/>
     <use xlink:href="#m62844a1774" x="827.540139" y="332.898034" style="fill-opacity: 0; stroke: #595959; stroke-opacity: 0"/>
     <use xlink:href="#m62844a1774" x="834.072178" y="334.347027" style="fill-opacity: 0; stroke: #595959; stroke-opacity: 0"/>
     <use xlink:href="#m62844a1774" x="847.136257" y="331.207542" style="fill-opacity: 0; stroke: #595959; stroke-opacity: 0"/>
     <use xlink:href="#m62844a1774" x="873.264416" y="333.62253" style="fill-opacity: 0; stroke: #595959; stroke-opacity: 0"/>
     <use xlink:href="#m62844a1774" x="892.860535" y="307.924047" style="fill-opacity: 0; stroke: #595959; stroke-opacity: 0"/>
     <use xlink:href="#m62844a1774" x="899.392574" y="291.648602" style="fill-opacity: 0; stroke: #595959; stroke-opacity: 0"/>
     <use xlink:href="#m62844a1774" x="905.924614" y="316.396747" style="fill-opacity: 0; stroke: #595959; stroke-opacity: 0"/>
     <use xlink:href="#m62844a1774" x="938.584812" y="258.757903" style="fill-opacity: 0; stroke: #595959; stroke-opacity: 0"/>
     <use xlink:href="#m62844a1774" x="958.180931" y="296.190218" style="fill-opacity: 0; stroke: #595959; stroke-opacity: 0"/>
     <use xlink:href="#m62844a1774" x="997.373168" y="263.104882" style="fill-opacity: 0; stroke: #595959; stroke-opacity: 0"/>
     <use xlink:href="#m62844a1774" x="1003.905208" y="321.547591" style="fill-opacity: 0; stroke: #595959; stroke-opacity: 0"/>
     <use xlink:href="#m62844a1774" x="1010.437248" y="274.213825" style="fill-opacity: 0; stroke: #595959; stroke-opacity: 0"/>
     <use xlink:href="#m62844a1774" x="1016.969287" y="326.136068" style="fill-opacity: 0; stroke: #595959; stroke-opacity: 0"/>
     <use xlink:href="#m62844a1774" x="1023.501327" y="262.621887" style="fill-opacity: 0; stroke: #595959; stroke-opacity: 0"/>
     <use xlink:href="#m62844a1774" x="1049.629485" y="293.775228" style="fill-opacity: 0; stroke: #595959; stroke-opacity: 0"/>
     <use xlink:href="#m62844a1774" x="1088.821723" y="306.091668" style="fill-opacity: 0; stroke: #595959; stroke-opacity: 0"/>
     <use xlink:href="#m62844a1774" x="1095.353762" y="335.796019" style="fill-opacity: 0; stroke: #595959; stroke-opacity: 0"/>
     <use xlink:href="#m62844a1774" x="1101.885802" y="338.935504" style="fill-opacity: 0; stroke: #595959; stroke-opacity: 0"/>
     <use xlink:href="#m62844a1774" x="1114.949881" y="314.302627" style="fill-opacity: 0; stroke: #595959; stroke-opacity: 0"/>
     <use xlink:href="#m62844a1774" x="1128.01396" y="280.0098" style="fill-opacity: 0; stroke: #595959; stroke-opacity: 0"/>
    </g>
   </g>
   <g id="text_17">
    <text style="font-weight: 800; font-size: 20px; font-family: 'Source Sans 3', sans-serif; text-anchor: start" x="474.81" y="33.96" transform="rotate(-0 474.81 33.96)">Streamflow percentile</text>
   </g>
   <g id="legend-pi">
    <g id="patch_11">
     <path d="M 486.01 75.865 
L 811.03 75.865 
Q 814.23 75.865 814.23 72.665 
L 814.23 51.16 
Q 814.23 47.96 811.03 47.96 
L 486.01 47.96 
Q 482.81 47.96 482.81 51.16 
L 482.81 72.665 
Q 482.81 75.865 486.01 75.865 
L 486.01 75.865 
z
" style="fill: none; opacity: 0.8"/>
    </g>
    <g id="line2d_21">
     <path d="M 489.21 60.3125 
L 505.21 60.3125 
L 521.21 60.3125 
" style="fill: none; stroke-dasharray: 1,1.65; stroke-dashoffset: 0; stroke: #883e3a"/>
    </g>
    <g id="text_18">
     <text style="font-weight: 300; font-size: 16px; font-family: 'Source Sans 3', sans-serif; text-anchor: start; fill: #494949" x="534.01" y="65.9125" transform="rotate(-0 534.01 65.9125)">Observations</text>
    </g>
    <g id="line2d_22">
     <g>
      <use xlink:href="#m149d93ce49" x="666.1675" y="60.3125" style="fill-opacity: 0; stroke: #595959"/>
     </g>
    </g>
    <g id="text_19">
     <text style="font-weight: 300; font-size: 16px; font-family: 'Source Sans 3', sans-serif; text-anchor: start; fill: #494949" x="694.9675" y="65.9125" transform="rotate(-0 694.9675 65.9125)">Missed Prediction</text>
    </g>
   </g>
   <g id="legend-pi">
    <g id="patch_12">
     <path d="M 486.01 75.865 
L 811.03 75.865 
Q 814.23 75.865 814.23 72.665 
L 814.23 51.16 
Q 814.23 47.96 811.03 47.96 
L 486.01 47.96 
Q 482.81 47.96 482.81 51.16 
L 482.81 72.665 
Q 482.81 75.865 486.01 75.865 
L 486.01 75.865 
z
" style="fill: none; opacity: 0.8"/>
    </g>
    <g id="line2d_23">
     <path d="M 489.21 60.3125 
L 505.21 60.3125 
L 521.21 60.3125 
" style="fill: none; stroke-dasharray: 1,1.65; stroke-dashoffset: 0; stroke: #883e3a"/>
    </g>
    <g id="text_20">
     <text style="font-weight: 300; font-size: 16px; font-family: 'Source Sans 3', sans-serif; text-anchor: start; fill: #494949" x="534.01" y="65.9125" transform="rotate(-0 534.01 65.9125)">Observations</text>
    </g>
    <g id="line2d_24">
     <g>
      <use xlink:href="#m149d93ce49" x="666.1675" y="60.3125" style="fill-opacity: 0; stroke: #595959"/>
     </g>
    </g>
    <g id="text_21">
     <text style="font-weight: 300; font-size: 16px; font-family: 'Source Sans 3', sans-serif; text-anchor: start; fill: #494949" x="694.9675" y="65.9125" transform="rotate(-0 694.9675 65.9125)">Missed Prediction</text>
    </g>
   </g>
  </g>
 </g>
 <defs>
  <clipPath id="p9c5749cade">
   <rect x="74.97" y="39.96" width="329.868" height="299.7"/>
  </clipPath>
  <clipPath id="p1e1f92b4b1">
   <rect x="474.81" y="39.96" width="659.736" height="299.7"/>
  </clipPath>
 </defs>
</svg>
