<?xml version="1.0" encoding="utf-8" standalone="no"?>
<!DOCTYPE svg PUBLIC "-//W3C//DTD SVG 1.1//EN"
  "http://www.w3.org/Graphics/SVG/1.1/DTD/svg11.dtd">
<svg xmlns:xlink="http://www.w3.org/1999/xlink" width="399.6px" height="499.68px" viewBox="0 0 399.6 499.68" xmlns="http://www.w3.org/2000/svg" version="1.1">
  <defs>
  <style type="text/css">*{stroke-linejoin: round; stroke-linecap: butt}</style>
 </defs>
 <g id="figure-predictioninterval">
  <g id="patch_1">
   <path d="M 0 499.68 
L 399.6 499.68 
L 399.6 0 
L 0 0 
z
" style="fill: #ffffff"/>
  </g>
  <g id="axis-predictioninterval1">
   <g id="patch_2">
    <path d="M 55.944 199.872 
L 375.624 199.872 
L 375.624 33.47856 
L 55.944 33.47856 
z
" style="fill: #ffffff"/>
   </g>
   <g id="LF-LOWER-MEDIAN">
    <path d="M 55.944 116.67528 
L 215.784 199.872 
L 375.624 116.67528 
" clip-path="url(#p58715d9fcc)" style="fill: none; stroke: #00264c; stroke-opacity: 0; stroke-linecap: square"/>
   </g>
   <g id="matplotlib.axis_1">
    <g id="xtick_1">
     <g id="line2d_1">
      <defs>
       <path id="mbb65e66a88" d="M 0 0 
L 0 3.5 
" style="stroke: #949494; stroke-width: 0.8"/>
      </defs>
      <g>
       <use xlink:href="#mbb65e66a88" x="55.944" y="199.872" style="fill: #949494; stroke: #949494; stroke-width: 0.8"/>
      </g>
     </g>
     <g id="text_1">
      <text style="font-weight: 300; font-size: 16px; font-family: 'Source Sans 3', sans-serif; text-anchor: middle; fill: #6e6e6e" x="55.944" y="218.4245" transform="rotate(-0 55.944 218.4245)">Lower</text>
     </g>
    </g>
    <g id="xtick_2">
     <g id="line2d_2">
      <g>
       <use xlink:href="#mbb65e66a88" x="215.784" y="199.872" style="fill: #949494; stroke: #949494; stroke-width: 0.8"/>
      </g>
     </g>
     <g id="text_2">
      <text style="font-weight: 300; font-size: 16px; font-family: 'Source Sans 3', sans-serif; text-anchor: middle; fill: #6e6e6e" x="215.784" y="218.4245" transform="rotate(-0 215.784 218.4245)">Median</text>
     </g>
    </g>
    <g id="xtick_3">
     <g id="line2d_3">
      <g>
       <use xlink:href="#mbb65e66a88" x="375.624" y="199.872" style="fill: #949494; stroke: #949494; stroke-width: 0.8"/>
      </g>
     </g>
     <g id="text_3">
      <text style="font-weight: 300; font-size: 16px; font-family: 'Source Sans 3', sans-serif; text-anchor: middle; fill: #6e6e6e" x="375.624" y="218.4245" transform="rotate(-0 375.624 218.4245)">Upper</text>
     </g>
    </g>
    <g id="text_4">
     <text style="font-weight: 600; font-size: 16px; font-family: 'Source Sans 3', sans-serif; text-anchor: middle; fill: #595959" x="215.784" y="237.5295" transform="rotate(-0 215.784 237.5295)">Estimate</text>
    </g>
   </g>
   <g id="matplotlib.axis_2">
    <g id="ytick_1">
     <g id="line2d_4">
      <defs>
       <path id="mfd29fbddaf" d="M 0 0 
L -3.5 0 
" style="stroke: #949494; stroke-width: 0.8"/>
      </defs>
      <g>
       <use xlink:href="#mfd29fbddaf" x="55.944" y="199.872" style="fill: #949494; stroke: #949494; stroke-width: 0.8"/>
      </g>
     </g>
     <g id="text_5">
      <text style="font-weight: 300; font-size: 16px; font-family: 'Source Sans 3', sans-serif; fill: #6e6e6e" transform="translate(21.1365 189.388)">Less</text>
      <text style="font-weight: 300; font-size: 16px; font-family: 'Source Sans 3', sans-serif; fill: #6e6e6e" transform="translate(1.1365 206.8035)">Penalty</text>
      <text style="font-weight: 300; font-size: 16px; font-family: 'Source Sans 3', sans-serif; fill: #6e6e6e" transform="translate(48.944 224.219)"/>
     </g>
    </g>
    <g id="ytick_2">
     <g id="line2d_5">
      <g>
       <use xlink:href="#mfd29fbddaf" x="55.944" y="116.67528" style="fill: #949494; stroke: #949494; stroke-width: 0.8"/>
      </g>
     </g>
    </g>
    <g id="ytick_3">
     <g id="line2d_6">
      <g>
       <use xlink:href="#mfd29fbddaf" x="55.944" y="33.47856" style="fill: #949494; stroke: #949494; stroke-width: 0.8"/>
      </g>
     </g>
     <g id="text_6">
      <text style="font-weight: 300; font-size: 16px; font-family: 'Source Sans 3', sans-serif; fill: #6e6e6e" transform="translate(16.7215 31.70231)">More</text>
      <text style="font-weight: 300; font-size: 16px; font-family: 'Source Sans 3', sans-serif; fill: #6e6e6e" transform="translate(1.1365 49.11781)">Penalty</text>
     </g>
    </g>
   </g>
   <g id="LF-LOWER-0">
    <path d="M 55.944 191.552328 
L 215.784 199.872 
L 375.624 41.798232 
" clip-path="url(#p58715d9fcc)" style="fill: none; stroke: #b78935; stroke-opacity: 0; stroke-linecap: square"/>
   </g>
   <g id="LF-UPPER-0">
    <path d="M 55.944 41.798232 
L 215.784 199.872 
L 375.624 191.552328 
" clip-path="url(#p58715d9fcc)" style="fill: none; stroke: #406992; stroke-opacity: 0; stroke-linecap: square"/>
   </g>
   <g id="LF-LOWER-1">
    <path d="M 55.944 179.07282 
L 215.784 199.872 
L 375.624 54.27774 
" clip-path="url(#p58715d9fcc)" style="fill: none; stroke: #b78935; stroke-opacity: 0; stroke-linecap: square"/>
   </g>
   <g id="LF-UPPER-1">
    <path d="M 55.944 54.27774 
L 215.784 199.872 
L 375.624 179.07282 
" clip-path="url(#p58715d9fcc)" style="fill: none; stroke: #406992; stroke-opacity: 0; stroke-linecap: square"/>
   </g>
   <g id="LF-LOWER-2">
    <path d="M 55.944 158.27364 
L 215.784 199.872 
L 375.624 75.07692 
" clip-path="url(#p58715d9fcc)" style="fill: none; stroke: #b78935; stroke-opacity: 0; stroke-linecap: square"/>
   </g>
   <g id="LF-UPPER-2">
    <path d="M 55.944 75.07692 
L 215.784 199.872 
L 375.624 158.27364 
" clip-path="url(#p58715d9fcc)" style="fill: none; stroke: #406992; stroke-opacity: 0; stroke-linecap: square"/>
   </g>
   <g id="patch_3">
    <path d="M 55.944 199.872 
L 55.944 33.47856 
" style="fill: none; stroke: #949494; stroke-width: 0.8; stroke-linejoin: miter; stroke-linecap: square"/>
   </g>
   <g id="patch_4">
    <path d="M 55.944 199.872 
L 375.624 199.872 
" style="fill: none; stroke: #949494; stroke-width: 0.8; stroke-linejoin: miter; stroke-linecap: square"/>
   </g>
   <g id="text_7">
    <text style="font-weight: 800; font-size: 20px; font-family: 'Source Sans 3', sans-serif; text-anchor: start" x="55.944" y="27.47856" transform="rotate(-0 55.944 27.47856)">Loss function</text>
   </g>
  </g>
  <g id="axis-predictioninterval2">
   <g id="patch_5">
    <path d="M 55.944 449.712 
L 375.624 449.712 
L 375.624 283.31856 
L 55.944 283.31856 
z
" style="fill: #ffffff"/>
   </g>
   <g id="PI-PATCH-0">
    <path d="M 55.944 400.617741 
L 55.944 433.201823 
L 59.109149 438.245993 
L 62.274297 444.043915 
L 65.439446 440.85594 
L 68.604594 443.153336 
L 71.769743 444.806134 
L 74.934891 445.296706 
L 78.10004 432.982899 
L 81.265188 438.551105 
L 84.430337 433.3582 
L 87.595485 435.09234 
L 90.760634 432.713294 
L 93.925782 429.387412 
L 97.090931 435.482522 
L 100.256079 436.039186 
L 103.421228 434.918145 
L 106.586376 435.310075 
L 109.751525 433.406426 
L 112.916673 431.952153 
L 116.081822 431.385893 
L 119.24697 428.343559 
L 122.412119 429.736788 
L 125.577267 431.131962 
L 128.742416 434.335485 
L 131.907564 440.494012 
L 135.072713 433.157264 
L 138.237861 435.815545 
L 141.40301 435.265126 
L 144.568158 438.41514 
L 147.733307 433.049536 
L 150.898455 438.66828 
L 154.063604 436.599618 
L 157.228752 428.164708 
L 160.393901 434.349621 
L 163.55905 433.470635 
L 166.724198 422.40446 
L 169.889347 437.647153 
L 173.054495 437.56966 
L 176.219644 436.317558 
L 179.384792 434.396722 
L 182.549941 434.256168 
L 185.715089 430.788536 
L 188.880238 445.214673 
L 192.045386 438.385815 
L 195.210535 433.052016 
L 198.375683 438.903491 
L 201.540832 434.313355 
L 204.70598 437.415351 
L 207.871129 439.554547 
L 211.036277 444.389757 
L 214.201426 442.793469 
L 217.366574 439.894412 
L 220.531723 434.731338 
L 223.696871 432.362357 
L 226.86202 432.609433 
L 230.027168 433.999095 
L 233.192317 432.015065 
L 236.357465 430.108121 
L 239.522614 432.104859 
L 242.687762 435.67863 
L 245.852911 438.175141 
L 249.018059 449.712 
L 252.183208 449.712 
L 255.348356 449.712 
L 258.513505 449.712 
L 261.678653 449.712 
L 264.843802 447.188723 
L 268.00895 449.712 
L 271.174099 449.712 
L 274.339248 449.712 
L 277.504396 449.712 
L 280.669545 449.712 
L 283.834693 449.712 
L 286.999842 449.712 
L 290.16499 449.712 
L 293.330139 449.712 
L 296.495287 449.712 
L 299.660436 442.925397 
L 302.825584 439.589123 
L 305.990733 441.61888 
L 309.155881 445.676595 
L 312.32103 448.830307 
L 315.486178 448.655013 
L 318.651327 449.712 
L 321.816475 449.712 
L 324.981624 449.712 
L 328.146772 449.712 
L 331.311921 449.712 
L 334.477069 449.712 
L 337.642218 449.712 
L 340.807366 449.712 
L 343.972515 449.712 
L 347.137663 449.712 
L 350.302812 449.712 
L 353.46796 449.712 
L 356.633109 449.712 
L 359.798257 449.712 
L 362.963406 449.712 
L 366.128554 449.712 
L 369.293703 449.712 
L 372.458851 449.712 
L 375.624 449.712 
L 378.789149 449.712 
L 381.954297 449.712 
L 3031.183604 445.687967 
L 3034.348752 446.989482 
L 3037.513901 445.214294 
L 3040.67905 443.483436 
L 3043.844198 436.358614 
L 3047.009347 440.801838 
L 3050.174495 437.731289 
L 3053.339644 445.073019 
L 3056.504792 436.25966 
L 3059.669941 432.208592 
L 3062.835089 436.449318 
L 3066.000238 436.106234 
L 3069.165386 432.286174 
L 3072.330535 435.131391 
L 3075.495683 429.927308 
L 3078.660832 431.424149 
L 3081.82598 428.219559 
L 3084.991129 432.020699 
L 3088.156277 430.108419 
L 3091.321426 433.855409 
L 3094.486574 434.91549 
L 3097.651723 429.167729 
L 3100.816871 429.68541 
L 3103.98202 426.413843 
L 3107.147168 425.784315 
L 3110.312317 425.178025 
L 3113.477465 426.301426 
L 3116.642614 430.282105 
L 3119.807762 424.632571 
L 3122.972911 428.89479 
L 3126.138059 427.541392 
L 3129.303208 427.855479 
L 3132.468356 431.913163 
L 3135.633505 430.165438 
L 3138.798653 421.593871 
L 3141.963802 420.580961 
L 3145.12895 420.389523 
L 3148.294099 427.427308 
L 3151.459248 430.649064 
L 3154.624396 434.343516 
L 3157.789545 435.212392 
L 3160.954693 437.376672 
L 3164.119842 440.264978 
L 3167.28499 439.370774 
L 3170.450139 440.760069 
L 3173.615287 442.708996 
L 3176.780436 434.690876 
L 3179.945584 436.427065 
L 3183.110733 440.523919 
L 3186.275881 443.510699 
L 3189.44103 443.484225 
L 3192.606178 444.058129 
L 3195.771327 447.100798 
L 3198.936475 446.65563 
L 3202.101624 447.411551 
L 3205.266772 448.330843 
L 3208.431921 443.823017 
L 3211.597069 441.833761 
L 3214.762218 437.202304 
L 3217.927366 443.248749 
L 3221.092515 431.462216 
L 3224.257663 436.681758 
L 3227.422812 436.010705 
L 3230.58796 433.699372 
L 3233.753109 437.645246 
L 3236.918257 421.423487 
L 3240.083406 423.884851 
L 3243.248554 428.142369 
L 3246.413703 422.707183 
L 3249.578851 433.465851 
L 3252.744 427.318269 
L 3255.909149 425.697895 
L 3259.074297 426.563715 
L 3262.239446 424.831143 
L 3265.404594 424.262469 
L 3268.569743 428.714154 
L 3271.734891 431.481047 
L 3271.734891 396.016379 
L 3271.734891 396.016379 
L 3268.569743 390.997473 
L 3265.404594 391.317712 
L 3262.239446 393.327053 
L 3259.074297 395.225277 
L 3255.909149 393.068422 
L 3252.744 397.090887 
L 3249.578851 403.423345 
L 3246.413703 394.167849 
L 3243.248554 399.157942 
L 3240.083406 393.849051 
L 3236.918257 388.675737 
L 3233.753109 397.428661 
L 3230.58796 401.179619 
L 3227.422812 397.851033 
L 3224.257663 395.224737 
L 3221.092515 395.499053 
L 3217.927366 400.143342 
L 3214.762218 395.842428 
L 3211.597069 397.67773 
L 3208.431921 395.563327 
L 3205.266772 398.517435 
L 3202.101624 400.575232 
L 3198.936475 399.793257 
L 3195.771327 401.724221 
L 3192.606178 399.319398 
L 3189.44103 399.452579 
L 3186.275881 399.378879 
L 3183.110733 399.262157 
L 3179.945584 399.774932 
L 3176.780436 401.97049 
L 3173.615287 400.767908 
L 3170.450139 399.288267 
L 3167.28499 394.412542 
L 3164.119842 397.371096 
L 3160.954693 395.617324 
L 3157.789545 395.487723 
L 3154.624396 394.973646 
L 3151.459248 393.520198 
L 3148.294099 392.455497 
L 3145.12895 387.362459 
L 3141.963802 389.943029 
L 3138.798653 392.59832 
L 3135.633505 398.176106 
L 3132.468356 398.12486 
L 3129.303208 393.748711 
L 3126.138059 389.708429 
L 3122.972911 388.864395 
L 3119.807762 387.588084 
L 3116.642614 396.077105 
L 3113.477465 394.777937 
L 3110.312317 395.603404 
L 3107.147168 396.541649 
L 3103.98202 397.073159 
L 3100.816871 399.231458 
L 3097.651723 398.569855 
L 3094.486574 404.399176 
L 3091.321426 404.147549 
L 3088.156277 400.374714 
L 3084.991129 402.238475 
L 3081.82598 396.525578 
L 3078.660832 400.12059 
L 3075.495683 400.229298 
L 3072.330535 405.413266 
L 3069.165386 403.889743 
L 3066.000238 407.089496 
L 3062.835089 407.107437 
L 3059.669941 403.855295 
L 3056.504792 406.621127 
L 3053.339644 413.031978 
L 3050.174495 409.040469 
L 3047.009347 412.678006 
L 3043.844198 404.567969 
L 3040.67905 413.189699 
L 3037.513901 415.588761 
L 3034.348752 416.811509 
L 3031.183604 410.685571 
L 381.954297 425.071816 
L 378.789149 421.190528 
L 375.624 419.617783 
L 372.458851 422.918679 
L 369.293703 424.650951 
L 366.128554 418.86242 
L 362.963406 424.873662 
L 359.798257 414.518182 
L 356.633109 417.667597 
L 353.46796 420.26002 
L 350.302812 419.514051 
L 347.137663 418.320837 
L 343.972515 419.449466 
L 340.807366 423.332692 
L 337.642218 425.572596 
L 334.477069 425.035909 
L 331.311921 415.202702 
L 328.146772 423.311253 
L 324.981624 417.626367 
L 321.816475 425.107947 
L 318.651327 420.767689 
L 315.486178 414.446514 
L 312.32103 413.984223 
L 309.155881 401.969351 
L 305.990733 397.386235 
L 302.825584 408.981245 
L 299.660436 411.903273 
L 296.495287 419.128827 
L 293.330139 423.048623 
L 290.16499 423.663242 
L 286.999842 424.854179 
L 283.834693 423.351302 
L 280.669545 425.49106 
L 277.504396 425.969033 
L 274.339248 424.126647 
L 271.174099 422.544261 
L 268.00895 420.849574 
L 264.843802 419.461279 
L 261.678653 422.211238 
L 258.513505 423.316882 
L 255.348356 422.703445 
L 252.183208 421.001502 
L 249.018059 421.307323 
L 245.852911 408.048227 
L 242.687762 406.75526 
L 239.522614 403.557002 
L 236.357465 400.72022 
L 233.192317 398.9776 
L 230.027168 398.121957 
L 226.86202 400.100364 
L 223.696871 400.003153 
L 220.531723 399.604809 
L 217.366574 400.747545 
L 214.201426 399.711084 
L 211.036277 400.123021 
L 207.871129 398.451381 
L 204.70598 399.188632 
L 201.540832 401.656078 
L 198.375683 406.10838 
L 195.210535 397.800832 
L 192.045386 407.021639 
L 188.880238 413.468207 
L 185.715089 401.752854 
L 182.549941 403.747269 
L 179.384792 405.669184 
L 176.219644 405.772631 
L 173.054495 408.896412 
L 169.889347 409.029282 
L 166.724198 393.756461 
L 163.55905 401.235096 
L 160.393901 397.829011 
L 157.228752 392.313867 
L 154.063604 398.037901 
L 150.898455 399.006664 
L 147.733307 397.732845 
L 144.568158 405.39338 
L 141.40301 402.720824 
L 138.237861 402.960587 
L 135.072713 401.840359 
L 131.907564 410.513997 
L 128.742416 406.287456 
L 125.577267 403.264158 
L 122.412119 402.230001 
L 119.24697 399.750555 
L 116.081822 400.151965 
L 112.916673 401.634947 
L 109.751525 400.485293 
L 106.586376 405.990134 
L 103.421228 406.723088 
L 100.256079 407.283821 
L 97.090931 406.426049 
L 93.925782 400.085714 
L 90.760634 401.884461 
L 87.595485 403.535678 
L 84.430337 400.163961 
L 81.265188 399.565509 
L 78.10004 402.036573 
L 74.934891 411.256622 
L 71.769743 398.937328 
L 68.604594 399.661161 
L 65.439446 396.612261 
L 62.274297 401.335772 
L 59.109149 397.669009 
L 55.944 400.617741 
z
" clip-path="url(#p464abe3c44)" style="fill: #e6e6e6; fill-opacity: 0.00001"/>
   </g>
   <g id="PI-PATCH-LOWER-0">
    <path d="M 55.944 433.201823 
L 59.109149 438.245993 
L 62.274297 444.043915 
L 65.439446 440.85594 
L 68.604594 443.153336 
L 71.769743 444.806134 
L 74.934891 445.296706 
L 78.10004 432.982899 
L 81.265188 438.551105 
L 84.430337 433.3582 
L 87.595485 435.09234 
L 90.760634 432.713294 
L 93.925782 429.387412 
L 97.090931 435.482522 
L 100.256079 436.039186 
L 103.421228 434.918145 
L 106.586376 435.310075 
L 109.751525 433.406426 
L 112.916673 431.952153 
L 116.081822 431.385893 
L 119.24697 428.343559 
L 125.577267 431.131962 
L 128.742416 434.335485 
L 131.907564 440.494012 
L 135.072713 433.157264 
L 138.237861 435.815545 
L 141.40301 435.265126 
L 144.568158 438.41514 
L 147.733307 433.049536 
L 150.898455 438.66828 
L 154.063604 436.599618 
L 157.228752 428.164708 
L 160.393901 434.349621 
L 163.55905 433.470635 
L 166.724198 422.40446 
L 169.889347 437.647153 
L 173.054495 437.56966 
L 176.219644 436.317558 
L 179.384792 434.396722 
L 182.549941 434.256168 
L 185.715089 430.788536 
L 188.880238 445.214673 
L 192.045386 438.385815 
L 195.210535 433.052016 
L 198.375683 438.903491 
L 201.540832 434.313355 
L 204.70598 437.415351 
L 207.871129 439.554547 
L 211.036277 444.389757 
L 214.201426 442.793469 
L 217.366574 439.894412 
L 220.531723 434.731338 
L 223.696871 432.362357 
L 226.86202 432.609433 
L 230.027168 433.999095 
L 236.357465 430.108121 
L 239.522614 432.104859 
L 242.687762 435.67863 
L 245.852911 438.175141 
L 249.018059 449.712 
L 261.678653 449.712 
L 264.843802 447.188723 
L 268.00895 449.712 
L 296.495287 449.712 
L 299.660436 442.925397 
L 302.825584 439.589123 
L 305.990733 441.61888 
L 309.155881 445.676595 
L 312.32103 448.830307 
L 315.486178 448.655013 
L 318.651327 449.712 
L 400.6 449.683678 
L 400.6 449.683678 
" clip-path="url(#p464abe3c44)" style="fill: none; stroke: #b78935; stroke-opacity: 0; stroke-linecap: square"/>
   </g>
   <g id="PI-PATCH-UPPER-0">
    <path d="M 55.944 400.617741 
L 59.109149 397.669009 
L 62.274297 401.335772 
L 65.439446 396.612261 
L 68.604594 399.661161 
L 71.769743 398.937328 
L 74.934891 411.256622 
L 78.10004 402.036573 
L 81.265188 399.565509 
L 84.430337 400.163961 
L 87.595485 403.535678 
L 90.760634 401.884461 
L 93.925782 400.085714 
L 97.090931 406.426049 
L 100.256079 407.283821 
L 103.421228 406.723088 
L 106.586376 405.990134 
L 109.751525 400.485293 
L 112.916673 401.634947 
L 116.081822 400.151965 
L 119.24697 399.750555 
L 122.412119 402.230001 
L 125.577267 403.264158 
L 128.742416 406.287456 
L 131.907564 410.513997 
L 135.072713 401.840359 
L 138.237861 402.960587 
L 141.40301 402.720824 
L 144.568158 405.39338 
L 147.733307 397.732845 
L 150.898455 399.006664 
L 154.063604 398.037901 
L 157.228752 392.313867 
L 160.393901 397.829011 
L 163.55905 401.235096 
L 166.724198 393.756461 
L 169.889347 409.029282 
L 173.054495 408.896412 
L 176.219644 405.772631 
L 179.384792 405.669184 
L 185.715089 401.752854 
L 188.880238 413.468207 
L 192.045386 407.021639 
L 195.210535 397.800832 
L 198.375683 406.10838 
L 201.540832 401.656078 
L 204.70598 399.188632 
L 207.871129 398.451381 
L 211.036277 400.123021 
L 214.201426 399.711084 
L 217.366574 400.747545 
L 220.531723 399.604809 
L 223.696871 400.003153 
L 226.86202 400.100364 
L 230.027168 398.121957 
L 233.192317 398.9776 
L 236.357465 400.72022 
L 239.522614 403.557002 
L 242.687762 406.75526 
L 245.852911 408.048227 
L 249.018059 421.307323 
L 252.183208 421.001502 
L 255.348356 422.703445 
L 258.513505 423.316882 
L 261.678653 422.211238 
L 264.843802 419.461279 
L 268.00895 420.849574 
L 277.504396 425.969033 
L 280.669545 425.49106 
L 283.834693 423.351302 
L 286.999842 424.854179 
L 290.16499 423.663242 
L 293.330139 423.048623 
L 296.495287 419.128827 
L 299.660436 411.903273 
L 302.825584 408.981245 
L 305.990733 397.386235 
L 309.155881 401.969351 
L 312.32103 413.984223 
L 315.486178 414.446514 
L 318.651327 420.767689 
L 321.816475 425.107947 
L 324.981624 417.626367 
L 328.146772 423.311253 
L 331.311921 415.202702 
L 334.477069 425.035909 
L 337.642218 425.572596 
L 340.807366 423.332692 
L 343.972515 419.449466 
L 347.137663 418.320837 
L 350.302812 419.514051 
L 353.46796 420.26002 
L 356.633109 417.667597 
L 359.798257 414.518182 
L 362.963406 424.873662 
L 366.128554 418.86242 
L 369.293703 424.650951 
L 372.458851 422.918679 
L 375.624 419.617783 
L 378.789149 421.190528 
L 381.954297 425.071816 
L 400.6 424.970563 
L 400.6 424.970563 
" clip-path="url(#p464abe3c44)" style="fill: none; stroke: #406992; stroke-opacity: 0; stroke-linecap: square"/>
   </g>
   <g id="PI-PATCH-1">
    <path d="M 55.944 406.518051 
L 55.944 428.220504 
L 59.109149 431.212225 
L 62.274297 436.482531 
L 65.439446 432.94633 
L 68.604594 435.267364 
L 71.769743 436.557874 
L 74.934891 440.869629 
L 78.10004 428.595916 
L 81.265188 431.945193 
L 84.430337 427.60229 
L 87.595485 429.669373 
L 90.760634 427.916419 
L 93.925782 424.410686 
L 97.090931 431.607863 
L 100.256079 432.435343 
L 103.421228 430.846288 
L 106.586376 431.643362 
L 109.751525 427.849099 
L 112.916673 426.945624 
L 116.081822 425.94112 
L 119.24697 423.634516 
L 122.412119 425.323386 
L 125.577267 427.318781 
L 128.742416 430.544056 
L 131.907564 437.410555 
L 135.072713 428.609149 
L 138.237861 430.859491 
L 141.40301 430.114254 
L 144.568158 434.178671 
L 147.733307 427.633862 
L 150.898455 432.200748 
L 154.063604 430.2014 
L 157.228752 422.2985 
L 160.393901 428.078433 
L 163.55905 428.310195 
L 166.724198 417.293139 
L 169.889347 433.804682 
L 173.054495 433.744068 
L 176.219644 432.583965 
L 179.384792 430.695819 
L 182.549941 430.354166 
L 185.715089 425.745992 
L 188.880238 441.552734 
L 192.045386 434.223039 
L 195.210535 427.398946 
L 198.375683 434.073014 
L 201.540832 428.808377 
L 204.70598 430.325186 
L 207.871129 432.002691 
L 211.036277 436.45309 
L 214.201426 435.017651 
L 217.366574 432.772065 
L 220.531723 428.401758 
L 223.696871 427.099196 
L 226.86202 426.918885 
L 230.027168 427.488026 
L 233.192317 425.892826 
L 236.357465 424.875578 
L 239.522614 427.56465 
L 242.687762 431.744159 
L 245.852911 434.273597 
L 249.018059 447.457768 
L 252.183208 447.292178 
L 255.348356 447.567081 
L 258.513505 447.819837 
L 261.678653 447.53928 
L 264.843802 444.366675 
L 268.00895 446.986884 
L 271.174099 447.861561 
L 274.339248 448.322528 
L 277.504396 448.871375 
L 280.669545 449.026929 
L 283.834693 448.426035 
L 286.999842 449.168276 
L 290.16499 448.914857 
L 293.330139 449.121212 
L 296.495287 446.864963 
L 299.660436 439.043082 
L 302.825584 435.325596 
L 305.990733 434.367453 
L 309.155881 438.168312 
L 312.32103 443.902484 
L 315.486178 444.550503 
L 318.651327 447.494328 
L 321.816475 449.175007 
L 324.981624 447.712263 
L 328.146772 448.90723 
L 331.311921 446.441703 
L 334.477069 448.677197 
L 337.642218 449.013891 
L 340.807366 448.901578 
L 343.972515 447.903907 
L 347.137663 447.521089 
L 350.302812 447.778927 
L 353.46796 447.903816 
L 356.633109 447.21008 
L 359.798257 446.889729 
L 362.963406 448.794369 
L 366.128554 447.643447 
L 369.293703 449.116788 
L 372.458851 448.724759 
L 375.624 447.932134 
L 378.789149 448.151438 
L 381.954297 448.93147 
L 3031.183604 442.410649 
L 3034.348752 444.016663 
L 3037.513901 442.290901 
L 3040.67905 440.225648 
L 3043.844198 431.998521 
L 3047.009347 437.423604 
L 3050.174495 434.12991 
L 3053.339644 441.811233 
L 3056.504792 432.16733 
L 3059.669941 427.931498 
L 3062.835089 432.871179 
L 3066.000238 432.178789 
L 3069.165386 428.314258 
L 3072.330535 431.590882 
L 3075.495683 425.153782 
L 3078.660832 426.140029 
L 3081.82598 422.656441 
L 3084.991129 427.298438 
L 3088.156277 425.684065 
L 3091.321426 429.721784 
L 3094.486574 431.61066 
L 3097.651723 424.953726 
L 3100.816871 424.933571 
L 3103.98202 421.818216 
L 3107.147168 421.354546 
L 3110.312317 420.352919 
L 3113.477465 420.764878 
L 3116.642614 424.414698 
L 3119.807762 418.373497 
L 3122.972911 422.229359 
L 3126.138059 421.144493 
L 3129.303208 422.122077 
L 3132.468356 426.459601 
L 3135.633505 425.243385 
L 3138.798653 416.904617 
L 3141.963802 415.554381 
L 3145.12895 415.32356 
L 3148.294099 421.284452 
L 3151.459248 424.34949 
L 3154.624396 427.781424 
L 3157.789545 428.568323 
L 3160.954693 430.633979 
L 3164.119842 433.598132 
L 3167.28499 432.233028 
L 3170.450139 432.901699 
L 3173.615287 434.857914 
L 3176.780436 428.194842 
L 3179.945584 429.689288 
L 3183.110733 432.862477 
L 3186.275881 435.36367 
L 3189.44103 435.356088 
L 3192.606178 435.745317 
L 3195.771327 438.719403 
L 3198.936475 437.995426 
L 3202.101624 438.675168 
L 3205.266772 439.090476 
L 3208.431921 435.192633 
L 3211.597069 433.401495 
L 3214.762218 429.263443 
L 3217.927366 435.17522 
L 3221.092515 424.849692 
L 3224.257663 429.035997 
L 3227.422812 429.037369 
L 3230.58796 429.064692 
L 3233.753109 430.712623 
L 3236.918257 415.929861 
L 3240.083406 419.038851 
L 3243.248554 423.977954 
L 3246.413703 417.76044 
L 3249.578851 429.643102 
L 3252.744 422.495223 
L 3255.909149 419.771221 
L 3259.074297 420.763924 
L 3262.239446 418.922421 
L 3265.404594 417.64077 
L 3268.569743 421.017214 
L 3271.734891 424.301652 
L 3271.734891 399.944931 
L 3271.734891 399.944931 
L 3268.569743 395.088033 
L 3265.404594 395.034605 
L 3262.239446 397.482033 
L 3259.074297 399.46886 
L 3255.909149 397.645771 
L 3252.744 402.277888 
L 3249.578851 409.955738 
L 3246.413703 398.50764 
L 3243.248554 404.784616 
L 3240.083406 398.927253 
L 3236.918257 393.914449 
L 3233.753109 403.598246 
L 3230.58796 407.546051 
L 3227.422812 403.144337 
L 3224.257663 400.876328 
L 3221.092515 400.430105 
L 3217.927366 405.844084 
L 3214.762218 401.039587 
L 3211.597069 403.287675 
L 3208.431921 402.525244 
L 3205.266772 405.232355 
L 3202.101624 406.820369 
L 3198.936475 406.156825 
L 3195.771327 407.892032 
L 3192.606178 405.330674 
L 3189.44103 405.444446 
L 3186.275881 405.38381 
L 3183.110733 404.813802 
L 3179.945584 404.802476 
L 3176.780436 405.776356 
L 3173.615287 406.320871 
L 3170.450139 404.644145 
L 3167.28499 402.178042 
L 3164.119842 404.983101 
L 3160.954693 402.670261 
L 3157.789545 401.870881 
L 3154.624396 401.331903 
L 3151.459248 399.359062 
L 3148.294099 397.658293 
L 3145.12895 393.318978 
L 3141.963802 395.004684 
L 3138.798653 397.484916 
L 3135.633505 403.923813 
L 3132.468356 403.834482 
L 3129.303208 399.1881 
L 3126.138059 395.689423 
L 3122.972911 395.338911 
L 3119.807762 393.450821 
L 3116.642614 401.365492 
L 3113.477465 399.468581 
L 3110.312317 400.527723 
L 3107.147168 401.894671 
L 3103.98202 402.229911 
L 3100.816871 404.60963 
L 3097.651723 404.768242 
L 3094.486574 411.854805 
L 3091.321426 410.105784 
L 3088.156277 405.930823 
L 3084.991129 407.391298 
L 3081.82598 401.246375 
L 3078.660832 405.081794 
L 3075.495683 405.275886 
L 3072.330535 412.216943 
L 3069.165386 409.555498 
L 3066.000238 413.065179 
L 3062.835089 413.708011 
L 3059.669941 409.070979 
L 3056.504792 412.610352 
L 3053.339644 421.155417 
L 3050.174495 415.348995 
L 3047.009347 419.077443 
L 3043.844198 411.033772 
L 3040.67905 420.623486 
L 3037.513901 423.230996 
L 3034.348752 424.60347 
L 3031.183604 419.965418 
L 381.954297 433.769917 
L 378.789149 430.326642 
L 375.624 429.068666 
L 372.458851 432.180372 
L 369.293703 433.779413 
L 366.128554 428.204377 
L 362.963406 433.456134 
L 359.798257 424.519706 
L 356.633109 426.870273 
L 353.46796 429.41516 
L 350.302812 428.788882 
L 347.137663 427.704742 
L 343.972515 428.927287 
L 340.807366 432.680458 
L 337.642218 434.188335 
L 334.477069 433.387604 
L 331.311921 424.296285 
L 328.146772 432.675568 
L 324.981624 427.557818 
L 321.816475 434.137138 
L 318.651327 429.139931 
L 315.486178 422.237032 
L 312.32103 420.86056 
L 309.155881 408.711414 
L 305.990733 404.701735 
L 302.825584 415.113362 
L 299.660436 418.740999 
L 296.495287 427.26046 
L 293.330139 432.820991 
L 290.16499 432.898306 
L 286.999842 433.974807 
L 283.834693 432.017086 
L 280.669545 434.15774 
L 277.504396 434.22485 
L 274.339248 432.337061 
L 271.174099 430.73047 
L 268.00895 428.469402 
L 264.843802 426.491951 
L 261.678653 430.072802 
L 258.513505 431.136446 
L 255.348356 430.408576 
L 252.183208 428.993943 
L 249.018059 429.412963 
L 245.852911 414.502436 
L 242.687762 412.683822 
L 239.522614 408.476869 
L 236.357465 404.992271 
L 233.192317 403.439888 
L 230.027168 403.162695 
L 226.86202 404.964753 
L 223.696871 405.414171 
L 220.531723 404.604298 
L 217.366574 406.222316 
L 214.201426 405.82498 
L 211.036277 406.480048 
L 207.871129 404.095366 
L 204.70598 404.342891 
L 201.540832 406.842685 
L 198.375683 412.306642 
L 195.210535 403.809583 
L 192.045386 413.597636 
L 188.880238 420.90679 
L 185.715089 406.154264 
L 182.549941 410.352835 
L 179.384792 411.851142 
L 176.219644 412.631429 
L 173.054495 414.879889 
L 169.889347 414.966779 
L 166.724198 397.906034 
L 163.55905 406.742616 
L 160.393901 403.466092 
L 157.228752 398.258901 
L 154.063604 404.307024 
L 150.898455 405.615156 
L 147.733307 404.104419 
L 144.568158 412.52446 
L 141.40301 408.364786 
L 138.237861 409.004529 
L 135.072713 407.850926 
L 131.907564 418.070238 
L 128.742416 412.070595 
L 125.577267 408.944722 
L 122.412119 406.915465 
L 119.24697 404.44889 
L 116.081822 404.857567 
L 112.916673 406.597415 
L 109.751525 405.702638 
L 106.586376 412.456333 
L 103.421228 412.166938 
L 100.256079 413.614536 
L 97.090931 412.492423 
L 93.925782 404.686348 
L 90.760634 407.347927 
L 87.595485 408.400641 
L 84.430337 405.208289 
L 81.265188 405.708687 
L 78.10004 408.128244 
L 74.934891 418.522548 
L 71.769743 405.489875 
L 68.604594 405.781871 
L 65.439446 402.998493 
L 62.274297 407.604926 
L 59.109149 403.838533 
L 55.944 406.518051 
z
" clip-path="url(#p464abe3c44)" style="fill: #bfbfbf; fill-opacity: 0.00001"/>
   </g>
   <g id="PI-PATCH-LOWER-1">
    <path d="M 55.944 428.220504 
L 59.109149 431.212225 
L 62.274297 436.482531 
L 65.439446 432.94633 
L 68.604594 435.267364 
L 71.769743 436.557874 
L 74.934891 440.869629 
L 78.10004 428.595916 
L 81.265188 431.945193 
L 84.430337 427.60229 
L 87.595485 429.669373 
L 90.760634 427.916419 
L 93.925782 424.410686 
L 97.090931 431.607863 
L 100.256079 432.435343 
L 103.421228 430.846288 
L 106.586376 431.643362 
L 109.751525 427.849099 
L 116.081822 425.94112 
L 119.24697 423.634516 
L 122.412119 425.323386 
L 125.577267 427.318781 
L 128.742416 430.544056 
L 131.907564 437.410555 
L 135.072713 428.609149 
L 138.237861 430.859491 
L 141.40301 430.114254 
L 144.568158 434.178671 
L 147.733307 427.633862 
L 150.898455 432.200748 
L 154.063604 430.2014 
L 157.228752 422.2985 
L 160.393901 428.078433 
L 163.55905 428.310195 
L 166.724198 417.293139 
L 169.889347 433.804682 
L 173.054495 433.744068 
L 176.219644 432.583965 
L 179.384792 430.695819 
L 182.549941 430.354166 
L 185.715089 425.745992 
L 188.880238 441.552734 
L 192.045386 434.223039 
L 195.210535 427.398946 
L 198.375683 434.073014 
L 201.540832 428.808377 
L 204.70598 430.325186 
L 207.871129 432.002691 
L 211.036277 436.45309 
L 214.201426 435.017651 
L 217.366574 432.772065 
L 220.531723 428.401758 
L 223.696871 427.099196 
L 226.86202 426.918885 
L 230.027168 427.488026 
L 233.192317 425.892826 
L 236.357465 424.875578 
L 239.522614 427.56465 
L 242.687762 431.744159 
L 245.852911 434.273597 
L 249.018059 447.457768 
L 252.183208 447.292178 
L 258.513505 447.819837 
L 261.678653 447.53928 
L 264.843802 444.366675 
L 268.00895 446.986884 
L 271.174099 447.861561 
L 277.504396 448.871375 
L 280.669545 449.026929 
L 283.834693 448.426035 
L 286.999842 449.168276 
L 290.16499 448.914857 
L 293.330139 449.121212 
L 296.495287 446.864963 
L 299.660436 439.043082 
L 302.825584 435.325596 
L 305.990733 434.367453 
L 309.155881 438.168312 
L 312.32103 443.902484 
L 315.486178 444.550503 
L 318.651327 447.494328 
L 321.816475 449.175007 
L 324.981624 447.712263 
L 328.146772 448.90723 
L 331.311921 446.441703 
L 334.477069 448.677197 
L 337.642218 449.013891 
L 340.807366 448.901578 
L 343.972515 447.903907 
L 347.137663 447.521089 
L 350.302812 447.778927 
L 353.46796 447.903816 
L 356.633109 447.21008 
L 359.798257 446.889729 
L 362.963406 448.794369 
L 366.128554 447.643447 
L 369.293703 449.116788 
L 372.458851 448.724759 
L 375.624 447.932134 
L 378.789149 448.151438 
L 381.954297 448.93147 
L 400.6 448.885575 
L 400.6 448.885575 
" clip-path="url(#p464abe3c44)" style="fill: none; stroke: #b78935; stroke-opacity: 0; stroke-linecap: square"/>
   </g>
   <g id="PI-PATCH-UPPER-1">
    <path d="M 55.944 406.518051 
L 59.109149 403.838533 
L 62.274297 407.604926 
L 65.439446 402.998493 
L 68.604594 405.781871 
L 71.769743 405.489875 
L 74.934891 418.522548 
L 78.10004 408.128244 
L 81.265188 405.708687 
L 84.430337 405.208289 
L 87.595485 408.400641 
L 90.760634 407.347927 
L 93.925782 404.686348 
L 97.090931 412.492423 
L 100.256079 413.614536 
L 103.421228 412.166938 
L 106.586376 412.456333 
L 109.751525 405.702638 
L 112.916673 406.597415 
L 116.081822 404.857567 
L 119.24697 404.44889 
L 122.412119 406.915465 
L 125.577267 408.944722 
L 128.742416 412.070595 
L 131.907564 418.070238 
L 135.072713 407.850926 
L 138.237861 409.004529 
L 141.40301 408.364786 
L 144.568158 412.52446 
L 147.733307 404.104419 
L 150.898455 405.615156 
L 154.063604 404.307024 
L 157.228752 398.258901 
L 160.393901 403.466092 
L 163.55905 406.742616 
L 166.724198 397.906034 
L 169.889347 414.966779 
L 173.054495 414.879889 
L 176.219644 412.631429 
L 179.384792 411.851142 
L 182.549941 410.352835 
L 185.715089 406.154264 
L 188.880238 420.90679 
L 192.045386 413.597636 
L 195.210535 403.809583 
L 198.375683 412.306642 
L 201.540832 406.842685 
L 204.70598 404.342891 
L 207.871129 404.095366 
L 211.036277 406.480048 
L 214.201426 405.82498 
L 217.366574 406.222316 
L 220.531723 404.604298 
L 223.696871 405.414171 
L 226.86202 404.964753 
L 230.027168 403.162695 
L 233.192317 403.439888 
L 236.357465 404.992271 
L 239.522614 408.476869 
L 242.687762 412.683822 
L 245.852911 414.502436 
L 249.018059 429.412963 
L 252.183208 428.993943 
L 255.348356 430.408576 
L 258.513505 431.136446 
L 261.678653 430.072802 
L 264.843802 426.491951 
L 268.00895 428.469402 
L 271.174099 430.73047 
L 274.339248 432.337061 
L 277.504396 434.22485 
L 280.669545 434.15774 
L 283.834693 432.017086 
L 286.999842 433.974807 
L 290.16499 432.898306 
L 293.330139 432.820991 
L 296.495287 427.26046 
L 299.660436 418.740999 
L 302.825584 415.113362 
L 305.990733 404.701735 
L 309.155881 408.711414 
L 312.32103 420.86056 
L 315.486178 422.237032 
L 318.651327 429.139931 
L 321.816475 434.137138 
L 324.981624 427.557818 
L 328.146772 432.675568 
L 331.311921 424.296285 
L 334.477069 433.387604 
L 337.642218 434.188335 
L 340.807366 432.680458 
L 343.972515 428.927287 
L 347.137663 427.704742 
L 350.302812 428.788882 
L 353.46796 429.41516 
L 356.633109 426.870273 
L 359.798257 424.519706 
L 362.963406 433.456134 
L 366.128554 428.204377 
L 369.293703 433.779413 
L 372.458851 432.180372 
L 375.624 429.068666 
L 378.789149 430.326642 
L 381.954297 433.769917 
L 400.6 433.672759 
L 400.6 433.672759 
" clip-path="url(#p464abe3c44)" style="fill: none; stroke: #406992; stroke-opacity: 0; stroke-linecap: square"/>
   </g>
   <g id="PI-PATCH-2">
    <path d="M 55.944 410.981463 
L 55.944 424.26195 
L 59.109149 425.622631 
L 62.274297 430.473652 
L 65.439446 426.660723 
L 68.604594 429.000541 
L 71.769743 430.003149 
L 74.934891 437.351521 
L 78.10004 425.10967 
L 81.265188 426.695607 
L 84.430337 423.028185 
L 87.595485 425.359851 
L 90.760634 424.104439 
L 93.925782 420.455783 
L 97.090931 428.528749 
L 100.256079 429.571442 
L 103.421228 427.610466 
L 106.586376 428.729499 
L 109.751525 423.432803 
L 112.916673 422.967036 
L 116.081822 421.614269 
L 119.24697 419.892335 
L 122.412119 421.816145 
L 125.577267 424.288523 
L 128.742416 427.531084 
L 131.907564 434.960195 
L 135.072713 424.994855 
L 138.237861 426.921015 
L 141.40301 426.020961 
L 144.568158 430.812036 
L 147.733307 423.330135 
L 150.898455 427.061131 
L 154.063604 425.116867 
L 157.228752 417.636743 
L 160.393901 423.094846 
L 163.55905 424.209298 
L 166.724198 413.231276 
L 169.889347 430.751148 
L 173.054495 430.703947 
L 176.219644 429.616954 
L 179.384792 427.754786 
L 182.549941 427.253325 
L 185.715089 421.738785 
L 188.880238 438.642666 
L 192.045386 430.914966 
L 195.210535 422.906566 
L 198.375683 430.234332 
L 201.540832 424.433683 
L 204.70598 424.690775 
L 207.871129 426.001384 
L 211.036277 430.145982 
L 214.201426 428.838365 
L 217.366574 427.11208 
L 220.531723 423.371768 
L 223.696871 422.916669 
L 226.86202 422.396721 
L 230.027168 422.313812 
L 233.192317 421.027606 
L 236.357465 420.717383 
L 239.522614 423.956638 
L 242.687762 428.617514 
L 245.852911 431.173119 
L 249.018059 445.666376 
L 252.183208 445.369194 
L 255.348356 445.862557 
L 258.513505 446.316173 
L 261.678653 445.812664 
L 264.843802 442.124051 
L 268.00895 444.821289 
L 271.174099 446.391055 
L 274.339248 447.218343 
L 277.504396 448.203348 
L 280.669545 448.482516 
L 283.834693 447.404105 
L 286.999842 448.73619 
L 290.16499 448.281383 
L 293.330139 448.651725 
L 296.495287 444.602481 
L 299.660436 435.957885 
L 302.825584 431.937458 
L 305.990733 428.60489 
L 309.155881 432.201632 
L 312.32103 439.986442 
L 315.486178 441.288731 
L 318.651327 445.731988 
L 321.816475 448.74827 
L 324.981624 446.123113 
L 328.146772 448.267696 
L 331.311921 443.842863 
L 334.477069 447.854861 
L 337.642218 448.459118 
L 340.807366 448.257553 
L 343.972515 446.467053 
L 347.137663 445.780016 
L 350.302812 446.242753 
L 353.46796 446.466889 
L 356.633109 445.221854 
L 359.798257 444.646927 
L 362.963406 448.065146 
L 366.128554 445.99961 
L 369.293703 448.643784 
L 372.458851 447.940218 
L 375.624 446.517711 
L 378.789149 446.91129 
L 381.954297 448.311198 
L 3031.183604 439.80623 
L 3034.348752 441.654224 
L 3037.513901 439.967739 
L 3040.67905 437.63675 
L 3043.844198 428.533643 
L 3047.009347 434.738989 
L 3050.174495 431.267968 
L 3053.339644 439.219158 
L 3056.504792 428.915238 
L 3059.669941 424.532579 
L 3062.835089 430.027703 
L 3066.000238 429.057728 
L 3069.165386 425.157857 
L 3072.330535 428.77731 
L 3075.495683 421.360356 
L 3078.660832 421.940846 
L 3081.82598 418.235543 
L 3084.991129 423.545753 
L 3088.156277 422.168121 
L 3091.321426 426.436877 
L 3094.486574 428.984379 
L 3097.651723 421.604943 
L 3100.816871 421.157381 
L 3103.98202 418.166164 
L 3107.147168 417.834298 
L 3110.312317 416.518504 
L 3113.477465 416.365096 
L 3116.642614 419.751989 
L 3119.807762 413.399537 
L 3122.972911 416.932476 
L 3126.138059 416.061008 
L 3129.303208 417.565859 
L 3132.468356 422.125765 
L 3135.633505 421.33193 
L 3138.798653 413.178161 
L 3141.963802 411.55986 
L 3145.12895 411.297741 
L 3148.294099 416.402849 
L 3151.459248 419.343346 
L 3154.624396 422.566662 
L 3157.789545 423.288416 
L 3160.954693 425.275698 
L 3164.119842 428.300125 
L 3167.28499 426.560804 
L 3170.450139 426.656811 
L 3173.615287 428.618818 
L 3176.780436 423.032574 
L 3179.945584 424.334912 
L 3183.110733 426.774085 
L 3186.275881 428.889391 
L 3189.44103 428.896822 
L 3192.606178 429.139294 
L 3195.771327 432.058877 
L 3198.936475 431.113337 
L 3202.101624 431.73254 
L 3205.266772 431.747344 
L 3208.431921 428.334241 
L 3211.597069 426.700544 
L 3214.762218 422.954591 
L 3217.927366 428.759349 
L 3221.092515 419.594853 
L 3224.257663 422.960066 
L 3227.422812 423.495799 
L 3230.58796 425.381605 
L 3233.753109 425.203407 
L 3236.918257 411.564188 
L 3240.083406 415.187833 
L 3243.248554 420.668578 
L 3246.413703 413.829364 
L 3249.578851 426.60524 
L 3252.744 418.662445 
L 3255.909149 415.061413 
L 3259.074297 416.154947 
L 3262.239446 414.22688 
L 3265.404594 412.37864 
L 3268.569743 414.900612 
L 3271.734891 418.596332 
L 3271.734891 402.916766 
L 3271.734891 402.916766 
L 3268.569743 398.182422 
L 3265.404594 397.846326 
L 3262.239446 400.625154 
L 3259.074297 402.679007 
L 3255.909149 401.108401 
L 3252.744 406.201702 
L 3249.578851 414.897302 
L 3246.413703 401.790565 
L 3243.248554 409.041031 
L 3240.083406 402.768764 
L 3236.918257 397.877382 
L 3233.753109 408.265356 
L 3230.58796 412.362071 
L 3227.422812 407.148567 
L 3224.257663 405.151591 
L 3221.092515 404.160303 
L 3217.927366 410.156529 
L 3214.762218 404.971086 
L 3211.597069 407.531435 
L 3208.431921 407.791731 
L 3205.266772 410.311995 
L 3202.101624 411.544632 
L 3198.936475 410.970678 
L 3195.771327 412.557801 
L 3192.606178 409.878028 
L 3189.44103 409.977119 
L 3186.275881 409.926365 
L 3183.110733 409.01346 
L 3179.945584 408.605666 
L 3176.780436 408.655383 
L 3173.615287 410.521526 
L 3170.450139 408.69571 
L 3167.28499 408.052417 
L 3164.119842 410.741361 
L 3160.954693 408.005601 
L 3157.789545 406.699554 
L 3154.624396 406.141739 
L 3151.459248 403.775992 
L 3148.294099 401.594057 
L 3145.12895 397.82491 
L 3141.963802 398.833678 
L 3138.798653 401.181483 
L 3135.633505 408.271786 
L 3132.468356 408.153645 
L 3129.303208 403.302838 
L 3126.138059 400.21387 
L 3122.972911 400.236693 
L 3119.807762 397.885811 
L 3116.642614 405.366003 
L 3113.477465 403.016916 
L 3110.312317 404.252826 
L 3107.147168 405.944076 
L 3103.98202 406.130843 
L 3100.816871 408.678061 
L 3097.651723 409.457141 
L 3094.486574 417.494771 
L 3091.321426 414.613014 
L 3088.156277 410.133857 
L 3084.991129 411.289258 
L 3081.82598 404.817521 
L 3078.660832 408.8348 
L 3075.495683 409.093483 
L 3072.330535 417.363726 
L 3069.165386 413.841476 
L 3066.000238 417.585609 
L 3062.835089 418.701153 
L 3059.669941 413.016491 
L 3056.504792 417.141025 
L 3053.339644 427.300561 
L 3050.174495 420.121211 
L 3047.009347 423.918431 
L 3043.844198 415.924963 
L 3040.67905 426.24693 
L 3037.513901 429.012123 
L 3034.348752 430.49786 
L 3031.183604 426.985351 
L 381.954297 440.349777 
L 378.789149 437.237846 
L 375.624 436.217983 
L 372.458851 439.186572 
L 369.293703 440.684827 
L 366.128554 435.271296 
L 362.963406 439.948523 
L 359.798257 432.085567 
L 356.633109 433.831829 
L 353.46796 436.340756 
L 350.302812 435.805021 
L 347.137663 434.803392 
L 343.972515 436.096983 
L 340.807366 439.751771 
L 337.642218 440.705891 
L 334.477069 439.705418 
L 331.311921 431.175315 
L 328.146772 439.759399 
L 324.981624 435.07067 
L 321.816475 440.967458 
L 318.651327 435.473288 
L 315.486178 428.130332 
L 312.32103 426.062308 
L 309.155881 413.811588 
L 305.990733 410.235697 
L 302.825584 419.752129 
L 299.660436 423.913539 
L 296.495287 433.411803 
L 293.330139 440.213503 
L 290.16499 439.884362 
L 286.999842 440.874295 
L 283.834693 438.572498 
L 280.669545 440.713831 
L 277.504396 440.470134 
L 274.339248 438.548 
L 271.174099 436.923098 
L 268.00895 434.233579 
L 264.843802 431.810449 
L 261.678653 436.019845 
L 258.513505 437.051719 
L 255.348356 436.237283 
L 252.183208 435.039992 
L 249.018059 435.544643 
L 245.852911 419.384857 
L 242.687762 417.168606 
L 239.522614 412.198605 
L 236.357465 408.223953 
L 233.192317 406.815479 
L 230.027168 406.975866 
L 226.86202 408.644522 
L 223.696871 409.507448 
L 220.531723 408.386265 
L 217.366574 410.363821 
L 214.201426 410.449964 
L 211.036277 411.288953 
L 207.871129 408.364876 
L 204.70598 408.241937 
L 201.540832 410.766201 
L 198.375683 416.995447 
L 195.210535 408.355028 
L 192.045386 418.572186 
L 188.880238 426.53386 
L 185.715089 409.483803 
L 182.549941 415.349754 
L 179.384792 416.527612 
L 176.219644 417.819909 
L 173.054495 419.406215 
L 169.889347 419.458322 
L 166.724198 401.045064 
L 163.55905 410.908895 
L 160.393901 407.730379 
L 157.228752 402.756145 
L 154.063604 409.049433 
L 150.898455 410.614287 
L 147.733307 408.92433 
L 144.568158 417.918913 
L 141.40301 412.634279 
L 138.237861 413.576595 
L 135.072713 412.397745 
L 131.907564 423.786314 
L 128.742416 416.445371 
L 125.577267 413.241903 
L 122.412119 410.459882 
L 119.24697 408.003043 
L 116.081822 408.417218 
L 112.916673 410.351376 
L 109.751525 409.649408 
L 106.586376 417.347823 
L 103.421228 416.285051 
L 100.256079 418.403537 
L 97.090931 417.081458 
L 93.925782 408.166593 
L 90.760634 411.48088 
L 87.595485 412.080843 
L 84.430337 409.024175 
L 81.265188 410.355821 
L 78.10004 412.736416 
L 74.934891 424.019009 
L 71.769743 410.446686 
L 68.604594 410.41201 
L 65.439446 407.829492 
L 62.274297 412.347358 
L 59.109149 408.505598 
L 55.944 410.981463 
z
" clip-path="url(#p464abe3c44)" style="fill: #808080; fill-opacity: 0.00001"/>
   </g>
   <g id="PI-PATCH-LOWER-2">
    <path d="M 55.944 424.26195 
L 59.109149 425.622631 
L 62.274297 430.473652 
L 65.439446 426.660723 
L 68.604594 429.000541 
L 71.769743 430.003149 
L 74.934891 437.351521 
L 78.10004 425.10967 
L 81.265188 426.695607 
L 84.430337 423.028185 
L 87.595485 425.359851 
L 90.760634 424.104439 
L 93.925782 420.455783 
L 97.090931 428.528749 
L 100.256079 429.571442 
L 103.421228 427.610466 
L 106.586376 428.729499 
L 109.751525 423.432803 
L 112.916673 422.967036 
L 116.081822 421.614269 
L 119.24697 419.892335 
L 122.412119 421.816145 
L 125.577267 424.288523 
L 128.742416 427.531084 
L 131.907564 434.960195 
L 135.072713 424.994855 
L 138.237861 426.921015 
L 141.40301 426.020961 
L 144.568158 430.812036 
L 147.733307 423.330135 
L 150.898455 427.061131 
L 154.063604 425.116867 
L 157.228752 417.636743 
L 160.393901 423.094846 
L 163.55905 424.209298 
L 166.724198 413.231276 
L 169.889347 430.751148 
L 173.054495 430.703947 
L 176.219644 429.616954 
L 179.384792 427.754786 
L 182.549941 427.253325 
L 185.715089 421.738785 
L 188.880238 438.642666 
L 195.210535 422.906566 
L 198.375683 430.234332 
L 201.540832 424.433683 
L 204.70598 424.690775 
L 207.871129 426.001384 
L 211.036277 430.145982 
L 214.201426 428.838365 
L 217.366574 427.11208 
L 220.531723 423.371768 
L 226.86202 422.396721 
L 230.027168 422.313812 
L 233.192317 421.027606 
L 236.357465 420.717383 
L 239.522614 423.956638 
L 242.687762 428.617514 
L 245.852911 431.173119 
L 249.018059 445.666376 
L 252.183208 445.369194 
L 258.513505 446.316173 
L 261.678653 445.812664 
L 264.843802 442.124051 
L 268.00895 444.821289 
L 271.174099 446.391055 
L 274.339248 447.218343 
L 277.504396 448.203348 
L 280.669545 448.482516 
L 283.834693 447.404105 
L 286.999842 448.73619 
L 290.16499 448.281383 
L 293.330139 448.651725 
L 296.495287 444.602481 
L 299.660436 435.957885 
L 302.825584 431.937458 
L 305.990733 428.60489 
L 309.155881 432.201632 
L 312.32103 439.986442 
L 315.486178 441.288731 
L 318.651327 445.731988 
L 321.816475 448.74827 
L 324.981624 446.123113 
L 328.146772 448.267696 
L 331.311921 443.842863 
L 334.477069 447.854861 
L 337.642218 448.459118 
L 340.807366 448.257553 
L 343.972515 446.467053 
L 347.137663 445.780016 
L 350.302812 446.242753 
L 353.46796 446.466889 
L 356.633109 445.221854 
L 359.798257 444.646927 
L 362.963406 448.065146 
L 366.128554 445.99961 
L 369.293703 448.643784 
L 372.458851 447.940218 
L 375.624 446.517711 
L 378.789149 446.91129 
L 381.954297 448.311198 
L 400.6 448.251338 
L 400.6 448.251338 
" clip-path="url(#p464abe3c44)" style="fill: none; stroke: #b78935; stroke-opacity: 0; stroke-linecap: square"/>
   </g>
   <g id="PI-PATCH-UPPER-2">
    <path d="M 55.944 410.981463 
L 59.109149 408.505598 
L 62.274297 412.347358 
L 65.439446 407.829492 
L 68.604594 410.41201 
L 71.769743 410.446686 
L 74.934891 424.019009 
L 78.10004 412.736416 
L 81.265188 410.355821 
L 84.430337 409.024175 
L 87.595485 412.080843 
L 90.760634 411.48088 
L 93.925782 408.166593 
L 97.090931 417.081458 
L 100.256079 418.403537 
L 103.421228 416.285051 
L 106.586376 417.347823 
L 109.751525 409.649408 
L 112.916673 410.351376 
L 116.081822 408.417218 
L 119.24697 408.003043 
L 122.412119 410.459882 
L 125.577267 413.241903 
L 128.742416 416.445371 
L 131.907564 423.786314 
L 135.072713 412.397745 
L 138.237861 413.576595 
L 141.40301 412.634279 
L 144.568158 417.918913 
L 147.733307 408.92433 
L 150.898455 410.614287 
L 154.063604 409.049433 
L 157.228752 402.756145 
L 160.393901 407.730379 
L 163.55905 410.908895 
L 166.724198 401.045064 
L 169.889347 419.458322 
L 173.054495 419.406215 
L 176.219644 417.819909 
L 182.549941 415.349754 
L 185.715089 409.483803 
L 188.880238 426.53386 
L 192.045386 418.572186 
L 195.210535 408.355028 
L 198.375683 416.995447 
L 201.540832 410.766201 
L 204.70598 408.241937 
L 207.871129 408.364876 
L 211.036277 411.288953 
L 214.201426 410.449964 
L 217.366574 410.363821 
L 220.531723 408.386265 
L 223.696871 409.507448 
L 226.86202 408.644522 
L 230.027168 406.975866 
L 233.192317 406.815479 
L 236.357465 408.223953 
L 239.522614 412.198605 
L 242.687762 417.168606 
L 245.852911 419.384857 
L 249.018059 435.544643 
L 252.183208 435.039992 
L 255.348356 436.237283 
L 258.513505 437.051719 
L 261.678653 436.019845 
L 264.843802 431.810449 
L 268.00895 434.233579 
L 271.174099 436.923098 
L 274.339248 438.548 
L 277.504396 440.470134 
L 280.669545 440.713831 
L 283.834693 438.572498 
L 286.999842 440.874295 
L 290.16499 439.884362 
L 293.330139 440.213503 
L 296.495287 433.411803 
L 299.660436 423.913539 
L 302.825584 419.752129 
L 305.990733 410.235697 
L 309.155881 413.811588 
L 312.32103 426.062308 
L 315.486178 428.130332 
L 318.651327 435.473288 
L 321.816475 440.967458 
L 324.981624 435.07067 
L 328.146772 439.759399 
L 331.311921 431.175315 
L 334.477069 439.705418 
L 337.642218 440.705891 
L 340.807366 439.751771 
L 343.972515 436.096983 
L 347.137663 434.803392 
L 350.302812 435.805021 
L 353.46796 436.340756 
L 356.633109 433.831829 
L 359.798257 432.085567 
L 362.963406 439.948523 
L 366.128554 435.271296 
L 369.293703 440.684827 
L 372.458851 439.186572 
L 375.624 436.217983 
L 378.789149 437.237846 
L 381.954297 440.349777 
L 400.6 440.255716 
L 400.6 440.255716 
" clip-path="url(#p464abe3c44)" style="fill: none; stroke: #406992; stroke-opacity: 0; stroke-linecap: square"/>
   </g>
   <g id="matplotlib.axis_3">
    <g id="xtick_4">
     <g id="line2d_7">
      <g>
       <use xlink:href="#mbb65e66a88" x="93.925782" y="449.712" style="fill: #949494; stroke: #949494; stroke-width: 0.8"/>
      </g>
     </g>
     <g id="text_8">
      <text style="font-weight: 300; font-size: 16px; font-family: 'Source Sans 3', sans-serif; text-anchor: middle; fill: #595959" x="93.925782" y="468.2645" transform="rotate(-0 93.925782 468.2645)">2001</text>
     </g>
    </g>
    <g id="xtick_5">
     <g id="line2d_8">
      <g>
       <use xlink:href="#mbb65e66a88" x="258.965669" y="449.712" style="fill: #949494; stroke: #949494; stroke-width: 0.8"/>
      </g>
     </g>
     <g id="text_9">
      <text style="font-weight: 300; font-size: 16px; font-family: 'Source Sans 3', sans-serif; text-anchor: middle; fill: #595959" x="258.965669" y="468.2645" transform="rotate(-0 258.965669 468.2645)">2002</text>
     </g>
    </g>
    <g id="text_10">
     <text style="font-weight: 600; font-size: 16px; font-family: 'Source Sans 3', sans-serif; text-anchor: middle; fill: #595959" x="215.784" y="487.3695" transform="rotate(-0 215.784 487.3695)">Date</text>
    </g>
   </g>
   <g id="matplotlib.axis_4">
    <g id="ytick_4">
     <g id="line2d_9">
      <path d="M 55.944 449.712 
L 375.624 449.712 
" style="fill: none; stroke: #d1d1d1; stroke-width: 0.8; stroke-linecap: square"/>
     </g>
     <g id="line2d_10">
      <g>
       <use xlink:href="#mfd29fbddaf" x="55.944" y="449.712" style="fill: #949494; stroke: #949494; stroke-width: 0.8"/>
      </g>
     </g>
     <g id="text_11">
      <text style="font-weight: 300; font-size: 16px; font-family: 'Source Sans 3', sans-serif; text-anchor: end; fill: #595959" x="48.944" y="455.48825" transform="rotate(-0 48.944 455.48825)">0</text>
     </g>
    </g>
    <g id="ytick_5">
     <g id="line2d_11">
      <path d="M 55.944 416.433312 
L 375.624 416.433312 
" style="fill: none; stroke: #d1d1d1; stroke-width: 0.8; stroke-linecap: square"/>
     </g>
     <g id="line2d_12">
      <g>
       <use xlink:href="#mfd29fbddaf" x="55.944" y="416.433312" style="fill: #949494; stroke: #949494; stroke-width: 0.8"/>
      </g>
     </g>
     <g id="text_12">
      <text style="font-weight: 300; font-size: 16px; font-family: 'Source Sans 3', sans-serif; text-anchor: end; fill: #595959" x="48.944" y="422.209562" transform="rotate(-0 48.944 422.209562)">20</text>
     </g>
    </g>
    <g id="ytick_6">
     <g id="line2d_13">
      <path d="M 55.944 383.154624 
L 375.624 383.154624 
" style="fill: none; stroke: #d1d1d1; stroke-width: 0.8; stroke-linecap: square"/>
     </g>
     <g id="line2d_14">
      <g>
       <use xlink:href="#mfd29fbddaf" x="55.944" y="383.154624" style="fill: #949494; stroke: #949494; stroke-width: 0.8"/>
      </g>
     </g>
     <g id="text_13">
      <text style="font-weight: 300; font-size: 16px; font-family: 'Source Sans 3', sans-serif; text-anchor: end; fill: #595959" x="48.944" y="388.930874" transform="rotate(-0 48.944 388.930874)">40</text>
     </g>
    </g>
    <g id="ytick_7">
     <g id="line2d_15">
      <path d="M 55.944 349.875936 
L 375.624 349.875936 
" style="fill: none; stroke: #d1d1d1; stroke-width: 0.8; stroke-linecap: square"/>
     </g>
     <g id="line2d_16">
      <g>
       <use xlink:href="#mfd29fbddaf" x="55.944" y="349.875936" style="fill: #949494; stroke: #949494; stroke-width: 0.8"/>
      </g>
     </g>
     <g id="text_14">
      <text style="font-weight: 300; font-size: 16px; font-family: 'Source Sans 3', sans-serif; text-anchor: end; fill: #595959" x="48.944" y="355.652186" transform="rotate(-0 48.944 355.652186)">60</text>
     </g>
    </g>
    <g id="ytick_8">
     <g id="line2d_17">
      <path d="M 55.944 316.597248 
L 375.624 316.597248 
" style="fill: none; stroke: #d1d1d1; stroke-width: 0.8; stroke-linecap: square"/>
     </g>
     <g id="line2d_18">
      <g>
       <use xlink:href="#mfd29fbddaf" x="55.944" y="316.597248" style="fill: #949494; stroke: #949494; stroke-width: 0.8"/>
      </g>
     </g>
     <g id="text_15">
      <text style="font-weight: 300; font-size: 16px; font-family: 'Source Sans 3', sans-serif; text-anchor: end; fill: #595959" x="48.944" y="322.373498" transform="rotate(-0 48.944 322.373498)">80</text>
     </g>
    </g>
    <g id="ytick_9">
     <g id="line2d_19">
      <path d="M 55.944 283.31856 
L 375.624 283.31856 
" style="fill: none; stroke: #d1d1d1; stroke-width: 0.8; stroke-linecap: square"/>
     </g>
     <g id="line2d_20">
      <g>
       <use xlink:href="#mfd29fbddaf" x="55.944" y="283.31856" style="fill: #949494; stroke: #949494; stroke-width: 0.8"/>
      </g>
     </g>
     <g id="text_16">
      <text style="font-weight: 300; font-size: 16px; font-family: 'Source Sans 3', sans-serif; text-anchor: end; fill: #595959" x="48.944" y="289.09481" transform="rotate(-0 48.944 289.09481)">100</text>
     </g>
    </g>
   </g>
   <g id="TAG-0-LABEL-BOLD">
    <g id="patch_6">
     <path d="M 239.4165 349.496842 
L 351.9915 349.496842 
L 351.9915 316.976342 
L 239.4165 316.976342 
z
" style="fill: #ffffff; opacity: 0"/>
    </g>
    <text style="font-weight: 700; font-size: 16px; font-family: 'Source Sans 3', sans-serif; fill: #883e3a; opacity: 0" transform="translate(239.4165 328.528842)">PI contains 93.2%</text>
    <text style="font-weight: 700; font-size: 16px; font-family: 'Source Sans 3', sans-serif; fill: #883e3a; opacity: 0" transform="translate(246.68025 345.944342)">of observations</text>
   </g>
   <g id="TAG-1-LABEL-BOLD">
    <g id="patch_7">
     <path d="M 239.4165 349.496842 
L 351.9915 349.496842 
L 351.9915 316.976342 
L 239.4165 316.976342 
z
" style="fill: #ffffff; opacity: 0"/>
    </g>
    <text style="font-weight: 700; font-size: 16px; font-family: 'Source Sans 3', sans-serif; fill: #883e3a; opacity: 0" transform="translate(239.4165 328.528842)">PI contains 71.2%</text>
    <text style="font-weight: 700; font-size: 16px; font-family: 'Source Sans 3', sans-serif; fill: #883e3a; opacity: 0" transform="translate(246.68025 345.944342)">of observations</text>
   </g>
   <g id="TAG-2-LABEL-BOLD">
    <g id="patch_8">
     <path d="M 239.4165 349.496842 
L 351.9915 349.496842 
L 351.9915 316.976342 
L 239.4165 316.976342 
z
" style="fill: #ffffff; opacity: 0"/>
    </g>
    <text style="font-weight: 700; font-size: 16px; font-family: 'Source Sans 3', sans-serif; fill: #883e3a; opacity: 0" transform="translate(239.4165 328.528842)">PI contains 47.9%</text>
    <text style="font-weight: 700; font-size: 16px; font-family: 'Source Sans 3', sans-serif; fill: #883e3a; opacity: 0" transform="translate(246.68025 345.944342)">of observations</text>
   </g>
   <g id="PI-PATCH-MEDIAN">
    <path d="M 55.944 415.444875 
L 59.109149 413.172662 
L 62.274297 417.089789 
L 65.439446 412.66049 
L 68.604594 415.042148 
L 71.769743 415.403496 
L 74.934891 429.51547 
L 78.10004 417.344587 
L 81.265188 415.002956 
L 84.430337 412.840061 
L 87.595485 415.761046 
L 90.760634 415.613833 
L 93.925782 411.646838 
L 97.090931 421.670493 
L 100.256079 423.192538 
L 103.421228 420.403164 
L 106.586376 422.239313 
L 109.751525 413.596177 
L 112.916673 414.105337 
L 116.081822 411.976868 
L 119.24697 411.557197 
L 122.412119 414.004299 
L 125.577267 417.539084 
L 128.742416 420.820147 
L 131.907564 429.502389 
L 135.072713 416.944564 
L 138.237861 418.14866 
L 141.40301 416.903772 
L 144.568158 423.313367 
L 147.733307 413.74424 
L 150.898455 415.613418 
L 154.063604 413.791842 
L 157.228752 407.253389 
L 160.393901 411.994666 
L 163.55905 415.075173 
L 166.724198 404.184094 
L 169.889347 423.949866 
L 173.054495 423.932541 
L 176.219644 423.00839 
L 179.384792 421.204083 
L 182.549941 420.346672 
L 185.715089 412.813342 
L 188.880238 432.16093 
L 192.045386 423.546736 
L 195.210535 412.900473 
L 198.375683 421.684251 
L 201.540832 414.689718 
L 204.70598 412.140983 
L 207.871129 412.634386 
L 211.036277 416.097858 
L 214.201426 415.074948 
L 217.366574 414.505326 
L 220.531723 412.168233 
L 223.696871 413.600725 
L 226.86202 412.32429 
L 230.027168 410.789037 
L 233.192317 410.19107 
L 236.357465 411.455635 
L 239.522614 415.92034 
L 242.687762 421.65339 
L 245.852911 424.267277 
L 249.018059 441.676323 
L 252.183208 441.08604 
L 258.513505 442.966991 
L 261.678653 441.966889 
L 264.843802 437.128947 
L 268.00895 439.997756 
L 271.174099 443.115726 
L 274.339248 444.758938 
L 277.504396 446.715418 
L 280.669545 447.269921 
L 283.834693 445.127911 
L 286.999842 447.773784 
L 290.16499 446.870417 
L 293.330139 447.606014 
L 296.495287 439.563146 
L 299.660436 429.086079 
L 302.825584 424.390896 
L 305.990733 415.769659 
L 309.155881 418.911761 
L 312.32103 431.264056 
L 315.486178 434.023632 
L 318.651327 441.806645 
L 321.816475 447.797777 
L 324.981624 442.583522 
L 328.146772 446.84323 
L 331.311921 438.054345 
L 334.477069 446.023231 
L 337.642218 447.223446 
L 340.807366 446.823083 
L 343.972515 443.266678 
L 347.137663 441.902042 
L 350.302812 442.821159 
L 353.46796 443.266352 
L 356.633109 440.793385 
L 359.798257 439.651427 
L 362.963406 446.440913 
L 366.128554 442.338214 
L 369.293703 447.590242 
L 372.458851 446.192772 
L 375.624 443.367299 
L 378.789149 444.14905 
L 381.954297 446.929637 
L 400.6 446.838673 
L 400.6 446.838673 
" clip-path="url(#p464abe3c44)" style="fill: none; stroke: #00264c; stroke-opacity: 0; stroke-linecap: square"/>
   </g>
   <g id="OBSERVED-FORECAST-LINE">
    <path d="M 55.944 358.537511 
L 59.109149 347.542941 
L 62.274297 354.515109 
L 65.439446 352.369825 
L 68.604594 350.626783 
L 71.769743 431.611183 
L 74.934891 418.60541 
L 78.10004 372.213683 
L 81.265188 399.163791 
L 84.430337 397.688911 
L 87.595485 412.201341 
L 90.760634 403.132831 
L 93.925782 421.407254 
L 97.090931 426.07891 
L 100.256079 415.923809 
L 103.421228 424.102695 
L 106.586376 390.046345 
L 109.751525 402.649875 
L 112.916673 390.314504 
L 116.081822 403.186196 
L 119.24697 403.320276 
L 122.412119 414.583005 
L 125.577267 415.253405 
L 128.742416 430.357674 
L 131.907564 405.924251 
L 135.072713 407.406301 
L 138.237861 400.669723 
L 141.40301 423.035157 
L 144.568158 392.459788 
L 147.733307 382.135618 
L 150.898455 386.962503 
L 154.063604 398.359311 
L 157.228752 364.168879 
L 160.393901 401.979475 
L 163.55905 393.934665 
L 166.724198 417.26461 
L 169.889347 421.152932 
L 173.054495 422.225574 
L 176.219644 415.789726 
L 179.384792 421.823332 
L 182.549941 403.454355 
L 185.715089 433.488305 
L 188.880238 426.113898 
L 192.045386 370.336564 
L 195.210535 415.521567 
L 198.375683 397.018511 
L 201.540832 334.403093 
L 204.70598 312.548022 
L 207.871129 315.363706 
L 211.036277 339.229978 
L 214.201426 370.604723 
L 217.366574 390.046345 
L 220.531723 411.633245 
L 223.696871 393.264264 
L 226.86202 386.962503 
L 230.027168 392.727947 
L 233.192317 402.113555 
L 236.357465 414.046684 
L 239.522614 424.639016 
L 242.687762 426.382057 
L 245.852911 448.639359 
L 249.018059 444.080635 
L 252.183208 444.628138 
L 255.348356 443.941129 
L 258.513505 443.744003 
L 261.678653 436.796242 
L 264.843802 438.30766 
L 268.00895 444.885115 
L 271.174099 444.751035 
L 274.339248 447.834878 
L 277.504396 448.773439 
L 280.669545 445.421436 
L 283.834693 446.359997 
L 286.999842 449.44384 
L 290.16499 446.359997 
L 293.330139 434.1336 
L 296.495287 421.283647 
L 299.660436 417.241702 
L 302.825584 359.846067 
L 305.990733 372.10664 
L 309.155881 416.728289 
L 312.32103 430.940781 
L 315.486178 438.583349 
L 318.651327 448.103038 
L 321.816475 445.689596 
L 324.981624 447.700798 
L 328.146772 442.203513 
L 331.311921 444.616955 
L 334.477069 447.700798 
L 337.642218 449.175679 
L 340.807366 446.359997 
L 343.972515 444.080635 
L 347.137663 446.359997 
L 350.302812 448.371199 
L 353.46796 445.689596 
L 356.633109 448.103038 
L 359.798257 446.896317 
L 362.963406 447.968958 
L 366.128554 447.432638 
L 369.293703 448.103038 
L 372.458851 449.44384 
L 375.624 445.957756 
L 378.789149 446.896317 
L 381.954297 449.175679 
L 400.6 449.08603 
L 400.6 449.08603 
" clip-path="url(#p464abe3c44)" style="fill: none; stroke-dasharray: 1,1.65; stroke-dashoffset: 0; stroke: #883e3a"/>
   </g>
   <g id="PI-missed-dummy">
    <defs>
     <path id="m29007098cb" d="M 0 3.9975 
C 1.060149 3.9975 2.077021 3.576298 2.826659 2.826659 
C 3.576298 2.077021 3.9975 1.060149 3.9975 0 
C 3.9975 -1.060149 3.576298 -2.077021 2.826659 -2.826659 
C 2.077021 -3.576298 1.060149 -3.9975 0 -3.9975 
C -1.060149 -3.9975 -2.077021 -3.576298 -2.826659 -2.826659 
C -3.576298 -2.077021 -3.9975 -1.060149 -3.9975 0 
C -3.9975 1.060149 -3.576298 2.077021 -2.826659 2.826659 
C -2.077021 3.576298 -1.060149 3.9975 0 3.9975 
z
" style="stroke: #595959"/>
    </defs>
    <g clip-path="url(#p464abe3c44)"/>
   </g>
   <g id="patch_9">
    <path d="M 55.944 449.712 
L 55.944 283.31856 
" style="fill: none; stroke: #949494; stroke-width: 0.8; stroke-linejoin: miter; stroke-linecap: square"/>
   </g>
   <g id="patch_10">
    <path d="M 55.944 449.712 
L 375.624 449.712 
" style="fill: none; stroke: #949494; stroke-width: 0.8; stroke-linejoin: miter; stroke-linecap: square"/>
   </g>
   <g id="PI-missed-0">
    <defs>
     <path id="ma6a2fcfe0b" d="M 0 4 
C 1.060812 4 2.078319 3.578535 2.828427 2.828427 
C 3.578535 2.078319 4 1.060812 4 0 
C 4 -1.060812 3.578535 -2.078319 2.828427 -2.828427 
C 2.078319 -3.578535 1.060812 -4 0 -4 
C -1.060812 -4 -2.078319 -3.578535 -2.828427 -2.828427 
C -3.578535 -2.078319 -4 -1.060812 -4 0 
C -4 1.060812 -3.578535 2.078319 -2.828427 2.828427 
C -2.078319 3.578535 -1.060812 4 0 4 
z
" style="stroke: #595959; stroke-opacity: 0"/>
    </defs>
    <g>
     <use xlink:href="#ma6a2fcfe0b" x="131.907564" y="405.924251" style="fill-opacity: 0; stroke: #595959; stroke-opacity: 0"/>
     <use xlink:href="#ma6a2fcfe0b" x="138.237861" y="400.669723" style="fill-opacity: 0; stroke: #595959; stroke-opacity: 0"/>
     <use xlink:href="#ma6a2fcfe0b" x="182.549941" y="403.454355" style="fill-opacity: 0; stroke: #595959; stroke-opacity: 0"/>
     <use xlink:href="#ma6a2fcfe0b" x="185.715089" y="433.488305" style="fill-opacity: 0; stroke: #595959; stroke-opacity: 0"/>
     <use xlink:href="#ma6a2fcfe0b" x="245.852911" y="448.639359" style="fill-opacity: 0; stroke: #595959; stroke-opacity: 0"/>
    </g>
   </g>
   <g id="PI-missed-1">
    <defs>
     <path id="m5cbf1512d6" d="M 0 4.0025 
C 1.061475 4.0025 2.079618 3.580771 2.830195 2.830195 
C 3.580771 2.079618 4.0025 1.061475 4.0025 0 
C 4.0025 -1.061475 3.580771 -2.079618 2.830195 -2.830195 
C 2.079618 -3.580771 1.061475 -4.0025 0 -4.0025 
C -1.061475 -4.0025 -2.079618 -3.580771 -2.830195 -2.830195 
C -3.580771 -2.079618 -4.0025 -1.061475 -4.0025 0 
C -4.0025 1.061475 -3.580771 2.079618 -2.830195 2.830195 
C -2.079618 3.580771 -1.061475 4.0025 0 4.0025 
z
" style="stroke: #595959; stroke-opacity: 0"/>
    </defs>
    <g>
     <use xlink:href="#m5cbf1512d6" x="90.760634" y="403.132831" style="fill-opacity: 0; stroke: #595959; stroke-opacity: 0"/>
     <use xlink:href="#m5cbf1512d6" x="109.751525" y="402.649875" style="fill-opacity: 0; stroke: #595959; stroke-opacity: 0"/>
     <use xlink:href="#m5cbf1512d6" x="116.081822" y="403.186196" style="fill-opacity: 0; stroke: #595959; stroke-opacity: 0"/>
     <use xlink:href="#m5cbf1512d6" x="119.24697" y="403.320276" style="fill-opacity: 0; stroke: #595959; stroke-opacity: 0"/>
     <use xlink:href="#m5cbf1512d6" x="131.907564" y="405.924251" style="fill-opacity: 0; stroke: #595959; stroke-opacity: 0"/>
     <use xlink:href="#m5cbf1512d6" x="135.072713" y="407.406301" style="fill-opacity: 0; stroke: #595959; stroke-opacity: 0"/>
     <use xlink:href="#m5cbf1512d6" x="138.237861" y="400.669723" style="fill-opacity: 0; stroke: #595959; stroke-opacity: 0"/>
     <use xlink:href="#m5cbf1512d6" x="160.393901" y="401.979475" style="fill-opacity: 0; stroke: #595959; stroke-opacity: 0"/>
     <use xlink:href="#m5cbf1512d6" x="182.549941" y="403.454355" style="fill-opacity: 0; stroke: #595959; stroke-opacity: 0"/>
     <use xlink:href="#m5cbf1512d6" x="185.715089" y="433.488305" style="fill-opacity: 0; stroke: #595959; stroke-opacity: 0"/>
     <use xlink:href="#m5cbf1512d6" x="233.192317" y="402.113555" style="fill-opacity: 0; stroke: #595959; stroke-opacity: 0"/>
     <use xlink:href="#m5cbf1512d6" x="245.852911" y="448.639359" style="fill-opacity: 0; stroke: #595959; stroke-opacity: 0"/>
     <use xlink:href="#m5cbf1512d6" x="286.999842" y="449.44384" style="fill-opacity: 0; stroke: #595959; stroke-opacity: 0"/>
     <use xlink:href="#m5cbf1512d6" x="296.495287" y="421.283647" style="fill-opacity: 0; stroke: #595959; stroke-opacity: 0"/>
     <use xlink:href="#m5cbf1512d6" x="299.660436" y="417.241702" style="fill-opacity: 0; stroke: #595959; stroke-opacity: 0"/>
     <use xlink:href="#m5cbf1512d6" x="318.651327" y="448.103038" style="fill-opacity: 0; stroke: #595959; stroke-opacity: 0"/>
     <use xlink:href="#m5cbf1512d6" x="337.642218" y="449.175679" style="fill-opacity: 0; stroke: #595959; stroke-opacity: 0"/>
     <use xlink:href="#m5cbf1512d6" x="350.302812" y="448.371199" style="fill-opacity: 0; stroke: #595959; stroke-opacity: 0"/>
     <use xlink:href="#m5cbf1512d6" x="356.633109" y="448.103038" style="fill-opacity: 0; stroke: #595959; stroke-opacity: 0"/>
     <use xlink:href="#m5cbf1512d6" x="359.798257" y="446.896317" style="fill-opacity: 0; stroke: #595959; stroke-opacity: 0"/>
     <use xlink:href="#m5cbf1512d6" x="372.458851" y="449.44384" style="fill-opacity: 0; stroke: #595959; stroke-opacity: 0"/>
    </g>
   </g>
   <g id="PI-missed-2">
    <defs>
     <path id="m63d7c5a48a" d="M 0 4.005 
C 1.062138 4.005 2.080917 3.583008 2.831963 2.831963 
C 3.583008 2.080917 4.005 1.062138 4.005 0 
C 4.005 -1.062138 3.583008 -2.080917 2.831963 -2.831963 
C 2.080917 -3.583008 1.062138 -4.005 0 -4.005 
C -1.062138 -4.005 -2.080917 -3.583008 -2.831963 -2.831963 
C -3.583008 -2.080917 -4.005 -1.062138 -4.005 0 
C -4.005 1.062138 -3.583008 2.080917 -2.831963 2.831963 
C -2.080917 3.583008 -1.062138 4.005 0 4.005 
z
" style="stroke: #595959; stroke-opacity: 0"/>
    </defs>
    <g>
     <use xlink:href="#m63d7c5a48a" x="71.769743" y="431.611183" style="fill-opacity: 0; stroke: #595959; stroke-opacity: 0"/>
     <use xlink:href="#m63d7c5a48a" x="74.934891" y="418.60541" style="fill-opacity: 0; stroke: #595959; stroke-opacity: 0"/>
     <use xlink:href="#m63d7c5a48a" x="90.760634" y="403.132831" style="fill-opacity: 0; stroke: #595959; stroke-opacity: 0"/>
     <use xlink:href="#m63d7c5a48a" x="93.925782" y="421.407254" style="fill-opacity: 0; stroke: #595959; stroke-opacity: 0"/>
     <use xlink:href="#m63d7c5a48a" x="100.256079" y="415.923809" style="fill-opacity: 0; stroke: #595959; stroke-opacity: 0"/>
     <use xlink:href="#m63d7c5a48a" x="109.751525" y="402.649875" style="fill-opacity: 0; stroke: #595959; stroke-opacity: 0"/>
     <use xlink:href="#m63d7c5a48a" x="116.081822" y="403.186196" style="fill-opacity: 0; stroke: #595959; stroke-opacity: 0"/>
     <use xlink:href="#m63d7c5a48a" x="119.24697" y="403.320276" style="fill-opacity: 0; stroke: #595959; stroke-opacity: 0"/>
     <use xlink:href="#m63d7c5a48a" x="128.742416" y="430.357674" style="fill-opacity: 0; stroke: #595959; stroke-opacity: 0"/>
     <use xlink:href="#m63d7c5a48a" x="131.907564" y="405.924251" style="fill-opacity: 0; stroke: #595959; stroke-opacity: 0"/>
     <use xlink:href="#m63d7c5a48a" x="135.072713" y="407.406301" style="fill-opacity: 0; stroke: #595959; stroke-opacity: 0"/>
     <use xlink:href="#m63d7c5a48a" x="138.237861" y="400.669723" style="fill-opacity: 0; stroke: #595959; stroke-opacity: 0"/>
     <use xlink:href="#m63d7c5a48a" x="160.393901" y="401.979475" style="fill-opacity: 0; stroke: #595959; stroke-opacity: 0"/>
     <use xlink:href="#m63d7c5a48a" x="166.724198" y="417.26461" style="fill-opacity: 0; stroke: #595959; stroke-opacity: 0"/>
     <use xlink:href="#m63d7c5a48a" x="176.219644" y="415.789726" style="fill-opacity: 0; stroke: #595959; stroke-opacity: 0"/>
     <use xlink:href="#m63d7c5a48a" x="182.549941" y="403.454355" style="fill-opacity: 0; stroke: #595959; stroke-opacity: 0"/>
     <use xlink:href="#m63d7c5a48a" x="185.715089" y="433.488305" style="fill-opacity: 0; stroke: #595959; stroke-opacity: 0"/>
     <use xlink:href="#m63d7c5a48a" x="188.880238" y="426.113898" style="fill-opacity: 0; stroke: #595959; stroke-opacity: 0"/>
     <use xlink:href="#m63d7c5a48a" x="233.192317" y="402.113555" style="fill-opacity: 0; stroke: #595959; stroke-opacity: 0"/>
     <use xlink:href="#m63d7c5a48a" x="239.522614" y="424.639016" style="fill-opacity: 0; stroke: #595959; stroke-opacity: 0"/>
     <use xlink:href="#m63d7c5a48a" x="245.852911" y="448.639359" style="fill-opacity: 0; stroke: #595959; stroke-opacity: 0"/>
     <use xlink:href="#m63d7c5a48a" x="268.00895" y="444.885115" style="fill-opacity: 0; stroke: #595959; stroke-opacity: 0"/>
     <use xlink:href="#m63d7c5a48a" x="274.339248" y="447.834878" style="fill-opacity: 0; stroke: #595959; stroke-opacity: 0"/>
     <use xlink:href="#m63d7c5a48a" x="277.504396" y="448.773439" style="fill-opacity: 0; stroke: #595959; stroke-opacity: 0"/>
     <use xlink:href="#m63d7c5a48a" x="286.999842" y="449.44384" style="fill-opacity: 0; stroke: #595959; stroke-opacity: 0"/>
     <use xlink:href="#m63d7c5a48a" x="293.330139" y="434.1336" style="fill-opacity: 0; stroke: #595959; stroke-opacity: 0"/>
     <use xlink:href="#m63d7c5a48a" x="296.495287" y="421.283647" style="fill-opacity: 0; stroke: #595959; stroke-opacity: 0"/>
     <use xlink:href="#m63d7c5a48a" x="299.660436" y="417.241702" style="fill-opacity: 0; stroke: #595959; stroke-opacity: 0"/>
     <use xlink:href="#m63d7c5a48a" x="318.651327" y="448.103038" style="fill-opacity: 0; stroke: #595959; stroke-opacity: 0"/>
     <use xlink:href="#m63d7c5a48a" x="324.981624" y="447.700798" style="fill-opacity: 0; stroke: #595959; stroke-opacity: 0"/>
     <use xlink:href="#m63d7c5a48a" x="331.311921" y="444.616955" style="fill-opacity: 0; stroke: #595959; stroke-opacity: 0"/>
     <use xlink:href="#m63d7c5a48a" x="337.642218" y="449.175679" style="fill-opacity: 0; stroke: #595959; stroke-opacity: 0"/>
     <use xlink:href="#m63d7c5a48a" x="347.137663" y="446.359997" style="fill-opacity: 0; stroke: #595959; stroke-opacity: 0"/>
     <use xlink:href="#m63d7c5a48a" x="350.302812" y="448.371199" style="fill-opacity: 0; stroke: #595959; stroke-opacity: 0"/>
     <use xlink:href="#m63d7c5a48a" x="356.633109" y="448.103038" style="fill-opacity: 0; stroke: #595959; stroke-opacity: 0"/>
     <use xlink:href="#m63d7c5a48a" x="359.798257" y="446.896317" style="fill-opacity: 0; stroke: #595959; stroke-opacity: 0"/>
     <use xlink:href="#m63d7c5a48a" x="366.128554" y="447.432638" style="fill-opacity: 0; stroke: #595959; stroke-opacity: 0"/>
     <use xlink:href="#m63d7c5a48a" x="372.458851" y="449.44384" style="fill-opacity: 0; stroke: #595959; stroke-opacity: 0"/>
    </g>
   </g>
   <g id="text_17">
    <text style="font-weight: 800; font-size: 20px; font-family: 'Source Sans 3', sans-serif; text-anchor: start" x="55.944" y="277.31856" transform="rotate(-0 55.944 277.31856)">Streamflow percentile</text>
   </g>
   <g id="legend-pi">
    <g id="patch_11">
     <path d="M 67.144 319.22356 
L 392.164 319.22356 
Q 395.364 319.22356 395.364 316.02356 
L 395.364 294.51856 
Q 395.364 291.31856 392.164 291.31856 
L 67.144 291.31856 
Q 63.944 291.31856 63.944 294.51856 
L 63.944 316.02356 
Q 63.944 319.22356 67.144 319.22356 
L 67.144 319.22356 
z
" style="fill: none; opacity: 0.8"/>
    </g>
    <g id="line2d_21">
     <path d="M 70.344 303.67106 
L 86.344 303.67106 
L 102.344 303.67106 
" style="fill: none; stroke-dasharray: 1,1.65; stroke-dashoffset: 0; stroke: #883e3a"/>
    </g>
    <g id="text_18">
     <text style="font-weight: 300; font-size: 16px; font-family: 'Source Sans 3', sans-serif; text-anchor: start; fill: #595959" x="115.144" y="309.27106" transform="rotate(-0 115.144 309.27106)">Observations</text>
    </g>
    <g id="line2d_22">
     <g>
      <use xlink:href="#m29007098cb" x="247.3015" y="303.67106" style="fill-opacity: 0; stroke: #595959"/>
     </g>
    </g>
    <g id="text_19">
     <text style="font-weight: 300; font-size: 16px; font-family: 'Source Sans 3', sans-serif; text-anchor: start; fill: #595959" x="276.1015" y="309.27106" transform="rotate(-0 276.1015 309.27106)">Missed Prediction</text>
    </g>
   </g>
   <g id="legend-pi">
    <g id="patch_12">
     <path d="M 67.144 319.22356 
L 392.164 319.22356 
Q 395.364 319.22356 395.364 316.02356 
L 395.364 294.51856 
Q 395.364 291.31856 392.164 291.31856 
L 67.144 291.31856 
Q 63.944 291.31856 63.944 294.51856 
L 63.944 316.02356 
Q 63.944 319.22356 67.144 319.22356 
L 67.144 319.22356 
z
" style="fill: none; opacity: 0.8"/>
    </g>
    <g id="line2d_23">
     <path d="M 70.344 303.67106 
L 86.344 303.67106 
L 102.344 303.67106 
" style="fill: none; stroke-dasharray: 1,1.65; stroke-dashoffset: 0; stroke: #883e3a"/>
    </g>
    <g id="text_20">
     <text style="font-weight: 300; font-size: 16px; font-family: 'Source Sans 3', sans-serif; text-anchor: start; fill: #595959" x="115.144" y="309.27106" transform="rotate(-0 115.144 309.27106)">Observations</text>
    </g>
    <g id="line2d_24">
     <g>
      <use xlink:href="#m29007098cb" x="247.3015" y="303.67106" style="fill-opacity: 0; stroke: #595959"/>
     </g>
    </g>
    <g id="text_21">
     <text style="font-weight: 300; font-size: 16px; font-family: 'Source Sans 3', sans-serif; text-anchor: start; fill: #595959" x="276.1015" y="309.27106" transform="rotate(-0 276.1015 309.27106)">Missed Prediction</text>
    </g>
   </g>
  </g>
 </g>
 <defs>
  <clipPath id="p58715d9fcc">
   <rect x="55.944" y="33.47856" width="319.68" height="166.39344"/>
  </clipPath>
  <clipPath id="p464abe3c44">
   <rect x="55.944" y="283.31856" width="319.68" height="166.39344"/>
  </clipPath>
 </defs>
</svg>
